<?xml version="1.0" standalone="no"?>
<!DOCTYPE svg PUBLIC "-//W3C//DTD SVG 20010904//EN"
 "http://www.w3.org/TR/2001/REC-SVG-20010904/DTD/svg10.dtd">
<svg version="1.0" xmlns="http://www.w3.org/2000/svg"
 width="1217.000000pt" height="1280.000000pt" viewBox="0 0 1217.000000 1280.000000"
 preserveAspectRatio="xMidYMid meet">
<metadata>
Created by potrace 1.15, written by Peter Selinger 2001-2017
</metadata>
<g transform="translate(0.000000,1280.000000) scale(0.100000,-0.100000)"
fill="#000000" stroke="none">
<path d="M1400 6395 l0 -5815 170 0 170 0 2 2698 3 2697 34 95 c49 140 105
241 162 295 27 25 49 51 49 58 0 7 -23 40 -51 72 -85 101 -127 180 -139 265
-10 65 -32 779 -24 788 1 2 5 -27 9 -65 10 -107 24 -181 51 -277 41 -145 82
-215 199 -337 124 -130 185 -236 185 -323 0 -75 6 -80 75 -66 87 18 246 -2
358 -45 69 -27 69 -17 2 80 -74 105 -114 204 -124 309 l-6 59 -91 -2 c-225 -5
-387 87 -487 277 -21 39 -46 104 -56 144 -18 70 -41 253 -41 325 l0 33 90 0
90 0 0 68 c0 131 -29 182 -105 182 -58 0 -106 20 -128 53 -19 29 -20 47 -18
312 l1 190 24 -65 c37 -103 101 -235 151 -310 79 -119 179 -215 380 -365 214
-160 273 -217 315 -308 45 -95 37 -181 -24 -262 -40 -52 -97 -78 -186 -83
-120 -7 -198 26 -235 99 -62 118 71 266 191 213 l39 -17 -44 -7 c-32 -5 -52
-16 -74 -40 -27 -30 -29 -38 -24 -83 8 -60 26 -90 66 -107 64 -26 148 16 171
86 15 44 5 133 -20 189 -38 86 -128 132 -223 114 -81 -15 -134 -54 -173 -129
-25 -47 -25 -165 -1 -243 57 -184 290 -266 484 -172 168 83 220 314 117 524
-44 90 -151 200 -301 311 -56 41 -101 76 -99 77 1 1 29 -5 61 -15 96 -26 327
-23 430 6 233 67 392 225 425 423 l12 66 59 7 c91 9 216 44 295 81 87 42 156
93 299 220 134 119 210 160 300 159 107 0 178 -57 191 -155 10 -77 -57 -151
-138 -151 -60 0 -105 25 -125 67 -16 34 -16 36 7 60 29 31 40 24 40 -26 0 -29
7 -47 25 -64 28 -29 36 -30 75 -10 20 10 32 27 39 53 14 47 14 108 1 133 -28
51 -133 65 -190 26 -50 -33 -69 -74 -76 -158 -7 -89 10 -128 75 -174 37 -26
51 -30 110 -30 57 0 74 4 110 28 77 51 124 157 125 282 1 99 -54 185 -141 221
-18 8 -33 15 -33 17 0 1 167 3 370 5 l370 3 0 -28 c0 -26 -5 -30 -46 -41 -64
-17 -137 -92 -158 -163 -23 -77 -23 -531 0 -608 21 -70 90 -142 157 -161 49
-15 65 -45 30 -56 -98 -31 -163 -92 -187 -175 -12 -38 -16 -97 -16 -215 l0
-162 -127 -42 c-417 -138 -809 -325 -1113 -531 -534 -362 -864 -799 -967
-1279 -26 -122 -26 -450 1 -570 53 -245 160 -471 327 -692 83 -110 330 -356
449 -448 724 -556 1747 -893 2925 -961 249 -15 776 -6 1015 16 776 71 1466
255 2050 546 314 157 530 297 750 486 363 311 583 658 672 1055 30 135 33 415
5 548 -73 354 -259 675 -560 967 -265 258 -615 486 -1020 668 -161 72 -459
185 -579 220 l-56 16 -4 192 c-3 190 -3 193 -31 240 -32 55 -93 102 -149 117
-54 15 -52 42 5 57 52 14 121 72 150 127 21 40 22 50 22 341 0 275 -2 303 -19
338 -34 68 -122 137 -176 137 -16 0 -20 6 -20 30 l0 30 775 0 775 0 29 -58
c34 -67 67 -162 76 -213 5 -36 7 -37 68 -48 72 -14 147 -47 213 -92 37 -25 46
-28 39 -13 -31 73 -46 163 -42 251 l5 92 -69 32 c-38 18 -68 33 -66 35 4 4
150 -33 224 -57 l62 -20 37 40 c42 47 157 108 257 136 37 11 67 22 67 25 0 4
-24 12 -52 20 -124 31 -258 103 -293 156 -14 22 -17 22 -54 9 -55 -19 -252
-67 -257 -62 -2 2 28 18 67 35 62 28 70 34 64 53 -19 58 -2 218 30 295 8 19
12 34 10 34 -1 0 -26 -15 -54 -34 -61 -41 -144 -74 -214 -84 -50 -7 -52 -8
-55 -42 -4 -50 -29 -124 -69 -202 l-33 -68 -775 0 c-682 0 -775 2 -775 15 0
52 -98 75 -138 32 -12 -13 -22 -29 -22 -35 0 -9 -349 -12 -1495 -12 -1235 0
-1495 2 -1495 13 0 26 -45 57 -81 57 -36 0 -79 -32 -79 -58 0 -9 -81 -12 -327
-12 -310 0 -325 1 -311 18 49 55 79 199 59 279 -31 121 -110 193 -213 193 -32
0 -73 -6 -91 -14 -44 -18 -94 -78 -104 -123 -14 -71 -9 -157 10 -186 62 -94
219 -88 246 10 19 67 14 127 -12 151 -50 47 -108 14 -121 -68 -8 -48 -20 -51
-46 -8 -23 38 -15 59 33 88 94 57 206 -10 223 -133 5 -37 3 -51 -15 -75 -54
-77 -190 -94 -301 -39 -30 15 -111 77 -180 138 -150 132 -237 192 -336 231
-75 29 -243 68 -294 68 -26 0 -28 3 -38 66 -26 158 -134 296 -292 372 -129 62
-192 76 -355 76 -77 1 -155 -2 -173 -6 -27 -6 -17 5 65 71 161 129 235 217
275 330 17 47 19 72 14 162 -7 132 -32 204 -93 270 -66 70 -146 103 -253 103
-99 0 -169 -26 -238 -88 -66 -60 -87 -114 -86 -221 1 -106 13 -154 53 -216 73
-116 257 -132 343 -31 40 47 51 95 45 182 -7 105 -28 147 -86 173 -41 18 -49
19 -85 6 -21 -8 -48 -26 -59 -41 -17 -23 -19 -35 -12 -94 6 -59 11 -72 41
-102 l35 -35 -45 5 c-52 6 -100 37 -122 79 -13 25 -13 36 -3 67 18 56 38 80
88 110 41 24 56 27 136 27 77 0 98 -4 140 -26 148 -76 147 -243 -2 -401 -32
-33 -137 -119 -233 -191 -306 -227 -399 -342 -522 -642 l-28 -70 2 195 c4 265
17 292 153 309 48 5 72 13 81 26 15 20 19 156 8 214 l-6 31 -79 0 -79 0 0 53
c0 136 53 338 116 443 102 170 241 247 452 248 l102 1 6 35 c21 137 73 265
140 347 33 40 42 79 28 116 -5 14 -10 14 -40 1 -107 -45 -339 -71 -406 -45
-24 9 -25 7 -37 -62 -20 -118 -68 -201 -193 -333 -87 -92 -116 -130 -148 -195
-42 -88 -76 -218 -89 -344 -7 -71 -8 -62 -10 90 -1 234 15 471 39 548 21 67
75 156 139 229 36 41 40 49 34 83 -5 29 -20 52 -62 94 -97 96 -181 288 -181
412 l0 69 -170 0 -170 0 0 -5815z m1355 3675 c181 -46 299 -130 362 -257 34
-69 38 -84 38 -157 0 -73 -4 -89 -37 -159 -48 -100 -119 -175 -201 -213 -57
-26 -72 -29 -177 -29 -103 0 -121 3 -170 26 -67 31 -113 75 -145 140 -29 57
-31 88 -8 160 33 105 149 189 258 189 63 0 131 -28 169 -70 49 -55 49 -90 -3
-141 -58 -58 -67 -53 -63 36 3 72 2 76 -26 105 -42 42 -83 41 -127 -3 -19 -19
-37 -46 -41 -61 -10 -42 5 -132 29 -168 25 -38 116 -88 159 -88 39 0 97 26
131 58 52 49 67 92 67 190 0 79 -3 96 -28 143 -69 133 -263 186 -415 115 -83
-40 -132 -88 -174 -173 -36 -72 -37 -81 -36 -167 2 -144 37 -243 116 -324 l41
-42 -269 2 -270 3 -31 65 c-17 36 -35 78 -38 94 -7 28 -6 29 25 22 43 -8 88
-45 119 -95 14 -22 27 -40 30 -40 3 0 21 25 40 55 38 60 101 108 154 118 31 6
33 8 27 38 -6 27 -12 32 -54 43 -55 14 -114 65 -154 134 l-26 43 -15 -28 c-28
-57 -108 -124 -147 -124 -21 0 56 189 111 271 90 136 248 243 424 289 103 26
252 26 355 0z m645 -516 c140 -39 259 -141 325 -277 19 -41 35 -79 35 -86 0
-8 -101 -11 -379 -11 l-379 0 73 73 c81 81 125 161 146 265 l13 64 56 -7 c30
-3 80 -13 110 -21z m421 -230 c13 -14 57 -53 97 -85 l73 -59 -80 0 -79 0 -11
50 c-6 28 -17 66 -25 85 -18 42 -9 45 25 9z m-1208 -376 c-2 -5 -12 -8 -22 -8
-33 0 -120 -51 -161 -96 -52 -56 -97 -150 -106 -221 -9 -73 11 -193 43 -261
99 -211 386 -270 543 -113 53 53 70 100 70 193 0 79 -36 157 -93 202 -86 69
-230 35 -283 -66 -30 -58 -11 -162 37 -207 33 -30 92 -29 124 4 20 19 25 34
25 74 0 27 -5 62 -10 77 -14 36 -8 39 37 18 79 -39 92 -120 30 -184 -45 -47
-90 -63 -174 -63 -108 1 -191 52 -242 148 -60 115 16 283 158 349 38 17 65 21
161 21 108 0 119 -2 180 -31 82 -39 140 -97 184 -185 48 -96 61 -165 46 -243
-34 -174 -142 -281 -355 -352 -100 -34 -120 -37 -220 -37 -232 1 -451 100
-578 262 -51 65 -117 195 -141 279 l-15 52 28 0 c49 0 114 -52 152 -123 l16
-29 31 55 c38 67 90 112 149 126 39 10 44 14 41 37 -2 21 -13 29 -56 43 -60
21 -111 65 -149 129 -14 23 -26 42 -27 42 -2 0 -17 -22 -35 -49 -33 -52 -84
-91 -119 -91 -20 0 -20 2 -7 58 19 80 41 139 65 172 l21 29 328 -2 c181 -1
327 -5 324 -9z m1167 -3 c0 -28 -41 -139 -70 -190 -87 -153 -248 -254 -411
-258 l-62 -2 -12 61 c-35 168 -163 319 -315 373 l-55 20 125 3 c69 2 277 5
463 6 297 2 337 0 337 -13z m340 7 c0 -2 -17 -10 -37 -18 -54 -23 -137 -82
-234 -167 l-86 -75 24 58 c12 32 28 91 34 131 l12 74 143 0 c79 0 144 -1 144
-3z m4060 -20 c0 -24 -5 -29 -42 -39 -56 -15 -120 -71 -149 -130 -24 -47 -24
-53 -24 -338 l0 -290 30 -54 c33 -60 87 -105 147 -123 55 -16 50 -39 -17 -67
-60 -25 -118 -82 -142 -140 -9 -21 -18 -81 -21 -143 -5 -103 -6 -107 -26 -103
-116 27 -542 78 -784 95 -194 13 -710 13 -907 0 -248 -17 -677 -69 -791 -96
-21 -5 -22 -2 -26 108 -3 102 -6 118 -32 166 -34 60 -77 97 -141 119 -61 20
-60 45 1 61 31 9 60 27 94 61 77 77 82 105 78 433 -3 258 -4 275 -25 314 -30
57 -95 112 -148 126 -40 11 -45 15 -45 40 l0 28 1485 0 1485 0 0 -28z m235
-506 c0 -236 -1 -255 -19 -275 -11 -12 -22 -21 -26 -21 -4 0 -10 30 -12 66 -4
58 -8 70 -32 90 -31 28 -56 30 -95 9 -33 -17 -51 -59 -51 -121 0 -49 -11 -55
-34 -22 -14 19 -16 62 -16 273 0 211 2 254 16 273 8 12 19 22 24 22 4 0 10
-40 12 -89 3 -78 6 -93 27 -115 36 -38 91 -36 125 5 24 28 26 38 26 122 l0 92
28 -28 27 -27 0 -254z m-3385 214 c0 -84 15 -132 45 -144 38 -14 82 -6 106 20
21 22 24 37 27 115 2 49 7 89 11 89 5 0 15 -8 24 -18 14 -15 16 -55 19 -274 3
-240 2 -257 -16 -277 -28 -31 -36 -26 -36 24 0 62 -23 113 -56 125 -70 27
-124 -24 -124 -117 0 -57 -10 -66 -34 -31 -14 19 -16 63 -16 277 0 223 2 257
17 273 9 10 20 18 25 18 4 0 8 -36 8 -80z m33 -1076 c35 -30 78 -31 113 -1 23
20 27 33 32 95 l5 73 23 -22 c21 -19 23 -32 26 -130 2 -90 0 -110 -12 -114 -8
-2 -64 -16 -125 -30 -60 -14 -118 -28 -127 -31 -17 -5 -18 6 -18 140 0 138 1
147 23 169 l22 22 5 -73 c4 -65 8 -77 33 -98z m3151 -1 c35 -30 77 -29 113 1
24 21 28 32 31 94 3 56 7 69 18 65 33 -13 44 -59 44 -193 0 -71 -3 -130 -7
-130 -5 1 -69 16 -143 34 l-135 34 -3 107 c-3 101 -1 110 20 132 l23 25 6 -73
c5 -62 9 -75 33 -96z m-3149 -960 c52 -45 114 -22 139 52 l14 39 21 -34 c74
-121 -55 -255 -186 -194 -78 38 -102 145 -46 206 17 20 18 19 25 -13 3 -19 18
-44 33 -56z m3151 0 c50 -45 124 -16 142 57 l9 35 21 -35 c77 -124 -59 -261
-188 -189 -70 39 -91 120 -48 189 l21 35 9 -35 c5 -19 20 -45 34 -57z"/>
</g>
</svg>
