<?xml version="1.0" standalone="no"?>
<!DOCTYPE svg PUBLIC "-//W3C//DTD SVG 20010904//EN"
 "http://www.w3.org/TR/2001/REC-SVG-20010904/DTD/svg10.dtd">
<svg version="1.0" xmlns="http://www.w3.org/2000/svg"
 width="1280.000000pt" height="935.000000pt" viewBox="0 0 1280.000000 935.000000"
 preserveAspectRatio="xMidYMid meet">
<metadata>
Created by potrace 1.15, written by Peter Selinger 2001-2017
</metadata>
<g transform="translate(0.000000,935.000000) scale(0.100000,-0.100000)"
fill="#000000" stroke="none">
<path d="M1280 8880 c0 -307 -3 -470 -10 -470 -5 0 -10 -6 -10 -14 0 -8 -19
-54 -42 -102 -47 -97 -47 -103 -48 -369 0 -60 -12 -191 -25 -290 -50 -371 -59
-488 -60 -790 l0 -290 39 -155 c42 -167 80 -263 126 -322 l30 -37 0 -156 0
-157 -101 -520 c-55 -286 -103 -527 -107 -536 -5 -15 -4 -16 13 -2 10 8 16 10
13 5 -13 -22 -242 -1105 -418 -1980 -169 -838 -250 -1088 -536 -1651 -119
-233 -147 -307 -137 -355 9 -45 81 -102 217 -169 115 -57 222 -90 335 -102 29
-4 35 -9 51 -51 26 -67 72 -120 148 -170 165 -108 320 -131 519 -79 91 24 150
59 203 119 l42 48 129 0 c71 0 129 -3 129 -7 0 -13 81 -9 93 4 7 7 36 45 65
84 52 71 52 71 52 148 l0 76 4390 0 4390 0 0 -97 0 -98 61 -77 60 -78 195 0
196 0 31 -32 c89 -88 330 -137 487 -99 148 36 299 147 335 246 10 28 23 55 29
61 6 7 54 21 106 33 216 49 343 102 432 180 43 38 43 39 46 117 4 75 2 80 -20
89 -17 7 -54 71 -138 240 -132 262 -208 441 -285 670 -93 276 -122 402 -259
1100 -36 182 -95 476 -131 654 -36 178 -63 326 -61 328 3 3 10 -23 17 -58 10
-49 14 -59 21 -43 5 12 6 5 3 -21 -4 -25 -2 -35 3 -27 6 9 15 -14 27 -72 10
-48 20 -84 22 -82 3 2 -5 49 -16 103 -123 593 -231 1105 -323 1528 -65 297
-112 537 -113 575 -1 36 -6 120 -10 187 l-8 122 27 36 c71 93 143 328 167 544
21 198 0 559 -57 986 -14 105 -27 249 -29 320 -6 281 -7 283 -47 369 -21 43
-38 87 -38 97 0 10 -4 19 -10 19 -6 0 -11 159 -12 443 -3 414 -4 442 -20 441
-10 -1 -18 2 -18 7 0 5 -118 9 -268 9 -262 0 -269 -1 -318 -24 -27 -13 -59
-26 -71 -30 -23 -7 -23 -10 -23 -162 l0 -154 -177 0 c-97 0 -173 3 -169 7 10
10 -55 73 -75 73 -10 0 -20 3 -22 8 -3 4 -80 7 -172 6 l-167 0 -25 -32 c-50
-64 -29 -62 -618 -62 l-535 0 -20 33 c-11 17 -21 35 -22 38 -2 3 -72 9 -155
11 -84 3 -151 3 -149 -1 2 -3 -19 -5 -47 -3 -49 3 -55 1 -96 -37 l-44 -41
-666 1 c-366 0 -660 3 -654 6 10 4 10 10 -2 26 -8 12 -15 29 -15 38 0 19 -68
26 -276 29 l-131 1 -43 -50 c-38 -46 -46 -51 -84 -51 -36 0 -48 6 -86 45 -24
25 -51 45 -60 45 -9 0 -20 3 -23 7 -8 8 -130 9 -143 1 -20 -12 -111 -18 -140
-9 -28 8 -35 5 -79 -34 -40 -36 -45 -44 -29 -48 11 -3 -294 -5 -676 -6 -382 0
-689 3 -683 7 9 6 4 17 -20 40 -38 37 -48 38 -282 28 l-159 -7 -20 -34 -20
-35 -554 0 -554 0 -41 46 -40 46 -114 -4 c-62 -2 -113 0 -113 5 0 4 -22 7 -50
7 -27 0 -50 -4 -50 -10 0 -5 -13 -10 -28 -10 -33 0 -103 -64 -80 -73 7 -3 -69
-6 -169 -6 l-183 -1 -2 176 -3 176 -79 29 -80 29 -278 0 -278 0 0 -470z m5236
-1603 c601 -496 1184 -825 1704 -960 161 -42 406 -97 606 -137 127 -25 218
-48 272 -71 l82 -34 -7 -60 c-5 -52 -11 -66 -49 -109 -24 -26 -44 -55 -44 -63
0 -25 39 -81 61 -88 10 -4 17 -10 15 -13 -2 -4 -9 -86 -15 -182 -6 -96 -23
-314 -36 -485 -35 -430 -72 -933 -91 -1235 -9 -140 -17 -256 -18 -257 0 -1
-26 5 -56 13 -30 8 -89 14 -132 14 -43 0 -78 2 -78 5 0 3 10 20 23 36 20 28
22 42 22 142 0 62 -6 157 -14 213 -18 130 -11 290 16 364 11 30 32 85 46 121
31 80 24 103 -41 136 -65 32 -149 38 -302 18 -208 -27 -336 -23 -525 14 -345
69 -432 83 -515 82 -79 0 -86 -2 -107 -26 -13 -14 -23 -33 -23 -41 0 -8 -6
-14 -14 -14 -43 0 -47 278 -6 428 l23 84 -22 42 c-11 24 -21 48 -21 54 0 19
-58 59 -94 66 -52 10 -165 -8 -444 -70 -136 -31 -283 -62 -327 -71 -115 -23
-308 -20 -485 7 -214 33 -334 17 -405 -54 -35 -35 -32 -68 20 -220 41 -120 66
-234 64 -296 -1 -23 -2 -23 -15 8 -10 22 -27 39 -52 49 -49 21 -166 9 -487
-53 -294 -56 -397 -63 -616 -39 -239 26 -343 11 -392 -56 -19 -26 -19 -26 18
-114 20 -48 43 -113 51 -144 19 -72 19 -208 -1 -345 -21 -154 -20 -257 5 -305
l19 -38 -92 -12 c-116 -15 -224 -44 -288 -76 -45 -23 -49 -24 -49 -7 0 119
-121 1681 -149 1932 -6 47 -13 140 -17 208 -7 117 -6 122 13 122 19 0 63 63
63 89 0 6 -18 31 -40 55 -40 43 -41 46 -38 106 l3 62 69 29 c38 16 111 36 162
44 330 54 747 155 979 240 66 24 168 57 228 74 59 17 137 44 173 61 60 27 204
116 204 126 0 2 -23 -5 -51 -17 -29 -11 -53 -18 -56 -16 -2 2 36 27 84 54 285
161 566 358 875 615 112 93 137 111 123 87 -4 -6 2 -5 14 3 12 7 21 17 21 22
0 11 13 1 156 -117z m3310 -1131 c173 -40 447 -95 619 -126 84 -15 146 -33
208 -61 48 -21 92 -39 97 -39 6 0 10 -40 10 -101 l0 -101 -55 -60 c-32 -34
-55 -68 -55 -81 0 -34 61 -121 88 -125 17 -3 21 -9 18 -25 -8 -37 -16 -133
-31 -387 -8 -135 -28 -405 -45 -600 -27 -327 -42 -524 -101 -1350 -11 -162
-23 -297 -25 -299 -2 -2 -30 15 -61 38 -32 23 -83 58 -113 79 -30 20 -58 41
-62 47 -18 24 -93 253 -128 390 -39 149 -264 1274 -257 1281 2 2 17 -53 32
-122 39 -170 44 -141 6 38 -17 79 -55 265 -86 413 -30 149 -89 427 -131 618
-45 206 -76 378 -78 422 -2 52 -8 79 -20 90 -20 21 -20 44 0 73 8 12 16 22 18
22 1 0 69 -15 152 -34z m-6766 -21 c32 -33 33 -36 15 -41 -18 -4 -29 -51 -100
-417 -44 -227 -80 -430 -81 -452 -1 -22 -40 -220 -87 -440 -47 -220 -127 -602
-177 -850 -50 -247 -104 -499 -120 -560 -68 -257 -221 -637 -277 -687 -18 -17
-19 -7 -46 380 -31 440 -101 1305 -147 1827 -35 382 -50 554 -50 573 0 6 11
12 24 12 39 0 102 93 92 135 -3 12 -31 48 -61 79 l-56 56 3 86 3 85 105 45
c81 34 134 49 230 65 129 20 524 99 620 123 76 19 72 20 110 -19z m6867 -1477
c-3 -7 -5 -2 -5 12 0 14 2 19 5 13 2 -7 2 -19 0 -25z m1920 -800 c-3 -7 -5 -2
-5 12 0 14 2 19 5 13 2 -7 2 -19 0 -25z"/>
<path d="M10001 4354 c0 -11 3 -14 6 -6 3 7 2 16 -1 19 -3 4 -6 -2 -5 -13z"/>
<path d="M10012 4310 c0 -14 2 -19 5 -12 2 6 2 18 0 25 -3 6 -5 1 -5 -13z"/>
<path d="M11952 3490 c0 -14 2 -19 5 -12 2 6 2 18 0 25 -3 6 -5 1 -5 -13z"/>
<path d="M11961 3444 c0 -11 3 -14 6 -6 3 7 2 16 -1 19 -3 4 -6 -2 -5 -13z"/>
<path d="M11971 3394 c0 -11 3 -14 6 -6 3 7 2 16 -1 19 -3 4 -6 -2 -5 -13z"/>
</g>
</svg>
