<?xml version="1.0" standalone="no"?>
<!DOCTYPE svg PUBLIC "-//W3C//DTD SVG 20010904//EN"
 "http://www.w3.org/TR/2001/REC-SVG-20010904/DTD/svg10.dtd">
<svg version="1.0" xmlns="http://www.w3.org/2000/svg"
 width="818.000000pt" height="1280.000000pt" viewBox="0 0 818.000000 1280.000000"
 preserveAspectRatio="xMidYMid meet">
<metadata>
Created by potrace 1.15, written by Peter Selinger 2001-2017
</metadata>
<g transform="translate(0.000000,1280.000000) scale(0.100000,-0.100000)"
fill="#000000" stroke="none">
<path d="M4345 12486 c-73 -20 -183 -61 -280 -106 -216 -99 -487 -332 -705
-605 -284 -357 -381 -510 -488 -771 -33 -82 -88 -214 -122 -294 -163 -384
-231 -638 -316 -1167 -25 -154 -41 -233 -49 -233 -7 0 -29 -13 -50 -30 -45
-36 -51 -37 -75 -7 -24 30 -107 30 -148 0 -41 -30 -78 -107 -92 -190 -7 -40
-17 -76 -22 -79 -17 -10 -67 37 -88 84 -72 161 -131 244 -194 273 -50 23 -162
25 -209 5 -18 -8 -78 -57 -135 -110 -57 -52 -131 -115 -165 -138 -54 -38 -64
-50 -80 -98 -13 -40 -17 -76 -14 -131 3 -68 7 -81 43 -135 21 -32 78 -98 125
-145 71 -71 88 -94 93 -125 4 -22 2 -172 -4 -334 -17 -496 -34 -2152 -31
-3160 2 -949 2 -955 -18 -988 -12 -18 -29 -35 -39 -38 -54 -18 -121 -60 -145
-89 -51 -64 -60 -105 -54 -233 7 -151 16 -176 76 -206 75 -39 115 -94 172
-237 31 -79 53 -105 102 -118 41 -12 108 -16 151 -9 15 2 24 -13 51 -92 48
-143 183 -403 246 -473 63 -71 241 -193 327 -224 170 -62 361 8 527 194 67 74
93 115 142 215 70 142 91 203 132 383 85 370 103 528 104 905 1 162 -5 358
-11 435 -12 134 -91 682 -113 786 -6 28 -9 53 -6 55 2 3 85 -2 183 -10 363
-31 695 -49 906 -50 l216 -1 6 -37 c7 -41 82 -192 119 -238 12 -16 34 -34 49
-40 15 -7 41 -36 59 -65 17 -28 44 -60 60 -69 36 -21 38 -57 9 -136 -24 -65
-25 -88 -6 -109 58 -65 77 -81 96 -81 20 0 22 -4 17 -42 -3 -24 -11 -179 -18
-345 -10 -242 -10 -442 0 -995 6 -381 16 -1024 22 -1428 6 -404 13 -856 17
-1004 l7 -269 43 -15 c24 -8 45 -12 46 -11 2 2 -3 227 -10 499 -7 272 -20 988
-29 1590 -14 885 -15 1163 -6 1450 7 195 13 398 14 450 l2 95 53 3 c30 2 60
-2 67 -8 17 -14 35 -5 35 16 0 8 -8 27 -17 41 -10 15 -19 36 -19 48 -1 11 -12
45 -24 75 -12 30 -26 69 -31 86 -5 18 -16 37 -24 44 -14 11 -14 15 1 31 10 11
23 19 31 19 17 0 17 24 -1 40 -13 10 -10 26 20 110 40 115 64 211 64 257 0 17
4 34 9 37 5 3 161 13 348 21 749 33 1419 101 1593 160 49 17 120 75 120 99 0
27 -50 122 -78 148 -15 14 -105 76 -201 138 -95 62 -196 136 -225 164 -215
212 -413 404 -426 412 -8 5 -26 29 -39 54 -14 25 -69 122 -124 215 -212 363
-304 585 -482 1165 -95 307 -122 383 -176 492 -42 84 -63 112 -151 200 -156
157 -265 231 -463 312 -23 10 -47 29 -57 46 -20 35 -67 66 -122 81 l-39 10 5
90 c5 88 6 90 42 122 25 21 40 45 46 72 17 74 13 95 -30 138 -22 22 -39 41
-37 43 2 3 39 13 83 25 43 11 88 28 98 37 32 28 56 93 56 152 0 53 2 57 66
130 67 76 177 233 248 350 96 160 181 367 250 604 26 89 68 411 81 611 13 222
-39 515 -128 715 -30 70 -143 236 -214 317 -66 75 -113 104 -235 144 -80 26
-111 31 -228 34 -93 3 -150 0 -185 -9z m215 -366 c70 -28 161 -93 228 -164 38
-40 69 -90 112 -179 68 -141 86 -222 96 -447 8 -168 -3 -249 -60 -465 -100
-381 -179 -580 -316 -802 -56 -91 -76 -103 -175 -103 -74 0 -224 -34 -282 -63
-49 -25 -103 -77 -103 -100 -1 -26 -31 30 -57 107 -25 74 -27 94 -27 226 0
166 19 260 80 384 37 77 51 96 102 138 49 41 93 50 149 31 l46 -16 -6 -56 c-6
-67 -47 -189 -79 -237 -17 -24 -31 -34 -50 -34 -33 0 -130 -37 -140 -53 -16
-26 -6 -96 25 -171 41 -101 66 -121 150 -121 80 0 121 21 205 104 88 86 152
202 186 335 29 111 32 172 12 301 -25 164 -80 271 -170 331 -53 35 -59 37
-121 32 -48 -4 -87 -16 -149 -46 -107 -51 -156 -87 -231 -170 -75 -84 -93
-109 -143 -200 l-39 -72 -19 42 c-10 23 -30 56 -44 72 -30 36 -113 76 -159 76
-117 0 -333 -107 -404 -201 -60 -78 -144 -241 -167 -324 -45 -160 -43 -342 6
-486 l26 -75 -26 -51 c-27 -55 -35 -62 -79 -78 -75 -27 -181 -157 -222 -273
-26 -76 -75 -151 -75 -114 0 15 30 241 50 382 77 536 279 1126 548 1595 98
171 413 561 529 656 101 83 458 289 538 310 53 14 195 2 255 -21z m-997 -1709
c63 -70 91 -145 127 -346 33 -178 83 -379 119 -472 38 -96 84 -160 148 -205
46 -31 51 -32 150 -32 57 0 103 -3 103 -8 0 -4 -4 -8 -9 -8 -12 0 -41 -75 -41
-108 0 -58 20 -104 51 -115 l29 -11 0 -93 0 -93 -35 0 c-48 0 -218 -56 -238
-78 -9 -10 -21 -32 -27 -48 -9 -25 -28 -38 -118 -82 -139 -67 -186 -103 -274
-211 -179 -220 -216 -306 -268 -616 -99 -592 -149 -805 -269 -1150 -110 -318
-139 -391 -168 -426 -14 -16 -27 -28 -29 -26 -2 2 -13 55 -24 118 -11 63 -39
198 -60 300 -115 535 -160 943 -163 1484 -2 271 0 286 72 469 43 111 51 124
124 200 90 93 118 141 120 202 1 24 7 44 12 44 10 0 32 11 109 53 29 15 31 15
63 -14 26 -22 43 -29 77 -29 42 0 45 -2 102 -75 33 -41 65 -93 72 -115 9 -25
30 -54 62 -80 50 -42 68 -47 102 -29 17 9 24 6 49 -24 60 -72 126 -70 159 5
31 72 2 182 -75 289 -19 27 -35 51 -35 54 0 3 11 5 24 5 13 0 35 9 50 21 47
37 30 95 -59 189 -33 35 -59 74 -70 107 -15 43 -24 53 -47 58 -15 3 -41 8 -58
11 -23 4 -30 11 -30 29 0 13 -12 46 -26 73 l-26 50 52 71 c86 119 102 160 107
281 5 114 -4 147 -45 165 -12 5 -25 18 -28 28 -8 24 -51 40 -91 32 -40 -7 -43
7 -14 63 35 67 122 132 177 132 24 0 40 -9 67 -39z m-1254 -1556 l39 -40 6
-485 c4 -349 11 -544 24 -695 11 -115 17 -212 16 -214 -8 -9 -104 213 -139
319 -97 302 -132 502 -122 705 10 189 35 314 85 429 23 53 27 57 39 40 7 -11
31 -37 52 -59z m-340 -1233 l75 -37 88 -170 c89 -172 150 -313 240 -550 49
-127 94 -283 85 -292 -3 -2 -35 41 -72 96 -93 141 -219 272 -309 321 -39 22
-81 40 -94 40 -12 0 -30 10 -40 22 -54 67 -85 97 -108 102 -25 7 -26 9 -19 59
3 29 6 144 6 256 l-1 203 37 -6 c21 -4 71 -23 112 -44z m17 -822 c15 -6 63
-45 107 -88 94 -91 189 -231 276 -406 61 -124 134 -318 129 -345 -2 -8 -20 12
-42 45 -67 101 -169 194 -270 244 -81 41 -95 45 -160 45 -73 -1 -125 -20 -186
-67 l-25 -20 -5 234 -6 233 58 57 c32 32 58 62 58 68 0 13 31 13 66 0z m-143
-1212 c2 -7 0 -21 -5 -31 -14 -27 -1 -66 30 -92 15 -13 42 -48 61 -79 33 -56
33 -56 16 -91 -24 -51 -12 -90 38 -126 25 -18 46 -43 53 -66 7 -19 26 -50 43
-67 17 -18 38 -55 46 -83 8 -28 36 -79 62 -114 41 -56 46 -70 48 -119 1 -37
13 -84 38 -145 33 -83 35 -93 24 -133 -11 -41 -5 -83 19 -147 9 -23 -41 14
-145 108 -75 67 -142 105 -205 113 -56 8 -87 0 -124 -31 l-30 -25 -6 31 c-3
18 -6 63 -6 101 0 39 -5 134 -11 212 -8 103 -8 180 1 286 13 173 14 199 5 357
-4 67 -5 129 -2 138 8 18 43 20 50 3z m502 -232 c44 -9 90 -19 103 -22 21 -4
22 -6 7 -27 -8 -12 -15 -30 -15 -40 0 -24 47 -68 113 -106 38 -22 61 -45 86
-86 34 -56 101 -209 101 -232 0 -6 -15 -16 -33 -22 -43 -15 -77 -46 -77 -72 0
-12 33 -76 72 -143 96 -161 120 -232 153 -456 25 -172 26 -199 20 -395 -10
-336 -46 -553 -127 -770 -51 -139 -75 -186 -132 -257 -117 -146 -280 -225
-392 -188 -116 38 -253 164 -321 296 -42 81 -106 234 -101 240 7 7 26 -13 53
-56 53 -85 115 -158 164 -194 95 -70 231 -96 309 -59 55 26 163 139 210 218
47 80 116 283 137 406 8 46 21 106 29 134 50 175 55 288 15 340 -17 21 -20 34
-14 74 8 57 -8 154 -32 190 -13 20 -17 52 -17 151 -1 123 -2 126 -36 190 -29
56 -34 76 -36 140 -2 89 -36 229 -68 285 -13 22 -31 67 -41 100 -9 33 -26 76
-37 95 -11 19 -32 55 -46 80 -63 113 -113 182 -145 196 -37 17 -33 17 98 -10z
m2383 -516 c-3 -10 -16 -15 -45 -15 -23 0 -45 -3 -49 -8 -7 -7 -44 20 -44 32
0 3 32 6 70 6 57 0 70 -3 68 -15z"/>
</g>
</svg>
