<?xml version="1.0" standalone="no"?>
<!DOCTYPE svg PUBLIC "-//W3C//DTD SVG 20010904//EN"
 "http://www.w3.org/TR/2001/REC-SVG-20010904/DTD/svg10.dtd">
<svg version="1.0" xmlns="http://www.w3.org/2000/svg"
 width="1280.000000pt" height="1128.000000pt" viewBox="0 0 1280.000000 1128.000000"
 preserveAspectRatio="xMidYMid meet">
<metadata>
Created by potrace 1.15, written by Peter Selinger 2001-2017
</metadata>
<g transform="translate(0.000000,1128.000000) scale(0.100000,-0.100000)"
fill="#000000" stroke="none">
<path d="M7706 10205 c-54 -19 -86 -54 -97 -106 -17 -73 -30 -86 -96 -92 -45
-4 -65 -1 -89 14 -28 17 -35 17 -83 4 -30 -8 -66 -26 -81 -40 -34 -33 -86 -48
-113 -33 -43 23 -168 -8 -199 -50 -18 -24 -62 -42 -104 -42 -52 0 -96 -22
-135 -69 -23 -26 -59 -51 -102 -71 -78 -35 -131 -79 -157 -129 -10 -20 -39
-51 -64 -70 -54 -38 -90 -88 -105 -147 -6 -23 -22 -56 -36 -75 -56 -77 -66
-98 -86 -189 -12 -52 -33 -122 -47 -155 -22 -55 -24 -68 -17 -156 6 -86 4 -99
-14 -131 -19 -31 -21 -52 -22 -164 0 -71 -1 -168 -2 -216 -1 -78 2 -92 23
-120 33 -44 39 -162 10 -178 -23 -12 -26 -40 -7 -59 13 -13 13 -2 21 -486 5
-255 10 -359 22 -415 12 -56 14 -92 8 -140 -11 -84 -11 -318 -1 -600 5 -124 9
-247 8 -275 -3 -381 3 -585 18 -614 6 -10 13 -45 16 -77 4 -33 11 -81 17 -107
9 -43 8 -53 -12 -91 -23 -41 -23 -44 -6 -77 30 -58 33 -306 6 -509 -28 -214
-47 -297 -74 -340 -13 -19 -59 -73 -102 -120 -146 -159 -205 -224 -332 -370
-166 -190 -313 -337 -385 -384 -95 -62 -178 -106 -188 -100 -6 3 -16 0 -24 -6
-8 -6 -19 -9 -26 -5 -6 4 -24 -2 -40 -14 -15 -11 -36 -21 -46 -21 -10 0 -29
-9 -43 -20 -14 -11 -32 -20 -40 -20 -8 0 -28 -9 -45 -20 -16 -11 -36 -20 -44
-20 -14 0 -47 -14 -176 -75 -38 -18 -86 -36 -105 -39 -81 -13 -349 -35 -610
-51 -30 -1 -226 -6 -435 -9 -550 -8 -703 -25 -820 -91 -113 -63 -172 -152
-182 -276 -7 -76 -20 -99 -59 -99 -17 0 -24 -6 -24 -18 0 -11 -9 -27 -21 -38
-56 -50 -98 -180 -99 -306 0 -42 4 -50 37 -77 21 -17 41 -31 46 -31 4 0 61
-29 125 -65 64 -35 203 -102 307 -148 105 -47 234 -105 287 -130 155 -73 360
-139 578 -188 74 -17 182 -41 240 -54 131 -30 257 -50 430 -69 246 -27 292
-29 703 -27 l407 1 98 31 c53 17 144 56 202 86 200 106 235 124 321 163 125
56 264 103 514 172 286 78 394 98 592 105 175 6 198 1 188 -41 -9 -35 -24
-550 -16 -558 9 -10 158 -33 336 -53 83 -9 173 -20 200 -25 68 -13 291 -29
457 -34 170 -5 373 8 453 29 123 33 168 67 252 191 140 207 397 598 433 659
13 22 52 83 86 135 115 175 143 263 106 336 -21 41 -47 68 -72 76 -13 4 -15
56 -15 384 -1 257 -5 405 -14 459 -7 44 -19 123 -27 175 -8 52 -28 158 -44
235 -42 204 -63 460 -55 684 4 99 11 195 16 213 4 17 6 41 3 54 -3 12 1 57 10
101 8 43 17 122 19 175 5 87 8 101 31 129 14 17 28 43 31 57 3 15 10 47 16 72
6 25 15 153 19 285 9 238 17 332 44 535 35 249 50 392 48 435 0 21 21 270 38
440 26 249 30 283 39 330 6 28 15 82 22 120 6 39 20 113 32 165 12 52 22 113
22 135 1 22 5 55 9 74 5 22 4 42 -5 57 -11 21 -10 27 8 47 12 12 35 49 53 82
29 55 31 66 27 134 -4 63 -1 80 20 124 28 56 30 91 18 312 -5 102 -11 143 -30
190 -28 72 -41 122 -50 193 -6 48 -25 82 -44 82 -9 0 -40 63 -56 117 -7 23
-30 59 -51 80 -62 61 -111 122 -123 151 -19 45 -57 79 -125 112 -43 20 -80 47
-108 80 -63 72 -113 103 -173 106 -45 3 -54 8 -90 48 -66 73 -83 80 -179 72
-82 -7 -84 -6 -104 19 -37 47 -149 83 -200 64 -26 -10 -55 3 -89 42 -34 39
-100 55 -146 35 l-37 -15 0 84 c0 81 -1 84 -30 105 -42 30 -121 41 -160 22
-17 -8 -35 -23 -41 -33 -8 -16 -22 -19 -100 -19 -97 0 -89 -4 -153 71 -19 23
-82 25 -140 4z"/>
</g>
</svg>
