<?xml version="1.0" standalone="no"?>
<!DOCTYPE svg PUBLIC "-//W3C//DTD SVG 20010904//EN"
 "http://www.w3.org/TR/2001/REC-SVG-20010904/DTD/svg10.dtd">
<svg version="1.0" xmlns="http://www.w3.org/2000/svg"
 width="1280.000000pt" height="996.000000pt" viewBox="0 0 1280.000000 996.000000"
 preserveAspectRatio="xMidYMid meet">
<metadata>
Created by potrace 1.15, written by Peter Selinger 2001-2017
</metadata>
<g transform="translate(0.000000,996.000000) scale(0.100000,-0.100000)"
fill="#000000" stroke="none">
<path d="M6815 9953 c-217 -28 -634 -148 -747 -214 -131 -77 -280 -223 -339
-331 -19 -35 -53 -110 -76 -168 l-43 -105 11 -90 c22 -189 53 -293 119 -400
l44 -70 28 -244 c15 -135 39 -288 52 -340 14 -53 50 -233 81 -401 30 -168 64
-341 75 -385 16 -67 19 -100 14 -210 -8 -165 9 -398 46 -637 43 -274 60 -416
67 -574 l6 -141 -37 -60 c-37 -61 -76 -166 -76 -206 0 -12 9 -51 20 -85 25
-79 25 -155 1 -207 -10 -22 -56 -92 -101 -155 -98 -137 -123 -184 -150 -281
-24 -88 -25 -164 -5 -244 18 -67 35 -97 106 -186 28 -35 62 -82 75 -104 l23
-41 -26 -64 c-61 -150 -67 -227 -27 -341 42 -118 28 -179 -71 -324 -31 -46
-55 -100 -85 -197 -135 -426 -141 -483 -71 -709 25 -80 31 -125 40 -280 7
-101 16 -213 22 -248 5 -35 7 -66 4 -69 -3 -3 -17 5 -31 19 l-27 24 7 -29 c4
-15 -1 -72 -10 -127 -26 -160 -19 -227 49 -414 l58 -160 -43 -65 c-67 -100
-106 -248 -79 -298 11 -20 12 -20 41 -4 26 15 30 22 30 63 0 26 7 63 15 82 8
20 15 47 15 60 0 13 13 36 29 51 l29 28 15 -22 c50 -71 370 -261 547 -325 77
-28 638 -173 745 -193 78 -15 380 -42 471 -42 96 0 232 25 305 56 33 13 65 24
72 23 16 -3 97 35 129 61 30 23 112 42 333 75 216 33 362 34 447 2 35 -13 95
-32 133 -42 39 -9 239 -73 445 -141 531 -175 597 -191 875 -208 124 -8 229
-17 235 -21 5 -3 92 -1 193 5 466 27 587 40 765 80 48 10 123 26 167 35 156
32 313 104 544 248 115 71 167 111 242 186 108 109 148 173 211 337 33 90 42
125 46 199 11 208 -33 315 -199 488 -135 143 -187 172 -286 164 l-63 -5 -31
62 c-34 67 -85 141 -119 171 -13 11 -46 52 -75 91 -71 95 -102 118 -316 230
-312 163 -461 223 -612 244 -40 6 -102 16 -138 22 -43 7 -114 8 -200 3 -74 -4
-168 -7 -209 -6 -86 2 -285 33 -380 60 l-65 18 -9 49 c-5 27 -9 334 -7 694 3
1061 -28 1556 -114 1829 -51 160 -106 208 -326 282 l-127 42 39 59 c21 33 45
82 54 109 l17 51 -27 28 -26 28 102 188 c56 104 124 230 152 279 98 176 207
412 243 525 19 63 62 198 94 300 69 217 84 291 71 349 -13 59 -36 90 -84 112
-83 37 -203 20 -387 -55 -47 -19 -86 -33 -88 -32 -1 2 9 53 23 114 36 161 63
332 70 447 7 114 -14 305 -39 354 -21 39 -64 70 -156 110 -169 75 -345 188
-501 321 -182 156 -541 422 -679 503 -43 25 -245 108 -360 149 -105 36 -486
127 -640 152 -242 40 -466 55 -585 39z m2731 -4276 c61 -31 163 -136 197 -203
36 -71 74 -219 91 -359 27 -213 64 -716 111 -1510 16 -271 20 -605 7 -605 -4
0 -50 14 -102 31 -119 38 -185 75 -243 138 -88 94 -122 193 -162 471 -45 315
-74 416 -148 519 l-36 50 43 25 c101 59 162 162 154 260 -4 48 -11 62 -61 123
-78 96 -311 323 -330 323 -15 0 -15 4 0 53 34 116 168 428 272 636 l43 84 57
-6 c32 -2 79 -16 107 -30z m-437 -995 c23 -17 46 -52 73 -109 58 -123 58 -139
10 -193 -29 -32 -43 -42 -51 -34 -8 7 -4 25 14 62 14 29 25 58 25 64 -1 27
-40 99 -78 140 -21 24 -42 58 -45 76 -7 37 -5 36 52 -6z m170 -1488 c9 -10
-53 6 -63 17 -6 5 4 5 24 -1 18 -5 35 -12 39 -16z"/>
<path d="M3460 9774 c-663 -52 -1470 -177 -1700 -263 -30 -11 -107 -32 -170
-46 -145 -32 -261 -70 -475 -155 -328 -131 -380 -157 -433 -215 -56 -61 -103
-164 -126 -277 -21 -101 -20 -146 4 -270 11 -57 23 -132 26 -168 5 -42 20 -96
44 -150 21 -47 49 -116 63 -155 14 -38 51 -128 82 -200 240 -548 460 -1199
631 -1872 l56 -222 -35 -88 c-48 -121 -183 -536 -196 -603 -15 -81 -17 -194
-7 -490 l8 -265 -32 -80 c-19 -46 -34 -106 -37 -142 -5 -58 -3 -69 37 -152
l43 -91 -6 -127 c-3 -71 -13 -164 -21 -208 -9 -44 -25 -147 -36 -230 -60 -438
-121 -519 -637 -863 -193 -129 -231 -167 -287 -286 -49 -104 -56 -143 -76
-414 -26 -342 -39 -416 -97 -555 -58 -143 -72 -192 -79 -297 -7 -105 8 -160
48 -174 21 -8 32 -6 47 8 16 15 20 35 23 139 4 121 4 123 61 263 31 78 63 172
71 210 8 38 24 195 36 349 23 314 36 376 98 470 52 79 73 97 232 200 323 209
489 356 562 499 48 94 86 240 113 441 9 66 25 171 36 233 10 63 19 139 19 170
l1 57 52 -55 c112 -119 177 -248 185 -365 5 -87 -33 -268 -78 -364 -39 -82
-143 -186 -320 -320 -171 -130 -236 -186 -271 -238 -73 -105 -171 -334 -277
-645 l-61 -177 -14 -342 c-9 -210 -12 -353 -6 -373 5 -17 9 -49 9 -72 0 -59
32 -176 81 -296 39 -95 49 -109 125 -185 73 -73 96 -89 206 -142 338 -163 588
-194 1373 -172 513 14 1078 71 1270 126 116 34 330 114 467 175 262 116 639
467 763 710 38 76 84 222 114 367 57 267 142 893 167 1217 18 236 15 302 -16
411 -26 92 -27 207 -1 274 36 90 60 247 50 329 -9 84 -24 114 -68 131 l-30 13
1 161 c0 89 -5 194 -11 232 -5 39 -20 183 -31 320 -26 312 -38 385 -105 666
-79 325 -89 405 -81 629 6 206 25 400 61 657 41 280 70 428 165 813 49 201
117 489 150 640 33 151 68 300 77 330 14 46 17 102 17 350 0 388 -25 603 -85
728 -27 56 -108 143 -178 193 -31 22 -84 62 -118 88 -84 67 -138 84 -380 125
-393 67 -505 79 -788 81 -143 1 -280 1 -305 -1z m-1914 -4414 c18 -104 27
-193 27 -270 1 -144 -16 -192 -141 -400 l-87 -145 -6 100 c-12 179 -9 341 5
419 8 41 47 173 87 293 83 250 73 250 115 3z"/>
</g>
</svg>
