<?xml version="1.0" standalone="no"?>
<!DOCTYPE svg PUBLIC "-//W3C//DTD SVG 20010904//EN"
 "http://www.w3.org/TR/2001/REC-SVG-20010904/DTD/svg10.dtd">
<svg version="1.0" xmlns="http://www.w3.org/2000/svg"
 width="1280.000000pt" height="1279.000000pt" viewBox="0 0 1280.000000 1279.000000"
 preserveAspectRatio="xMidYMid meet">
<metadata>
Created by potrace 1.15, written by Peter Selinger 2001-2017
</metadata>
<g transform="translate(0.000000,1279.000000) scale(0.100000,-0.100000)"
fill="#000000" stroke="none">
<path d="M6739 12762 c-73 -66 -8 -192 87 -168 75 19 100 112 45 167 -40 39
-89 40 -132 1z"/>
<path d="M7287 12602 c-22 -24 -21 -45 3 -67 45 -40 105 20 65 65 -23 25 -47
25 -68 2z"/>
<path d="M8530 12551 c-114 -37 -189 -137 -190 -252 0 -159 115 -275 270 -273
77 1 123 19 178 68 139 126 106 359 -64 441 -42 21 -152 30 -194 16z"/>
<path d="M6765 12540 c-40 -16 -77 -67 -82 -113 -10 -85 49 -147 141 -147 43
0 53 4 87 39 35 34 39 44 39 87 0 31 -7 61 -20 82 -31 51 -109 76 -165 52z"/>
<path d="M5199 12457 c-119 -44 -172 -167 -119 -272 20 -39 15 -54 -18 -55 -7
0 -69 -14 -137 -30 -120 -30 -127 -30 -170 -15 -106 35 -202 10 -286 -75 -53
-54 -64 -61 -200 -110 -601 -219 -1207 -559 -1702 -957 l-129 -103 -46 41
c-57 50 -164 104 -240 120 -126 26 -286 -3 -393 -71 -271 -175 -331 -558 -122
-791 24 -26 43 -50 43 -53 0 -3 -38 -52 -83 -109 -333 -409 -641 -922 -857
-1426 -61 -143 -79 -175 -102 -187 -57 -29 -80 -96 -57 -162 9 -27 4 -51 -40
-184 -58 -177 -95 -315 -150 -554 -188 -816 -195 -1726 -20 -2574 418 -2013
1833 -3695 3749 -4457 545 -217 1116 -352 1735 -410 224 -21 792 -24 1005 -5
532 47 985 138 1450 292 749 247 1412 617 2035 1136 168 140 580 551 725 724
505 601 905 1312 1149 2046 182 549 301 1223 301 1710 0 124 0 124 -68 124
-39 0 -103 -20 -155 -47 -17 -8 -101 -84 -187 -168 -168 -165 -223 -202 -317
-214 -70 -10 -154 2 -228 33 l-60 24 0 109 0 110 43 -19 c148 -66 314 -34 439
85 204 192 143 535 -115 655 -50 23 -70 27 -162 27 -94 0 -111 -3 -165 -28
-32 -15 -75 -40 -95 -54 -19 -14 -28 -18 -19 -9 13 15 15 25 7 57 -7 25 -16
39 -27 39 -9 0 3 9 26 19 57 26 128 94 152 144 43 91 34 200 -24 277 -15 19
-31 45 -36 58 -5 12 -16 22 -26 22 -10 1 -43 9 -73 20 -30 11 -74 19 -98 20
-24 0 -41 3 -38 8 6 10 -33 143 -95 327 -58 169 -63 181 -93 214 -21 23 -20
23 19 -2 22 -14 51 -35 64 -47 30 -25 38 -25 53 1 7 11 27 29 44 40 63 39 82
129 41 190 -67 101 -211 81 -252 -36 -11 -30 -14 -34 -15 -16 0 31 -151 336
-236 476 -36 61 -71 119 -78 130 -24 42 -100 150 -108 153 -4 2 -8 9 -8 16 0
7 -9 21 -20 31 -11 10 -20 22 -20 27 0 9 -35 53 -115 149 -16 19 -50 60 -75
89 -82 99 -173 193 -319 329 -24 23 -48 38 -55 34 -6 -4 1 8 17 26 39 47 37
93 -7 137 -47 47 -95 47 -141 1 l-33 -33 -13 23 c-7 13 -18 23 -25 23 -7 0
-14 3 -16 8 -9 22 -210 144 -280 171 -16 6 -28 15 -28 21 0 6 -4 9 -9 6 -4 -3
-24 3 -44 13 -36 18 -82 34 -102 35 -5 1 -16 6 -22 13 -7 6 -21 9 -32 6 -10
-3 -22 0 -25 6 -4 6 -18 8 -32 5 -13 -3 -24 -2 -24 4 0 14 -127 9 -142 -6 -9
-9 -14 -7 -23 5 -11 14 -23 10 -118 -38 -90 -46 -105 -57 -101 -74 3 -11 -2
-29 -11 -40 -16 -19 -16 -19 -5 3 8 17 8 32 1 53 -8 23 -7 28 2 23 7 -4 8 -3
4 1 -8 9 -17 12 -70 22 -60 12 -104 -79 -58 -121 10 -9 32 -21 47 -26 23 -6
25 -8 8 -9 -12 -1 -32 8 -46 18 -24 19 -24 19 -88 -15 -72 -38 -80 -40 -80
-19 0 19 -10 19 -35 1 -11 -7 -95 -51 -186 -98 -137 -70 -163 -87 -150 -96 9
-7 -40 17 -109 51 -425 214 -890 351 -1350 398 -174 18 -571 15 -745 -5 -263
-30 -547 -93 -770 -169 l-100 -34 -18 23 c-24 32 -61 40 -92 20 -31 -21 -35
-20 -35 4 0 32 -25 74 -64 108 -161 141 -398 -42 -305 -236 12 -24 39 -56 60
-72 l39 -28 -68 -35 c-102 -54 -277 -162 -370 -228 l-82 -59 -12 25 c-15 34
-68 65 -109 65 -107 0 -168 -133 -95 -209 l26 -27 -43 -42 -42 -42 -60 41
c-33 23 -81 52 -107 65 -47 24 -48 25 -48 72 0 92 -62 148 -152 140 -50 -5
-101 -40 -113 -78 -4 -14 -13 -16 -53 -9 -94 16 -299 10 -401 -11 -199 -40
-385 -132 -522 -258 -31 -29 -65 -52 -74 -52 -36 0 -83 -40 -101 -86 -9 -24
-14 -47 -11 -50 3 -4 -8 -27 -24 -51 -90 -130 -162 -340 -179 -521 -9 -97 -1
-258 16 -329 7 -27 6 -28 -13 -10 -63 55 -152 -34 -93 -93 40 -40 109 -14 111
43 0 24 5 15 20 -38 28 -98 107 -256 173 -344 30 -41 53 -78 51 -81 -3 -4 5
-16 18 -26 l22 -19 -20 25 c-10 14 11 -4 48 -40 37 -35 67 -67 67 -69 0 -3
-22 16 -49 43 -27 26 -50 44 -52 38 -2 -5 -49 -34 -104 -63 -55 -29 -130 -69
-167 -88 -65 -34 -67 -36 -50 -56 9 -11 0 -4 -21 14 -40 38 -51 56 -14 25 l22
-19 -19 22 c-10 13 -22 20 -27 18 -13 -9 -136 153 -285 378 -80 120 -174 249
-210 286 l-64 69 36 103 c44 126 148 386 181 453 13 26 22 55 19 63 -3 8 -2
12 3 9 11 -7 23 22 14 36 -3 6 -2 8 4 5 5 -3 24 24 41 61 18 37 26 58 17 48
-8 -11 -15 -24 -15 -29 0 -4 -4 -5 -10 -2 -6 4 -7 -1 -4 -12 4 -14 3 -15 -4
-4 -6 8 -12 9 -16 3 -3 -6 0 -12 6 -15 10 -4 11 -7 1 -18 -11 -11 -13 -10 -13
3 0 14 -4 14 -37 -3 -21 -10 -46 -19 -58 -18 -11 0 -1 6 23 14 46 14 77 37 95
70 13 24 27 106 16 100 -9 -6 -21 24 -13 36 3 5 2 8 -3 7 -10 -3 -64 37 -58
43 2 3 -23 2 -57 -1 -53 -5 -64 -10 -94 -43 -28 -30 -34 -45 -34 -79 0 -25 8
-57 20 -75 11 -18 17 -33 15 -33 -14 0 -45 70 -47 105 -1 36 -2 37 -5 8 -3
-24 -12 -35 -34 -45 -30 -13 -39 -28 -16 -28 21 -1 -25 -30 -47 -30 -15 0 -17
-3 -8 -8 7 -5 10 -16 6 -25 -3 -9 -10 -14 -15 -11 -5 3 -6 -2 -2 -12 5 -13 2
-15 -16 -9 -18 5 -24 2 -28 -14 -3 -12 -9 -21 -14 -21 -5 0 -9 -7 -9 -15 0 -8
-5 -15 -11 -15 -6 0 -9 -7 -5 -15 3 -8 -2 -21 -10 -29 -8 -9 -14 -18 -13 -21
2 -12 -20 -65 -28 -65 -7 0 -10 -36 -4 -61 0 -3 12 -4 26 -1 31 5 55 -13 54
-42 -1 -19 -2 -18 -8 4 -5 19 -13 25 -36 25 -25 0 -30 -4 -30 -25 0 -16 8 -29
25 -37 17 -9 20 -13 8 -13 -26 0 -50 30 -45 57 2 12 1 23 -3 23 -12 0 -17 -59
-6 -65 7 -3 7 -7 -1 -11 -7 -3 -13 -17 -13 -30 0 -14 -8 -36 -17 -50 -12 -19
-13 -28 -4 -33 9 -6 9 -15 1 -36 -15 -39 -7 -53 32 -58 18 -2 -7 -5 -57 -6
-202 -3 -413 -129 -608 -361 l-46 -55 44 170 c24 94 65 238 91 320 25 83 49
158 51 167 4 13 14 15 58 11 87 -9 145 41 145 126 0 46 -43 104 -84 115 l-24
6 47 112 c233 549 499 998 863 1455 l90 112 46 -30 c185 -117 432 -110 602 19
19 14 29 19 22 9 -8 -9 -34 -29 -58 -44 -24 -15 -44 -33 -44 -39 0 -6 -7 -17
-15 -24 -9 -7 -13 -15 -10 -18 3 -3 -2 -14 -12 -24 -9 -10 -13 -18 -8 -18 4 0
-11 -18 -34 -40 -23 -23 -39 -45 -36 -49 2 -5 -6 -16 -20 -25 -14 -9 -24 -20
-23 -24 1 -8 -9 -39 -23 -64 -6 -13 -5 -18 3 -18 7 0 1 -12 -14 -25 -16 -13
-28 -28 -28 -34 0 -5 -6 -12 -12 -14 -10 -4 -10 -8 1 -15 9 -7 10 -11 2 -17
-7 -3 -9 -15 -6 -25 3 -10 1 -21 -5 -25 -6 -3 -8 -10 -5 -15 3 -4 -1 -13 -9
-19 -8 -7 -12 -21 -9 -31 3 -11 0 -20 -6 -20 -6 0 -11 -6 -11 -14 0 -8 -7 -16
-15 -20 -23 -8 -18 -29 6 -23 18 5 18 3 7 -11 -7 -9 -17 -21 -23 -25 -5 -5 5
-5 24 -2 23 5 31 4 27 -4 -4 -6 -18 -11 -30 -11 -13 0 -29 -7 -36 -15 -10 -13
-9 -15 11 -15 18 0 20 -3 11 -12 -20 -20 -14 -28 21 -23 31 5 31 5 4 -4 -16
-5 -34 -14 -41 -20 -7 -6 -16 -8 -19 -4 -4 3 -7 1 -7 -6 0 -8 13 -11 37 -9 32
2 37 0 35 -14 -2 -14 4 -18 29 -18 18 0 42 8 53 18 18 15 18 14 -3 -18 l-23
-35 26 30 c14 17 24 35 21 42 -2 7 1 15 7 19 7 5 8 2 3 -7 -8 -12 -6 -12 8 0
10 7 16 21 15 30 -2 8 2 16 9 16 16 0 64 65 57 77 -3 5 -1 7 4 6 6 -2 57 53
114 122 58 69 132 154 165 189 l60 65 53 -23 c43 -19 67 -22 124 -19 40 2 87
12 107 22 49 23 108 82 128 128 l17 37 26 -33 c82 -102 242 -80 294 41 47 109
-39 233 -160 233 -56 0 -94 -18 -130 -61 -15 -17 -28 -30 -29 -28 -2 2 -9 22
-16 44 -14 39 -13 39 20 67 312 262 795 576 912 594 26 3 53 18 82 45 119 109
704 332 1167 444 125 30 479 96 485 91 2 -1 -2 -18 -7 -37 -51 -176 77 -350
255 -348 107 1 191 50 240 140 24 45 29 65 29 124 0 64 -7 89 -42 158 -2 4 81
7 185 7 l190 0 -5 -28 c-4 -30 18 -62 44 -62 27 0 56 40 49 67 l-6 25 83 -6
c443 -36 766 -92 1138 -199 638 -184 1242 -491 1755 -892 53 -42 100 -73 104
-70 5 2 15 -3 22 -13 13 -16 12 -16 -6 -2 -20 15 -20 14 -1 -8 18 -21 32 -30
22 -14 -2 4 14 9 36 9 39 2 62 18 52 35 -3 5 21 6 53 4 45 -4 49 -3 18 2 -22
5 -50 13 -61 20 -27 14 -74 69 -74 85 0 7 9 -2 20 -20 27 -45 64 -66 126 -73
29 -3 51 -4 49 -1 -3 2 9 13 26 23 40 24 73 97 64 141 -16 73 -71 117 -148
117 -41 0 -53 -5 -88 -37 -32 -30 -42 -48 -48 -88 -8 -43 -9 -45 -10 -15 0 19
6 47 13 63 9 15 10 27 5 27 -6 0 -17 7 -25 15 -11 11 -12 15 -3 15 7 0 2 11
-11 25 -13 14 -30 25 -37 25 -10 0 -12 7 -8 19 3 12 0 21 -10 24 -8 4 -12 13
-9 22 4 9 0 15 -9 15 -9 0 -19 9 -22 20 -4 12 -15 20 -27 20 -12 0 -19 3 -15
6 3 4 -4 15 -16 25 -12 10 -18 18 -13 19 5 0 -17 21 -50 46 -32 25 -61 49 -64
53 -3 5 -15 13 -28 20 -12 7 -20 16 -17 20 3 5 -6 12 -19 15 -14 3 -27 15 -31
25 -3 10 -20 25 -37 32 -18 7 -40 21 -50 31 -10 10 -22 18 -28 18 -5 0 -10 6
-10 14 0 8 -9 18 -20 21 -11 4 -18 10 -15 15 5 9 -18 20 -41 20 -8 0 -30 16
-48 35 -25 25 -44 35 -68 36 l-33 1 35 7 c73 15 100 43 100 105 0 54 -45 101
-99 101 -86 0 -132 -95 -81 -169 l21 -31 -25 28 c-14 15 -26 35 -26 44 0 9 -3
14 -6 11 -9 -9 -94 32 -123 58 -14 13 -34 24 -43 24 -10 0 -27 9 -37 19 -10
10 -30 22 -43 26 -33 9 -92 37 -98 45 -12 17 -245 122 -253 114 -2 -3 -10 2
-17 11 -7 8 -18 15 -25 15 -8 0 -26 6 -42 14 -56 28 -218 89 -278 105 -17 4
-40 13 -52 19 -30 16 -41 15 -46 -5 -2 -10 -4 -6 -2 9 1 15 -2 25 -6 22 -4 -2
-10 0 -13 5 -3 5 -20 14 -36 20 -17 5 -29 7 -26 3 3 -5 -5 -14 -17 -22 -20
-12 -21 -12 -9 3 12 14 9 17 -25 22 -21 4 -60 13 -88 20 -145 40 -276 70 -360
81 -22 3 -74 11 -115 19 -41 8 -92 15 -112 17 -21 1 -38 5 -38 8 0 3 -23 6
-50 8 -28 2 -65 5 -83 8 -253 38 -929 38 -1157 -1 -14 -2 -45 -7 -70 -10 -145
-20 -376 -59 -435 -73 -175 -44 -211 -52 -222 -48 -7 3 -13 2 -13 -2 0 -5 -7
-17 -15 -28 -12 -16 -12 -12 1 21 34 82 16 196 -41 270 l-24 32 144 32 c134
30 148 31 204 20 69 -15 122 -4 169 36 24 20 51 26 193 44 317 40 420 46 779
45 380 0 546 -11 873 -60 918 -136 1824 -492 2563 -1006 l91 -63 -33 -39 c-88
-102 -46 -263 83 -312 83 -32 190 5 235 82 13 23 24 32 30 26 7 -7 2 -18 -11
-31 -26 -26 -27 -43 -3 -64 27 -24 59 -21 78 8 l16 24 46 -42 c26 -23 76 -69
112 -102 36 -32 111 -104 168 -159 81 -81 102 -96 102 -79 0 28 -195 231 -360
376 -63 56 -118 106 -122 112 -5 6 -12 4 -18 -5 -8 -11 -9 -8 -4 12 9 42 -23
125 -66 168 -48 48 -129 70 -193 53 -37 -10 -40 -10 -23 3 12 8 14 14 7 14 -7
0 -31 14 -53 32 -22 17 -54 41 -71 53 -18 12 -86 59 -152 104 -66 45 -120 86
-120 91 0 4 -4 12 -9 17 -5 5 -6 3 -2 -4 9 -17 1 -16 -35 2 -16 9 -27 20 -24
25 3 5 0 12 -6 16 -8 4 -9 3 -5 -4 9 -15 1 -15 -25 -1 -11 5 -18 13 -15 17 2
4 -14 6 -37 5 l-42 -2 35 8 c185 42 300 153 330 319 28 159 -58 326 -208 399
-51 25 -67 28 -162 28 -95 0 -110 -3 -160 -28 -74 -38 -135 -99 -173 -172 -24
-48 -31 -76 -35 -140 -2 -44 0 -96 6 -115 6 -19 15 -51 21 -70 l11 -35 -23 27
c-39 46 -461 214 -795 317 -159 49 -465 125 -577 144 -63 11 -74 15 -53 20 39
10 58 34 58 71 0 60 -68 88 -110 46 -26 -26 -25 -68 3 -98 21 -23 21 -24 2
-19 -81 23 -463 70 -710 88 -320 23 -901 3 -1225 -42 -41 -5 -83 -11 -93 -12
-16 -2 -19 7 -20 64 -2 53 -7 73 -30 107 -46 70 -145 106 -218 79z m-803 -635
c0 -37 6 -77 13 -90 10 -20 9 -25 -16 -47 -27 -23 -27 -25 -13 -52 18 -32 60
-42 83 -19 13 13 17 13 33 -5 10 -11 14 -19 9 -18 -11 2 -28 -3 -90 -31 -22
-9 -64 -25 -92 -34 -29 -10 -53 -22 -53 -27 0 -5 -7 -9 -16 -9 -9 0 -77 -29
-151 -65 -74 -36 -139 -65 -144 -65 -16 0 -311 -161 -329 -180 -3 -3 -23 -13
-44 -23 -40 -18 -187 -114 -196 -127 -3 -4 -16 -13 -29 -20 -14 -7 -30 -17
-35 -21 -6 -5 -36 -26 -67 -47 -59 -39 -126 -93 -243 -196 -16 -14 -32 -26
-35 -26 -4 0 -21 -13 -39 -30 -18 -16 -37 -30 -43 -30 -5 0 -9 -5 -9 -10 0
-12 -70 -80 -82 -80 -4 0 -8 -6 -8 -13 0 -8 -12 -19 -27 -26 -34 -15 -73 -52
-73 -69 0 -7 -7 -15 -15 -18 -8 -4 -15 -11 -15 -17 0 -6 -17 -26 -37 -45 -31
-27 -38 -30 -43 -17 -4 10 -13 -7 -24 -44 -10 -34 -22 -63 -26 -66 -5 -3 1 21
13 52 16 45 21 82 21 163 1 120 -16 186 -71 277 -18 30 -30 59 -27 64 9 16
254 203 379 291 427 299 873 535 1360 719 99 38 180 68 180 69 0 0 0 -30 1
-68z m149 -250 c-3 -3 -11 0 -18 7 -9 10 -8 11 6 5 10 -3 15 -9 12 -12z
m-2055 -1405 c0 -2 -10 -12 -22 -23 l-23 -19 19 23 c18 21 26 27 26 19z m-40
-50 c0 -2 -12 -14 -27 -28 l-28 -24 24 28 c23 25 31 32 31 24z m-3 -109 c-3
-8 -6 -5 -6 6 -1 11 2 17 5 13 3 -3 4 -12 1 -19z m-1240 -2134 c-3 -3 -12 -4
-19 -1 -8 3 -5 6 6 6 11 1 17 -2 13 -5z m9860 -36 c-3 -8 -6 -5 -6 6 -1 11 2
17 5 13 3 -3 4 -12 1 -19z m-8606 -755 c13 -16 12 -17 -3 -4 -17 13 -22 21
-14 21 2 0 10 -8 17 -17z m-341 -218 c19 -19 32 -35 29 -35 -3 0 -20 16 -39
35 -19 19 -32 35 -29 35 3 0 20 -16 39 -35z"/>
<path d="M5837 12142 c-22 -24 -21 -45 1 -65 27 -24 59 -21 78 8 15 23 15 27
0 50 -20 30 -56 33 -79 7z"/>
<path d="M8086 10998 c-35 -49 -4 -111 54 -111 61 0 92 71 50 113 -28 28 -84
27 -104 -2z"/>
<path d="M6760 10813 c-56 -20 -83 -89 -56 -141 20 -38 44 -52 91 -52 71 0
119 86 85 151 -19 35 -80 57 -120 42z"/>
<path d="M4155 10780 c-115 -76 -63 -250 75 -250 56 0 96 25 121 78 29 58 19
104 -31 154 -33 34 -43 38 -86 38 -32 0 -60 -7 -79 -20z"/>
<path d="M8152 10748 c-18 -18 -15 -53 6 -71 24 -22 45 -21 65 1 34 37 15 82
-33 82 -14 0 -31 -5 -38 -12z"/>
<path d="M5450 10705 c-110 -31 -199 -107 -248 -213 -23 -49 -27 -70 -27 -152
0 -88 3 -101 33 -162 74 -151 237 -237 396 -209 124 22 230 103 284 219 23 49
27 70 27 152 0 88 -3 101 -33 162 -80 162 -265 249 -432 203z"/>
<path d="M6380 10553 c-25 -32 -20 -69 12 -95 66 -57 149 39 91 105 -25 27
-78 22 -103 -10z"/>
<path d="M10835 10542 c-55 -27 -104 -81 -119 -133 -11 -37 -11 -49 6 -93 26
-73 47 -97 114 -132 57 -29 62 -30 107 -19 93 23 167 113 167 201 0 134 -155
233 -275 176z"/>
<path d="M7325 10458 c-84 -18 -154 -107 -155 -193 0 -53 35 -121 82 -158 66
-53 181 -50 245 6 157 138 32 390 -172 345z"/>
<path d="M9055 10406 c-29 -43 18 -91 64 -67 29 16 36 49 15 72 -24 26 -60 24
-79 -5z"/>
<path d="M4364 10346 c-37 -37 -43 -70 -20 -115 46 -88 186 -54 186 46 -1 93
-100 135 -166 69z"/>
<path d="M6025 10336 c-44 -19 -103 -89 -111 -131 -11 -62 1 -123 33 -163 50
-62 77 -76 151 -80 61 -3 71 -1 114 27 100 64 123 194 51 289 -49 65 -160 92
-238 58z"/>
<path d="M11135 10186 c-50 -23 -135 -97 -135 -117 0 -14 -48 39 -55 62 -4 11
-16 19 -27 19 -17 0 -14 -8 26 -54 l46 -54 -11 -51 c-19 -88 9 -176 76 -243
48 -48 97 -71 165 -76 44 -3 60 -10 78 -31 l23 -26 -16 26 c-15 26 -15 26 15
33 40 8 113 58 145 99 76 101 72 248 -11 345 -76 90 -212 119 -319 68z"/>
<path d="M9735 10151 c-11 -5 -24 -6 -30 -3 -5 3 3 -9 19 -26 17 -18 32 -32
34 -32 3 0 -3 9 -12 19 -17 18 -15 19 43 26 34 4 58 11 55 16 -6 11 -81 11
-109 0z"/>
<path d="M8083 10128 c-40 -10 -73 -51 -73 -90 0 -121 162 -149 200 -34 13 39
3 71 -31 102 -30 27 -56 33 -96 22z"/>
<path d="M9805 10050 c21 -22 41 -40 44 -40 3 0 -13 18 -34 40 -21 22 -41 40
-44 40 -3 0 13 -18 34 -40z"/>
<path d="M964 10050 c-59 -23 -87 -106 -58 -167 53 -108 215 -83 231 36 13 98
-80 169 -173 131z"/>
<path d="M9940 9928 c24 -27 45 -48 47 -48 8 0 0 9 -44 50 l-48 45 45 -47z"/>
<path d="M1392 9858 c-16 -16 -15 -33 4 -48 22 -19 54 12 38 37 -14 22 -27 26
-42 11z"/>
<path d="M8587 9822 c-22 -25 -21 -55 2 -76 26 -24 62 -17 80 15 13 24 13 29
-2 53 -21 31 -56 34 -80 8z"/>
<path d="M11508 9793 c-37 -44 -27 -93 24 -114 25 -10 33 -9 56 8 35 26 41 74
13 102 -26 26 -73 27 -93 4z"/>
<path d="M8650 9646 c0 -8 4 -17 9 -20 5 -4 7 3 4 14 -6 23 -13 26 -13 6z"/>
<path d="M10022 9624 c-15 -10 -22 -25 -22 -49 0 -60 67 -86 108 -42 28 30 28
58 -1 85 -27 26 -54 28 -85 6z"/>
<path d="M472 9568 c-16 -16 -15 -33 4 -48 22 -19 54 12 38 37 -14 22 -27 26
-42 11z"/>
<path d="M2581 9556 c-16 -20 -3 -46 24 -46 13 0 26 7 29 16 7 19 -10 44 -29
44 -7 0 -18 -6 -24 -14z"/>
<path d="M10367 9523 c-15 -15 -6 -52 14 -58 28 -9 53 16 44 44 -6 20 -43 29
-58 14z"/>
<path d="M11155 9485 c-83 -29 -137 -124 -115 -205 40 -148 241 -177 318 -45
32 56 27 138 -12 189 -47 62 -121 86 -191 61z"/>
<path d="M775 9445 c-14 -13 -25 -31 -25 -40 0 -22 45 -65 68 -65 24 0 62 41
62 67 0 23 -43 63 -67 63 -8 0 -25 -11 -38 -25z"/>
<path d="M12414 9432 c-58 -28 -106 -73 -134 -129 -20 -38 -25 -63 -25 -123 0
-64 4 -83 29 -128 92 -166 314 -192 439 -52 53 58 70 103 70 180 1 106 -58
201 -152 246 -54 27 -175 30 -227 6z"/>
<path d="M1344 9411 c-141 -64 -121 -281 30 -322 78 -21 163 18 202 92 39 76
3 185 -75 226 -53 28 -102 29 -157 4z"/>
<path d="M1793 9354 c-9 -24 10 -49 38 -49 20 0 24 5 24 30 0 25 -4 30 -28 33
-18 2 -29 -2 -34 -14z"/>
<path d="M3345 9310 c-24 -27 -22 -70 5 -92 44 -35 100 -10 100 46 0 59 -66
89 -105 46z"/>
<path d="M71 9192 c-37 -20 -71 -73 -71 -110 0 -32 25 -76 56 -101 32 -25 92
-28 134 -6 85 44 75 183 -15 221 -45 18 -63 18 -104 -4z"/>
<path d="M1985 9180 c3 -5 8 -10 11 -10 2 0 4 5 4 10 0 6 -5 10 -11 10 -5 0
-7 -4 -4 -10z"/>
<path d="M2033 9098 c-15 -20 -25 -38 -20 -38 3 0 12 11 21 25 17 26 16 35 -1
13z"/>
<path d="M1953 9003 c-32 -28 -36 -56 -12 -86 36 -46 119 -24 119 32 0 50 -71
86 -107 54z"/>
<path d="M1150 8936 c-27 -33 18 -72 48 -42 13 13 14 20 6 34 -15 23 -38 26
-54 8z"/>
<path d="M10641 8927 c-24 -29 17 -70 46 -46 8 7 13 22 11 33 -4 25 -40 33
-57 13z"/>
<path d="M480 8732 c-50 -16 -65 -67 -29 -103 27 -27 67 -21 93 14 19 26 19
30 6 54 -16 28 -46 43 -70 35z"/>
<path d="M11407 8682 c-35 -39 -6 -112 43 -112 27 0 70 43 70 70 0 50 -79 80
-113 42z"/>
<path d="M1093 8554 c-8 -22 10 -49 32 -49 10 0 22 7 28 16 15 24 1 49 -28 49
-15 0 -28 -7 -32 -16z"/>
<path d="M12033 8555 c-38 -16 -73 -68 -73 -108 0 -66 58 -127 122 -127 100 0
159 85 120 174 -30 67 -99 92 -169 61z"/>
<path d="M12204 8365 c-4 -9 0 -23 8 -31 20 -20 50 -7 46 20 -4 26 -45 35 -54
11z"/>
<path d="M10913 8334 c-6 -17 6 -45 23 -51 21 -7 47 23 40 45 -9 27 -53 30
-63 6z"/>
<path d="M1834 8306 c-10 -26 4 -48 28 -44 17 2 23 10 23 28 0 18 -6 26 -23
28 -13 2 -25 -3 -28 -12z"/>
<path d="M12589 8181 c-32 -32 -39 -46 -39 -78 0 -89 87 -152 166 -122 46 18
84 69 84 114 0 38 -36 95 -70 112 -14 7 -42 13 -64 13 -31 0 -45 -7 -77 -39z"/>
<path d="M11490 8125 c-11 -14 -10 -19 8 -37 18 -18 23 -19 37 -8 22 18 15 54
-11 58 -11 2 -27 -4 -34 -13z"/>
<path d="M12030 7540 c-11 -11 -20 -31 -20 -45 0 -30 32 -65 60 -65 24 0 70
42 70 63 0 8 -9 26 -21 41 -25 31 -61 34 -89 6z"/>
<path d="M12068 7174 c-36 -19 -58 -63 -58 -114 0 -56 48 -109 105 -116 122
-15 191 131 101 213 -29 27 -44 33 -78 33 -24 -1 -55 -7 -70 -16z"/>
</g>
</svg>
