<?xml version="1.0" standalone="no"?>
<!DOCTYPE svg PUBLIC "-//W3C//DTD SVG 20010904//EN"
 "http://www.w3.org/TR/2001/REC-SVG-20010904/DTD/svg10.dtd">
<svg version="1.0" xmlns="http://www.w3.org/2000/svg"
 width="955.000000pt" height="1280.000000pt" viewBox="0 0 955.000000 1280.000000"
 preserveAspectRatio="xMidYMid meet">
<metadata>
Created by potrace 1.15, written by Peter Selinger 2001-2017
</metadata>
<g transform="translate(0.000000,1280.000000) scale(0.100000,-0.100000)"
fill="#000000" stroke="none">
<path d="M4419 12756 l-397 -41 -75 -71 c-41 -40 -150 -123 -243 -185 -247
-166 -355 -278 -399 -410 -28 -84 -80 -99 -262 -75 -65 9 -131 18 -148 20 -55
7 -137 -13 -209 -50 -135 -69 -155 -103 -167 -283 -5 -69 -14 -147 -20 -173
-10 -42 -15 -48 -57 -66 -139 -60 -272 -73 -352 -36 -49 23 -114 83 -137 127
-14 28 -15 28 -35 10 -32 -28 -55 -88 -77 -206 -31 -160 -38 -172 -107 -192
-166 -48 -269 -130 -472 -374 -137 -165 -178 -207 -257 -266 l-70 -52 -35
-104 c-19 -57 -99 -234 -178 -394 -267 -537 -309 -676 -299 -982 l5 -161 -86
-49 c-110 -63 -140 -99 -154 -189 -13 -86 -4 -327 16 -410 21 -87 58 -165 99
-210 l34 -39 7 -170 c4 -93 18 -487 31 -875 37 -1037 69 -1756 105 -2349 l9
-154 -45 -40 c-50 -44 -113 -163 -138 -263 -36 -139 -38 -341 -5 -442 30 -94
93 -172 156 -193 l33 -11 0 -148 c0 -82 -5 -217 -11 -302 -8 -118 -8 -172 1
-235 11 -72 10 -105 -10 -284 -15 -137 -20 -226 -16 -278 7 -84 25 -217 32
-242 3 -10 -9 -23 -35 -37 -42 -24 -39 -15 -57 -174 -5 -44 -20 -80 -70 -168
-35 -62 -64 -116 -64 -120 0 -4 8 -22 17 -41 14 -26 18 -57 17 -129 -1 -82 -7
-117 -48 -255 -59 -202 -70 -267 -63 -374 4 -76 14 -113 51 -202 5 -12 1 -18
-17 -23 -37 -9 -112 -86 -142 -145 -19 -38 -75 -215 -75 -239 0 -1 1783 -1
3963 1 3679 2 3968 4 4044 19 264 55 772 56 1093 2 52 -9 154 -18 227 -21
l132 -5 7 27 c16 63 -3 142 -64 273 -33 70 -63 143 -66 162 -6 34 -2 39 74
114 44 43 89 98 100 122 12 23 25 44 31 46 10 3 -82 362 -106 415 -30 64 -18
115 51 216 18 27 36 64 40 83 6 32 3 38 -32 68 -53 45 -79 103 -98 216 -21
125 -48 176 -114 220 l-52 34 1 136 c0 74 4 185 9 245 38 456 35 656 -10 844
-22 90 -85 234 -125 287 l-25 33 50 22 c56 24 114 82 137 137 13 32 14 67 3
286 -16 304 -9 803 20 1406 37 790 43 1011 37 1335 -10 527 -59 898 -163 1227
-14 44 -23 86 -20 94 8 20 46 33 134 45 42 6 93 17 114 26 36 14 38 18 38 58
0 23 -9 96 -21 161 -23 129 -21 192 7 270 33 93 5 149 -114 227 -117 78 -118
80 -132 242 -52 640 -223 1136 -532 1546 -301 400 -712 696 -1275 919 l-132
52 -62 104 c-51 88 -110 210 -132 275 -3 10 -28 19 -73 28 -38 7 -116 26 -173
42 -121 34 -223 38 -312 13 -57 -16 -58 -16 -112 9 -69 32 -116 79 -192 192
-113 169 -185 222 -319 232 l-72 6 4 33 c2 19 1 45 -2 60 -8 31 -74 103 -135
148 l-46 33 -370 17 c-203 9 -381 16 -395 15 -14 -1 -203 -20 -421 -43z m964
-186 c-8 -31 22 -68 62 -76 19 -3 35 -9 35 -13 0 -16 -61 -98 -87 -117 -220
-163 -729 -162 -1052 1 -79 39 -161 109 -146 123 18 18 138 53 235 67 69 11
193 15 460 15 201 1 385 5 410 9 78 15 89 13 83 -9z m-1055 -484 c10 -10 -17
-96 -40 -129 -27 -38 -91 -67 -150 -67 l-48 0 0 78 0 79 40 18 c69 31 176 42
198 21z m462 -12 c0 -9 23 -37 50 -64 42 -40 50 -54 50 -84 0 -30 -6 -40 -32
-56 -44 -26 -90 -32 -245 -28 l-131 3 19 55 c41 117 134 188 247 190 32 0 42
-4 42 -16z m890 -7 c0 -46 -30 -123 -57 -149 -33 -30 -69 -40 -112 -32 l-31 7
0 98 0 99 100 0 c98 0 100 0 100 -23z m-508 -31 c21 -7 65 -31 98 -52 68 -44
76 -70 35 -108 -32 -29 -64 -36 -179 -36 l-91 0 2 97 1 98 29 6 c44 10 65 9
105 -5z m-1492 -157 c0 -23 -178 -188 -260 -242 -250 -162 -444 -167 -547 -13
-18 27 -33 51 -33 55 0 3 44 6 98 7 122 1 201 22 404 110 84 36 178 72 208 79
69 17 130 19 130 4z m2525 -20 c33 -10 114 -51 180 -90 66 -39 145 -80 175
-91 66 -23 190 -25 268 -5 28 8 52 11 52 8 0 -21 -45 -73 -78 -90 -170 -87
-494 -17 -650 140 -40 40 -58 72 -67 123 l-8 38 34 -7 c19 -4 61 -16 94 -26z
m-1984 -86 c32 -19 73 -92 67 -120 -2 -10 -20 -27 -40 -38 -33 -17 -41 -18
-80 -6 -24 7 -64 18 -90 24 -36 8 -48 16 -48 29 0 25 32 50 88 69 29 9 51 24
57 37 12 26 10 26 46 5z m869 -88 c39 -20 60 -63 60 -120 0 -122 -97 -168
-215 -102 l-40 23 -5 78 -5 78 33 20 c63 39 125 47 172 23z m350 -67 c50 -77
79 -167 89 -283 8 -81 7 -93 -10 -117 -29 -40 -111 -97 -176 -121 -79 -29
-290 -31 -408 -4 -119 28 -323 88 -341 102 -13 9 -18 36 -22 131 -4 114 -3
123 28 217 18 53 37 97 42 97 21 0 77 -68 87 -106 6 -22 15 -75 21 -119 16
-114 36 -177 65 -205 25 -24 33 -25 148 -25 105 1 129 4 172 23 126 58 215
211 240 416 4 31 11 56 16 56 5 0 27 -28 49 -62z m600 -95 c1 -10 -12 -44 -27
-75 -28 -57 -28 -57 -74 -58 -46 0 -46 0 -53 38 -3 20 -6 54 -6 75 l0 37 80 0
c69 0 80 -2 80 -17z m-1677 -85 c-32 -35 -69 -48 -141 -48 -70 0 -166 22 -178
41 -3 6 2 19 12 30 21 23 71 25 167 5 70 -15 128 -8 144 17 5 8 9 7 11 -6 2
-10 -5 -28 -15 -39z m-572 -121 c56 -24 86 -34 279 -91 l115 -33 -35 -21 c-56
-34 -133 -46 -213 -33 -107 18 -172 59 -196 124 -11 27 -15 77 -7 77 2 0 28
-10 57 -23z m2475 -56 c-43 -83 -113 -110 -301 -117 l-130 -5 110 49 c61 27
160 73 220 101 l110 51 3 -24 c2 -14 -4 -38 -12 -55z m1205 -131 c752 -338
1277 -1167 1306 -2061 l6 -176 -139 -1 c-77 0 -179 -6 -229 -11 -178 -21 -273
-10 -292 32 -48 105 -78 295 -98 617 -20 333 -38 437 -111 638 -100 277 -250
508 -586 899 -76 88 -138 164 -138 167 0 8 178 -57 281 -104z m-4768 27 c-15
-19 -102 -115 -193 -213 -365 -396 -510 -586 -660 -867 -108 -202 -199 -483
-234 -720 -23 -150 -38 -397 -30 -488 l6 -76 -43 -11 c-76 -19 -229 -24 -364
-13 -71 7 -190 14 -264 18 l-133 6 7 61 c46 416 198 847 415 1180 255 392 569
691 1089 1038 l176 117 128 1 128 0 -28 -33z m3890 -3 c604 -233 958 -777
1091 -1679 19 -126 46 -412 46 -482 0 -60 -8 -67 -110 -97 -151 -46 -195 -49
-671 -51 l-456 -2 -6 461 c-6 475 -15 612 -57 874 -40 249 -106 472 -191 651
-27 57 -46 107 -43 112 3 5 49 31 104 59 106 55 166 110 177 160 3 17 10 30
15 30 5 0 50 -16 101 -36z m-3069 -28 c27 -11 84 -48 204 -132 2 -1 -22 -35
-52 -76 -121 -157 -229 -421 -280 -683 -54 -281 -61 -380 -61 -906 l0 -487
-95 -11 c-274 -32 -891 -56 -1219 -47 -123 3 -226 7 -228 10 -5 5 32 219 62
357 198 895 630 1515 1285 1844 89 45 325 145 343 145 4 0 23 -6 41 -14z m922
-181 c50 -8 147 -31 215 -51 274 -79 368 -98 494 -98 98 -1 87 -5 280 100 l90
49 104 0 103 0 58 -62 c150 -159 243 -407 299 -798 24 -169 35 -288 61 -720
11 -181 24 -363 28 -402 l8 -73 -88 0 c-49 0 -189 -9 -311 -21 -287 -27 -519
-23 -616 10 -107 37 -180 96 -219 177 -8 19 -20 34 -25 34 -39 0 -76 -59 -97
-155 -15 -74 -33 -110 -64 -130 -21 -14 -32 -15 -88 -3 -47 10 -165 12 -471
10 -324 -2 -428 1 -509 13 -56 8 -103 17 -106 20 -3 2 3 58 12 122 9 65 26
219 36 343 44 500 52 579 65 686 54 412 166 711 336 897 41 45 48 49 109 56
104 13 198 12 296 -4z m4235 -2344 c60 -23 113 -58 136 -90 14 -21 14 -21
-182 -21 -304 0 -565 23 -565 50 0 13 147 51 310 79 87 15 236 6 301 -18z
m-7369 -112 c137 -7 299 -9 360 -6 102 5 111 4 93 -9 -36 -28 -90 -52 -156
-70 -71 -20 -230 -23 -777 -14 l-284 5 33 27 c67 56 237 90 409 82 41 -2 186
-9 322 -15z m5168 -108 c0 -28 -124 -76 -250 -97 -222 -37 -445 3 -490 86 -11
20 -8 20 365 20 221 0 375 -4 375 -9z m283 -340 c130 -9 200 -7 640 20 210 13
344 6 369 -19 8 -8 10 -406 9 -1279 -2 -1206 5 -1617 30 -1953 5 -74 13 -137
18 -140 8 -5 31 -158 31 -208 0 -26 10 -26 -250 -2 -52 5 -159 14 -237 21
-163 14 -162 14 -223 123 l-34 60 37 -28 c20 -16 37 -24 37 -20 0 5 -16 53
-35 106 -19 53 -30 100 -26 103 5 3 3 25 -5 50 -7 25 -23 97 -34 160 -21 114
-57 230 -106 334 -33 71 -56 140 -89 266 -14 55 -39 134 -55 175 -16 41 -45
122 -64 179 -24 69 -65 155 -121 252 -47 82 -85 150 -85 153 0 3 11 1 25 -4
14 -5 25 -7 25 -4 0 20 -47 87 -89 129 l-51 49 0 757 c0 416 3 758 5 761 3 2
36 -4 75 -13 39 -10 130 -22 203 -28z m2055 16 l54 -12 3 -625 c2 -344 10
-809 19 -1035 23 -573 31 -1458 17 -1780 -11 -245 -29 -506 -36 -513 -2 -2
-21 -6 -42 -9 -58 -8 -87 20 -108 106 -9 38 -22 76 -28 84 -7 8 -45 20 -89 26
-55 8 -111 26 -190 62 -128 57 -183 68 -246 46 l-43 -15 6 136 c10 232 25 510
50 932 42 700 48 885 42 1265 -8 489 -44 806 -128 1137 -24 97 -24 133 0 157
24 24 43 27 241 46 171 16 393 12 478 -8z m-4144 -17 c48 -7 101 -7 170 0 71
8 120 8 166 1 46 -8 73 -7 95 0 22 8 163 9 505 3 l473 -9 18 -93 c36 -189 51
-381 56 -749 4 -230 2 -363 -4 -363 -5 0 -43 15 -84 33 -83 36 -155 87 -164
118 -4 11 -77 83 -163 161 -86 77 -211 191 -277 253 -186 172 -272 235 -408
294 l-118 51 -127 0 c-111 0 -140 -4 -230 -29 -124 -36 -267 -115 -399 -221
-82 -65 -93 -78 -111 -129 -17 -48 -19 -65 -11 -116 13 -79 49 -131 101 -147
29 -9 44 -21 58 -47 10 -20 38 -59 63 -88 30 -34 46 -64 50 -91 4 -22 29 -97
55 -168 69 -183 89 -257 97 -359 5 -56 14 -104 26 -127 13 -26 19 -58 19 -107
0 -77 29 -156 61 -166 9 -3 22 -12 28 -19 20 -24 51 -154 51 -212 0 -56 36
-336 47 -364 4 -11 7 -8 12 9 6 21 11 14 35 -48 17 -40 33 -67 36 -60 5 7 21
-11 41 -45 32 -52 56 -75 43 -41 -12 30 4 13 50 -54 28 -40 84 -100 133 -141
46 -40 83 -73 81 -75 -2 -1 -70 -39 -152 -84 -142 -77 -151 -81 -210 -80 -38
1 -110 -10 -190 -30 l-130 -31 -277 40 c-293 43 -274 42 -426 9 -85 -18 -80
-31 -75 166 5 191 -4 307 -49 670 -19 154 -32 306 -35 425 -4 161 -8 197 -31
279 l-27 95 22 365 c12 202 21 375 21 386 -1 11 -2 214 -2 451 l-2 431 160 7
c88 3 259 17 380 30 238 26 440 31 549 16z m-1440 -42 c3 -24 8 -122 11 -218
3 -96 19 -425 35 -730 16 -305 35 -665 42 -800 7 -148 12 -505 12 -900 0 -652
-1 -680 -41 -1223 l-6 -87 -31 5 c-74 12 -522 65 -638 76 -160 14 -566 6 -660
-14 l-68 -14 -5 31 c-6 43 -33 492 -45 776 -10 244 -23 660 -40 1370 -15 627
-29 1013 -46 1353 -9 169 -14 310 -12 313 14 13 266 35 503 44 485 18 748 32
840 45 148 21 143 22 149 -27z m-1949 -8 c82 -12 187 -38 197 -48 5 -5 1 -53
-7 -109 -37 -245 -47 -395 -52 -793 -6 -451 0 -629 52 -1445 42 -669 54 -920
57 -1245 l2 -255 -44 -12 c-68 -17 -191 -15 -325 7 -129 21 -289 26 -344 10
l-34 -9 7 107 c50 772 34 1450 -79 3321 -14 228 -22 418 -18 422 10 10 122 39
188 49 75 11 320 11 400 0z m3975 -3265 c15 -18 61 -20 78 -3 9 9 18 9 37 0
14 -7 37 -12 50 -12 35 0 125 -22 125 -31 0 -9 -40 -24 -55 -21 -5 1 -64 13
-130 27 -65 14 -133 25 -150 25 l-30 1 25 14 c32 18 35 18 50 0z m3531 -829
c74 -17 142 -57 168 -100 32 -51 28 -56 -41 -56 -35 0 -176 -7 -315 -15 -248
-15 -409 -11 -497 13 l-30 8 30 21 c156 110 496 174 685 129z m-5521 -65 c279
-14 282 -14 278 -44 -3 -20 -11 -23 -78 -29 -41 -4 -518 -12 -1060 -17 -1093
-11 -1343 -22 -1687 -76 -131 -21 -140 -20 -157 14 -9 16 -18 47 -22 69 -6 37
-4 41 17 46 36 8 531 36 794 46 309 11 1622 5 1915 -9z m1260 -32 l85 -29 -99
5 c-143 8 -218 17 -209 26 16 15 99 38 118 32 11 -3 58 -19 105 -34z m1044
-233 c66 -14 168 -29 226 -35 272 -27 323 -33 440 -52 69 -11 127 -22 129 -25
10 -10 -805 -2 -1124 11 -192 8 -428 17 -523 21 -95 4 -171 9 -169 11 16 15
443 67 672 82 205 13 221 12 349 -13z m-1590 -10 c48 -8 90 -17 93 -19 8 -9
-101 -44 -172 -56 -99 -17 -315 -39 -315 -32 0 26 48 76 93 96 62 30 162 33
301 11z m-550 -63 l-1 -48 -47 -3 -46 -3 0 50 0 51 48 0 47 0 -1 -47z m-1294
-10 c3 -3 -6 -14 -20 -25 -22 -18 -36 -19 -152 -16 -134 3 -151 10 -105 43 19
14 40 15 147 10 69 -4 127 -9 130 -12z m2563 -187 c126 -21 223 -70 270 -136
14 -20 15 -20 66 -3 40 12 62 28 93 65 58 69 106 92 181 85 33 -3 63 -10 66
-15 5 -9 300 -5 691 10 l74 3 9 -35 c5 -19 22 -76 38 -126 71 -230 98 -477 80
-736 -12 -166 -37 -330 -69 -448 l-17 -65 -590 -6 c-613 -7 -741 -13 -1111
-54 -257 -29 -453 -32 -553 -9 -121 27 -214 102 -235 187 -5 23 -3 27 14 27
11 0 20 3 20 8 0 4 -24 102 -53 217 l-53 210 32 80 33 80 1 302 0 301 28 6
c35 7 350 44 467 55 151 14 422 12 518 -3z m-3189 -27 c81 -28 77 -20 102
-204 20 -148 15 -457 -12 -680 -11 -91 -18 -227 -18 -347 -1 -192 -2 -197 -21
-193 -39 8 -113 15 -310 30 -219 17 -296 27 -395 51 l-65 15 0 674 0 675 165
3 c91 2 237 3 325 1 137 -2 170 -5 229 -25z m1106 -1 c120 -16 219 -22 360
-22 174 -1 203 1 273 22 42 12 79 22 81 22 1 0 8 -18 15 -39 24 -81 41 -255
50 -531 16 -440 32 -612 66 -740 25 -94 29 -90 -85 -90 -54 0 -177 -7 -272
-16 -338 -31 -455 -10 -567 103 -58 59 -66 64 -95 57 -48 -10 -79 -29 -163
-99 -43 -36 -97 -74 -121 -85 -56 -27 -144 -35 -215 -20 l-57 11 2 702 3 702
75 17 c181 43 362 45 650 6z m4060 -5 l1 -38 31 38 31 39 25 -64 c14 -34 41
-118 62 -186 l37 -123 74 -37 74 -37 16 -65 c24 -94 146 -282 248 -382 47 -45
84 -91 92 -112 14 -38 31 -50 22 -16 -11 43 6 17 27 -42 12 -35 26 -67 30 -72
10 -10 3 161 -11 256 -5 36 -52 241 -104 454 -53 213 -94 388 -93 389 2 2 71
-1 154 -6 150 -8 151 -8 313 -68 89 -32 164 -61 166 -63 17 -16 31 -988 16
-1123 l-6 -60 -70 -3 c-102 -5 -180 19 -286 89 -49 33 -92 59 -95 59 -3 0 -25
-17 -49 -37 -55 -49 -172 -106 -271 -133 -99 -27 -288 -37 -376 -21 -86 16
-197 56 -232 84 -27 22 -28 27 -22 71 10 64 32 74 120 52 94 -23 128 -21 160
10 29 30 30 34 15 87 -14 50 -38 52 -161 9 -42 -15 -79 -24 -82 -21 -4 3 1 26
11 50 13 33 17 75 16 174 0 112 -5 154 -38 305 -50 233 -57 370 -23 485 26 89
29 91 131 94 l47 1 0 -37z m2096 27 l100 0 12 -202 c7 -112 19 -295 27 -408
20 -287 29 -561 21 -651 l-7 -76 -232 -9 c-297 -11 -453 -11 -464 -1 -11 11
-10 335 1 667 11 338 -5 471 -74 587 -27 46 -26 52 18 70 65 27 123 32 312 28
102 -3 230 -5 286 -5z m-507 -1560 c431 -9 759 -23 864 -36 l47 -6 -22 -41
c-52 -93 -150 -133 -301 -123 -45 3 -543 11 -1107 17 -1241 14 -1236 15 -2212
-81 -365 -36 -547 -49 -825 -62 -321 -14 -398 -8 -678 52 -270 58 -319 58
-500 -5 -135 -47 -145 -49 -273 -53 -161 -5 -489 10 -917 44 -817 63 -1018 69
-1250 39 -259 -33 -418 -22 -554 41 l-54 24 34 36 c45 46 137 90 224 105 80
14 244 7 405 -17 84 -13 236 -17 750 -21 599 -5 1119 2 1965 27 176 6 718 14
1205 20 487 5 1079 14 1315 21 361 9 941 21 1335 27 52 1 299 -3 549 -8z
m-1239 -436 l0 -55 -47 3 c-48 3 -48 3 -51 42 -5 58 1 66 53 66 l45 0 0 -56z
m1875 16 c16 -29 21 -56 24 -152 l3 -118 -150 0 -151 0 5 53 c11 103 33 159
79 204 46 44 66 52 130 49 33 -1 42 -6 60 -36z m-3571 -56 c-10 -77 -44 -105
-136 -107 l-63 -2 2 34 c1 21 11 43 26 59 25 25 98 50 149 51 25 1 26 -1 22
-35z m1303 -46 c134 -63 223 -286 193 -486 -22 -142 -84 -244 -181 -296 -76
-42 -115 -40 -188 12 -80 56 -100 54 -116 -11 -4 -15 -11 -27 -16 -27 -5 0
-29 19 -53 43 -47 45 -70 102 -61 153 3 16 14 78 25 137 23 127 26 231 6 307
-16 61 -20 53 59 109 126 89 229 108 332 59z m918 10 c51 -27 68 -54 73 -113
4 -44 1 -60 -13 -75 -34 -37 -53 -35 -105 14 -43 40 -55 46 -93 46 -85 0 -143
-64 -172 -192 -25 -110 -22 -124 35 -176 28 -25 50 -53 50 -64 0 -30 78 -24
150 12 41 21 74 30 106 30 l46 0 -4 -53 c-6 -75 -35 -127 -89 -157 -89 -50
-250 -26 -390 59 l-64 39 -9 220 c-9 253 -3 292 61 381 l38 52 175 -3 c138 -3
181 -7 205 -20z m647 12 c73 -21 128 -89 128 -160 0 -27 -2 -30 -19 -20 -41
22 -118 32 -159 20 -73 -19 -129 -109 -113 -179 10 -44 89 -187 108 -195 22
-9 74 13 114 49 45 41 66 43 104 13 26 -20 27 -25 21 -75 -14 -116 -55 -171
-154 -199 -48 -14 -67 -15 -124 -6 -37 7 -92 24 -123 39 l-55 27 0 328 0 327
63 20 c69 22 153 26 209 11z m-7486 -56 c27 -16 74 -109 74 -146 0 -33 -24
-48 -74 -48 -41 0 -58 20 -76 88 -6 24 -20 52 -31 63 -17 17 -18 23 -8 36 29
34 70 36 115 7z m651 11 c47 -20 116 -74 174 -137 l45 -49 -32 -65 c-46 -90
-50 -132 -25 -261 23 -118 27 -216 11 -257 -5 -14 -28 -35 -52 -47 -59 -30
-188 -29 -313 3 l-90 23 -12 70 c-20 107 -27 348 -14 433 22 142 66 228 141
280 40 26 112 30 167 7z m800 -35 c33 -17 84 -47 113 -68 l52 -38 4 -224 c3
-222 17 -350 45 -402 11 -20 8 -26 -30 -59 -75 -67 -123 -84 -231 -84 -104 0
-165 19 -275 86 l-55 33 0 121 c1 290 48 522 123 604 65 71 153 81 254 31z
m3674 -12 c29 -14 72 -39 95 -56 l41 -30 7 -199 c7 -215 -2 -326 -32 -377
l-18 -31 -140 2 c-147 1 -279 26 -315 59 -27 24 -85 143 -99 203 -44 187 54
386 220 445 65 23 171 16 241 -16z m-951 -10 c48 -14 115 -53 160 -94 l37 -34
-5 -69 c-6 -88 9 -172 58 -327 22 -69 40 -136 40 -149 0 -30 -35 -57 -108 -87
-51 -20 -74 -22 -222 -22 -137 0 -181 3 -263 23 -109 26 -124 37 -172 143 -37
82 -50 164 -37 249 39 262 280 435 512 367z m-1014 -29 c79 -14 148 -49 211
-104 l52 -46 -16 -42 c-13 -32 -17 -86 -20 -227 -3 -209 -12 -250 -69 -300
-32 -28 -40 -30 -112 -30 -100 0 -247 31 -328 69 -87 41 -164 115 -200 194
-27 58 -29 70 -29 182 1 145 14 199 53 213 15 6 57 21 93 35 91 33 205 60 285
66 11 0 47 -4 80 -10z m-821 -48 c22 -10 50 -29 62 -42 20 -23 21 -31 19 -264
-2 -221 -4 -244 -24 -296 -12 -30 -35 -68 -51 -83 -25 -24 -38 -28 -117 -33
-159 -10 -246 33 -303 150 -36 74 -54 153 -76 342 -8 77 -18 157 -22 178 l-6
37 84 1 c46 0 120 6 164 13 123 20 223 19 270 -3z m-2519 -93 c96 -84 99 -216
8 -408 -20 -44 -43 -85 -51 -92 -21 -17 -69 35 -89 95 -34 103 -3 316 60 412
21 32 28 32 72 -7z m8406 -125 c41 -48 50 -170 18 -240 l-19 -43 -106 0 -105
0 0 33 c0 17 -12 50 -25 72 -17 28 -25 55 -25 88 0 45 1 47 28 47 15 0 50 14
77 30 60 35 132 41 157 13z m-8133 -257 c43 -23 65 -64 65 -124 1 -48 -2 -57
-32 -83 -28 -25 -40 -29 -91 -29 l-59 0 -4 43 c-5 54 6 127 27 172 19 39 46
45 94 21z m6251 -151 c12 -11 20 -31 20 -49 l0 -31 -72 1 -73 2 -3 42 c-2 28
1 46 10 52 20 14 96 3 118 -17z m-3747 -39 c57 -24 72 -50 72 -125 l0 -66 -45
-3 c-49 -4 -154 21 -183 43 -18 13 -18 15 1 52 11 21 23 56 27 76 7 36 8 37
51 37 25 0 59 -6 77 -14z"/>
</g>
</svg>
