<?xml version="1.0" standalone="no"?>
<!DOCTYPE svg PUBLIC "-//W3C//DTD SVG 20010904//EN"
 "http://www.w3.org/TR/2001/REC-SVG-20010904/DTD/svg10.dtd">
<svg version="1.0" xmlns="http://www.w3.org/2000/svg"
 width="640.000000pt" height="1280.000000pt" viewBox="0 0 640.000000 1280.000000"
 preserveAspectRatio="xMidYMid meet">
<metadata>
Created by potrace 1.15, written by Peter Selinger 2001-2017
</metadata>
<g transform="translate(0.000000,1280.000000) scale(0.100000,-0.100000)"
fill="#000000" stroke="none">
<path d="M3080 12791 c0 -5 17 -24 37 -42 36 -31 37 -34 36 -97 -2 -57 -7 -71
-42 -126 -48 -74 -71 -126 -71 -163 0 -53 22 -105 61 -148 l40 -43 0 -144 c0
-124 3 -147 19 -176 20 -33 29 -132 12 -132 -35 0 -44 -152 -12 -193 14 -18
20 -40 20 -77 0 -37 -6 -59 -20 -77 -15 -20 -20 -41 -20 -88 0 -47 5 -68 20
-88 14 -18 20 -40 20 -77 0 -37 -6 -59 -20 -77 -15 -20 -20 -41 -20 -88 0 -47
5 -68 20 -88 28 -35 27 -109 -1 -149 -18 -24 -21 -40 -17 -98 2 -46 9 -75 21
-88 18 -20 25 -122 8 -122 -34 0 -41 -162 -8 -198 25 -27 23 -116 -3 -149 -15
-20 -20 -41 -20 -88 0 -47 5 -68 20 -88 28 -36 28 -127 0 -152 -29 -26 -29
-141 0 -178 15 -18 20 -40 20 -81 0 -31 -4 -56 -8 -56 -35 0 -44 -152 -12
-193 28 -35 28 -118 -1 -156 -18 -25 -21 -40 -17 -99 2 -48 9 -77 21 -90 25
-27 23 -105 -4 -141 -18 -25 -21 -40 -17 -99 2 -48 9 -77 21 -90 9 -10 17 -32
17 -49 0 -26 -5 -31 -38 -41 -90 -27 -153 -145 -130 -242 6 -25 17 -55 24 -67
8 -12 14 -42 14 -65 0 -30 8 -56 28 -86 26 -39 28 -47 21 -93 -5 -28 -24 -86
-44 -128 -37 -80 -43 -113 -31 -172 7 -34 6 -36 -41 -65 -26 -17 -61 -49 -77
-73 -26 -38 -30 -53 -34 -130 -4 -74 -1 -94 17 -128 11 -23 25 -45 31 -48 22
-14 50 -86 50 -129 0 -35 -4 -48 -20 -56 -14 -7 -19 -17 -15 -29 4 -13 -5 -22
-37 -36 -56 -24 -128 -97 -128 -129 0 -27 -23 -56 -45 -56 -7 0 -57 -18 -111
-41 -54 -22 -125 -45 -159 -50 -77 -12 -113 -27 -120 -49 -3 -10 -24 -25 -45
-34 -22 -9 -129 -84 -237 -167 l-198 -150 -152 -197 c-136 -176 -158 -209
-199 -307 -156 -371 -145 -338 -169 -510 -13 -88 -26 -190 -30 -226 l-7 -67
-132 -11 c-72 -7 -138 -16 -146 -20 -21 -11 -25 -65 -6 -81 9 -7 47 -17 86
-23 l70 -11 0 -89 0 -88 30 -11 30 -10 -2 -1916 -3 -1917 -85 -8 c-61 -5 -100
-15 -140 -35 l-55 -28 -3 -85 c-3 -80 -1 -86 20 -97 37 -19 186 -49 281 -57
l87 -7 0 -147 c0 -103 4 -152 13 -165 49 -66 616 -110 1607 -122 795 -10 1608
18 1938 67 188 28 182 21 182 215 l0 143 43 6 c302 41 300 41 324 70 22 24 23
35 21 113 -4 106 0 103 -183 129 l-130 18 -3 920 c-2 709 0 925 10 943 9 18 9
27 0 42 -9 15 -12 247 -12 970 l0 950 33 0 c50 0 57 14 57 111 l0 87 68 7 c90
9 92 9 92 48 0 55 -22 67 -150 77 -62 5 -114 10 -115 12 -1 2 -16 102 -32 223
l-30 220 -94 228 -94 227 -155 202 -156 202 -194 149 c-107 82 -211 157 -232
166 -20 9 -49 31 -65 48 -24 26 -39 32 -89 37 -32 4 -111 27 -174 51 -63 25
-121 45 -127 45 -7 0 -15 12 -18 28 -15 71 -75 138 -147 164 -18 6 -25 15 -21
24 3 9 -3 22 -16 30 -34 25 -29 98 12 158 68 102 69 104 64 196 -2 50 -11 98
-20 115 -17 33 -64 79 -114 114 -27 18 -31 26 -23 41 19 36 11 96 -25 171 -19
41 -38 100 -43 131 -8 52 -7 61 15 93 13 19 26 56 30 82 3 26 10 57 16 68 47
91 33 192 -35 262 -23 24 -57 48 -75 54 -26 8 -33 16 -33 37 0 14 10 36 22 49
19 20 22 36 23 96 0 60 -4 77 -22 101 -30 38 -30 97 -1 136 32 44 33 158 1
192 -31 33 -32 104 -2 142 17 22 21 42 22 101 1 64 -2 77 -21 98 -31 33 -31
102 1 135 18 20 22 35 22 92 0 55 -4 74 -22 99 -15 19 -23 44 -23 69 0 26 8
49 23 68 18 23 22 41 22 95 0 54 -4 73 -22 98 -31 41 -31 106 -1 138 32 34 33
148 1 192 -30 40 -30 97 -1 128 32 34 33 148 1 192 -30 40 -30 99 -1 136 32
41 32 151 1 194 -30 40 -30 99 -1 136 32 41 33 153 1 187 -32 34 -32 112 -1
145 18 19 22 36 22 92 1 59 -3 73 -21 93 -31 33 -32 104 -1 143 18 23 22 41
22 96 0 37 -5 73 -11 80 -7 10 -7 34 0 80 8 56 14 69 36 82 69 40 92 117 61
197 l-18 45 -26 -60 c-15 -32 -34 -67 -42 -76 -15 -16 -17 -16 -35 2 -23 23
-67 25 -75 4 -10 -25 -24 -17 -40 21 -18 42 -9 77 32 131 48 63 74 138 74 213
0 58 3 70 18 74 10 4 31 20 47 36 l29 30 -132 0 c-73 0 -132 -4 -132 -9z m141
-644 c-1 -4 -1 -23 -1 -42 0 -19 -4 -35 -10 -35 -5 0 -10 21 -10 46 0 28 4 44
11 42 6 -2 10 -7 10 -11z m35 -265 c-3 -2 -12 1 -21 8 -12 10 -18 10 -30 0
-20 -17 -26 -10 -32 41 -6 41 -5 42 20 37 15 -3 35 1 44 8 16 11 18 8 21 -38
2 -28 1 -53 -2 -56z m-26 -217 c20 25 30 7 30 -56 0 -59 -6 -69 -28 -47 -9 9
-15 9 -24 0 -7 -7 -15 -12 -19 -12 -11 0 -21 70 -14 102 6 27 8 28 25 13 15
-14 19 -14 30 0z m3 -327 c19 16 27 -3 27 -62 0 -49 -7 -61 -27 -44 -10 8 -17
8 -25 0 -7 -7 -15 -12 -19 -12 -11 0 -20 62 -13 96 5 29 8 31 24 22 14 -9 22
-9 33 0z m-3 -333 c20 25 30 7 30 -56 0 -59 -6 -69 -28 -47 -9 9 -15 9 -24 0
-7 -7 -15 -12 -19 -12 -10 0 -20 78 -13 106 6 23 8 24 24 9 15 -14 18 -14 30
0z m3 -327 c21 18 27 5 27 -61 0 -59 0 -60 -20 -42 -19 17 -21 17 -39 1 -18
-16 -19 -15 -25 24 -3 22 -4 51 0 65 5 20 9 22 24 13 14 -9 22 -9 33 0z m0
-320 c21 18 27 5 27 -60 0 -58 -6 -68 -28 -46 -9 9 -15 9 -24 0 -7 -7 -15 -12
-19 -12 -10 0 -19 69 -12 100 4 25 8 27 23 17 14 -8 22 -8 33 1z m0 -330 c21
18 27 5 27 -60 0 -58 -6 -68 -28 -46 -9 9 -15 9 -24 0 -7 -7 -15 -12 -19 -12
-11 0 -18 56 -12 93 5 31 8 34 23 24 14 -8 22 -8 33 1z m0 -330 c21 18 27 5
27 -60 0 -58 -6 -68 -28 -46 -8 8 -15 8 -27 -2 -8 -7 -17 -11 -20 -9 -5 5 -9
66 -7 102 2 24 4 26 21 15 15 -9 23 -9 34 0z m-3 -333 c20 25 30 7 30 -56 0
-63 -1 -65 -30 -49 -13 7 -21 7 -25 0 -20 -32 -38 23 -28 84 5 34 7 35 23 21
15 -14 18 -14 30 0z m30 -386 c0 -60 -4 -66 -30 -49 -9 5 -19 5 -27 -2 -20
-16 -27 -3 -26 53 1 57 6 67 27 50 11 -9 17 -9 28 2 21 23 28 10 28 -54z m-52
-281 c9 -9 15 -9 24 0 22 22 28 12 28 -46 l0 -57 -39 0 c-36 0 -40 2 -44 30
-6 34 2 85 12 85 4 0 12 -5 19 -12z m-18 -317 c0 -18 33 -21 51 -5 17 15 20
15 45 -1 36 -23 68 -98 59 -141 -3 -19 -7 -34 -8 -34 -1 0 -20 7 -42 15 -52
19 -117 19 -162 0 -20 -8 -39 -13 -42 -10 -3 3 -5 30 -5 60 0 49 4 59 34 90
31 32 70 47 70 26z m-86 -1796 c-4 -8 -19 -15 -35 -15 -21 0 -27 4 -23 15 4 8
19 15 35 15 21 0 27 -4 23 -15z m116 -5 c0 -15 -7 -20 -25 -20 -18 0 -25 5
-25 20 0 15 7 20 25 20 18 0 25 -5 25 -20z m204 5 c3 -10 -1 -15 -13 -15 -10
0 -21 7 -25 15 -3 10 1 15 13 15 10 0 21 -7 25 -15z m117 -1 c11 -14 10 -15
-11 -12 -13 1 -25 9 -28 16 -5 17 23 15 39 -4z m106 -96 c19 -22 118 -179 142
-225 6 -13 40 -103 76 -202 88 -246 149 -556 165 -836 6 -104 12 -207 14 -227
l4 -38 -44 0 c-35 0 -44 4 -44 18 -7 304 -64 685 -146 972 -53 182 -104 303
-232 553 -9 18 47 5 65 -15z m143 -9 c25 -17 83 -77 128 -133 72 -87 96 -127
172 -286 84 -175 92 -199 148 -420 55 -214 62 -253 76 -430 23 -280 25 -260
-29 -260 -29 0 -45 4 -45 13 0 6 -5 84 -11 172 -8 127 -21 207 -61 390 -45
205 -59 253 -133 436 -78 196 -88 215 -199 378 -64 94 -111 171 -104 171 7 0
33 -14 58 -31z m-870 18 c0 -2 -9 -30 -20 -63 -121 -348 -206 -843 -226 -1306
l-6 -168 -109 0 -109 0 0 73 c0 457 105 921 282 1252 101 189 120 215 159 215
16 0 29 -2 29 -3z m160 -5 c0 -4 -9 -72 -20 -150 -39 -274 -66 -673 -77 -1109
l-6 -273 -105 0 -105 0 6 238 c14 507 93 1014 194 1245 26 57 26 57 69 57 24
0 44 -3 44 -8z m154 -24 c22 -128 56 -882 56 -1260 l0 -248 -94 0 -94 0 4 288
c6 409 23 868 40 1072 8 96 14 176 14 177 0 2 15 3 34 3 30 0 34 -3 40 -32z
m159 -10 c37 -98 99 -345 127 -508 35 -199 76 -599 84 -833 l6 -158 -83 3 -82
3 -6 325 c-9 442 -37 857 -74 1087 -18 114 -18 123 -1 123 7 0 20 -19 29 -42z
m123 -73 c103 -254 186 -756 200 -1202 l7 -223 -30 0 -30 0 -7 77 c-3 42 -6
115 -6 162 0 140 -47 571 -84 781 -32 177 -103 456 -128 503 -8 16 -6 18 12
15 18 -2 31 -25 66 -113z m410 79 c30 -20 104 -89 165 -153 94 -100 123 -139
206 -280 95 -160 99 -171 169 -395 71 -227 73 -235 93 -436 28 -274 30 -252
-21 -248 l-43 3 -17 190 c-16 177 -21 205 -82 417 -61 216 -69 238 -163 419
-93 180 -106 200 -236 355 -75 90 -135 164 -131 164 3 0 30 -16 60 -36z
m-1209 -16 c-74 -128 -102 -190 -157 -358 -87 -262 -161 -679 -175 -986 l-7
-141 -104 -7 c-57 -4 -107 -5 -112 -2 -4 2 -2 82 5 178 11 142 23 211 64 388
45 191 60 238 136 417 77 181 96 215 185 340 98 137 162 213 180 213 6 0 -1
-19 -15 -42z m622 -328 c24 -253 38 -512 47 -887 7 -269 7 -273 -13 -273 -18
0 -21 9 -27 77 -3 42 -6 162 -6 267 0 214 -15 646 -30 866 -6 80 -12 183 -15
230 l-4 85 14 -75 c7 -41 23 -172 34 -290z m974 92 c27 -24 96 -115 153 -202
103 -154 108 -163 185 -376 l80 -219 24 -210 c14 -115 27 -222 30 -237 4 -26
2 -28 -30 -28 -23 0 -35 5 -39 18 -2 9 -12 94 -21 187 -16 163 -20 180 -92
405 l-75 235 -120 200 c-130 216 -141 231 -268 368 l-85 91 105 -94 c58 -51
127 -113 153 -138z m-678 69 c123 -250 241 -737 259 -1076 4 -60 9 -140 12
-177 l6 -68 -65 0 -65 0 -6 103 c-3 56 -8 165 -11 242 -10 229 -58 585 -110
804 -25 107 -48 197 -50 201 -8 13 -46 115 -41 110 3 -3 35 -66 71 -139z
m-1146 92 c-7 -10 -24 -30 -36 -44 -13 -14 -66 -118 -118 -231 -89 -195 -96
-215 -149 -437 -50 -207 -58 -255 -71 -430 -8 -108 -18 -215 -21 -238 l-5 -43
-90 0 c-74 0 -89 3 -89 16 0 8 7 90 16 182 15 150 23 189 81 387 61 208 70
230 166 413 92 175 112 204 211 317 59 69 110 125 113 125 3 0 -1 -8 -8 -17z
m-161 -93 c-52 -60 -58 -65 -58 -54 0 6 101 114 107 114 2 0 -20 -27 -49 -60z
m2241 -256 c66 -89 125 -172 131 -185 7 -12 50 -119 96 -237 l84 -214 25 -197
c30 -240 31 -251 7 -251 -17 0 -21 21 -41 193 l-22 192 -82 230 -82 230 -151
227 c-117 175 -143 221 -117 201 18 -14 87 -99 152 -189z m-2458 26 c-87 -155
-93 -171 -160 -395 -70 -232 -70 -233 -92 -469 l-23 -236 -58 0 c-32 0 -61 0
-65 0 -10 1 -7 56 13 230 13 119 24 162 90 360 l74 226 121 194 c109 176 175
267 187 256 2 -3 -37 -77 -87 -166z m1875 -103 c101 -244 168 -529 190 -801 8
-99 11 -183 6 -188 -4 -4 -24 -5 -44 -2 l-36 6 -7 112 c-16 284 -28 386 -70
601 -33 170 -57 263 -90 354 -25 67 -45 125 -45 129 1 15 25 -37 96 -211z
m-2049 91 c-29 -46 -65 -101 -80 -123 -14 -22 -62 -144 -105 -270 -80 -231
-80 -231 -101 -425 -12 -107 -24 -214 -27 -237 l-6 -43 -44 0 c-42 0 -43 1
-39 28 3 15 14 103 25 195 20 166 21 170 104 392 84 223 85 224 201 394 122
179 163 229 72 89z m2339 -255 c8 -21 42 -132 75 -248 60 -210 66 -247 91
-550 3 -26 -1 -30 -23 -33 -31 -4 -29 -12 -54 289 -13 161 -22 212 -65 379
-55 212 -52 200 -45 200 3 0 12 -17 21 -37z m-2690 -189 l-75 -199 -28 -230
c-24 -196 -31 -230 -46 -233 -22 -4 -22 -6 7 220 l24 188 92 230 c51 127 94
229 97 227 2 -3 -30 -94 -71 -203z m1467 -242 c-4 -252 -10 -392 -16 -392 -7
0 -8 81 -4 238 8 286 19 553 23 550 1 -2 0 -180 -3 -396z m1590 -205 c18 -172
18 -221 -1 -190 -4 7 -16 101 -26 210 -10 109 -19 207 -22 218 -2 11 3 4 12
-15 10 -20 25 -114 37 -223z m-3023 -1299 c0 -398 -3 -821 -7 -940 l-6 -218
-42 0 -42 0 -5 608 c-2 334 -2 757 0 940 l4 332 49 0 49 0 0 -722z m198 716
l22 -6 -1 -477 c0 -262 -3 -680 -6 -928 l-6 -453 -67 0 -67 0 -6 128 c-9 165
-9 1600 -1 1681 l7 61 51 0 c28 0 61 -3 74 -6z m2852 -170 c0 -114 -3 -173
-10 -169 -6 4 -10 73 -10 176 0 106 4 169 10 169 6 0 10 -65 10 -176z m133
-186 c6 -370 -4 -1502 -13 -1511 -3 -3 -17 -3 -31 0 l-27 5 -6 436 c-10 680
-11 856 -8 1155 l2 277 38 0 39 0 6 -362z m-2717 -578 l2 -930 -93 0 -93 0 -6
33 c-3 17 -5 436 -5 930 l1 897 97 0 96 0 1 -930z m276 912 c-1 -7 -1 -349 0
-760 1 -411 2 -821 3 -912 l0 -165 -109 0 -110 0 5 485 c2 267 3 684 1 928
l-2 443 107 -3 c81 -2 107 -6 105 -16z m138 -912 l0 -930 -31 0 -32 0 7 263
c4 144 8 562 8 930 l0 667 24 0 24 0 0 -930z m1563 765 c8 -168 1 -1349 -10
-1567 l-6 -128 -37 0 -37 0 -6 167 c-9 225 -9 1678 0 1687 4 4 25 6 48 4 l40
-3 8 -160z m124 -362 c-1 -291 2 -709 6 -930 l9 -403 -46 0 -46 0 0 118 c0 64
5 356 11 647 6 338 7 629 1 805 -5 151 -7 278 -5 283 2 4 19 7 38 7 l33 0 -1
-527z m165 272 c8 -245 4 -838 -8 -1347 l-7 -258 -41 0 -42 0 -12 633 c-11
551 -9 1176 4 1215 3 9 19 12 51 10 l48 -3 7 -250z m93 -372 c1 -346 4 -764 9
-930 l8 -303 -30 0 -30 0 1 930 c2 925 2 930 22 930 20 0 20 -5 20 -627z m150
585 c10 -57 10 -1001 0 -1455 l-7 -363 -39 0 -39 0 0 73 c0 39 -5 302 -11 582
-6 281 -7 666 -3 858 l7 347 42 0 c43 0 43 0 50 -42z m-1630 -200 c-3 -128 -8
-253 -11 -278 -4 -40 9 -805 20 -1182 l4 -148 -49 0 -49 0 0 920 0 920 45 0
46 0 -6 -232z m91 155 c8 -84 -2 -1753 -11 -1761 -3 -3 -7 -3 -9 -1 -3 3 -10
193 -16 424 -20 765 -13 1415 15 1415 9 0 16 -25 21 -77z m230 -65 c-3 -79 -8
-216 -11 -305 -5 -137 5 -822 19 -1265 l4 -128 -100 0 -100 0 7 58 c3 31 7
445 8 919 l2 863 88 0 88 0 -5 -142z m117 -170 c5 -258 2 -555 -13 -1500 0
-21 -5 -28 -19 -28 -18 0 -19 13 -25 193 -16 487 -23 1064 -16 1297 5 140 9
276 9 303 1 45 2 47 29 47 l29 0 6 -312z m157 -608 l0 -920 -54 0 -54 0 1 920
2 920 53 0 52 0 0 -920z m1113 -472 c5 -394 4 -458 -9 -458 -12 0 -14 57 -14
383 0 324 6 546 15 535 1 -2 5 -209 8 -460z m-3059 -660 c4 -57 5 -465 4 -908
l-3 -805 -52 -3 -53 -3 0 744 c0 409 3 819 7 910 l6 167 43 0 42 0 6 -102z
m178 96 l37 -6 3 -107 c2 -58 0 -290 -5 -516 -5 -248 -4 -553 2 -771 5 -199 7
-371 4 -382 -5 -20 -12 -22 -79 -22 l-74 0 0 898 c0 494 3 902 7 905 8 9 56 9
105 1z m2891 -297 c9 -374 9 -1317 0 -1424 -4 -58 -10 -83 -19 -83 -7 0 -16 5
-20 11 -8 13 -7 1776 1 1789 3 5 12 7 19 4 10 -4 14 -70 19 -297z m109 -602
l3 -905 -27 0 -28 0 0 733 c0 402 -3 810 -7 905 l-6 172 31 0 32 0 2 -905z
m-2708 733 c-15 -442 -20 -918 -13 -1138 4 -135 9 -299 11 -365 l3 -120 -98
-3 -99 -3 9 293 c10 359 10 328 -1 971 l-9 527 102 0 101 0 -6 -162z m278 72
c-1 -47 -7 -281 -13 -520 -8 -318 -8 -515 0 -731 6 -163 11 -328 11 -368 l0
-71 -105 0 -105 0 8 213 c9 279 9 595 -2 1130 l-9 438 108 -3 108 -3 -1 -85z
m138 -800 l0 -890 -25 0 c-30 0 -29 -30 -14 320 11 251 1 1052 -17 1358 l-6
102 31 0 31 0 0 -890z m484 573 c10 -425 10 -936 1 -1220 l-8 -233 -48 0 -49
0 0 885 0 885 49 0 48 0 7 -317z m70 145 c28 -746 30 -1101 9 -1481 -5 -93 -9
-117 -21 -117 -12 0 -13 26 -6 188 9 233 9 947 -1 1310 -4 173 -4 272 2 272 6
0 13 -73 17 -172z m250 -155 c9 -434 10 -935 1 -1215 l-8 -228 -88 0 -89 0 0
88 c1 48 5 184 10 302 6 151 5 358 -5 695 -8 264 -15 526 -15 583 l0 102 94 0
93 0 7 -327z m90 255 c3 -40 12 -309 19 -598 10 -415 11 -585 1 -810 -6 -157
-12 -286 -13 -287 0 -2 -13 -3 -27 -3 l-26 0 8 167 c9 214 9 965 -1 1326 -7
274 -7 277 13 277 18 0 21 -8 26 -72z m169 -350 c3 -233 6 -631 5 -885 l0
-463 -56 0 -55 0 6 128 c21 412 19 661 -9 1460 l-7 182 55 0 56 0 5 -422z
m483 85 c-9 -432 -9 -1184 0 -1331 l7 -113 -39 3 -39 3 5 295 c6 337 3 895 -6
1243 l-6 237 43 0 42 0 -7 -337z m158 255 c10 -150 15 -936 9 -1320 l-6 -378
-52 0 -52 0 -7 307 c-7 311 0 1296 10 1411 l6 62 43 0 43 0 6 -82z m131 -813
l0 -896 -34 3 -35 3 -2 893 -1 892 36 0 37 0 -1 -895z m128 678 c9 -280 9
-1431 1 -1512 -7 -61 -7 -61 -39 -61 l-32 0 -6 310 c-3 171 -3 574 0 895 l6
585 32 0 32 0 6 -217z m123 -683 c-1 -745 -3 -899 -14 -895 -8 3 -25 5 -38 5
-15 0 -23 4 -19 10 9 15 8 1391 0 1606 l-8 174 40 0 40 0 -1 -900z m275 -505
l-6 -410 -7 280 c-4 154 -4 564 0 910 l7 630 6 -500 c3 -275 3 -684 0 -910z
m-2451 130 c-5 -104 -6 -97 -14 106 -5 122 -5 271 0 340 l9 124 5 -230 c3
-126 3 -279 0 -340z"/>
</g>
</svg>
