<?xml version="1.0" standalone="no"?>
<!DOCTYPE svg PUBLIC "-//W3C//DTD SVG 20010904//EN"
 "http://www.w3.org/TR/2001/REC-SVG-20010904/DTD/svg10.dtd">
<svg version="1.0" xmlns="http://www.w3.org/2000/svg"
 width="640.000000pt" height="1280.000000pt" viewBox="0 0 640.000000 1280.000000"
 preserveAspectRatio="xMidYMid meet">
<metadata>
Created by potrace 1.15, written by Peter Selinger 2001-2017
</metadata>
<g transform="translate(0.000000,1280.000000) scale(0.100000,-0.100000)"
fill="#000000" stroke="none">
<path d="M3140 12678 c-23 -62 -139 -304 -256 -538 -262 -524 -304 -618 -364
-824 -112 -387 -77 -749 96 -987 l33 -46 -97 -27 c-138 -38 -279 -66 -337 -66
-27 0 -104 9 -170 19 -194 32 -251 35 -334 17 -145 -30 -270 -110 -291 -184
-5 -21 -10 -78 -10 -129 l0 -92 -79 -98 c-43 -54 -104 -127 -135 -163 -30 -36
-70 -92 -88 -125 -46 -84 -45 -159 2 -310 30 -93 35 -124 35 -205 0 -92 -2
-102 -69 -290 -66 -188 -69 -199 -73 -310 -6 -135 5 -202 77 -485 59 -230 75
-351 60 -437 -11 -57 -23 -95 -121 -372 -51 -146 -57 -217 -20 -247 13 -10 49
-26 80 -35 113 -31 107 -23 140 -178 36 -171 105 -286 172 -286 l29 0 0 -2842
c0 -2049 3 -2854 11 -2883 20 -71 40 -88 226 -182 380 -194 712 -299 1123
-355 125 -17 533 -17 675 1 268 32 605 116 867 215 283 107 538 232 572 279
21 28 21 38 26 1288 l5 1259 28 -30 c36 -37 66 -38 102 -3 58 59 103 195 134
406 11 73 22 139 26 148 3 9 25 24 48 33 104 43 132 61 151 100 17 35 18 46 7
120 -6 45 -36 177 -67 292 -30 115 -65 252 -76 304 -36 164 -25 366 38 687 61
315 76 419 81 588 6 190 -2 249 -63 480 -19 71 -46 184 -60 250 -34 156 -30
270 16 470 59 254 44 384 -63 559 -28 44 -108 177 -179 293 l-128 213 0 1038
c0 977 -1 1040 -17 1054 -34 29 -63 39 -211 69 -98 20 -200 51 -306 90 -204
77 -246 86 -448 101 l-167 12 28 50 c130 235 155 552 70 884 -55 215 -126 374
-445 1002 -71 140 -152 311 -179 380 -27 69 -52 128 -55 133 -3 4 -26 -44 -50
-105z"/>
</g>
</svg>
