<?xml version="1.0" standalone="no"?>
<!DOCTYPE svg PUBLIC "-//W3C//DTD SVG 20010904//EN"
 "http://www.w3.org/TR/2001/REC-SVG-20010904/DTD/svg10.dtd">
<svg version="1.0" xmlns="http://www.w3.org/2000/svg"
 width="640.000000pt" height="1280.000000pt" viewBox="0 0 640.000000 1280.000000"
 preserveAspectRatio="xMidYMid meet">
<metadata>
Created by potrace 1.15, written by Peter Selinger 2001-2017
</metadata>
<g transform="translate(0.000000,1280.000000) scale(0.100000,-0.100000)"
fill="#000000" stroke="none">
<path d="M2214 12785 c-27 -18 -49 -94 -39 -137 14 -65 16 -166 5 -219 -6 -30
-16 -81 -22 -114 -15 -86 -23 -104 -55 -110 -46 -10 -57 -20 -73 -64 -9 -23
-26 -51 -38 -63 l-22 -22 -33 32 c-38 37 -90 44 -105 15 -21 -39 -23 -99 -7
-144 35 -95 28 -110 -59 -119 -49 -5 -51 -7 -64 -44 -7 -21 -26 -54 -42 -73
-22 -24 -30 -44 -30 -71 0 -28 -11 -51 -45 -97 l-45 -60 0 -94 c0 -62 6 -116
19 -160 11 -36 22 -82 25 -101 4 -24 25 -55 65 -97 55 -60 61 -63 104 -63 25
0 48 -4 52 -10 3 -5 -6 -27 -20 -49 -22 -35 -34 -43 -95 -62 -38 -11 -96 -38
-127 -58 -60 -39 -183 -163 -310 -313 -105 -123 -111 -123 -124 1 -5 42 -14
101 -21 131 -14 64 -17 199 -5 250 7 31 4 40 -26 80 -39 50 -57 103 -57 166 0
28 5 44 15 48 21 8 19 43 -7 84 -18 29 -22 52 -23 131 -2 115 -25 311 -37 311
-10 0 -7 12 -23 -105 -8 -55 -19 -126 -26 -157 -10 -47 -10 -65 1 -98 12 -37
12 -42 -13 -78 -28 -40 -34 -67 -17 -77 6 -3 10 -48 10 -100 0 -90 -1 -94 -27
-115 l-28 -22 -1 -146 c0 -81 -6 -178 -12 -216 -7 -49 -8 -196 -2 -495 12
-569 12 -570 0 -696 -8 -82 -8 -127 1 -176 7 -42 10 -123 7 -215 -3 -82 -1
-160 4 -173 5 -13 9 -202 10 -420 1 -420 1 -422 -46 -481 -36 -44 -48 -107
-53 -257 -5 -125 -2 -175 15 -275 17 -101 22 -189 28 -498 4 -206 6 -447 5
-535 -3 -164 14 -275 54 -371 24 -58 22 -68 -48 -214 -34 -71 -61 -114 -92
-145 -69 -70 -215 -256 -299 -380 -96 -143 -145 -248 -161 -347 -4 -24 -11
-51 -16 -60 -5 -9 -14 -95 -19 -190 -13 -226 -13 -225 -58 -238 -20 -6 -50
-22 -66 -36 -28 -25 -30 -32 -34 -113 -2 -47 3 -161 12 -252 9 -92 16 -203 16
-248 0 -56 6 -101 20 -142 17 -49 19 -67 10 -97 -18 -65 -13 -198 10 -244 24
-50 26 -115 5 -165 -21 -51 -19 -71 17 -144 34 -70 37 -100 17 -195 -16 -77
-6 -102 62 -170 96 -95 94 -89 109 -504 5 -151 14 -318 20 -370 5 -52 12 -169
15 -260 3 -107 13 -209 27 -290 12 -69 22 -154 21 -190 -1 -36 -4 -162 -8
-280 -6 -169 -4 -247 9 -363 9 -81 16 -177 16 -213 0 -121 16 -129 270 -129
252 0 273 12 286 162 5 57 2 115 -9 190 -83 544 -85 706 -17 913 10 30 21 71
23 90 3 19 12 61 21 92 l17 56 128 4 128 3 48 38 c53 40 67 44 105 22 39 -22
57 -18 105 26 l45 42 73 -7 c87 -8 122 -29 307 -188 69 -60 143 -118 165 -129
22 -12 47 -27 56 -35 8 -8 20 -14 25 -14 25 0 84 -53 92 -83 l8 -32 89 -8 c68
-6 101 -15 144 -37 73 -39 140 -41 186 -6 48 37 82 43 108 18 15 -13 43 -22
89 -27 37 -3 70 -11 73 -16 11 -17 138 -49 221 -55 l83 -7 53 41 c74 56 153
92 204 92 49 0 90 28 110 77 16 38 21 39 71 18 19 -8 58 -15 85 -15 48 0 52 2
111 63 53 54 71 66 126 82 64 19 64 19 92 80 24 54 36 68 92 104 76 49 160
141 203 221 88 163 256 334 297 302 21 -16 79 -22 116 -12 29 7 47 6 86 -8 42
-15 50 -22 49 -43 -3 -58 -35 -297 -44 -324 -5 -16 -14 -120 -20 -230 -5 -110
-12 -230 -14 -267 -2 -49 1 -71 10 -79 8 -6 14 -19 14 -28 0 -9 8 -27 18 -40
9 -14 37 -63 62 -110 55 -103 60 -105 242 -98 96 3 136 9 165 23 62 31 68 55
66 246 -2 152 -5 172 -29 235 -24 63 -26 76 -21 183 6 113 25 207 68 334 27
79 42 106 76 137 36 33 125 79 151 79 25 0 52 35 52 66 0 13 13 32 30 46 83
63 81 61 89 123 4 33 19 81 33 106 31 56 57 136 69 207 9 59 28 87 64 96 30 8
38 41 24 102 -22 105 -22 158 0 207 18 39 21 65 21 169 0 112 2 127 25 170 27
51 31 96 14 168 -9 41 -8 46 13 63 60 46 77 70 84 116 3 25 19 74 35 109 35
75 37 135 8 212 -32 85 -33 89 -14 110 11 12 19 42 22 82 4 51 1 74 -17 116
-19 43 -20 56 -11 83 17 48 13 88 -10 126 -21 34 -21 36 -4 71 21 46 65 177
65 198 0 25 -81 104 -129 126 -38 17 -58 20 -122 15 -73 -5 -79 -4 -101 20
-13 14 -56 50 -95 79 -40 30 -73 57 -73 62 0 18 -73 83 -155 138 -138 93 -369
224 -395 224 -4 0 -50 20 -102 44 -51 24 -185 82 -298 130 -324 137 -572 257
-720 349 -41 26 -82 47 -92 47 -29 0 -21 27 21 73 68 73 89 174 65 307 -8 47
-19 162 -25 255 -6 97 -17 193 -26 223 -23 74 -14 135 72 512 11 49 12 74 5
100 -7 22 -8 89 -4 180 6 135 5 149 -14 185 -11 22 -40 57 -65 77 l-44 36 -6
204 c-3 113 1 355 9 548 16 414 18 609 4 646 -7 18 -5 146 6 418 18 425 16
635 -6 661 -8 10 -16 56 -19 116 -6 93 -5 102 16 127 31 38 28 58 -12 95 -31
28 -37 42 -49 112 -14 80 -14 80 10 106 27 29 30 44 10 52 -8 3 -22 20 -31 38
-14 27 -15 38 -5 74 10 34 9 51 -5 97 -8 31 -14 62 -13 69 2 8 -3 14 -11 14
-9 0 -21 -25 -33 -65 -16 -55 -17 -73 -8 -118 12 -57 9 -68 -35 -104 -19 -17
-19 -18 -2 -48 27 -49 18 -218 -13 -228 -30 -10 -42 -36 -36 -79 3 -23 9 -64
12 -89 4 -31 -1 -82 -16 -153 -29 -139 -34 -154 -48 -159 -18 -6 -136 118
-231 241 -46 59 -98 119 -117 133 -18 14 -65 34 -105 44 -39 10 -72 20 -73 22
-2 2 -10 18 -19 37 -20 40 -22 71 -4 71 6 0 46 33 88 73 74 72 77 76 88 140 6
36 18 84 26 107 8 24 15 72 15 109 0 55 -5 75 -30 118 -16 28 -34 54 -40 58
-5 3 -10 31 -10 61 0 51 -2 56 -30 72 -23 13 -30 24 -30 49 0 40 -26 56 -83
51 -36 -3 -43 0 -54 22 -12 26 0 105 26 160 9 20 9 34 -2 65 -16 47 -45 56
-94 30 -31 -17 -34 -17 -70 0 -50 24 -54 32 -37 73 26 63 -11 71 -76 17 -23
-19 -45 -35 -50 -35 -15 0 -20 32 -20 126 0 79 -5 110 -31 187 -17 51 -33 115
-36 142 -4 44 -2 55 26 92 22 31 31 54 31 82 0 34 -4 41 -34 55 -67 32 -99 15
-147 -74 -17 -33 -38 -60 -46 -60 -8 0 -34 12 -58 26 -52 30 -56 28 -118 -44
l-45 -54 14 -40 c15 -44 9 -67 -28 -92 -28 -20 -62 -20 -77 -3 -17 21 12 213
39 249 29 39 28 111 -2 132 -28 20 -77 20 -104 1z m424 -244 c26 -24 32 -38
32 -69 0 -24 -7 -49 -18 -62 -17 -22 -19 -22 -49 -6 -32 16 -36 23 -48 83 -7
33 16 83 39 83 6 0 26 -13 44 -29z m66 -327 c36 -36 14 -59 -66 -69 -57 -7
-58 -7 -58 17 0 18 10 29 43 45 51 26 61 27 81 7z m-564 -264 c0 -23 -18 -36
-32 -22 -7 7 -6 17 2 31 13 24 30 19 30 -9z m605 -68 c20 -14 37 -61 32 -84
-8 -29 -45 -70 -60 -65 -6 2 -14 17 -18 33 -3 16 -11 39 -17 49 -9 17 -6 25
16 48 28 29 32 31 47 19z m168 -176 c7 -17 -55 -76 -79 -76 -30 0 -28 32 4 62
35 30 67 36 75 14z m-908 -736 c10 -16 -14 -40 -41 -40 -31 0 -41 20 -19 37
22 16 51 17 60 3z m-209 -434 c23 -18 15 -27 -45 -50 -25 -10 -59 -29 -76 -44
-73 -62 -89 -72 -100 -61 -17 18 155 167 196 169 3 0 14 -6 25 -14z m-646
-221 c10 -12 40 -169 40 -210 0 -6 -14 -26 -31 -44 -28 -31 -32 -33 -47 -17
-13 13 -16 38 -16 140 1 68 4 128 8 135 10 15 31 14 46 -4z m210 -332 c32 -52
39 -107 15 -117 -16 -6 -45 29 -45 56 0 9 -11 29 -25 42 -21 21 -24 29 -15 46
17 32 38 24 70 -27z m-174 -38 c34 -42 36 -50 38 -117 1 -62 5 -78 28 -108 49
-65 87 -159 104 -259 9 -53 21 -105 27 -116 17 -32 14 -205 -4 -240 -9 -17
-27 -50 -40 -75 -32 -60 -39 -181 -14 -230 15 -28 16 -52 10 -176 -8 -156 -3
-171 36 -106 12 20 38 50 56 65 29 25 33 34 33 78 0 27 2 49 5 49 15 0 65 -32
65 -41 0 -6 -18 -46 -41 -88 -24 -46 -45 -100 -50 -136 -13 -75 -22 -85 -52
-57 -29 28 -37 20 -37 -34 0 -23 -8 -66 -19 -96 -62 -178 -65 -207 -22 -258
32 -40 71 -142 71 -188 0 -17 -9 -46 -20 -64 -24 -40 -26 -89 -4 -131 9 -18
20 -39 24 -47 4 -9 2 -43 -5 -75 -28 -130 -37 -184 -46 -279 -8 -85 -7 -103 7
-124 10 -15 13 -32 9 -46 -4 -11 -8 -118 -10 -236 -3 -213 -3 -215 21 -258 21
-36 24 -49 17 -90 -4 -26 -7 -87 -5 -137 l3 -90 39 -28 c44 -31 50 -58 30
-127 -7 -24 -7 -49 0 -81 11 -45 10 -48 -33 -115 -43 -66 -71 -152 -93 -279
-9 -51 -25 -84 -59 -115 -26 -25 -27 -25 -42 -5 -13 17 -14 46 -9 182 4 134 2
172 -11 213 l-16 50 26 24 c47 44 52 82 49 451 -1 187 -7 367 -12 400 -7 42
-5 180 7 464 14 332 14 417 4 480 -17 102 -34 150 -72 204 -30 42 -32 53 -41
169 -11 154 -18 346 -24 648 -7 415 -5 699 10 1150 2 41 10 70 21 70 2 0 20
-20 41 -45z m2592 -112 c0 -27 5 -97 12 -158 10 -84 10 -139 2 -232 -6 -68 -7
-135 -3 -150 11 -40 3 -648 -10 -708 -7 -37 -7 -64 2 -102 9 -39 9 -101 2
-254 l-10 -202 -51 -44 c-76 -65 -92 -97 -99 -197 -6 -81 -5 -86 20 -116 35
-42 40 -76 28 -205 -17 -173 -73 -387 -103 -393 -22 -4 -32 32 -17 60 21 39
20 154 -2 205 -11 26 -19 68 -19 100 0 31 -5 73 -11 94 -11 34 -9 45 15 99 32
76 33 104 1 146 -27 35 -27 63 1 137 8 20 14 48 14 61 0 13 13 35 31 51 31 27
31 29 25 94 -8 94 -23 171 -36 186 -9 11 -6 41 9 123 24 123 26 184 10 265
-10 46 -9 68 6 126 19 80 17 107 -22 229 l-26 84 11 176 c14 211 39 295 113
379 35 41 55 107 41 138 -13 27 10 55 44 55 20 0 23 -5 22 -47z m-2259 -219
c36 -30 40 -54 10 -54 -29 0 -86 29 -93 47 -16 40 38 45 83 7z m1829 -761 c10
-19 0 -124 -16 -179 -7 -22 -5 -41 6 -70 8 -21 16 -64 17 -94 2 -97 2 -98 40
-110 19 -6 40 -21 46 -33 10 -17 8 -24 -12 -40 -29 -23 -83 -17 -113 13 -20
20 -21 31 -19 223 3 241 9 307 28 307 8 0 18 -8 23 -17z m-1716 -726 c3 -143
-1 -218 -13 -249 -14 -35 -21 -35 -53 3 -25 29 -26 36 -26 152 0 67 -4 128 -9
136 -6 9 -4 23 5 38 8 13 21 35 30 50 l17 27 23 -28 c21 -24 24 -38 26 -129z
m1724 77 c24 -48 26 -58 15 -76 -10 -16 -11 -46 -6 -118 l7 -97 -30 -22 c-24
-16 -32 -18 -39 -9 -14 22 -16 347 -3 363 19 23 26 19 56 -41z m-1935 -61 c6
-16 22 -51 35 -80 46 -93 11 -140 -46 -62 -41 57 -57 111 -42 144 15 33 40 32
53 -2z m1974 -351 c45 -16 50 -21 53 -52 6 -60 -58 -80 -124 -39 -29 17 -34
26 -34 58 0 21 3 41 7 44 11 12 46 8 98 -11z m-1777 -24 c7 -7 12 -26 12 -43
0 -45 -16 -55 -90 -55 -79 0 -103 14 -98 55 3 24 9 30 48 40 61 17 113 18 128
3z m1750 -150 c24 -24 14 -73 -23 -114 -34 -38 -35 -38 -50 -20 -25 33 -19 93
11 121 30 28 44 31 62 13z m-1758 -28 c32 -17 50 -98 34 -157 -9 -31 -17 -29
-59 14 -77 79 -59 188 25 143z m1858 -213 c10 -41 11 -62 4 -69 -14 -14 -112
21 -112 40 0 23 61 93 78 90 9 -2 21 -25 30 -61z m-1946 16 c18 -23 38 -88 29
-100 -3 -6 -19 -14 -36 -20 -16 -5 -36 -22 -43 -36 -15 -31 -24 -33 -42 -12
-15 18 1 147 20 171 17 19 54 18 72 -3z m1835 -230 c34 -26 42 -50 21 -71 -14
-14 -57 -16 -77 -3 -21 13 -28 130 -10 162 13 24 13 23 23 -19 6 -31 19 -51
43 -69z m-1719 -14 c3 -65 -13 -99 -51 -112 -55 -18 -84 46 -35 76 10 7 28 32
38 55 26 58 44 50 48 -19z m1702 -287 c12 -84 11 -91 -9 -137 l-22 -49 25 -34
24 -33 -20 -52 c-27 -71 -37 -87 -52 -87 -8 0 -16 10 -20 23 -6 22 1 120 11
147 3 8 6 80 7 160 0 80 5 151 9 158 17 26 34 -9 47 -96z m-1699 -172 c-2
-140 -7 -259 -11 -263 -9 -11 -70 84 -70 109 0 11 6 29 14 40 13 17 13 27 2
60 -10 29 -11 69 -6 155 8 129 20 162 53 157 l22 -3 -4 -255z m1945 -92 c4 -6
11 -71 15 -145 6 -113 12 -147 40 -226 18 -50 43 -107 56 -126 33 -49 38 -91
25 -251 -15 -174 -25 -220 -52 -220 -35 0 -73 65 -78 131 -4 53 -9 65 -46 107
-23 26 -56 74 -73 108 -28 54 -29 63 -17 85 18 32 17 73 -2 110 -19 38 -14 54
36 107 38 40 40 45 42 115 1 39 1 94 0 121 -4 65 32 120 54 84z m-1938 -363
c5 -106 -12 -141 -53 -111 -16 11 -16 19 -7 62 7 27 14 66 17 87 5 29 10 37
23 35 14 -3 18 -17 20 -73z m1661 -189 c14 -17 5 -43 -19 -56 -14 -7 -19 -5
-23 10 -12 46 16 77 42 46z m-1661 -68 c20 -64 22 -89 12 -108 -15 -27 -34
-25 -55 6 -15 24 -15 28 -1 59 9 18 16 42 16 54 0 32 17 25 28 -11z m2446
-393 c84 -49 272 -148 506 -266 170 -86 255 -136 320 -189 73 -60 182 -161
259 -242 l73 -77 -12 -93 c-13 -96 -8 -214 12 -280 9 -29 8 -45 -6 -77 -25
-64 -21 -168 9 -237 18 -41 22 -61 15 -68 -12 -12 -18 -9 -116 59 -33 22 -93
55 -134 73 -41 18 -100 53 -130 77 -30 24 -93 67 -140 95 -47 28 -92 55 -100
61 -15 9 -123 62 -163 80 -12 5 -40 20 -62 33 -59 35 -180 96 -190 96 -5 0
-38 19 -74 43 -36 24 -85 56 -108 70 -59 38 -76 73 -67 147 6 54 9 59 38 70
76 28 76 29 76 60 0 17 -8 43 -18 58 -38 56 -92 142 -92 147 0 3 -11 22 -23
43 -23 36 -24 41 -16 185 10 200 17 207 143 132z m-1458 -27 c4 -6 -4 -20 -19
-33 -15 -11 -27 -28 -27 -36 0 -8 -7 -24 -15 -35 -15 -18 -16 -18 -45 16 -39
45 -39 64 -1 55 25 -5 29 -3 35 19 5 21 13 26 36 26 16 0 32 -5 36 -12z m-251
-18 c12 -20 -15 -50 -45 -50 -39 0 -40 24 -2 44 33 18 39 19 47 6z m507 -5
c86 -14 128 -28 128 -43 0 -5 -6 -17 -14 -27 -13 -19 -15 -19 -33 -3 -11 10
-39 18 -71 19 -45 2 -56 -1 -80 -24 -20 -19 -39 -27 -63 -27 -65 0 -80 50 -28
94 35 30 44 31 161 11z m-599 -56 c17 -14 -4 -47 -43 -64 -41 -18 -68 -17
-134 8 -47 17 -98 8 -131 -23 -26 -24 -59 -21 -49 4 7 17 57 43 154 79 128 47
122 46 160 24 19 -11 39 -24 43 -28z m1142 1 c10 -16 -14 -49 -41 -56 -31 -8
-86 7 -92 24 -8 26 117 57 133 32z m-751 -79 c13 -24 13 -31 2 -40 -10 -8 -20
-6 -40 10 -26 20 -26 22 -10 40 23 26 31 24 48 -10z m-1072 -31 c54 -15 54
-26 1 -45 -27 -10 -58 -22 -71 -28 -30 -14 -56 1 -60 36 -3 22 2 27 25 33 15
3 33 7 38 9 18 6 29 5 67 -5z m610 -47 c30 -27 22 -43 -20 -43 -46 0 -78 20
-69 44 8 21 65 21 89 -1z m1293 -9 c27 -8 59 -14 70 -14 12 0 26 -5 33 -12 14
-14 -9 -56 -71 -131 -40 -49 -40 -49 -23 -80 9 -18 30 -51 47 -74 49 -64 41
-67 -148 -60 -98 4 -194 3 -236 -3 -40 -6 -101 -15 -137 -20 -98 -15 -436 -25
-443 -13 -3 5 24 31 61 58 52 38 87 54 156 73 149 39 201 69 320 178 59 54
117 103 129 107 12 5 42 5 67 2 25 -3 56 -2 70 4 14 5 32 7 40 4 8 -3 37 -12
65 -19z m-1722 -149 c40 -24 93 -62 118 -83 66 -58 102 -73 214 -88 56 -7 125
-22 154 -34 28 -11 63 -20 76 -20 21 0 55 -32 55 -51 0 -10 -68 -18 -240 -28
-85 -5 -189 -17 -230 -25 -41 -9 -98 -16 -126 -16 -28 0 -73 -6 -100 -14 -27
-7 -78 -19 -114 -26 -66 -13 -139 -34 -169 -49 -9 -5 -42 -12 -73 -15 -47 -6
-58 -5 -58 7 0 8 7 20 15 27 8 7 17 27 21 44 6 34 6 33 -85 211 -30 60 -41 92
-41 128 0 45 1 47 29 47 16 0 48 -7 71 -15 44 -15 121 -20 134 -8 17 17 87 33
151 34 39 0 79 4 90 9 30 13 29 13 108 -35z m3329 -2293 c5 -19 8 -59 6 -90
-3 -56 -3 -56 -70 -113 -67 -56 -90 -67 -223 -108 -102 -33 -201 -88 -330
-186 -44 -34 -127 -91 -185 -127 -58 -37 -121 -80 -141 -97 -19 -17 -48 -35
-62 -40 -38 -15 -114 -3 -166 25 -49 27 -89 30 -156 12 -38 -10 -50 -10 -80 5
-52 25 -110 22 -162 -9 -42 -24 -48 -25 -107 -15 -95 17 -119 14 -167 -19 -49
-33 -80 -38 -99 -15 -9 10 -32 15 -74 15 -51 0 -73 -6 -119 -30 -45 -25 -72
-32 -141 -37 -77 -5 -87 -8 -102 -31 -9 -14 -19 -48 -23 -76 -5 -43 -10 -52
-28 -54 -13 -2 -33 4 -45 12 -35 25 -142 22 -180 -5 -32 -23 -47 -20 -99 22
-34 27 -190 79 -239 79 -41 0 -114 27 -159 60 -35 24 -121 53 -241 81 -86 20
-111 21 -268 15 l-174 -7 -34 26 c-26 20 -58 30 -121 41 -107 17 -109 19 -96
109 9 67 28 73 250 81 163 6 335 1 1363 -37 191 -7 312 -6 395 1 214 19 329
31 380 40 28 5 79 14 115 20 163 28 391 89 540 145 19 8 69 25 110 40 41 15
125 47 185 72 110 46 303 117 360 133 17 4 68 20 115 35 175 55 206 63 234 62
25 -2 31 -8 38 -35z m-2255 -979 c18 -10 44 -33 57 -51 38 -52 12 -87 -30 -41
-10 11 -40 36 -66 56 -27 19 -46 39 -42 44 9 14 47 10 81 -8z m-1377 -99 c11
-13 10 -19 -8 -37 l-22 -21 -25 24 c-14 13 -25 29 -25 37 0 19 64 17 80 -3z
m1470 -183 c0 -22 -6 -44 -15 -51 -17 -14 -65 -5 -65 12 0 14 60 78 72 78 4 0
8 -17 8 -39z m-245 -11 c7 -11 -30 -36 -66 -45 -17 -4 -30 -1 -38 9 -11 13 -8
17 21 30 39 17 74 20 83 6z"/>
</g>
</svg>
