<?xml version="1.0" standalone="no"?>
<!DOCTYPE svg PUBLIC "-//W3C//DTD SVG 20010904//EN"
 "http://www.w3.org/TR/2001/REC-SVG-20010904/DTD/svg10.dtd">
<svg version="1.0" xmlns="http://www.w3.org/2000/svg"
 width="1280.000000pt" height="1276.000000pt" viewBox="0 0 1280.000000 1276.000000"
 preserveAspectRatio="xMidYMid meet">
<metadata>
Created by potrace 1.15, written by Peter Selinger 2001-2017
</metadata>
<g transform="translate(0.000000,1276.000000) scale(0.100000,-0.100000)"
fill="#000000" stroke="none">
<path d="M2619 12527 c-223 -158 -344 -237 -467 -307 -224 -126 -472 -209
-729 -246 -128 -18 -439 -22 -572 -6 -52 6 -74 5 -77 -3 -3 -6 -19 -10 -37 -9
-31 3 -46 -11 -268 -248 -129 -137 -235 -254 -237 -259 -2 -4 15 -13 37 -18
23 -6 59 -16 81 -21 45 -12 46 -14 25 -64 l-15 -36 112 -54 c62 -30 648 -320
1303 -646 655 -326 1282 -637 1395 -692 112 -54 209 -103 216 -109 8 -7 9 -20
3 -47 -5 -20 -12 -96 -16 -169 -9 -186 12 -230 93 -194 41 19 165 143 210 211
15 22 28 40 29 40 16 0 1296 -644 1285 -647 -8 -2 -172 -44 -363 -93 -344 -87
-349 -88 -390 -74 -172 62 -421 81 -589 46 -210 -44 -348 -148 -373 -283 l-6
-34 -247 -63 c-136 -34 -398 -100 -582 -147 -184 -47 -531 -135 -770 -196
-239 -61 -502 -128 -585 -149 -544 -141 -1026 -260 -1048 -260 -20 0 -27 -6
-31 -27 -4 -16 14 -365 39 -778 25 -412 59 -975 75 -1250 58 -965 70 -1142 76
-1158 3 -8 625 -421 1382 -918 812 -532 1518 -1002 1720 -1146 189 -133 345
-243 347 -243 2 0 5 6 7 14 2 9 425 -262 1193 -763 1227 -800 2028 -1318 2173
-1404 45 -27 82 -55 82 -63 0 -8 12 -12 33 -12 40 1 66 14 75 38 4 11 1053
675 2497 1581 1370 859 2491 1563 2492 1563 0 1 17 163 37 361 202 2024 307
3076 310 3119 3 39 30 110 121 306 64 140 121 269 126 285 17 56 1 83 -123
214 -141 148 -225 256 -267 344 -45 95 -52 175 -34 412 13 175 24 241 84 526
103 490 110 540 116 794 6 244 -7 371 -53 557 -116 456 -406 834 -767 998
-145 66 -226 82 -420 88 -139 3 -174 7 -162 16 13 9 -11 17 -127 39 -79 15
-349 68 -600 118 l-458 90 -41 -27 -41 -26 -127 22 c-414 69 -2181 380 -3418
600 -123 22 -323 58 -445 80 -123 21 -425 75 -673 119 -247 44 -679 121 -960
172 -280 50 -541 96 -580 103 -38 7 -69 17 -68 22 1 6 -147 33 -330 62 -183
29 -369 59 -413 66 l-82 13 -183 -130z m923 -2793 c30 -16 31 -17 13 -30 -10
-8 -22 -14 -27 -14 -9 0 -28 34 -28 49 0 15 5 14 42 -5z m-238 -1128 c-3 -15
-8 -25 -11 -23 -2 3 -1 17 3 31 3 15 8 25 11 23 2 -3 1 -17 -3 -31z"/>
</g>
</svg>
