<?xml version="1.0" standalone="no"?>
<!DOCTYPE svg PUBLIC "-//W3C//DTD SVG 20010904//EN"
 "http://www.w3.org/TR/2001/REC-SVG-20010904/DTD/svg10.dtd">
<svg version="1.0" xmlns="http://www.w3.org/2000/svg"
 width="1047.000000pt" height="1280.000000pt" viewBox="0 0 1047.000000 1280.000000"
 preserveAspectRatio="xMidYMid meet">
<metadata>
Created by potrace 1.15, written by Peter Selinger 2001-2017
</metadata>
<g transform="translate(0.000000,1280.000000) scale(0.100000,-0.100000)"
fill="#000000" stroke="none">
<path d="M5050 10393 c-1 -915 -3 -1065 -15 -1050 -7 10 -19 51 -25 90 -58
352 -142 579 -287 772 -107 142 -199 226 -482 440 -145 110 -307 233 -360 273
-52 40 -106 75 -118 78 -58 15 -96 -14 -247 -186 -56 -63 -145 -161 -199 -217
l-99 -102 -93 6 c-99 6 -145 0 -145 -20 1 -6 -115 -242 -256 -523 -252 -501
-257 -512 -244 -543 33 -82 268 -243 475 -326 214 -86 542 -142 1165 -198
l135 -12 -65 -25 c-98 -36 -233 -101 -369 -175 -334 -182 -555 -330 -860 -576
-139 -112 -311 -250 -383 -305 -71 -56 -131 -104 -134 -106 -2 -3 37 -20 88
-38 276 -96 511 -245 740 -468 l117 -114 108 99 c59 55 215 197 346 316 131
119 304 279 385 355 l147 140 -3 -381 c-2 -329 0 -383 13 -403 9 -13 24 -24
35 -24 19 0 20 -7 20 -95 l0 -94 -42 -11 c-24 -6 -109 -33 -189 -60 -733 -246
-1364 -772 -1757 -1466 -188 -332 -315 -716 -379 -1149 -25 -173 -25 -638 0
-820 69 -491 237 -944 497 -1338 201 -306 474 -596 770 -818 780 -585 1816
-775 2766 -508 394 110 818 329 1144 589 142 113 395 369 504 510 161 208 295
427 395 647 442 977 374 2086 -184 3004 -215 354 -549 707 -900 951 -288 200
-649 368 -987 459 l-78 21 0 89 c0 87 1 89 23 89 13 0 31 8 40 18 15 17 17 59
17 396 l0 378 163 -154 c89 -84 305 -283 480 -441 l318 -289 41 49 c190 223
468 427 744 544 l126 53 -29 21 c-28 20 -171 134 -512 410 -277 223 -602 430
-936 596 -88 43 -191 90 -229 103 l-70 24 55 6 c29 3 133 13 229 21 330 29
641 75 823 121 166 42 322 111 476 211 98 63 201 162 201 192 0 35 -75 193
-263 556 -100 192 -195 381 -212 420 -17 38 -34 76 -38 83 -6 8 -42 12 -121
12 l-113 0 -99 103 c-54 56 -130 138 -168 182 -116 133 -169 186 -209 206 -37
20 -38 20 -80 0 -23 -11 -79 -48 -124 -83 -45 -35 -200 -153 -345 -262 -144
-110 -297 -235 -339 -277 -154 -156 -265 -336 -334 -541 -33 -101 -95 -377
-95 -429 0 -15 -9 -37 -20 -50 -19 -24 -19 -19 -20 1044 l0 1067 -165 0 -165
0 0 -1067z m306 -1541 c37 -19 49 -35 105 -143 34 -67 89 -158 121 -203 32
-45 58 -90 58 -102 0 -35 -37 -131 -69 -177 -43 -63 -105 -115 -177 -149 -61
-29 -68 -30 -186 -26 -112 3 -128 6 -181 32 -109 56 -212 194 -225 301 -4 38
0 48 41 104 48 65 147 232 147 248 0 5 13 30 29 55 23 36 40 50 83 67 70 28
193 25 254 -7z m-596 -510 c0 -9 13 -45 29 -79 32 -66 92 -139 153 -183 l38
-28 -218 -6 c-119 -3 -244 -9 -276 -12 l-59 -5 157 163 c86 89 156 166 156
171 0 4 5 5 10 2 6 -3 10 -14 10 -23z m1238 -301 c1 -3 -73 -3 -165 0 -93 4
-215 7 -273 8 -101 1 -104 2 -80 17 83 56 170 171 191 254 l13 50 155 -161
c86 -89 157 -165 159 -168z"/>
</g>
</svg>
