<?xml version="1.0" standalone="no"?>
<!DOCTYPE svg PUBLIC "-//W3C//DTD SVG 20010904//EN"
 "http://www.w3.org/TR/2001/REC-SVG-20010904/DTD/svg10.dtd">
<svg version="1.0" xmlns="http://www.w3.org/2000/svg"
 width="728.000000pt" height="1280.000000pt" viewBox="0 0 728.000000 1280.000000"
 preserveAspectRatio="xMidYMid meet">
<metadata>
Created by potrace 1.15, written by Peter Selinger 2001-2017
</metadata>
<g transform="translate(0.000000,1280.000000) scale(0.100000,-0.100000)"
fill="#000000" stroke="none">
<path d="M1916 11902 c-9 -15 -25 -175 -56 -557 -53 -656 -104 -1103 -205
-1813 -84 -582 -105 -701 -131 -723 -25 -21 -32 6 -119 506 -31 176 -87 478
-125 670 -38 193 -78 406 -90 475 -11 69 -31 159 -45 200 -14 41 -45 167 -71
280 -109 486 -215 869 -241 878 -37 12 -6 -254 115 -1003 53 -329 57 -360 56
-520 0 -154 -3 -179 -27 -265 -223 -788 -323 -1474 -334 -2290 -6 -444 5 -784
41 -1306 5 -66 -7 -86 -22 -37 -6 21 -18 47 -26 58 -13 19 -15 18 -22 -19 -11
-61 3 -641 21 -836 49 -550 104 -851 220 -1203 30 -92 63 -211 74 -265 16 -80
51 -374 51 -431 0 -22 19 0 25 30 3 13 8 38 11 56 7 36 27 58 47 50 24 -9 74
-130 160 -385 47 -136 96 -270 109 -297 23 -45 26 -47 33 -26 12 39 -4 147
-71 461 -154 721 -189 1101 -135 1460 59 391 261 1298 339 1520 40 114 62 58
86 -218 37 -415 62 -886 71 -1342 11 -528 19 -652 39 -547 13 72 35 333 47
557 17 336 7 1284 -17 1625 -11 146 -18 359 -18 485 1 264 -6 224 162 875 134
521 214 864 292 1255 117 583 190 1120 190 1389 0 184 -21 116 -120 -389 -50
-256 -125 -618 -166 -805 -92 -419 -358 -1494 -384 -1552 -33 -76 -48 -55 -56
81 -8 125 6 256 71 662 157 979 227 1625 256 2344 14 356 5 787 -18 880 -3 14
-6 28 -5 33 3 10 -6 9 -12 -1z m-821 -2045 c24 -86 225 -1324 259 -1602 36
-289 30 -438 -30 -815 -102 -636 -167 -1088 -219 -1505 -37 -294 -56 -411 -74
-442 -42 -76 -140 850 -172 1637 -13 310 -7 1010 11 1290 38 613 139 1434 182
1487 16 19 26 7 43 -50z m340 -2864 c-10 -43 -17 -18 -8 34 6 39 8 43 11 19 2
-15 1 -40 -3 -53z m-672 -1148 c3 -22 17 -96 31 -165 14 -69 34 -177 46 -240
11 -63 25 -133 30 -155 20 -90 59 -325 65 -397 9 -96 -7 -136 -25 -68 -37 135
-112 586 -135 805 -3 33 -10 89 -15 125 -16 115 -20 176 -11 155 5 -11 11 -38
14 -60z"/>
<path d="M6678 5820 c-26 -5 -53 -12 -60 -16 -44 -27 -1467 -1000 -1483 -1014
-16 -14 -2890 -1976 -3661 -2499 -164 -112 -184 -123 -213 -116 -17 3 -31 13
-31 21 0 17 -17 19 -22 3 -3 -9 -10 -9 -27 1 -20 10 -26 9 -44 -8 l-20 -20 22
-28 21 -27 -37 -23 c-49 -30 -61 -30 -73 1 -5 14 -13 25 -18 25 -17 0 -32 -25
-32 -52 0 -18 -5 -28 -14 -28 -26 0 -48 -31 -42 -60 5 -26 2 -28 -34 -34 -22
-3 -40 -11 -40 -16 0 -7 6 -7 19 -1 35 19 43 -17 11 -49 -24 -24 -17 -44 11
-37 11 3 16 1 13 -4 -3 -5 -23 -6 -45 -3 l-40 7 6 -36 c5 -28 2 -42 -15 -65
-14 -19 -19 -35 -14 -44 6 -10 5 -11 -7 -1 -8 7 -24 12 -34 11 -11 0 -24 0
-30 2 -25 6 -45 -2 -72 -30 -15 -17 -36 -30 -46 -30 -13 0 -17 -5 -13 -17 3
-10 5 -31 5 -48 -1 -125 -8 -140 -54 -115 -38 21 -60 0 -60 -57 0 -47 -1 -48
-30 -48 -25 0 -31 5 -35 30 -6 36 -31 44 -45 13 -6 -13 -20 -24 -32 -26 -13
-2 -23 -10 -23 -17 0 -15 27 -45 41 -45 5 0 9 -5 9 -11 0 -5 -4 -8 -9 -4 -5 3
-22 -6 -37 -20 -20 -18 -35 -24 -49 -20 -36 11 -48 10 -52 -5 -4 -13 -3 -13 6
0 7 10 11 11 11 3 0 -7 7 -13 15 -13 8 0 19 -9 25 -19 8 -16 6 -21 -8 -25 -11
-4 -23 -22 -28 -44 -5 -20 -15 -36 -22 -34 -7 1 -12 -4 -12 -12 0 -8 -6 -13
-12 -13 -18 2 -88 -14 -88 -20 0 -8 55 -52 67 -53 7 0 17 8 22 18 6 9 11 12
11 6 0 -14 -43 -54 -58 -54 -22 0 -34 -39 -21 -69 12 -28 15 -28 76 -25 35 2
63 1 63 -2 0 -18 -23 -43 -45 -48 -14 -4 -23 -11 -20 -16 12 -19 47 -10 75 20
47 50 80 35 73 -33 -6 -53 -19 -70 -43 -57 -12 6 -16 17 -13 30 4 15 0 20 -15
20 -21 0 -46 -23 -36 -33 9 -9 -19 -42 -36 -42 -11 0 -14 -9 -12 -32 3 -24 -2
-34 -17 -43 -24 -12 -28 -30 -6 -30 21 0 37 -37 30 -70 -7 -32 7 -47 25 -25
16 19 36 19 44 0 6 -17 42 -20 52 -4 4 7 22 9 50 4 47 -7 57 2 24 23 -27 17
-15 39 25 46 20 4 36 14 38 24 4 13 5 12 6 -5 0 -12 -3 -25 -9 -28 -24 -15 -9
-35 25 -35 32 0 35 -2 35 -31 0 -17 -5 -39 -10 -50 -9 -16 -7 -21 13 -28 13
-5 27 -17 30 -26 6 -14 9 -14 38 0 17 9 37 14 45 11 17 -6 18 6 3 21 -16 16
-3 43 21 43 11 0 20 5 20 12 0 23 42 99 61 109 20 10 26 44 9 54 -19 12 -11
45 10 45 12 0 31 7 43 15 20 13 22 12 23 -8 1 -12 5 -32 9 -44 5 -17 3 -23 -7
-23 -17 0 -88 -59 -70 -60 6 0 12 -5 12 -11 0 -8 -5 -7 -15 1 -20 16 -32 5
-16 -14 10 -12 8 -18 -13 -31 -27 -18 -34 -49 -15 -61 6 -3 8 -15 6 -26 -3
-11 -1 -30 5 -43 8 -17 6 -28 -7 -48 -12 -20 -14 -30 -6 -44 6 -11 11 -13 11
-5 0 7 4 11 9 8 5 -3 15 2 22 11 12 14 12 16 0 9 -9 -6 -12 -5 -9 4 7 21 28
24 28 4 0 -9 5 -34 12 -56 8 -28 16 -37 27 -33 9 4 22 -2 31 -14 21 -27 100
-19 100 11 0 17 14 26 65 43 19 6 19 7 -5 25 -19 14 -22 22 -13 31 14 14 36 2
29 -16 -2 -7 4 -15 15 -18 10 -3 19 -12 19 -21 0 -22 17 -20 29 2 12 22 78 44
109 36 20 -6 22 -3 22 34 0 33 4 41 22 46 13 3 27 1 32 -4 18 -18 26 -10 21
18 -4 22 -4 23 4 7 8 -19 9 -18 20 8 10 25 15 28 48 25 36 -3 38 -1 41 29 2
17 10 37 18 43 16 14 19 46 3 55 -7 5 -5 15 6 32 12 18 14 28 5 38 -9 11 -7
12 8 8 11 -2 30 1 43 7 19 11 24 10 35 -5 8 -11 21 -16 34 -12 11 3 33 -1 48
-9 24 -12 27 -12 30 4 8 48 13 62 25 62 7 0 13 15 14 36 1 29 -2 37 -18 41
-29 8 -17 29 15 25 31 -3 32 5 8 48 -17 30 -17 31 6 50 19 15 21 23 13 38 -12
23 -3 36 15 21 9 -7 19 -7 33 0 27 15 31 14 31 -9 0 -21 15 -27 25 -10 3 6 19
10 35 10 20 0 31 6 35 20 4 11 10 18 14 16 4 -3 7 10 6 29 -1 33 1 35 32 35
58 0 123 38 123 72 0 21 -4 22 -31 8 -11 -6 -19 -7 -19 -2 0 6 9 12 20 15 22
6 27 36 9 54 -8 8 -8 13 0 17 6 4 11 14 11 22 0 17 -41 19 -57 3 -24 -24 -23
13 2 67 24 53 25 61 13 101 -7 23 -18 43 -25 43 -7 0 -10 7 -6 15 9 25 48 -36
79 -124 15 -42 30 -79 33 -83 3 -4 467 334 1031 750 564 416 1557 1149 2205
1628 649 479 1335 985 1525 1124 190 139 353 262 362 273 62 79 84 334 38 452
-30 78 -60 125 -111 174 -109 104 -285 150 -461 121z m-5338 -3705 c17 -9 30
-20 30 -24 0 -5 3 -16 6 -25 5 -13 -1 -16 -29 -16 -40 0 -42 2 -52 48 -8 37 1
40 45 17z m85 -45 c3 -5 1 -10 -4 -10 -6 0 -11 5 -11 10 0 6 2 10 4 10 3 0 8
-4 11 -10z m-405 -90 c-8 -5 -19 -10 -25 -10 -5 0 -3 5 5 10 8 5 20 10 25 10
6 0 3 -5 -5 -10z m-46 -61 c-3 -5 -12 -9 -20 -9 -8 0 -14 -6 -14 -13 0 -8 -10
-22 -22 -33 -23 -19 -23 -19 -5 2 9 11 17 31 17 43 0 12 4 19 10 16 6 -3 10
-2 10 4 0 6 7 8 15 5 8 -4 12 -10 9 -15z m81 -30 c4 -6 13 -8 21 -5 9 4 7 -8
-8 -39 -12 -25 -28 -45 -35 -45 -17 0 -16 20 2 44 22 29 19 36 -17 36 -25 0
-29 3 -18 10 20 13 47 13 55 -1z m-42 -37 c-10 -10 -20 -17 -22 -16 -6 5 20
34 30 34 5 0 1 -8 -8 -18z m267 7 c0 -8 4 -8 13 -1 10 9 19 7 35 -4 18 -13 22
-25 22 -73 0 -32 -3 -61 -6 -64 -7 -7 -59 19 -81 40 -14 12 -17 70 -7 97 7 18
24 22 24 5z m-310 -9 c8 -5 11 -10 5 -10 -5 0 -17 5 -25 10 -8 5 -10 10 -5 10
6 0 17 -5 25 -10z m835 -100 c-3 -5 -12 -10 -18 -10 -7 0 -6 4 3 10 19 12 23
12 15 0z m-806 -44 c-2 -2 -13 8 -23 22 l-19 27 24 -22 c12 -12 21 -24 18 -27z
m867 13 c3 -6 2 -14 -4 -18 -6 -3 -14 -19 -17 -34 -4 -15 -12 -30 -18 -34 -6
-4 -8 0 -4 10 3 8 9 32 13 51 6 36 17 45 30 25z m-186 -71 c-23 -35 -23 -31
-1 15 8 15 16 25 19 22 2 -2 -5 -19 -18 -37z m-814 -4 c-25 -18 -31 -12 -14
15 8 14 16 17 23 10 7 -7 4 -15 -9 -25z m871 -1 c-3 -10 -5 -4 -5 12 0 17 2
24 5 18 2 -7 2 -21 0 -30z m63 7 c0 -5 -5 -10 -11 -10 -5 0 -7 5 -4 10 3 6 8
10 11 10 2 0 4 -4 4 -10z m-80 -30 c0 -5 -9 -10 -21 -10 -11 0 -17 5 -14 10 3
6 13 10 21 10 8 0 14 -4 14 -10z m-289 -74 c5 -6 9 -17 9 -25 0 -9 -9 -1 -20
17 -11 18 -17 39 -13 45 5 8 9 5 11 -8 2 -11 8 -24 13 -29z m316 -208 c-3 -8
-6 -5 -6 6 -1 11 2 17 5 13 3 -3 4 -12 1 -19z m-7 -39 c0 -5 -12 -9 -26 -9
-37 0 -28 -33 11 -41 29 -6 29 -7 -7 -8 -37 -1 -38 0 -38 33 0 19 6 36 13 39
17 5 47 -3 47 -14z m281 -56 c-8 -15 -10 -15 -11 -2 0 17 10 32 18 25 2 -3 -1
-13 -7 -23z m-421 -57 c0 -3 -4 -8 -10 -11 -5 -3 -10 -1 -10 4 0 6 5 11 10 11
6 0 10 -2 10 -4z m-75 -16 c3 -5 1 -10 -4 -10 -6 0 -11 5 -11 10 0 6 2 10 4
10 3 0 8 -4 11 -10z m350 -110 c-3 -5 -12 -10 -18 -10 -7 0 -6 4 3 10 19 12
23 12 15 0z m-472 -117 c-7 -2 -19 -2 -25 0 -7 3 -2 5 12 5 14 0 19 -2 13 -5z
m61 -65 c4 -20 1 -39 -9 -54 -19 -29 -19 -34 0 -34 21 0 19 -7 -10 -38 -14
-15 -23 -31 -21 -37 2 -6 -14 -10 -38 -9 -59 1 -61 2 -36 22 l21 17 -25 24
c-36 34 -33 54 14 86 22 15 40 32 40 38 0 5 9 7 20 4 11 -3 20 -1 20 4 0 23
18 6 24 -23z m-430 -180 c-19 -20 -44 -24 -44 -7 0 5 4 7 10 4 5 -3 7 0 5 7
-3 7 -23 14 -44 15 -32 2 -40 -2 -50 -24 -6 -14 -14 -23 -18 -20 -12 13 28 58
50 56 12 -1 33 3 47 8 19 8 29 7 43 -5 16 -14 16 -16 1 -34z m-448 -83 c-13
-14 -26 -25 -30 -25 -3 0 1 11 10 25 9 14 22 25 30 25 8 0 5 -9 -10 -25z m109
-27 c-10 -43 -11 -44 -35 -23 -25 23 -25 35 -1 35 11 0 23 5 26 10 12 20 16 9
10 -22z"/>
<path d="M650 1710 c0 -5 7 -10 15 -10 8 0 15 5 15 10 0 6 -7 10 -15 10 -8 0
-15 -4 -15 -10z"/>
<path d="M773 706 c3 -6 9 -10 15 -9 5 1 9 -5 8 -14 0 -9 4 -18 10 -20 7 -2
11 6 10 21 -1 17 -8 26 -24 29 -14 3 -21 0 -19 -7z"/>
<path d="M1470 534 c0 -8 5 -12 10 -9 6 3 10 10 10 16 0 5 -4 9 -10 9 -5 0
-10 -7 -10 -16z"/>
<path d="M501 514 c0 -11 3 -14 6 -6 3 7 2 16 -1 19 -3 4 -6 -2 -5 -13z"/>
<path d="M752 284 c-8 -14 -15 -15 -41 -6 -29 10 -34 8 -63 -20 -27 -26 -29
-32 -15 -39 8 -5 18 -22 22 -38 4 -18 16 -33 33 -40 27 -11 27 -11 6 6 -12 10
-28 32 -37 50 -14 30 -14 34 7 55 18 21 26 22 54 14 28 -8 36 -6 53 12 15 17
16 22 5 22 -8 0 -19 -7 -24 -16z"/>
<path d="M1030 295 c0 -5 5 -17 10 -25 5 -8 10 -10 10 -5 0 6 -5 17 -10 25 -5
8 -10 11 -10 5z"/>
<path d="M998 283 c7 -3 16 -2 19 1 4 3 -2 6 -13 5 -11 0 -14 -3 -6 -6z"/>
<path d="M981 255 c9 -9 23 -13 32 -9 28 10 19 24 -15 24 -29 0 -31 -2 -17
-15z"/>
<path d="M1030 225 c0 -8 4 -15 10 -15 5 0 7 7 4 15 -4 8 -8 15 -10 15 -2 0
-4 -7 -4 -15z"/>
<path d="M1001 214 c0 -11 3 -14 6 -6 3 7 2 16 -1 19 -3 4 -6 -2 -5 -13z"/>
<path d="M890 190 c0 -5 5 -10 10 -10 6 0 10 5 10 10 0 6 -4 10 -10 10 -5 0
-10 -4 -10 -10z"/>
<path d="M776 167 c3 -10 9 -15 12 -12 3 3 0 11 -7 18 -10 9 -11 8 -5 -6z"/>
<path d="M730 144 c8 -4 23 -11 32 -15 9 -5 19 -5 22 -1 3 5 0 9 -7 10 -7 0
-23 3 -37 6 -14 4 -18 3 -10 0z"/>
</g>
</svg>
