<?xml version="1.0" standalone="no"?>
<!DOCTYPE svg PUBLIC "-//W3C//DTD SVG 20010904//EN"
 "http://www.w3.org/TR/2001/REC-SVG-20010904/DTD/svg10.dtd">
<svg version="1.0" xmlns="http://www.w3.org/2000/svg"
 width="1280.000000pt" height="984.000000pt" viewBox="0 0 1280.000000 984.000000"
 preserveAspectRatio="xMidYMid meet">
<metadata>
Created by potrace 1.15, written by Peter Selinger 2001-2017
</metadata>
<g transform="translate(0.000000,984.000000) scale(0.100000,-0.100000)"
fill="#000000" stroke="none">
<path d="M6715 9464 c-853 -22 -1710 -90 -2480 -195 -1247 -171 -2137 -437
-2296 -687 -40 -63 -45 -99 -21 -158 12 -28 25 -96 31 -159 17 -167 29 -289
40 -410 6 -60 15 -157 21 -215 114 -1211 159 -2036 140 -2565 -11 -314 -28
-668 -36 -733 -5 -38 -7 -42 -18 -26 -11 14 -15 -9 -26 -142 -7 -87 -16 -150
-20 -139 -6 16 -8 15 -13 -10 -10 -46 -73 -123 -127 -157 -27 -17 -47 -34 -45
-38 2 -4 -26 -20 -63 -35 -138 -58 -330 -154 -432 -215 -58 -34 -110 -63 -117
-63 -7 0 -10 -4 -7 -9 5 -7 -10 -12 -29 -9 -4 0 -6 -5 -5 -11 2 -7 -5 -13 -14
-13 -9 0 -20 -4 -25 -9 -5 -5 -2 -6 6 -1 10 6 12 4 7 -4 -4 -7 -13 -10 -19 -8
-12 4 -120 -74 -133 -96 -5 -7 0 -6 12 3 10 8 3 -3 -15 -23 -19 -20 -37 -37
-40 -37 -2 0 6 11 19 25 13 14 19 25 13 25 -14 0 -251 -244 -305 -315 -173
-228 -276 -449 -325 -700 -23 -121 -23 -378 1 -490 56 -257 172 -479 384 -729
241 -284 564 -466 1067 -600 575 -153 1010 -181 1845 -121 118 8 253 17 300
21 495 32 789 72 1245 169 234 50 885 189 1150 247 127 27 259 56 295 63 36 8
243 53 460 100 513 111 661 143 1035 220 829 170 1141 250 1695 435 226 75
335 114 705 250 94 34 294 106 445 160 633 225 889 353 1087 547 43 41 67 67
53 57 -14 -10 1 8 33 40 87 86 242 329 220 345 -4 3 -8 27 -9 52 0 53 -37 121
-108 203 l-42 49 -40 -13 c-52 -18 -971 -19 -1194 -2 -415 33 -628 55 -600 63
17 5 19 7 7 8 -51 3 -138 73 -171 139 -9 17 -20 32 -25 32 -4 0 -11 37 -14 83
-4 45 -11 125 -17 177 -17 169 -33 406 -60 895 -39 691 -47 1061 -38 1710 7
543 21 959 58 1705 5 107 14 301 20 430 7 132 18 259 26 290 14 52 13 57 -11
105 -115 237 -837 403 -2045 470 -247 14 -1166 26 -1435 19z m3522 -5941 c-3
-10 -5 -2 -5 17 0 19 2 27 5 18 2 -10 2 -26 0 -35z m-9077 -77 c0 -2 -8 -10
-17 -17 -16 -13 -17 -12 -4 4 13 16 21 21 21 13z m-40 -29 c0 -2 -12 -14 -27
-28 l-28 -24 24 28 c23 25 31 32 31 24z"/>
</g>
</svg>
