<?xml version="1.0" standalone="no"?>
<!DOCTYPE svg PUBLIC "-//W3C//DTD SVG 20010904//EN"
 "http://www.w3.org/TR/2001/REC-SVG-20010904/DTD/svg10.dtd">
<svg version="1.0" xmlns="http://www.w3.org/2000/svg"
 width="1280.000000pt" height="1150.000000pt" viewBox="0 0 1280.000000 1150.000000"
 preserveAspectRatio="xMidYMid meet">
<metadata>
Created by potrace 1.15, written by Peter Selinger 2001-2017
</metadata>
<g transform="translate(0.000000,1150.000000) scale(0.100000,-0.100000)"
fill="#000000" stroke="none">
<path d="M1876 11484 c-163 -39 -292 -155 -454 -409 -60 -93 -173 -269 -252
-390 -487 -750 -918 -1482 -1061 -1805 -91 -207 -121 -328 -100 -407 43 -159
565 -655 1803 -1716 1749 -1496 5246 -4353 7483 -6112 752 -591 814 -636 886
-643 93 -9 219 73 488 317 333 302 1190 1179 1909 1955 l222 239 0 52 c0 44
-7 64 -53 141 -223 377 -445 572 -695 608 -67 10 -169 -11 -252 -51 -98 -48
-193 -143 -454 -458 -177 -213 -371 -442 -399 -470 -32 -32 40 61 349 452 189
239 344 438 344 442 -1 3 -45 41 -100 83 l-98 77 -78 -99 c-43 -55 -82 -100
-88 -100 -6 0 -20 -13 -31 -28 -10 -15 -264 -342 -564 -727 -299 -385 -546
-702 -547 -703 -5 -8 -84 -14 -84 -7 0 4 297 407 660 896 363 489 660 891 660
893 0 8 -198 156 -207 156 -5 0 -38 -39 -73 -87 -36 -49 -79 -101 -96 -118
-17 -16 -293 -388 -613 -825 -321 -437 -587 -797 -592 -798 -15 -6 -120 78
-113 90 4 6 314 424 690 931 l683 920 -104 78 c-57 44 -106 79 -109 79 -2 0
-41 -50 -86 -110 -45 -61 -86 -110 -90 -110 -4 0 -277 -367 -605 -815 -329
-448 -601 -815 -605 -815 -10 0 -190 139 -190 146 0 3 311 424 691 936 379
511 692 935 695 942 3 8 -24 35 -68 66 -40 30 -87 64 -105 77 l-31 24 -78
-103 c-43 -57 -90 -114 -105 -128 -15 -14 -294 -389 -620 -835 -325 -445 -593
-811 -594 -813 -2 -3 -195 148 -195 152 0 2 317 431 705 952 387 522 703 952
702 955 -1 4 -49 41 -105 83 -89 67 -105 75 -115 62 -7 -9 -43 -58 -82 -110
-38 -53 -74 -96 -80 -96 -5 -1 -286 -378 -624 -840 l-614 -838 -76 58 c-42 33
-91 72 -110 87 l-33 29 696 937 c383 515 696 939 696 941 0 13 -212 157 -219
150 -4 -5 -43 -55 -85 -111 -42 -57 -80 -103 -84 -103 -4 0 -277 -369 -607
-819 -330 -451 -603 -820 -608 -820 -4 -1 -45 29 -91 66 l-84 67 52 70 c181
245 1145 1542 1217 1638 l88 118 -77 58 c-42 32 -91 68 -108 80 l-32 22 -82
-110 c-45 -61 -85 -110 -90 -110 -4 0 -269 -358 -590 -795 -321 -438 -587
-794 -592 -793 -17 6 -158 121 -158 129 0 7 1072 1457 1317 1781 40 53 73 99
73 101 0 6 -188 147 -204 153 -9 3 -38 -29 -81 -88 -37 -51 -79 -104 -95 -118
-15 -14 -290 -383 -610 -820 -321 -437 -590 -805 -600 -817 l-16 -21 -72 56
-71 56 23 31 c13 16 317 426 676 910 359 484 657 885 661 891 5 6 -30 39 -95
87 -57 42 -106 77 -109 77 -4 0 -43 -48 -88 -108 -44 -59 -84 -106 -87 -106
-4 1 -272 -360 -596 -802 -324 -442 -591 -804 -594 -804 -2 0 -47 35 -99 77
-52 43 -104 85 -115 94 -20 15 0 43 676 953 384 516 696 939 694 940 -2 2 -50
38 -106 80 -57 43 -107 74 -111 70 -5 -5 -36 -47 -71 -94 -34 -47 -75 -96 -90
-110 -15 -14 -294 -389 -620 -835 -327 -445 -595 -812 -596 -814 -2 -2 -39 27
-83 63 l-80 67 103 137 c56 75 369 497 696 937 326 440 597 805 601 811 5 6
-30 39 -95 87 -57 42 -106 77 -109 77 -4 0 -43 -48 -88 -107 -44 -60 -84 -107
-87 -107 -4 1 -241 -318 -527 -708 -286 -391 -561 -766 -611 -834 l-90 -123
-72 57 c-39 31 -70 63 -69 69 1 7 310 428 687 935 377 507 689 927 693 934 5
9 -21 35 -88 84 -53 39 -102 73 -110 76 -8 4 -42 -33 -91 -100 -43 -58 -83
-106 -88 -107 -6 0 -274 -360 -596 -800 -322 -440 -594 -811 -605 -825 l-21
-26 -69 57 c-39 32 -70 63 -69 69 1 6 308 424 683 929 375 505 684 923 686
930 2 7 -43 47 -100 89 l-104 78 -77 -103 c-43 -56 -88 -111 -100 -122 -13
-11 -287 -380 -609 -820 -323 -440 -590 -801 -595 -803 -14 -5 -221 171 -216
184 2 6 310 422 683 925 373 503 682 919 686 925 3 6 -37 43 -98 87 -57 43
-106 77 -109 77 -2 0 -41 -49 -86 -110 -45 -61 -86 -110 -90 -110 -4 0 -275
-364 -601 -810 -327 -445 -598 -810 -602 -810 -13 0 -228 183 -225 192 2 4
317 431 701 949 385 517 697 942 695 943 -25 21 -209 156 -212 156 -1 0 -38
-49 -82 -110 -43 -60 -83 -110 -89 -110 -5 0 -284 -374 -619 -830 l-608 -831
-61 54 c-33 29 -60 57 -59 63 1 5 300 410 664 901 365 491 664 896 665 900 2
6 -184 150 -207 160 -3 2 -41 -47 -85 -107 -44 -61 -84 -110 -90 -110 -5 -1
-261 -344 -568 -763 -307 -419 -566 -773 -576 -786 l-19 -25 -81 69 c-45 37
-81 70 -81 72 0 2 308 419 685 926 377 507 685 925 685 930 0 8 -198 157 -208
157 -4 0 -43 -50 -86 -110 -44 -61 -84 -110 -90 -111 -6 0 -276 -362 -600
-805 -323 -442 -593 -804 -600 -804 -6 0 -42 29 -81 64 -55 50 -67 66 -59 77
60 75 1374 1851 1374 1857 -1 4 -48 42 -105 84 l-104 76 -82 -109 c-44 -60
-85 -109 -89 -109 -5 0 -277 -367 -606 -815 -329 -448 -602 -815 -608 -815
-15 1 -98 80 -94 89 2 5 305 414 673 910 369 496 671 905 673 909 1 4 -45 43
-103 86 -93 69 -107 77 -118 62 -7 -8 -43 -58 -82 -110 -38 -53 -74 -96 -80
-96 -5 0 -269 -354 -585 -786 -316 -432 -579 -789 -585 -794 -6 -5 -36 15 -73
48 l-64 57 657 885 c362 487 678 911 702 943 24 33 43 60 41 61 -2 1 -46 33
-98 72 -52 39 -100 73 -107 77 -7 4 -37 -29 -78 -86 -38 -50 -82 -105 -100
-122 -18 -16 -292 -385 -610 -820 -318 -434 -586 -799 -595 -809 -18 -18 -22
-16 -149 94 -128 111 -166 148 -96 96 19 -14 50 -37 68 -50 l32 -24 725 976
c399 536 726 978 727 981 2 5 -189 151 -207 159 -4 1 -36 -37 -70 -85 -35 -48
-78 -102 -96 -119 -17 -16 -312 -412 -654 -880 -343 -467 -626 -853 -631 -858
-10 -12 -131 94 -125 110 3 7 316 432 697 944 380 512 690 932 688 934 -2 1
-51 38 -108 81 l-104 78 -18 -24 c-10 -13 -47 -63 -81 -111 -35 -48 -67 -88
-73 -88 -8 0 -315 -416 -1136 -1536 l-75 -103 -76 72 -77 72 700 939 c384 517
696 943 692 947 -23 19 -201 149 -205 149 -3 0 -43 -49 -88 -110 -45 -60 -86
-110 -90 -110 -5 0 -273 -361 -597 -802 -323 -441 -593 -809 -600 -817 -10
-14 -19 -9 -62 34 -28 27 -51 53 -51 57 0 4 306 421 681 925 375 504 683 922
685 928 6 14 -207 170 -215 157 -39 -60 -157 -212 -165 -213 -6 0 -274 -360
-596 -800 -321 -439 -587 -799 -590 -799 -4 0 -19 13 -35 30 l-28 29 25 33
c153 201 1391 1873 1393 1882 2 6 -44 46 -102 88 l-105 77 -81 -110 c-45 -60
-86 -109 -91 -110 -6 0 -217 -282 -469 -627 -251 -345 -464 -636 -473 -647
-63 -82 119 207 256 406 139 201 473 643 693 917 l195 243 -49 72 c-163 236
-343 407 -522 496 -135 67 -266 85 -391 55z"/>
</g>
</svg>
