<?xml version="1.0" standalone="no"?>
<!DOCTYPE svg PUBLIC "-//W3C//DTD SVG 20010904//EN"
 "http://www.w3.org/TR/2001/REC-SVG-20010904/DTD/svg10.dtd">
<svg version="1.0" xmlns="http://www.w3.org/2000/svg"
 width="915.000000pt" height="1280.000000pt" viewBox="0 0 915.000000 1280.000000"
 preserveAspectRatio="xMidYMid meet">
<metadata>
Created by potrace 1.15, written by Peter Selinger 2001-2017
</metadata>
<g transform="translate(0.000000,1280.000000) scale(0.100000,-0.100000)"
fill="#000000" stroke="none">
<path d="M1923 12780 c-337 -31 -501 -71 -723 -176 -305 -145 -577 -387 -781
-693 -88 -132 -230 -415 -268 -535 -75 -234 -64 -441 48 -878 108 -424 205
-664 793 -1968 327 -725 543 -1241 559 -1338 12 -76 11 -642 -1 -817 -29 -396
-110 -859 -200 -1140 -92 -285 -196 -490 -423 -831 -95 -144 -210 -322 -254
-396 -268 -446 -509 -954 -599 -1263 -36 -123 -74 -320 -74 -382 0 -67 26 -98
234 -277 110 -96 293 -268 406 -383 224 -227 366 -354 565 -503 609 -456 1305
-789 2109 -1009 302 -83 510 -126 786 -163 220 -29 648 -31 875 -5 313 37 650
104 950 189 845 238 1698 684 2227 1165 53 48 197 184 320 302 123 118 319
297 435 399 139 122 218 198 229 221 44 92 -49 470 -204 826 -181 420 -398
807 -744 1329 -317 478 -438 801 -528 1418 -44 296 -80 730 -80 954 0 207 39
456 97 619 14 38 108 252 210 475 845 1849 1016 2277 1117 2807 56 288 56 475
2 637 -34 99 -212 439 -303 574 -390 587 -935 855 -1738 856 -393 0 -738 -62
-1057 -190 -139 -55 -229 -103 -434 -232 -247 -155 -482 -264 -684 -319 -101
-27 -301 -25 -410 5 -295 81 -442 145 -693 305 -90 58 -206 127 -258 155 -401
214 -964 312 -1506 262z m4698 -500 c241 -26 247 -27 264 -53 13 -20 13 -48 0
-227 -35 -498 -79 -746 -172 -984 -104 -266 -231 -446 -508 -720 -243 -240
-315 -286 -453 -286 -61 0 -74 4 -150 47 -160 90 -301 250 -373 421 -67 161
-96 341 -119 722 -6 102 -15 207 -20 233 -21 105 -1 169 71 231 52 44 400 262
579 363 266 149 489 251 574 263 94 12 111 11 307 -10z m-3711 -4 c153 -33
319 -108 520 -235 468 -295 737 -471 754 -494 17 -23 21 -51 28 -170 14 -234
11 -352 -11 -561 -24 -223 -33 -267 -69 -346 -40 -86 -100 -138 -242 -208 -69
-34 -177 -94 -240 -133 -162 -101 -191 -113 -275 -113 -41 0 -85 7 -106 16
-46 20 -251 199 -391 340 -162 164 -254 293 -353 493 -122 247 -180 437 -205
675 -30 279 -57 646 -50 665 14 38 37 46 177 65 168 22 374 25 463 6z m-1061
-135 c15 -10 15 -26 -14 -316 -33 -325 -10 -617 69 -891 77 -268 160 -433 356
-713 66 -94 120 -173 120 -175 0 -7 -201 58 -306 99 -134 52 -351 164 -509
262 -226 141 -498 355 -586 460 -92 111 -139 262 -139 451 0 126 -1 123 127
274 93 110 224 231 339 314 106 76 295 172 419 214 99 33 104 34 124 21z
m5596 -25 c239 -80 434 -205 642 -411 212 -210 252 -286 239 -451 -13 -152
-63 -289 -142 -386 -78 -96 -346 -314 -521 -424 -194 -123 -786 -394 -860
-394 -23 0 -14 15 69 126 199 263 327 526 404 832 76 298 82 552 28 1049 -7
62 3 93 28 93 6 0 57 -15 113 -34z m-6502 -1906 c91 -69 226 -163 299 -210
144 -92 419 -236 563 -296 106 -44 361 -130 411 -140 24 -4 32 -10 26 -16 -11
-11 -525 4 -755 22 -143 11 -202 35 -319 129 -177 143 -331 362 -412 589 -32
89 -32 88 -2 65 13 -10 98 -74 189 -143z m7415 19 c-98 -228 -214 -393 -368
-526 -124 -107 -184 -130 -409 -152 -126 -13 -671 -15 -671 -2 0 5 24 15 53
21 74 18 286 90 390 134 325 135 727 382 1011 623 22 18 41 31 43 29 2 -2 -20
-59 -49 -127z m-3568 -174 c22 -8 55 -24 73 -37 51 -35 226 -182 226 -190 1
-5 -29 -8 -66 -8 -38 0 -266 -7 -507 -15 -242 -8 -442 -12 -445 -10 -9 9 43
40 96 56 57 18 88 38 182 117 73 62 124 88 202 101 66 12 185 5 239 -14z m110
-514 c0 -15 -272 -161 -299 -161 -29 0 -281 141 -281 158 0 9 65 12 290 12
176 0 290 -4 290 -9z m594 -96 c10 -50 -53 -532 -85 -658 l-10 -38 -279 188
c-154 104 -280 191 -280 194 0 6 319 197 504 303 53 31 89 44 122 45 17 1 23
-7 28 -34z m-1561 -64 c227 -130 401 -237 404 -248 3 -7 -123 -97 -279 -201
-233 -156 -284 -187 -290 -174 -4 10 -30 149 -59 310 -56 325 -56 332 5 372
45 30 79 21 219 -59z m-981 -567 c61 -238 118 -594 222 -1384 60 -452 74 -572
156 -1357 117 -1118 130 -1310 130 -1816 0 -547 -42 -956 -155 -1507 -113
-548 -343 -1581 -356 -1596 -6 -8 -24 -14 -39 -14 -65 0 -545 185 -802 308
-505 244 -844 501 -1086 826 -41 56 -89 117 -107 137 -78 86 -74 181 15 424
127 345 234 600 558 1325 268 601 446 1076 496 1330 14 69 44 251 66 405 112
772 119 869 69 1030 -11 39 -180 468 -375 954 -195 486 -354 887 -354 890 0 4
55 3 123 -2 171 -12 607 -2 757 18 169 21 399 69 528 109 59 19 111 33 117 32
5 -1 22 -52 37 -112z m3557 37 c437 -80 610 -95 1005 -84 l249 6 -7 -29 c-4
-15 -82 -222 -173 -459 -236 -615 -393 -1028 -484 -1272 l-79 -212 0 -101 c0
-165 57 -628 120 -970 82 -448 199 -865 350 -1240 50 -124 85 -195 172 -350
145 -255 259 -503 423 -915 106 -266 179 -476 210 -600 25 -100 15 -125 -108
-288 -223 -295 -364 -431 -622 -602 -306 -203 -691 -387 -1137 -544 -146 -51
-174 -53 -192 -9 -16 39 -124 488 -206 858 -252 1136 -342 1934 -300 2655 12
207 31 404 75 805 19 168 55 508 80 755 155 1527 213 1955 330 2440 38 161 50
195 66 195 6 0 109 -18 228 -39z m-1756 -53 c231 -148 347 -229 347 -242 0
-16 -8 -21 -284 -175 -109 -61 -206 -111 -216 -111 -10 0 -123 60 -252 133
-180 102 -233 137 -233 152 0 19 176 146 370 266 112 69 127 68 268 -23z
m-664 -648 c116 -77 211 -144 211 -148 -1 -8 -379 -246 -384 -241 -8 9 -75
522 -70 531 9 14 17 9 243 -142z m1235 118 c12 -47 5 -190 -14 -290 -11 -57
-23 -131 -27 -165 l-8 -62 -193 122 c-106 67 -193 126 -193 131 -1 8 410 286
422 286 4 0 9 -10 13 -22z m-645 -572 c81 -42 355 -206 378 -228 l22 -21 -57
-40 c-201 -141 -386 -259 -414 -263 -18 -3 -43 -2 -56 3 -25 9 -421 294 -421
303 -1 10 269 178 383 239 71 37 101 39 165 7z m554 -471 c-9 -71 -65 -420
-68 -423 -8 -9 -215 172 -215 188 0 24 13 38 140 154 111 102 148 123 143 81z
m-1117 -97 c90 -82 114 -108 114 -129 0 -21 -21 -45 -96 -113 -53 -47 -99 -86
-103 -86 -5 0 -52 379 -51 418 0 25 24 9 136 -90z m548 -303 c35 -17 356 -281
356 -294 0 -4 -66 -64 -147 -132 -81 -68 -171 -145 -200 -171 -29 -27 -60 -48
-68 -48 -8 0 -54 32 -103 71 -162 133 -322 271 -322 278 0 9 213 191 303 260
75 56 119 65 181 36z m-345 -860 c0 -11 -200 -168 -206 -161 -2 2 -10 80 -18
172 -9 120 -10 171 -3 176 12 7 226 -170 227 -187z m770 86 c1 -62 -29 -233
-41 -229 -20 7 -177 134 -177 143 0 6 46 50 102 99 114 101 114 101 116 -13z
m-308 -462 c88 -61 159 -115 159 -119 0 -4 -68 -53 -150 -109 -200 -135 -188
-135 -380 -1 -78 55 -145 102 -148 105 -3 3 3 12 14 20 10 7 80 59 154 114 95
70 144 100 164 100 21 1 71 -29 187 -110z m-474 -517 c4 -13 -126 -104 -140
-99 -18 7 -31 198 -15 208 9 6 150 -93 155 -109z m748 86 c12 -21 19 -52 19
-83 0 -52 -20 -135 -32 -135 -4 0 -38 29 -76 63 -62 56 -68 65 -58 84 11 20
108 103 121 103 4 0 15 -15 26 -32z m-316 -408 c72 -59 111 -98 111 -110 0
-13 -26 -39 -72 -74 -163 -121 -185 -120 -371 14 -42 30 -75 59 -74 65 7 21
250 195 272 195 15 0 65 -34 134 -90z m-485 -452 c36 -32 38 -36 26 -58 -21
-39 -74 -100 -87 -100 -10 0 -13 28 -13 105 0 119 -1 118 74 53z m760 -15 c10
-72 7 -151 -5 -159 -13 -8 -68 52 -96 104 l-18 34 44 38 c24 21 50 36 56 34 7
-3 15 -26 19 -51z m-164 -478 c0 -15 -81 -90 -164 -152 -76 -56 -103 -56 -177
0 -106 80 -159 135 -159 165 0 13 210 198 247 218 l28 15 113 -117 c61 -64
112 -122 112 -129z m164 -362 c-11 -177 -7 -172 -88 -97 l-68 64 68 74 c38 41
75 75 82 76 11 0 12 -23 6 -117z m-755 51 c28 -30 51 -63 51 -72 0 -38 -97
-141 -120 -127 -6 4 -10 58 -10 131 0 147 4 150 79 68z m439 -350 c106 -84
107 -99 17 -150 -113 -63 -123 -63 -202 -16 -117 70 -114 56 -26 150 58 61 85
82 103 82 17 0 55 -24 108 -66z m-441 -321 c40 -27 73 -50 72 -53 0 -3 -36
-33 -80 -68 l-79 -63 0 116 c0 63 3 115 7 115 4 0 40 -21 80 -47z m784 -18
c11 -98 10 -175 -2 -175 -13 0 -147 108 -152 123 -2 7 -2 19 0 27 5 20 114 91
133 87 10 -1 17 -20 21 -62z m-398 -252 c55 -28 137 -93 137 -108 0 -25 -147
-125 -184 -125 -11 0 -158 93 -186 117 -11 10 162 133 187 133 8 0 28 -7 46
-17z m-435 -340 c25 -21 56 -47 69 -58 l25 -21 -72 -48 c-40 -26 -78 -45 -86
-42 -23 9 -15 206 9 206 5 0 30 -17 55 -37z m862 12 c7 -8 10 -53 8 -114 l-3
-100 -98 60 -98 61 71 58 c72 58 95 65 120 35z m-401 -325 c56 -26 123 -79
115 -92 -14 -23 -130 -68 -175 -68 -56 0 -124 22 -163 53 l-29 23 32 36 c60
68 137 85 220 48z m455 -383 c6 -54 5 -68 -7 -73 -8 -3 -59 17 -112 43 l-97
49 28 19 c16 10 61 28 99 40 82 25 78 28 89 -78z m-934 63 c77 -19 81 -21 78
-37 -4 -20 -161 -93 -178 -83 -10 6 -10 19 0 61 17 79 18 81 37 75 10 -3 38
-10 63 -16z m461 -312 c34 -18 61 -37 62 -43 3 -18 -95 -59 -153 -63 -43 -3
-69 1 -108 18 -69 30 -80 44 -56 71 61 68 152 74 255 17z m-473 -273 c4 -4
-115 -65 -127 -65 -12 0 -16 112 -5 123 5 5 116 -44 132 -58z m972 -12 c22
-64 6 -72 -69 -34 -33 17 -61 37 -61 44 0 17 47 36 85 34 26 -2 32 -8 45 -44z"/>
</g>
</svg>
