<?xml version="1.0" standalone="no"?>
<!DOCTYPE svg PUBLIC "-//W3C//DTD SVG 20010904//EN"
 "http://www.w3.org/TR/2001/REC-SVG-20010904/DTD/svg10.dtd">
<svg version="1.0" xmlns="http://www.w3.org/2000/svg"
 width="1040.000000pt" height="1280.000000pt" viewBox="0 0 1040.000000 1280.000000"
 preserveAspectRatio="xMidYMid meet">
<metadata>
Created by potrace 1.15, written by Peter Selinger 2001-2017
</metadata>
<g transform="translate(0.000000,1280.000000) scale(0.100000,-0.100000)"
fill="#000000" stroke="none">
<path d="M6014 12784 c-161 -27 -323 -88 -609 -232 -93 -46 -228 -111 -300
-144 -71 -33 -188 -95 -260 -138 -171 -102 -214 -123 -315 -153 -114 -34 -165
-43 -370 -67 -371 -43 -455 -65 -660 -171 -124 -63 -247 -145 -450 -298 -85
-64 -211 -157 -279 -206 -291 -208 -372 -314 -421 -555 -37 -182 -28 -404 27
-665 22 -108 52 -212 200 -695 63 -209 88 -313 76 -317 -6 -2 -66 -32 -134
-67 -301 -152 -479 -288 -714 -543 -478 -517 -671 -939 -635 -1382 31 -384
191 -678 471 -864 184 -122 411 -202 750 -262 349 -63 609 -43 1228 95 173 38
268 55 272 48 4 -5 9 -44 13 -87 8 -96 79 -766 111 -1056 13 -121 27 -262 31
-313 6 -83 5 -92 -10 -86 -9 3 -27 -1 -41 -10 -20 -13 -25 -25 -25 -60 0 -51
28 -137 65 -200 27 -46 27 -47 20 -188 -6 -125 -11 -159 -45 -273 -21 -71 -43
-142 -49 -157 l-10 -27 -117 69 c-65 39 -121 70 -126 70 -4 0 -8 -30 -8 -67 0
-76 -13 -135 -35 -157 -8 -8 -39 -22 -68 -30 -59 -18 -93 -56 -145 -161 -43
-87 -62 -158 -69 -256 -7 -108 -3 -125 47 -185 22 -27 40 -59 40 -72 0 -64
-101 -175 -239 -262 -39 -25 -71 -48 -71 -51 0 -4 36 -32 81 -62 l80 -55 -58
-57 c-82 -81 -258 -227 -394 -328 -64 -47 -157 -120 -205 -162 -49 -42 -116
-90 -150 -106 -60 -30 -61 -30 -210 -27 l-150 3 -58 -40 -58 -40 -112 2 c-61
1 -259 4 -441 6 -355 5 -305 -1 -695 75 -58 11 -139 16 -255 17 -181 0 -208
-6 -220 -47 -3 -13 -22 -66 -42 -119 -32 -88 -37 -95 -59 -91 -13 2 -49 1 -79
-3 -76 -9 -101 -33 -121 -118 -20 -81 -37 -58 181 -251 211 -188 391 -336 544
-449 68 -51 142 -108 165 -128 23 -20 53 -39 67 -42 15 -4 69 -32 120 -62 236
-140 577 -298 801 -370 875 -283 1920 -169 2703 296 163 97 301 213 505 423
238 246 491 496 503 496 5 0 6 -30 3 -67 -3 -38 -8 -174 -12 -303 l-6 -235
121 -73 c67 -41 124 -80 128 -87 7 -11 134 -14 678 -16 l670 -3 522 974 c287
536 522 978 522 983 1 4 -14 7 -31 7 -60 0 -62 9 -19 92 22 42 47 102 56 134
31 107 18 97 161 117 184 26 169 19 200 97 l27 69 89 21 c50 12 92 19 94 17 2
-2 -14 -12 -36 -22 -54 -25 -77 -50 -60 -70 20 -25 69 -27 219 -10 156 17 206
13 222 -16 13 -25 0 -70 -63 -226 -54 -135 -59 -176 -19 -181 28 -4 56 20 163
147 79 95 130 141 155 141 21 0 67 -72 108 -172 54 -128 87 -182 113 -186 39
-6 46 35 33 188 -21 245 -15 268 58 256 23 -3 97 -29 163 -57 139 -59 194 -71
204 -45 12 30 -13 63 -108 142 -119 100 -188 171 -188 195 0 27 59 62 201 119
130 52 172 80 167 108 -6 31 -56 36 -218 23 -151 -12 -201 -9 -228 12 -21 16
-5 77 51 206 105 242 53 282 -112 87 -97 -114 -155 -166 -185 -166 -31 0 -58
44 -116 190 -51 129 -76 170 -101 170 -37 0 -44 -40 -31 -173 7 -67 12 -152
12 -188 0 -66 0 -67 -31 -73 -58 -11 -82 -6 -210 44 -70 28 -143 50 -163 50
-32 0 -36 -3 -36 -25 0 -14 15 -41 35 -64 19 -21 35 -41 35 -43 0 -3 -35 -8
-77 -12 -43 -4 -88 -10 -100 -13 -27 -6 -26 -11 -53 145 l-22 123 -97 -94
c-54 -52 -111 -102 -128 -110 l-30 -16 -6 77 c-7 99 -46 230 -107 362 -58 126
-70 196 -70 408 0 111 -4 154 -15 176 -8 15 -15 50 -15 77 0 71 -32 156 -112
301 -38 71 -81 159 -94 196 -32 92 -76 320 -114 587 -17 121 -47 306 -67 410
-29 148 -37 215 -37 305 -1 130 3 147 89 350 60 140 85 227 85 290 0 24 -16
93 -36 154 -34 103 -36 117 -30 196 3 47 24 161 46 253 42 178 55 281 66 520
l7 148 195 146 c226 169 449 347 645 516 76 65 229 184 340 265 453 329 710
564 890 816 158 219 327 524 374 674 21 68 27 108 28 182 0 108 -17 164 -70
234 -18 24 -36 52 -39 63 -5 16 -17 20 -69 23 -154 9 -262 2 -352 -23 -176
-48 -267 -78 -315 -102 -78 -40 -188 -135 -305 -265 -305 -340 -399 -384 -860
-405 -77 -3 -191 -13 -254 -22 l-115 -16 -18 23 c-38 47 -170 263 -221 362
-29 56 -97 200 -152 318 -162 351 -480 930 -618 1122 -125 174 -310 371 -438
465 -164 121 -327 156 -555 117z"/>
</g>
</svg>
