<?xml version="1.0" standalone="no"?>
<!DOCTYPE svg PUBLIC "-//W3C//DTD SVG 20010904//EN"
 "http://www.w3.org/TR/2001/REC-SVG-20010904/DTD/svg10.dtd">
<svg version="1.0" xmlns="http://www.w3.org/2000/svg"
 width="1280.000000pt" height="1280.000000pt" viewBox="0 0 1280.000000 1280.000000"
 preserveAspectRatio="xMidYMid meet">
<metadata>
Created by potrace 1.15, written by Peter Selinger 2001-2017
</metadata>
<g transform="translate(0.000000,1280.000000) scale(0.100000,-0.100000)"
fill="#000000" stroke="none">
<path d="M6855 10400 c-1540 -10 -3230 -21 -3755 -25 l-955 -6 -265 -267
c-285 -288 -498 -521 -721 -788 -251 -301 -522 -675 -521 -720 0 -17 26 -54
83 -116 46 -51 329 -361 629 -688 300 -328 786 -859 1080 -1180 1770 -1936
2189 -2388 2931 -3165 401 -420 976 -1006 1004 -1024 37 -23 66 -6 145 86 496
579 1327 1494 2525 2783 1298 1395 2615 2861 3033 3373 45 55 72 97 72 112 0
17 -22 46 -76 97 -116 111 -337 354 -585 643 -417 488 -640 722 -822 867 l-49
38 -476 -1 c-263 -1 -1737 -10 -3277 -19z m3671 -281 c95 -36 220 -128 339
-251 124 -126 181 -200 340 -433 137 -202 222 -317 317 -430 76 -90 182 -197
227 -227 13 -9 22 -21 20 -27 -5 -13 -446 -515 -844 -961 -517 -578 -821 -912
-1965 -2160 -1109 -1210 -1915 -2105 -2430 -2700 -73 -85 -137 -155 -140 -155
-8 0 -515 518 -856 875 -517 542 -1027 1091 -1679 1805 -1060 1161 -2217 2409
-2620 2828 -121 126 -237 248 -258 273 l-39 44 103 132 c275 353 593 724 877
1025 227 240 315 321 355 327 18 3 1346 13 2952 22 2976 17 4903 29 5122 32
103 2 131 -1 179 -19z"/>
<path d="M8465 10019 c-127 -9 -318 -34 -398 -51 -52 -11 -72 -35 -63 -74 5
-19 41 -41 174 -108 229 -117 409 -218 887 -501 681 -403 791 -465 817 -465
14 0 32 8 40 18 24 28 339 797 407 996 45 129 49 157 26 176 -18 15 -1696 23
-1890 9z"/>
<path d="M5910 10014 c-224 -11 -480 -49 -527 -80 -40 -25 -29 -59 45 -148 83
-98 224 -285 317 -421 169 -246 374 -494 454 -549 35 -25 45 -27 65 -18 13 6
70 72 126 147 93 124 186 238 528 644 121 143 262 340 262 365 0 7 -6 21 -14
32 -14 18 -30 19 -393 20 -208 1 -470 3 -583 6 -113 3 -239 4 -280 2z"/>
<path d="M7305 9923 c-117 -177 -226 -325 -481 -654 -294 -379 -308 -400 -300
-433 12 -50 13 -50 809 -42 803 8 787 7 787 61 0 45 -517 920 -651 1101 -34
46 -44 54 -73 54 -30 0 -37 -7 -91 -87z"/>
<path d="M2955 9993 c-152 -8 -332 -27 -424 -43 -101 -19 -141 -37 -141 -67 0
-8 29 -87 64 -176 35 -89 112 -292 171 -452 58 -159 114 -296 123 -302 27 -22
53 -15 177 45 302 147 1439 811 1533 895 24 22 30 69 10 84 -12 9 -1383 24
-1513 16z"/>
<path d="M5053 9992 c-7 -4 -35 -50 -63 -101 -69 -128 -149 -252 -299 -470
-148 -215 -269 -411 -322 -526 -53 -115 -54 -121 -27 -148 l24 -23 614 1 c638
2 735 7 888 46 116 29 131 66 58 148 -80 90 -194 247 -329 453 -171 260 -297
428 -404 539 -83 86 -109 101 -140 81z"/>
<path d="M1942 9748 c-110 -128 -275 -318 -367 -423 -168 -190 -414 -490 -436
-532 -17 -31 -3 -72 29 -85 37 -14 1393 -4 1421 12 12 6 23 21 27 33 3 13 -11
95 -31 183 -83 368 -179 654 -301 895 -64 129 -79 149 -113 149 -25 0 -56 -32
-229 -232z"/>
<path d="M4585 9838 c-138 -98 -308 -209 -835 -543 -438 -277 -730 -474 -742
-500 -16 -35 11 -72 59 -81 20 -4 255 -5 522 -2 l485 6 19 23 c10 13 62 92
116 174 54 83 160 233 235 334 148 199 223 310 278 411 38 69 88 199 88 229 0
25 -32 51 -61 50 -13 0 -86 -45 -164 -101z"/>
<path d="M10503 9855 c-13 -9 -23 -21 -23 -26 0 -15 -189 -489 -294 -738 -47
-113 -86 -212 -86 -221 0 -9 8 -24 18 -32 15 -14 86 -17 512 -23 517 -7 631
-2 768 34 104 27 126 41 130 78 3 30 -7 42 -116 147 -65 63 -170 175 -233 248
-228 266 -366 394 -526 490 -94 57 -120 64 -150 43z"/>
<path d="M7746 9834 c-31 -30 -18 -59 85 -190 174 -224 325 -456 458 -707 35
-64 71 -122 81 -127 10 -5 174 -10 386 -11 299 -1 383 2 441 14 135 29 200 73
186 125 -4 17 -32 35 -109 72 -186 87 -314 168 -834 522 -225 153 -393 243
-550 293 -94 29 -123 31 -144 9z"/>
<path d="M10543 8600 c-491 -4 -574 -7 -587 -20 -8 -8 -122 -190 -254 -405
-796 -1299 -1644 -2651 -2471 -3938 -226 -351 -243 -380 -237 -412 4 -19 18
-43 33 -55 74 -58 153 1 402 300 174 210 214 254 1000 1090 582 619 1062 1131
1356 1445 768 821 1695 1882 1695 1940 0 12 -6 30 -14 41 -17 22 -1 22 -923
14z"/>
<path d="M8992 8590 l-564 -5 -18 -22 c-26 -33 -329 -850 -743 -2008 -457
-1277 -716 -1960 -968 -2553 -46 -106 -45 -142 1 -192 34 -37 77 -39 127 -9
78 48 555 770 975 1474 167 280 399 686 738 1290 434 774 787 1362 1092 1823
48 74 88 141 88 150 -1 41 -45 63 -118 60 -26 -2 -301 -5 -610 -8z"/>
<path d="M7117 8580 l-779 -5 -19 -24 c-23 -28 -23 -67 -9 -1211 13 -1014 30
-1710 60 -2390 22 -483 64 -1143 76 -1183 3 -10 17 -23 31 -28 50 -19 67 6
123 183 82 259 248 755 373 1113 108 307 219 621 592 1660 259 721 497 1426
595 1762 34 117 14 134 -152 131 -62 -2 -463 -5 -891 -8z"/>
<path d="M4477 8560 c-198 -5 -206 -7 -207 -54 0 -48 667 -1788 1110 -2896
285 -713 698 -1719 737 -1793 12 -24 19 -28 51 -25 27 2 40 9 49 28 24 47 14
1120 -17 1990 -37 1029 -60 1944 -60 2400 0 269 -2 319 -16 338 l-15 22 -722
-2 c-397 -1 -807 -5 -910 -8z"/>
<path d="M1635 8549 c-128 -8 -213 -22 -308 -50 -75 -22 -98 -50 -76 -92 7
-12 94 -107 194 -212 938 -979 2141 -2291 3581 -3905 248 -278 463 -511 479
-518 50 -23 109 -26 128 -7 24 23 21 65 -7 94 -26 29 -672 1103 -1206 2006
-650 1100 -1063 1754 -1529 2423 -112 160 -183 254 -196 257 -35 7 -946 11
-1060 4z"/>
<path d="M3090 8547 c-46 -23 -38 -54 56 -235 281 -539 638 -1162 1244 -2172
536 -893 886 -1493 1169 -2008 78 -140 132 -227 145 -233 12 -6 31 -28 44 -50
13 -22 38 -47 57 -56 31 -15 36 -15 61 1 23 16 26 23 21 55 -9 68 -433 1170
-882 2296 -453 1135 -641 1625 -820 2140 -47 137 -91 255 -97 262 -15 19 -962
18 -998 0z"/>
</g>
</svg>
