<?xml version="1.0" standalone="no"?>
<!DOCTYPE svg PUBLIC "-//W3C//DTD SVG 20010904//EN"
 "http://www.w3.org/TR/2001/REC-SVG-20010904/DTD/svg10.dtd">
<svg version="1.0" xmlns="http://www.w3.org/2000/svg"
 width="1280.000000pt" height="927.000000pt" viewBox="0 0 1280.000000 927.000000"
 preserveAspectRatio="xMidYMid meet">
<metadata>
Created by potrace 1.15, written by Peter Selinger 2001-2017
</metadata>
<g transform="translate(0.000000,927.000000) scale(0.100000,-0.100000)"
fill="#000000" stroke="none">
<path d="M6740 9264 c-560 -36 -789 -60 -1275 -135 -271 -41 -456 -82 -685
-150 -1263 -376 -2321 -1067 -2906 -1899 -286 -408 -459 -840 -531 -1325 -13
-91 -17 -184 -17 -385 0 -299 2 -321 90 -815 71 -399 144 -772 199 -1012 4
-19 -3 -27 -47 -49 -222 -111 -618 -372 -818 -537 -406 -337 -644 -687 -727
-1070 -27 -127 -25 -371 6 -507 114 -513 418 -878 926 -1107 281 -127 626
-209 1085 -255 161 -16 811 -16 1025 0 1125 87 2335 332 3887 788 474 139
1732 538 2126 674 2136 737 3330 1531 3641 2423 57 164 75 273 75 462 0 266
-49 467 -177 730 -130 266 -279 413 -552 546 -314 153 -676 223 -1299 252
l-50 2 -33 210 c-65 414 -125 673 -222 965 -135 404 -308 739 -540 1045 -98
129 -358 389 -488 488 -479 364 -1050 566 -1813 642 -145 15 -748 28 -880 19z"/>
</g>
</svg>
