<?xml version="1.0" standalone="no"?>
<!DOCTYPE svg PUBLIC "-//W3C//DTD SVG 20010904//EN"
 "http://www.w3.org/TR/2001/REC-SVG-20010904/DTD/svg10.dtd">
<svg version="1.0" xmlns="http://www.w3.org/2000/svg"
 width="796.000000pt" height="1280.000000pt" viewBox="0 0 796.000000 1280.000000"
 preserveAspectRatio="xMidYMid meet">
<metadata>
Created by potrace 1.15, written by Peter Selinger 2001-2017
</metadata>
<g transform="translate(0.000000,1280.000000) scale(0.100000,-0.100000)"
fill="#000000" stroke="none">
<path d="M3610 12793 c-265 -28 -665 -172 -781 -280 -92 -86 -171 -212 -204
-327 -23 -77 -23 -227 -1 -261 24 -36 66 -74 111 -98 59 -32 198 -29 377 7 75
15 148 26 162 24 24 -3 21 -9 -66 -107 l-91 -104 119 5 c109 4 127 8 209 41
49 20 104 37 122 37 31 0 32 -1 35 -47 3 -46 5 -49 43 -62 49 -18 288 -20 355
-3 24 6 47 9 50 6 2 -3 8 -132 12 -287 l7 -282 48 -43 c46 -41 82 -51 75 -21
-2 8 -10 39 -18 69 -17 70 -39 212 -69 469 l-25 204 46 141 c72 222 94 314
101 416 17 267 -109 444 -352 495 -65 14 -181 17 -265 8z"/>
<path d="M2795 11016 c-101 -23 -193 -65 -219 -100 -51 -68 -56 -137 -14 -221
12 -24 110 -129 243 -260 158 -156 228 -233 243 -265 32 -69 45 -203 39 -385
-9 -240 -53 -419 -153 -618 -106 -212 -168 -279 -499 -540 -392 -310 -437
-347 -552 -453 -172 -159 -265 -304 -346 -540 -73 -210 -103 -425 -94 -674 10
-264 42 -446 171 -955 48 -189 80 -352 132 -666 l68 -416 -38 -244 c-167
-1084 -194 -1444 -140 -1919 33 -291 84 -495 194 -770 114 -286 170 -445 170
-484 0 -39 -7 -59 -122 -335 -95 -229 -143 -366 -160 -458 l-12 -66 59 -54
c154 -140 264 -158 865 -144 167 4 193 3 267 -17 115 -31 218 -76 422 -186
194 -104 309 -159 368 -175 21 -6 112 -19 203 -30 591 -72 1207 -47 1955 79
495 83 574 107 2103 615 21 7 13 24 -15 31 -207 44 -355 95 -551 190 -527 253
-1149 772 -1753 1464 -745 853 -1049 1496 -1164 2465 -36 302 -95 457 -472
1255 -265 559 -246 515 -278 654 -141 632 -44 1287 299 2001 63 131 113 209
385 604 172 250 319 472 327 494 27 75 10 217 -41 350 -6 15 0 17 58 17 122 0
205 28 361 124 33 20 68 38 78 42 25 8 23 20 -18 116 -84 197 -167 286 -321
344 -63 24 -82 26 -248 27 -226 2 -230 1 -221 -87 47 -472 23 -676 -100 -862
-84 -126 -315 -314 -366 -299 -59 18 -78 54 -112 208 -31 143 -52 192 -106
251 -73 79 -149 113 -313 142 -179 31 -186 44 -187 335 0 241 -10 289 -69 348
-64 64 -209 94 -326 67z"/>
<path d="M6215 10625 c-55 -8 -130 -19 -167 -25 l-67 -12 -176 -270 c-97 -149
-175 -271 -173 -273 11 -8 451 -185 454 -182 2 2 4 125 4 274 l1 271 117 0
c83 -1 132 4 166 15 l50 16 76 -40 c42 -22 89 -53 105 -69 15 -16 72 -109 125
-207 54 -98 102 -177 106 -175 14 5 6 67 -20 172 -13 52 -23 96 -21 98 1 1 39
-43 85 -98 52 -64 86 -98 92 -92 6 6 -24 77 -81 191 -50 99 -89 181 -86 181 3
0 66 -50 141 -111 91 -75 140 -109 151 -105 16 7 18 5 -200 234 -38 39 -63 72
-56 72 8 0 98 -14 201 -32 174 -29 216 -31 192 -9 -12 11 -420 146 -504 166
-92 23 -385 29 -515 10z"/>
<path d="M2017 9122 c-12 -60 -243 -291 -485 -486 -126 -101 -258 -184 -328
-206 -57 -17 -67 -18 -123 -4 -93 21 -137 48 -241 148 -209 199 -292 255 -451
306 -77 25 -101 29 -122 21 -15 -6 -27 -15 -27 -19 0 -21 43 -62 64 -62 39 0
179 -41 241 -70 64 -30 130 -88 90 -78 -93 23 -616 110 -622 104 -16 -16 33
-36 148 -63 65 -14 117 -28 115 -30 -2 -2 -47 3 -100 12 -116 18 -106 18 -106
1 0 -15 88 -49 190 -73 l55 -13 -65 7 c-99 9 -103 9 -107 -3 -6 -18 118 -63
304 -109 95 -24 208 -59 253 -78 101 -44 200 -107 200 -128 0 -52 -153 -100
-365 -115 -70 -5 -95 -11 -95 -20 0 -8 6 -14 13 -14 6 0 84 -7 172 -15 191
-19 270 -13 430 27 254 65 461 157 952 423 l221 120 -52 50 c-61 58 -116 175
-116 247 -1 96 -31 180 -43 120z"/>
</g>
</svg>
