<?xml version="1.0" standalone="no"?>
<!DOCTYPE svg PUBLIC "-//W3C//DTD SVG 20010904//EN"
 "http://www.w3.org/TR/2001/REC-SVG-20010904/DTD/svg10.dtd">
<svg version="1.0" xmlns="http://www.w3.org/2000/svg"
 width="1280.000000pt" height="640.000000pt" viewBox="0 0 1280.000000 640.000000"
 preserveAspectRatio="xMidYMid meet">
<metadata>
Created by potrace 1.15, written by Peter Selinger 2001-2017
</metadata>
<g transform="translate(0.000000,640.000000) scale(0.100000,-0.100000)"
fill="#000000" stroke="none">
<path d="M11858 3840 c-73 -18 -165 -68 -328 -177 -174 -116 -246 -151 -500
-242 -80 -29 -161 -58 -180 -66 -67 -25 -335 -104 -455 -133 -353 -88 -463
-79 -783 59 -237 103 -321 122 -448 100 -38 -7 -175 -47 -304 -90 -129 -43
-267 -84 -306 -91 -89 -16 -139 -6 -425 86 -394 125 -402 125 -805 -12 l-289
-99 -100 0 c-110 0 -141 8 -347 89 -175 69 -225 80 -343 73 -127 -8 -209 -24
-475 -94 -263 -69 -331 -73 -504 -29 -326 82 -462 91 -836 56 -217 -21 -269
-22 -680 -17 -728 10 -900 23 -2050 158 -770 90 -866 100 -1040 102 -202 3
-302 -26 -436 -126 -86 -63 -183 -195 -213 -289 -26 -79 44 -233 155 -345 57
-57 90 -80 165 -116 148 -71 235 -81 477 -52 529 63 1764 122 3262 156 1672
39 6173 -15 7645 -92 166 -9 245 -18 380 -45 236 -47 344 -57 446 -44 161 20
230 76 252 205 l12 68 -57 52 c-89 83 -149 108 -277 113 -139 6 -322 -12 -446
-43 -84 -21 -139 -27 -340 -35 -429 -17 -2091 -32 -2825 -26 -1585 15 -3291
44 -3268 57 7 3 36 9 63 13 49 6 151 31 405 97 213 56 315 46 730 -67 125 -34
219 -54 252 -54 72 0 178 27 419 106 303 99 277 100 899 -31 172 -37 218 -32
509 49 128 36 260 71 292 77 80 16 162 7 234 -23 191 -82 245 -102 328 -123
181 -46 319 -55 530 -35 119 12 259 54 627 189 306 113 398 142 489 152 265
29 330 41 525 95 158 44 237 117 271 251 14 55 14 66 1 97 -16 38 -59 70 -116
86 -54 15 -151 20 -192 10z m-10608 -606 c135 -13 308 -31 385 -39 164 -17
648 -56 1065 -85 813 -57 1060 -77 1335 -108 86 -10 191 2 430 50 156 31 234
42 305 42 103 0 123 -4 370 -71 91 -25 194 -51 230 -58 l65 -13 -65 -1 c-36 0
-335 4 -665 9 -636 10 -1197 2 -1703 -25 -158 -8 -528 -26 -822 -40 -899 -42
-1154 -59 -1345 -86 -218 -31 -396 -29 -484 7 -59 23 -91 66 -91 117 2 122 91
224 251 287 144 56 297 59 739 14z"/>
</g>
</svg>
