<?xml version="1.0" standalone="no"?>
<!DOCTYPE svg PUBLIC "-//W3C//DTD SVG 20010904//EN"
 "http://www.w3.org/TR/2001/REC-SVG-20010904/DTD/svg10.dtd">
<svg version="1.0" xmlns="http://www.w3.org/2000/svg"
 width="1280.000000pt" height="1087.000000pt" viewBox="0 0 1280.000000 1087.000000"
 preserveAspectRatio="xMidYMid meet">
<metadata>
Created by potrace 1.15, written by Peter Selinger 2001-2017
</metadata>
<g transform="translate(0.000000,1087.000000) scale(0.100000,-0.100000)"
fill="#000000" stroke="none">
<path d="M6040 10539 c-1756 -48 -3492 -253 -4104 -483 -202 -76 -297 -162
-253 -230 33 -49 438 -1351 696 -2231 213 -731 433 -1546 566 -2102 63 -265
145 -631 145 -648 0 -7 -75 -15 -237 -23 -1243 -66 -2022 -294 -2266 -662 -63
-95 -81 -159 -81 -285 0 -98 3 -120 32 -205 144 -415 655 -911 1567 -1519 876
-584 1646 -990 2445 -1289 1290 -482 2512 -623 3900 -451 1143 142 2004 595
2664 1403 400 489 778 1159 949 1681 130 394 153 763 66 1035 -171 532 -727
819 -1684 870 -104 5 -227 10 -273 10 -80 0 -82 1 -77 23 2 12 21 119 40 237
154 924 373 1850 795 3355 193 689 260 942 260 982 0 49 -41 88 -144 138 -293
141 -1016 259 -2066 335 -853 61 -2016 85 -2940 59z"/>
</g>
</svg>
