<?xml version="1.0" standalone="no"?>
<!DOCTYPE svg PUBLIC "-//W3C//DTD SVG 20010904//EN"
 "http://www.w3.org/TR/2001/REC-SVG-20010904/DTD/svg10.dtd">
<svg version="1.0" xmlns="http://www.w3.org/2000/svg"
 width="1280.000000pt" height="710.000000pt" viewBox="0 0 1280.000000 710.000000"
 preserveAspectRatio="xMidYMid meet">
<metadata>
Created by potrace 1.15, written by Peter Selinger 2001-2017
</metadata>
<g transform="translate(0.000000,710.000000) scale(0.100000,-0.100000)"
fill="#000000" stroke="none">
<path d="M5820 6941 c-91 -13 -229 -72 -308 -133 -103 -80 -199 -236 -243
-394 -22 -80 -40 -332 -27 -377 12 -43 31 -315 24 -357 -10 -64 -50 -143 -88
-174 -54 -45 -564 -378 -968 -632 -41 -26 -100 -63 -130 -83 -30 -20 -63 -40
-72 -46 -136 -81 -266 -161 -278 -171 -13 -10 -169 -107 -262 -163 -15 -9
-140 -86 -279 -171 -138 -85 -275 -168 -304 -185 -72 -41 -201 -121 -293 -179
-42 -27 -113 -71 -157 -96 -44 -26 -146 -88 -226 -138 -81 -49 -198 -116 -260
-148 -150 -75 -143 -72 -194 -90 -25 -8 -56 -26 -69 -39 -14 -14 -35 -25 -46
-25 -56 0 -154 -82 -171 -143 -9 -34 -17 -41 -81 -72 -39 -20 -79 -41 -87 -49
-17 -15 -288 -185 -501 -316 -74 -45 -151 -92 -170 -105 -19 -12 -89 -56 -155
-98 -169 -107 -242 -190 -260 -295 -8 -48 9 -132 34 -172 29 -46 108 -110 155
-126 42 -14 49 -15 64 -1 9 8 33 17 53 21 34 6 146 71 220 129 29 22 46 27 92
27 86 0 133 -32 208 -143 40 -59 37 -77 -21 -126 -46 -38 -50 -46 -50 -85 0
-69 122 -281 178 -310 20 -11 44 -12 87 -7 62 8 50 1 638 344 77 46 127 97
127 132 0 25 -137 285 -150 285 -4 0 -24 14 -46 30 -32 26 -45 30 -87 29 -45
-2 -53 1 -78 29 -29 32 -32 44 -33 137 -1 28 -5 56 -10 64 -16 25 -8 71 18
102 14 17 26 37 26 45 0 29 50 48 117 46 94 -4 160 33 293 162 158 153 187
176 555 418 638 420 1165 763 1213 788 26 14 67 40 91 58 24 18 48 32 54 32 5
0 26 13 46 28 20 16 56 41 81 56 25 15 72 45 105 66 33 22 76 47 95 57 19 9
53 31 75 48 22 17 78 55 125 84 89 56 94 59 260 166 139 90 221 142 336 213
28 18 56 32 62 32 6 0 26 13 44 28 51 43 174 122 191 122 22 0 44 -30 86 -116
23 -49 62 -106 102 -150 166 -182 186 -210 171 -234 -5 -9 -13 -30 -16 -47 -4
-18 -23 -46 -44 -64 -73 -65 -100 -136 -72 -189 7 -14 6 -31 -5 -62 -9 -24
-20 -54 -24 -68 -5 -14 -43 -82 -85 -152 -42 -71 -76 -130 -76 -132 0 -2 -31
-57 -69 -122 -37 -66 -267 -478 -510 -918 -242 -439 -453 -812 -467 -829 l-26
-31 27 -22 c17 -14 23 -24 16 -28 -6 -4 -11 -15 -11 -24 1 -28 -364 -741 -381
-747 -9 -3 -26 -28 -39 -55 -13 -28 -27 -50 -30 -50 -4 0 -15 -21 -25 -47 -10
-25 -34 -74 -53 -107 -37 -66 -139 -267 -166 -329 -9 -22 -17 -68 -17 -108 -1
-64 2 -74 28 -107 68 -85 132 -100 247 -61 56 19 64 26 95 78 18 31 35 72 38
91 3 19 14 45 25 56 11 12 38 55 62 95 51 91 40 90 189 10 32 -17 65 -31 73
-31 9 0 23 18 31 40 9 22 22 40 29 40 21 0 115 -47 140 -71 17 -16 24 -33 24
-61 0 -32 5 -42 28 -55 16 -9 33 -30 38 -47 8 -27 17 -33 69 -49 77 -24 153
-57 167 -74 6 -7 27 -13 48 -13 31 0 44 7 73 40 42 45 77 110 77 140 0 30 -53
80 -84 80 -13 0 -27 4 -30 9 -3 4 -34 19 -68 32 -35 12 -79 35 -98 51 -19 15
-39 28 -45 28 -23 0 -115 54 -120 71 -9 26 11 58 40 65 18 4 35 -1 58 -18 36
-27 138 -78 156 -78 7 0 19 17 28 37 8 21 21 42 29 46 30 17 15 45 -41 75 -30
16 -67 33 -82 37 -40 10 -53 23 -53 55 0 31 27 60 58 60 11 0 54 -17 94 -38
40 -21 86 -42 101 -46 16 -4 41 -19 55 -35 35 -36 140 -68 171 -52 11 7 21 15
21 20 0 4 16 27 37 50 30 35 36 50 35 83 -2 53 -13 64 -79 83 -30 9 -72 27
-92 39 -20 13 -53 29 -74 37 -21 7 -46 21 -57 31 -11 10 -25 18 -33 18 -7 0
-18 5 -24 11 -8 8 -22 1 -52 -26 -34 -31 -46 -36 -71 -31 -34 6 -140 81 -140
97 0 6 8 24 17 40 22 38 14 46 -93 88 -45 18 -91 43 -103 55 l-22 23 21 44
c11 24 27 55 35 69 8 14 15 33 15 43 0 10 11 22 24 26 12 5 37 31 55 58 17 26
48 57 69 68 26 14 46 37 66 75 15 30 46 85 68 122 22 37 45 84 51 105 7 21 25
52 41 68 49 51 98 146 98 189 1 38 34 118 128 311 134 272 420 880 420 892 0
9 49 115 109 237 60 121 111 231 115 243 4 11 13 27 21 33 8 7 15 20 15 30 0
22 27 46 62 54 15 3 40 17 55 30 27 24 28 27 28 130 0 69 4 109 12 117 17 17
120 30 150 18 13 -5 79 -14 146 -20 113 -10 163 -9 259 7 30 5 38 3 48 -16 15
-28 650 -2234 655 -2277 2 -18 20 -67 40 -109 45 -96 46 -151 2 -172 -23 -11
-26 -16 -16 -28 9 -11 9 -17 -1 -29 -6 -8 -14 -43 -17 -77 -5 -71 -20 -118
-37 -118 -18 0 -86 -60 -86 -76 0 -9 -11 -14 -35 -14 -22 0 -35 -5 -35 -13 0
-8 -15 -13 -42 -13 -24 0 -50 -3 -59 -7 -13 -6 -18 -2 -23 17 -9 38 -36 48
-98 35 -60 -12 -205 -66 -229 -86 -8 -7 -20 -13 -25 -13 -6 0 -22 -13 -37 -28
-29 -30 -35 -60 -16 -79 7 -7 18 -40 25 -75 52 -256 76 -340 123 -449 28 -64
51 -121 51 -127 0 -20 58 -52 92 -52 18 1 51 8 73 16 22 9 69 21 105 29 80 16
100 24 102 39 2 17 5 48 7 79 1 23 9 31 47 47 25 11 56 20 69 20 13 0 47 11
77 25 59 28 106 32 114 11 3 -8 22 -26 42 -39 l37 -26 63 17 c64 17 64 17 82
-6 10 -12 26 -48 35 -80 78 -282 102 -331 175 -352 69 -20 256 37 309 94 29
31 41 117 20 142 -19 24 -507 1511 -515 1571 -3 29 -12 58 -20 64 -8 6 -14 25
-14 42 0 18 -9 41 -22 54 -12 13 -22 31 -23 41 -1 9 -153 499 -338 1088 -185
590 -337 1079 -337 1087 0 9 10 19 23 22 27 8 142 130 156 165 5 14 13 55 16
93 4 37 10 67 14 67 4 0 14 -19 20 -42 22 -74 102 -225 166 -315 19 -28 111
-88 180 -118 77 -34 216 -65 292 -65 89 1 228 32 307 70 35 16 68 30 74 30 5
0 29 22 53 49 70 78 89 102 89 115 0 7 16 35 35 62 19 27 35 57 35 67 0 10 13
32 29 48 29 28 30 29 71 14 24 -8 52 -15 64 -15 12 0 96 -32 186 -71 91 -39
602 -253 1135 -475 696 -290 976 -411 992 -429 12 -14 27 -25 33 -25 10 0 14
-13 11 -37 -2 -13 49 -43 72 -43 8 0 22 9 32 20 13 14 31 20 59 20 48 0 76
-17 105 -63 18 -29 19 -44 14 -157 -3 -69 -11 -140 -19 -158 -12 -29 -11 -37
7 -72 12 -22 25 -43 30 -46 9 -5 5 -73 -7 -130 -5 -29 -24 -35 -124 -40 -47
-3 -94 -6 -106 -9 -27 -6 -71 -78 -118 -194 l-38 -93 17 -44 c18 -48 10 -44
245 -126 310 -108 584 -198 604 -198 41 0 73 51 102 160 10 36 23 74 31 85 7
11 13 36 13 56 0 30 -7 43 -35 68 -20 17 -41 31 -47 31 -7 0 -9 17 -5 51 6 50
9 54 129 167 134 127 189 183 229 233 l26 33 64 -29 c37 -17 88 -31 120 -33
47 -4 62 0 97 22 50 31 83 82 100 151 11 43 10 57 -6 100 -16 45 -24 54 -77
82 -33 18 -80 39 -105 47 -58 18 -157 59 -245 100 -38 18 -259 109 -490 201
-231 93 -426 173 -432 178 -7 5 -13 18 -13 28 0 10 -12 26 -26 36 -25 16 -28
16 -56 0 -16 -9 -43 -17 -58 -17 -16 0 -172 61 -347 135 -549 234 -2035 898
-2040 912 -3 7 6 37 20 66 36 74 53 216 38 307 -6 38 -11 88 -11 112 0 24 -7
65 -15 92 -8 27 -15 63 -15 79 0 17 -11 45 -26 64 -14 19 -35 51 -47 72 -31
54 -126 128 -244 189 -160 83 -268 98 -439 63 -112 -23 -239 -81 -318 -146
l-59 -48 -106 22 c-58 12 -122 28 -142 36 -20 7 -71 21 -115 30 -45 9 -94 26
-115 41 -19 13 -41 24 -48 24 -7 0 -31 13 -54 28 -23 15 -51 32 -62 38 -11 6
-31 30 -43 53 -13 23 -96 114 -185 202 -146 145 -170 164 -247 202 -47 23
-103 54 -124 69 -21 16 -48 28 -58 28 -10 0 -32 6 -47 14 -44 23 -220 64 -296
69 -38 3 -95 2 -125 -2z m1698 -947 c2 -1 -1 -10 -7 -21 -22 -42 -94 -201
-107 -236 -7 -21 -23 -51 -34 -67 -62 -87 -120 -287 -120 -413 0 -64 -11 -51
-41 48 -11 39 -24 74 -29 78 -4 5 6 21 21 37 16 16 29 38 29 49 0 12 16 45 35
74 22 33 39 74 46 112 12 66 5 228 -12 284 -29 95 -28 90 -5 93 18 3 215 -30
224 -38z m705 -88 c95 -65 132 -108 162 -186 43 -114 38 -239 -14 -293 -11
-13 -21 -28 -21 -33 0 -5 -27 -36 -61 -69 -79 -77 -91 -106 -83 -192 5 -55 2
-81 -15 -133 -35 -107 -113 -205 -172 -217 -15 -3 -38 -16 -50 -29 -30 -33
-92 -32 -179 2 -97 38 -170 92 -200 146 -14 25 -36 65 -49 89 -20 37 -23 53
-19 118 7 118 68 211 139 211 16 0 29 3 29 8 0 4 11 20 25 36 31 36 39 66 30
109 -4 17 -9 72 -12 120 -5 101 11 148 70 205 33 32 34 32 70 17 21 -9 48 -13
62 -9 37 9 68 53 61 86 -6 31 2 38 54 49 66 14 118 4 173 -35z"/>
</g>
</svg>
