<?xml version="1.0" standalone="no"?>
<!DOCTYPE svg PUBLIC "-//W3C//DTD SVG 20010904//EN"
 "http://www.w3.org/TR/2001/REC-SVG-20010904/DTD/svg10.dtd">
<svg version="1.0" xmlns="http://www.w3.org/2000/svg"
 width="640.000000pt" height="1280.000000pt" viewBox="0 0 640.000000 1280.000000"
 preserveAspectRatio="xMidYMid meet">
<metadata>
Created by potrace 1.15, written by Peter Selinger 2001-2017
</metadata>
<g transform="translate(0.000000,1280.000000) scale(0.100000,-0.100000)"
fill="#000000" stroke="none">
<path d="M3640 12696 c-118 -56 -703 -336 -1299 -620 -904 -432 -1085 -516
-1096 -504 -8 7 -109 132 -225 278 -117 146 -215 266 -218 267 -7 2 -194 -220
-200 -237 -2 -4 106 -65 240 -135 322 -169 374 -198 360 -203 -6 -2 -134 35
-284 82 -334 104 -357 110 -361 105 -2 -2 -24 -39 -50 -81 l-46 -77 32 -5 c18
-3 162 -13 322 -21 159 -9 291 -18 293 -19 1 -2 -28 -8 -65 -15 -150 -25 -463
-88 -468 -93 -7 -7 107 -288 117 -288 4 0 134 87 290 194 156 106 286 190 289
187 3 -3 85 -384 182 -846 97 -462 294 -1393 436 -2069 l259 -1229 -85 -101
c-502 -595 -772 -1206 -777 -1753 0 -84 -2 -153 -4 -153 -1 0 -24 11 -50 24
-127 64 -311 68 -428 11 -93 -45 -122 -116 -89 -215 15 -46 22 -54 63 -72 86
-38 230 -34 405 12 39 10 73 18 74 16 1 -1 -61 -130 -137 -286 -77 -157 -138
-289 -137 -295 2 -5 10 -11 18 -13 11 -2 58 84 160 292 79 163 146 296 149
296 3 0 14 -32 24 -71 30 -116 59 -180 153 -330 180 -288 323 -564 377 -724
60 -178 19 -478 -96 -709 -68 -136 -133 -227 -335 -468 -154 -183 -217 -271
-288 -398 -73 -130 -77 -138 -82 -181 -6 -39 -16 -49 -29 -28 -13 21 -126 68
-194 80 -129 23 -215 -11 -213 -85 2 -53 49 -126 98 -151 52 -26 188 -32 265
-11 30 8 57 12 60 9 7 -7 3 -304 -5 -381 -6 -58 -5 -64 12 -60 15 3 19 16 23
86 l5 83 53 -173 c143 -462 390 -1072 599 -1480 58 -114 67 -126 84 -117 17 9
12 22 -67 180 -205 411 -400 891 -553 1365 -75 229 -103 360 -99 459 l3 73
234 -139 c213 -126 251 -144 251 -119 0 4 -102 68 -226 141 l-226 134 49 20
c102 42 208 101 226 126 23 32 24 86 3 127 -20 39 -96 66 -167 60 l-49 -5 22
36 c38 64 129 182 267 348 182 219 251 317 315 448 90 182 128 342 129 540 1
110 -1 128 -31 212 -55 161 -202 441 -385 736 -43 71 -89 154 -102 186 -23 56
-69 221 -63 226 2 2 119 -72 261 -163 204 -130 261 -162 268 -151 5 8 9 17 9
20 0 4 -111 78 -247 164 -210 135 -243 160 -224 166 170 63 329 128 383 156
112 58 170 143 154 225 -5 30 -12 36 -54 51 -66 24 -164 23 -234 -1 -108 -38
-227 -137 -301 -250 l-35 -53 -6 63 c-10 87 10 309 39 455 90 446 345 924 747
1400 38 45 67 86 64 91 -3 5 673 678 1501 1496 1009 996 1509 1483 1514 1474
3 -7 58 -158 120 -335 63 -178 118 -323 122 -323 15 0 267 155 265 162 -3 6
-234 256 -407 440 -35 38 -57 68 -50 68 8 0 133 -88 278 -195 l264 -194 36 29
c20 16 53 44 75 63 l39 33 -270 112 c-149 62 -285 117 -302 123 -18 6 -31 13
-29 15 2 2 123 -15 268 -36 146 -22 269 -40 273 -40 6 0 -1 309 -7 317 -2 2
-231 -58 -573 -150 l-92 -25 -667 1201 c-367 661 -670 1205 -673 1209 -3 4
-103 -40 -221 -96z m-1752 -7095 c17 -9 22 -21 22 -49 0 -52 -43 -101 -127
-144 -54 -29 -401 -168 -418 -168 -15 0 -7 44 18 92 59 114 184 226 300 269
57 22 165 21 205 0z m-724 -236 c82 -28 123 -61 129 -102 4 -20 2 -43 -2 -52
-18 -32 -230 -81 -359 -82 -142 -2 -182 26 -182 124 1 61 34 94 122 123 57 19
226 13 292 -11z m159 -2956 c83 -23 104 -93 43 -146 -26 -23 -236 -123 -258
-123 -15 0 36 199 60 237 10 15 71 42 97 43 11 0 37 -5 58 -11z m-438 -151
c93 -24 178 -86 173 -127 -3 -23 -10 -28 -68 -43 -154 -40 -271 -13 -316 74
-51 98 41 139 211 96z"/>
</g>
</svg>
