<?xml version="1.0" standalone="no"?>
<!DOCTYPE svg PUBLIC "-//W3C//DTD SVG 20010904//EN"
 "http://www.w3.org/TR/2001/REC-SVG-20010904/DTD/svg10.dtd">
<svg version="1.0" xmlns="http://www.w3.org/2000/svg"
 width="640.000000pt" height="1280.000000pt" viewBox="0 0 640.000000 1280.000000"
 preserveAspectRatio="xMidYMid meet">
<metadata>
Created by potrace 1.15, written by Peter Selinger 2001-2017
</metadata>
<g transform="translate(0.000000,1280.000000) scale(0.100000,-0.100000)"
fill="#000000" stroke="none">
<path d="M3060 12793 c-88 -10 -346 -56 -415 -74 -317 -83 -597 -233 -862
-462 -428 -369 -724 -922 -762 -1422 -22 -286 -32 -759 -41 -1800 -9 -1010
-15 -1204 -40 -1270 -5 -12 -28 -32 -52 -44 -72 -35 -115 -124 -104 -216 6
-50 4 -55 -24 -78 -16 -14 -82 -51 -146 -83 -96 -46 -129 -68 -183 -123 -212
-212 -217 -565 -12 -770 145 -145 326 -169 429 -57 80 87 92 211 32 332 -51
104 -142 165 -222 150 -84 -16 -122 -125 -66 -186 12 -12 49 -35 84 -50 96
-44 123 -119 54 -155 -39 -20 -86 -19 -135 4 -53 25 -88 63 -122 136 -26 56
-28 69 -28 185 0 107 3 132 21 171 64 138 210 219 392 219 158 0 298 -52 403
-148 110 -101 155 -218 147 -382 -11 -220 -130 -447 -407 -777 -317 -378 -444
-560 -576 -823 -78 -156 -119 -274 -136 -390 -16 -113 -16 -647 0 -757 23
-160 52 -243 162 -468 112 -230 238 -407 422 -593 200 -203 348 -305 690 -476
128 -64 250 -131 272 -150 l40 -34 -25 -27 c-39 -42 -143 -116 -290 -205 -182
-111 -295 -198 -418 -322 -211 -212 -343 -432 -409 -678 -19 -74 -25 -121 -26
-215 -3 -242 41 -320 232 -419 373 -192 1169 -316 2141 -333 754 -13 1463 51
1951 176 194 49 263 72 368 124 407 197 395 665 -30 1197 -199 250 -409 420
-694 563 -71 36 -143 77 -159 92 l-30 28 28 23 c38 34 180 115 396 229 540
283 823 573 1056 1085 133 291 158 408 157 730 -1 632 -113 907 -608 1485
-219 256 -323 402 -410 575 -88 176 -119 296 -113 449 3 100 6 112 41 183 85
173 251 260 492 259 112 0 194 -18 268 -58 58 -32 92 -70 123 -138 111 -243
-21 -581 -206 -526 -56 17 -100 56 -100 91 0 36 19 51 72 57 92 10 118 36 118
114 0 44 -11 72 -43 107 -24 26 -92 30 -136 7 -68 -35 -181 -201 -181 -264 1
-74 105 -201 202 -246 108 -50 220 -20 332 90 109 108 154 232 143 399 -17
267 -190 490 -427 551 -35 9 -77 23 -92 31 -28 14 -38 34 -18 34 6 0 22 11 35
25 50 50 27 129 -59 201 -51 43 -70 84 -86 184 -17 116 -29 480 -40 1190 -26
1746 -47 2036 -169 2340 -64 160 -224 426 -348 580 -79 98 -277 289 -376 364
-198 148 -437 273 -667 349 -260 86 -604 133 -810 110z m493 -202 c275 -48
493 -131 687 -259 189 -126 429 -342 566 -512 91 -112 201 -282 255 -395 78
-162 115 -331 139 -635 14 -175 29 -1258 30 -2185 0 -697 8 -952 31 -1040 14
-51 40 -79 95 -100 75 -29 59 -45 -120 -122 -226 -96 -403 -282 -426 -445 -13
-93 -27 -102 -156 -106 -58 -2 -120 -1 -138 2 -41 8 -76 40 -76 71 0 34 53 75
96 75 84 0 125 57 103 144 -21 83 -78 153 -264 326 -274 254 -341 339 -352
444 -11 108 67 336 183 534 77 132 127 200 235 323 91 104 129 162 129 196 0
36 -68 159 -128 233 -74 92 -297 312 -372 367 -30 23 -75 47 -100 53 -111 30
-282 204 -366 375 -27 55 -37 88 -41 146 -6 87 6 109 62 109 49 0 78 28 78 77
0 66 -43 139 -153 263 -116 130 -158 189 -220 308 -96 185 -167 178 -275 -29
-79 -152 -102 -187 -127 -195 -55 -17 -177 -171 -229 -289 -24 -55 -15 -80 48
-127 61 -45 93 -102 93 -164 0 -110 -88 -216 -315 -380 -188 -136 -306 -234
-454 -378 -137 -135 -237 -259 -246 -309 -4 -20 0 -47 11 -72 22 -55 107 -183
185 -280 264 -331 368 -581 325 -783 -31 -151 -117 -259 -356 -452 -171 -139
-185 -152 -205 -209 -38 -108 -1 -231 69 -231 56 0 87 -87 45 -126 -29 -27
-192 -33 -237 -10 -40 21 -75 67 -102 136 -75 192 -162 282 -402 415 -93 51
-134 87 -123 104 3 6 15 11 26 11 29 0 48 53 60 168 5 53 14 644 19 1312 11
1480 24 1875 70 2070 108 455 361 866 704 1142 315 254 655 396 1066 447 123
16 438 6 573 -18z m-1663 -5990 c15 -11 29 -35 36 -61 11 -45 29 -69 86 -112
57 -43 60 -68 65 -484 l5 -370 -149 -62 c-232 -98 -388 -202 -584 -389 -255
-245 -408 -491 -487 -781 -23 -87 -26 -116 -26 -272 -1 -198 12 -265 83 -430
97 -226 216 -377 580 -737 163 -160 292 -295 289 -299 -15 -15 -312 130 -438
214 -302 201 -555 504 -711 853 -118 262 -138 382 -120 692 32 538 119 743
521 1227 297 357 523 731 564 933 13 65 29 83 89 98 51 13 168 1 197 -20z
m2821 -11 c48 -25 85 -79 130 -193 87 -222 221 -435 459 -732 300 -374 422
-569 503 -802 68 -194 105 -441 92 -618 -43 -601 -381 -1133 -922 -1452 -112
-65 -369 -186 -385 -181 -6 2 29 35 78 73 114 88 444 418 557 556 115 142 208
282 245 371 186 447 71 973 -306 1404 -158 180 -325 304 -631 468 l-201 108 0
177 c0 235 16 503 35 593 28 136 86 224 163 249 41 13 137 2 183 -21z"/>
</g>
</svg>
