<?xml version="1.0" standalone="no"?>
<!DOCTYPE svg PUBLIC "-//W3C//DTD SVG 20010904//EN"
 "http://www.w3.org/TR/2001/REC-SVG-20010904/DTD/svg10.dtd">
<svg version="1.0" xmlns="http://www.w3.org/2000/svg"
 width="640.000000pt" height="1280.000000pt" viewBox="0 0 640.000000 1280.000000"
 preserveAspectRatio="xMidYMid meet">
<metadata>
Created by potrace 1.15, written by Peter Selinger 2001-2017
</metadata>
<g transform="translate(0.000000,1280.000000) scale(0.100000,-0.100000)"
fill="#000000" stroke="none">
<path d="M3123 12786 c-51 -17 -106 -50 -155 -94 -32 -29 -38 -41 -38 -76 0
-60 23 -88 65 -80 50 9 75 -2 75 -35 0 -64 -88 -103 -265 -116 -110 -9 -129
-17 -120 -53 4 -15 14 -35 23 -45 15 -17 10 -31 -83 -220 -55 -111 -108 -215
-118 -230 -18 -26 -183 -117 -214 -117 -23 0 -14 -13 61 -90 l74 -75 62 -240
c34 -132 75 -287 90 -345 15 -58 51 -195 79 -305 28 -110 55 -209 60 -221 5
-11 42 -42 82 -68 69 -45 79 -57 148 -167 41 -66 80 -124 88 -130 9 -8 11 -23
7 -44 -3 -20 5 -83 20 -156 48 -237 49 -278 60 -4924 2 -901 0 -1046 -13
-1086 -14 -44 -14 -48 7 -80 58 -91 58 -92 34 -174 -26 -89 -27 -106 -6 -147
23 -45 14 -108 -30 -207 -54 -119 -56 -148 -16 -231 45 -93 40 -105 -66 -177
-101 -68 -123 -97 -103 -135 8 -14 27 -49 42 -78 110 -204 129 -737 48 -1318
-39 -275 -73 -408 -154 -607 -45 -109 -51 -166 -24 -209 9 -14 48 -50 87 -81
38 -31 70 -62 70 -69 0 -7 -12 -23 -26 -37 -36 -33 -70 -88 -82 -132 -9 -30
-7 -40 8 -60 57 -73 226 -115 476 -119 155 -3 179 -1 281 24 134 32 176 51
192 84 17 38 14 54 -28 140 -34 72 -70 115 -103 126 -22 8 12 47 78 89 62 41
94 79 94 114 0 8 -36 125 -79 259 -44 134 -91 297 -106 362 -49 218 -75 539
-75 932 0 262 9 336 56 461 49 128 54 149 43 181 -6 16 -14 30 -18 30 -13 0
-146 120 -155 141 -7 15 -1 32 29 74 52 76 51 111 -8 224 -56 107 -63 143 -47
235 11 63 10 81 -4 129 -20 69 -20 112 -1 167 8 23 15 44 15 46 0 2 -7 4 -15
4 -18 0 -19 12 -3 28 9 9 8 27 -2 79 -10 53 -14 271 -16 965 -1 494 -6 903 -9
909 -4 6 -9 218 -11 472 -4 626 -19 1128 -43 1452 -39 518 -44 664 -37 1105 8
521 23 960 37 1060 6 41 13 97 16 123 4 38 11 50 27 57 31 11 43 29 56 82 12
47 21 57 176 204 l42 39 40 205 c89 448 162 796 172 818 11 24 31 35 98 52 23
6 42 14 42 18 0 4 -54 61 -120 127 l-119 120 -83 175 c-46 96 -101 206 -122
244 -21 38 -42 83 -46 100 -4 17 -10 38 -14 46 -4 10 4 21 23 32 41 22 55 52
36 71 -22 23 -105 37 -213 37 -108 0 -142 13 -142 54 0 34 23 48 77 50 l48 1
3 71 3 71 -48 31 c-99 63 -192 84 -270 58z m47 -4560 c0 -8 -5 -18 -11 -22
-14 -8 -33 11 -25 25 10 16 36 13 36 -3z m-12 -5141 c-3 -3 -9 2 -12 12 -6 14
-5 15 5 6 7 -7 10 -15 7 -18z m425 -212 c-7 -2 -21 -2 -30 0 -10 3 -4 5 12 5
17 0 24 -2 18 -5z"/>
</g>
</svg>
