<?xml version="1.0" standalone="no"?>
<!DOCTYPE svg PUBLIC "-//W3C//DTD SVG 20010904//EN"
 "http://www.w3.org/TR/2001/REC-SVG-20010904/DTD/svg10.dtd">
<svg version="1.0" xmlns="http://www.w3.org/2000/svg"
 width="1280.000000pt" height="784.000000pt" viewBox="0 0 1280.000000 784.000000"
 preserveAspectRatio="xMidYMid meet">
<metadata>
Created by potrace 1.15, written by Peter Selinger 2001-2017
</metadata>
<g transform="translate(0.000000,784.000000) scale(0.100000,-0.100000)"
fill="#000000" stroke="none">
<path d="M5640 7822 c-31 -10 -87 -40 -124 -65 -38 -26 -77 -47 -87 -47 -10 0
-29 14 -41 31 -46 62 -125 78 -175 35 -21 -19 -28 -35 -33 -77 -4 -47 -8 -54
-28 -57 -13 -2 -75 21 -143 53 -140 67 -204 78 -309 51 -87 -22 -298 -126
-334 -164 -43 -46 -45 -122 -10 -304 9 -45 -9 -32 -41 30 -74 142 -175 192
-175 86 0 -32 -36 -47 -82 -33 -116 33 -193 2 -558 -227 -185 -116 -273 -183
-308 -234 -35 -52 -26 -98 52 -253 75 -151 95 -213 80 -254 -5 -15 -17 -29
-26 -31 -25 -5 -86 65 -148 168 -30 51 -77 115 -103 142 -54 54 -132 98 -175
98 -33 0 -62 -27 -62 -58 0 -31 -35 -62 -69 -62 -44 0 -92 -39 -131 -108 -45
-80 -104 -120 -227 -152 -160 -41 -305 -121 -411 -227 -52 -52 -102 -139 -102
-179 0 -33 -36 -71 -83 -88 -23 -9 -107 -23 -187 -31 -173 -18 -288 -45 -390
-92 -91 -41 -126 -73 -135 -121 -19 -106 -192 -272 -395 -380 -89 -48 -166
-72 -230 -72 -114 0 -198 -60 -302 -218 -136 -204 -168 -299 -130 -384 43 -98
90 -95 408 17 172 61 293 89 343 80 19 -4 50 -17 70 -31 20 -13 44 -24 54 -24
27 0 77 28 126 72 51 44 84 56 107 37 9 -7 34 -40 56 -72 69 -102 129 -114
463 -94 l210 12 5 182 c5 164 7 184 26 210 12 15 30 29 40 31 33 4 83 -35 132
-104 123 -174 168 -228 211 -255 76 -49 113 -35 161 62 36 70 51 74 111 23 61
-51 91 -64 147 -64 86 0 163 74 204 198 20 61 22 84 20 260 -1 112 2 192 8
192 14 0 57 -61 84 -120 16 -35 29 -89 35 -145 18 -151 73 -222 191 -247 78
-16 201 11 243 54 l30 29 -7 122 c-22 418 -21 442 10 416 24 -20 51 -79 99
-215 24 -69 54 -143 67 -165 50 -90 120 -99 335 -43 254 65 306 64 547 -12
179 -57 232 -60 284 -15 97 82 101 85 126 73 13 -6 52 -47 86 -91 96 -125 155
-150 211 -90 48 51 75 157 115 444 10 76 20 27 28 -146 14 -295 65 -464 174
-573 61 -61 113 -85 211 -96 112 -13 188 -51 294 -148 96 -87 159 -123 228
-130 69 -7 116 12 138 57 24 46 38 174 46 406 12 370 40 643 69 673 19 20 45
4 56 -36 5 -21 14 -185 20 -367 16 -564 20 -603 66 -646 36 -34 119 -38 178
-9 118 57 221 245 282 515 9 44 21 84 26 89 4 6 8 -36 8 -92 0 -55 5 -123 11
-151 15 -73 61 -138 112 -161 97 -45 163 -13 196 94 24 78 29 123 41 380 6
115 17 257 25 315 18 128 46 251 57 251 12 0 10 -95 -9 -502 -9 -202 -14 -370
-11 -373 9 -9 358 53 425 75 37 13 80 38 108 62 76 67 100 128 174 453 42 182
77 289 92 280 12 -8 11 -350 -2 -574 -6 -101 -9 -184 -7 -186 2 -2 82 7 178
20 255 34 372 77 482 174 53 47 98 129 98 178 0 64 65 167 184 291 124 129
125 118 12 -118 -134 -278 -158 -375 -114 -459 30 -58 77 -95 162 -125 114
-42 218 -59 330 -54 119 4 179 27 265 101 30 26 60 47 67 47 16 0 24 -33 24
-101 0 -93 14 -103 157 -110 96 -5 129 -11 181 -33 34 -14 90 -38 125 -53 92
-39 184 -37 269 5 66 32 167 115 234 191 51 58 151 141 170 141 35 0 7 -73
-44 -114 -53 -42 -69 -135 -28 -161 41 -27 186 -37 441 -30 254 8 406 -2 473
-31 20 -8 54 -32 74 -54 66 -68 226 -107 402 -97 118 6 179 23 218 59 30 28
31 31 25 89 -12 107 -105 275 -212 382 -25 25 -94 79 -153 120 -59 41 -159
116 -222 166 -120 95 -228 158 -317 184 -28 9 -62 21 -75 27 -42 22 -107 93
-119 129 -21 64 -54 98 -114 115 -63 19 -92 51 -125 139 -31 81 -49 91 -152
81 -92 -10 -138 -8 -152 6 -5 5 -13 34 -17 63 -17 129 -100 214 -223 231 -64
8 -101 32 -166 107 -70 80 -193 161 -449 294 -204 105 -322 177 -435 263 -79
61 -139 79 -208 64 -109 -26 -138 -13 -138 63 0 72 -44 122 -163 181 -90 46
-292 114 -338 114 -85 0 -215 -132 -287 -291 -28 -63 -61 -99 -89 -99 -30 0
-9 65 77 235 52 102 94 198 97 221 5 36 2 43 -27 68 -44 36 -106 67 -214 105
-184 65 -325 83 -365 46 -31 -27 -49 -13 -88 67 -52 108 -122 146 -208 114
-60 -23 -106 -80 -145 -177 -56 -138 -103 -184 -145 -142 -25 25 -11 69 39
123 34 37 46 59 56 103 23 111 -10 165 -92 152 -149 -22 -243 -56 -295 -107
l-32 -31 -88 8 c-175 14 -179 12 -250 -130 -76 -151 -220 -345 -256 -345 -10
0 -16 16 -20 46 -6 60 -39 94 -98 101 -86 11 -137 50 -169 132 -22 54 -68 101
-99 101 -61 0 -95 -58 -106 -184 -4 -37 -11 -64 -15 -60 -5 5 -23 59 -40 119
-39 133 -68 191 -138 267 -103 111 -250 153 -382 110z m-296 -525 c10 -28 -8
-107 -24 -107 -14 0 -23 65 -16 106 8 40 26 41 40 1z m-2604 -1654 c33 -19 74
-87 66 -108 -11 -30 -52 -16 -100 35 -53 56 -60 90 -20 90 14 0 39 -7 54 -17z
m3239 -453 c1 -71 -6 -110 -20 -110 -11 0 -12 193 -2 204 13 12 22 -26 22 -94z"/>
<path d="M360 4231 c-66 -21 -177 -117 -200 -172 -11 -25 -9 -34 13 -72 72
-122 439 -425 647 -533 73 -38 135 -93 265 -236 54 -58 90 -74 142 -59 17 5
37 5 46 0 20 -12 37 -69 37 -129 1 -91 48 -157 197 -277 117 -94 217 -207 335
-381 204 -299 272 -360 403 -362 125 -1 157 -31 214 -202 54 -165 113 -242
196 -255 30 -5 39 -1 69 29 19 19 39 53 46 76 6 24 15 40 19 38 4 -3 11 -37
15 -75 20 -216 191 -440 356 -466 71 -11 160 -76 334 -245 291 -282 427 -367
628 -389 98 -11 159 -40 261 -126 121 -101 227 -147 339 -147 125 0 152 57
169 367 9 175 15 222 30 230 23 15 33 -50 39 -265 8 -243 16 -285 75 -369 73
-107 190 -125 284 -45 52 45 87 104 147 248 33 80 50 111 51 95 2 -13 7 -87
11 -164 9 -148 28 -213 74 -263 67 -71 313 -67 431 8 58 37 87 98 137 289 l37
146 8 -140 c15 -275 51 -312 322 -322 216 -9 314 17 397 101 24 25 49 46 56
46 6 0 26 -33 45 -74 21 -46 45 -81 63 -95 85 -60 343 -54 455 12 127 75 173
237 184 651 7 251 16 279 27 86 26 -423 64 -617 125 -650 65 -34 144 11 344
196 102 94 154 127 178 113 9 -4 22 -29 29 -54 41 -145 153 -139 292 15 86 95
140 207 214 442 28 92 44 105 44 36 0 -68 21 -166 39 -182 15 -14 21 -12 61
20 92 72 366 333 472 449 173 190 198 260 198 554 0 68 2 122 5 119 3 -2 19
-72 35 -154 30 -149 65 -269 79 -279 23 -13 132 79 451 381 246 232 353 327
465 409 115 85 162 147 220 292 23 56 64 93 116 104 91 20 325 169 468 297 82
73 108 129 118 250 3 43 10 88 15 101 l9 25 20 -35 c43 -71 84 -76 184 -24 74
38 150 96 305 229 275 238 380 377 380 504 0 173 -143 186 -515 47 -123 -46
-305 -136 -355 -175 -23 -18 -40 -41 -43 -60 -9 -41 -29 -39 -139 10 -201 91
-424 104 -577 34 -66 -30 -119 -31 -154 -4 -62 49 -117 65 -227 65 -117 0
-160 -11 -216 -56 -50 -40 -96 -38 -193 6 -128 57 -265 68 -383 29 -63 -21
-88 -53 -88 -115 0 -63 -7 -79 -37 -79 -36 0 -61 16 -123 76 -97 94 -195 117
-396 95 -226 -24 -297 -84 -265 -225 6 -28 34 -100 61 -160 28 -60 48 -111 46
-113 -8 -9 -98 113 -123 167 -14 30 -29 62 -33 70 -5 11 -23 15 -63 15 -60 0
-95 -22 -120 -75 -19 -39 -42 -35 -107 19 -104 86 -140 79 -185 -39 -39 -101
-67 -113 -216 -88 -103 16 -161 1 -234 -62 -32 -29 -66 -50 -79 -50 -12 0 -49
20 -80 45 -32 25 -81 52 -109 60 -144 43 -354 -15 -410 -113 -20 -33 -19 -35
2 -210 25 -211 36 -339 28 -332 -3 3 -27 78 -52 165 -48 172 -95 277 -135 307
-14 10 -52 23 -85 28 -62 10 -355 14 -355 5 0 -3 20 -166 45 -362 25 -195 45
-367 45 -380 0 -57 -49 -120 -84 -107 -29 11 -38 70 -47 303 -11 317 -29 433
-85 542 -31 61 -66 89 -115 89 -21 0 -96 -14 -166 -32 l-128 -31 -86 -89 -87
-88 -4 94 c-3 83 -7 99 -28 121 -31 33 -77 45 -171 45 -218 0 -367 -135 -479
-435 -40 -107 -86 -185 -108 -185 -76 0 -49 154 64 366 74 139 114 244 114
296 0 37 -6 49 -32 76 -71 68 -191 98 -443 113 -210 12 -279 27 -321 73 -40
44 -110 61 -210 52 -129 -12 -218 -46 -299 -116 -25 -22 -52 -40 -59 -40 -9 0
-15 18 -18 50 -3 28 -13 59 -22 69 -53 58 -285 52 -511 -14 -117 -34 -183 -70
-216 -119 -31 -46 -47 -54 -107 -55 -73 -2 -66 20 41 122 107 103 124 135 88
170 -19 19 -32 22 -109 21 -67 -1 -129 -12 -272 -48 -243 -60 -393 -85 -570
-95 -223 -12 -241 -24 -416 -275 -57 -82 -104 -145 -104 -139 0 6 12 85 26
175 31 199 29 256 -12 299 -52 55 -282 159 -352 159 -16 0 -46 -11 -66 -25
-62 -42 -96 -34 -182 44 -61 56 -147 99 -211 107 -86 10 -112 23 -131 61 -20
42 -23 44 -122 71 -42 12 -119 41 -172 66 -104 48 -149 59 -188 47z m7607
-1144 c17 -19 55 -83 85 -143 93 -183 143 -348 118 -394 l-12 -22 -25 24 c-52
48 -184 353 -212 490 -18 85 -3 100 46 45z m-3919 -1519 c28 -47 -14 -118 -55
-92 -22 13 -30 93 -13 124 10 19 14 20 31 8 11 -7 28 -25 37 -40z m3009 -400
c24 -71 36 -284 30 -526 -6 -240 -11 -286 -31 -279 -20 6 -55 90 -67 162 -6
39 -11 160 -12 270 0 326 37 500 80 373z"/>
</g>
</svg>
