<?xml version="1.0" standalone="no"?>
<!DOCTYPE svg PUBLIC "-//W3C//DTD SVG 20010904//EN"
 "http://www.w3.org/TR/2001/REC-SVG-20010904/DTD/svg10.dtd">
<svg version="1.0" xmlns="http://www.w3.org/2000/svg"
 width="1280.000000pt" height="721.000000pt" viewBox="0 0 1280.000000 721.000000"
 preserveAspectRatio="xMidYMid meet">
<metadata>
Created by potrace 1.15, written by Peter Selinger 2001-2017
</metadata>
<g transform="translate(0.000000,721.000000) scale(0.100000,-0.100000)"
fill="#000000" stroke="none">
<path d="M9755 6340 c-260 -29 -936 -93 -1465 -140 -433 -39 -468 -44 -493
-69 -17 -16 -20 -34 -21 -114 -1 -53 -4 -99 -8 -103 -4 -3 -42 -10 -85 -14
-128 -14 -449 -49 -588 -66 -395 -47 -641 -126 -867 -278 l-87 -58 -29 18
c-17 11 -58 39 -93 64 -131 91 -313 137 -499 126 -111 -7 -306 -52 -460 -104
-84 -29 -476 -177 -599 -226 -122 -49 -120 -50 -216 44 -56 56 -91 82 -107 82
-30 0 -174 -54 -423 -159 -110 -47 -321 -133 -470 -193 -914 -367 -993 -403
-1030 -458 -34 -51 -70 -200 -100 -409 -36 -250 -34 -405 11 -898 15 -168 133
-711 174 -802 19 -41 37 -66 52 -72 13 -5 63 -28 113 -51 49 -23 110 -44 135
-47 56 -6 98 5 525 138 571 179 725 226 1035 319 459 138 552 169 579 196 24
23 24 24 12 86 -22 106 -24 133 -9 146 16 13 374 127 430 137 33 6 38 5 43
-17 4 -13 5 -46 3 -73 l-3 -49 -100 -51 c-65 -33 -104 -59 -112 -75 -15 -30
-16 -137 -3 -310 5 -69 16 -213 24 -320 8 -107 20 -294 26 -415 6 -121 15
-290 21 -375 5 -85 14 -225 20 -310 17 -272 29 -331 82 -381 71 -69 456 -275
572 -307 39 -11 102 -31 141 -45 118 -42 507 -138 634 -156 41 -6 107 -15 145
-21 39 -5 142 -17 230 -26 88 -9 163 -18 168 -21 4 -2 44 -1 90 3 l82 7 88 91
c96 100 112 123 126 187 13 60 29 477 42 1069 5 272 14 623 18 780 10 333 8
348 -54 366 -22 7 -59 13 -82 13 -23 1 -54 6 -69 11 l-27 11 7 355 c4 195 9
361 12 368 3 8 12 17 20 20 23 9 365 66 395 66 31 0 54 -24 111 -118 58 -94
67 -98 190 -77 56 9 203 37 327 61 124 25 305 58 401 75 96 16 182 32 190 34
8 2 200 38 425 79 545 100 557 104 613 171 61 75 198 433 237 620 13 60 28
130 34 155 5 25 19 119 30 210 12 91 26 198 31 238 16 114 12 755 -4 822 -19
75 -25 89 -47 100 -10 6 -48 33 -84 61 -101 77 -133 89 -245 87 -52 0 -126 -4
-165 -8z m-2007 -905 c11 -11 8 -103 -27 -987 -4 -103 -11 -182 -17 -188 -16
-16 -384 -82 -416 -75 -24 6 -30 15 -43 63 -69 258 -154 420 -291 554 -118
116 -266 204 -441 263 -46 16 -83 32 -83 37 0 21 96 99 167 136 152 78 338
121 743 171 135 17 263 32 285 34 49 6 114 1 123 -8z m-2071 -180 c27 -8 65
-25 84 -38 36 -24 74 -86 60 -100 -4 -4 -49 -23 -99 -42 -149 -55 -254 -133
-337 -250 -123 -173 -171 -357 -182 -690 -4 -126 -9 -187 -19 -202 -10 -16
-68 -40 -242 -97 -126 -42 -243 -76 -260 -76 -26 0 -32 5 -41 33 -6 17 -47
248 -91 512 -45 264 -86 508 -92 543 -10 58 -10 65 9 83 52 52 700 275 968
332 49 11 195 6 242 -8z m152 -818 c9 -94 9 -142 2 -155 -16 -31 -120 -121
-162 -141 l-39 -19 0 58 c0 77 25 216 51 287 15 39 38 73 73 107 50 49 50 49
57 24 4 -14 12 -87 18 -161z m701 105 c115 -66 236 -243 248 -363 l5 -52 -119
5 c-137 6 -212 29 -268 82 -33 31 -34 34 -25 72 6 21 22 96 36 166 l26 128 26
-6 c14 -4 46 -18 71 -32z m-125 -813 c58 -15 125 -23 247 -28 91 -3 170 -10
175 -14 9 -10 8 -514 -2 -564 -5 -27 -10 -33 -32 -33 -14 0 -220 31 -457 70
-237 38 -478 76 -536 85 -140 20 -156 27 -164 73 -12 73 -7 269 7 280 7 6 65
38 129 70 63 32 146 80 184 107 38 27 84 59 102 71 l33 23 117 -59 c64 -33
153 -69 197 -81z"/>
</g>
</svg>
