<?xml version="1.0" standalone="no"?>
<!DOCTYPE svg PUBLIC "-//W3C//DTD SVG 20010904//EN"
 "http://www.w3.org/TR/2001/REC-SVG-20010904/DTD/svg10.dtd">
<svg version="1.0" xmlns="http://www.w3.org/2000/svg"
 width="1280.000000pt" height="853.000000pt" viewBox="0 0 1280.000000 853.000000"
 preserveAspectRatio="xMidYMid meet">
<metadata>
Created by potrace 1.15, written by Peter Selinger 2001-2017
</metadata>
<g transform="translate(0.000000,853.000000) scale(0.100000,-0.100000)"
fill="#000000" stroke="none">
<path d="M6484 7525 c-89 -19 -160 -59 -237 -133 -129 -125 -207 -274 -386
-737 -271 -699 -448 -957 -787 -1145 -118 -66 -233 -111 -369 -146 -104 -27
-121 -29 -320 -29 -179 0 -227 3 -323 23 -239 48 -477 131 -857 297 -657 287
-913 390 -1086 437 -118 32 -293 32 -360 2 -102 -47 -164 -131 -195 -261 -13
-54 -15 -98 -10 -213 3 -80 9 -161 12 -180 5 -34 2 -32 -93 65 -104 105 -218
251 -292 373 -24 39 -45 72 -47 72 -10 0 -68 -212 -89 -327 -122 -657 39
-1487 454 -2350 61 -126 91 -200 91 -223 0 -58 29 -218 61 -339 156 -590 581
-1076 1203 -1377 225 -108 458 -184 676 -218 229 -37 669 -44 926 -16 365 41
689 154 934 328 121 85 286 250 372 372 77 108 190 323 239 454 30 80 39 93
84 127 28 21 77 51 110 66 54 25 71 28 165 28 98 0 110 -3 171 -33 37 -17 89
-52 117 -77 45 -40 53 -55 86 -152 102 -296 288 -581 494 -759 287 -246 651
-388 1132 -440 213 -23 670 -23 825 0 464 69 939 286 1290 588 345 297 574
683 659 1110 14 68 28 152 31 188 6 53 32 123 145 385 151 351 246 593 308
785 193 595 227 1095 109 1590 l-22 92 -62 -93 c-34 -52 -90 -130 -126 -174
-63 -78 -280 -295 -295 -295 -4 0 -17 41 -29 91 -118 489 -562 626 -1358 419
-319 -83 -621 -191 -1350 -483 -629 -253 -858 -330 -1058 -358 -100 -14 -207
-5 -238 20 l-21 17 20 41 c23 44 66 94 236 273 205 217 339 399 422 575 192
405 100 804 -271 1179 -220 222 -531 439 -750 522 -72 27 -197 54 -250 53 -16
0 -57 -7 -91 -14z m280 -79 c230 -78 553 -300 786 -542 349 -363 425 -712 241
-1100 -82 -171 -201 -333 -410 -554 -225 -238 -261 -287 -261 -350 0 -77 55
-103 215 -102 223 0 401 57 1285 410 261 104 563 221 670 260 576 207 997 294
1283 263 323 -35 502 -187 569 -484 25 -111 29 -103 -75 -175 -371 -256 -834
-419 -1517 -536 -164 -29 -241 -37 -385 -40 -99 -3 -225 -10 -280 -16 -684
-74 -1285 -343 -1710 -765 -136 -135 -228 -202 -370 -271 -150 -73 -257 -98
-410 -98 -144 1 -244 24 -381 88 -153 72 -235 136 -419 321 -93 94 -208 201
-255 237 -464 357 -1082 579 -1679 604 -266 11 -827 141 -1188 274 -269 100
-584 272 -774 423 l-57 45 -17 115 c-12 82 -16 154 -13 249 3 119 7 139 31
193 53 113 115 156 241 163 43 3 111 -1 150 -8 146 -26 470 -150 988 -378 608
-269 869 -356 1172 -393 145 -17 374 -6 507 25 193 45 411 144 560 256 94 70
224 210 298 321 94 140 225 418 351 744 128 329 194 475 268 591 86 133 198
226 309 254 62 15 193 4 277 -24z m-2994 -4161 c327 -26 689 -177 907 -379 73
-68 143 -161 143 -191 0 -25 -125 -143 -192 -183 -424 -251 -1049 -200 -1487
123 -129 95 -233 210 -286 315 l-28 54 55 51 c124 116 343 194 598 215 93 7
139 7 290 -5z m5600 -124 c186 -37 331 -98 443 -186 82 -65 88 -83 52 -153
-39 -76 -187 -222 -295 -294 -345 -227 -788 -304 -1172 -202 -245 65 -517 258
-493 351 9 39 166 191 260 253 201 131 444 215 725 249 113 15 369 5 480 -18z"/>
</g>
</svg>
