<?xml version="1.0" standalone="no"?>
<!DOCTYPE svg PUBLIC "-//W3C//DTD SVG 20010904//EN"
 "http://www.w3.org/TR/2001/REC-SVG-20010904/DTD/svg10.dtd">
<svg version="1.0" xmlns="http://www.w3.org/2000/svg"
 width="1037.000000pt" height="1280.000000pt" viewBox="0 0 1037.000000 1280.000000"
 preserveAspectRatio="xMidYMid meet">
<metadata>
Created by potrace 1.15, written by Peter Selinger 2001-2017
</metadata>
<g transform="translate(0.000000,1280.000000) scale(0.100000,-0.100000)"
fill="#000000" stroke="none">
<path d="M5431 12665 c-21 -26 -23 -26 -47 -10 -23 15 -27 15 -43 1 -20 -18
-57 -21 -66 -6 -3 6 -17 10 -30 10 -20 0 -24 -6 -27 -37 -3 -36 -5 -38 -40
-41 -28 -2 -38 -8 -38 -20 0 -27 -29 -62 -51 -62 -14 0 -19 7 -19 25 0 14 -7
28 -15 32 -9 3 -22 18 -31 34 -16 33 -32 36 -73 14 -32 -16 -51 -59 -51 -115
0 -26 -7 -42 -24 -57 -21 -18 -23 -27 -19 -69 3 -27 12 -61 20 -77 10 -19 11
-33 3 -46 -5 -11 -8 -46 -5 -79 l5 -60 -42 -25 c-101 -59 -228 -170 -228 -198
0 -19 -13 -27 -75 -45 -19 -6 -31 -18 -35 -34 -4 -15 -15 -26 -30 -30 -18 -4
-26 -14 -30 -35 -5 -28 -8 -30 -53 -30 -35 0 -52 -5 -61 -17 -17 -24 -92 -24
-118 -2 -14 14 -20 14 -33 4 -8 -7 -15 -19 -15 -26 0 -8 -11 -19 -24 -24 -13
-5 -30 -21 -38 -35 l-13 -26 -165 -3 c-225 -4 -296 -25 -508 -148 -97 -56
-125 -81 -299 -255 -106 -106 -198 -193 -205 -193 -7 1 -24 7 -38 15 -14 8
-35 14 -47 15 -25 0 -53 -34 -53 -67 0 -12 -11 -34 -24 -48 -30 -32 -42 -107
-27 -161 18 -64 17 -65 -41 -58 -42 5 -58 13 -79 37 -35 41 -64 32 -56 -18 4
-23 1 -38 -9 -46 -8 -6 -14 -26 -14 -44 0 -18 -7 -39 -16 -46 -15 -12 -16 -43
-3 -99 7 -29 -180 -12 -266 25 -16 7 -42 17 -58 24 -19 7 -29 20 -34 41 -7 35
-16 44 -41 36 -27 -9 -52 -59 -52 -104 0 -27 -9 -51 -28 -78 -27 -37 -32 -40
-75 -39 -37 1 -51 7 -72 29 -31 34 -47 30 -60 -15 -5 -19 -14 -40 -18 -46 -12
-20 -52 -15 -72 7 -10 11 -27 20 -37 20 -10 0 -20 6 -22 13 -2 6 -10 34 -16
60 -12 46 -14 48 -41 42 -25 -6 -31 -2 -49 28 -12 20 -42 53 -68 74 -64 52
-95 88 -108 126 -13 38 -50 49 -71 21 -15 -20 -18 -95 -5 -110 17 -18 50 -150
48 -189 -2 -53 -12 -66 -42 -59 -34 9 -38 -11 -16 -76 18 -50 22 -165 8 -188
-2 -4 -24 -6 -49 -4 -44 4 -45 4 -51 45 -3 23 -4 64 -1 92 4 53 -6 75 -36 75
-27 0 -26 64 1 87 20 17 28 63 11 63 -5 0 -30 -12 -56 -27 -38 -21 -53 -37
-72 -79 -26 -57 -46 -79 -63 -69 -15 9 -12 31 12 98 l22 59 -24 18 c-23 18
-23 18 -7 62 9 24 17 53 17 65 0 13 8 24 20 28 29 9 39 34 38 95 0 117 -30
128 -111 41 -60 -65 -92 -117 -127 -207 -12 -32 -31 -75 -41 -95 -11 -20 -19
-44 -19 -53 0 -21 -18 -20 -71 4 -24 10 -48 15 -52 11 -5 -5 -3 -27 3 -50 6
-25 8 -66 4 -101 -5 -48 -3 -65 11 -86 9 -14 13 -30 8 -34 -9 -9 -156 -50
-179 -50 -9 0 -29 11 -46 25 -48 40 -108 25 -108 -27 0 -11 -31 -64 -69 -117
-160 -223 -202 -369 -205 -706 -1 -156 3 -216 23 -335 38 -236 122 -503 270
-863 45 -107 96 -239 115 -293 19 -55 88 -241 154 -414 136 -356 141 -373 188
-635 69 -379 68 -376 68 -800 0 -410 -5 -477 -55 -726 -22 -112 -82 -314 -110
-373 -33 -70 -120 -169 -169 -193 -25 -12 -51 -27 -57 -33 -35 -30 4 -118 74
-169 24 -17 43 -35 43 -39 0 -5 -11 -19 -25 -32 -14 -13 -25 -33 -25 -45 0
-12 -9 -30 -20 -40 -30 -27 -25 -53 15 -72 30 -14 35 -21 35 -52 0 -29 -7 -41
-36 -64 -39 -32 -43 -63 -9 -81 63 -34 85 -53 85 -73 0 -12 -5 -25 -10 -28 -6
-3 -10 -15 -10 -27 0 -11 -11 -34 -25 -50 -37 -44 -29 -61 29 -70 26 -4 51 -9
54 -13 11 -11 2 -79 -18 -133 -42 -111 -54 -222 -52 -464 2 -213 3 -229 22
-248 27 -27 26 -60 0 -60 -11 0 -28 -4 -38 -9 -9 -5 -39 -15 -65 -22 -26 -6
-59 -20 -72 -31 -24 -19 -52 -84 -41 -96 4 -3 28 -9 53 -12 46 -5 47 -6 58
-50 13 -49 10 -70 -8 -70 -33 -1 -39 -17 -19 -54 31 -57 15 -95 -51 -121 -27
-11 -55 -27 -60 -36 -16 -25 1 -68 40 -104 32 -29 35 -36 29 -69 -7 -35 -6
-36 39 -58 60 -29 58 -53 -9 -88 -64 -34 -99 -75 -93 -108 3 -14 -4 -50 -14
-80 -32 -92 -30 -96 46 -87 l64 6 16 -37 c14 -34 14 -44 1 -98 -14 -53 -14
-66 0 -127 14 -60 21 -74 61 -108 59 -52 124 -78 158 -63 21 10 59 60 111 148
9 16 23 19 80 18 83 -1 121 -16 198 -80 49 -41 66 -63 98 -132 32 -71 38 -94
38 -150 0 -119 -34 -209 -97 -261 -46 -38 -56 -38 -107 -4 -31 22 -50 28 -91
28 -177 -2 -266 -228 -142 -362 23 -25 57 -53 75 -62 l35 -18 3 -129 c3 -99 0
-140 -12 -178 -31 -91 -6 -106 178 -106 88 0 100 2 124 24 27 23 28 25 16 75
-16 70 -15 130 3 181 17 49 20 96 5 105 -21 13 -9 36 32 61 68 43 137 113 210
216 37 53 75 99 83 102 10 3 20 -5 30 -23 20 -40 69 -79 115 -91 39 -10 109 0
152 22 28 14 50 67 58 140 10 90 46 162 117 231 95 93 200 152 311 176 85 18
100 15 104 -16 4 -37 47 -58 119 -58 40 0 63 5 76 17 11 10 25 18 32 18 13 0
12 -15 -4 -81 -8 -31 19 -64 44 -54 9 4 28 9 42 12 22 4 27 1 33 -21 8 -31 46
-49 83 -39 15 3 53 30 85 60 32 29 65 53 74 53 9 0 62 -28 118 -62 159 -96
270 -143 499 -208 270 -78 405 -98 582 -89 163 9 267 40 341 102 23 19 45 25
107 30 54 5 84 3 97 -5 15 -10 27 -10 51 -1 27 10 35 9 59 -9 26 -19 70 -19
70 1 0 15 41 50 53 45 7 -2 21 -18 31 -35 15 -26 22 -29 46 -24 23 5 32 2 45
-19 10 -14 23 -26 30 -26 6 0 40 18 74 40 34 22 66 40 70 40 5 0 18 16 30 35
11 19 27 35 35 35 8 0 29 -20 46 -45 33 -47 50 -55 70 -30 16 19 32 19 69 -2
29 -17 30 -17 55 6 17 16 31 21 45 16 16 -5 23 -1 31 19 8 21 16 26 46 26 29
0 46 -9 89 -48 97 -89 207 -125 416 -137 129 -8 325 7 404 30 244 72 325 105
455 185 299 185 275 173 307 157 15 -9 43 -27 62 -41 32 -24 43 -26 137 -26
114 0 157 11 152 37 -4 28 11 43 44 43 17 0 66 10 109 22 75 20 79 22 79 50 0
16 6 31 15 34 20 8 150 -23 194 -46 53 -28 143 -102 184 -151 48 -59 103 -172
116 -239 16 -76 39 -111 97 -139 57 -29 129 -31 186 -7 l37 16 33 -37 c93
-106 168 -179 216 -210 54 -35 58 -42 43 -71 -6 -11 -4 -31 4 -55 26 -76 27
-121 4 -187 -17 -49 -19 -67 -10 -86 16 -35 46 -43 179 -46 164 -4 167 -1 131
148 -11 44 -10 58 9 118 15 50 18 75 11 93 -14 36 -13 37 41 72 137 89 146
260 20 341 -61 39 -113 47 -164 26 -59 -24 -81 -20 -114 20 -72 87 -93 235
-52 366 39 128 102 183 243 213 l84 18 60 -60 c64 -64 109 -89 147 -79 40 10
83 54 113 114 29 59 28 51 20 237 l-2 40 57 -3 c94 -6 117 23 84 102 -8 18
-12 44 -9 57 5 26 -26 68 -63 87 -29 15 -38 66 -19 102 8 16 15 49 15 73 0 23
4 47 9 53 5 5 15 37 22 71 14 67 5 93 -32 93 -10 0 -25 13 -34 29 -8 16 -20
31 -27 33 -11 4 -11 12 -1 40 18 47 16 61 -7 80 -16 15 -18 22 -9 47 14 41 27
49 79 53 40 3 45 6 48 29 6 52 -114 149 -184 149 -25 0 -26 2 -21 42 37 294
30 538 -17 677 -15 41 -26 93 -26 117 0 44 10 54 55 54 13 0 26 4 30 9 3 6 -4
43 -15 83 -32 117 -30 121 50 130 37 4 35 28 -5 88 -20 29 -34 59 -31 66 3 8
-1 20 -9 28 -24 24 -18 44 18 51 46 10 47 13 36 43 -6 15 -17 50 -25 77 l-13
50 34 30 c37 32 65 89 65 129 0 21 -7 27 -37 35 -52 14 -108 55 -143 103 -69
95 -136 332 -179 638 -39 273 -51 475 -41 680 13 232 16 255 71 535 87 440
107 503 369 1175 16 41 58 145 93 230 108 264 223 616 256 790 42 214 51 321
40 468 -17 227 -68 404 -159 549 -27 43 -69 112 -94 153 -81 137 -96 145 -138
74 -24 -41 -33 -41 -148 -7 -74 23 -66 -1 -59 180 4 104 -3 121 -44 102 -34
-15 -57 -5 -57 25 0 14 -9 30 -23 39 -16 10 -26 32 -35 73 -7 38 -25 79 -49
113 -21 30 -48 73 -61 95 -22 41 -65 86 -82 86 -15 0 -42 -48 -50 -89 -8 -45
2 -77 33 -101 13 -10 29 -36 35 -58 14 -46 16 -112 3 -112 -5 0 -14 -13 -21
-30 -7 -16 -18 -30 -25 -30 -7 0 -29 14 -50 30 -57 46 -88 36 -65 -20 10 -25
9 -37 -5 -72 -10 -24 -20 -72 -21 -108 -3 -52 -7 -68 -25 -82 -40 -33 -69 -19
-69 34 0 11 -9 27 -21 37 l-20 16 20 47 c32 75 31 82 -9 88 -33 5 -35 7 -32
39 1 18 -2 39 -8 46 -12 14 -1 60 40 165 42 108 42 108 30 129 -16 30 -29 26
-69 -21 -20 -22 -49 -53 -65 -67 -15 -14 -58 -56 -95 -93 -37 -38 -75 -68 -84
-68 -16 0 -26 9 -73 63 -10 12 -21 16 -32 11 -9 -4 -28 -7 -42 -8 -21 -1 -25
4 -28 32 -5 46 -29 39 -67 -20 -28 -43 -33 -47 -72 -47 -38 -1 -44 2 -58 34
-9 19 -23 39 -31 46 -8 6 -14 29 -14 50 0 28 -5 41 -20 49 -11 6 -20 19 -20
28 0 10 -6 27 -14 38 -15 19 -15 19 -30 -1 -15 -19 -16 -20 -47 -2 -31 17 -33
17 -53 -2 -14 -13 -29 -18 -43 -15 -11 3 -32 -2 -46 -11 -21 -14 -29 -14 -46
-3 -16 10 -23 10 -32 1 -10 -10 -19 -8 -41 5 -23 13 -32 14 -48 4 -24 -15 -44
-8 -60 23 -11 20 -10 28 3 48 11 17 15 40 12 72 -6 70 -34 81 -114 45 -73 -33
-74 -32 -66 64 6 77 5 85 -13 98 -12 8 -24 26 -27 41 -9 33 -32 47 -77 47 -18
0 -42 7 -52 15 -11 8 -32 15 -47 15 -23 0 -34 12 -73 74 -79 127 -223 245
-436 359 -142 75 -287 114 -445 118 -97 3 -140 20 -130 52 4 12 10 40 14 62 5
28 20 53 49 81 23 23 42 51 42 63 0 20 -5 21 -88 21 -75 0 -89 3 -99 19 -12
20 -24 20 -174 6 -45 -4 -58 -2 -63 10 -6 17 -51 20 -62 4 -3 -6 -17 -8 -29
-5 -13 3 -34 2 -46 -2 -20 -8 -39 4 -128 72 -58 44 -144 104 -190 132 -47 28
-87 56 -89 63 -2 6 19 34 47 61 28 27 51 58 51 68 0 11 7 25 15 32 20 17 19
27 -5 47 -11 10 -20 22 -20 29 0 6 9 19 20 29 11 10 20 26 20 36 0 10 5 21 10
24 6 3 10 15 10 27 0 11 11 33 25 50 33 40 33 68 -1 68 -14 0 -35 -5 -46 -11
-17 -9 -24 -8 -32 3 -8 11 -29 15 -76 14 l-65 -1 -5 40 c-6 49 -27 56 -59 20z
m-411 -942 c15 -14 20 -30 20 -71 0 -51 -1 -54 -22 -48 -13 3 -33 6 -45 6 -19
0 -23 6 -23 30 0 37 25 100 39 100 6 0 20 -8 31 -17z m619 -209 c11 -14 23
-46 26 -72 4 -26 13 -69 21 -96 20 -72 18 -112 -10 -149 -13 -18 -33 -50 -44
-73 -30 -59 -47 -71 -72 -49 -11 10 -20 27 -20 38 0 10 -8 35 -17 54 -14 30
-15 42 -5 80 25 90 -9 123 -120 117 -64 -3 -68 -2 -74 20 -3 13 -4 37 -2 52 3
28 5 29 68 32 86 3 110 9 110 27 0 18 21 20 37 4 8 -8 16 -4 28 15 22 33 48
33 74 0z m-954 -125 c16 -16 19 -17 41 -3 22 15 26 14 58 -5 19 -12 38 -20 43
-19 5 2 23 -13 40 -32 28 -32 30 -39 26 -90 -3 -30 -11 -62 -18 -70 -8 -8 -21
-43 -31 -77 -13 -49 -22 -63 -36 -63 -24 0 -101 77 -127 128 -23 45 -46 57
-92 47 -20 -5 -38 -1 -56 10 -19 13 -31 15 -48 7 -17 -8 -28 -7 -42 3 -10 7
-32 15 -48 17 -26 3 -30 8 -33 37 -4 41 8 51 66 51 37 0 44 -4 53 -26 l10 -27
23 22 c14 13 27 34 30 47 5 17 13 24 31 24 15 0 31 9 40 24 18 27 44 25 70 -5z
m1463 -301 c63 -31 71 -33 175 -31 73 1 117 -3 134 -12 14 -7 31 -11 37 -9 7
3 22 -7 35 -20 20 -21 27 -23 44 -15 11 6 22 7 26 2 12 -17 57 -31 73 -22 13
7 22 2 38 -21 17 -25 28 -30 60 -30 34 0 42 -4 55 -31 13 -25 21 -30 39 -25
24 6 39 -5 77 -56 11 -16 29 -28 40 -28 19 0 119 -89 119 -106 0 -4 12 -18 27
-30 27 -21 27 -21 9 -50 -23 -34 -77 -84 -91 -84 -6 0 -40 20 -75 45 -93 66
-245 149 -336 186 -188 75 -429 93 -599 44 -49 -14 -94 -24 -101 -21 -20 8 -8
55 42 172 24 56 44 106 44 112 0 14 40 62 52 62 6 0 40 -15 76 -32z m-1992 11
c3 -6 26 -20 50 -31 33 -14 49 -16 63 -8 35 18 42 12 35 -29 -6 -38 -5 -40 35
-60 38 -20 41 -25 41 -62 0 -23 -5 -41 -12 -44 -7 -2 -82 -6 -165 -9 -213 -9
-306 -32 -489 -124 -126 -63 -266 -145 -283 -166 -26 -31 -45 -18 -78 52 -29
61 -30 69 -17 89 8 12 14 29 14 37 0 7 16 21 35 31 22 10 42 30 52 50 11 23
25 35 45 39 18 3 35 17 46 35 11 20 27 32 49 36 18 3 33 12 33 19 0 14 52 39
107 50 17 4 37 14 44 22 6 8 24 14 39 14 15 0 35 9 45 20 11 13 25 18 39 14
12 -3 35 0 51 7 26 11 105 23 187 27 15 1 30 -3 34 -9z m974 -268 c29 -55 71
-65 120 -30 23 18 37 20 69 15 25 -4 41 -2 41 4 0 13 71 13 104 0 14 -5 26
-14 26 -20 0 -37 -170 -210 -206 -210 -8 0 -32 9 -54 20 -63 32 -168 23 -258
-22 -32 -16 -43 -2 -51 68 -4 33 -13 69 -20 82 -10 18 -9 26 4 44 8 13 15 33
15 45 0 22 3 23 100 23 88 0 100 -2 110 -19z m-789 -342 c75 -26 117 -103 69
-129 -11 -6 -22 -26 -26 -45 -3 -20 -14 -39 -22 -44 -15 -9 -15 -11 1 -28 9
-11 17 -32 17 -48 0 -30 25 -65 46 -65 8 0 19 -20 25 -45 6 -25 15 -47 19 -50
4 -2 24 0 44 6 33 9 41 8 60 -10 29 -27 66 -17 135 37 28 22 66 45 85 52 24 8
44 25 63 55 35 57 64 64 106 29 46 -39 84 -52 179 -63 97 -11 157 -2 236 35
l55 26 21 -25 c11 -13 28 -27 37 -30 8 -3 21 -23 28 -46 12 -41 27 -51 48 -30
8 8 17 8 31 0 16 -8 27 -7 50 6 29 17 31 17 50 0 25 -23 48 -21 67 5 15 22 15
23 64 5 66 -23 93 -21 121 8 13 14 31 25 40 25 9 0 27 14 40 32 l23 31 -28 25
c-26 22 -28 27 -17 55 10 27 9 34 -10 54 -28 30 -29 84 -3 113 28 31 55 44 67
32 7 -7 23 -6 50 4 88 31 218 14 363 -48 227 -96 346 -183 480 -349 219 -273
458 -555 579 -683 106 -113 151 -153 236 -208 57 -37 140 -83 185 -100 l80
-32 277 -6 c164 -3 281 -9 287 -15 6 -6 12 -1269 17 -3465 4 -1900 8 -3538 8
-3640 l1 -185 -195 -8 c-217 -8 -6650 2 -6664 11 -8 4 -2 2260 9 3462 2 190 6
1143 9 2119 4 1192 10 1779 17 1787 7 9 97 13 357 16 l347 3 57 27 c63 29 194
119 301 206 81 65 125 119 356 427 302 403 419 518 621 620 81 41 132 59 206
74 112 22 245 26 295 10z m-1317 -246 c14 -26 12 -32 -27 -103 -72 -133 -148
-252 -241 -378 -71 -98 -107 -136 -168 -182 -148 -112 -273 -170 -388 -180
-89 -9 -120 0 -120 33 0 36 28 55 99 66 85 14 268 103 368 179 88 67 158 150
210 250 19 37 62 117 95 179 81 153 139 199 172 136z m4756 -542 c92 -90 164
-143 245 -181 114 -52 157 -67 220 -75 66 -8 95 -26 95 -61 0 -34 -13 -37 -93
-24 -165 27 -411 147 -436 213 -11 28 -36 50 -81 71 -34 16 -65 59 -72 101 -2
12 -12 21 -26 23 -25 4 -30 38 -10 75 11 21 13 20 52 -28 22 -28 70 -79 106
-114z m-7046 -127 c23 -34 35 -62 31 -73 -6 -20 18 -45 53 -55 12 -4 22 -11
22 -15 0 -4 19 -27 42 -49 33 -33 39 -45 30 -54 -18 -18 -15 -30 13 -60 36
-39 31 -61 -21 -107 -52 -46 -95 -61 -170 -61 -28 0 -65 -3 -82 -6 -28 -6 -31
-10 -34 -48 -2 -27 -8 -41 -18 -43 -77 -10 -88 -14 -94 -38 -7 -27 -34 -33
-54 -13 -18 18 -4 483 15 523 20 40 52 65 85 65 15 0 32 6 37 13 6 6 22 27 37
45 39 48 64 43 108 -24z m9006 -140 c0 -9 6 -28 14 -42 8 -15 17 -39 21 -54 4
-23 11 -28 34 -28 44 0 75 -55 96 -170 29 -161 19 -430 -16 -430 -5 0 -12 8
-16 18 -12 35 -46 52 -105 52 -51 0 -58 2 -58 20 0 11 6 29 12 40 25 39 -45
63 -155 54 -83 -8 -147 19 -165 69 -16 46 -7 65 40 84 39 15 40 17 34 53 -6
36 -3 40 51 86 31 27 66 54 77 60 16 8 21 19 19 50 -3 69 13 108 54 132 45 26
63 28 63 6z m-8437 -357 c-1 -45 -5 -101 -9 -125 -5 -33 -3 -47 11 -62 16 -18
19 -18 42 -3 18 12 29 14 41 6 10 -5 33 -8 54 -5 31 3 37 1 44 -20 4 -12 7
-27 6 -32 -2 -4 -3 -428 -2 -941 0 -553 -3 -936 -9 -939 -5 -3 -34 6 -65 20
-48 22 -57 30 -66 63 -14 55 -62 96 -105 92 -33 -2 -36 0 -55 43 -19 46 -57
105 -75 118 -5 4 -22 8 -36 8 -19 0 -40 17 -81 63 -60 68 -71 94 -218 542 -35
105 -71 206 -81 225 -33 64 -33 81 2 133 18 27 42 53 55 57 27 11 39 47 30 93
-13 73 -14 72 24 71 19 0 39 5 43 10 4 6 5 49 2 96 -3 47 -2 101 3 120 10 43
37 52 53 16 6 -13 22 -27 35 -30 13 -4 44 -27 70 -52 26 -25 60 -52 75 -60 16
-8 29 -19 29 -24 0 -6 7 -10 15 -10 12 0 15 13 15 55 0 30 4 55 9 55 18 0 18
66 -1 114 -14 36 -16 56 -10 75 8 22 2 39 -34 105 -45 80 -54 128 -34 167 8
14 21 19 53 18 23 0 62 4 87 9 89 19 85 22 83 -71z m8043 -158 c-10 -73 -85
-290 -114 -328 -27 -36 -27 -34 -24 -203 1 -25 6 -49 12 -53 15 -9 55 18 114
78 28 27 69 58 93 69 23 10 45 23 48 28 9 14 62 12 71 -2 4 -6 11 -51 15 -99
4 -51 13 -97 22 -109 13 -19 13 -28 0 -73 -15 -53 -6 -107 17 -107 5 0 16 -16
24 -35 8 -19 22 -35 31 -35 9 0 18 -6 21 -14 3 -8 -22 -90 -56 -183 -34 -92
-93 -258 -130 -368 -85 -248 -95 -272 -120 -280 -11 -3 -28 -16 -37 -29 -10
-13 -28 -28 -41 -35 -12 -6 -31 -31 -43 -54 -12 -23 -32 -56 -45 -74 -23 -30
-26 -31 -56 -21 -28 10 -33 9 -46 -10 -9 -14 -25 -22 -42 -22 -22 0 -30 -6
-39 -31 -6 -18 -11 -44 -11 -58 0 -17 -7 -30 -22 -36 -13 -6 -26 -24 -30 -42
-9 -35 -19 -41 -36 -20 -7 8 -10 238 -10 677 -1 747 8 1194 23 1209 6 6 27 6
55 1 35 -7 59 -4 108 12 34 11 62 23 62 26 -1 18 -28 83 -41 99 -11 13 -16 38
-15 83 l1 65 31 3 c19 2 36 -3 44 -12 17 -22 42 -20 73 4 32 25 68 39 86 32
10 -4 12 -17 7 -53z m-7897 -2265 c53 -61 55 -97 6 -144 -43 -42 -44 -63 -2
-103 l32 -32 3 -455 c1 -250 -1 -590 -6 -754 -7 -278 -9 -300 -26 -310 -52
-30 -74 -73 -62 -120 3 -14 15 -28 26 -31 11 -3 25 -15 31 -27 9 -17 6 -26
-20 -58 -25 -31 -30 -45 -25 -69 6 -26 2 -32 -27 -50 -53 -32 -99 -28 -139 14
-21 22 -44 35 -59 35 -40 0 -40 1 -107 124 -20 39 -25 58 -21 90 11 79 46 262
72 371 53 227 85 748 66 1088 -6 122 -17 255 -22 296 -6 40 -8 79 -5 87 3 7
23 18 44 24 24 6 47 21 57 36 12 19 22 24 38 20 12 -3 29 -1 37 4 34 22 68 11
109 -36z m7689 -142 c12 -15 26 -31 30 -37 5 -5 18 -17 31 -25 l22 -15 -16
-160 c-17 -168 -23 -600 -11 -715 46 -423 79 -634 122 -782 19 -64 34 -129 34
-143 0 -14 -16 -49 -36 -78 -53 -76 -65 -87 -90 -87 -13 0 -45 -13 -71 -30
-50 -32 -98 -38 -136 -19 -29 16 -38 30 -31 51 3 9 -7 35 -21 57 -15 22 -25
45 -23 52 2 6 19 17 38 23 40 13 48 39 31 96 -8 26 -21 42 -45 55 -24 13 -36
28 -40 49 -24 126 -30 996 -9 1353 6 110 6 112 34 123 30 13 51 56 42 90 -3
11 -18 27 -34 36 -40 20 -37 45 13 98 41 44 44 44 93 39 38 -4 56 -11 73 -31z
m-7677 -3302 c-2 -591 -8 -1085 -12 -1097 -6 -17 -16 -23 -36 -23 -62 1 -77
43 -46 130 22 62 10 124 -30 154 -24 18 -42 21 -111 20 l-83 -1 1 73 c0 65 3
74 19 74 21 0 83 44 91 65 8 22 -40 72 -87 89 -28 11 -69 15 -125 14 -77 -3
-84 -1 -101 21 -31 41 -46 184 -45 426 1 249 15 331 77 435 33 54 34 55 89 61
98 11 168 73 168 148 0 44 -25 119 -49 146 -32 36 -33 45 -7 76 14 17 26 42
26 55 0 16 8 28 23 35 13 6 37 34 55 63 17 29 39 59 48 67 21 18 104 48 124
46 13 -2 15 -127 11 -1077z m7570 940 c22 0 41 -24 59 -74 12 -32 22 -42 49
-50 59 -17 93 -133 50 -172 -55 -50 -63 -120 -23 -195 35 -63 65 -82 134 -84
50 -2 57 -5 77 -35 23 -33 40 -85 64 -190 28 -125 15 -442 -26 -617 -8 -35
-15 -75 -15 -87 0 -31 -27 -36 -143 -24 -88 9 -93 8 -109 -13 -10 -11 -18 -37
-18 -56 0 -32 4 -36 51 -56 43 -18 49 -24 43 -42 -4 -11 -7 -39 -7 -62 0 -37
-3 -43 -21 -44 -47 -3 -83 -5 -123 -7 -32 -2 -50 -10 -79 -37 -20 -19 -41 -35
-45 -35 -5 0 -9 42 -9 93 0 50 -4 198 -8 327 -9 296 -9 1449 0 1472 6 14 11
15 45 2 21 -7 45 -13 54 -14z m-61 -1924 c0 -7 14 -28 31 -45 21 -23 28 -38
23 -49 -4 -9 -8 -30 -8 -46 -1 -20 -8 -32 -24 -39 -12 -6 -25 -8 -28 -4 -7 7
-23 180 -17 190 7 12 23 8 23 -7z m-5372 -855 c2 -24 -1 -48 -6 -53 -5 -5 -60
-12 -122 -17 -113 -8 -115 -8 -243 30 -71 20 -136 44 -145 53 -14 14 -13 16 9
25 14 6 125 9 264 8 l240 -2 3 -44z m2072 31 c0 -37 -25 -56 -76 -57 -97 -3
-103 -5 -154 -50 -28 -25 -57 -45 -64 -45 -8 0 -37 16 -66 35 -40 27 -62 35
-96 35 -54 0 -101 -19 -133 -54 -14 -14 -35 -26 -47 -26 -13 0 -53 24 -91 52
-60 47 -74 53 -117 54 -39 0 -53 5 -64 22 -8 12 -12 29 -8 37 5 13 63 15 461
15 432 0 455 -1 455 -18z m1645 8 c4 -7 1 -18 -6 -25 -24 -24 -222 -87 -299
-96 -77 -9 -185 2 -203 20 -6 6 -2 26 11 55 l22 45 82 3 c270 10 386 9 393 -2z
m-3092 -63 c15 -31 39 -64 52 -73 34 -22 31 -40 -7 -60 -60 -31 -333 -57 -367
-35 -13 8 -12 15 2 48 9 21 19 56 22 78 3 22 8 55 11 73 l5 33 127 -3 127 -3
28 -58z m2224 51 c6 -7 18 -38 28 -68 10 -30 32 -74 49 -98 50 -71 18 -90
-146 -91 -86 -1 -155 18 -205 56 -37 27 -41 47 -16 75 9 10 26 42 37 71 l21
52 85 6 c47 3 97 6 111 7 15 1 31 -4 36 -10z"/>
</g>
</svg>
