<?xml version="1.0" standalone="no"?>
<!DOCTYPE svg PUBLIC "-//W3C//DTD SVG 20010904//EN"
 "http://www.w3.org/TR/2001/REC-SVG-20010904/DTD/svg10.dtd">
<svg version="1.0" xmlns="http://www.w3.org/2000/svg"
 width="958.000000pt" height="1280.000000pt" viewBox="0 0 958.000000 1280.000000"
 preserveAspectRatio="xMidYMid meet">
<metadata>
Created by potrace 1.15, written by Peter Selinger 2001-2017
</metadata>
<g transform="translate(0.000000,1280.000000) scale(0.100000,-0.100000)"
fill="#000000" stroke="none">
<path d="M9403 12793 c9 -2 23 -2 30 0 6 3 -1 5 -18 5 -16 0 -22 -2 -12 -5z"/>
<path d="M9530 12790 c36 -11 50 -11 50 0 0 6 -17 10 -37 9 -34 -1 -35 -2 -13
-9z"/>
<path d="M6394 12494 c-221 -38 -435 -152 -592 -313 -134 -138 -231 -310 -281
-496 -59 -222 -59 -353 -1 -615 13 -63 71 -194 111 -254 21 -32 39 -60 39 -63
0 -9 114 -139 149 -169 20 -18 65 -52 101 -75 36 -24 70 -55 77 -69 18 -35 18
-260 0 -284 -10 -14 -34 -18 -125 -23 -132 -7 -134 -9 -121 -98 4 -33 9 -84
10 -114 2 -43 8 -61 30 -86 47 -53 67 -198 29 -215 -80 -37 -95 -48 -104 -73
-7 -19 -7 -34 1 -46 7 -12 10 -40 6 -73 -3 -34 -1 -63 6 -77 10 -18 9 -27 -3
-46 -21 -31 -20 -74 1 -97 13 -15 14 -23 5 -44 -16 -34 -15 -89 2 -103 10 -8
11 -24 5 -63 -7 -42 -5 -55 8 -70 13 -14 14 -21 5 -30 -16 -16 -15 -51 2 -93
13 -31 13 -36 -5 -59 -28 -35 -24 -77 11 -116 28 -32 29 -34 15 -68 -8 -19
-15 -44 -15 -56 0 -21 57 -86 75 -86 5 0 21 -11 35 -25 29 -28 29 -10 0 -278
-23 -203 -150 -500 -266 -623 -22 -22 -100 -92 -174 -156 -247 -212 -385 -363
-582 -638 -96 -135 -214 -311 -262 -393 l-88 -147 -39 31 c-21 17 -41 35 -45
40 -15 24 -206 108 -283 125 -96 21 -83 3 -139 189 -33 108 -53 152 -118 260
-130 218 -251 320 -557 472 -95 47 -174 87 -176 89 -1 1 2 84 9 183 12 170 11
182 -6 208 -26 40 -19 77 26 137 53 71 124 225 145 316 49 213 18 433 -92 642
-28 54 -64 100 -138 173 -89 90 -112 107 -205 153 -101 50 -145 64 -258 82
-87 15 -266 -26 -382 -87 -354 -186 -518 -634 -380 -1038 15 -44 37 -96 48
-115 12 -19 22 -43 22 -52 0 -10 4 -18 9 -18 5 0 30 -28 55 -62 52 -70 60
-113 25 -144 -24 -21 -23 -51 5 -239 24 -159 32 -142 -97 -207 -241 -122 -433
-277 -518 -419 -25 -40 -63 -117 -86 -169 -100 -230 -123 -383 -123 -812 l0
-313 71 -395 71 -395 153 -450 c164 -486 181 -526 505 -1190 l131 -270 -23
-18 c-97 -76 -132 -141 -126 -226 6 -83 41 -133 141 -202 88 -61 177 -99 335
-145 l100 -29 68 -150 c66 -147 224 -481 320 -680 31 -65 50 -116 51 -145 2
-25 5 -74 6 -110 3 -67 26 -125 58 -147 9 -7 31 -35 48 -62 24 -40 29 -57 24
-86 -3 -20 0 -54 7 -76 11 -31 11 -61 1 -151 -11 -105 -10 -117 8 -171 28 -80
100 -168 191 -231 163 -114 270 -148 536 -168 181 -14 349 -1 481 36 140 40
355 186 428 291 36 53 41 68 62 199 13 77 24 177 23 221 0 65 5 93 26 145 22
55 25 73 19 127 -6 60 -5 65 37 143 l43 80 -29 84 -28 85 88 221 c72 180 93
224 114 235 14 7 55 47 91 88 48 54 69 88 79 123 7 27 14 50 16 52 1 2 44 -23
96 -56 168 -107 268 -151 461 -203 167 -45 189 -48 380 -59 175 -11 225 -10
377 4 96 9 218 24 270 33 144 24 279 96 553 294 221 159 222 160 358 319 75
87 146 171 157 185 14 18 29 25 44 23 19 -2 22 1 20 19 -3 24 72 161 81 146 2
-4 12 -32 21 -60 18 -55 22 -59 45 -44 12 8 10 24 -10 100 l-23 90 86 178 c47
98 106 235 129 305 24 69 46 125 50 123 3 -3 9 -66 13 -142 9 -176 13 -200 37
-206 19 -5 20 -1 14 111 -23 407 -23 406 12 540 17 68 33 126 36 128 5 5 35
-491 43 -713 4 -95 10 -173 14 -173 4 0 12 35 17 78 9 66 11 73 18 45 7 -30
37 -49 57 -36 5 3 8 103 7 227 -2 151 0 229 8 246 9 20 12 -11 12 -155 1 -201
7 -256 26 -249 7 3 15 -2 18 -10 4 -9 13 -16 22 -16 12 0 15 12 15 54 0 29 3
81 6 115 7 59 8 61 35 61 15 0 32 6 36 14 10 17 53 3 53 -18 0 -15 21 -26 50
-26 19 0 24 18 33 120 l3 35 13 -32 c12 -30 41 -47 41 -24 0 6 24 7 55 4 l55
-6 0 50 c0 98 10 141 36 147 12 3 26 15 29 26 9 29 25 24 25 -7 0 -53 11 -73
37 -73 21 0 24 4 20 23 -3 12 -11 52 -18 90 -12 64 -11 68 9 90 18 19 22 36
22 88 1 35 6 93 13 129 l12 65 44 -125 c24 -69 46 -127 48 -129 2 -3 8 0 13 5
6 6 -13 76 -49 186 -40 121 -61 201 -66 255 -4 50 -3 74 3 68 17 -18 90 -250
102 -329 9 -51 17 -76 26 -76 19 0 18 14 -15 185 -16 83 -28 151 -27 152 1 2
24 -35 50 -82 26 -47 51 -85 56 -85 24 0 13 27 -54 133 -115 179 -233 455
-300 702 -30 110 -71 247 -91 305 -20 58 -88 256 -150 440 -172 510 -334 969
-363 1030 -51 109 -221 345 -309 432 -47 46 -97 95 -111 111 -14 15 -31 27
-39 27 -7 0 -13 4 -13 10 0 5 -16 16 -35 24 -19 8 -35 19 -35 25 0 5 -15 13
-32 17 -49 10 -75 31 -92 74 -8 21 -20 41 -26 45 -6 3 -19 23 -30 43 -11 20
-24 44 -29 52 -5 8 -17 42 -27 75 -37 129 -127 264 -222 332 -61 44 -117 51
-187 25 -46 -18 -56 -19 -72 -7 -10 8 -34 15 -53 15 -19 0 -46 9 -60 20 -14
11 -37 20 -52 20 -19 0 -42 14 -73 43 l-45 44 0 87 0 87 43 18 c80 34 104 88
71 157 -13 27 -14 40 -5 62 6 15 11 54 11 87 0 33 1 74 2 90 1 17 -2 37 -6 46
-4 10 -1 23 8 32 21 20 20 76 0 98 -15 16 -14 20 11 53 25 33 27 41 21 95 -4
38 -2 68 5 85 10 20 9 35 0 67 -11 37 -11 43 8 63 20 22 31 72 18 92 -3 6 1
29 9 53 13 37 12 45 -2 72 -8 17 -28 38 -44 47 -16 9 -31 24 -33 33 -7 25 19
88 47 118 20 21 27 43 37 116 7 50 13 108 13 130 l1 40 -110 8 c-60 4 -115 9
-122 12 -6 2 -17 29 -24 60 -10 46 -10 74 0 143 6 47 18 97 26 112 8 15 49 49
92 77 212 138 409 453 452 723 18 109 13 313 -9 420 -42 199 -126 381 -223
486 -192 208 -363 308 -587 345 -95 16 -274 17 -356 3z m763 -4614 c3 -44 25
-124 50 -180 18 -41 51 -82 131 -161 59 -58 126 -128 148 -155 23 -27 53 -63
68 -81 14 -17 33 -55 42 -85 9 -29 22 -69 29 -88 8 -19 17 -51 20 -70 l6 -35
-22 25 c-11 14 -46 52 -77 85 -31 33 -79 85 -106 115 -27 30 -89 97 -138 148
-48 51 -88 100 -88 109 0 44 -53 177 -89 222 -17 21 -36 59 -43 84 -11 44 -11
48 12 72 29 31 54 29 57 -5z"/>
<path d="M9567 9930 c-3 -11 -1 -23 4 -26 5 -3 9 6 9 20 0 31 -6 34 -13 6z"/>
</g>
</svg>
