<?xml version="1.0" standalone="no"?>
<!DOCTYPE svg PUBLIC "-//W3C//DTD SVG 20010904//EN"
 "http://www.w3.org/TR/2001/REC-SVG-20010904/DTD/svg10.dtd">
<svg version="1.0" xmlns="http://www.w3.org/2000/svg"
 width="1280.000000pt" height="1150.000000pt" viewBox="0 0 1280.000000 1150.000000"
 preserveAspectRatio="xMidYMid meet">
<metadata>
Created by potrace 1.15, written by Peter Selinger 2001-2017
</metadata>
<g transform="translate(0.000000,1150.000000) scale(0.100000,-0.100000)"
fill="#000000" stroke="none">
<path d="M9760 9793 c-69 -12 -102 -27 -148 -68 -61 -55 -87 -65 -165 -65
-108 0 -382 -31 -582 -65 -329 -56 -683 -167 -928 -291 -26 -14 -53 -22 -59
-18 -7 5 -8 2 -3 -6 6 -10 4 -12 -9 -7 -11 5 -15 3 -10 -5 5 -8 2 -9 -9 -5 -9
3 -16 2 -14 -3 1 -5 -40 -34 -90 -64 -51 -30 -93 -53 -93 -50 0 2 23 18 50 35
51 31 69 50 28 28 -41 -21 -182 -112 -238 -153 -296 -217 -599 -559 -855 -967
-224 -358 -396 -658 -435 -759 l-20 -55 20 25 21 25 -12 -25 c-21 -43 -105
-164 -130 -187 -26 -23 -109 -47 -202 -58 -81 -9 -106 -34 -149 -147 -92 -240
-348 -1138 -348 -1219 0 -20 11 -37 43 -62 147 -118 388 -246 638 -338 150
-55 147 -55 183 -20 18 17 35 29 38 26 3 -3 11 2 19 12 9 11 10 14 2 9 -7 -4
-13 -5 -13 -2 0 3 80 108 177 233 225 289 328 430 393 538 62 103 139 265 171
359 21 64 22 73 9 125 -30 127 -24 359 15 556 99 495 377 1010 755 1398 389
401 809 629 1355 736 232 45 363 57 487 43 155 -18 255 -15 334 9 127 38 452
215 535 291 32 30 38 70 15 104 -8 11 -43 33 -76 48 -51 23 -84 29 -188 37
-128 8 -466 10 -512 2z m-2180 -697 c0 -2 -8 -10 -17 -17 -16 -13 -17 -12 -4
4 13 16 21 21 21 13z m-80 -60 c0 -2 -8 -10 -17 -17 -16 -13 -17 -12 -4 4 13
16 21 21 21 13z m-40 -30 c0 -2 -8 -10 -17 -17 -16 -13 -17 -12 -4 4 13 16 21
21 21 13z m-60 -49 c0 -2 -10 -12 -22 -23 l-23 -19 19 23 c18 21 26 27 26 19z
m-70 -60 c0 -2 -12 -14 -27 -28 l-28 -24 24 28 c23 25 31 32 31 24z m-200
-200 c0 -2 -12 -14 -27 -28 l-28 -24 24 28 c23 25 31 32 31 24z"/>
<path d="M7774 9234 c-18 -14 -18 -15 4 -4 12 6 22 13 22 15 0 8 -5 6 -26 -11z"/>
<path d="M2530 5763 c-218 -20 -510 -93 -657 -164 -126 -60 -141 -104 -51
-146 87 -41 340 -93 553 -113 66 -6 138 -15 160 -19 39 -8 39 -9 -18 -10 -80
-1 -329 26 -454 50 -58 11 -164 38 -236 60 -152 45 -185 48 -215 17 -68 -73
-211 -692 -268 -1158 -22 -182 -31 -678 -14 -837 25 -248 86 -465 190 -681
104 -215 248 -409 395 -533 40 -34 73 -67 72 -73 -1 -5 5 -10 13 -11 23 0 71
-36 63 -48 -3 -6 -1 -7 6 -3 6 4 24 0 39 -10 15 -10 68 -39 117 -66 109 -58
106 -64 -5 -8 -44 22 -80 38 -80 36 0 -12 149 -96 166 -95 4 0 10 -4 13 -9 28
-44 439 -193 596 -216 22 -3 81 -13 130 -21 152 -25 474 -39 586 -26 46 6 113
11 149 12 110 2 338 40 349 57 3 5 38 17 76 27 39 9 84 21 100 26 58 17 160
50 180 59 11 4 47 18 80 31 170 64 400 181 557 282 148 96 378 278 458 364
112 119 216 237 245 277 16 23 32 43 35 46 14 13 109 169 120 198 7 18 18 36
25 40 7 4 34 56 60 117 26 60 53 118 60 130 7 11 20 47 29 80 10 33 25 77 34
98 9 22 17 46 18 55 1 10 14 69 28 132 15 63 29 134 31 157 2 24 9 52 15 62 5
11 7 27 4 35 -4 9 -1 22 5 30 6 7 13 44 16 82 2 38 7 80 9 94 3 14 8 44 12 68
4 23 10 42 15 42 5 0 3 12 -3 26 -10 22 -9 27 4 35 13 7 15 16 8 39 -7 23 -5
32 7 38 13 8 13 12 -1 39 -8 17 -12 33 -9 37 4 3 7 16 9 29 1 12 4 31 7 43 3
11 2 26 -2 32 -4 7 -26 -26 -52 -79 -24 -50 -47 -93 -51 -95 -4 -2 22 56 58
130 106 224 108 229 108 336 0 78 -4 102 -22 137 -25 48 -27 57 -10 47 7 -4 8
-3 4 5 -4 6 -11 9 -16 6 -11 -7 -33 22 -26 33 3 5 -22 35 -56 66 -34 31 -57
56 -51 56 7 0 15 -4 18 -10 3 -5 11 -10 16 -10 6 0 3 7 -6 16 -13 13 -13 19
-3 33 7 9 -3 2 -22 -14 l-36 -30 46 -26 c25 -15 56 -39 70 -55 19 -20 11 -17
-30 14 -48 35 -279 137 -380 167 -71 21 -339 161 -440 230 -140 95 -189 118
-255 118 -132 0 -277 -146 -431 -435 -59 -110 -70 -127 -50 -77 5 11 0 15 -16
15 -13 0 -39 7 -58 15 -59 26 -136 49 -163 49 -13 0 -30 7 -37 15 -7 8 -27 17
-46 21 -19 3 -34 10 -34 14 0 8 -41 26 -48 21 -2 -2 -13 4 -25 11 -12 8 -35
15 -51 16 -16 1 -37 9 -46 17 -9 8 -26 15 -38 15 -18 0 -43 7 -130 35 -7 3
-13 4 -15 4 -1 0 -15 4 -30 10 -28 11 -29 11 -23 -21 3 -18 -5 -4 -18 32 -13
36 -29 77 -35 92 l-10 28 -116 -57 c-81 -40 -119 -53 -126 -46 -8 8 0 15 28
23 72 24 163 71 174 91 15 30 -1 44 -89 78 -151 57 -390 99 -687 121 -128 9
-492 11 -575 3z m585 -108 c177 -18 245 -29 328 -56 81 -25 99 -40 95 -76 -3
-24 -11 -31 -59 -50 -31 -12 -76 -25 -100 -28 -40 -5 -39 -4 17 13 74 22 129
53 129 73 0 34 -139 76 -341 101 -153 20 -698 16 -849 -5 -138 -19 -268 -50
-302 -72 -98 -65 219 -136 667 -150 106 -3 196 -8 199 -10 8 -9 -316 -5 -445
5 -363 29 -535 97 -434 171 35 26 203 65 335 78 61 6 124 13 140 15 90 10 486
4 620 -9z m550 -215 c3 -5 2 -10 -4 -10 -5 0 -13 5 -16 10 -3 6 -2 10 4 10 5
0 13 -4 16 -10z m-360 -10 c-16 -4 -43 -8 -60 -8 l-30 0 30 8 c17 4 44 8 60 8
l30 0 -30 -8z m-170 -20 c-27 -5 -79 -8 -115 -7 l-65 1 75 6 c41 4 93 7 115 7
37 0 37 0 -10 -7z m-528 -96 c-3 -3 -12 -4 -19 -1 -8 3 -5 6 6 6 11 1 17 -2
13 -5z m3593 -1004 c-11 -22 -23 -40 -25 -40 -3 0 4 18 15 40 11 22 23 40 25
40 3 0 -4 -18 -15 -40z m-3850 -2350 c8 -5 11 -10 5 -10 -5 0 -17 5 -25 10 -8
5 -10 10 -5 10 6 0 17 -5 25 -10z"/>
<path d="M6366 4633 c-6 -14 -5 -15 5 -6 7 7 10 15 7 18 -3 3 -9 -2 -12 -12z"/>
<path d="M2084 2081 c7 -11 46 -35 46 -28 0 3 -12 12 -26 22 -15 9 -23 12 -20
6z"/>
</g>
</svg>
