<?xml version="1.0" standalone="no"?>
<!DOCTYPE svg PUBLIC "-//W3C//DTD SVG 20010904//EN"
 "http://www.w3.org/TR/2001/REC-SVG-20010904/DTD/svg10.dtd">
<svg version="1.0" xmlns="http://www.w3.org/2000/svg"
 width="746.000000pt" height="1280.000000pt" viewBox="0 0 746.000000 1280.000000"
 preserveAspectRatio="xMidYMid meet">
<metadata>
Created by potrace 1.15, written by Peter Selinger 2001-2017
</metadata>
<g transform="translate(0.000000,1280.000000) scale(0.100000,-0.100000)"
fill="#000000" stroke="none">
<path d="M3466 12268 l-329 -131 -216 83 c-284 109 -282 108 -326 87 -32 -15
-36 -21 -33 -48 3 -31 5 -32 203 -106 110 -41 201 -76 203 -78 2 -2 -85 -38
-192 -80 -189 -75 -196 -79 -196 -105 0 -24 6 -30 46 -44 26 -9 51 -13 56 -10
6 4 14 0 19 -7 7 -12 9 -11 9 1 0 11 67 41 217 98 l217 84 198 -73 c108 -40
196 -74 194 -76 -1 -2 -151 -57 -332 -123 -426 -156 -386 -138 -382 -168 2
-20 12 -28 45 -39 33 -11 43 -20 46 -41 4 -26 4 -26 6 3 l1 30 390 139 c344
123 393 138 422 130 l33 -10 5 -214 6 -215 2 209 2 208 27 -7 c16 -4 30 -8 32
-10 7 -8 31 -216 45 -395 40 -509 26 -929 -51 -1575 -24 -195 -29 -222 -34
-175 -4 43 -6 31 -7 -53 -1 -62 -19 -225 -42 -390 -167 -1184 -172 -1662 -29
-2597 45 -295 68 -472 63 -481 -2 -4 -21 -9 -42 -13 -103 -16 -159 -98 -193
-282 -5 -30 -28 -85 -50 -123 -32 -56 -43 -68 -60 -64 -17 5 -39 1 -132 -24
-10 -3 -16 -10 -14 -16 2 -7 -6 -24 -19 -39 -19 -23 -21 -33 -14 -65 6 -25 5
-40 -2 -44 -6 -4 -7 -12 -3 -18 4 -7 -1 -28 -10 -48 -23 -49 -14 -96 27 -139
31 -33 36 -35 92 -32 l58 3 27 -75 c16 -41 40 -98 54 -127 15 -29 40 -102 57
-163 17 -62 37 -125 46 -142 15 -28 15 -30 -4 -24 -20 7 -65 -8 -92 -31 -9 -7
-43 -19 -77 -27 -72 -16 -244 -128 -330 -213 -28 -28 -61 -56 -72 -63 -15 -8
-21 -21 -21 -47 0 -37 30 -136 43 -141 14 -7 7 -24 -8 -18 -9 3 -15 0 -15 -8
0 -16 -66 -45 -169 -76 -53 -16 -98 -21 -160 -21 -331 5 -364 4 -376 -13 -10
-12 -18 -14 -46 -6 -51 15 -58 13 -79 -22 -12 -19 -20 -26 -20 -17 0 17 -169
97 -251 119 -82 22 -222 -17 -268 -76 -10 -13 -24 -24 -30 -24 -15 0 -44 -47
-38 -62 2 -7 22 -22 44 -34 34 -18 48 -20 103 -13 36 5 119 6 185 3 66 -3 150
-1 186 3 62 8 66 8 83 -14 9 -13 15 -27 12 -32 -8 -12 -26 -184 -21 -190 3 -2
16 6 30 19 l25 23 97 -23 c89 -21 122 -23 370 -24 l272 -1 4 -50 3 -50 2 51 2
52 85 21 c83 21 204 26 270 12 28 -6 30 -10 41 -76 7 -39 22 -96 33 -128 l20
-58 -20 -130 c-18 -119 -24 -140 -74 -240 -69 -137 -74 -169 -75 -499 0 -206
3 -260 15 -283 12 -23 13 -55 8 -170 -4 -92 -2 -172 6 -226 11 -73 11 -86 -3
-99 -14 -14 -18 -9 -44 49 -16 35 -37 85 -47 112 -10 26 -20 45 -23 43 -2 -3
18 -56 45 -120 l50 -114 -58 -59 -58 -58 -11 -145 c-6 -80 -12 -153 -14 -163
-3 -10 9 -48 25 -85 30 -67 30 -67 110 -104 l80 -37 -3 -213 c-2 -197 12 -471
28 -511 3 -9 11 -17 17 -17 7 0 -12 -21 -41 -46 -43 -38 -52 -51 -52 -79 0
-44 26 -59 92 -53 38 4 66 17 138 66 65 44 114 68 175 87 92 28 109 44 99 93
-5 26 -2 31 22 39 22 7 36 5 65 -11 35 -19 38 -19 62 -3 36 24 50 53 91 200
22 78 57 170 90 235 29 59 56 121 60 138 9 40 -17 73 -63 83 -31 6 -37 13 -64
76 -16 40 -46 88 -68 110 -35 37 -39 46 -38 90 1 28 4 62 8 77 7 33 82 121
217 253 84 83 114 121 173 220 38 66 79 134 90 150 12 17 21 43 21 59 l0 29
55 -7 54 -6 10 37 c5 21 16 103 25 182 l15 145 -54 143 c-42 111 -57 169 -71
261 -16 117 -16 121 5 219 11 54 21 122 21 151 0 46 2 52 21 52 12 0 38 -15
58 -33 29 -26 51 -36 110 -46 l73 -13 72 70 c39 38 85 77 103 86 28 14 31 21
35 68 3 40 -3 69 -23 118 -14 36 -29 88 -34 115 -9 67 -17 78 -78 123 -29 22
-78 63 -110 92 l-57 52 0 152 c0 173 13 382 36 609 9 87 14 160 12 163 -15 14
-58 -552 -58 -766 l0 -144 -40 39 c-40 39 -53 69 -25 59 10 -4 16 3 21 23 3
15 12 53 20 83 l13 54 -58 81 c-48 67 -70 87 -130 121 -40 23 -80 49 -89 57
-30 27 -134 49 -264 56 -70 3 -130 10 -134 14 -11 11 25 82 58 114 58 55 62
72 66 269 l4 182 27 5 c28 6 126 90 126 108 0 6 7 16 16 22 9 7 20 27 23 45 4
17 11 32 14 32 4 0 8 19 8 41 1 23 8 45 15 50 13 8 6 13 -13 10 -4 0 -5 6 -2
14 9 23 -54 73 -85 66 -7 -1 -10 2 -7 7 3 6 -16 15 -43 22 l-49 12 -43 101
c-23 56 -59 150 -79 210 -52 147 -89 193 -175 211 l-30 6 1 78 1 77 -6 -74
c-3 -43 -11 -76 -18 -78 -12 -4 -18 20 -28 112 -4 33 -26 191 -51 350 -146
965 -141 1480 27 2620 116 789 169 1422 154 1835 -7 204 -31 524 -48 648 -10
68 -10 92 -2 92 6 0 181 -63 388 -140 207 -77 380 -140 384 -140 5 0 25 5 46
11 31 8 37 14 37 37 0 26 -10 31 -421 187 -231 88 -422 162 -424 165 -3 5 898
330 903 325 4 -4 54 -248 177 -860 169 -842 233 -1278 285 -1915 l9 -115 -5
125 c-13 343 -96 964 -204 1530 -34 179 -228 1142 -245 1218 -5 20 0 26 35 39
34 14 40 20 40 45 0 24 -7 32 -41 47 -40 18 -43 18 -93 1 -28 -10 -248 -90
-490 -179 -241 -89 -443 -161 -447 -161 -5 0 -10 28 -11 63 l-2 62 -5 -69 c-6
-69 -6 -69 -43 -82 -35 -12 -45 -9 -219 57 -100 38 -188 73 -196 77 -9 6 65
39 214 96 125 49 233 90 240 93 9 4 13 -19 16 -84 l3 -88 2 92 2 91 50 17 c46
15 50 19 50 49 0 30 -4 35 -43 50 -23 9 -47 16 -52 15 -6 0 -158 -59 -339
-131z m-36 -9065 c-9 -14 -10 -10 -6 22 3 22 7 51 8 65 1 14 3 4 5 -22 2 -26
-1 -56 -7 -65z m-90 -1032 c0 -20 -9 -67 -20 -106 l-19 -70 0 45 c-1 25 2 75
5 112 5 50 10 65 20 61 9 -3 14 -20 14 -42z"/>
<path d="M2716 11785 c2 -16 13 -57 24 -90 11 -33 17 -46 14 -30 -2 17 -13 57
-24 90 -11 33 -17 47 -14 30z"/>
<path d="M2766 11605 c2 -16 13 -57 24 -90 11 -33 17 -46 14 -30 -2 17 -13 57
-24 90 -11 33 -17 47 -14 30z"/>
<path d="M2810 11444 c1 -18 58 -229 59 -216 1 15 -48 215 -55 221 -2 2 -4 0
-4 -5z"/>
<path d="M2903 11405 c0 -27 2 -38 4 -22 2 15 2 37 0 50 -2 12 -4 0 -4 -28z"/>
<path d="M3765 10940 c0 -228 1 -322 2 -207 2 114 2 300 0 415 -1 114 -2 20
-2 -208z"/>
<path d="M2893 11285 c0 -27 2 -38 4 -22 2 15 2 37 0 50 -2 12 -4 0 -4 -28z"/>
<path d="M2876 11168 c3 -24 10 -52 14 -63 5 -11 14 -36 19 -55 5 -19 10 -28
10 -19 1 9 -6 38 -14 65 -8 27 -15 61 -15 76 0 15 -5 30 -10 33 -7 4 -8 -8 -4
-37z"/>
<path d="M2873 11030 c0 -30 2 -43 4 -27 2 15 2 39 0 55 -2 15 -4 2 -4 -28z"/>
<path d="M2921 10994 c0 -11 3 -14 6 -6 3 7 2 16 -1 19 -3 4 -6 -2 -5 -13z"/>
<path d="M2931 10954 c0 -11 3 -14 6 -6 3 7 2 16 -1 19 -3 4 -6 -2 -5 -13z"/>
<path d="M2863 10905 c0 -33 2 -45 4 -27 2 18 2 45 0 60 -2 15 -4 0 -4 -33z"/>
<path d="M2946 10895 c3 -22 14 -74 24 -115 11 -41 17 -57 14 -35 -3 22 -14
74 -24 115 -11 41 -17 57 -14 35z"/>
<path d="M2853 10770 c0 -30 2 -43 4 -27 2 15 2 39 0 55 -2 15 -4 2 -4 -28z"/>
<path d="M2843 10650 c0 -30 2 -43 4 -27 2 15 2 39 0 55 -2 15 -4 2 -4 -28z"/>
<path d="M2992 10685 c0 -11 4 -31 8 -45 6 -20 8 -21 8 -5 0 11 -4 31 -8 45
-6 20 -8 21 -8 5z"/>
<path d="M3012 10595 c0 -11 4 -31 8 -45 6 -20 8 -21 8 -5 0 11 -4 31 -8 45
-6 20 -8 21 -8 5z"/>
<path d="M2833 10520 c0 -30 2 -43 4 -27 2 15 2 39 0 55 -2 15 -4 2 -4 -28z"/>
<path d="M3032 10500 c0 -14 2 -19 5 -12 2 6 2 18 0 25 -3 6 -5 1 -5 -13z"/>
<path d="M3774 10260 c0 -135 2 -190 3 -122 2 67 2 177 0 245 -1 67 -3 12 -3
-123z"/>
<path d="M3042 10450 c0 -14 2 -19 5 -12 2 6 2 18 0 25 -3 6 -5 1 -5 -13z"/>
<path d="M2823 10390 c0 -30 2 -43 4 -27 2 15 2 39 0 55 -2 15 -4 2 -4 -28z"/>
<path d="M3052 10400 c0 -14 4 -38 8 -55 7 -27 8 -27 8 -5 0 14 -4 39 -8 55
-7 27 -8 27 -8 5z"/>
<path d="M2813 10275 c0 -27 2 -38 4 -22 2 15 2 37 0 50 -2 12 -4 0 -4 -28z"/>
<path d="M3072 10290 c0 -14 2 -19 5 -12 2 6 2 18 0 25 -3 6 -5 1 -5 -13z"/>
<path d="M3082 10240 c0 -14 2 -19 5 -12 2 6 2 18 0 25 -3 6 -5 1 -5 -13z"/>
<path d="M2803 10160 c0 -30 2 -43 4 -27 2 15 2 39 0 55 -2 15 -4 2 -4 -28z"/>
<path d="M3091 10195 c0 -11 6 -47 13 -80 8 -33 14 -51 15 -40 0 11 -6 47 -13
80 -8 33 -14 51 -15 40z"/>
<path d="M2793 10045 c0 -27 2 -38 4 -22 2 15 2 37 0 50 -2 12 -4 0 -4 -28z"/>
<path d="M3122 10025 c0 -16 2 -22 5 -12 2 9 2 23 0 30 -3 6 -5 -1 -5 -18z"/>
<path d="M3784 9835 c0 -93 2 -133 3 -88 2 45 2 122 0 170 -1 48 -3 12 -3 -82z"/>
<path d="M3132 9965 c0 -16 2 -22 5 -12 2 9 2 23 0 30 -3 6 -5 -1 -5 -18z"/>
<path d="M2783 9940 c0 -25 2 -35 4 -22 2 12 2 32 0 45 -2 12 -4 2 -4 -23z"/>
<path d="M3142 9905 c0 -16 2 -22 5 -12 2 9 2 23 0 30 -3 6 -5 -1 -5 -18z"/>
<path d="M2773 9830 c0 -25 2 -35 4 -22 2 12 2 32 0 45 -2 12 -4 2 -4 -23z"/>
<path d="M3152 9845 c0 -16 4 -43 8 -60 11 -42 11 -1 1 50 -7 34 -9 35 -9 10z"/>
<path d="M2763 9730 c0 -25 2 -35 4 -22 2 12 2 32 0 45 -2 12 -4 2 -4 -23z"/>
<path d="M3172 9730 c0 -14 3 -45 7 -70 6 -34 9 -37 9 -15 1 17 -3 48 -7 70
-6 25 -9 31 -9 15z"/>
<path d="M2753 9635 c0 -22 2 -30 4 -17 2 12 2 30 0 40 -3 9 -5 -1 -4 -23z"/>
<path d="M3192 9580 c0 -19 2 -27 5 -17 2 9 2 25 0 35 -3 9 -5 1 -5 -18z"/>
<path d="M2743 9535 c0 -22 2 -30 4 -17 2 12 2 30 0 40 -3 9 -5 -1 -4 -23z"/>
<path d="M3202 9510 c0 -19 2 -27 5 -17 2 9 2 25 0 35 -3 9 -5 1 -5 -18z"/>
<path d="M2733 9445 c0 -22 2 -30 4 -17 2 12 2 30 0 40 -3 9 -5 -1 -4 -23z"/>
<path d="M3212 9440 c0 -19 2 -27 5 -17 2 9 2 25 0 35 -3 9 -5 1 -5 -18z"/>
<path d="M3222 9370 c0 -19 2 -27 5 -17 2 9 2 25 0 35 -3 9 -5 1 -5 -18z"/>
<path d="M2723 9355 c0 -22 2 -30 4 -17 2 12 2 30 0 40 -3 9 -5 -1 -4 -23z"/>
<path d="M3804 9250 c0 -69 1 -97 3 -62 2 34 2 90 0 125 -2 34 -3 6 -3 -63z"/>
<path d="M3233 9295 c0 -22 2 -30 4 -17 2 12 2 30 0 40 -3 9 -5 -1 -4 -23z"/>
<path d="M2713 9265 c0 -22 2 -30 4 -17 2 12 2 30 0 40 -3 9 -5 -1 -4 -23z"/>
<path d="M5254 9180 c0 -63 1 -89 3 -57 2 31 2 83 0 115 -2 31 -3 5 -3 -58z"/>
<path d="M3243 9200 c0 -25 2 -35 4 -22 2 12 2 32 0 45 -2 12 -4 2 -4 -23z"/>
<path d="M2703 9185 c0 -22 2 -30 4 -17 2 12 2 30 0 40 -3 9 -5 -1 -4 -23z"/>
<path d="M3253 9115 c0 -22 2 -30 4 -17 2 12 2 30 0 40 -3 9 -5 -1 -4 -23z"/>
<path d="M2692 9110 c0 -19 2 -27 5 -17 2 9 2 25 0 35 -3 9 -5 1 -5 -18z"/>
<path d="M3814 9000 c0 -69 1 -97 3 -62 2 34 2 90 0 125 -2 34 -3 6 -3 -63z"/>
<path d="M3263 9025 c0 -27 2 -38 4 -22 2 15 2 37 0 50 -2 12 -4 0 -4 -28z"/>
<path d="M5264 8765 c0 -165 2 -234 3 -153 2 81 2 216 0 300 -1 84 -3 18 -3
-147z"/>
<path d="M2682 9020 c0 -19 2 -27 5 -17 2 9 2 25 0 35 -3 9 -5 1 -5 -18z"/>
<path d="M2672 8950 c0 -19 2 -27 5 -17 2 9 2 25 0 35 -3 9 -5 1 -5 -18z"/>
<path d="M3273 8930 c0 -25 2 -35 4 -22 2 12 2 32 0 45 -2 12 -4 2 -4 -23z"/>
<path d="M2662 8880 c0 -19 2 -27 5 -17 2 9 2 25 0 35 -3 9 -5 1 -5 -18z"/>
<path d="M3283 8830 c0 -30 2 -43 4 -27 2 15 2 39 0 55 -2 15 -4 2 -4 -28z"/>
<path d="M3824 8750 c0 -69 1 -97 3 -62 2 34 2 90 0 125 -2 34 -3 6 -3 -63z"/>
<path d="M2652 8800 c0 -19 2 -27 5 -17 2 9 2 25 0 35 -3 9 -5 1 -5 -18z"/>
<path d="M2642 8730 c0 -19 2 -27 5 -17 2 9 2 25 0 35 -3 9 -5 1 -5 -18z"/>
<path d="M3293 8710 c0 -30 2 -43 4 -27 2 15 2 39 0 55 -2 15 -4 2 -4 -28z"/>
<path d="M2632 8660 c0 -19 2 -27 5 -17 2 9 2 25 0 35 -3 9 -5 1 -5 -18z"/>
<path d="M3303 8590 c0 -30 2 -43 4 -27 2 15 2 39 0 55 -2 15 -4 2 -4 -28z"/>
<path d="M2622 8590 c0 -19 2 -27 5 -17 2 9 2 25 0 35 -3 9 -5 1 -5 -18z"/>
<path d="M3834 8500 c0 -69 1 -97 3 -62 2 34 2 90 0 125 -2 34 -3 6 -3 -63z"/>
<path d="M2612 8525 c0 -16 2 -22 5 -12 2 9 2 23 0 30 -3 6 -5 -1 -5 -18z"/>
<path d="M3313 8450 c0 -41 2 -58 4 -37 2 20 2 54 0 75 -2 20 -4 3 -4 -38z"/>
<path d="M2602 8455 c0 -16 2 -22 5 -12 2 9 2 23 0 30 -3 6 -5 -1 -5 -18z"/>
<path d="M5254 8345 c0 -60 1 -84 3 -52 2 32 2 81 0 110 -2 29 -3 3 -3 -58z"/>
<path d="M2592 8395 c0 -16 2 -22 5 -12 2 9 2 23 0 30 -3 6 -5 -1 -5 -18z"/>
<path d="M3844 8235 c0 -77 2 -107 3 -67 2 40 2 103 0 140 -2 37 -3 4 -3 -73z"/>
<path d="M2582 8330 c0 -14 2 -19 5 -12 2 6 2 18 0 25 -3 6 -5 1 -5 -13z"/>
<path d="M3323 8280 c0 -41 2 -58 4 -37 2 20 2 54 0 75 -2 20 -4 3 -4 -38z"/>
<path d="M2572 8265 c0 -16 2 -22 5 -12 2 9 2 23 0 30 -3 6 -5 -1 -5 -18z"/>
<path d="M2562 8205 c0 -16 2 -22 5 -12 2 9 2 23 0 30 -3 6 -5 -1 -5 -18z"/>
<path d="M5242 8180 c-1 -30 -9 -129 -17 -220 -8 -91 -16 -199 -19 -240 -5
-74 -5 -74 4 -15 15 109 42 449 37 490 -3 35 -4 33 -5 -15z"/>
<path d="M2552 8145 c0 -16 2 -22 5 -12 2 9 2 23 0 30 -3 6 -5 -1 -5 -18z"/>
<path d="M3334 8055 c0 -66 1 -92 3 -57 2 34 2 88 0 120 -2 31 -3 3 -3 -63z"/>
<path d="M2542 8085 c0 -16 2 -22 5 -12 2 9 2 23 0 30 -3 6 -5 -1 -5 -18z"/>
<path d="M3854 7925 c0 -93 2 -133 3 -88 2 45 2 122 0 170 -1 48 -3 12 -3 -82z"/>
<path d="M2532 8025 c0 -16 2 -22 5 -12 2 9 2 23 0 30 -3 6 -5 -1 -5 -18z"/>
<path d="M2522 7965 c0 -16 2 -22 5 -12 2 9 2 23 0 30 -3 6 -5 -1 -5 -18z"/>
<path d="M2512 7910 c0 -14 2 -19 5 -12 2 6 2 18 0 25 -3 6 -5 1 -5 -13z"/>
<path d="M3345 7505 c0 -220 1 -309 2 -197 2 112 2 292 0 400 -1 108 -2 17 -2
-203z"/>
<path d="M2502 7850 c0 -14 2 -19 5 -12 2 6 2 18 0 25 -3 6 -5 1 -5 -13z"/>
<path d="M2492 7795 c0 -16 2 -22 5 -12 2 9 2 23 0 30 -3 6 -5 -1 -5 -18z"/>
<path d="M2482 7740 c0 -14 2 -19 5 -12 2 6 2 18 0 25 -3 6 -5 1 -5 -13z"/>
<path d="M3865 7215 c0 -297 1 -417 2 -267 2 150 2 393 0 540 -1 147 -2 24 -2
-273z"/>
<path d="M2472 7685 c0 -16 2 -22 5 -12 2 9 2 23 0 30 -3 6 -5 -1 -5 -18z"/>
<path d="M2462 7630 c0 -14 2 -19 5 -12 2 6 2 18 0 25 -3 6 -5 1 -5 -13z"/>
<path d="M5171 7460 c-26 -204 -33 -280 -27 -265 9 18 57 406 54 428 -2 12
-14 -61 -27 -163z"/>
<path d="M2452 7575 c0 -16 2 -22 5 -12 2 9 2 23 0 30 -3 6 -5 -1 -5 -18z"/>
<path d="M2442 7520 c0 -14 2 -19 5 -12 2 6 2 18 0 25 -3 6 -5 1 -5 -13z"/>
<path d="M2432 7470 c0 -14 2 -19 5 -12 2 6 2 18 0 25 -3 6 -5 1 -5 -13z"/>
<path d="M2422 7415 c0 -16 2 -22 5 -12 2 9 2 23 0 30 -3 6 -5 -1 -5 -18z"/>
<path d="M2412 7360 c0 -14 2 -19 5 -12 2 6 2 18 0 25 -3 6 -5 1 -5 -13z"/>
<path d="M2402 7310 c0 -14 2 -19 5 -12 2 6 2 18 0 25 -3 6 -5 1 -5 -13z"/>
<path d="M2392 7260 c0 -14 2 -19 5 -12 2 6 2 18 0 25 -3 6 -5 1 -5 -13z"/>
<path d="M2375 7185 c-3 -26 -4 -49 -2 -51 3 -3 8 16 12 41 3 26 4 49 2 51 -3
3 -8 -16 -12 -41z"/>
<path d="M5125 7125 c-3 -31 -5 -59 -2 -61 3 -3 8 20 12 51 3 31 5 59 2 61 -3
3 -8 -20 -12 -51z"/>
<path d="M2362 7100 c0 -14 2 -19 5 -12 2 6 2 18 0 25 -3 6 -5 1 -5 -13z"/>
<path d="M2352 7050 c0 -14 2 -19 5 -12 2 6 2 18 0 25 -3 6 -5 1 -5 -13z"/>
<path d="M3334 6955 c0 -66 1 -92 3 -57 2 34 2 88 0 120 -2 31 -3 3 -3 -63z"/>
<path d="M5081 6850 c-18 -111 -31 -204 -28 -206 5 -6 70 383 65 397 -2 5 -18
-80 -37 -191z"/>
<path d="M2342 7000 c0 -14 2 -19 5 -12 2 6 2 18 0 25 -3 6 -5 1 -5 -13z"/>
<path d="M2332 6950 c0 -14 2 -19 5 -12 2 6 2 18 0 25 -3 6 -5 1 -5 -13z"/>
<path d="M2322 6900 c0 -14 2 -19 5 -12 2 6 2 18 0 25 -3 6 -5 1 -5 -13z"/>
<path d="M2312 6850 c0 -14 2 -19 5 -12 2 6 2 18 0 25 -3 6 -5 1 -5 -13z"/>
<path d="M2302 6790 c0 -14 2 -19 5 -12 2 6 2 18 0 25 -3 6 -5 1 -5 -13z"/>
<path d="M3324 6720 c0 -52 1 -74 3 -47 2 26 2 68 0 95 -2 26 -3 4 -3 -48z"/>
<path d="M2292 6740 c0 -14 2 -19 5 -12 2 6 2 18 0 25 -3 6 -5 1 -5 -13z"/>
<path d="M2282 6690 c0 -14 2 -19 5 -12 2 6 2 18 0 25 -3 6 -5 1 -5 -13z"/>
<path d="M3847 6461 c-5 -117 -6 -215 -4 -218 6 -6 20 352 15 397 -2 19 -7
-61 -11 -179z"/>
<path d="M2272 6640 c0 -14 2 -19 5 -12 2 6 2 18 0 25 -3 6 -5 1 -5 -13z"/>
<path d="M5026 6529 c-10 -55 -16 -102 -13 -105 2 -2 12 41 22 96 9 56 15 103
13 105 -3 3 -12 -40 -22 -96z"/>
<path d="M2262 6590 c0 -14 2 -19 5 -12 2 6 2 18 0 25 -3 6 -5 1 -5 -13z"/>
<path d="M3313 6540 c0 -36 2 -50 4 -32 2 17 2 47 0 65 -2 17 -4 3 -4 -33z"/>
<path d="M2252 6540 c0 -14 2 -19 5 -12 2 6 2 18 0 25 -3 6 -5 1 -5 -13z"/>
<path d="M2242 6490 c0 -14 2 -19 5 -12 2 6 2 18 0 25 -3 6 -5 1 -5 -13z"/>
<path d="M2232 6435 c0 -16 2 -22 5 -12 2 9 2 23 0 30 -3 6 -5 -1 -5 -18z"/>
<path d="M3303 6400 c0 -36 2 -50 4 -32 2 17 2 47 0 65 -2 17 -4 3 -4 -33z"/>
<path d="M4995 6365 c-3 -26 -4 -49 -2 -51 3 -3 8 16 12 41 3 26 4 49 2 51 -3
3 -8 -16 -12 -41z"/>
<path d="M2222 6380 c0 -14 2 -19 5 -12 2 6 2 18 0 25 -3 6 -5 1 -5 -13z"/>
<path d="M2212 6330 c0 -14 2 -19 5 -12 2 6 2 18 0 25 -3 6 -5 1 -5 -13z"/>
<path d="M3293 6265 c0 -33 2 -45 4 -27 2 18 2 45 0 60 -2 15 -4 0 -4 -33z"/>
<path d="M2202 6280 c0 -14 2 -19 5 -12 2 6 2 18 0 25 -3 6 -5 1 -5 -13z"/>
<path d="M4946 6094 c-21 -113 -36 -207 -34 -209 2 -3 21 88 42 201 21 113 36
207 34 209 -2 3 -21 -88 -42 -201z"/>
<path d="M2192 6225 c0 -16 2 -22 5 -12 2 9 2 23 0 30 -3 6 -5 -1 -5 -18z"/>
<path d="M2182 6170 c0 -14 2 -19 5 -12 2 6 2 18 0 25 -3 6 -5 1 -5 -13z"/>
<path d="M3283 6140 c0 -30 2 -43 4 -27 2 15 2 39 0 55 -2 15 -4 2 -4 -28z"/>
<path d="M2172 6120 c0 -14 2 -19 5 -12 2 6 2 18 0 25 -3 6 -5 1 -5 -13z"/>
<path d="M2162 6060 c0 -14 2 -19 5 -12 2 6 2 18 0 25 -3 6 -5 1 -5 -13z"/>
<path d="M3273 6035 c0 -27 2 -38 4 -22 2 15 2 37 0 50 -2 12 -4 0 -4 -28z"/>
<path d="M2152 6005 c0 -16 2 -22 5 -12 2 9 2 23 0 30 -3 6 -5 -1 -5 -18z"/>
<path d="M2142 5950 c0 -14 2 -19 5 -12 2 6 2 18 0 25 -3 6 -5 1 -5 -13z"/>
<path d="M3263 5925 c0 -27 2 -38 4 -22 2 15 2 37 0 50 -2 12 -4 0 -4 -28z"/>
<path d="M2132 5890 c0 -14 2 -19 5 -12 2 6 2 18 0 25 -3 6 -5 1 -5 -13z"/>
<path d="M4870 5685 c-18 -102 -31 -188 -28 -190 2 -2 19 79 37 181 18 102 31
188 28 190 -2 2 -19 -79 -37 -181z"/>
<path d="M2122 5835 c0 -16 2 -22 5 -12 2 9 2 23 0 30 -3 6 -5 -1 -5 -18z"/>
<path d="M3253 5820 c0 -25 2 -35 4 -22 2 12 2 32 0 45 -2 12 -4 2 -4 -23z"/>
<path d="M2112 5775 c0 -16 2 -22 5 -12 2 9 2 23 0 30 -3 6 -5 -1 -5 -18z"/>
<path d="M3243 5730 c0 -25 2 -35 4 -22 2 12 2 32 0 45 -2 12 -4 2 -4 -23z"/>
<path d="M2102 5715 c0 -16 2 -22 5 -12 2 9 2 23 0 30 -3 6 -5 -1 -5 -18z"/>
<path d="M2092 5655 c0 -16 2 -22 5 -12 2 9 2 23 0 30 -3 6 -5 -1 -5 -18z"/>
<path d="M3233 5640 c0 -25 2 -35 4 -22 2 12 2 32 0 45 -2 12 -4 2 -4 -23z"/>
<path d="M2082 5595 c0 -16 2 -22 5 -12 2 9 2 23 0 30 -3 6 -5 -1 -5 -18z"/>
<path d="M3223 5550 c0 -25 2 -35 4 -22 2 12 2 32 0 45 -2 12 -4 2 -4 -23z"/>
<path d="M2072 5525 c0 -16 2 -22 5 -12 2 9 2 23 0 30 -3 6 -5 -1 -5 -18z"/>
<path d="M3213 5465 c0 -22 2 -30 4 -17 2 12 2 30 0 40 -3 9 -5 -1 -4 -23z"/>
<path d="M2062 5460 c0 -19 2 -27 5 -17 2 9 2 25 0 35 -3 9 -5 1 -5 -18z"/>
<path d="M4832 5455 c0 -16 2 -22 5 -12 2 9 2 23 0 30 -3 6 -5 -1 -5 -18z"/>
<path d="M2052 5390 c0 -19 2 -27 5 -17 2 9 2 25 0 35 -3 9 -5 1 -5 -18z"/>
<path d="M3203 5380 c0 -25 2 -35 4 -22 2 12 2 32 0 45 -2 12 -4 2 -4 -23z"/>
<path d="M4816 5369 c-4 -28 -5 -53 -3 -56 3 -2 8 19 12 47 4 28 5 53 2 56 -2
3 -7 -19 -11 -47z"/>
<path d="M2042 5320 c0 -19 2 -27 5 -17 2 9 2 25 0 35 -3 9 -5 1 -5 -18z"/>
<path d="M3185 5265 c-4 -37 -5 -69 -2 -71 2 -3 8 25 12 61 4 37 5 69 2 71 -2
3 -8 -25 -12 -61z"/>
<path d="M4795 5245 c-3 -31 -5 -59 -2 -61 3 -3 8 20 12 51 3 31 5 59 2 61 -3
3 -8 -20 -12 -51z"/>
<path d="M2032 5240 c0 -19 2 -27 5 -17 2 9 2 25 0 35 -3 9 -5 1 -5 -18z"/>
<path d="M2023 5165 c0 -22 2 -30 4 -17 2 12 2 30 0 40 -3 9 -5 -1 -4 -23z"/>
<path d="M3172 5140 c0 -19 2 -27 5 -17 2 9 2 25 0 35 -3 9 -5 1 -5 -18z"/>
<path d="M4765 5035 c-10 -74 -16 -138 -13 -140 2 -3 12 56 22 131 10 75 15
138 13 140 -2 3 -12 -56 -22 -131z"/>
<path d="M2013 5075 c0 -22 2 -30 4 -17 2 12 2 30 0 40 -3 9 -5 -1 -4 -23z"/>
<path d="M3163 5065 c0 -22 2 -30 4 -17 2 12 2 30 0 40 -3 9 -5 -1 -4 -23z"/>
<path d="M2003 4985 c0 -22 2 -30 4 -17 2 12 2 30 0 40 -3 9 -5 -1 -4 -23z"/>
<path d="M3152 4990 c0 -19 2 -27 5 -17 2 9 2 25 0 35 -3 9 -5 1 -5 -18z"/>
<path d="M3143 4915 c0 -22 2 -30 4 -17 2 12 2 30 0 40 -3 9 -5 -1 -4 -23z"/>
<path d="M1993 4875 c0 -27 2 -38 4 -22 2 15 2 37 0 50 -2 12 -4 0 -4 -28z"/>
<path d="M3132 4840 c0 -19 2 -27 5 -17 2 9 2 25 0 35 -3 9 -5 1 -5 -18z"/>
<path d="M1983 4755 c0 -33 2 -45 4 -27 2 18 2 45 0 60 -2 15 -4 0 -4 -33z"/>
<path d="M3123 4765 c0 -22 2 -30 4 -17 2 12 2 30 0 40 -3 9 -5 -1 -4 -23z"/>
<path d="M3112 4690 c0 -19 2 -27 5 -17 2 9 2 25 0 35 -3 9 -5 1 -5 -18z"/>
<path d="M1973 4595 c0 -44 2 -61 4 -37 2 23 2 59 0 80 -2 20 -4 1 -4 -43z"/>
<path d="M3102 4620 c0 -19 2 -27 5 -17 2 9 2 25 0 35 -3 9 -5 1 -5 -18z"/>
<path d="M3093 4545 c0 -22 2 -30 4 -17 2 12 2 30 0 40 -3 9 -5 -1 -4 -23z"/>
<path d="M3076 4439 c-4 -33 -5 -63 -3 -66 3 -2 8 23 12 57 4 34 5 63 2 66 -2
3 -7 -23 -11 -57z"/>
<path d="M1964 4290 c0 -102 2 -143 3 -92 2 50 2 134 0 185 -1 50 -3 9 -3 -93z"/>
<path d="M2974 3425 c0 -49 1 -71 3 -48 2 23 2 64 0 90 -2 26 -3 8 -3 -42z"/>
<path d="M2964 3150 c0 -85 2 -120 3 -77 2 42 2 112 0 155 -1 42 -3 7 -3 -78z"/>
<path d="M2973 2890 c0 -41 2 -58 4 -37 2 20 2 54 0 75 -2 20 -4 3 -4 -38z"/>
<path d="M2983 2760 c0 -25 2 -35 4 -22 2 12 2 32 0 45 -2 12 -4 2 -4 -23z"/>
<path d="M2992 2680 c0 -19 2 -27 5 -17 2 9 2 25 0 35 -3 9 -5 1 -5 -18z"/>
<path d="M3002 2610 c0 -19 2 -27 5 -17 2 9 2 25 0 35 -3 9 -5 1 -5 -18z"/>
<path d="M3012 2545 c0 -16 2 -22 5 -12 2 9 2 23 0 30 -3 6 -5 -1 -5 -18z"/>
<path d="M3022 2490 c0 -14 2 -19 5 -12 2 6 2 18 0 25 -3 6 -5 1 -5 -13z"/>
<path d="M3032 2445 c0 -11 4 -31 8 -45 6 -20 8 -21 8 -5 0 11 -4 31 -8 45 -6
20 -8 21 -8 5z"/>
<path d="M3051 2354 c0 -11 3 -14 6 -6 3 7 2 16 -1 19 -3 4 -6 -2 -5 -13z"/>
<path d="M3066 2300 c4 -19 11 -44 15 -55 6 -14 7 -9 3 15 -4 19 -11 44 -15
55 -6 14 -7 9 -3 -15z"/>
<path d="M3101 2184 c-1 -15 40 -136 45 -131 2 2 -7 35 -20 73 -14 38 -25 64
-25 58z"/>
<path d="M3160 2005 c0 -5 5 -17 10 -25 5 -8 10 -10 10 -5 0 6 -5 17 -10 25
-5 8 -10 11 -10 5z"/>
<path d="M3283 1800 c0 -30 2 -43 4 -27 2 15 2 39 0 55 -2 15 -4 2 -4 -28z"/>
</g>
</svg>
