<?xml version="1.0" standalone="no"?>
<!DOCTYPE svg PUBLIC "-//W3C//DTD SVG 20010904//EN"
 "http://www.w3.org/TR/2001/REC-SVG-20010904/DTD/svg10.dtd">
<svg version="1.0" xmlns="http://www.w3.org/2000/svg"
 width="1280.000000pt" height="984.000000pt" viewBox="0 0 1280.000000 984.000000"
 preserveAspectRatio="xMidYMid meet">
<metadata>
Created by potrace 1.15, written by Peter Selinger 2001-2017
</metadata>
<g transform="translate(0.000000,984.000000) scale(0.100000,-0.100000)"
fill="#000000" stroke="none">
<path d="M3427 9818 c-8 -13 -49 -121 -93 -241 -63 -176 -81 -216 -94 -211 -8
4 -26 7 -40 8 -14 1 -39 11 -57 24 -17 12 -37 22 -45 22 -8 0 -19 5 -25 11
-14 14 -102 19 -133 6 -74 -30 -95 -42 -140 -87 -27 -27 -63 -71 -80 -98 -31
-50 -64 -71 -230 -145 -58 -26 -175 -57 -214 -57 -39 0 -45 -14 -26 -64 9 -24
13 -25 62 -20 29 3 62 9 73 14 11 4 43 15 70 23 l50 16 -28 -24 c-15 -14 -46
-29 -70 -35 -23 -6 -50 -15 -59 -20 -10 -6 -23 -10 -30 -10 -7 0 -33 -11 -58
-25 -25 -13 -53 -27 -62 -31 -26 -9 -29 -31 -10 -64 19 -33 33 -37 52 -14 11
12 72 44 86 44 5 0 -55 -110 -67 -124 -4 -5 -36 -11 -71 -13 -56 -4 -66 -8
-90 -36 -15 -18 -23 -36 -18 -41 5 -5 41 -9 79 -10 39 0 71 -3 71 -6 0 -10
-52 -197 -71 -255 l-19 -60 -98 -48 c-53 -26 -112 -60 -131 -76 l-35 -29 32
-16 c35 -18 63 -21 77 -7 15 14 84 51 96 51 5 0 -2 -21 -18 -47 -69 -121 -148
-210 -309 -348 -143 -124 -166 -156 -198 -280 -41 -159 -39 -421 4 -504 22
-45 65 -78 115 -92 30 -9 47 -4 146 41 62 27 114 48 116 47 2 -2 -24 -25 -57
-51 -33 -26 -60 -50 -60 -52 0 -11 34 -71 58 -102 58 -77 189 -142 286 -142
59 0 137 42 184 98 21 26 65 85 98 132 146 210 204 235 572 243 143 4 192 2
190 -7 -2 -6 20 -59 49 -116 97 -196 137 -356 148 -591 15 -314 84 -678 206
-1094 121 -409 223 -630 339 -739 l50 -47 -20 -222 c-22 -231 -48 -437 -74
-569 -16 -84 -49 -168 -65 -168 -17 0 -82 -61 -107 -101 -35 -56 -64 -152 -64
-213 0 -80 -36 -277 -71 -391 -37 -120 -76 -199 -139 -285 -57 -77 -89 -140
-120 -232 -12 -38 -26 -68 -31 -68 -98 0 -2076 356 -2864 515 -284 58 -353 64
-412 40 -34 -14 -35 -17 -30 -55 7 -52 95 -234 184 -380 38 -63 83 -137 99
-163 l29 -49 45 6 45 6 2 -39 c5 -82 90 -248 265 -517 l85 -131 129 5 c205 7
309 -20 518 -137 110 -61 154 -90 79 -52 -56 28 -210 36 -265 14 -21 -8 -38
-19 -38 -24 0 -10 2 -10 160 -40 189 -35 297 -77 335 -131 19 -29 19 -87 0
-116 -23 -32 -89 -68 -191 -103 -49 -17 -111 -40 -137 -51 -44 -19 -47 -22
-32 -38 25 -27 66 -31 162 -13 68 13 149 17 358 17 359 0 501 -19 1110 -154
437 -97 860 -178 871 -167 3 2 -69 19 -158 36 -90 18 -210 44 -268 58 -58 14
-114 27 -125 28 -11 1 -22 4 -25 5 -6 3 -34 7 -68 9 -15 1 -21 5 -16 13 5 8 2
9 -10 5 -23 -9 -68 2 -60 15 4 6 -2 7 -16 3 -16 -5 -20 -4 -15 5 5 9 2 10 -13
6 -11 -4 -23 -2 -27 4 -3 6 -11 8 -16 5 -5 -4 -9 -1 -9 4 0 6 -3 10 -7 9 -11
-3 -304 95 -299 99 2 2 46 -9 97 -26 328 -105 809 -224 1157 -287 52 -9 89
-20 84 -23 -6 -3 11 -6 36 -6 26 0 142 -15 257 -32 375 -57 633 -83 1125 -114
96 -6 393 -11 660 -11 567 0 842 13 1303 63 103 11 193 19 199 17 7 -3 -63
-13 -155 -23 -92 -10 -165 -20 -163 -23 4 -3 302 12 711 38 88 6 198 12 245
15 126 8 607 43 745 55 492 42 1077 126 1395 200 147 34 457 103 730 161 345
75 648 154 888 231 51 16 100 27 108 24 8 -3 13 -2 9 3 -3 5 12 15 32 22 109
35 193 72 193 85 0 7 -11 21 -25 30 -14 9 -22 21 -18 27 3 5 2 7 -4 4 -5 -3
-25 -1 -44 5 -36 10 -90 -1 -257 -54 -34 -11 -69 -17 -78 -14 -8 3 -13 2 -10
-3 3 -4 -32 -20 -77 -36 -45 -15 -211 -76 -370 -136 -311 -118 -382 -135 -507
-126 -151 12 -261 51 -474 169 -90 50 -140 72 -164 72 -32 0 -28 3 39 35 41
19 223 108 404 197 437 215 643 333 960 549 210 144 198 139 321 130 148 -10
198 6 281 91 77 78 138 199 209 408 54 160 54 181 1 220 -24 18 -42 21 -125
21 -112 0 -82 9 -582 -183 -710 -272 -1011 -383 -1270 -466 -124 -40 -643
-182 -809 -221 l-53 -13 5 43 c14 101 26 114 163 184 183 94 360 196 524 302
l145 94 135 0 c119 1 140 3 176 22 98 52 192 208 274 451 57 168 56 172 -65
197 -113 24 -150 17 -453 -86 -539 -184 -972 -328 -1004 -334 l-35 -7 -7 116
c-4 63 -4 138 0 166 l7 51 59 -121 60 -120 44 0 c24 0 44 3 44 7 0 5 -43 92
-95 195 l-95 187 10 69 c9 56 8 82 -6 143 -27 118 -29 149 -10 149 24 0 42 90
51 253 4 86 11 95 14 20 1 -32 4 -71 6 -88 2 -16 6 -52 10 -80 10 -80 25 -145
52 -223 25 -70 26 -79 19 -220 -4 -81 -9 -174 -12 -208 l-6 -61 37 -21 c20
-12 37 -22 39 -22 2 0 9 69 15 153 7 83 14 153 15 154 1 2 29 -50 62 -115 l59
-117 43 -3 c23 -2 42 1 42 5 0 5 -47 103 -104 218 -113 228 -109 213 -131 460
-3 33 -8 78 -11 100 -3 22 -7 51 -9 65 -16 131 -37 290 -41 310 -2 14 -6 61
-9 105 l-6 80 21 -50 c12 -27 27 -63 35 -80 77 -170 101 -295 104 -553 1 -57
3 -63 26 -72 24 -9 31 -30 25 -83 -1 -16 51 -47 80 -47 10 0 9 57 -5 290 -8
131 -45 251 -173 561 -108 259 -112 274 -106 434 9 228 9 891 1 1010 -16 219
-41 344 -93 453 -67 141 -158 209 -264 199 -67 -6 -100 -22 -175 -82 -30 -25
-63 -46 -74 -48 -14 -1 -35 22 -78 88 -149 225 -298 350 -501 419 -117 40
-208 50 -329 35 -89 -10 -106 -10 -114 2 -5 8 -8 100 -7 204 2 269 1 271 -192
269 -124 -1 -196 -24 -253 -79 -62 -61 -66 -133 -12 -261 31 -76 20 -90 -145
-173 -305 -156 -611 -242 -865 -243 -128 -1 -196 10 -355 59 -161 48 -302 110
-465 203 -106 61 -148 80 -177 80 -41 0 -63 -24 -51 -56 5 -15 1 -16 -33 -10
-21 4 -56 19 -76 33 -44 30 -195 198 -314 348 l-84 108 0 101 c0 148 -27 224
-89 253 -32 16 -37 16 -80 0 -25 -10 -50 -19 -56 -20 -6 -1 -10 27 -11 69 -1
87 -20 123 -78 150 -22 10 -42 26 -42 34 -1 8 -2 30 -3 48 -1 27 -6 35 -31 43
-37 13 -37 19 -4 58 29 34 25 51 -12 51 -14 0 -23 3 -20 8 2 4 7 51 11 106 7
98 7 98 -21 127 -21 22 -37 29 -66 29 -37 0 -38 1 -31 28 5 15 8 67 8 115 0
85 -1 90 -28 113 -15 13 -37 24 -48 24 -10 0 -19 7 -19 15 0 11 -8 15 -27 13
-27 -3 -28 -2 -30 52 -5 119 -23 188 -58 225 -27 30 -39 35 -77 35 -38 0 -46
4 -61 30 -23 38 -64 60 -130 67 -29 3 -85 21 -125 40 -49 23 -85 33 -107 31
-23 -1 -44 5 -64 20 -17 12 -37 22 -46 22 -12 0 -15 14 -15 73 0 160 -43 459
-71 493 -27 33 -49 7 -82 -98 -7 -21 -14 -38 -17 -38 -3 0 -11 32 -18 71 -13
72 -35 129 -52 129 -5 0 -16 -10 -23 -22z m-349 -482 c15 -15 13 -16 -23 -16
-22 0 -76 -9 -120 -19 -44 -11 -81 -18 -83 -16 -4 4 76 59 98 68 27 11 111 0
128 -17z m1186 -438 c9 -12 16 -26 16 -31 0 -13 -29 12 -41 35 -14 26 6 23 25
-4z m186 -346 c0 -15 -2 -15 -10 -2 -13 20 -13 33 0 25 6 -3 10 -14 10 -23z
m110 -279 c0 -22 -2 -25 -10 -13 -13 20 -13 40 0 40 6 0 10 -12 10 -27z m391
-699 c5 -15 8 -27 7 -28 -2 -1 -12 -8 -22 -16 -18 -14 -19 -13 -13 2 3 10 0
24 -8 31 -10 11 -11 17 -2 26 17 17 27 13 38 -15z m4482 -1246 c34 -24 40 -29
72 -67 l20 -24 -22 14 c-13 8 -23 17 -23 21 0 4 -14 15 -32 24 -24 12 -49 15
-100 12 -77 -6 -96 5 -46 27 48 21 95 18 131 -7z m-9 -119 c14 -11 26 -25 26
-32 0 -6 -6 -4 -12 5 -7 9 -26 23 -43 32 -17 9 -23 15 -14 16 9 0 28 -9 43
-21z m110 5 c3 -8 2 -12 -4 -9 -6 3 -10 10 -10 16 0 14 7 11 14 -7z m49 -140
c14 -60 20 -99 33 -199 9 -73 16 -287 16 -458 0 -400 -3 -524 -13 -492 -12 41
-27 161 -33 270 -3 50 -9 146 -13 215 -7 128 -7 151 -2 465 2 146 0 192 -14
241 -20 74 -21 88 -3 53 7 -14 20 -57 29 -95z m-324 0 c27 -34 26 -44 -2 -44
-14 0 -29 10 -40 29 -27 47 7 59 42 15z m75 -167 c3 -18 8 -50 11 -72 l5 -40
-14 36 c-7 19 -23 54 -35 76 -15 30 -17 43 -8 46 19 7 34 -11 41 -46z m48
-543 c-6 -35 -12 -29 -12 14 0 23 3 32 9 24 4 -7 6 -24 3 -38z m-68 -496 c4
-37 8 -73 11 -80 2 -7 6 -31 9 -53 2 -22 11 -71 20 -108 13 -56 16 -125 14
-386 l-3 -318 -34 61 c-19 34 -50 95 -70 136 l-36 75 2 130 c1 72 6 168 12
215 12 99 63 401 67 397 1 -1 5 -32 8 -69z m251 -222 c3 -28 7 -58 10 -66 4
-14 7 -39 21 -155 3 -27 8 -54 11 -58 6 -10 17 -344 10 -337 -2 3 -7 39 -10
80 -9 102 -15 142 -46 305 -15 77 -26 154 -25 170 1 17 3 62 4 100 1 56 3 64
10 41 5 -15 11 -51 15 -80z m-1755 -588 c80 -84 174 -178 210 -208 35 -30 86
-77 113 -104 101 -104 271 -366 348 -536 26 -58 76 -157 113 -220 98 -169 109
-202 114 -347 2 -68 1 -123 -2 -123 -3 0 -84 -20 -178 -45 -736 -190 -1521
-310 -2338 -356 -292 -16 -1048 -13 -1370 5 -456 27 -478 29 -491 37 -10 6 -1
44 39 167 73 219 128 335 228 484 107 158 130 214 143 343 12 114 23 151 82
268 59 118 107 198 247 415 94 146 128 191 141 188 98 -30 337 -67 491 -76
434 -25 1184 74 1960 259 3 0 71 -68 150 -151z m2213 -3043 c-21 -10 -35 -25
-43 -49 -53 -162 -233 -239 -675 -290 -168 -20 -196 -24 -280 -41 -173 -35
-368 -65 -387 -59 -15 4 -18 3 -13 -6 5 -8 4 -11 -2 -7 -6 4 -76 -7 -156 -23
-323 -65 -684 -126 -693 -117 -2 2 46 12 108 21 611 91 1370 291 2008 530 136
51 205 72 133 41z m-7363 -185 c18 -12 2 -12 -25 0 -13 6 -15 9 -5 9 8 0 22
-4 30 -9z m5099 -414 c-2 -2 -35 -6 -74 -9 -45 -3 -58 -3 -35 2 37 9 116 14
109 7z"/>
<path d="M8775 610 c-16 -7 -17 -9 -3 -9 9 -1 20 4 23 9 7 11 7 11 -20 0z"/>
<path d="M8708 593 c6 -2 18 -2 25 0 6 3 1 5 -13 5 -14 0 -19 -2 -12 -5z"/>
<path d="M8668 583 c7 -3 16 -2 19 1 4 3 -2 6 -13 5 -11 0 -14 -3 -6 -6z"/>
<path d="M3843 503 c9 -2 23 -2 30 0 6 3 -1 5 -18 5 -16 0 -22 -2 -12 -5z"/>
<path d="M3898 493 c6 -2 18 -2 25 0 6 3 1 5 -13 5 -14 0 -19 -2 -12 -5z"/>
<path d="M3948 483 c6 -2 18 -2 25 0 6 3 1 5 -13 5 -14 0 -19 -2 -12 -5z"/>
<path d="M4128 453 c7 -3 16 -2 19 1 4 3 -2 6 -13 5 -11 0 -14 -3 -6 -6z"/>
<path d="M4260 430 c8 -5 26 -10 39 -10 32 0 24 6 -19 14 -25 4 -31 3 -20 -4z"/>
<path d="M4390 410 c14 -4 36 -8 50 -8 22 0 22 1 -5 8 -16 4 -39 8 -50 8 -16
0 -15 -2 5 -8z"/>
<path d="M4478 393 c7 -3 16 -2 19 1 4 3 -2 6 -13 5 -11 0 -14 -3 -6 -6z"/>
<path d="M4523 393 c9 -2 23 -2 30 0 6 3 -1 5 -18 5 -16 0 -22 -2 -12 -5z"/>
<path d="M4583 383 c9 -2 23 -2 30 0 6 3 -1 5 -18 5 -16 0 -22 -2 -12 -5z"/>
<path d="M4668 373 c12 -2 32 -2 45 0 12 2 2 4 -23 4 -25 0 -35 -2 -22 -4z"/>
<path d="M4753 363 c9 -2 25 -2 35 0 9 3 1 5 -18 5 -19 0 -27 -2 -17 -5z"/>
<path d="M4853 353 c15 -2 37 -2 50 0 12 2 0 4 -28 4 -27 0 -38 -2 -22 -4z"/>
<path d="M4958 343 c12 -2 32 -2 45 0 12 2 2 4 -23 4 -25 0 -35 -2 -22 -4z"/>
<path d="M7125 340 l-80 -6 90 -1 c50 -1 101 3 115 7 22 7 21 8 -10 7 -19 0
-71 -4 -115 -7z"/>
<path d="M5098 333 c12 -2 32 -2 45 0 12 2 2 4 -23 4 -25 0 -35 -2 -22 -4z"/>
<path d="M5213 323 c15 -2 39 -2 55 0 15 2 2 4 -28 4 -30 0 -43 -2 -27 -4z"/>
<path d="M6948 323 c17 -2 47 -2 65 0 17 2 3 4 -33 4 -36 0 -50 -2 -32 -4z"/>
<path d="M5408 313 c17 -2 47 -2 65 0 17 2 3 4 -33 4 -36 0 -50 -2 -32 -4z"/>
<path d="M6737 313 c18 -2 50 -2 70 0 21 2 7 4 -32 4 -38 0 -55 -2 -38 -4z"/>
<path d="M5583 303 c26 -2 68 -2 95 0 26 2 4 3 -48 3 -52 0 -74 -1 -47 -3z"/>
<path d="M6493 303 c32 -2 81 -2 110 0 29 2 3 3 -58 3 -60 0 -84 -1 -52 -3z"/>
<path d="M6043 293 c26 -2 67 -2 90 0 23 2 2 3 -48 3 -49 0 -68 -1 -42 -3z"/>
</g>
</svg>
