<?xml version="1.0" standalone="no"?>
<!DOCTYPE svg PUBLIC "-//W3C//DTD SVG 20010904//EN"
 "http://www.w3.org/TR/2001/REC-SVG-20010904/DTD/svg10.dtd">
<svg version="1.0" xmlns="http://www.w3.org/2000/svg"
 width="640.000000pt" height="1280.000000pt" viewBox="0 0 640.000000 1280.000000"
 preserveAspectRatio="xMidYMid meet">
<metadata>
Created by potrace 1.15, written by Peter Selinger 2001-2017
</metadata>
<g transform="translate(0.000000,1280.000000) scale(0.100000,-0.100000)"
fill="#000000" stroke="none">
<path d="M2510 12794 c-47 -2 -218 -8 -380 -14 -1124 -40 -1976 -154 -2102
-281 l-28 -27 0 -327 c0 -205 4 -333 10 -346 12 -21 71 -54 145 -79 l50 -17 2
-94 c29 -1321 205 -2214 579 -2938 l74 -144 0 -2126 0 -2126 -93 -185 c-108
-213 -174 -377 -251 -622 -101 -320 -190 -735 -226 -1053 -5 -49 -14 -128 -20
-175 -30 -269 -60 -766 -60 -1006 l0 -132 -53 -17 c-67 -22 -134 -60 -147 -85
-13 -25 -14 -655 0 -680 73 -136 918 -254 2160 -302 416 -16 1672 -16 2055 0
981 41 1634 110 1973 208 94 27 136 47 170 77 22 20 22 21 22 358 l0 337 -29
24 c-38 32 -114 63 -231 92 l-95 24 -6 278 c-3 154 -9 317 -13 364 -4 47 -11
141 -17 210 -48 600 -159 1164 -315 1605 -47 133 -146 369 -190 456 l-24 48 0
2299 0 2299 54 114 c318 668 475 1483 512 2645 l7 212 91 22 c112 27 181 54
224 86 l32 25 0 339 c0 387 8 354 -98 402 -149 68 -646 152 -1077 183 -44 3
-100 8 -125 10 -100 9 -539 36 -765 46 -226 10 -1632 20 -1815 13z m2580
-6396 l0 -1713 -52 60 c-126 148 -385 389 -643 600 -407 331 -540 468 -640
658 -54 103 -80 188 -96 314 -10 85 -10 111 5 197 55 323 184 494 665 884 113
92 258 212 321 268 118 103 338 325 399 402 19 23 36 42 38 42 2 0 3 -771 3
-1712z m-3370 1147 c96 -82 195 -166 221 -187 25 -20 101 -89 168 -153 228
-220 331 -393 381 -637 25 -121 25 -220 1 -340 -32 -161 -93 -293 -201 -436
-104 -137 -175 -205 -545 -518 -110 -93 -271 -240 -357 -327 l-158 -158 0
1611 0 1611 158 -158 c86 -87 236 -226 332 -308z"/>
</g>
</svg>
