<?xml version="1.0" standalone="no"?>
<!DOCTYPE svg PUBLIC "-//W3C//DTD SVG 20010904//EN"
 "http://www.w3.org/TR/2001/REC-SVG-20010904/DTD/svg10.dtd">
<svg version="1.0" xmlns="http://www.w3.org/2000/svg"
 width="1280.000000pt" height="1280.000000pt" viewBox="0 0 1280.000000 1280.000000"
 preserveAspectRatio="xMidYMid meet">
<metadata>
Created by potrace 1.15, written by Peter Selinger 2001-2017
</metadata>
<g transform="translate(0.000000,1280.000000) scale(0.100000,-0.100000)"
fill="#000000" stroke="none">
<path d="M6585 9404 c-16 -2 -86 -9 -155 -15 -69 -6 -201 -23 -295 -39 -874
-146 -1678 -552 -2320 -1172 -347 -335 -604 -678 -855 -1143 -238 -441 -344
-708 -413 -1040 l-23 -109 -71 -17 c-109 -27 -188 -72 -269 -153 -82 -83 -126
-164 -150 -276 -22 -109 -16 -811 9 -883 61 -178 175 -296 356 -366 l66 -26
3180 -3 c2337 -2 3198 0 3248 9 100 16 216 77 292 154 76 76 140 197 155 295
16 107 13 741 -5 825 -44 207 -204 370 -417 424 l-72 18 -23 109 c-114 549
-387 1070 -792 1514 -33 36 -58 66 -56 68 1 2 77 -13 167 -33 691 -148 1315
-454 1873 -916 129 -107 417 -395 524 -524 94 -114 200 -253 256 -338 l38 -58
-24 -16 c-60 -40 -156 -152 -192 -225 -120 -243 -77 -517 113 -709 245 -248
623 -248 870 1 121 121 180 261 180 430 0 168 -58 308 -180 431 -91 93 -205
154 -315 171 -39 5 -76 13 -84 17 -9 5 -25 56 -42 137 -190 908 -683 1747
-1396 2374 -702 618 -1579 992 -2514 1075 -154 13 -574 19 -664 9z"/>
</g>
</svg>
