<?xml version="1.0" standalone="no"?>
<!DOCTYPE svg PUBLIC "-//W3C//DTD SVG 20010904//EN"
 "http://www.w3.org/TR/2001/REC-SVG-20010904/DTD/svg10.dtd">
<svg version="1.0" xmlns="http://www.w3.org/2000/svg"
 width="1280.000000pt" height="1269.000000pt" viewBox="0 0 1280.000000 1269.000000"
 preserveAspectRatio="xMidYMid meet">
<metadata>
Created by potrace 1.15, written by Peter Selinger 2001-2017
</metadata>
<g transform="translate(0.000000,1269.000000) scale(0.100000,-0.100000)"
fill="#000000" stroke="none">
<path d="M1375 12653 c-160 -87 -394 -379 -673 -843 -260 -433 -479 -971 -591
-1452 -66 -281 -114 -1050 -92 -1465 27 -536 102 -825 328 -1277 107 -214 192
-438 292 -773 172 -576 252 -965 396 -1908 106 -698 152 -1062 199 -1570 45
-482 53 -600 86 -1280 25 -510 30 -631 52 -1166 l22 -567 56 -5 c55 -5 277 6
358 19 49 7 44 -6 72 189 35 242 42 325 105 1240 73 1054 131 1686 226 2470
74 614 128 951 176 1105 40 130 97 258 119 267 21 8 114 -41 206 -109 167
-124 474 -444 642 -671 297 -400 540 -833 1276 -2272 783 -1530 1032 -1959
1269 -2178 246 -227 592 -334 1256 -389 262 -21 882 -16 1230 10 1927 147
3157 381 3859 733 260 131 429 284 457 417 7 31 15 62 19 67 14 19 39 111 61
219 37 184 14 337 -77 519 -68 138 -145 238 -314 408 -128 128 -177 170 -285
241 -168 110 -390 237 -865 493 -908 490 -1304 731 -1805 1096 -381 278 -440
311 -755 424 -518 187 -801 323 -1029 493 -101 76 -236 206 -333 322 -89 106
-325 457 -558 830 -727 1164 -962 1499 -1686 2407 -1085 1358 -1991 2423
-2679 3148 -99 105 -265 290 -369 413 -161 190 -204 234 -290 299 -112 84
-188 124 -250 130 -33 3 -55 -4 -111 -34z"/>
</g>
</svg>
