<?xml version="1.0" standalone="no"?>
<!DOCTYPE svg PUBLIC "-//W3C//DTD SVG 20010904//EN"
 "http://www.w3.org/TR/2001/REC-SVG-20010904/DTD/svg10.dtd">
<svg version="1.0" xmlns="http://www.w3.org/2000/svg"
 width="1280.000000pt" height="1084.000000pt" viewBox="0 0 1280.000000 1084.000000"
 preserveAspectRatio="xMidYMid meet">
<metadata>
Created by potrace 1.15, written by Peter Selinger 2001-2017
</metadata>
<g transform="translate(0.000000,1084.000000) scale(0.100000,-0.100000)"
fill="#000000" stroke="none">
<path d="M11072 10814 c2 -5 62 -126 133 -269 664 -1329 1030 -2688 1106
-4100 15 -284 6 -1010 -15 -1270 -97 -1155 -357 -2239 -809 -3375 -56 -140
-104 -259 -106 -265 -8 -23 116 107 189 197 377 465 736 1285 959 2188 305
1239 353 2533 135 3689 -225 1199 -722 2237 -1476 3089 -93 104 -127 138 -116
116z"/>
<path d="M7871 10290 c-66 -14 -120 -44 -197 -108 -172 -145 -269 -303 -375
-611 -28 -80 -67 -175 -87 -211 -44 -81 -151 -187 -382 -382 -570 -480 -1382
-1031 -2155 -1461 -892 -495 -936 -515 -1671 -758 -721 -238 -983 -340 -1140
-444 -179 -118 -399 -365 -492 -550 -97 -194 -146 -508 -145 -935 0 -883 213
-1316 693 -1409 30 -6 121 -18 202 -26 81 -8 176 -22 210 -30 304 -77 483
-240 658 -600 130 -266 199 -533 320 -1235 82 -476 143 -711 235 -907 125
-266 292 -415 587 -524 166 -61 482 -106 673 -96 163 8 225 46 225 136 -1 47
-8 64 -85 197 -35 61 -40 76 -40 134 0 53 7 81 37 150 91 208 74 307 -97 570
-86 132 -125 215 -125 262 0 21 5 69 12 107 22 131 -22 263 -129 382 -120 135
-170 239 -184 387 -9 99 -34 214 -99 460 -80 304 -90 531 -29 673 31 70 74
107 143 120 96 17 497 -10 756 -52 639 -105 1379 -358 2464 -843 406 -182 533
-251 771 -421 329 -234 450 -295 588 -295 291 0 514 220 700 690 235 597 365
1625 328 2598 -22 597 -76 1086 -182 1662 -257 1394 -725 2627 -1178 3102
-130 137 -238 207 -383 248 -83 24 -349 36 -427 20z"/>
<path d="M10592 9748 c101 -155 306 -552 402 -778 526 -1236 717 -2775 530
-4270 -102 -815 -320 -1593 -649 -2305 l-36 -80 41 40 c61 57 188 210 253 302
294 419 524 1004 662 1683 250 1232 190 2650 -160 3775 -217 698 -553 1258
-949 1580 -97 78 -118 90 -94 53z"/>
<path d="M10172 8788 c136 -226 274 -537 383 -863 409 -1225 429 -2770 53
-4175 -54 -204 -184 -601 -246 -752 -21 -54 -36 -98 -33 -97 8 0 87 99 148
184 606 854 876 2544 633 3955 -134 772 -417 1382 -788 1692 -75 63 -180 138
-193 138 -4 0 15 -37 43 -82z"/>
<path d="M1410 6141 c-82 -26 -267 -106 -525 -226 -449 -208 -540 -270 -667
-449 -143 -202 -200 -406 -215 -766 -22 -540 168 -842 646 -1025 240 -91 472
-136 878 -168 61 -5 65 -15 -43 123 -303 388 -397 699 -381 1255 17 563 130
956 341 1193 75 84 68 96 -34 63z"/>
</g>
</svg>
