<?xml version="1.0" standalone="no"?>
<!DOCTYPE svg PUBLIC "-//W3C//DTD SVG 20010904//EN"
 "http://www.w3.org/TR/2001/REC-SVG-20010904/DTD/svg10.dtd">
<svg version="1.0" xmlns="http://www.w3.org/2000/svg"
 width="1280.000000pt" height="1125.000000pt" viewBox="0 0 1280.000000 1125.000000"
 preserveAspectRatio="xMidYMid meet">
<metadata>
Created by potrace 1.15, written by Peter Selinger 2001-2017
</metadata>
<g transform="translate(0.000000,1125.000000) scale(0.100000,-0.100000)"
fill="#000000" stroke="none">
<path d="M6621 11238 c-112 -12 -286 -57 -402 -103 -484 -192 -918 -669 -1124
-1232 l-23 -63 39 0 c34 0 39 -3 39 -24 0 -17 -10 -30 -34 -44 -36 -21 -56
-66 -56 -125 l0 -28 -717 6 c-923 8 -1133 8 -1614 0 -389 -6 -396 -6 -430 14
-49 30 -190 30 -219 1 -20 -20 -33 -20 -758 -20 -670 0 -742 2 -772 17 -67 33
-192 -16 -250 -99 -14 -19 -63 -67 -110 -106 -163 -135 -159 -131 -175 -185
-21 -72 -21 -287 0 -287 13 0 15 -466 15 -4136 0 -3772 -1 -4136 -16 -4130
-14 5 -15 -16 -12 -206 3 -182 6 -218 21 -246 15 -28 16 -39 7 -68 -23 -70 17
-130 103 -156 64 -19 277 -15 377 6 113 24 198 53 236 82 l31 23 329 -15 c181
-8 444 -21 584 -29 571 -32 879 -39 1172 -25 206 10 429 11 870 6 326 -4 1678
-12 3003 -16 1326 -5 2425 -12 2444 -16 26 -5 32 -4 26 6 -6 9 2 11 31 6 156
-26 356 -24 569 5 52 7 397 12 970 13 490 2 922 6 960 10 39 4 122 17 185 28
135 24 199 20 315 -17 44 -15 141 -35 215 -46 207 -32 306 -15 336 56 19 47
18 102 -2 113 -14 8 -14 12 -3 33 20 35 27 419 7 419 -11 0 -13 687 -13 4150
0 3313 3 4150 13 4150 9 0 12 30 12 118 0 125 -15 199 -49 239 -22 26 -81 63
-101 63 -9 0 -39 21 -68 46 -40 35 -51 51 -47 65 11 34 -39 104 -92 131 -42
20 -61 23 -153 21 -58 -1 -134 -6 -170 -12 -40 -7 -256 -11 -567 -11 -490 0
-504 1 -523 20 -30 30 -168 29 -216 -1 -34 -20 -40 -21 -477 -14 -584 9 -830
9 -1324 0 l-413 -7 0 37 c0 29 -8 45 -34 71 -19 19 -41 34 -50 34 -9 0 -16 5
-16 10 0 6 -1 13 -2 17 -2 4 18 6 45 4 58 -3 58 -2 11 126 -184 498 -567 949
-981 1157 -290 145 -616 201 -952 164z m401 -473 c398 -70 746 -347 1012 -805
21 -36 42 -67 47 -70 4 -3 12 -34 16 -69 8 -63 8 -64 -24 -97 -25 -24 -33 -41
-33 -68 l0 -36 -484 0 -485 0 -24 31 c-32 42 -102 59 -235 59 -113 0 -161 -16
-200 -65 l-20 -25 -480 0 -480 0 -4 57 c-4 46 -10 61 -32 80 -15 13 -33 23
-41 23 -11 0 -12 13 -8 57 11 102 171 346 347 531 205 214 445 349 702 396
107 19 318 20 426 1z m-1452 -1107 c0 -36 -2 -38 -31 -38 -24 0 -29 4 -25 18
3 9 8 34 12 55 6 36 7 37 25 21 12 -11 19 -31 19 -56z m-421 -20 c0 -10 -6
-18 -14 -18 -16 0 -21 44 -8 77 6 15 9 13 14 -12 4 -16 7 -38 8 -47z m3386 41
c3 -10 8 -28 11 -39 4 -17 1 -20 -26 -20 -25 0 -31 3 -26 16 3 9 6 29 6 45 0
21 4 27 15 23 8 -3 17 -14 20 -25z m-406 -46 c1 -7 -8 -13 -19 -13 -23 0 -24
8 -9 47 l12 28 7 -25 c5 -14 8 -31 9 -37z"/>
</g>
</svg>
