<?xml version="1.0" standalone="no"?>
<!DOCTYPE svg PUBLIC "-//W3C//DTD SVG 20010904//EN"
 "http://www.w3.org/TR/2001/REC-SVG-20010904/DTD/svg10.dtd">
<svg version="1.0" xmlns="http://www.w3.org/2000/svg"
 width="1280.000000pt" height="960.000000pt" viewBox="0 0 1280.000000 960.000000"
 preserveAspectRatio="xMidYMid meet">
<metadata>
Created by potrace 1.15, written by Peter Selinger 2001-2017
</metadata>
<g transform="translate(0.000000,960.000000) scale(0.100000,-0.100000)"
fill="#000000" stroke="none">
<path d="M6078 9583 c-2 -10 -5 -254 -7 -543 -1 -379 -9 -674 -27 -1060 -21
-449 -27 -714 -35 -1655 -6 -616 -13 -1187 -17 -1268 -7 -147 -7 -149 -34
-169 -16 -11 -28 -28 -28 -37 0 -18 29 -51 46 -51 5 0 8 -39 7 -87 -1 -49 -7
-416 -13 -818 -10 -743 -25 -1497 -35 -1750 -3 -77 -5 -195 -5 -262 l0 -123
-93 0 c-59 0 -97 -4 -105 -12 -21 -21 -13 -93 28 -255 45 -176 66 -227 95
-231 44 -7 44 -7 15 -124 -16 -62 -31 -159 -35 -215 -7 -94 -5 -105 15 -138
24 -38 22 -39 101 11 l36 22 -20 113 -20 113 24 96 23 96 591 0 c520 -1 906 9
1241 31 l91 6 34 -99 c31 -94 32 -105 30 -230 l-2 -131 70 1 71 1 0 47 c0 59
-40 228 -79 335 l-30 82 47 6 c26 3 54 7 62 8 9 1 16 15 18 32 6 51 -43 484
-56 497 -4 4 -27 8 -52 10 l-45 3 -2 70 c-2 39 -10 381 -18 760 -9 380 -24
983 -35 1340 -11 358 -29 1021 -40 1475 -11 454 -27 1039 -35 1300 -8 261 -22
788 -30 1170 -9 382 -22 857 -30 1055 -8 198 -15 413 -15 478 l0 117 -41 0
-40 0 5 -42 c3 -24 8 -178 11 -343 14 -774 59 -2668 85 -3630 24 -893 29
-1067 35 -1375 15 -675 28 -1192 45 -1755 11 -385 15 -622 9 -626 -5 -3 -74
-11 -152 -18 -78 -7 -209 -18 -292 -26 -82 -8 -193 -16 -245 -20 -52 -3 -162
-10 -245 -16 -165 -11 -858 -14 -901 -3 l-26 7 6 626 c4 344 13 948 21 1341 8
393 15 789 16 878 2 159 3 164 25 179 32 21 41 76 20 119 -8 19 -21 34 -27 34
-9 0 -10 117 -5 473 4 259 11 861 16 1337 6 618 14 987 29 1290 16 321 21 565
21 998 l0 572 -34 0 c-24 0 -35 -5 -38 -17z"/>
</g>
</svg>
