<?xml version="1.0" standalone="no"?>
<!DOCTYPE svg PUBLIC "-//W3C//DTD SVG 20010904//EN"
 "http://www.w3.org/TR/2001/REC-SVG-20010904/DTD/svg10.dtd">
<svg version="1.0" xmlns="http://www.w3.org/2000/svg"
 width="925.000000pt" height="1280.000000pt" viewBox="0 0 925.000000 1280.000000"
 preserveAspectRatio="xMidYMid meet">
<metadata>
Created by potrace 1.15, written by Peter Selinger 2001-2017
</metadata>
<g transform="translate(0.000000,1280.000000) scale(0.100000,-0.100000)"
fill="#000000" stroke="none">
<path d="M5560 11135 c-7 -9 -21 -13 -31 -10 -10 3 -36 1 -59 -6 -30 -9 -45
-21 -56 -45 -14 -29 -14 -35 1 -63 15 -31 15 -31 -9 -41 -14 -5 -30 -18 -36
-30 -9 -17 -19 -20 -50 -17 -54 5 -64 -4 -67 -64 -1 -40 3 -56 18 -68 25 -22
31 -104 8 -109 -9 -1 -24 4 -32 13 -9 8 -18 15 -21 15 -12 0 -56 -76 -56 -97
0 -16 -13 -31 -42 -50 -24 -15 -49 -36 -56 -45 -9 -12 -21 -16 -36 -12 -18 4
-28 -2 -48 -33 -14 -21 -29 -54 -33 -73 -3 -19 -16 -59 -28 -88 -17 -40 -26
-51 -40 -48 -15 4 -17 -1 -11 -32 3 -21 15 -65 27 -99 17 -49 19 -65 10 -74
-18 -18 -61 4 -65 33 -3 20 -11 24 -58 30 -65 8 -82 -2 -73 -43 4 -24 -1 -38
-25 -68 l-30 -38 29 -61 c20 -42 38 -66 59 -77 17 -9 42 -34 56 -57 l27 -42
-57 -51 c-31 -27 -56 -54 -56 -58 0 -4 12 -6 28 -5 21 2 26 -1 25 -14 -2 -10
-4 -26 -5 -35 -2 -12 9 -24 32 -35 19 -10 35 -21 35 -25 -1 -14 -47 -83 -55
-83 -4 0 -13 7 -21 16 -9 11 -22 14 -43 10 -33 -7 -68 17 -60 39 20 51 -143
160 -171 115 -3 -5 -26 -10 -50 -10 -80 0 -96 -14 -131 -115 -20 -58 -38 -81
-76 -101 -33 -17 -36 -36 -9 -55 14 -11 20 -30 23 -77 4 -61 3 -64 -24 -78
-23 -12 -27 -19 -22 -42 16 -79 -6 -92 -74 -43 -48 35 -83 40 -133 18 -36 -16
-59 -51 -59 -91 0 -13 -7 -26 -15 -30 -10 -3 -15 -19 -15 -42 0 -20 -8 -49
-17 -65 -14 -23 -15 -32 -5 -51 12 -22 15 -67 9 -153 l-2 -40 -44 -1 c-52 0
-75 -23 -61 -60 5 -13 7 -31 3 -41 -4 -11 3 -24 23 -40 l29 -24 -37 -34 c-21
-20 -38 -42 -38 -50 0 -8 -18 -29 -40 -47 -41 -32 -80 -85 -80 -108 0 -9 12
-10 45 -6 46 7 57 -1 30 -24 -8 -7 -15 -21 -15 -32 0 -10 -7 -21 -15 -24 -29
-11 -67 -90 -63 -131 3 -35 5 -38 30 -35 14 1 29 -2 32 -7 4 -5 -8 -92 -25
-193 -34 -198 -35 -301 -7 -492 11 -82 11 -86 -9 -108 -67 -72 -50 -198 27
-198 33 0 34 -2 51 -112 16 -104 7 -247 -20 -322 -28 -81 -68 -139 -89 -133
-9 3 -44 15 -77 27 -54 20 -65 21 -115 10 -30 -7 -93 -32 -140 -55 -47 -24
-134 -64 -195 -90 -60 -25 -164 -70 -230 -100 -165 -74 -472 -185 -509 -185
-21 0 -100 -44 -141 -77 -38 -32 -75 -91 -75 -121 0 -35 -19 -65 -37 -58 -42
17 -203 25 -278 16 -44 -6 -120 -15 -170 -21 -49 -5 -112 -14 -140 -20 -105
-21 -247 -112 -286 -183 -52 -94 -56 -109 -52 -189 2 -44 10 -91 17 -105 25
-47 94 -111 133 -122 61 -17 204 -32 262 -28 50 5 57 9 102 57 48 52 69 58 69
20 0 -12 7 -19 18 -19 39 0 56 -36 54 -112 -2 -58 1 -75 16 -92 11 -12 19 -37
19 -59 1 -31 -5 -42 -40 -72 -22 -19 -43 -35 -47 -35 -3 0 -20 -24 -37 -52
-29 -49 -50 -127 -51 -188 0 -14 -4 -68 -9 -120 -8 -96 -5 -133 23 -270 9 -41
14 -95 12 -120 -3 -42 -5 -45 -40 -53 -40 -9 -46 -23 -28 -58 9 -15 7 -21 -5
-25 -21 -9 -19 -21 10 -46 30 -26 48 -83 35 -108 -5 -10 -30 -42 -55 -71 -55
-65 -73 -111 -54 -145 10 -19 10 -27 1 -36 -7 -7 -12 -24 -12 -39 0 -15 -6
-29 -14 -32 -36 -14 -44 -188 -11 -233 7 -11 11 -31 8 -45 -8 -41 24 -135 58
-171 16 -18 36 -40 43 -48 7 -8 17 -25 20 -38 11 -34 56 -82 77 -82 10 0 19
-6 19 -13 0 -25 45 -57 81 -57 45 0 67 -17 124 -92 96 -128 142 -272 152 -475
9 -204 -16 -331 -87 -442 -32 -49 -50 -66 -92 -85 -78 -36 -153 -57 -185 -50
-20 4 -44 -4 -85 -26 -32 -17 -60 -36 -63 -41 -7 -10 -23 -88 -32 -152 -4 -32
-1 -43 22 -67 15 -16 30 -43 34 -62 7 -36 53 -67 122 -83 57 -14 280 -11 321
3 83 29 103 76 76 177 -15 56 -2 76 36 56 13 -8 29 -10 35 -7 19 12 39 70 44
126 2 30 13 75 24 100 11 25 30 79 43 120 13 41 29 84 37 95 7 11 13 36 13 56
0 20 7 50 15 65 8 16 15 47 15 69 0 22 7 74 16 115 9 41 14 97 11 123 -4 48 6
68 25 49 20 -20 48 -1 48 32 0 23 6 34 22 41 13 6 24 18 26 27 3 18 -28 54
-64 74 -15 9 -17 14 -7 26 10 12 10 26 -2 72 -18 70 -19 66 4 66 10 0 21 6 24
14 8 20 -30 76 -51 76 -10 0 -26 6 -36 13 -16 12 -16 16 6 67 12 30 30 70 40
89 17 31 18 35 3 51 -9 10 -15 23 -13 30 5 18 -73 21 -94 3 -9 -9 -35 -17 -56
-18 -82 -6 -115 68 -72 163 23 50 113 143 157 161 22 9 33 23 42 51 14 46 23
53 70 54 29 1 36 5 41 26 6 23 10 25 60 22 80 -4 187 -64 301 -169 119 -108
225 -180 309 -209 79 -29 200 -32 280 -8 43 13 54 13 61 2 4 -7 4 -17 -1 -22
-26 -26 7 -69 35 -46 18 15 55 14 100 -3 36 -14 40 -18 37 -47 -4 -35 21 -80
43 -80 9 0 20 -12 26 -27 15 -40 47 -71 80 -78 49 -11 52 -22 39 -160 -6 -69
-14 -134 -17 -143 -11 -30 -35 -52 -58 -52 -23 0 -55 -28 -55 -48 0 -7 -16
-18 -35 -26 -21 -9 -39 -26 -45 -41 -20 -54 6 -175 47 -217 18 -17 38 -20 184
-27 l164 -6 28 27 c15 14 27 35 27 45 0 26 22 83 44 116 17 25 18 33 6 81 -13
55 -12 110 9 321 6 61 13 150 17 199 5 74 9 89 24 93 10 3 21 14 23 25 5 16
11 19 29 14 13 -3 60 -11 104 -17 73 -10 94 -9 189 11 114 23 265 72 368 119
183 84 333 126 470 133 53 2 71 -1 80 -12 15 -20 73 -44 85 -36 5 3 17 -3 27
-14 17 -18 27 -20 109 -15 88 5 93 4 146 -27 92 -52 170 -140 222 -248 52
-108 77 -203 58 -225 -6 -8 -9 -23 -6 -33 6 -18 -40 -122 -65 -146 -18 -19
-10 -84 15 -113 17 -20 22 -34 15 -44 -13 -21 -11 -79 4 -84 9 -4 12 -74 13
-298 1 -294 6 -371 44 -617 19 -125 22 -206 19 -477 -1 -119 21 -268 44 -289
21 -20 107 -35 226 -41 97 -4 125 -2 171 14 72 24 97 42 114 85 8 19 27 43 41
52 14 9 25 25 25 36 0 10 4 22 10 25 15 9 11 77 -5 99 -8 11 -12 29 -9 42 7
28 -61 106 -116 134 -48 24 -127 110 -150 163 -91 206 -109 598 -44 957 19 99
31 123 79 146 19 9 35 22 35 30 0 18 40 54 60 54 26 0 50 -53 50 -109 0 -32 7
-65 20 -88 11 -21 20 -44 20 -51 0 -7 15 -44 34 -81 19 -38 37 -82 40 -99 4
-16 20 -42 36 -57 17 -16 30 -36 30 -44 0 -9 7 -29 15 -45 8 -16 14 -36 13
-45 -4 -21 35 -27 51 -7 11 13 19 13 64 -4 63 -23 204 -50 261 -50 99 0 187
42 221 105 8 17 19 37 24 45 26 48 31 63 31 89 0 16 -7 34 -16 42 -9 7 -23 28
-32 47 -9 20 -24 39 -32 43 -86 43 -122 59 -137 59 -10 0 -27 7 -37 15 -27 20
-66 19 -126 -5 -74 -29 -97 -26 -139 18 -63 67 -101 184 -131 407 -12 90 -12
415 0 480 5 28 12 71 16 97 l7 46 72 -5 c68 -5 72 -4 92 21 25 31 35 99 38
251 2 109 3 112 49 209 25 53 46 102 46 107 0 5 14 34 30 64 30 56 38 111 21
144 -9 16 0 43 40 123 16 32 10 115 -11 155 -11 21 -22 53 -26 70 -6 29 -3 34
20 43 23 8 26 15 25 52 0 73 -29 130 -76 156 l-42 23 25 37 c17 25 24 47 22
72 -3 30 -7 36 -33 40 -26 4 -31 11 -36 45 -8 48 -45 83 -101 91 -44 8 -59 30
-73 109 -10 51 -18 62 -59 69 -49 9 -52 31 -11 70 31 30 35 39 34 82 -1 27 -4
60 -8 74 -4 14 -3 35 2 47 15 33 -9 80 -55 110 -29 18 -38 29 -33 41 3 9 9 31
12 47 3 17 14 39 24 50 41 46 50 133 25 253 -8 37 -19 103 -26 147 -7 44 -18
94 -25 110 -32 79 52 490 171 837 123 360 165 488 194 603 63 245 89 388 96
535 3 63 7 121 10 128 2 8 16 0 40 -23 27 -27 41 -34 57 -29 34 10 40 19 44
71 3 37 -1 56 -18 83 -32 50 -33 89 -3 102 19 9 24 19 24 47 0 20 -7 47 -16
59 -8 12 -12 27 -9 32 4 6 -10 33 -31 61 -31 42 -35 54 -26 72 24 50 34 99 23
110 -6 6 -11 18 -11 26 0 8 -14 30 -32 48 -24 25 -35 30 -49 23 -25 -14 -32 2
-25 58 5 32 2 56 -8 75 -15 27 -15 28 24 45 45 19 46 21 24 63 -15 29 -14 31
5 36 47 12 3 50 -70 61 -53 8 -54 8 -52 39 2 20 -3 33 -12 37 -8 3 -15 16 -15
28 -1 44 -36 71 -98 76 -48 3 -60 1 -76 -17 -25 -28 -36 -27 -36 3 0 23 19 43
84 89 14 10 26 27 26 37 0 11 9 25 20 32 38 24 12 98 -35 98 -28 0 -42 17 -26
33 9 9 6 15 -9 27 -12 9 -23 29 -25 45 -2 17 -4 32 -4 35 -1 3 -29 7 -63 7
-55 2 -65 5 -82 29 -29 40 -120 77 -168 69 -21 -4 -40 -11 -44 -16 -11 -18
-29 -8 -52 27 l-23 35 43 77 c24 42 65 97 91 123 l49 47 -36 28 c-42 34 -43
39 -13 70 60 61 59 61 46 82 -24 39 -71 37 -154 -6 -22 -11 -48 -29 -59 -41
l-19 -20 -28 20 c-31 22 -54 20 -98 -8 -38 -24 -47 -2 -17 46 23 37 26 49 23
116 -2 42 -9 81 -16 88 -13 13 -15 13 -74 15 -31 2 -41 7 -55 33 -36 66 -92
129 -115 129 -29 0 -47 18 -47 47 0 12 -12 40 -27 62 -27 38 -29 39 -84 37
-49 -1 -60 -6 -81 -31 -23 -27 -28 -28 -52 -17 -19 8 -26 18 -22 30 18 65 17
102 -6 151 -12 28 -29 51 -36 51 -7 0 -15 7 -18 15 -4 8 -10 12 -15 9 -5 -3
-25 8 -44 25 -35 30 -56 39 -106 45 -14 1 -36 10 -49 19 -30 21 -64 22 -80 2z"/>
</g>
</svg>
