<?xml version="1.0" standalone="no"?>
<!DOCTYPE svg PUBLIC "-//W3C//DTD SVG 20010904//EN"
 "http://www.w3.org/TR/2001/REC-SVG-20010904/DTD/svg10.dtd">
<svg version="1.0" xmlns="http://www.w3.org/2000/svg"
 width="1280.000000pt" height="1280.000000pt" viewBox="0 0 1280.000000 1280.000000"
 preserveAspectRatio="xMidYMid meet">
<metadata>
Created by potrace 1.15, written by Peter Selinger 2001-2017
</metadata>
<g transform="translate(0.000000,1280.000000) scale(0.100000,-0.100000)"
fill="#000000" stroke="none">
<path d="M5989 11769 c-689 -35 -1174 -205 -1406 -491 -277 -342 -240 -811
107 -1366 188 -300 524 -690 860 -1001 69 -63 125 -118 125 -123 0 -4 -44 -69
-98 -143 -68 -93 -96 -140 -89 -148 5 -7 140 -192 299 -412 l291 -400 -430
-2796 -431 -2797 557 -738 c307 -407 560 -738 562 -737 3 1 255 333 561 738
l555 737 -26 171 c-15 95 -207 1344 -426 2777 -220 1433 -402 2614 -404 2625
-4 14 68 120 250 370 141 193 276 378 301 413 l45 62 -98 132 c-53 73 -97 137
-98 143 -1 6 55 63 124 126 336 310 673 703 860 1001 512 818 342 1454 -460
1718 -363 120 -925 171 -1531 139z m880 -494 c494 -54 791 -176 893 -367 21
-38 23 -56 23 -168 -1 -110 -4 -134 -28 -205 -81 -231 -251 -500 -506 -800
-95 -111 -405 -430 -492 -506 l-57 -49 -182 250 c-100 138 -183 250 -185 250
-2 0 -85 -112 -186 -250 l-182 -250 -56 49 c-102 89 -424 424 -531 552 -414
498 -583 907 -469 1132 31 59 85 113 163 161 197 122 485 188 966 220 132 9
693 -4 829 -19z"/>
</g>
</svg>
