<?xml version="1.0" standalone="no"?>
<!DOCTYPE svg PUBLIC "-//W3C//DTD SVG 20010904//EN"
 "http://www.w3.org/TR/2001/REC-SVG-20010904/DTD/svg10.dtd">
<svg version="1.0" xmlns="http://www.w3.org/2000/svg"
 width="1024.000000pt" height="1280.000000pt" viewBox="0 0 1024.000000 1280.000000"
 preserveAspectRatio="xMidYMid meet">
<metadata>
Created by potrace 1.15, written by Peter Selinger 2001-2017
</metadata>
<g transform="translate(0.000000,1280.000000) scale(0.100000,-0.100000)"
fill="#000000" stroke="none">
<path d="M5570 12351 c-19 -10 -51 -22 -70 -25 -48 -10 -157 -45 -189 -62 -14
-8 -34 -14 -44 -14 -10 0 -57 -16 -105 -36 -48 -20 -103 -40 -122 -45 -19 -4
-73 -21 -120 -38 -100 -37 -247 -85 -345 -112 -38 -11 -90 -28 -115 -39 -25
-10 -108 -38 -185 -63 -322 -104 -645 -207 -715 -227 -95 -28 -142 -54 -165
-92 -16 -28 -18 -58 -15 -342 1 -171 5 -378 9 -461 l6 -150 81 -3 81 -3 7
-267 c3 -147 11 -634 16 -1082 6 -448 15 -1017 20 -1265 6 -247 10 -509 10
-582 l0 -132 -56 -3 -56 -3 -24 -58 c-24 -57 -25 -59 -22 -367 l3 -309 -30 -5
c-16 -3 -174 -7 -351 -8 l-321 -2 -33 -75 c-18 -42 -49 -107 -68 -146 -19 -38
-43 -99 -54 -135 -10 -36 -23 -74 -27 -85 -5 -11 -19 -51 -30 -90 -12 -38 -28
-83 -35 -100 -28 -60 -85 -204 -144 -360 -33 -88 -83 -218 -110 -290 -27 -71
-55 -148 -62 -170 -7 -22 -28 -72 -46 -111 -19 -39 -34 -80 -34 -90 0 -11 -4
-24 -9 -30 -5 -5 -18 -36 -29 -69 -21 -60 -51 -135 -77 -190 -8 -16 -30 -79
-50 -140 -19 -60 -39 -117 -44 -125 -20 -36 -110 -271 -131 -340 -12 -41 -26
-79 -30 -85 -4 -5 -19 -43 -34 -83 -14 -40 -32 -85 -40 -100 -7 -15 -23 -54
-34 -87 -33 -94 -66 -180 -121 -315 -28 -68 -63 -158 -76 -199 -14 -41 -29
-79 -34 -85 -5 -6 -21 -49 -36 -96 -15 -47 -35 -101 -45 -120 -10 -19 -30 -71
-45 -114 -15 -44 -37 -103 -50 -133 -14 -30 -27 -70 -31 -89 -4 -20 -22 -51
-43 -73 -21 -21 -43 -58 -50 -82 -7 -23 -19 -52 -27 -64 -8 -13 -41 -101 -73
-196 -32 -96 -66 -191 -75 -211 -9 -21 -16 -48 -16 -61 0 -13 -13 -50 -29 -83
-52 -109 -53 -116 -42 -326 8 -174 11 -194 29 -209 22 -18 182 -34 226 -23 13
3 49 -1 78 -9 34 -9 83 -13 137 -11 47 2 102 -1 122 -6 27 -8 52 -7 84 1 35 9
56 9 88 0 37 -11 48 -10 90 8 60 26 93 26 154 2 63 -25 270 -30 398 -10 50 7
128 12 175 10 108 -5 193 -4 456 4 200 7 214 6 258 -13 43 -20 49 -20 83 -6
20 9 50 13 67 11 17 -3 74 -13 126 -22 52 -10 124 -17 160 -17 239 -1 354 3
416 14 51 8 85 8 124 1 34 -7 63 -8 78 -2 32 12 578 13 867 2 127 -6 284 -9
350 -8 84 2 133 -2 165 -12 31 -11 59 -13 95 -7 48 7 113 9 165 4 14 -1 68 3
120 9 78 9 114 8 200 -5 71 -11 125 -14 170 -9 36 4 90 6 120 5 78 -3 221 -4
395 -3 83 1 173 1 200 1 28 0 136 3 242 6 106 3 203 2 216 -3 20 -8 163 -11
442 -10 33 0 148 -2 255 -5 107 -3 355 -7 550 -9 195 -3 432 -7 525 -11 94 -3
219 -2 278 3 67 6 121 5 142 0 81 -23 89 10 88 359 0 190 -3 239 -16 270 -24
56 -57 232 -57 308 0 48 -5 76 -19 98 -10 17 -22 58 -26 91 -4 33 -18 78 -30
100 -13 22 -27 58 -31 80 -3 22 -13 52 -20 67 -8 15 -14 38 -14 50 0 13 -9 41
-20 63 -11 22 -20 47 -20 57 0 9 -9 35 -21 57 -11 22 -25 71 -31 108 -6 37
-15 77 -20 88 -6 10 -12 40 -13 65 -2 25 -12 61 -24 80 -15 25 -21 52 -21 91
0 33 -6 63 -15 75 -8 10 -15 37 -15 60 0 64 -20 156 -41 190 -11 18 -19 50
-19 75 -1 44 -5 65 -56 249 -14 52 -28 109 -31 125 -3 17 -11 37 -17 45 -25
32 -60 131 -71 200 -4 25 -13 52 -20 60 -7 8 -18 40 -23 70 -6 30 -18 69 -26
85 -9 17 -16 36 -16 44 0 8 -4 28 -9 45 -5 17 -17 67 -27 110 -9 44 -25 98
-35 120 -10 23 -19 50 -19 60 0 11 -8 38 -18 60 -29 64 -97 301 -127 441 -10
44 -26 110 -36 147 -32 113 -55 200 -68 253 -6 28 -20 73 -31 100 -20 55 -39
123 -70 260 -12 50 -27 106 -34 125 -19 48 -39 166 -32 179 4 6 -7 54 -25 108
-17 54 -33 104 -35 111 -2 6 -16 12 -31 12 -15 0 -82 3 -148 5 -323 13 -434
17 -473 15 l-44 -1 4 328 c2 268 0 335 -12 368 -21 59 -27 64 -83 67 l-52 3 1
448 c2 498 10 937 24 1337 6 146 15 533 20 860 6 327 13 612 16 633 l7 37 73
0 c60 0 75 3 83 18 5 9 15 216 22 458 l12 442 -24 48 -24 48 -130 43 c-71 24
-193 64 -270 89 -77 25 -171 57 -210 71 -38 13 -128 43 -200 65 -71 22 -143
46 -160 53 -33 15 -98 37 -191 65 -33 10 -75 25 -93 35 -18 9 -63 23 -101 31
-37 7 -99 28 -136 45 -38 17 -98 37 -134 45 -65 15 -217 66 -446 150 -133 49
-153 51 -204 25z"/>
</g>
</svg>
