<?xml version="1.0" standalone="no"?>
<!DOCTYPE svg PUBLIC "-//W3C//DTD SVG 20010904//EN"
 "http://www.w3.org/TR/2001/REC-SVG-20010904/DTD/svg10.dtd">
<svg version="1.0" xmlns="http://www.w3.org/2000/svg"
 width="832.000000pt" height="1280.000000pt" viewBox="0 0 832.000000 1280.000000"
 preserveAspectRatio="xMidYMid meet">
<metadata>
Created by potrace 1.15, written by Peter Selinger 2001-2017
</metadata>
<g transform="translate(0.000000,1280.000000) scale(0.100000,-0.100000)"
fill="#000000" stroke="none">
<path d="M4990 12473 c-102 -1 -464 -7 -805 -13 -509 -9 -1078 -18 -1952 -31
l-93 -2 6 -26 c24 -101 199 -283 348 -360 l51 -27 -112 4 c-135 5 -227 -13
-334 -64 -290 -139 -490 -431 -604 -883 -45 -180 -56 -289 -65 -666 -5 -198
-14 -414 -20 -480 -16 -186 -34 -240 -198 -590 -88 -189 -121 -294 -134 -420
-10 -106 -30 -157 -128 -330 -101 -178 -223 -654 -261 -1015 -26 -249 -10
-820 32 -1120 48 -343 155 -728 313 -1122 26 -65 44 -123 40 -129 -4 -7 -3 -9
4 -5 13 8 47 -78 37 -95 -5 -7 -4 -10 3 -5 13 8 26 -29 16 -45 -4 -7 -3 -9 4
-5 13 8 26 -29 16 -45 -4 -7 -3 -9 3 -6 14 9 68 -117 58 -134 -5 -7 -4 -10 2
-6 14 9 68 -117 58 -134 -5 -7 -4 -10 2 -6 13 8 26 -20 16 -36 -3 -7 -2 -9 2
-4 7 5 265 -502 265 -520 0 -2 -5 -1 -12 3 -7 4 -8 3 -4 -5 4 -6 11 -9 16 -6
7 4 120 -193 120 -210 0 -4 -5 -3 -12 1 -7 4 -8 3 -4 -5 4 -6 12 -8 18 -5 8 5
9 1 5 -10 -4 -9 -3 -15 2 -12 5 4 23 -19 40 -49 34 -59 37 -70 19 -59 -7 4 -8
3 -4 -5 4 -6 11 -9 16 -6 5 3 16 -8 25 -24 18 -36 19 -45 3 -35 -7 4 -8 3 -4
-5 4 -6 11 -9 16 -6 12 8 33 -33 24 -47 -4 -7 -3 -8 4 -4 14 8 36 -30 26 -46
-4 -7 -3 -8 4 -4 14 8 36 -30 26 -46 -4 -7 -3 -8 4 -4 14 8 36 -30 26 -46 -4
-7 -3 -8 4 -4 14 8 36 -30 26 -46 -4 -6 -3 -8 4 -4 13 8 56 -60 47 -74 -4 -6
-1 -9 7 -8 7 2 12 -5 12 -14 -1 -10 3 -16 8 -15 6 1 13 -4 16 -12 3 -9 0 -11
-8 -6 -9 5 -11 4 -6 -4 4 -6 11 -9 16 -6 11 7 53 -62 45 -75 -4 -6 -1 -9 7 -8
7 2 12 -5 12 -14 -1 -10 3 -16 8 -15 6 1 13 -4 16 -12 3 -9 0 -11 -9 -6 -8 5
-11 4 -6 -1 5 -5 14 -9 20 -9 7 0 11 -8 11 -17 -1 -10 3 -16 10 -15 6 1 10 -6
10 -15 -1 -10 3 -16 10 -15 6 1 10 -6 10 -15 -1 -10 3 -16 10 -15 6 1 10 -6
10 -15 -1 -10 3 -16 10 -15 6 1 10 -6 10 -15 -1 -10 2 -16 6 -13 8 5 50 -46
50 -60 0 -4 -8 -1 -17 6 -16 11 -16 11 -5 -1 7 -8 18 -15 24 -15 6 0 13 -6 16
-14 3 -9 0 -11 -8 -6 -9 5 -11 4 -6 -4 4 -6 11 -9 16 -6 5 3 18 -8 29 -24 24
-33 27 -45 9 -35 -8 4 -10 3 -5 -2 5 -5 14 -9 20 -9 7 0 11 -8 11 -18 -1 -9 2
-15 6 -12 12 8 32 -23 24 -37 -4 -7 -4 -10 1 -6 4 4 14 3 22 -3 16 -14 18 -33
1 -23 -7 4 -8 3 -4 -5 4 -6 11 -9 16 -6 12 8 53 -53 44 -66 -4 -7 -3 -9 3 -6
14 9 37 -19 27 -34 -4 -7 -3 -9 3 -6 15 9 36 -19 27 -35 -4 -7 -3 -10 1 -5 5
4 17 0 27 -10 20 -18 25 -38 6 -27 -7 5 -8 3 -4 -5 5 -7 11 -10 14 -7 7 7 32
-13 32 -26 0 -5 -5 -6 -12 -2 -7 5 -8 3 -4 -5 5 -7 11 -10 14 -7 7 7 32 -13
32 -26 0 -5 -6 -6 -12 -2 -9 5 -9 3 1 -9 7 -9 17 -15 21 -12 10 6 32 -20 28
-33 -2 -5 0 -9 3 -8 15 3 49 -39 44 -53 -3 -8 -3 -12 1 -8 4 4 16 0 26 -10 20
-18 25 -38 6 -27 -7 5 -8 3 -4 -5 5 -7 11 -10 14 -7 7 7 42 -23 42 -36 0 -5
-6 -6 -12 -2 -9 5 -8 2 1 -9 8 -10 16 -15 19 -12 7 6 32 -15 32 -27 0 -5 -6
-6 -12 -2 -8 4 -10 3 -5 -2 5 -5 13 -9 18 -9 16 0 159 -177 152 -188 -3 -6 -2
-7 4 -4 5 3 53 -41 107 -99 79 -84 93 -104 75 -104 -12 0 -36 -15 -53 -33 -24
-26 -47 -37 -106 -51 -315 -76 -574 -220 -645 -357 -76 -146 10 -400 167 -494
127 -75 464 -178 738 -224 573 -97 1251 -92 2060 15 377 50 669 128 896 240
166 81 215 145 218 282 2 134 -48 249 -140 323 -115 91 -385 210 -532 234 -24
4 -48 14 -55 22 -44 57 -97 103 -118 103 -20 0 -9 15 72 97 148 151 264 294
445 548 55 77 140 194 189 260 48 66 154 219 234 340 779 1171 1291 2396 1481
3546 55 333 75 814 46 1114 -35 362 -115 662 -250 940 -55 111 -65 140 -70
200 -10 131 -54 262 -199 595 -126 289 -142 378 -134 750 10 402 -13 649 -83
891 -102 356 -268 617 -477 753 -146 94 -287 133 -452 123 -115 -7 -206 -33
-318 -92 -46 -24 -83 -42 -83 -41 0 11 163 112 257 160 143 73 250 151 313
229 66 81 104 155 89 174 -9 11 -146 13 -758 11 -410 -2 -829 -4 -931 -5z
m-2143 -553 c32 -6 61 -10 64 -10 9 0 82 -121 82 -137 0 -7 4 -13 8 -13 4 0
17 -17 29 -37 19 -34 17 -33 -24 14 -52 57 -151 139 -217 179 -24 14 -34 23
-22 19 11 -3 47 -10 80 -15z m3628 -350 c106 -15 186 -46 263 -100 139 -97
219 -217 264 -395 22 -87 23 -101 20 -486 -5 -590 22 -852 103 -1021 13 -26
18 -45 12 -41 -7 3 -45 29 -85 55 -94 64 -377 219 -456 252 -33 14 -108 43
-166 65 -58 21 -163 61 -235 89 -149 57 -459 162 -652 222 -103 32 -133 45
-133 58 0 74 63 492 77 516 13 21 302 362 385 453 173 191 308 292 441 328 64
17 74 17 162 5z m-3888 -35 c133 -40 327 -215 601 -542 142 -170 168 -204 141
-187 -6 3 1 -12 15 -35 14 -22 26 -49 27 -58 0 -10 5 -27 10 -38 6 -14 7 -6 3
25 -3 25 -12 52 -19 60 -24 30 -26 44 -2 18 16 -17 29 -48 36 -90 39 -211 63
-377 55 -389 -3 -5 2 -36 10 -70 22 -83 21 -89 -13 -89 -49 0 -259 -39 -406
-75 -454 -112 -950 -322 -1267 -536 -59 -40 -78 -49 -59 -26 15 18 59 137 72
195 45 199 59 431 50 812 -5 169 -4 338 1 395 35 375 224 601 540 645 76 10
136 6 205 -15z"/>
<path d="M2867 11874 c26 -20 66 -53 87 -73 l39 -36 -23 40 c-13 22 -30 52
-39 67 -15 25 -46 38 -93 38 -14 0 -6 -10 29 -36z"/>
<path d="M3392 10630 c0 -14 2 -19 5 -12 2 6 2 18 0 25 -3 6 -5 1 -5 -13z"/>
<path d="M3401 10564 c0 -11 3 -14 6 -6 3 7 2 16 -1 19 -3 4 -6 -2 -5 -13z"/>
<path d="M3431 10384 c0 -11 3 -14 6 -6 3 7 2 16 -1 19 -3 4 -6 -2 -5 -13z"/>
<path d="M3445 10160 c-3 -5 1 -10 9 -10 9 0 16 5 16 10 0 6 -4 10 -9 10 -6 0
-13 -4 -16 -10z"/>
<path d="M1186 4907 c3 -10 9 -15 12 -12 3 3 0 11 -7 18 -10 9 -11 8 -5 -6z"/>
<path d="M1246 4767 c3 -10 9 -15 12 -12 3 3 0 11 -7 18 -10 9 -11 8 -5 -6z"/>
<path d="M1366 4507 c3 -10 9 -15 12 -12 3 3 0 11 -7 18 -10 9 -11 8 -5 -6z"/>
<path d="M1512 4215 c12 -24 23 -43 26 -41 4 5 -36 86 -43 86 -3 0 5 -20 17
-45z"/>
<path d="M1600 4050 c6 -11 13 -20 16 -20 2 0 0 9 -6 20 -6 11 -13 20 -16 20
-2 0 0 -9 6 -20z"/>
<path d="M1620 4011 c0 -6 4 -13 10 -16 6 -3 7 1 4 9 -7 18 -14 21 -14 7z"/>
<path d="M1715 3840 c9 -16 18 -30 21 -30 2 0 -2 14 -11 30 -9 17 -18 30 -21
30 -2 0 2 -13 11 -30z"/>
<path d="M1960 3430 c6 -11 13 -20 16 -20 2 0 0 9 -6 20 -6 11 -13 20 -16 20
-2 0 0 -9 6 -20z"/>
<path d="M3046 1970 c19 -24 28 -41 53 -103 15 -37 14 -79 -1 -97 -7 -8 3 -1
22 16 19 17 43 35 52 41 15 7 6 20 -64 88 -46 44 -73 69 -62 55z"/>
</g>
</svg>
