<?xml version="1.0" standalone="no"?>
<!DOCTYPE svg PUBLIC "-//W3C//DTD SVG 20010904//EN"
 "http://www.w3.org/TR/2001/REC-SVG-20010904/DTD/svg10.dtd">
<svg version="1.0" xmlns="http://www.w3.org/2000/svg"
 width="964.000000pt" height="1280.000000pt" viewBox="0 0 964.000000 1280.000000"
 preserveAspectRatio="xMidYMid meet">
<metadata>
Created by potrace 1.15, written by Peter Selinger 2001-2017
</metadata>
<g transform="translate(0.000000,1280.000000) scale(0.100000,-0.100000)"
fill="#000000" stroke="none">
<path d="M4852 12781 c-124 -46 -248 -150 -332 -277 l-46 -71 -31 36 c-17 21
-58 51 -91 69 -49 26 -71 32 -124 32 -53 0 -149 -21 -167 -36 -2 -2 19 -30 47
-63 77 -88 88 -131 53 -206 -27 -59 -107 -142 -165 -172 -37 -19 -71 -27 -128
-31 -108 -6 -192 21 -348 115 l-124 75 -29 -34 c-128 -148 -224 -207 -401
-244 -98 -20 -278 -20 -426 2 -82 11 -187 18 -305 18 -173 1 -183 0 -255 -27
-41 -15 -97 -44 -125 -65 -58 -44 -165 -168 -197 -229 -23 -42 -24 -43 -75
-43 l-53 0 0 -130 c0 -125 1 -130 21 -130 22 0 114 -70 153 -117 13 -15 33
-47 45 -70 l21 -42 -2 -4723 -3 -4723 -39 -105 c-62 -165 -61 -277 0 -373 l25
-38 -33 -26 c-124 -100 -212 -221 -239 -333 -15 -60 -19 -262 -6 -323 l8 -37
424 0 424 0 117 64 117 64 2 77 c2 68 7 87 41 153 30 59 52 87 97 123 l59 47
131 7 c136 7 582 -8 767 -26 127 -12 275 -41 389 -75 l84 -26 86 30 c103 36
162 49 268 58 153 13 366 -33 442 -94 l36 -29 50 33 c109 69 312 106 477 86
103 -13 229 -43 281 -68 32 -15 38 -15 118 9 202 62 364 82 759 97 333 12 555
1 605 -30 90 -55 157 -181 161 -298 l2 -74 116 -64 117 -64 413 0 c385 0 414
1 421 18 14 36 18 211 5 292 -19 123 -64 206 -165 306 -45 45 -100 94 -123
109 -30 20 -39 31 -32 40 21 26 41 103 41 161 0 60 -30 186 -65 268 -15 35
-16 423 -16 4750 l0 4712 25 50 c33 64 65 98 148 157 l67 48 0 129 0 129 -52
3 -52 3 -60 90 c-33 49 -82 111 -110 138 -65 62 -165 112 -258 127 -94 16
-312 8 -512 -20 -81 -11 -183 -20 -225 -20 -174 0 -360 84 -522 238 l-67 63
-66 -46 c-196 -138 -413 -181 -544 -110 -103 56 -189 181 -177 256 7 38 56
111 104 153 11 11 21 22 21 26 0 13 -116 40 -173 40 -32 0 -73 -7 -93 -15 -50
-21 -119 -73 -134 -101 -18 -32 -23 -31 -44 13 -28 59 -105 150 -176 208 -134
110 -267 147 -378 106z"/>
<path d="M4485 734 c-207 -18 -283 -33 -317 -62 -25 -21 -6 -40 45 -49 33 -5
37 -8 22 -14 -20 -7 -20 -8 0 -8 11 -1 54 6 95 15 63 14 174 18 680 23 333 4
576 8 540 9 -51 2 -68 6 -77 21 -18 29 -96 44 -333 66 -195 17 -460 17 -655
-1z"/>
<path d="M5723 633 c9 -2 23 -2 30 0 6 3 -1 5 -18 5 -16 0 -22 -2 -12 -5z"/>
<path d="M4163 593 c9 -2 25 -2 35 0 9 3 1 5 -18 5 -19 0 -27 -2 -17 -5z"/>
</g>
</svg>
