<?xml version="1.0" standalone="no"?>
<!DOCTYPE svg PUBLIC "-//W3C//DTD SVG 20010904//EN"
 "http://www.w3.org/TR/2001/REC-SVG-20010904/DTD/svg10.dtd">
<svg version="1.0" xmlns="http://www.w3.org/2000/svg"
 width="1280.000000pt" height="770.000000pt" viewBox="0 0 1280.000000 770.000000"
 preserveAspectRatio="xMidYMid meet">
<metadata>
Created by potrace 1.15, written by Peter Selinger 2001-2017
</metadata>
<g transform="translate(0.000000,770.000000) scale(0.100000,-0.100000)"
fill="#000000" stroke="none">
<path d="M2720 7684 c-611 -113 -1248 -655 -1706 -1449 -529 -919 -887 -2273
-989 -3735 -54 -787 -8 -1830 106 -2354 21 -101 38 -133 75 -142 80 -20 249
146 335 329 60 130 69 191 69 498 l0 277 29 7 c76 16 245 201 304 332 37 83
44 128 62 408 17 268 22 308 35 300 35 -21 177 61 258 149 100 108 148 213
173 375 l12 81 37 -6 c83 -13 203 50 269 142 21 30 53 91 71 137 38 96 200
458 210 470 4 4 5 -27 2 -70 -4 -74 -3 -81 22 -111 58 -68 175 -60 288 19 14
11 28 19 30 19 3 0 -6 -46 -19 -102 -12 -57 -23 -131 -23 -166 0 -57 3 -67 29
-93 55 -54 169 -36 267 43 66 53 63 57 42 -50 -25 -123 -21 -202 12 -237 44
-46 126 -42 197 11 l32 24 -6 -108 c-4 -76 -2 -115 6 -131 16 -29 68 -51 106
-44 40 8 129 67 165 111 l29 36 -6 -85 c-7 -109 6 -156 52 -175 51 -21 99 -2
166 66 32 32 60 68 64 79 13 41 20 19 22 -68 3 -142 36 -192 117 -177 51 10
123 85 168 177 l37 74 1 -45 c1 -62 26 -178 45 -207 22 -34 57 -47 101 -39 70
14 179 152 219 278 6 20 8 19 16 -17 35 -150 71 -207 132 -207 112 0 214 160
253 397 l6 40 17 -60 c22 -77 68 -180 91 -200 10 -9 33 -18 51 -21 104 -16
201 135 230 355 l13 90 27 -66 c69 -161 134 -203 221 -142 35 26 93 146 107
223 30 163 -2 685 -53 859 l-12 41 -143 -310 c-78 -170 -147 -313 -152 -319
-5 -5 -9 15 -9 51 0 120 -46 397 -84 501 -8 23 -20 79 -27 124 -12 82 -12 82
-24 48 -7 -19 -29 -104 -51 -189 -21 -85 -71 -279 -110 -430 l-73 -275 0 155
c-1 181 -13 329 -42 494 -19 113 -38 178 -39 133 0 -14 -267 -864 -274 -874 0
-1 0 157 2 350 l2 352 -19 -40 c-14 -28 -20 -34 -20 -20 -1 11 -6 27 -11 35
-7 11 -10 -2 -9 -45 2 -57 -5 -77 -149 -403 -84 -189 -152 -348 -152 -352 0
-5 -5 -12 -12 -16 -8 -5 -9 -2 -5 10 14 36 48 256 58 376 11 131 3 340 -11
288 -8 -27 -333 -668 -337 -664 -1 1 13 50 32 108 49 156 73 277 86 437 6 77
9 146 7 152 -2 6 -79 -110 -172 -258 -93 -147 -173 -272 -178 -278 -5 -5 3 22
18 60 60 158 120 402 139 570 9 74 20 85 -170 -165 -174 -229 -172 -227 -150
-175 40 93 106 311 139 460 20 88 47 196 60 240 14 43 24 80 23 81 -1 2 -115
-136 -254 -304 -138 -169 -261 -318 -273 -332 -13 -15 -2 12 25 65 79 152 175
363 231 507 52 133 124 360 124 389 0 8 -22 -38 -49 -101 -72 -170 -81 -190
-86 -190 -4 0 1 16 64 184 23 60 41 113 41 118 0 4 -120 -123 -266 -284 -147
-161 -273 -300 -281 -308 -8 -8 8 31 36 87 125 251 226 551 306 908 19 87 37
161 40 163 6 7 244 2 445 -8 380 -21 550 -61 1122 -269 433 -157 523 -180 586
-147 41 21 42 58 5 114 -46 67 -138 140 -473 372 -384 267 -615 455 -835 682
-211 217 -394 437 -640 772 -61 83 -132 174 -159 203 -108 119 -206 125 -261
17 -19 -37 -20 -60 -21 -509 -1 -367 -4 -504 -18 -625 -40 -369 -34 -434 43
-511 44 -45 119 -79 173 -79 10 0 18 -3 18 -7 0 -15 -72 -235 -75 -231 -3 2 9
51 25 108 16 58 28 106 26 107 -1 1 -170 -196 -376 -437 -205 -242 -374 -440
-376 -440 -1 0 38 83 87 184 330 682 464 1297 427 1963 -32 600 18 866 222
1179 27 42 50 80 50 85 0 30 29 -12 120 -173 274 -485 427 -724 610 -953 371
-463 698 -757 1130 -1020 147 -90 545 -284 556 -272 2 2 -54 36 -124 77 -824
478 -1343 969 -1811 1714 -34 54 -128 214 -208 355 -233 409 -256 442 -347
482 -66 29 -218 35 -336 13z"/>
<path d="M9803 7690 c-54 -11 -112 -41 -144 -77 -40 -42 -100 -140 -262 -424
-80 -141 -174 -301 -208 -355 -468 -745 -987 -1236 -1811 -1714 -70 -41 -126
-75 -124 -77 11 -12 409 182 556 272 432 263 759 557 1130 1020 183 229 336
468 610 953 91 161 120 203 120 173 0 -5 23 -43 50 -85 204 -313 254 -579 222
-1179 -37 -666 97 -1281 427 -1963 49 -101 88 -184 87 -184 -2 0 -171 198
-376 440 -206 241 -375 438 -376 437 -2 -1 10 -49 26 -107 16 -57 28 -106 25
-108 -3 -4 -75 216 -75 231 0 4 8 7 18 7 10 0 46 9 80 21 47 16 71 31 101 66
69 77 73 145 35 503 -13 121 -17 259 -18 625 -1 449 -2 472 -21 509 -42 83
-115 101 -190 48 -47 -33 -126 -126 -231 -271 -298 -411 -593 -747 -874 -994
-139 -123 -372 -299 -650 -492 -379 -264 -457 -336 -448 -413 4 -39 41 -54
111 -48 80 8 124 22 504 157 524 187 661 225 926 254 140 16 627 35 639 25 4
-3 23 -77 43 -164 80 -358 181 -658 306 -909 28 -56 44 -95 36 -87 -8 8 -134
147 -281 308 -146 161 -266 288 -266 284 0 -5 18 -58 41 -118 63 -168 68 -184
64 -184 -5 0 -14 20 -86 190 -27 63 -49 109 -49 101 0 -29 72 -256 124 -389
56 -144 152 -355 231 -507 27 -53 38 -80 25 -65 -12 14 -135 163 -273 332
-139 168 -253 306 -254 304 -1 -1 9 -38 23 -81 13 -44 40 -152 60 -240 33
-149 99 -367 139 -460 22 -52 24 -54 -150 175 -190 250 -179 239 -170 165 19
-168 79 -412 139 -570 15 -38 23 -65 18 -60 -5 6 -85 131 -178 278 -93 148
-170 264 -172 258 -2 -6 1 -75 7 -152 13 -160 37 -281 86 -437 19 -58 33 -107
32 -108 -4 -4 -329 637 -337 664 -14 52 -22 -157 -11 -288 10 -120 44 -340 58
-376 4 -12 3 -15 -5 -10 -7 4 -12 11 -12 16 0 4 -68 163 -152 352 -144 326
-151 346 -149 403 1 43 -2 56 -9 45 -5 -8 -10 -24 -11 -35 0 -14 -6 -8 -20 20
l-19 40 2 -352 c2 -193 2 -351 2 -350 -7 10 -274 860 -274 874 -1 38 -18 -12
-34 -97 -30 -165 -39 -257 -45 -467 l-6 -212 -108 417 c-59 229 -107 424 -107
433 0 9 -6 29 -14 43 -13 26 -14 24 -25 -54 -7 -45 -19 -100 -27 -123 -38
-104 -84 -381 -84 -501 0 -36 -4 -56 -9 -51 -5 6 -74 149 -152 319 l-143 310
-12 -41 c-40 -137 -69 -483 -62 -726 5 -156 24 -233 79 -313 25 -37 79 -74
109 -74 47 0 103 64 149 173 l27 66 13 -91 c33 -248 149 -401 260 -343 37 18
83 106 112 210 l17 60 6 -40 c39 -237 141 -397 253 -397 61 0 97 57 132 207 8
36 10 37 16 17 40 -126 149 -264 219 -278 44 -8 79 5 101 39 19 29 44 145 45
207 l1 45 37 -74 c45 -92 117 -167 168 -177 81 -15 114 35 117 177 2 87 9 109
22 68 4 -11 32 -47 64 -79 67 -68 115 -87 166 -66 46 19 59 66 52 175 l-6 85
29 -36 c36 -44 125 -103 165 -111 38 -7 90 15 106 44 8 16 10 55 6 131 l-6
108 32 -24 c71 -53 153 -57 197 -11 33 35 37 114 12 237 -21 107 -24 103 42
50 98 -79 212 -97 267 -43 26 26 29 36 29 93 0 35 -11 109 -23 166 -13 56 -22
102 -19 102 2 0 16 -8 30 -19 76 -53 165 -77 225 -60 20 5 48 24 63 41 25 30
26 37 22 111 -3 43 -2 74 2 70 10 -12 172 -374 210 -470 18 -46 50 -107 71
-137 66 -92 186 -155 269 -142 l37 6 12 -81 c25 -162 73 -267 173 -375 81 -88
223 -170 258 -149 12 7 17 -40 36 -315 18 -270 24 -310 61 -394 59 -130 228
-315 304 -331 l29 -7 0 -277 c0 -307 9 -368 69 -498 86 -183 255 -349 335
-329 37 9 54 41 75 142 87 401 139 1145 127 1799 -19 1005 -151 1917 -406
2805 -271 945 -621 1634 -1105 2180 -167 188 -392 381 -589 503 -313 195 -677
299 -893 257z"/>
</g>
</svg>
