<?xml version="1.0" standalone="no"?>
<!DOCTYPE svg PUBLIC "-//W3C//DTD SVG 20010904//EN"
 "http://www.w3.org/TR/2001/REC-SVG-20010904/DTD/svg10.dtd">
<svg version="1.0" xmlns="http://www.w3.org/2000/svg"
 width="1280.000000pt" height="1186.000000pt" viewBox="0 0 1280.000000 1186.000000"
 preserveAspectRatio="xMidYMid meet">
<metadata>
Created by potrace 1.15, written by Peter Selinger 2001-2017
</metadata>
<g transform="translate(0.000000,1186.000000) scale(0.100000,-0.100000)"
fill="#000000" stroke="none">
<path d="M5285 11844 c-157 -35 -266 -95 -386 -215 -76 -74 -93 -99 -137 -190
-68 -139 -86 -227 -80 -378 4 -90 11 -134 32 -196 87 -257 285 -441 545 -506
121 -31 302 -24 416 15 120 41 209 98 305 195 95 95 150 188 192 321 33 108
33 311 -1 420 -82 263 -277 454 -536 524 -88 24 -264 29 -350 10z"/>
<path d="M7340 11816 c-145 -32 -249 -133 -286 -275 -56 -221 106 -444 332
-459 93 -6 160 11 234 58 74 49 124 115 151 203 68 217 -67 434 -295 476 -69
13 -65 13 -136 -3z"/>
<path d="M8167 11509 c-199 -47 -344 -267 -308 -470 16 -91 61 -176 126 -238
278 -263 731 -47 702 334 -19 257 -266 434 -520 374z"/>
<path d="M3683 11135 c-212 -58 -353 -240 -353 -458 0 -146 47 -255 150 -351
33 -30 87 -68 120 -84 l60 -28 -26 -35 c-36 -47 -79 -144 -93 -207 -13 -64
-14 -172 -1 -227 5 -22 7 -41 5 -44 -3 -2 -111 -18 -242 -37 -1230 -169 -1966
-424 -2049 -711 -30 -103 7 -357 70 -483 82 -163 194 -256 511 -421 66 -34
122 -64 124 -66 3 -2 -53 -59 -125 -127 -71 -68 -169 -168 -218 -224 l-88
-100 -41 14 c-78 28 -270 74 -368 89 -256 39 -515 3 -679 -92 -175 -103 -383
-390 -425 -590 -51 -240 45 -450 280 -612 87 -60 284 -157 400 -197 44 -15 84
-30 88 -34 4 -4 -5 -56 -22 -116 -189 -701 -243 -1611 -130 -2219 168 -912
686 -1708 1514 -2329 340 -255 769 -496 1193 -671 86 -35 96 -43 126 -89 82
-127 248 -236 520 -340 1003 -386 3002 -460 4290 -161 526 123 864 286 972
470 16 29 35 45 61 54 98 34 366 153 528 233 1335 666 2162 1710 2344 2959 89
605 32 1454 -141 2087 -17 64 -27 117 -22 121 5 4 56 25 114 46 379 137 612
339 661 572 34 166 -28 369 -171 562 -160 216 -295 304 -535 347 -206 37 -517
-1 -787 -95 l-57 -20 -96 104 c-53 57 -145 148 -205 201 -61 54 -110 100 -110
103 0 3 74 43 163 88 199 100 269 146 339 221 89 97 136 213 163 402 20 144
19 225 -4 277 -104 227 -626 443 -1486 613 -60 12 -112 24 -114 26 -2 2 15 24
38 50 162 184 194 443 82 669 -97 195 -282 318 -500 332 -287 19 -553 -174
-625 -454 -32 -124 -16 -291 39 -406 13 -28 23 -52 22 -53 -1 -1 -78 7 -172
17 -93 10 -177 18 -186 19 -12 0 -18 14 -22 58 -17 155 -113 281 -252 329 -71
24 -184 22 -257 -6 -112 -43 -214 -166 -233 -282 l-7 -40 -106 7 c-59 4 -108
7 -109 8 -1 1 2 20 8 42 6 21 9 71 7 111 -9 142 -108 276 -238 324 l-60 22 28
36 c119 155 140 334 58 506 -57 120 -141 196 -271 245 -82 31 -224 32 -309 1
-169 -61 -288 -202 -318 -378 -32 -189 62 -384 232 -485 54 -32 89 -44 187
-64 21 -4 21 -4 -8 -56 -15 -29 -31 -71 -35 -94 l-6 -41 -77 -6 c-97 -8 -220
-46 -291 -91 -49 -31 -63 -36 -122 -36 l-67 0 22 48 c18 38 22 65 22 142 0 84
-3 103 -29 157 -32 69 -107 148 -173 181 -140 72 -314 42 -428 -73 -110 -109
-140 -252 -83 -403 11 -29 18 -55 16 -56 -7 -7 -598 -17 -598 -11 0 4 9 18 20
32 36 45 61 132 61 208 0 154 -79 278 -220 344 -48 22 -69 26 -151 26 -88 0
-101 -3 -163 -33 -45 -22 -82 -51 -114 -86 l-46 -53 -51 38 c-49 37 -160 89
-191 89 -21 0 -19 10 9 61 32 57 56 149 56 216 0 314 -299 548 -597 468z
m-2599 -3647 c76 -19 316 -94 323 -102 2 -2 -34 -59 -80 -127 -184 -271 -327
-557 -461 -921 -10 -27 -22 -48 -27 -48 -19 0 -156 73 -215 115 -78 56 -168
153 -200 217 -112 221 -28 503 226 759 135 136 226 159 434 107z m10936 -6
c36 -16 81 -51 130 -101 256 -258 340 -547 223 -763 -58 -108 -183 -218 -330
-292 -76 -38 -103 -44 -103 -24 0 25 -116 301 -186 442 -90 182 -193 355 -297
501 -44 60 -81 115 -84 121 -5 14 111 57 277 104 191 55 271 57 370 12z"/>
</g>
</svg>
