<?xml version="1.0" standalone="no"?>
<!DOCTYPE svg PUBLIC "-//W3C//DTD SVG 20010904//EN"
 "http://www.w3.org/TR/2001/REC-SVG-20010904/DTD/svg10.dtd">
<svg version="1.0" xmlns="http://www.w3.org/2000/svg"
 width="1280.000000pt" height="1139.000000pt" viewBox="0 0 1280.000000 1139.000000"
 preserveAspectRatio="xMidYMid meet">
<metadata>
Created by potrace 1.15, written by Peter Selinger 2001-2017
</metadata>
<g transform="translate(0.000000,1139.000000) scale(0.100000,-0.100000)"
fill="#000000" stroke="none">
<path d="M3665 11384 c-371 -55 -628 -213 -739 -455 -43 -94 -56 -164 -56
-309 0 -63 -5 -154 -11 -200 -6 -47 -12 -141 -12 -210 -2 -184 31 -276 143
-405 107 -124 127 -194 68 -238 -60 -44 -106 -56 -178 -45 -96 14 -290 3 -390
-23 -179 -46 -305 -108 -640 -317 -102 -64 -246 -144 -320 -180 -74 -35 -167
-79 -207 -98 -163 -78 -354 -257 -487 -456 -138 -208 -285 -557 -271 -644 31
-189 100 -330 218 -442 300 -283 779 -299 1103 -37 l41 34 21 -272 c35 -436
28 -672 -28 -889 -11 -43 -20 -93 -20 -112 0 -84 -39 -155 -165 -302 -42 -49
-94 -115 -115 -147 -37 -56 -80 -153 -80 -182 0 -8 -13 -62 -29 -119 -49 -174
-85 -353 -112 -556 -17 -125 -15 -460 4 -572 16 -102 17 -102 -73 -65 -74 31
-157 88 -330 226 -184 148 -231 181 -305 219 -181 90 -324 42 -418 -138 -24
-46 -27 -63 -27 -153 0 -153 -17 -231 -128 -582 -81 -254 -110 -381 -119 -510
-11 -166 31 -341 112 -476 36 -59 37 -63 39 -167 1 -100 3 -112 34 -174 109
-221 369 -283 512 -121 44 50 80 147 80 215 0 21 6 51 14 66 30 60 40 127 26
178 -23 82 -81 132 -205 174 -30 10 -49 23 -48 31 1 8 15 46 31 85 63 150 88
303 100 606 l7 177 303 -291 304 -291 -88 -46 c-217 -115 -260 -217 -258 -626
1 -225 2 -247 55 -656 l31 -236 -37 -55 c-116 -176 -79 -346 128 -574 54 -59
55 -62 47 -100 -13 -54 -12 -171 1 -219 24 -89 62 -150 148 -235 100 -99 186
-148 321 -181 188 -47 341 6 404 141 45 97 13 305 -64 421 -16 26 -81 87 -146
139 -170 137 -190 170 -156 255 l19 48 -32 76 c-115 274 -125 596 -28 896 31
99 108 259 163 343 l42 63 42 -6 c77 -10 1253 -115 1295 -115 48 0 106 22 138
52 23 21 24 21 96 5 298 -68 572 -97 911 -97 493 0 925 64 1439 211 98 28 179
50 180 48 2 -2 25 -42 51 -89 119 -210 302 -457 437 -590 286 -283 707 -445
1316 -505 160 -15 290 -47 513 -124 444 -153 692 -346 755 -586 17 -67 19
-171 4 -230 -5 -22 -9 -75 -9 -117 1 -342 284 -439 536 -183 166 168 217 391
129 570 -38 79 -407 446 -657 655 -108 90 -196 166 -194 168 6 5 153 -65 209
-101 30 -20 103 -52 162 -71 226 -76 429 -200 573 -350 137 -144 191 -277 171
-420 -10 -74 -63 -184 -124 -254 -103 -121 -164 -266 -150 -358 12 -82 72
-141 174 -171 144 -41 414 29 582 153 101 74 185 187 208 281 5 21 21 70 35
108 55 154 52 296 -9 424 -56 117 -162 214 -420 385 -115 76 -237 161 -270
188 -85 69 -161 161 -200 243 -32 66 -40 100 -65 273 -19 134 -79 219 -173
247 -88 26 -123 21 -358 -57 l-155 -51 -57 32 c-67 38 -182 124 -339 253 -64
53 -136 110 -162 127 -40 28 -46 37 -46 67 0 57 18 117 102 339 155 407 169
536 86 794 -17 53 -48 135 -69 184 -22 48 -39 89 -39 91 0 2 26 -7 59 -20 143
-58 521 -114 767 -114 452 0 870 151 1204 435 100 85 148 136 256 270 96 120
132 176 178 275 69 152 97 288 97 475 0 254 -63 459 -211 690 -32 50 -75 122
-97 160 -22 39 -93 160 -158 270 -242 409 -314 606 -315 857 0 148 11 201 66
315 69 144 174 274 415 513 119 118 257 261 307 316 162 180 223 188 637 84
312 -79 457 -87 611 -34 57 19 83 23 126 18 135 -16 280 40 325 125 29 56 29
103 -1 166 -55 118 -175 182 -387 204 -54 6 -158 20 -232 31 -368 54 -620 70
-806 51 -208 -22 -328 -54 -491 -133 -100 -48 -111 -57 -234 -182 -209 -213
-419 -439 -491 -528 -245 -304 -355 -572 -355 -862 0 -147 22 -270 76 -434 55
-164 126 -315 281 -592 181 -325 187 -337 238 -450 100 -222 145 -401 146
-578 0 -129 -16 -195 -75 -317 -118 -244 -350 -439 -663 -554 -175 -64 -335
-92 -528 -92 -288 0 -468 59 -1015 331 -152 75 -275 144 -325 180 -197 146
-451 244 -722 280 -129 18 -389 8 -515 -19 -106 -23 -247 -70 -319 -107 l-47
-23 -113 24 c-63 13 -160 35 -216 49 -244 62 -305 68 -733 70 -356 2 -407 5
-520 25 -313 55 -545 148 -720 288 -92 74 -192 185 -185 205 3 7 34 139 69
293 35 154 130 552 209 885 80 333 158 660 173 728 16 67 31 122 34 122 3 0
24 -31 46 -68 23 -37 129 -206 236 -377 352 -561 548 -888 805 -1345 85 -151
158 -278 162 -282 9 -11 116 46 180 95 30 23 135 117 234 209 207 195 289 258
637 491 289 193 408 279 530 382 270 229 441 488 516 783 58 229 93 499 97
747 2 126 4 140 20 139 9 0 74 -1 143 -2 l127 -2 -7 -171 c-5 -113 -4 -169 2
-165 6 3 230 83 499 176 268 94 495 173 503 176 9 3 -180 104 -470 249 -267
134 -488 244 -491 244 -4 1 -10 -63 -13 -141 -4 -79 -9 -160 -12 -181 l-6 -38
-151 3 -151 3 -17 120 c-33 234 -87 419 -179 610 -101 211 -155 280 -450 580
-146 149 -389 407 -539 575 -335 373 -558 610 -576 610 -7 0 -25 -15 -40 -32
-15 -18 -408 -450 -874 -960 -537 -589 -847 -922 -849 -911 -6 26 73 175 135
254 148 192 194 318 228 619 8 80 23 183 32 230 25 126 23 369 -5 473 -62 229
-211 380 -432 436 -41 11 -111 29 -155 41 -78 21 -287 35 -360 24z m2170 -659
c28 -134 99 -297 185 -426 27 -39 184 -205 410 -429 202 -201 394 -399 428
-441 172 -215 272 -412 316 -624 8 -38 13 -71 11 -73 -2 -2 -191 2 -422 8
-230 6 -729 19 -1108 29 l-691 18 -86 66 c-168 128 -430 261 -541 274 -26 3
-46 9 -45 13 2 4 305 338 673 741 369 403 710 777 759 831 49 54 91 97 92 95
2 -1 10 -38 19 -82z m235 -2115 c1039 -26 1110 -29 1110 -45 0 -23 -14 -25
-84 -13 l-67 11 -77 -40 c-166 -88 -247 -101 -657 -113 -494 -13 -634 -42
-837 -173 -42 -27 -80 -48 -85 -46 -4 2 -22 40 -40 83 -37 91 -97 196 -158
276 -22 30 -44 61 -49 68 -10 16 2 16 944 -8z m526 -1060 c43 -5 122 -12 174
-15 120 -6 170 -14 176 -29 9 -23 -77 -162 -158 -257 -76 -89 -138 -130 -383
-253 -395 -198 -595 -347 -753 -561 -46 -62 -106 -175 -137 -258 l-18 -48 -22
38 c-282 486 -441 752 -622 1041 -46 74 -80 132 -76 130 257 -129 352 -161
546 -180 245 -25 504 29 704 146 94 55 163 111 202 163 52 69 105 93 207 93
44 0 116 -4 160 -10z"/>
</g>
</svg>
