<?xml version="1.0" standalone="no"?>
<!DOCTYPE svg PUBLIC "-//W3C//DTD SVG 20010904//EN"
 "http://www.w3.org/TR/2001/REC-SVG-20010904/DTD/svg10.dtd">
<svg version="1.0" xmlns="http://www.w3.org/2000/svg"
 width="1241.000000pt" height="1280.000000pt" viewBox="0 0 1241.000000 1280.000000"
 preserveAspectRatio="xMidYMid meet">
<metadata>
Created by potrace 1.15, written by Peter Selinger 2001-2017
</metadata>
<g transform="translate(0.000000,1280.000000) scale(0.100000,-0.100000)"
fill="#000000" stroke="none">
<path d="M6696 12792 c-4 -6 36 -55 88 -109 323 -335 539 -696 661 -1103 67
-225 112 -537 100 -710 -37 -583 -234 -1108 -585 -1559 -40 -52 -130 -154
-200 -225 -250 -259 -487 -592 -674 -948 -101 -191 -102 -201 -86 -592 13
-327 8 -685 -11 -756 -20 -81 -121 -126 -218 -97 -57 16 -192 110 -215 149
-21 35 -20 94 3 144 10 23 49 80 85 128 73 96 135 211 159 296 95 336 88 449
-32 503 -42 18 -108 26 -233 27 -15 0 -34 7 -42 16 -30 30 -19 62 48 133 72
76 91 108 106 177 21 91 -27 226 -118 340 -66 82 -91 94 -204 98 -51 2 -109
10 -129 19 -63 26 -109 102 -109 180 0 34 9 53 61 120 74 98 88 202 39 301
-29 61 -244 283 -325 337 -152 100 -315 104 -497 13 -100 -50 -103 -48 -103
103 0 119 -9 153 -39 153 -6 0 -37 -28 -69 -62 -53 -57 -59 -61 -74 -45 -14
14 -15 23 -5 68 13 55 3 85 -24 75 -23 -9 -44 23 -44 68 0 123 -81 239 -190
270 -93 26 -161 -1 -179 -73 -11 -40 -1 -112 19 -135 26 -32 90 -26 90 7 0 18
53 67 72 67 28 0 76 -49 94 -96 14 -38 15 -52 5 -97 -15 -69 -65 -155 -97
-167 -70 -27 -148 -4 -222 65 -53 48 -65 55 -137 71 -108 23 -298 23 -385 1
-261 -68 -445 -282 -535 -620 -31 -114 -60 -158 -122 -187 -148 -68 -173 -83
-216 -129 -87 -93 -101 -238 -31 -322 40 -48 43 -81 9 -114 -18 -19 -35 -25
-68 -25 -87 0 -135 -26 -230 -124 -145 -149 -178 -210 -179 -328 0 -91 30
-178 97 -277 76 -114 76 -127 -1 -176 -111 -71 -187 -174 -219 -296 -22 -81
-19 -249 5 -344 32 -125 77 -186 174 -238 57 -30 165 -30 222 0 66 35 133 119
154 194 12 40 -11 66 -65 75 -25 3 -55 16 -69 29 -52 48 -62 201 -16 250 51
55 150 57 202 5 35 -35 37 -78 7 -145 -17 -38 -20 -62 -17 -121 3 -65 7 -77
33 -104 56 -59 172 -64 226 -11 20 21 29 42 34 84 10 78 -2 108 -53 133 -64
31 -87 57 -87 104 0 56 31 85 91 85 38 0 50 -5 73 -31 26 -29 28 -38 35 -160
4 -71 13 -175 20 -231 12 -86 19 -111 46 -150 l32 -48 -7 -165 c-3 -90 -11
-186 -16 -213 -15 -69 -7 -89 50 -121 86 -46 147 -102 218 -198 121 -163 239
-265 363 -314 61 -25 203 -49 221 -38 6 4 100 8 208 9 181 2 202 5 277 29 191
61 323 193 435 432 37 80 56 109 81 124 39 23 95 26 124 5 37 -25 64 -108 77
-231 13 -136 3 -202 -42 -273 -120 -187 -141 -404 -66 -681 19 -70 19 -113 -1
-181 -34 -117 -123 -204 -239 -234 -67 -17 -201 -20 -289 -5 -85 14 -135 42
-228 128 -98 91 -148 122 -254 158 -69 23 -91 26 -179 22 -82 -3 -110 -9 -157
-30 l-57 -27 -993 761 c-546 418 -1001 768 -1010 777 -10 9 -27 62 -42 132
-69 329 -205 592 -363 701 -182 125 -392 152 -527 68 -50 -30 -117 -108 -154
-177 -111 -208 -66 -435 112 -570 117 -88 192 -108 305 -82 65 15 149 59 178
93 24 29 25 35 21 126 -5 96 -14 127 -51 168 -14 15 -32 22 -59 22 -34 0 -42
-5 -74 -50 -20 -28 -44 -55 -54 -60 -75 -40 -159 49 -160 168 0 173 198 262
334 150 77 -63 155 -205 200 -364 45 -157 58 -263 63 -525 6 -269 0 -368 -52
-899 -59 -603 -75 -830 -75 -1075 0 -367 54 -726 150 -999 47 -133 72 -185
131 -272 193 -290 405 -478 610 -543 41 -13 82 -27 92 -30 14 -5 -126 -156
-650 -703 -368 -383 -670 -697 -673 -697 -3 -1 -41 70 -84 157 l-80 157 -11
-85 c-25 -180 -72 -359 -141 -541 -24 -64 -44 -119 -44 -122 0 -3 33 9 73 28
171 78 431 159 596 185 l73 12 -161 72 c-88 39 -159 74 -158 78 2 8 233 250
966 1012 404 420 415 431 455 434 106 7 225 37 346 86 13 5 15 -12 15 -126 0
-152 15 -210 87 -332 69 -116 232 -272 397 -377 23 -14 24 -20 26 -135 2 -136
20 -203 87 -341 90 -181 343 -467 523 -589 251 -171 495 -249 815 -261 405
-15 792 80 1360 332 326 144 498 188 745 189 215 1 346 -29 526 -119 174 -88
237 -222 179 -378 -22 -58 -46 -85 -98 -111 -45 -23 -81 -17 -106 17 -18 25
-22 47 -27 175 -6 163 -17 200 -69 227 -39 20 -73 19 -120 -5 -87 -44 -119
-148 -101 -326 17 -170 66 -266 163 -320 50 -27 59 -29 158 -28 150 2 233 30
289 98 113 138 155 300 116 449 -46 178 -217 393 -377 473 -85 43 -223 80
-336 89 l-82 8 -902 1071 c-495 589 -907 1078 -914 1087 -12 13 5 35 124 162
244 260 463 449 644 557 55 32 123 67 150 76 89 29 99 24 312 -183 517 -503
902 -742 1236 -769 84 -7 129 -24 148 -55 7 -11 26 -111 42 -222 76 -523 184
-997 326 -1426 64 -193 91 -246 155 -306 88 -83 261 -152 351 -142 72 9 124
36 247 131 124 94 287 196 405 252 109 52 169 55 316 16 210 -56 428 -134 636
-228 171 -76 224 -88 359 -80 556 30 698 17 1124 -109 450 -133 777 -252 1049
-381 148 -70 174 -73 188 -19 8 32 -49 224 -119 400 -69 174 -108 215 -252
270 -55 20 -155 66 -222 100 -244 126 -312 185 -332 288 -34 170 -44 209 -70
264 -57 119 -152 185 -278 191 -97 5 -151 -14 -284 -104 -131 -87 -184 -103
-292 -86 -109 17 -181 57 -298 168 -111 105 -212 178 -319 231 -134 65 -146
68 -372 68 -204 0 -207 0 -232 24 -15 14 -26 35 -26 50 0 32 89 226 176 386
135 246 319 499 526 721 216 233 380 498 472 763 84 241 275 494 583 772 68
62 85 105 63 158 -25 61 -137 85 -250 56 -209 -54 -416 -209 -616 -460 -60
-76 -91 -106 -127 -124 l-48 -24 -117 17 c-307 43 -483 -9 -551 -164 -12 -28
-24 -91 -32 -170 -11 -111 -10 -141 6 -260 30 -225 30 -215 0 -282 -86 -191
-240 -386 -407 -515 -91 -70 -92 -67 -84 145 36 954 26 1697 -25 1907 -23 96
-81 220 -138 295 -159 211 -453 307 -856 279 -130 -9 -141 -9 -165 9 -14 11
-26 31 -28 47 -7 53 14 71 127 116 58 23 149 64 201 91 95 49 230 141 230 156
0 5 -34 14 -76 20 -89 14 -163 51 -205 101 -16 20 -29 39 -29 43 0 4 69 41
153 82 439 215 680 475 765 827 41 167 39 229 -7 229 -9 0 -98 -43 -196 -95
-99 -52 -183 -95 -187 -95 -18 0 -4 25 70 122 347 458 460 907 342 1363 -45
172 -64 205 -118 205 -30 0 -49 -29 -93 -141 -52 -135 -146 -314 -185 -356
-35 -37 -82 -45 -105 -17 -25 30 -16 107 19 160 146 228 254 687 255 1079 0
355 -73 664 -230 979 -85 170 -97 186 -138 186 -23 0 -38 -6 -44 -18 -5 -10
-17 -170 -26 -357 -9 -186 -21 -347 -26 -357 -22 -42 -96 -42 -117 -1 -5 10
-12 149 -15 308 -6 305 -20 456 -62 661 -30 146 -92 341 -143 444 -49 100 -65
102 -128 20 -70 -89 -80 -84 -125 65 -56 189 -95 289 -170 440 -142 288 -316
462 -530 530 -90 28 -193 42 -203 27z m-4537 -7212 c664 -509 931 -719 927
-730 -2 -8 -17 -44 -32 -80 -23 -55 -28 -83 -32 -186 -8 -205 33 -390 124
-563 l44 -83 -62 -67 c-205 -219 -933 -971 -940 -971 -32 0 -216 150 -334 271
-294 303 -518 703 -618 1105 -49 197 -56 280 -56 720 -1 430 -14 1090 -26
1259 l-7 99 40 -29 c21 -17 459 -352 972 -745z m2049 -1432 c25 -25 14 -101
-27 -185 -22 -44 -44 -83 -49 -87 -11 -6 -152 145 -152 163 0 14 96 90 135
107 38 17 77 18 93 2z m-182 -294 c24 -28 44 -55 44 -61 0 -16 -187 -192 -360
-340 -205 -174 -304 -278 -371 -391 -228 -379 -325 -435 -427 -248 -34 62 -67
87 -124 93 -52 6 -92 -11 -152 -64 -54 -49 -100 -66 -155 -58 -56 7 -199 53
-206 66 -5 7 959 1019 971 1019 2 0 31 -22 64 -48 165 -133 308 -147 439 -43
20 16 66 69 101 116 l65 87 33 -38 c19 -22 54 -62 78 -90z m1385 -1671 l883
-1048 -50 -2 c-228 -11 -474 -31 -849 -68 -738 -74 -902 -81 -1110 -45 -385
66 -723 281 -888 565 -78 134 -119 318 -98 438 19 110 46 140 220 245 463 279
738 531 941 862 34 55 64 100 66 100 2 0 400 -471 885 -1047z"/>
</g>
</svg>
