<?xml version="1.0" standalone="no"?>
<!DOCTYPE svg PUBLIC "-//W3C//DTD SVG 20010904//EN"
 "http://www.w3.org/TR/2001/REC-SVG-20010904/DTD/svg10.dtd">
<svg version="1.0" xmlns="http://www.w3.org/2000/svg"
 width="1280.000000pt" height="640.000000pt" viewBox="0 0 1280.000000 640.000000"
 preserveAspectRatio="xMidYMid meet">
<metadata>
Created by potrace 1.15, written by Peter Selinger 2001-2017
</metadata>
<g transform="translate(0.000000,640.000000) scale(0.100000,-0.100000)"
fill="#000000" stroke="none">
<path d="M1180 5468 c0 -33 53 -135 110 -214 107 -146 340 -397 493 -531 77
-67 73 -83 -12 -53 -184 65 -783 505 -998 733 -29 31 -53 54 -53 51 0 -12 83
-170 110 -208 94 -138 309 -306 651 -511 79 -47 140 -85 136 -85 -4 0 -75 22
-158 50 -258 85 -539 233 -909 479 -221 147 -219 146 -130 61 310 -295 708
-573 961 -672 l85 -33 0 -295 c0 -402 30 -615 126 -910 85 -260 226 -525 400
-748 60 -77 67 -78 -151 15 -8 4 -5 -6 8 -23 35 -48 38 -96 8 -147 -78 -133
-361 -243 -907 -351 l-75 -15 155 5 c360 11 563 53 676 139 42 32 48 31 29 -4
-32 -63 -136 -125 -314 -186 -99 -34 -495 -145 -518 -145 -6 0 -14 -4 -17 -8
-6 -10 357 46 509 77 232 49 418 121 470 183 23 27 25 28 25 8 0 -66 -74 -144
-199 -209 -135 -70 -252 -110 -674 -232 -42 -12 -76 -24 -74 -25 4 -4 340 71
513 115 163 41 312 94 415 147 87 45 172 116 189 157 l9 22 0 -23 c2 -64 -70
-147 -204 -237 -107 -71 -221 -127 -512 -251 -211 -90 -332 -146 -283 -131 8
3 114 46 235 97 507 212 737 336 849 461 25 28 46 46 46 40 0 -32 -36 -89 -92
-148 -106 -110 -251 -208 -715 -481 -152 -90 -199 -122 -178 -122 10 0 301
139 435 208 342 176 603 350 675 449 16 23 33 42 36 42 12 2 -8 -74 -30 -118
-32 -61 -176 -203 -296 -292 -55 -41 -208 -147 -340 -236 -132 -89 -256 -176
-275 -194 -46 -41 -34 -34 267 171 489 332 764 556 822 670 18 36 22 39 16 15
-10 -46 -52 -122 -113 -205 -31 -41 -217 -237 -414 -436 -197 -198 -358 -364
-358 -369 0 -5 30 20 68 56 37 36 132 123 212 194 417 368 647 601 714 720 32
58 7 -14 -38 -111 -62 -129 -141 -257 -382 -615 -302 -450 -307 -471 -23 -86
322 436 492 685 551 805 17 34 32 62 33 62 1 0 -1 -20 -6 -46 -19 -103 -115
-284 -352 -669 -155 -250 -247 -406 -247 -419 0 -5 25 28 57 75 31 46 113 165
183 264 316 450 458 689 461 780 l1 30 9 -30 c18 -60 -23 -213 -108 -408 -19
-45 -91 -198 -160 -340 -68 -142 -123 -262 -121 -267 3 -9 283 454 371 615 83
151 148 300 160 366 7 32 15 59 19 59 4 0 15 -11 24 -25 14 -21 16 -43 12
-118 -7 -115 -36 -232 -144 -570 -47 -148 -84 -270 -81 -273 6 -6 134 288 188
432 102 269 152 448 153 547 l1 68 21 -25 c65 -75 45 -319 -61 -731 -64 -247
-64 -269 -2 -110 136 349 225 760 187 861 -22 57 23 0 56 -72 39 -84 75 -207
139 -476 26 -109 51 -200 56 -203 5 -3 7 7 4 22 -3 15 -14 98 -25 183 -39 288
-88 494 -135 564 -27 40 -26 42 14 21 93 -47 248 -297 391 -627 18 -43 35 -76
37 -75 5 6 -86 359 -119 457 -40 122 -87 217 -130 259 -31 31 -32 33 -8 26
113 -32 193 -129 367 -445 47 -87 95 -169 105 -182 l19 -23 -14 30 c-8 17 -43
113 -76 215 -97 289 -169 427 -243 463 -32 16 -32 17 -8 18 88 5 150 -38 247
-171 23 -30 93 -145 157 -255 65 -110 122 -204 128 -210 6 -6 5 0 -1 13 -7 13
-41 105 -75 205 -108 312 -159 413 -235 464 -33 22 -33 23 -9 23 31 0 94 -42
140 -95 69 -78 111 -148 283 -465 31 -58 54 -96 50 -85 -3 11 -35 115 -70 230
-88 291 -135 401 -204 473 -28 30 -28 33 -10 42 24 13 82 -10 123 -48 45 -43
134 -163 260 -354 65 -97 133 -194 153 -215 28 -31 31 -32 15 -8 -11 17 -70
131 -132 255 -131 263 -194 370 -247 423 l-38 39 50 -7 c156 -23 342 -152 702
-488 18 -17 35 -28 38 -25 13 12 -120 170 -246 293 -149 145 -245 226 -335
281 -56 34 -48 37 23 8 45 -18 215 -117 418 -242 186 -114 333 -197 340 -190
3 2 -10 15 -28 28 -17 13 -94 75 -169 137 -182 149 -341 269 -419 316 -35 20
-61 37 -58 37 24 0 430 -113 644 -179 143 -44 261 -79 261 -78 1 1 -148 78
-332 171 -183 94 -332 171 -331 173 2 1 21 -3 43 -9 23 -7 122 -12 249 -12
235 -1 730 23 718 35 -8 8 -111 22 -385 54 -150 17 -255 43 -327 79 -54 28
-131 101 -131 125 0 29 -68 286 -99 374 -16 47 -42 109 -56 139 -15 29 -20 46
-12 38 34 -33 132 -191 182 -292 l53 -108 -5 64 c-4 49 0 79 17 131 52 157
243 273 453 276 54 0 59 2 37 11 -15 7 -98 12 -205 12 -182 1 -226 -5 -367
-48 -27 -8 -48 -11 -48 -6 0 17 67 76 116 104 114 64 329 120 505 133 110 8
111 7 -127 68 -310 79 -502 93 -607 47 -26 -12 -47 -17 -47 -11 0 5 20 29 44
54 35 34 61 49 118 67 64 20 92 23 228 22 85 -1 222 -8 304 -18 82 -9 156 -16
165 -15 22 1 -296 82 -454 116 -109 23 -154 28 -280 28 -162 0 -204 -8 -256
-52 -39 -33 -45 -26 -14 19 30 44 103 82 205 106 65 15 125 17 440 16 l365 -1
-240 18 c-327 25 -663 27 -770 4 -44 -9 -101 -27 -127 -39 -54 -26 -60 -21
-20 16 89 84 254 120 732 158 378 31 388 40 35 35 -454 -6 -750 -47 -907 -125
l-58 -29 14 28 c36 69 152 136 321 185 87 26 293 67 500 101 150 24 298 56
315 67 11 7 8 8 -10 4 -14 -3 -137 -26 -275 -51 -657 -117 -979 -206 -1072
-294 -35 -33 -27 -7 8 29 88 87 286 183 695 335 279 104 437 166 474 187 19
10 26 16 15 13 -11 -4 -78 -26 -150 -50 -71 -24 -242 -81 -380 -125 -467 -153
-682 -243 -774 -324 l-25 -21 22 31 c55 80 261 229 663 480 224 140 379 242
379 250 0 3 -19 -6 -42 -20 -24 -13 -166 -94 -317 -181 -434 -248 -691 -410
-783 -493 -48 -44 -48 -33 -1 30 67 87 257 235 623 483 192 131 360 252 360
261 0 3 -19 -8 -43 -24 -23 -16 -163 -102 -312 -192 -329 -198 -475 -293 -580
-375 -83 -65 -154 -135 -173 -170 -22 -40 -12 9 12 60 48 102 183 238 531 532
252 214 269 235 90 112 -420 -288 -712 -523 -760 -614 -23 -42 -39 -41 -43 5
-9 86 121 268 457 640 72 80 131 149 131 154 0 14 -153 -128 -325 -299 -234
-233 -368 -398 -400 -492 l-13 -38 -12 29 c-35 92 65 279 343 641 72 94 135
177 141 185 22 33 -181 -171 -259 -260 -193 -220 -345 -455 -345 -534 -1 -28
-2 -29 -13 -11 -15 25 -14 191 2 300 7 44 25 150 41 235 16 85 31 175 35 200
4 25 9 54 12 65 3 13 2 16 -4 10 -12 -13 -95 -296 -127 -435 -36 -155 -49
-251 -44 -319 2 -34 3 -61 2 -61 -9 0 -58 97 -70 136 -28 94 -46 265 -53 494
l-6 235 -40 -220 c-34 -191 -40 -239 -40 -370 0 -121 3 -156 17 -183 l17 -32
-29 20 c-83 59 -122 211 -151 580 -6 85 -15 161 -19 169 -4 7 -10 -40 -13
-105 -3 -66 -11 -175 -18 -244 -18 -202 0 -359 48 -412 13 -14 13 -18 2 -18
-32 0 -76 40 -105 96 -51 98 -71 197 -110 549 -9 83 -17 151 -18 152 -6 7 -36
-425 -36 -512 0 -111 19 -201 51 -247 l22 -30 -39 20 c-127 65 -257 319 -378
737 -14 46 -14 47 -10 10 3 -22 21 -116 39 -210 47 -236 88 -375 162 -542 7
-18 -31 -17 -65 1 -40 21 -114 102 -162 176 -47 72 -196 375 -256 517 -21 51
-39 91 -41 89 -6 -5 95 -289 154 -435 65 -161 146 -327 175 -358 31 -33 11
-28 -58 13 -134 80 -323 302 -543 638 -50 77 -91 143 -91 148 0 4 -4 8 -9 8
-17 0 20 -102 76 -214 72 -139 250 -407 342 -514 70 -81 71 -82 35 -67 -20 8
-66 36 -103 62 -81 57 -449 423 -596 593 -147 171 -135 159 -135 128z m925
-2968 c13 -6 15 -9 5 -9 -8 0 -22 4 -30 9 -18 12 -2 12 25 0z m165 -45 c69
-18 118 -34 110 -34 -28 -1 -270 66 -245 68 6 0 66 -15 135 -34z m157 -41 c-3
-3 -12 -4 -19 -1 -8 3 -5 6 6 6 11 1 17 -2 13 -5z m40 -10 c-3 -3 -12 -4 -19
-1 -8 3 -5 6 6 6 11 1 17 -2 13 -5z"/>
<path d="M11758 5461 c-6 -17 -281 -322 -417 -463 -183 -190 -310 -295 -405
-336 -29 -13 -28 -12 11 31 177 192 474 690 451 758 -2 6 -36 -41 -76 -105
-235 -373 -471 -645 -608 -702 l-39 -16 21 23 c53 58 183 357 279 641 60 176
60 195 0 53 -64 -154 -200 -429 -248 -503 -55 -85 -120 -158 -158 -178 -35
-18 -73 -19 -66 -1 79 179 171 528 192 727 l5 55 -20 -73 c-54 -195 -140 -410
-208 -526 -60 -99 -99 -145 -150 -174 l-41 -23 24 43 c47 86 56 227 30 493 -8
83 -15 175 -16 205 -1 95 -16 22 -39 -197 -35 -334 -67 -451 -141 -518 -57
-51 -71 -46 -42 13 44 89 49 193 24 467 -11 132 -21 249 -21 259 0 11 -2 17
-4 15 -3 -2 -12 -92 -21 -199 -29 -349 -55 -459 -126 -534 l-38 -41 15 50 c23
73 13 280 -21 460 -15 77 -33 172 -40 210 l-13 70 -1 -110 c-4 -360 -45 -635
-106 -711 l-24 -29 5 50 c7 57 -15 204 -52 350 -39 158 -119 419 -122 401 -2
-9 8 -80 23 -158 15 -79 35 -190 46 -248 24 -132 35 -323 21 -370 -9 -30 -10
-31 -11 -10 -3 89 -191 356 -449 638 -74 81 -187 183 -156 142 6 -8 67 -88
136 -177 210 -270 329 -463 345 -556 3 -20 2 -52 -1 -73 l-7 -36 -30 62 c-34
72 -58 105 -185 250 -137 158 -561 565 -528 509 5 -9 75 -90 156 -180 354
-395 471 -570 426 -632 -12 -16 -17 -12 -58 44 -67 92 -244 238 -560 461 -128
90 -278 193 -309 212 -43 26 23 -33 222 -202 365 -309 522 -473 543 -567 6
-29 5 -28 -25 13 -65 88 -255 222 -684 481 -148 89 -300 182 -338 207 -38 24
-69 42 -69 40 0 -8 150 -116 390 -281 387 -265 541 -385 601 -468 33 -46 38
-66 9 -37 -37 37 -165 127 -313 219 -122 76 -629 370 -807 468 -88 48 0 -16
160 -117 426 -268 563 -358 664 -435 142 -107 250 -215 139 -139 -99 68 -313
154 -678 274 -137 45 -328 108 -424 139 -297 98 -140 27 309 -139 377 -141
578 -233 684 -316 56 -44 80 -82 29 -46 -114 80 -399 162 -853 246 -74 14
-209 39 -300 56 -91 16 -176 32 -190 35 -21 4 -21 3 5 -9 17 -8 98 -26 180
-41 83 -15 224 -40 315 -56 225 -41 380 -83 475 -129 85 -42 107 -58 143 -104
34 -44 27 -49 -27 -21 -161 81 -461 123 -931 130 -360 6 -339 -4 83 -40 306
-26 408 -39 527 -70 103 -27 176 -70 202 -120 10 -19 10 -19 -8 -4 -30 26
-124 57 -208 68 -93 13 -406 13 -566 1 -63 -5 -180 -12 -260 -16 -93 -5 -135
-10 -117 -15 15 -4 134 -3 265 2 453 19 670 -21 728 -133 l16 -31 -30 22 c-64
45 -109 55 -257 55 -155 -1 -253 -17 -575 -99 -189 -47 -183 -52 35 -30 188
20 378 19 466 -1 80 -18 154 -64 182 -112 l19 -33 -33 20 c-55 32 -156 43
-273 31 -143 -16 -240 -36 -510 -109 l-69 -18 84 -7 c77 -7 211 -32 299 -55
144 -39 242 -87 301 -148 28 -29 37 -43 24 -39 -54 20 -177 47 -259 57 -90 11
-265 6 -336 -10 -30 -6 -22 -8 50 -14 190 -14 335 -99 402 -235 40 -81 43
-146 14 -296 -19 -94 -19 -99 -2 -111 16 -12 15 -16 -15 -50 -18 -20 -38 -34
-45 -31 -6 2 -20 -2 -31 -10 -17 -14 -16 -14 6 -4 13 7 21 8 18 3 -12 -19
-133 -71 -212 -92 -44 -11 -165 -34 -270 -50 -324 -52 -320 -56 65 -59 334 -3
587 12 657 39 15 6 25 8 22 4 -8 -7 -190 -116 -449 -267 -113 -66 -196 -117
-185 -113 312 116 607 221 701 250 65 20 136 43 157 51 57 21 56 17 -6 -20
-31 -19 -96 -67 -144 -106 -86 -70 -473 -420 -473 -427 0 -13 130 69 320 202
229 160 319 220 400 264 81 44 134 57 60 15 -128 -73 -421 -377 -529 -548 -17
-28 -31 -54 -31 -60 0 -5 71 60 158 145 296 292 419 380 561 404 l44 7 -34
-30 c-45 -39 -107 -159 -219 -422 -50 -118 -102 -235 -116 -259 -13 -24 -23
-46 -20 -48 5 -5 108 156 187 292 133 231 190 311 252 356 33 24 97 40 97 25
0 -12 -74 -111 -81 -109 -4 2 -6 -4 -3 -11 3 -8 -2 -27 -11 -43 -15 -26 -15
-27 -9 -3 6 24 5 24 -8 5 -29 -40 -77 -192 -58 -180 4 3 11 17 14 32 10 41 38
114 43 110 2 -3 -2 -17 -8 -33 -12 -33 -138 -528 -134 -532 1 -1 41 83 90 187
127 277 206 402 287 462 61 44 89 38 38 -8 -58 -52 -111 -169 -166 -363 -25
-91 -57 -198 -70 -239 -13 -41 -22 -76 -20 -78 2 -2 51 90 110 206 59 115 124
236 145 269 76 118 150 180 212 180 l27 0 -37 -37 c-20 -20 -49 -62 -66 -93
-16 -31 -34 -54 -39 -51 -5 3 -6 1 -2 -6 4 -6 -4 -46 -18 -89 -14 -42 -43
-144 -66 -227 -22 -82 -47 -167 -55 -187 -35 -90 3 -23 100 175 145 295 210
388 304 437 55 28 58 26 21 -17 -65 -73 -99 -179 -164 -502 -44 -217 -52 -274
-26 -194 45 138 151 379 223 507 49 87 151 206 177 206 10 0 10 -4 0 -15 -7
-8 -18 -15 -25 -15 -16 0 -37 -25 -28 -33 3 -4 12 1 19 11 8 11 6 -6 -6 -49
-35 -129 -66 -365 -84 -639 -7 -115 7 -77 40 104 55 308 99 487 134 543 10 16
10 15 5 -4 -4 -14 -2 -23 5 -23 6 0 10 15 8 35 -1 19 2 39 7 44 7 6 10 -22 11
-77 1 -124 59 -342 169 -627 35 -93 107 -246 112 -241 3 2 -18 78 -46 168
-101 330 -134 480 -135 618 -1 80 2 101 19 125 l20 30 6 -55 c15 -130 123
-415 287 -754 59 -120 108 -213 110 -208 2 6 -24 82 -58 169 -194 499 -250
725 -198 791 17 20 25 14 32 -27 16 -104 187 -397 469 -806 175 -254 172 -241
-28 121 -221 399 -295 565 -295 663 l0 45 40 -84 c71 -147 178 -298 480 -680
80 -102 170 -216 198 -254 91 -120 56 -57 -67 124 -451 661 -489 722 -530 849
-27 83 -26 86 7 26 71 -128 235 -343 585 -768 335 -405 331 -394 -29 88 -127
171 -269 366 -314 435 -76 115 -136 227 -127 236 2 3 16 -13 31 -35 68 -98
355 -351 766 -675 96 -76 192 -155 213 -174 20 -20 37 -31 37 -25 0 12 -130
132 -355 328 -330 287 -484 442 -544 550 -41 71 -50 111 -14 55 79 -122 296
-280 804 -585 162 -98 308 -186 324 -197 26 -17 25 -15 -6 14 -20 18 -142 96
-270 172 -459 273 -627 403 -689 530 -37 77 -26 83 40 23 33 -31 102 -83 153
-117 164 -107 551 -295 846 -411 208 -81 174 -58 -190 131 -451 235 -605 337
-678 447 -48 72 -38 84 22 26 87 -86 202 -150 442 -248 168 -69 665 -248 671
-242 3 2 -41 21 -98 42 -479 174 -643 243 -761 318 -76 49 -149 117 -143 133
3 8 0 16 -6 20 -7 4 -8 3 -4 -4 4 -7 4 -12 1 -12 -7 0 -35 65 -35 82 0 7 9 -1
19 -18 60 -98 260 -189 557 -254 134 -29 556 -101 561 -96 3 2 -40 14 -94 26
-461 102 -654 167 -772 260 -46 37 -91 101 -91 131 0 7 12 1 28 -13 97 -91
375 -157 832 -198 69 -6 136 -13 150 -16 18 -3 21 -2 10 4 -8 5 -44 15 -80 21
-424 79 -676 161 -763 247 -47 47 -50 75 -4 40 111 -85 353 -124 682 -109
l160 7 -100 12 c-326 40 -604 109 -768 191 -69 34 -135 98 -148 144 -11 34 -9
44 13 89 14 28 23 49 19 48 -3 -2 -34 -18 -68 -36 -34 -17 -65 -32 -67 -32 -3
0 19 37 48 83 293 449 425 965 401 1566 -7 173 -6 174 14 168 26 -6 111 19
211 63 254 111 639 386 945 675 66 62 59 59 -120 -59 -389 -256 -696 -420
-928 -495 -158 -52 -157 -46 13 59 411 255 578 406 689 627 17 34 31 65 31 69
0 3 -33 -26 -72 -66 -287 -287 -909 -730 -1024 -730 -31 0 -24 8 138 168 172
168 297 307 378 417 53 71 120 198 120 226 0 19 -16 27 -22 10z"/>
<path d="M7598 3773 c7 -3 16 -2 19 1 4 3 -2 6 -13 5 -11 0 -14 -3 -6 -6z"/>
<path d="M7638 3763 c7 -3 16 -2 19 1 4 3 -2 6 -13 5 -11 0 -14 -3 -6 -6z"/>
<path d="M7680 3750 c8 -5 22 -9 30 -9 10 0 8 3 -5 9 -27 12 -43 12 -25 0z"/>
<path d="M7820 3692 c52 -27 94 -54 93 -60 -1 -5 7 -12 19 -15 68 -18 -109 97
-182 118 -14 4 18 -15 70 -43z"/>
<path d="M7778 3413 c22 -27 43 -58 47 -71 4 -13 9 -21 12 -19 7 7 -34 97 -54
119 -9 10 -22 18 -30 18 -9 0 1 -19 25 -47z"/>
<path d="M8529 2503 c-1 -5 -1 -12 0 -16 1 -4 -4 -18 -10 -30 -6 -12 -7 -17
-3 -12 5 6 20 22 33 38 l24 27 -21 0 c-12 0 -23 -3 -23 -7z"/>
<path d="M8698 2433 c-2 -12 -4 -63 -2 -63 1 0 14 16 28 35 l27 35 -25 0 c-15
0 -27 -3 -28 -7z"/>
<path d="M8904 2335 c-10 -8 -14 -15 -8 -15 6 0 17 7 24 15 16 19 9 19 -16 0z"/>
<path d="M9093 2282 c-7 -4 -8 -13 -4 -20 6 -9 12 -7 26 8 14 15 15 20 4 20
-8 0 -19 -4 -26 -8z"/>
<path d="M11076 2222 c10 -18 30 -40 44 -49 20 -13 18 -8 -10 23 -19 22 -39
44 -44 49 -5 6 0 -5 10 -23z"/>
<path d="M9269 2200 c-13 -10 -19 -19 -13 -20 6 0 19 9 29 20 23 26 14 26 -16
0z"/>
<path d="M8805 2179 c-4 -6 -5 -12 -2 -15 2 -3 7 2 10 11 7 17 1 20 -8 4z"/>
<path d="M8780 2120 c-7 -17 -10 -33 -8 -36 3 -3 11 9 17 27 14 42 7 49 -9 9z"/>
<path d="M9717 2136 c-4 -11 -10 -47 -13 -80 -4 -54 -3 -58 8 -36 7 14 15 27
19 30 3 3 3 28 0 55 -5 37 -8 45 -14 31z"/>
<path d="M9884 2108 c-13 -20 -7 -137 9 -188 14 -44 15 -43 12 73 -3 120 -6
139 -21 115z"/>
<path d="M9551 2084 c0 -11 3 -14 6 -6 3 7 2 16 -1 19 -3 4 -6 -2 -5 -13z"/>
<path d="M10596 2077 c3 -10 9 -15 12 -12 3 3 0 11 -7 18 -10 9 -11 8 -5 -6z"/>
<path d="M9197 2048 c-19 -46 -41 -128 -36 -133 3 -2 16 34 30 80 27 88 29
109 6 53z"/>
</g>
</svg>
