<?xml version="1.0" standalone="no"?>
<!DOCTYPE svg PUBLIC "-//W3C//DTD SVG 20010904//EN"
 "http://www.w3.org/TR/2001/REC-SVG-20010904/DTD/svg10.dtd">
<svg version="1.0" xmlns="http://www.w3.org/2000/svg"
 width="953.000000pt" height="1280.000000pt" viewBox="0 0 953.000000 1280.000000"
 preserveAspectRatio="xMidYMid meet">
<metadata>
Created by potrace 1.15, written by Peter Selinger 2001-2017
</metadata>
<g transform="translate(0.000000,1280.000000) scale(0.100000,-0.100000)"
fill="#000000" stroke="none">
<path d="M1177 11548 c-158 -203 -291 -386 -319 -442 -59 -115 -73 -227 -53
-433 7 -82 19 -227 25 -323 17 -275 31 -345 94 -501 91 -227 198 -435 334
-654 31 -49 652 -1387 652 -1404 0 -5 -37 -7 -82 -4 -77 4 -86 3 -124 -22
-118 -79 -193 -327 -181 -605 4 -107 12 -154 56 -327 64 -253 72 -329 55 -509
-7 -76 -10 -161 -7 -188 3 -28 35 -130 70 -226 118 -321 130 -423 74 -650 -31
-125 -33 -144 -28 -255 6 -150 22 -201 84 -255 44 -39 134 -80 174 -80 16 0
19 -4 14 -18 -28 -69 -87 -239 -104 -297 -63 -219 -42 -422 56 -543 20 -26
171 -209 334 -407 345 -420 622 -769 675 -852 101 -158 178 -349 269 -668 85
-301 158 -439 304 -585 123 -123 254 -194 403 -220 89 -16 144 -9 253 29 50
18 146 43 215 56 131 26 290 45 290 36 0 -4 25 -6 55 -6 30 0 55 2 55 6 0 9
159 -10 290 -36 69 -13 166 -38 215 -56 109 -38 164 -45 253 -29 149 26 280
97 403 220 146 146 219 284 304 585 91 319 168 510 269 668 53 83 330 432 675
852 163 198 314 381 334 407 98 121 119 324 56 543 -17 58 -76 228 -104 298
-5 13 -2 17 14 17 40 0 130 41 174 80 62 54 78 105 84 255 5 111 3 130 -28
255 -56 227 -44 329 74 650 35 96 67 198 70 226 3 27 0 112 -7 188 -17 180 -9
256 55 509 44 173 52 220 56 327 12 278 -63 526 -181 605 -38 25 -47 26 -123
22 -46 -3 -83 -1 -83 4 0 17 621 1355 652 1404 136 219 243 427 334 654 63
156 77 226 94 501 6 96 18 241 25 323 20 206 6 318 -53 433 -28 56 -161 239
-319 442 -117 149 -138 172 -157 166 -11 -4 -22 -8 -24 -9 -1 -1 2 -33 8 -71
20 -123 29 -335 20 -471 -11 -157 -31 -249 -110 -488 -32 -99 -62 -198 -66
-219 -17 -92 -117 -296 -227 -462 -99 -150 -362 -504 -526 -709 -160 -201
-267 -316 -309 -331 -28 -11 -34 -8 -133 73 -244 199 -413 318 -619 435 -346
197 -423 233 -547 262 -75 16 -803 89 -898 89 -95 0 -823 -73 -898 -89 -124
-29 -201 -65 -547 -262 -206 -117 -375 -236 -619 -435 -99 -81 -105 -84 -133
-73 -42 15 -149 130 -309 331 -164 205 -427 559 -526 709 -110 166 -210 370
-227 462 -4 21 -34 120 -66 219 -79 239 -99 331 -110 488 -9 136 0 348 20 471
6 38 9 70 8 71 -2 1 -13 5 -24 9 -19 6 -40 -17 -157 -166z m6510 -6430 c-2
-13 -4 -5 -4 17 -1 22 1 32 4 23 2 -10 2 -28 0 -40z"/>
</g>
</svg>
