<?xml version="1.0" standalone="no"?>
<!DOCTYPE svg PUBLIC "-//W3C//DTD SVG 20010904//EN"
 "http://www.w3.org/TR/2001/REC-SVG-20010904/DTD/svg10.dtd">
<svg version="1.0" xmlns="http://www.w3.org/2000/svg"
 width="609.000000pt" height="1280.000000pt" viewBox="0 0 609.000000 1280.000000"
 preserveAspectRatio="xMidYMid meet">
<metadata>
Created by potrace 1.15, written by Peter Selinger 2001-2017
</metadata>
<g transform="translate(0.000000,1280.000000) scale(0.100000,-0.100000)"
fill="#000000" stroke="none">
<path d="M2525 12484 c-16 -2 -70 -9 -120 -15 -731 -90 -1404 -507 -1820
-1129 -216 -324 -346 -658 -411 -1057 -21 -134 -30 -489 -15 -639 77 -771 506
-1486 1143 -1905 53 -35 118 -77 144 -94 42 -26 50 -37 61 -80 49 -190 13
-442 -97 -672 l-49 -103 -38 0 c-127 -1 -238 -151 -194 -264 4 -11 1 -39 -8
-64 -13 -41 -13 -50 1 -89 15 -40 14 -43 -4 -49 -27 -8 -88 -63 -88 -79 0 -8
10 -11 27 -8 24 3 21 0 -13 -17 -57 -29 -250 -229 -258 -268 -4 -16 -16 -38
-28 -48 -27 -25 -48 -68 -48 -98 0 -14 -9 -40 -20 -58 -11 -18 -20 -41 -20
-51 0 -10 -10 -31 -22 -48 -15 -20 -24 -48 -26 -82 -1 -29 -7 -97 -12 -152 -5
-55 -7 -113 -3 -130 4 -16 5 -42 4 -57 -1 -15 4 -37 11 -50 7 -13 13 -36 14
-53 1 -16 7 -61 14 -99 6 -37 10 -81 8 -97 -3 -16 -4 -29 -3 -29 0 0 26 24 56
53 35 34 69 57 97 65 24 8 46 11 49 9 2 -3 0 -22 -6 -43 -11 -42 -26 -265 -23
-354 1 -30 13 -100 28 -155 14 -55 29 -129 33 -165 5 -36 19 -90 33 -120 14
-30 31 -72 37 -92 7 -20 18 -42 26 -48 8 -6 26 -44 41 -83 30 -81 91 -151 139
-163 35 -9 127 -65 169 -103 33 -30 33 -29 -16 65 -59 113 -78 182 -78 277 0
92 26 211 64 292 13 28 29 66 35 85 6 19 32 73 57 120 238 439 275 541 305
825 14 133 7 217 -24 310 -13 39 -27 84 -31 100 -7 28 -6 29 7 10 8 -11 21
-40 28 -65 18 -66 29 -71 29 -14 0 154 -73 306 -232 483 l-107 119 21 41 c11
23 33 48 49 56 34 18 72 68 88 114 17 53 13 103 -13 156 l-25 48 40 79 c96
190 143 399 138 603 -2 69 -2 125 1 125 3 0 42 -15 86 -34 172 -72 414 -138
614 -167 47 -7 86 -13 88 -14 1 -1 -9 -25 -24 -53 -63 -121 -55 -270 35 -642
28 -113 54 -235 59 -273 l9 -67 -44 -26 c-108 -63 -136 -202 -61 -305 18 -24
33 -51 33 -59 1 -8 2 -25 3 -37 1 -13 17 -40 36 -60 l33 -38 -12 -60 c-7 -34
-42 -133 -78 -220 -103 -253 -142 -396 -191 -705 -53 -327 -60 -425 -61 -775
0 -354 9 -464 61 -725 50 -252 149 -555 250 -766 19 -39 34 -74 34 -77 0 -8
169 -319 218 -402 87 -148 181 -299 254 -407 43 -64 78 -121 78 -127 0 -5 4
-11 8 -13 5 -1 39 -48 76 -103 37 -55 78 -113 92 -129 49 -55 187 -272 240
-378 99 -197 135 -345 114 -466 -6 -37 -17 -73 -23 -81 -21 -25 45 -3 67 22
51 59 165 362 186 492 6 39 8 90 5 115 -5 34 -1 59 14 98 12 29 21 74 21 100
0 30 9 65 23 93 19 38 22 61 23 159 0 103 4 122 28 180 26 59 28 72 22 145 -3
44 -6 85 -6 90 -1 6 4 35 11 65 7 35 9 88 4 145 -4 50 -8 142 -10 205 -2 84
-8 133 -24 182 -17 53 -22 98 -25 210 -1 79 -8 156 -14 171 -8 18 -10 62 -6
130 7 115 -10 232 -51 345 -19 52 -22 75 -16 103 10 42 -9 187 -32 240 -8 20
-18 60 -22 90 -10 82 -32 160 -64 230 -15 35 -36 86 -46 112 -9 26 -32 71 -51
99 -19 27 -34 58 -34 67 0 9 -7 26 -15 37 -8 10 -14 30 -15 44 0 14 -8 54 -19
90 -11 36 -24 88 -31 115 -7 33 -34 84 -78 149 -37 54 -83 126 -102 161 -19
34 -45 75 -57 92 -12 16 -38 61 -58 98 -19 38 -53 92 -74 120 -48 63 -77 134
-86 203 -14 126 -95 280 -225 426 l-78 89 2 56 c1 32 10 71 21 91 42 78 14
199 -59 255 -32 24 -34 30 -45 118 -7 50 -39 198 -72 327 -87 344 -90 455 -13
540 51 56 121 80 235 80 205 0 496 52 732 131 83 27 153 46 156 41 3 -4 20
-28 37 -52 104 -149 176 -402 191 -665 l5 -110 -37 -20 c-99 -52 -127 -194
-59 -298 19 -28 24 -46 19 -67 -9 -41 10 -98 44 -134 l29 -31 -85 -210 c-198
-490 -239 -775 -167 -1164 19 -102 63 -253 105 -358 37 -95 170 -367 181 -371
7 -3 86 -126 129 -200 8 -15 27 -40 42 -57 50 -55 317 -398 498 -638 175 -233
239 -339 257 -422 4 -21 12 -40 18 -42 15 -5 41 60 55 137 7 36 23 84 35 108
12 23 26 68 29 100 4 31 13 71 20 87 7 17 28 73 45 125 32 92 33 101 33 260 1
299 -31 526 -87 607 -18 27 -41 79 -51 117 -10 38 -29 81 -41 96 -13 14 -30
46 -40 71 -20 51 -45 91 -85 134 -15 17 -30 46 -34 65 -11 54 -61 142 -116
203 -27 30 -49 60 -49 66 0 20 -61 134 -96 180 -19 24 -34 51 -34 60 0 9 -18
53 -40 99 -22 45 -40 88 -40 95 0 7 -14 34 -30 61 -25 39 -29 52 -22 79 l9 32
17 -35 c10 -19 31 -48 46 -65 17 -19 31 -51 39 -87 7 -31 25 -76 41 -100 16
-24 30 -53 30 -65 0 -35 36 -120 67 -161 15 -20 38 -57 50 -82 21 -42 60 -93
148 -195 19 -22 51 -59 71 -82 20 -23 84 -73 142 -109 59 -37 123 -82 142
-100 32 -30 117 -74 142 -74 5 0 22 -9 37 -20 16 -10 50 -24 77 -30 27 -6 69
-21 94 -34 65 -34 98 -38 160 -21 30 9 99 26 153 38 54 13 95 26 91 30 -4 4
-15 7 -25 7 -29 0 -185 67 -233 99 -69 48 -130 124 -185 230 -28 55 -51 105
-51 112 0 7 -9 31 -20 53 -10 23 -42 122 -70 221 -96 341 -149 472 -247 617
-114 171 -207 265 -318 321 -27 14 -63 36 -80 47 -28 20 -28 21 -5 15 14 -4
45 -18 69 -31 24 -13 46 -22 48 -20 8 7 -76 86 -124 116 -100 64 -316 110
-511 110 -29 0 -52 2 -52 5 0 2 10 23 21 45 17 32 20 51 15 87 -5 39 -2 49 19
75 32 38 48 101 40 154 -6 43 -44 109 -74 131 -51 37 -50 35 -61 158 -27 302
-92 530 -200 702 -22 35 -40 66 -40 67 0 2 48 30 107 62 243 133 452 292 645
492 355 369 591 827 682 1326 132 718 -40 1449 -478 2033 -100 133 -308 349
-441 456 -214 172 -501 335 -750 425 -131 48 -360 105 -505 127 -99 16 -514
29 -585 19z m205 -349 c0 -97 -3 -114 -40 -223 -75 -215 -137 -496 -155 -697
-13 -154 -13 -153 -48 -160 -71 -14 -197 -60 -280 -101 -49 -24 -90 -44 -92
-44 -2 0 -18 23 -35 52 -31 50 -31 53 -16 79 45 77 -6 162 -97 161 l-42 -1
-71 107 -71 107 30 38 c58 71 43 193 -30 245 -43 30 -101 43 -148 32 -22 -5
-43 -10 -46 -10 -5 0 -30 35 -92 131 l-17 26 108 61 c254 144 564 248 837 281
50 6 101 13 115 15 14 2 62 4 108 5 l82 1 0 -105z m360 79 c128 -19 335 -71
449 -113 105 -39 263 -112 259 -120 -2 -3 -22 -43 -45 -88 l-42 -82 -36 10
c-66 19 -156 -24 -190 -92 -18 -33 -20 -121 -4 -152 6 -12 25 -36 41 -53 l29
-31 -58 -117 -58 -116 -38 0 c-46 0 -81 -21 -97 -60 -15 -37 -6 -92 20 -115
19 -17 19 -18 -10 -76 l-30 -58 -65 30 c-36 16 -109 42 -163 57 l-97 28 -8
105 c-15 211 -80 520 -152 728 -27 79 -34 117 -40 220 l-8 124 119 -7 c65 -3
166 -13 224 -22z m846 -306 c243 -144 501 -377 665 -598 104 -140 161 -232
151 -241 -4 -4 -43 -28 -88 -52 -65 -37 -101 -49 -195 -66 -239 -45 -509 -132
-719 -232 l-109 -52 -94 90 c-52 49 -129 111 -170 138 l-76 48 28 55 c26 52
29 54 71 56 34 2 49 9 71 34 35 39 37 79 8 131 l-21 38 55 110 55 109 64 0
c49 -1 71 4 100 22 97 60 114 196 34 275 l-33 32 41 83 c22 45 45 82 50 82 5
0 55 -28 112 -62z m-2426 -120 c25 -40 46 -75 48 -80 2 -4 -9 -24 -25 -44 -24
-32 -28 -46 -28 -104 0 -57 4 -72 28 -103 47 -62 119 -85 202 -65 29 8 32 5
101 -100 l71 -107 -19 -30 c-23 -39 -23 -72 2 -112 20 -34 69 -54 112 -46 21
4 30 -3 56 -45 18 -27 32 -52 32 -55 0 -3 -21 -21 -47 -39 -27 -18 -85 -68
-130 -111 l-81 -78 -79 39 c-191 96 -469 188 -727 241 -101 20 -166 40 -228
69 -49 23 -88 45 -88 50 0 16 136 214 207 302 83 103 232 254 333 336 77 63
201 153 210 153 3 0 25 -32 50 -71z m3335 -870 c106 -222 178 -457 209 -683
23 -170 25 -206 12 -210 -6 -2 -49 -6 -96 -10 l-85 -6 -23 51 c-68 148 -303
125 -329 -33 l-5 -34 -76 -7 c-41 -3 -101 -6 -134 -6 -53 0 -59 2 -70 26 -14
31 -56 54 -99 54 -34 0 -99 -55 -99 -84 0 -13 -12 -16 -63 -16 l-63 0 -12 88
c-6 48 -19 114 -28 147 -9 33 -18 69 -21 80 -3 16 14 33 84 82 200 141 404
325 554 499 70 81 92 100 172 143 51 28 96 51 100 51 5 0 37 -60 72 -132z
m-4042 73 c93 -44 107 -55 160 -118 131 -159 392 -396 575 -520 45 -31 82 -60
82 -65 0 -4 -11 -45 -24 -92 -21 -72 -50 -285 -43 -319 1 -8 -20 -13 -63 -14
-63 -3 -66 -2 -85 29 -47 75 -144 69 -185 -11 l-20 -41 -73 0 c-39 0 -95 -3
-124 -6 l-52 -7 -16 39 c-32 77 -85 114 -165 114 -84 0 -147 -48 -171 -130
-10 -33 -17 -40 -38 -40 -14 0 -56 -3 -93 -7 l-68 -6 0 136 c0 302 69 620 200
918 39 88 91 189 98 189 2 0 49 -22 105 -49z m4277 -1109 c0 -288 -62 -594
-177 -877 -36 -89 -114 -249 -128 -263 -2 -2 -46 20 -99 49 -81 44 -106 64
-155 123 -74 91 -282 295 -386 381 -44 36 -126 98 -181 137 l-102 71 19 56
c27 78 49 210 49 296 l0 73 59 7 c62 7 81 3 81 -19 0 -7 12 -23 26 -37 19 -18
37 -24 71 -24 38 0 49 5 74 33 16 18 29 39 29 46 0 15 40 21 197 29 l72 4 6
-29 c13 -58 100 -127 160 -128 81 0 170 68 181 140 l6 39 82 4 c44 1 89 4 99
5 15 2 17 -9 17 -116z m-3522 -82 c5 -67 23 -165 44 -234 18 -59 19 -70 6 -77
-34 -19 -179 -126 -268 -198 -114 -92 -314 -289 -394 -389 -48 -59 -73 -80
-141 -117 -45 -25 -87 -45 -93 -45 -25 0 -133 232 -198 425 -62 186 -129 551
-110 600 4 12 25 15 96 15 l90 0 15 -37 c21 -50 42 -72 90 -94 53 -24 99 -24
152 2 50 24 82 65 90 114 7 42 6 42 161 50 l112 5 10 -25 c14 -37 68 -67 110
-61 36 5 90 53 90 80 0 17 29 24 90 22 44 -1 45 -2 48 -36z m517 -885 c50 -33
91 -60 93 -61 2 -1 -9 -27 -25 -58 -26 -53 -29 -56 -65 -56 -28 0 -46 -8 -70
-29 -28 -25 -33 -36 -33 -75 0 -33 6 -51 22 -67 l22 -22 -59 -117 -59 -117
-53 4 c-69 6 -133 -26 -165 -83 -41 -71 -24 -178 34 -224 l24 -19 -42 -83
c-23 -46 -43 -85 -45 -87 -4 -5 -106 54 -194 113 -273 181 -502 411 -678 679
-35 54 -63 99 -61 101 2 1 49 27 104 58 79 43 119 58 190 72 134 26 296 70
446 122 126 44 310 122 353 151 17 11 27 4 95 -65 42 -42 117 -104 166 -137z
m1700 146 c213 -97 510 -189 712 -222 59 -9 99 -24 168 -61 50 -27 94 -53 98
-57 9 -9 -104 -184 -193 -296 -95 -120 -281 -299 -410 -396 -63 -47 -120 -89
-127 -92 -7 -4 -31 24 -62 73 l-50 80 25 37 c31 47 38 72 32 133 -6 58 -41
110 -91 134 -39 18 -118 21 -146 6 -16 -8 -29 6 -92 101 l-73 110 17 29 c47
78 -14 171 -104 158 -26 -4 -34 0 -58 36 -15 23 -31 46 -34 52 -4 7 21 33 61
62 37 28 94 78 127 111 33 34 62 61 65 61 2 0 63 -27 135 -59z m-378 -234 c30
-49 31 -53 15 -71 -11 -11 -17 -35 -17 -63 0 -38 5 -49 34 -75 29 -26 40 -30
75 -26 l42 5 72 -109 73 -109 -25 -30 c-73 -87 -51 -209 49 -267 31 -18 51
-22 90 -19 28 3 57 7 66 11 12 5 29 -12 67 -72 29 -43 52 -81 52 -84 0 -10
-169 -104 -277 -155 -136 -63 -363 -137 -520 -167 -140 -27 -418 -54 -430 -42
-4 4 -9 54 -11 111 -4 98 -2 108 33 206 85 241 165 632 165 809 0 46 2 50 28
55 78 17 226 69 292 104 41 21 80 39 85 40 6 0 24 -23 42 -52z m-1133 -17 c37
-17 108 -42 158 -55 50 -13 92 -26 94 -27 2 -2 8 -55 14 -118 24 -246 79 -504
152 -707 38 -109 42 -127 45 -237 l4 -119 -118 7 c-297 17 -586 88 -844 208
-49 22 -89 45 -89 50 0 4 18 44 39 87 l40 78 54 -5 c68 -5 126 22 163 78 47
71 32 178 -31 228 l-26 21 59 118 60 118 42 1 c35 0 48 6 71 32 35 39 37 79 8
132 l-21 37 26 51 c15 29 28 52 30 52 2 0 33 -14 70 -30z"/>
</g>
</svg>
