<?xml version="1.0" standalone="no"?>
<!DOCTYPE svg PUBLIC "-//W3C//DTD SVG 20010904//EN"
 "http://www.w3.org/TR/2001/REC-SVG-20010904/DTD/svg10.dtd">
<svg version="1.0" xmlns="http://www.w3.org/2000/svg"
 width="1262.000000pt" height="1280.000000pt" viewBox="0 0 1262.000000 1280.000000"
 preserveAspectRatio="xMidYMid meet">
<metadata>
Created by potrace 1.15, written by Peter Selinger 2001-2017
</metadata>
<g transform="translate(0.000000,1285.000000) scale(0.100000,-0.100000)"
fill="#000000" stroke="none">
<path d="M10593 12738 c-104 -107 -114 -146 -83 -310 26 -132 28 -238 7 -288
-33 -76 -123 -140 -287 -203 -233 -90 -317 -120 -342 -122 -43 -5 -147 -66
-185 -109 -45 -53 -94 -141 -133 -241 -51 -130 -99 -212 -205 -355 -91 -122
-229 -330 -299 -452 -16 -27 -32 -51 -37 -54 -15 -9 -26 34 -59 218 -33 190
-56 265 -82 279 -13 7 -21 4 -32 -13 -22 -31 -21 -140 5 -389 28 -274 28 -418
0 -534 -92 -381 -201 -594 -434 -840 l-66 -70 -1 262 0 262 -37 61 c-20 34
-75 105 -123 158 -219 245 -341 420 -446 638 -40 83 -87 168 -105 188 -48 55
-124 103 -324 204 -99 50 -238 129 -310 176 -71 47 -140 86 -152 86 -39 0 -27
-37 29 -97 69 -72 167 -136 363 -235 296 -150 331 -179 406 -347 55 -123 112
-228 163 -301 18 -25 36 -52 41 -60 10 -17 16 -22 -98 69 -43 33 -83 61 -88
61 -21 0 41 -66 194 -208 88 -81 199 -192 246 -247 144 -167 131 -135 131
-309 0 -295 -32 -531 -89 -661 -21 -47 -234 -390 -352 -567 -124 -185 -191
-269 -276 -347 -43 -39 -87 -84 -97 -100 -18 -26 -131 -111 -149 -111 -4 0 -7
37 -7 83 0 111 -19 342 -32 395 -8 30 -17 44 -33 48 -23 6 -54 64 -96 182 -24
69 -48 92 -94 92 -52 0 -60 -12 -120 -182 -36 -105 -38 -107 -58 -93 -34 24
-75 19 -101 -12 l-23 -27 -22 66 c-23 70 -41 93 -81 103 -38 9 -90 -30 -121
-92 l-26 -52 -7 46 c-3 25 -6 66 -6 91 0 24 -5 74 -12 109 -10 53 -17 68 -41
85 -27 20 -31 20 -63 5 -79 -38 -133 -247 -121 -474 4 -62 3 -115 -2 -117 -5
-3 -21 -53 -36 -111 -16 -58 -31 -105 -34 -105 -4 0 -14 46 -23 103 -9 56 -26
134 -38 172 -11 39 -25 88 -30 110 -5 22 -21 53 -35 69 -14 16 -25 39 -25 52
0 36 -54 74 -105 74 -23 0 -47 -6 -53 -13 -16 -19 -40 -384 -46 -692 -6 -258
-19 -488 -32 -547 -4 -22 -11 -28 -32 -28 -36 0 -104 73 -232 250 -163 227
-243 302 -375 351 -33 12 -69 28 -80 35 -32 20 -130 34 -241 34 -88 0 -104 3
-113 18 -9 16 -11 16 -29 -4 -13 -13 -39 -24 -70 -28 -27 -3 -67 -18 -87 -32
-102 -69 -174 -24 -175 108 -1 29 -7 85 -15 123 -8 39 -20 95 -26 124 -20 101
-36 127 -108 178 -36 26 -118 98 -182 161 -64 62 -130 122 -147 132 -77 47
-153 191 -247 470 -55 163 -72 229 -101 400 -19 113 -50 277 -69 365 -51 236
-53 248 -65 411 -15 201 -32 283 -97 448 -63 163 -80 232 -89 374 -4 56 -11
102 -15 102 -18 0 -32 -91 -31 -200 1 -105 5 -129 48 -280 l47 -165 4 -200 5
-200 -32 30 c-56 52 -160 187 -212 275 -28 47 -88 167 -134 267 -87 192 -100
214 -227 383 -93 123 -116 166 -173 323 -59 163 -100 214 -218 277 -73 38
-188 72 -229 68 -28 -3 -16 -11 104 -70 105 -51 150 -80 192 -121 60 -58 71
-80 123 -230 41 -122 87 -204 167 -303 113 -140 104 -120 77 -169 l-23 -43 60
-108 c34 -60 89 -161 123 -224 80 -148 130 -222 229 -342 45 -54 78 -98 75
-98 -19 0 -198 170 -265 252 -96 117 -120 136 -228 182 -91 40 -115 55 -211
134 -126 105 -137 117 -156 190 -27 101 -41 129 -88 177 -51 50 -166 108 -248
125 -92 18 -134 -7 -61 -36 148 -59 236 -123 272 -197 12 -24 25 -78 31 -121
11 -91 20 -105 103 -171 35 -27 93 -75 129 -105 36 -30 104 -76 150 -102 86
-48 142 -99 219 -198 24 -30 96 -108 162 -172 65 -64 117 -123 115 -130 -17
-50 -394 -22 -762 57 -172 36 -273 46 -568 54 l-273 7 -116 47 c-175 70 -270
90 -404 84 -116 -4 -198 -27 -219 -59 -22 -35 4 -41 118 -28 190 23 301 6 484
-75 104 -46 138 -52 342 -65 181 -11 440 -37 448 -45 23 -23 -73 -86 -166
-110 -172 -44 -202 -57 -292 -116 -113 -75 -169 -101 -380 -174 -180 -62 -200
-71 -200 -85 0 -29 258 12 425 66 44 15 134 55 200 89 89 46 145 68 215 84 61
14 136 42 209 77 135 65 194 79 316 70 50 -4 198 -13 330 -21 149 -8 259 -20
291 -29 146 -45 201 -139 338 -575 88 -279 134 -407 171 -480 17 -35 24 -62
21 -77 -4 -16 -45 -49 -134 -108 -195 -128 -210 -132 -382 -96 -112 23 -206
25 -352 5 -137 -18 -163 -26 -338 -100 -104 -45 -190 -73 -305 -100 -193 -46
-260 -77 -493 -223 -197 -123 -242 -156 -242 -179 0 -14 3 -13 26 2 14 9 126
70 249 135 238 126 325 160 475 185 174 30 232 45 359 95 179 70 241 82 401
82 157 -1 233 -17 238 -49 2 -14 -17 -44 -58 -89 -34 -38 -93 -116 -133 -174
-39 -57 -86 -121 -105 -142 -55 -61 -164 -136 -280 -193 -59 -29 -114 -60
-121 -69 -23 -28 15 -31 75 -6 93 38 146 51 249 59 119 10 169 33 184 85 12
46 116 198 197 289 54 61 83 84 148 118 44 23 124 68 176 99 162 98 220 120
311 120 46 0 47 -1 125 -92 122 -143 150 -179 177 -233 28 -56 47 -136 47
-196 0 -29 6 -46 24 -62 13 -12 35 -45 49 -72 33 -66 98 -132 154 -157 49 -22
107 -19 172 8 49 21 55 18 33 -18 -11 -18 -23 -58 -27 -88 -14 -110 -72 -196
-126 -188 -27 4 -68 80 -110 203 -23 70 -32 84 -68 109 -65 44 -161 175 -161
219 0 8 -13 20 -28 26 -16 7 -62 45 -102 86 -41 41 -78 75 -83 75 -16 0 3 -70
38 -144 19 -39 37 -83 40 -98 3 -18 16 -32 40 -43 44 -21 100 -91 146 -180 20
-38 52 -99 72 -135 45 -83 89 -213 85 -253 -3 -30 -6 -32 -43 -35 -55 -3 -125
49 -163 120 -33 64 -83 118 -109 118 -41 0 -116 34 -147 66 -18 19 -40 34 -49
34 -9 0 -59 29 -112 65 -52 36 -100 65 -107 65 -7 0 24 -37 69 -82 44 -46 86
-93 92 -105 6 -12 32 -31 57 -42 51 -23 202 -165 261 -246 21 -27 58 -75 83
-105 96 -113 100 -138 27 -191 -115 -84 -154 -94 -465 -119 -154 -12 -312 -52
-312 -78 0 -5 73 -9 163 -10 89 0 180 -1 202 -2 22 0 101 1 175 3 122 3 140 6
187 30 57 30 244 77 302 77 43 0 65 -20 131 -120 24 -36 64 -90 90 -120 52
-61 150 -195 192 -262 15 -24 79 -100 142 -170 99 -109 124 -144 170 -237 31
-60 101 -179 158 -264 57 -86 115 -175 130 -199 15 -24 65 -86 112 -139 l86
-97 0 -98 c0 -106 29 -271 75 -419 28 -93 32 -185 15 -388 -13 -159 -29 -230
-90 -393 -96 -261 -189 -429 -326 -590 -107 -126 -194 -252 -263 -379 -39 -71
-72 -133 -73 -137 -2 -4 -20 -3 -40 2 -29 8 -45 7 -75 -5 -69 -29 -141 -114
-164 -195 -18 -66 -31 -76 -112 -89 -95 -16 -142 -41 -231 -123 -80 -73 -143
-154 -226 -288 -29 -47 -53 -86 -54 -87 -1 -1 -42 -7 -91 -13 -50 -6 -130 -22
-180 -35 -49 -13 -135 -26 -190 -29 -141 -9 -229 -20 -388 -50 -153 -29 -222
-32 -312 -13 -33 6 -87 9 -120 6 -33 -3 -94 -2 -135 3 -243 27 -490 18 -517
-18 -31 -42 22 -69 152 -80 44 -3 118 -12 165 -19 77 -12 116 -26 290 -101 45
-19 74 -24 155 -25 l100 -1 -60 -19 c-33 -10 -107 -28 -164 -40 -126 -25 -302
-73 -354 -96 -52 -23 -46 -47 13 -52 60 -4 431 26 545 45 50 9 189 49 311 90
121 41 237 74 257 74 32 0 199 -38 318 -72 29 -8 42 -7 70 8 19 10 48 19 65
20 120 5 180 18 279 60 57 24 119 53 138 64 19 11 65 31 103 44 177 61 473
228 645 363 48 37 138 116 201 175 111 104 117 108 318 210 234 118 308 142
450 144 71 1 109 7 150 23 68 26 117 20 126 -15 3 -12 3 -28 -1 -34 -3 -6 -83
-65 -177 -132 -94 -66 -202 -147 -242 -178 -94 -76 -125 -90 -205 -97 -60 -5
-78 -2 -189 37 -110 38 -126 41 -152 30 -59 -25 -123 -119 -118 -173 4 -42 35
-47 94 -16 l43 24 68 -34 c157 -78 290 -104 405 -81 36 7 129 44 218 86 85 41
158 74 161 74 3 0 12 -33 18 -73 11 -67 10 -76 -10 -121 -11 -26 -36 -73 -55
-105 -42 -69 -50 -99 -63 -227 -12 -112 -43 -224 -96 -336 -38 -82 -70 -120
-141 -168 -27 -19 -97 -81 -155 -139 -58 -59 -116 -111 -130 -117 -143 -64
-159 -74 -208 -134 -93 -112 -126 -203 -77 -216 30 -7 44 0 150 81 52 40 100
68 125 74 60 13 115 50 224 150 54 50 123 105 154 122 148 85 220 175 308 386
53 125 88 188 110 197 23 8 151 -20 188 -42 49 -28 72 -71 101 -189 43 -173
146 -355 242 -428 63 -48 61 -15 -6 66 -104 128 -138 216 -168 436 -21 154
-96 233 -275 289 -31 10 -57 20 -57 23 0 3 15 27 33 53 18 25 48 78 66 117
l33 72 -11 117 c-11 112 -11 120 12 187 18 53 29 71 44 73 12 2 66 -26 133
-68 185 -118 318 -172 425 -173 93 0 169 33 215 96 37 50 55 109 41 135 -6 11
-6 24 1 35 6 12 6 28 0 47 -16 45 4 65 54 51 128 -33 265 -20 377 35 48 25 69
31 72 22 70 -198 128 -320 188 -390 53 -63 139 -110 257 -139 87 -21 117 -23
340 -24 135 0 308 6 384 12 121 11 146 11 190 -3 65 -19 82 -42 150 -193 70
-156 127 -229 231 -296 66 -43 99 -56 190 -78 230 -56 469 -56 448 -1 -7 19
-26 26 -163 65 -189 55 -301 100 -382 157 -98 67 -148 130 -211 262 -112 237
-145 257 -497 301 -188 23 -356 76 -419 133 -13 11 -48 54 -77 94 -30 39 -58
72 -62 72 -19 0 -91 114 -120 190 -68 184 -85 258 -87 375 -1 109 -8 138 -43
178 -8 9 -22 17 -30 17 -9 0 -43 26 -77 59 -38 37 -91 74 -143 100 -157 79
-246 152 -319 261 -36 54 -121 222 -158 311 -38 94 -130 399 -155 516 -19 91
-21 121 -16 290 3 103 6 203 7 221 0 30 6 35 68 66 37 18 100 57 141 86 l73
54 174 7 c189 8 188 8 348 47 97 23 131 26 285 26 96 0 243 -2 325 -4 167 -6
183 -2 292 72 28 20 84 48 125 63 40 16 165 67 278 116 113 48 243 104 290
123 47 20 116 53 154 73 118 61 255 54 506 -27 69 -22 168 -52 220 -66 52 -14
129 -36 170 -49 58 -18 97 -23 170 -23 106 1 215 -21 267 -53 23 -14 42 -19
62 -14 15 3 74 1 129 -4 56 -6 108 -8 117 -5 28 11 -10 40 -89 70 -39 14 -89
37 -112 50 -34 19 -50 22 -95 17 -60 -6 -193 22 -275 59 -25 11 -75 24 -111
29 -77 11 -147 40 -185 76 -37 35 -35 59 4 79 42 22 280 102 340 115 25 6 134
54 240 108 116 59 225 106 272 119 46 12 90 31 105 45 14 13 64 49 111 80 203
132 188 161 -46 82 -73 -25 -145 -45 -160 -45 -17 0 -42 -14 -70 -39 -76 -71
-242 -145 -369 -166 -57 -9 -102 -25 -157 -53 -86 -45 -167 -72 -312 -102
-116 -24 -159 -25 -175 -6 -28 34 40 103 209 211 41 27 103 74 138 106 70 64
209 159 275 189 48 22 302 270 296 289 -3 8 -44 -16 -105 -61 -112 -82 -150
-103 -211 -118 -24 -6 -43 -15 -43 -19 0 -34 -183 -145 -280 -171 -35 -9 -59
-26 -105 -75 -39 -41 -82 -74 -123 -94 -34 -17 -106 -57 -160 -89 -53 -32
-112 -64 -129 -71 -72 -29 -160 23 -204 122 -28 63 -30 138 -9 342 24 233 14
445 -20 445 -11 0 -26 -56 -35 -130 -11 -101 -27 -162 -55 -223 -25 -52 -28
-68 -23 -121 4 -50 1 -75 -21 -137 -14 -41 -26 -86 -26 -100 0 -13 17 -58 37
-99 46 -92 56 -183 26 -240 -18 -36 -30 -45 -217 -156 -265 -159 -327 -183
-555 -214 -85 -12 -172 -28 -195 -35 -23 -8 -53 -15 -67 -15 -15 0 -82 -12
-150 -27 -118 -25 -141 -26 -454 -29 -350 -3 -488 5 -619 37 -127 31 -228 36
-276 14 -24 -11 -44 -15 -49 -9 -14 16 -49 157 -56 224 -3 36 -15 99 -25 140
-26 101 -28 302 -6 545 10 105 19 273 21 375 3 102 7 244 11 315 6 111 4 135
-10 163 -12 24 -15 45 -10 83 l7 50 206 191 c226 209 300 269 376 303 70 32
529 151 655 171 88 14 122 15 215 5 189 -19 342 -15 453 13 187 47 406 166
516 281 46 49 79 75 93 75 12 0 74 26 139 58 l118 57 106 0 c81 0 131 -7 220
-29 76 -19 142 -28 195 -28 70 -1 88 3 142 31 35 17 93 53 130 80 38 27 83 53
102 60 81 27 183 9 394 -70 70 -25 90 -30 100 -20 18 19 -65 90 -160 136 -207
101 -330 100 -481 -3 -33 -22 -83 -52 -113 -67 -49 -25 -60 -27 -144 -23 -156
9 -346 75 -353 124 -2 16 19 39 90 97 123 99 252 234 317 330 89 133 149 277
109 265 -7 -2 -49 -58 -93 -125 -144 -217 -210 -286 -506 -525 -81 -66 -238
-158 -268 -158 -5 0 -20 -12 -33 -27 -13 -16 -92 -83 -176 -151 -161 -130
-215 -160 -365 -201 -83 -23 -206 -41 -278 -41 l-50 0 62 93 c34 50 71 102 82
114 l20 23 18 -39 c19 -44 50 -65 79 -56 27 8 25 24 -5 55 -13 14 -28 40 -31
58 -6 30 -4 33 32 47 84 33 89 37 89 85 1 25 4 140 8 255 8 225 -3 251 -22 54
-13 -127 -29 -245 -37 -271 -3 -10 -23 -22 -45 -28 -59 -16 -171 -120 -262
-243 -29 -39 -68 -86 -85 -103 l-31 -32 -128 5 c-140 6 -219 -4 -447 -58 -70
-17 -138 -29 -150 -27 -72 10 -3 164 312 693 68 116 145 245 170 288 26 43 91
137 145 210 137 183 182 254 248 392 56 118 158 383 246 639 139 408 255 637
475 942 47 65 67 104 76 144 23 102 81 236 123 283 52 60 144 117 294 182 339
148 437 224 465 362 13 59 9 105 -21 252 -34 165 -22 234 54 325 73 88 72 86
50 86 -10 0 -46 -28 -80 -62z m-5735 -5207 c113 -38 185 -85 277 -182 71 -75
238 -287 377 -479 81 -112 171 -283 163 -309 -2 -9 -16 -83 -30 -166 -35 -202
-43 -399 -21 -525 30 -168 31 -236 7 -317 -12 -40 -27 -73 -34 -73 -20 0 -250
213 -321 297 -48 57 -74 101 -106 177 -85 203 -140 271 -315 394 -44 31 -114
90 -156 132 -67 67 -80 86 -120 179 -24 57 -57 117 -72 133 -52 52 -48 116 18
293 58 157 105 332 105 395 0 90 3 93 74 88 34 -3 103 -20 154 -37z m2637
-4654 c109 -49 200 -120 262 -204 30 -41 61 -89 69 -109 14 -34 14 -35 -12
-44 -65 -25 -117 -31 -173 -19 -91 19 -115 35 -146 98 -24 51 -32 59 -75 74
-26 9 -74 17 -106 17 -58 0 -144 -25 -144 -41 0 -5 -4 -9 -8 -9 -9 0 -42 157
-42 196 0 11 10 30 23 42 13 12 34 43 47 70 l24 49 106 -44 c58 -24 137 -58
175 -76z m-3007 -734 c-6 -34 -225 -200 -287 -218 -21 -6 -19 0 22 51 95 124
174 182 245 184 17 0 23 -5 20 -17z"/>
</g>
</svg>
