<?xml version="1.0" standalone="no"?>
<!DOCTYPE svg PUBLIC "-//W3C//DTD SVG 20010904//EN"
 "http://www.w3.org/TR/2001/REC-SVG-20010904/DTD/svg10.dtd">
<svg version="1.0" xmlns="http://www.w3.org/2000/svg"
 width="988.000000pt" height="1280.000000pt" viewBox="0 0 988.000000 1280.000000"
 preserveAspectRatio="xMidYMid meet">
<metadata>
Created by potrace 1.15, written by Peter Selinger 2001-2017
</metadata>
<g transform="translate(0.000000,1280.000000) scale(0.100000,-0.100000)"
fill="#000000" stroke="none">
<path d="M4525 12790 c-273 -22 -486 -115 -749 -326 -211 -169 -748 -709 -837
-840 -239 -355 -404 -1004 -489 -1924 -45 -498 -59 -818 -66 -1560 -4 -417
-10 -612 -18 -651 l-13 -57 156 -144 c276 -256 420 -372 637 -515 29 -19 -11
-2 -475 201 -233 102 -427 186 -431 186 -4 0 -24 -26 -45 -57 -149 -227 -435
-518 -785 -799 -81 -65 -258 -200 -436 -331 -69 -51 -126 -103 -153 -138 -377
-499 -645 -2138 -781 -4775 -11 -220 -40 -953 -40 -1020 l0 -40 524 0 524 0 6
27 c28 133 136 844 175 1153 69 539 118 1116 122 1430 l2 125 8 -105 c14 -163
13 -1196 0 -1445 -26 -477 -76 -944 -126 -1162 l-5 -23 875 0 875 0 -5 28 c-3
15 -23 169 -45 342 -48 369 -119 868 -161 1129 -16 101 -28 186 -25 188 11 12
274 -1131 358 -1562 l24 -120 88 -3 88 -3 -6 28 c-55 272 -137 901 -135 1045
l0 63 24 -110 c53 -242 145 -690 176 -852 l33 -173 364 0 364 0 -6 47 c-3 27
-8 93 -11 148 -36 610 -220 2152 -351 2929 -13 82 -23 150 -21 152 2 2 34
-119 70 -269 285 -1161 474 -2210 512 -2842 3 -55 8 -115 11 -132 l5 -33 279
0 278 0 6 73 c16 195 50 1081 67 1762 15 582 6 1957 -15 2360 -27 511 -63 930
-102 1174 -8 52 -13 95 -11 97 3 3 37 -107 124 -396 175 -586 287 -1182 332
-1775 47 -612 53 -1905 14 -3072 l-6 -193 450 0 451 0 8 158 c10 198 11 1141
2 1537 l-6 300 39 -230 c96 -566 150 -1205 135 -1597 l-6 -168 294 0 294 0 6
152 c3 84 10 292 16 463 22 646 82 1501 170 2425 40 410 110 1072 115 1085 3
6 3 -35 0 -90 -41 -819 -63 -2305 -50 -3387 l7 -648 638 0 637 0 7 46 c3 26 6
79 6 118 0 277 79 1138 109 1193 8 15 4 -430 -9 -872 -6 -192 -10 -380 -10
-417 l0 -68 641 0 642 0 -7 223 c-38 1246 -101 2160 -212 3042 -149 1185 -368
1998 -631 2345 -69 91 -341 374 -720 750 -542 538 -759 780 -897 1005 l-60 95
-90 -89 c-183 -182 -365 -305 -586 -399 -92 -39 -220 -82 -243 -82 -6 0 29 26
78 58 168 110 367 288 642 579 l136 144 -17 322 c-92 1758 -400 3072 -924
3944 -226 377 -461 595 -770 714 -99 38 -249 75 -382 94 -127 19 -521 27 -675
15z m302 -528 c300 -113 622 -335 952 -657 254 -247 434 -474 536 -674 113
-225 163 -556 152 -1026 -13 -580 -124 -1165 -332 -1750 -128 -359 -261 -631
-556 -1135 -451 -771 -635 -1136 -730 -1449 l-22 -74 -33 164 c-79 390 -138
499 -438 808 -1020 1051 -1373 1748 -1480 2921 -50 542 -43 805 29 1126 80
357 259 722 501 1024 86 106 274 296 377 379 186 150 411 280 583 335 121 40
159 45 274 42 88 -3 118 -8 187 -34z m2063 -5643 c-86 -77 -230 -181 -362
-260 -155 -94 -528 -280 -528 -264 0 2 64 37 143 77 187 96 366 204 595 360
103 69 189 126 192 127 3 0 -15 -18 -40 -40z m-4057 -154 c109 -51 185 -77
316 -110 192 -48 307 -60 583 -60 141 0 251 -3 245 -6 -7 -4 -59 -15 -117 -25
-146 -26 -458 -26 -585 -1 -200 40 -393 121 -531 225 -89 66 -126 105 -50 53
26 -18 89 -52 139 -76z"/>
</g>
</svg>
