<?xml version="1.0" standalone="no"?>
<!DOCTYPE svg PUBLIC "-//W3C//DTD SVG 20010904//EN"
 "http://www.w3.org/TR/2001/REC-SVG-20010904/DTD/svg10.dtd">
<svg version="1.0" xmlns="http://www.w3.org/2000/svg"
 width="1280.000000pt" height="1104.000000pt" viewBox="0 0 1280.000000 1104.000000"
 preserveAspectRatio="xMidYMid meet">
<metadata>
Created by potrace 1.15, written by Peter Selinger 2001-2017
</metadata>
<g transform="translate(0.000000,1104.000000) scale(0.100000,-0.100000)"
fill="#000000" stroke="none">
<path d="M4890 11027 c-171 -48 -276 -224 -310 -520 -21 -178 -6 -527 36 -836
7 -52 6 -53 -14 -42 -61 32 -244 -13 -552 -137 -115 -46 -382 -164 -474 -208
-31 -15 -84 -82 -303 -381 l-265 -361 -1401 -928 c-771 -510 -1423 -938 -1449
-951 -57 -27 -89 -72 -117 -165 -39 -128 -55 -444 -27 -512 38 -90 207 -127
443 -96 108 15 334 60 356 72 10 5 25 25 33 43 14 34 20 136 8 148 -3 3 -28
-9 -55 -28 -122 -84 -208 -46 -295 130 -42 85 -47 101 -47 164 0 55 6 81 27
125 32 64 114 156 141 156 31 0 162 -70 210 -112 112 -98 113 -212 4 -347 -55
-69 -50 -72 45 -24 143 72 225 220 226 406 0 37 3 67 6 67 4 0 185 -91 403
-202 218 -112 415 -208 438 -214 100 -26 132 -79 133 -222 0 -113 -26 -238
-86 -413 -24 -71 -44 -133 -44 -139 0 -5 39 -63 88 -129 310 -427 562 -927
676 -1344 33 -118 34 -122 59 -119 29 4 96 -51 141 -116 l26 -39 117 24 c741
150 1274 166 1494 46 28 -15 77 -58 112 -97 83 -93 492 -556 1503 -1701 457
-517 837 -945 845 -951 11 -8 1267 -606 2147 -1020 l113 -54 -6 34 c-16 80 35
163 127 208 129 63 378 82 578 46 151 -28 263 -38 435 -38 230 0 422 32 578
96 33 13 61 24 62 24 1 0 -18 -20 -43 -45 -43 -43 -44 -47 -28 -63 19 -19 144
-29 220 -18 42 7 44 9 55 52 21 81 108 148 255 193 164 51 384 76 753 87 l232
7 -5 96 c-2 53 -9 233 -14 400 -6 168 -12 306 -13 307 -1 1 -189 77 -417 168
-228 90 -405 165 -392 165 13 1 110 -6 215 -16 274 -23 751 -24 830 -1 90 25
115 58 82 102 -11 15 -14 39 -10 100 2 45 7 172 10 283 l5 202 -27 -14 c-35
-17 -91 -6 -166 31 -112 57 -122 68 -203 218 -454 835 -900 1349 -1279 1472
l-82 27 -17 91 c-128 678 -356 1165 -651 1394 l-40 31 45 -6 c87 -9 206 -43
279 -79 94 -46 202 -151 256 -247 44 -80 90 -216 106 -316 l12 -70 28 21 c60
45 182 3 339 -115 67 -51 121 -107 251 -263 386 -462 620 -783 732 -1003 59
-115 80 -181 75 -241 -1 -28 -1 -50 1 -50 2 0 25 16 52 36 63 46 111 106 146
180 26 54 28 69 28 174 l0 115 -73 135 c-95 173 -238 388 -345 515 -203 241
-469 456 -727 585 -36 18 -66 33 -68 35 -1 1 4 31 13 66 39 165 -5 311 -133
450 -83 90 -103 103 -772 538 -316 206 -596 395 -623 420 -86 82 -106 161 -68
261 32 83 65 118 154 161 45 21 86 39 93 39 16 0 140 -133 239 -258 90 -112
155 -227 155 -273 0 -26 4 -29 30 -29 72 0 186 -88 411 -317 272 -275 556
-604 1008 -1168 177 -220 197 -242 249 -267 31 -15 81 -33 111 -40 51 -11 55
-11 71 10 11 13 16 31 12 47 -6 35 -173 373 -247 500 -256 443 -575 800 -926
1034 -133 90 -248 153 -371 207 l-88 37 0 41 c0 118 -50 287 -121 413 -25 44
-79 114 -126 164 -46 47 -83 89 -83 93 0 3 16 31 37 63 50 79 97 185 119 268
25 98 23 255 -5 359 -24 92 -96 241 -149 311 -42 55 -74 71 -228 110 -323 83
-600 37 -833 -137 l-54 -41 -281 6 c-362 7 -570 33 -742 94 -48 17 -88 58
-660 676 l-610 658 -107 65 c-264 159 -532 270 -710 295 -158 22 -283 -18
-360 -115 l-39 -50 6 35 c33 187 44 452 26 595 -29 231 -83 358 -205 479 -90
91 -162 132 -292 166 -99 27 -400 37 -473 16z m3096 -4282 c408 -103 634 -547
694 -1360 16 -220 22 -198 -62 -240 -237 -117 -447 -78 -649 120 -235 230
-434 627 -634 1269 -31 97 -35 120 -24 127 44 28 285 91 394 103 67 7 218 -3
281 -19z m-7741 -355 c8 -13 -5 -13 -25 0 -13 8 -13 10 2 10 9 0 20 -4 23 -10z
m3774 -350 l320 -159 6 -48 c39 -283 198 -558 489 -845 l119 -117 -109 65
c-410 247 -845 360 -1251 327 -150 -13 -305 -42 -423 -79 -41 -13 -75 -22 -77
-21 -1 2 -10 72 -19 157 -22 215 -15 531 15 643 24 90 59 160 77 153 7 -3 79
-22 161 -42 117 -30 168 -38 244 -38 82 -1 100 2 118 18 25 23 28 74 6 116 -9
18 -11 30 -5 30 5 0 154 -72 329 -160z m-1156 68 c3 -13 11 -70 18 -128 21
-186 -2 -341 -61 -412 l-28 -33 -30 49 c-47 74 -92 188 -98 253 -11 107 29
194 119 257 60 42 73 44 80 14z m-522 -256 c112 -72 186 -250 208 -509 16
-177 16 -175 -16 -167 -82 18 -190 60 -242 95 -124 83 -166 203 -125 363 19
76 100 246 117 246 7 0 33 -13 58 -28z m7558 -31 c83 -26 158 -78 198 -138 21
-31 72 -165 147 -383 340 -986 403 -1170 400 -1172 -1 -2 -79 -2 -172 0 l-169
3 -6 72 c-9 102 -41 186 -107 286 -86 129 -223 256 -448 418 l-43 31 133 32
c73 17 150 35 171 41 l38 10 -158 118 c-376 280 -565 468 -580 578 -8 58 29
85 144 106 133 25 139 26 268 22 85 -2 139 -9 184 -24z m-908 -182 c145 -47
267 -131 327 -226 60 -94 94 -259 75 -361 l-8 -44 -230 318 c-126 174 -231
321 -233 325 -5 12 -4 12 69 -12z m-5121 -592 c98 -26 50 -78 -150 -165 -187
-80 -205 -85 -294 -79 -155 11 -278 69 -345 163 -18 25 -31 47 -29 49 2 2 55
-5 118 -16 157 -28 326 -23 388 9 24 13 45 29 49 37 4 12 27 15 112 14 58 0
126 -6 151 -12z m4970 -428 c88 -267 138 -435 133 -440 -6 -6 -19 -6 -34 0
-37 14 -157 107 -260 201 l-91 83 45 12 c25 6 53 17 61 25 24 19 19 71 -12
121 -44 68 -54 74 -137 70 -96 -4 -146 11 -185 55 -17 20 -30 42 -28 50 2 10
352 254 365 254 1 0 65 -194 143 -431z m-4704 233 c-7 -6 -136 58 -136 67 0 6
31 -7 69 -27 38 -20 68 -38 67 -40z m-1033 -96 c514 -131 850 -260 980 -377
50 -44 95 -105 85 -114 -8 -7 -734 -295 -744 -295 -7 0 -84 71 -172 158 -202
198 -258 282 -199 297 25 7 119 -14 181 -40 62 -26 40 -9 -56 43 -118 64 -234
140 -288 188 -38 34 -80 99 -80 123 0 16 51 71 66 71 8 0 110 -24 227 -54z
m6146 -66 c132 -105 191 -195 191 -293 0 -32 -5 -68 -11 -79 -8 -14 9 -5 47
25 73 57 120 77 180 77 94 0 167 -69 244 -232 39 -83 39 -83 16 -86 -13 -2
-79 6 -147 18 -562 95 -786 260 -669 493 25 50 76 117 90 117 4 0 31 -18 59
-40z m-5285 -67 c-16 -5 -258 64 -261 74 -2 6 58 -8 133 -30 75 -23 132 -43
128 -44z m1471 -107 c33 -22 129 -82 213 -132 l154 -92 330 -594 c181 -326
341 -613 355 -638 14 -25 19 -38 11 -30 -15 15 -1126 1502 -1142 1529 -11 17
-5 14 79 -43z m-2425 -371 c13 -14 21 -25 18 -25 -2 0 -15 11 -28 25 -13 14
-21 25 -18 25 2 0 15 -11 28 -25z m7088 -191 c86 -6 92 -8 77 -24 -8 -9 -15
-31 -15 -48 0 -40 3 -40 -194 -7 -177 30 -263 52 -250 65 13 13 168 29 234 25
30 -3 97 -7 148 -11z m467 -12 c-3 -3 -11 0 -18 7 -9 10 -8 11 6 5 10 -3 15
-9 12 -12z m45 -12 c8 -5 11 -10 5 -10 -5 0 -17 5 -25 10 -8 5 -10 10 -5 10 6
0 17 -5 25 -10z m505 -182 c33 -34 44 -49 25 -33 -57 45 -100 84 -100 90 0 15
22 -1 75 -57z m-559 -38 c169 -31 171 -32 64 -46 -52 -7 -132 -13 -177 -13
-123 -1 -139 10 -76 54 45 30 50 30 189 5z m274 -275 c296 -94 576 -337 876
-758 40 -56 71 -104 69 -106 -6 -5 -537 241 -860 399 -424 206 -661 342 -719
411 -38 45 -24 55 80 51 52 -1 105 3 137 12 78 22 102 25 222 21 85 -3 129
-10 195 -30z m-4382 -860 c464 -237 893 -616 1260 -1115 47 -63 86 -116 87
-117 0 -1 101 -18 223 -37 122 -19 227 -38 232 -41 16 -10 12 -72 -6 -89 -8
-9 -23 -16 -32 -16 -9 0 -46 -9 -80 -20 -342 -107 -825 232 -1461 1025 -191
237 -369 475 -356 475 3 0 63 -29 133 -65z m4759 -544 c10 -6 15 -11 11 -11
-11 0 -98 39 -98 45 0 6 58 -17 87 -34z m63 -26 c14 -8 21 -14 15 -14 -5 0
-21 6 -35 14 -14 8 -20 14 -15 14 6 0 21 -6 35 -14z m60 -25 c8 -5 11 -10 5
-10 -5 0 -17 5 -25 10 -8 5 -10 10 -5 10 6 0 17 -5 25 -10z m320 -80 c8 -5 11
-10 5 -10 -5 0 -17 5 -25 10 -8 5 -10 10 -5 10 6 0 17 -5 25 -10z m186 -342
c24 -17 44 -33 44 -35 0 -7 -81 41 -92 54 -18 22 2 14 48 -19z m89 -105 l18
-28 -21 19 c-12 11 -22 23 -22 28 0 14 7 9 25 -19z m-2121 -98 c25 -19 9 -19
-24 0 -14 8 -19 14 -10 14 8 0 24 -6 34 -14z m1914 -197 c100 -28 96 -51 -19
-113 l-74 -40 -120 1 c-185 2 -329 37 -495 117 l-85 42 45 7 c25 3 191 5 370
3 253 -2 337 -6 378 -17z m-3748 -149 c143 -83 260 -153 260 -156 0 -2 -24 9
-52 25 -29 17 -150 85 -268 152 -198 112 -264 153 -218 137 10 -4 135 -74 278
-158z m2505 36 c169 -60 433 -164 500 -197 22 -11 55 -32 73 -45 79 -59 -25
-61 -368 -8 -671 104 -1040 194 -1040 255 0 13 13 23 43 34 23 8 49 17 57 20
8 3 141 4 295 2 l280 -4 160 -57z m1516 -75 c121 -23 71 -43 -166 -65 -291
-27 -273 -27 -284 -7 -28 52 65 78 285 81 61 0 135 -4 165 -9z m-2793 -134
c68 -19 168 -65 239 -113 66 -43 243 -209 243 -227 0 -21 -42 -53 -103 -81
-52 -24 -67 -27 -140 -23 -103 6 -171 31 -290 111 -97 65 -344 298 -333 315 3
5 31 14 63 20 32 7 67 14 78 16 34 8 187 -3 243 -18z"/>
</g>
</svg>
