<?xml version="1.0" standalone="no"?>
<!DOCTYPE svg PUBLIC "-//W3C//DTD SVG 20010904//EN"
 "http://www.w3.org/TR/2001/REC-SVG-20010904/DTD/svg10.dtd">
<svg version="1.0" xmlns="http://www.w3.org/2000/svg"
 width="1280.000000pt" height="1280.000000pt" viewBox="0 0 1280.000000 1280.000000"
 preserveAspectRatio="xMidYMid meet">
<metadata>
Created by potrace 1.15, written by Peter Selinger 2001-2017
</metadata>
<g transform="translate(0.000000,1280.000000) scale(0.100000,-0.100000)"
fill="#000000" stroke="none">
<path d="M9035 12782 c-97 -46 -235 -173 -687 -636 -469 -480 -627 -630 -644
-613 -3 2 24 61 60 131 55 105 66 134 66 175 0 61 -36 111 -79 111 -49 0 -205
-144 -831 -765 -573 -570 -727 -715 -757 -715 -17 0 -16 9 3 55 36 88 70 409
45 444 -12 18 -27 7 -241 -174 -218 -185 -419 -330 -640 -462 -108 -65 -285
-151 -327 -159 -48 -9 -43 17 18 101 59 80 121 204 145 291 9 32 18 105 21
161 7 121 -6 180 -50 230 -46 52 -91 47 -198 -21 -46 -29 -165 -97 -264 -151
-478 -260 -583 -324 -715 -437 -87 -75 -146 -142 -218 -249 -64 -96 -99 -126
-159 -135 -26 -4 -183 -1 -350 6 -338 15 -488 10 -613 -20 -115 -28 -283 -86
-351 -122 -165 -87 -407 -341 -439 -460 -12 -43 -6 -109 16 -180 17 -53 72
-108 107 -108 35 0 82 35 126 92 89 119 198 130 318 32 64 -52 175 -215 158
-232 -4 -4 -76 -12 -161 -18 -125 -8 -158 -14 -172 -28 -16 -17 -15 -19 21
-50 58 -52 212 -111 482 -186 175 -48 217 -66 213 -87 -5 -29 -58 -36 -278
-37 -237 -1 -279 6 -358 64 -92 66 -156 87 -206 66 -40 -17 -56 -42 -56 -87 0
-103 84 -206 207 -253 136 -52 388 -86 640 -86 89 0 236 -20 306 -40 21 -6 52
-24 69 -39 39 -34 34 -64 -18 -117 -49 -48 -113 -88 -272 -169 -127 -64 -160
-91 -148 -120 3 -8 27 -17 55 -21 29 -4 52 -12 55 -21 14 -36 -69 -148 -262
-352 -168 -178 -242 -262 -242 -275 0 -6 31 -28 69 -48 78 -43 96 -60 84 -82
-4 -8 -69 -73 -144 -145 -188 -179 -281 -310 -295 -414 -8 -56 15 -86 74 -94
23 -3 45 -10 48 -15 8 -13 -27 -81 -105 -201 -144 -220 -199 -185 -241 158
-31 247 -38 277 -67 253 -9 -7 -48 -63 -89 -125 -40 -62 -77 -113 -82 -113 -4
0 -14 28 -21 63 -28 141 -121 351 -191 431 -29 34 -40 56 -40 80 0 70 73 174
283 401 165 179 234 294 257 428 21 116 -13 213 -104 302 -150 146 -378 168
-440 42 -26 -54 -11 -97 60 -175 30 -34 53 -66 50 -71 -3 -5 -30 -12 -59 -16
-97 -13 -178 -71 -221 -157 -14 -29 -26 -65 -26 -80 0 -44 -24 -91 -66 -132
-62 -60 -62 -51 -4 294 26 152 19 205 -40 324 -41 84 -177 273 -243 339 -102
102 -332 152 -486 106 -81 -24 -139 -104 -98 -137 6 -5 41 -13 77 -16 82 -9
162 -48 204 -99 25 -31 31 -49 34 -103 4 -60 2 -69 -31 -122 -43 -70 -57 -119
-57 -197 0 -85 23 -166 75 -261 25 -45 45 -89 45 -97 0 -23 -22 -27 -140 -27
-261 0 -415 -48 -473 -148 -26 -43 -33 -153 -15 -207 18 -54 46 -58 84 -11 34
40 70 57 101 45 34 -13 47 -48 48 -131 0 -94 7 -103 148 -189 204 -126 288
-258 288 -454 0 -142 -47 -294 -151 -490 -75 -143 -94 -201 -85 -262 6 -44 14
-55 97 -135 112 -107 128 -131 128 -186 0 -36 -6 -50 -33 -77 -35 -35 -67 -46
-182 -67 -50 -9 -71 -18 -73 -29 -4 -23 111 -153 167 -188 64 -40 114 -54 180
-49 169 12 337 183 385 391 33 141 14 244 -71 387 -18 30 -33 69 -33 86 0 46
82 167 100 147 4 -4 29 -57 55 -118 60 -141 250 -528 304 -621 22 -39 41 -79
41 -89 0 -10 -25 -41 -55 -70 -54 -50 -55 -52 -55 -105 0 -30 5 -93 10 -139
13 -119 10 -123 -135 -196 -127 -64 -161 -96 -139 -132 21 -35 110 -55 274
-62 90 -4 165 -12 178 -19 35 -20 28 -62 -28 -166 -27 -51 -50 -104 -50 -117
0 -52 98 -153 160 -166 48 -9 74 12 121 98 52 97 125 169 216 212 115 53 240
48 273 -12 5 -11 14 -50 19 -88 11 -76 34 -106 73 -95 21 5 87 68 198 185 76
82 106 54 119 -111 10 -112 19 -141 57 -171 37 -29 64 -26 109 9 31 25 45 30
69 24 79 -16 228 -140 242 -202 10 -40 23 -52 66 -58 57 -10 72 -37 66 -122
-11 -132 -66 -230 -195 -342 -40 -35 -73 -69 -73 -76 0 -8 24 -20 58 -29 138
-37 186 -86 186 -188 0 -117 -71 -224 -211 -319 -40 -27 -73 -52 -73 -57 0 -4
43 -11 95 -15 52 -3 106 -11 119 -17 59 -27 58 -108 -3 -351 -88 -346 -146
-494 -220 -561 -34 -31 -48 -37 -85 -37 -65 0 -149 49 -271 157 -160 140 -244
191 -380 231 -276 81 -586 23 -762 -141 -89 -84 -126 -161 -131 -277 -5 -101
9 -156 43 -172 30 -14 80 13 170 92 129 113 241 147 304 94 42 -35 80 -43 257
-52 123 -7 157 -12 185 -28 36 -21 82 -81 76 -98 -2 -7 -32 -10 -73 -10 -38 1
-148 3 -244 5 l-175 4 -95 -47 c-72 -36 -117 -50 -186 -61 -130 -21 -191 -58
-252 -155 -67 -104 -81 -265 -33 -364 29 -60 100 -129 170 -164 68 -35 178
-41 207 -12 24 24 20 74 -11 117 -14 20 -42 58 -60 85 -58 81 -41 146 39 146
43 0 81 -18 152 -70 163 -122 261 -127 366 -19 32 32 66 59 75 59 10 -1 43
-14 73 -30 67 -36 77 -37 119 -6 18 14 56 30 84 37 61 15 234 16 248 2 6 -6
-1 -23 -21 -48 -50 -62 -40 -107 45 -206 63 -73 108 -165 135 -279 27 -117 75
-223 122 -273 81 -85 115 -32 158 248 31 199 32 201 171 230 185 38 293 135
273 246 -3 19 -19 72 -35 118 -16 46 -27 86 -25 88 2 2 33 -18 69 -45 120 -91
249 -139 432 -161 94 -11 184 -4 265 20 33 10 62 31 112 81 36 37 71 68 77 68
17 0 59 -80 76 -145 11 -44 14 -81 9 -137 -10 -117 13 -132 115 -78 80 43 174
130 201 187 19 41 23 64 22 159 0 170 -21 219 -123 295 -76 58 -245 150 -312
171 -78 24 -187 23 -323 -3 -141 -28 -249 -35 -269 -19 -24 20 -18 88 25 257
22 89 45 217 54 293 8 74 22 158 31 185 20 61 71 133 121 171 32 25 48 29 128
34 158 9 182 43 172 236 -8 141 -11 136 102 179 85 32 132 67 132 99 0 13 -13
41 -30 62 -130 170 -170 241 -170 298 0 33 3 36 28 36 15 0 32 -4 37 -8 6 -5
35 -18 65 -30 156 -60 270 -25 270 83 0 49 -28 96 -122 206 -227 269 -140 337
482 379 402 26 525 41 790 92 271 52 438 108 605 203 323 185 831 364 1189
420 137 22 320 17 384 -10 23 -9 42 -21 42 -26 0 -20 -68 -48 -213 -90 -347
-98 -584 -224 -791 -420 -104 -99 -182 -193 -289 -354 -143 -214 -278 -360
-387 -420 -47 -26 -66 -30 -131 -30 -68 0 -79 3 -113 29 -46 35 -66 79 -66
146 0 59 18 99 71 157 46 50 50 79 13 93 -35 14 -88 -17 -170 -97 -131 -127
-196 -236 -197 -332 -1 -106 56 -175 214 -256 106 -55 129 -81 129 -144 0 -26
7 -56 16 -69 13 -20 24 -22 94 -22 43 0 122 9 177 20 54 11 115 20 136 20 33
0 40 -4 52 -33 7 -18 21 -77 30 -132 17 -100 45 -217 65 -269 32 -85 -20 -256
-131 -432 -47 -73 -140 -164 -169 -164 -12 0 -54 31 -101 75 -164 154 -273
171 -474 75 -169 -81 -476 -335 -529 -439 -8 -14 -17 -55 -21 -91 -5 -48 -20
-92 -56 -165 -59 -121 -73 -197 -58 -300 24 -153 117 -263 204 -241 36 9 65
61 65 117 0 95 57 169 131 169 21 0 69 -12 106 -27 54 -21 86 -26 154 -27 l86
-1 144 72 c175 88 257 112 321 92 68 -22 78 -51 78 -237 0 -270 49 -476 130
-539 55 -44 118 29 165 191 22 76 98 185 218 312 117 125 133 155 123 243 -19
181 -20 221 -1 221 9 0 78 -32 153 -70 169 -87 192 -92 273 -55 68 30 105 28
119 -9 32 -86 17 -210 -31 -254 -56 -49 -20 -92 78 -92 96 0 232 68 276 137
78 124 82 328 10 492 -54 124 -145 201 -236 201 -25 0 -49 5 -53 11 -6 11 1
21 112 167 44 57 63 91 68 122 4 27 17 52 36 71 47 47 96 41 250 -31 171 -80
228 -95 370 -95 123 0 177 11 230 47 73 50 66 83 -26 111 -136 41 -296 150
-390 264 -73 91 -77 103 -71 217 8 151 36 218 107 260 32 19 51 21 225 21 127
0 197 4 210 12 31 17 117 112 111 122 -3 4 -37 11 -76 15 -40 3 -84 13 -99 21
-41 21 -88 79 -100 122 -24 84 -14 123 85 330 l66 138 21 -45 c29 -62 223
-253 372 -366 145 -110 197 -165 237 -249 57 -124 48 -246 -26 -320 -50 -49
-100 -65 -208 -65 -78 0 -118 16 -118 47 0 9 30 45 68 81 l67 64 -87 -6 c-103
-7 -158 -27 -193 -68 -75 -89 27 -214 203 -248 161 -32 410 35 568 153 73 53
104 91 160 189 47 84 78 107 120 93 90 -32 168 -248 195 -538 25 -267 -39
-531 -159 -659 -76 -81 -129 -76 -239 23 -108 98 -200 126 -322 99 -140 -31
-354 -173 -559 -372 -85 -83 -107 -121 -116 -203 -5 -43 -21 -89 -57 -162 -38
-75 -53 -119 -59 -170 -24 -191 68 -383 184 -383 24 0 76 49 76 73 1 46 23
152 36 172 8 13 31 31 51 40 44 21 88 15 169 -22 49 -22 73 -27 139 -26 89 0
130 14 255 83 85 47 204 90 250 90 44 0 96 -24 111 -52 8 -14 12 -53 11 -98
-2 -120 17 -338 38 -427 32 -134 85 -223 133 -223 35 0 81 61 111 151 51 151
93 214 248 376 122 128 126 140 105 307 -16 125 -14 146 10 146 8 0 82 -34
164 -75 83 -41 161 -75 174 -75 12 0 48 12 79 26 110 50 138 24 134 -128 -3
-94 -4 -98 -35 -130 -43 -45 -42 -65 5 -85 82 -34 224 6 292 84 80 91 127 236
116 360 -16 192 -105 314 -273 373 -38 14 -63 28 -63 37 0 8 21 38 47 67 25
29 78 104 118 167 39 63 83 120 97 128 22 13 39 12 144 -9 134 -26 280 -31
337 -11 49 17 97 58 97 82 0 40 -32 80 -111 138 -111 81 -111 83 -110 202 2
95 0 104 -39 199 -22 55 -40 110 -40 121 0 41 40 65 120 73 114 12 162 48 146
110 -15 62 -113 135 -181 136 -40 0 -93 34 -101 64 -9 36 10 61 79 107 82 55
233 210 296 305 60 88 70 119 48 141 -22 23 -69 4 -169 -69 -139 -101 -244
-135 -386 -125 -137 9 -242 60 -277 133 -24 50 -9 96 54 172 104 124 100 129
-111 142 -351 21 -439 101 -608 550 -90 238 -110 300 -99 300 5 0 28 -17 52
-39 139 -127 295 -204 512 -253 114 -26 424 -36 530 -18 230 39 406 128 556
281 511 519 471 1568 -92 2404 -37 55 -109 151 -159 214 -125 156 -176 262
-200 415 -19 121 18 234 86 262 47 20 152 17 223 -5 107 -33 171 -99 171 -176
0 -63 -32 -101 -132 -159 -143 -83 -117 -126 77 -126 245 0 394 119 412 328
16 188 -94 371 -322 537 -57 41 -110 86 -119 100 -25 38 -20 85 16 141 105
165 84 226 -83 241 -48 5 -84 13 -86 20 -2 6 20 40 49 75 30 35 82 97 117 138
274 324 375 654 267 871 -14 27 -65 99 -113 159 -172 216 -244 358 -244 482 0
67 17 111 61 162 66 75 102 79 246 30 68 -24 77 -25 91 -11 33 33 -23 123
-108 174 -263 156 -558 -7 -645 -357 -32 -132 -11 -295 60 -456 20 -45 37 -93
38 -105 3 -23 -1 -24 -68 -30 -113 -10 -190 -55 -232 -134 -26 -47 -22 -149 7
-209 27 -55 87 -120 118 -128 36 -10 79 20 108 75 64 119 80 127 157 78 58
-37 78 -66 78 -114 0 -86 -67 -164 -255 -297 -366 -258 -595 -493 -695 -713
-57 -126 -74 -208 -73 -357 0 -199 40 -351 152 -586 75 -157 139 -265 315
-532 185 -281 296 -470 415 -706 130 -258 201 -453 201 -550 0 -64 -13 -69
-103 -41 -117 38 -238 35 -334 -6 -53 -22 -138 -101 -163 -149 -67 -131 -31
-303 73 -351 74 -33 125 -19 204 54 77 71 117 83 159 49 33 -27 44 -56 44
-120 0 -48 -7 -73 -36 -130 -54 -110 -146 -173 -307 -213 -69 -18 -103 -20
-212 -16 -157 6 -228 23 -361 88 -114 56 -161 99 -312 285 -449 553 -903 901
-1356 1039 -167 50 -262 64 -556 80 -246 13 -289 18 -330 32 -36 13 58 24 265
33 121 5 236 11 255 15 127 22 162 31 215 55 106 47 155 125 155 247 0 84 -35
148 -135 248 -155 154 -383 275 -520 275 -40 0 -99 21 -110 40 -13 21 25 40
81 40 157 0 455 103 681 236 179 105 283 208 283 280 0 72 -115 153 -285 203
-151 43 -272 55 -567 53 -292 -2 -315 2 -267 41 37 31 253 131 584 272 694
294 841 392 1238 820 320 345 459 553 461 692 1 52 -3 65 -23 87 -29 31 -106
56 -170 56 -81 0 -121 -18 -192 -84 -111 -105 -422 -332 -622 -455 -123 -75
-692 -328 -719 -319 -18 6 73 59 322 188 413 212 399 201 832 681 107 119 237
274 288 345 123 169 159 211 195 233 21 12 35 33 47 67 10 28 67 133 129 235
196 326 289 535 290 655 1 52 -2 61 -27 82 -23 20 -34 23 -68 18 -119 -18
-340 -172 -611 -425 -66 -62 -199 -172 -295 -244 -96 -72 -227 -172 -290 -221
-234 -181 -390 -270 -390 -223 0 7 39 40 88 72 58 40 146 118 268 240 203 202
299 314 445 516 56 77 122 163 148 192 77 84 275 417 381 639 104 217 118 398
35 452 -92 60 -249 -42 -446 -291 -126 -158 -196 -235 -232 -255 -18 -9 -71
-52 -119 -96 -78 -71 -102 -87 -161 -106 -9 -3 -21 -16 -26 -28 -13 -32 -43
-58 -146 -121 -49 -30 -134 -93 -188 -139 -209 -176 -257 -205 -257 -155 0 42
87 191 163 277 22 25 46 59 53 77 19 44 18 143 -2 171 -45 65 -133 0 -554
-412 -257 -252 -481 -456 -501 -456 -5 0 -9 4 -9 8 0 13 99 129 208 246 128
135 182 215 182 266 0 61 -30 83 -136 100 -115 18 -114 18 -114 46 0 33 16 63
156 295 234 388 324 608 295 717 -23 83 -106 121 -186 84z"/>
</g>
</svg>
