<?xml version="1.0" standalone="no"?>
<!DOCTYPE svg PUBLIC "-//W3C//DTD SVG 20010904//EN"
 "http://www.w3.org/TR/2001/REC-SVG-20010904/DTD/svg10.dtd">
<svg version="1.0" xmlns="http://www.w3.org/2000/svg"
 width="1280.000000pt" height="828.000000pt" viewBox="0 0 1280.000000 828.000000"
 preserveAspectRatio="xMidYMid meet">
<metadata>
Created by potrace 1.15, written by Peter Selinger 2001-2017
</metadata>
<g transform="translate(0.000000,828.000000) scale(0.100000,-0.100000)"
fill="#000000" stroke="none">
<path d="M1568 8265 c-311 -44 -679 -216 -940 -439 -278 -237 -478 -575 -568
-961 -41 -175 -54 -302 -54 -540 -1 -313 29 -504 120 -775 161 -478 497 -909
977 -1252 391 -280 904 -517 1437 -664 69 -19 126 -38 128 -42 1 -4 19 -37 40
-72 44 -77 150 -185 290 -297 533 -428 1236 -701 2132 -828 201 -28 297 -58
484 -152 212 -106 328 -197 367 -287 52 -122 -2 -299 -136 -444 -195 -210
-333 -264 -940 -362 -328 -53 -511 -94 -631 -140 -150 -57 -263 -136 -325
-226 l-30 -44 33 -83 c28 -70 43 -93 108 -157 62 -63 93 -85 180 -127 262
-128 610 -207 1295 -292 458 -57 772 -75 1305 -75 527 0 768 14 1150 70 610
88 1231 319 1369 509 36 49 53 111 44 156 -10 50 -83 115 -209 187 -230 130
-329 159 -844 246 -307 52 -427 81 -539 129 -188 82 -365 231 -431 363 -32 63
-35 76 -35 159 0 80 4 96 29 144 35 67 120 159 201 216 134 96 337 177 485
195 110 13 362 54 458 75 57 12 148 12 582 3 1132 -24 1765 35 2430 224 229
65 333 101 457 159 261 121 459 297 604 536 68 113 112 210 164 366 l45 132
-43 7 c-23 4 -175 11 -337 17 -452 17 -872 49 -1345 102 -376 41 -339 32 -359
90 -42 116 -163 259 -351 414 -340 280 -760 504 -1255 668 -74 24 -149 48
-167 51 -20 5 -40 20 -58 46 -67 97 -211 166 -585 280 -286 88 -601 228 -767
341 -103 71 -249 218 -296 299 -54 93 -87 206 -94 320 l-6 95 72 49 c90 61
151 129 195 217 125 250 41 461 -238 599 -250 123 -588 175 -787 122 -365 -98
-593 -348 -549 -601 22 -124 119 -260 249 -346 34 -23 62 -50 66 -63 14 -54
-21 -227 -66 -327 -55 -123 -189 -265 -354 -374 -175 -116 -335 -188 -660
-297 -392 -131 -497 -178 -630 -284 -77 -61 -100 -87 -100 -112 0 -18 -25 -29
-175 -78 -318 -104 -698 -248 -843 -320 -42 -22 -112 -63 -155 -92 -99 -67
-314 -284 -372 -375 -42 -66 -48 -71 -89 -77 -65 -9 -224 -7 -326 4 -442 49
-848 215 -1180 483 -162 131 -345 342 -457 527 -266 441 -358 993 -253 1516
32 157 71 269 150 429 207 417 551 696 960 781 107 22 313 22 428 0 529 -101
1000 -539 1241 -1155 117 -298 155 -660 97 -926 -38 -175 -131 -398 -225 -539
-163 -244 -356 -372 -615 -406 -300 -40 -634 131 -796 408 -92 155 -130 344
-130 637 0 212 14 298 66 414 54 120 129 187 241 217 134 35 227 -2 263 -105
27 -78 29 -173 6 -407 -25 -246 -21 -305 23 -391 52 -104 141 -154 283 -161
112 -5 198 17 289 76 129 84 188 210 165 354 -17 105 -59 174 -189 311 -90 95
-130 147 -171 221 -122 217 -246 321 -485 405 -357 126 -645 6 -802 -334 -115
-249 -137 -624 -54 -950 88 -351 315 -630 633 -780 206 -97 319 -120 587 -120
223 0 290 10 464 66 652 213 1059 858 998 1582 -32 380 -168 705 -410 975
-420 471 -911 773 -1421 873 -138 27 -379 34 -513 14z"/>
<path d="M12120 7385 c-5 -13 -41 -81 -80 -149 -70 -124 -110 -237 -110 -311
0 -17 -7 -76 -15 -131 -26 -175 -19 -288 35 -514 22 -92 34 -182 47 -344 25
-328 13 -394 -128 -723 -125 -290 -148 -413 -115 -612 50 -299 184 -471 365
-471 307 1 513 223 577 620 23 145 15 431 -15 581 -29 143 -60 230 -190 531
-237 549 -309 767 -347 1048 -15 115 -21 450 -8 483 3 9 3 17 0 17 -4 0 -11
-11 -16 -25z"/>
</g>
</svg>
