<?xml version="1.0" standalone="no"?>
<!DOCTYPE svg PUBLIC "-//W3C//DTD SVG 20010904//EN"
 "http://www.w3.org/TR/2001/REC-SVG-20010904/DTD/svg10.dtd">
<svg version="1.0" xmlns="http://www.w3.org/2000/svg"
 width="1280.000000pt" height="1280.000000pt" viewBox="0 0 1280.000000 1280.000000"
 preserveAspectRatio="xMidYMid meet">
<metadata>
Created by potrace 1.15, written by Peter Selinger 2001-2017
</metadata>
<g transform="translate(0.000000,1285.000000) scale(0.100000,-0.100000)"
fill="#000000" stroke="none">
<path d="M3175 10834 c-57 -33 -130 -92 -191 -156 -102 -106 -199 -326 -220
-497 -3 -30 -15 -79 -25 -109 -21 -60 -53 -194 -62 -257 -7 -47 2 -25 28 69
24 84 28 64 5 -24 -26 -98 -25 -131 2 -154 20 -18 21 -18 13 0 -16 40 -18 57
-7 50 7 -4 12 -15 12 -24 0 -13 2 -14 8 -4 6 9 12 5 20 -13 7 -15 8 -24 2 -20
-5 3 -10 3 -10 0 0 -12 96 -101 128 -117 21 -11 31 -22 26 -29 -4 -7 1 -18 12
-26 17 -13 16 -13 -16 -8 -19 3 -55 13 -80 22 -29 10 -80 16 -145 17 -100 0
-100 0 -240 -58 -77 -32 -172 -71 -211 -87 -39 -15 -191 -58 -337 -94 -147
-36 -282 -72 -302 -80 -19 -8 -55 -15 -81 -15 l-47 0 7 83 c4 45 11 152 16
237 5 90 20 207 35 279 36 177 36 344 -1 456 -15 44 -35 91 -44 105 -10 14
-36 63 -59 110 -51 103 -74 129 -99 114 -29 -19 -27 -77 7 -143 16 -33 31 -72
33 -88 3 -26 1 -28 -40 -31 -41 -3 -42 -2 -30 17 10 16 10 23 1 32 -10 10 -21
9 -53 -4 -50 -19 -52 -6 -4 23 42 27 67 61 58 84 -7 19 -35 21 -52 4 -24 -24
-24 3 0 30 40 43 49 66 34 87 -12 16 -16 15 -64 -20 -29 -20 -57 -44 -63 -53
-10 -17 -9 4 7 91 4 23 1 37 -10 46 -13 11 -19 6 -42 -30 -40 -64 -55 -132
-48 -215 5 -60 3 -79 -15 -119 -26 -59 -26 -71 0 -129 15 -35 36 -59 82 -92
34 -25 93 -68 130 -97 l68 -52 -6 -45 c-3 -25 -35 -131 -70 -236 -84 -248
-103 -333 -111 -480 -11 -194 7 -249 96 -294 59 -30 120 -33 365 -15 386 27
611 59 779 110 70 21 149 20 170 -4 36 -40 48 -220 20 -301 -13 -38 -19 -81
-18 -136 0 -72 5 -90 36 -155 32 -68 37 -89 57 -264 55 -494 54 -477 47 -750
-9 -342 -14 -365 -104 -459 -155 -163 -261 -299 -363 -463 -34 -54 -103 -156
-154 -228 -107 -150 -301 -482 -391 -670 -202 -423 -247 -746 -174 -1246 22
-149 46 -273 81 -415 29 -121 42 -137 34 -46 -7 84 7 112 55 112 31 0 146 -74
208 -134 42 -40 279 -358 440 -591 18 -26 35 -45 38 -42 3 3 -8 31 -24 63 -51
103 -112 300 -119 383 -10 137 24 239 99 294 58 43 121 15 200 -89 22 -30 43
-53 45 -50 2 2 -15 42 -38 87 -48 96 -46 90 -99 300 -22 86 -40 178 -40 206 0
43 4 55 31 81 17 17 42 33 55 36 34 9 98 -26 124 -69 12 -20 24 -34 27 -32 2
3 -7 47 -21 98 -51 189 -58 259 -63 661 -5 383 2 561 33 778 30 210 52 213 95
11 64 -297 213 -599 411 -836 97 -116 312 -325 503 -489 275 -236 412 -330
682 -467 98 -50 189 -98 203 -107 14 -9 255 -132 535 -273 281 -141 575 -292
655 -336 299 -164 595 -358 722 -473 71 -64 83 -71 75 -40 -6 24 29 36 227 80
302 66 492 71 642 14 37 -14 68 -23 70 -21 2 2 -15 17 -39 33 -46 33 -73 74
-64 98 3 8 17 22 32 32 25 16 27 15 138 -46 322 -181 537 -314 677 -419 99
-76 108 -80 82 -43 -13 17 -27 34 -32 37 -24 15 -5 25 48 25 31 0 91 5 132 11
72 11 77 11 126 -14 36 -18 72 -51 123 -111 180 -212 327 -314 468 -323 37 -3
78 -1 91 4 21 8 15 14 -65 73 -54 39 -190 166 -354 330 -146 147 -308 301
-360 342 -252 201 -581 378 -909 490 -129 44 -329 92 -590 143 -325 63 -372
74 -399 92 -38 25 -10 38 157 72 213 44 436 110 642 191 96 37 184 71 195 74
66 18 321 59 445 71 176 17 294 42 479 100 157 50 395 116 611 170 511 128
829 224 1213 366 150 56 389 140 532 189 462 156 789 312 1015 482 173 131
367 325 502 503 97 129 227 340 215 351 -2 3 -23 -20 -47 -50 -74 -97 -313
-230 -469 -261 -123 -25 -339 -18 -399 14 -92 48 -238 223 -263 315 -19 70 -6
155 36 232 44 82 34 71 -98 -109 -55 -76 -133 -169 -173 -206 -147 -138 -291
-180 -397 -118 -52 31 -126 128 -178 233 -30 61 -30 62 -15 115 8 30 17 74 20
99 5 33 -4 15 -33 -67 -23 -66 -54 -133 -74 -161 -72 -98 -195 -196 -305 -243
-98 -43 -188 -7 -330 131 -73 71 -79 80 -101 154 -17 55 -41 105 -80 160 -30
45 -74 110 -97 145 -76 113 -185 450 -199 612 -5 55 -1 101 14 178 11 58 19
106 17 108 -5 5 -42 -85 -55 -134 -11 -40 -15 -44 -69 -60 -89 -28 -289 -25
-363 5 -180 72 -353 248 -487 497 -60 113 -163 277 -170 271 -2 -2 11 -32 28
-66 23 -45 30 -69 25 -90 -19 -85 -120 -135 -345 -170 -133 -20 -186 -14 -480
56 -195 46 -337 94 -507 170 -78 35 -154 66 -170 70 -15 4 -46 21 -70 37 -88
63 -48 15 114 -134 92 -85 244 -226 338 -314 94 -88 242 -226 330 -307 460
-421 706 -741 819 -1066 48 -138 66 -243 66 -382 0 -216 -27 -347 -124 -595
-99 -252 -213 -465 -333 -623 -135 -177 -424 -366 -646 -422 -213 -54 -556
-77 -672 -46 l-50 13 41 12 c23 6 107 24 187 41 365 73 589 158 763 288 139
105 310 295 397 444 63 107 81 156 122 333 45 198 66 260 116 354 22 40 38 75
36 77 -16 16 -67 12 -107 -8 -67 -34 -102 -100 -141 -264 -26 -112 -36 -138
-57 -155 -16 -12 -34 -18 -47 -14 -11 3 -72 10 -135 16 -63 6 -116 11 -117 13
-1 1 2 19 8 40 6 21 8 40 6 42 -2 3 -23 -28 -47 -67 -77 -130 -346 -468 -384
-482 -24 -9 -89 13 -118 41 -33 30 -45 84 -30 125 11 28 11 29 -11 13 -37 -27
-108 -57 -151 -62 -58 -8 -164 9 -313 49 -70 19 -174 46 -230 58 -82 19 -103
27 -103 41 0 9 -4 19 -9 22 -11 7 -21 -17 -21 -49 0 -12 -18 -58 -39 -101 -72
-144 -171 -239 -326 -314 -265 -130 -459 -131 -781 -7 -143 55 -195 85 -261
153 -77 78 -127 179 -178 353 -53 185 -62 313 -44 604 17 277 17 430 2 474
-20 55 7 29 76 -73 117 -176 212 -262 532 -486 68 -48 175 -133 238 -188 62
-56 150 -129 195 -162 94 -70 374 -211 426 -214 l35 -3 -39 33 c-39 33 -39 34
-40 107 0 58 4 83 22 116 31 59 81 107 128 120 55 17 330 38 449 35 88 -2 98
-1 80 11 -11 8 -31 18 -45 22 -35 11 -49 23 -71 68 -25 48 -27 154 -4 232 28
97 139 221 236 264 47 21 233 62 252 56 38 -11 67 -14 67 -7 0 13 -182 91
-350 152 -155 55 -192 76 -215 120 -21 40 -19 73 6 104 l20 26 -23 0 c-20 0
-17 4 17 27 60 40 26 39 -57 -3 -107 -54 -168 -72 -295 -89 -133 -18 -468 -20
-593 -5 -125 16 -299 56 -435 101 -140 47 -260 108 -556 286 -118 71 -253 144
-298 163 -48 20 -92 45 -103 60 -11 14 -75 84 -142 155 -148 157 -179 193
-196 225 -22 41 -15 137 19 237 16 51 41 144 56 208 16 72 38 138 55 169 17
29 32 75 36 102 9 82 12 89 55 137 68 78 76 74 286 -116 125 -113 208 -173
481 -349 267 -173 312 -198 369 -204 81 -10 118 7 258 120 151 120 208 178
334 336 95 118 212 244 243 261 10 5 97 11 194 13 200 4 216 10 241 81 7 22
38 65 67 95 61 63 99 125 121 196 24 79 -19 89 -57 14 -10 -19 -25 -42 -35
-52 -17 -17 -18 -14 -15 67 3 72 1 86 -13 91 -26 10 -46 -19 -54 -77 -7 -51
-8 -52 -16 -24 -4 17 -12 33 -18 36 -5 4 -2 17 7 31 15 24 15 27 -3 49 l-19
24 -113 -57 c-63 -31 -122 -59 -132 -62 -36 -11 -145 -96 -168 -131 -36 -53
-308 -300 -428 -389 -58 -43 -163 -116 -232 -162 l-126 -84 -48 17 c-33 11
-72 38 -124 87 -42 39 -114 105 -161 146 -204 179 -309 283 -405 401 -180 220
-209 247 -310 294 -49 23 -112 47 -139 54 -92 23 -256 116 -256 146 0 7 -20
40 -45 73 -45 59 -54 85 -35 97 6 3 10 3 10 -2 0 -4 11 -9 24 -9 34 -2 81 -38
95 -72 12 -29 41 -40 41 -15 0 18 7 17 48 -9 20 -12 32 -16 28 -10 -4 7 -1 12
8 12 10 0 13 6 9 17 -5 12 -3 14 8 8 8 -5 3 3 -9 17 -13 15 -50 40 -83 57 -32
18 -61 37 -65 43 -4 6 -3 9 2 6 5 -2 41 -19 79 -37 39 -18 82 -44 97 -58 14
-14 32 -23 39 -21 22 7 -31 46 -101 73 -37 14 -76 35 -86 47 -11 12 -13 18 -5
13 8 -4 16 -2 21 5 6 10 18 8 51 -8 24 -12 77 -27 117 -33 39 -7 72 -15 72
-20 0 -4 -12 -16 -27 -27 l-28 -20 56 2 c31 2 62 6 68 10 6 4 11 3 11 -2 0
-11 -29 -37 -50 -45 -8 -3 0 -6 18 -6 17 -1 32 -6 32 -12 0 -5 5 -7 10 -4 6 3
10 15 10 26 0 23 -1 23 43 4 49 -20 67 -19 37 2 -39 27 -65 53 -53 53 6 0 16
-7 24 -16 7 -8 26 -22 43 -31 27 -14 26 -11 -18 40 -26 31 -56 59 -67 62 -10
4 -24 15 -29 25 -9 16 -7 18 15 14 34 -6 33 18 -1 45 -25 20 -26 22 -10 39 9
10 16 25 16 33 0 8 11 36 25 62 14 26 23 52 20 57 -3 6 -2 10 4 10 6 0 17 -12
25 -27 l15 -28 1 28 c1 65 -73 165 -190 257 -49 40 -91 78 -91 86 -3 28 -4 32
-13 41 -5 4 -7 -4 -4 -19 3 -16 1 -25 -4 -22 -6 4 -8 17 -5 31 5 25 -18 123
-47 201 -8 23 -11 42 -6 42 6 0 10 -3 10 -7 1 -5 15 -24 32 -43 17 -20 25 -26
19 -13 -6 12 -28 42 -49 66 -21 24 -49 72 -61 107 -20 53 -36 75 -105 141 -48
47 -109 94 -151 116 -68 37 -73 38 -180 39 -60 1 -141 5 -180 8 -56 5 -76 3
-100 -10z m-335 -495 c-11 -38 -20 -49 -20 -25 0 17 17 56 25 56 2 0 0 -14 -5
-31z m-93 -351 c-3 -8 -6 -5 -6 6 -1 11 2 17 5 13 3 -3 4 -12 1 -19z m1494
-75 c13 -16 12 -17 -3 -4 -10 7 -18 15 -18 17 0 8 8 3 21 -13z m-1307 -124
c-28 -57 -36 -47 -11 13 11 28 23 45 25 39 2 -7 -4 -30 -14 -52z m1040 19 c-3
-4 0 -8 5 -8 6 0 11 -7 11 -15 0 -8 9 -24 20 -35 11 -11 16 -20 12 -20 -11 0
-46 39 -60 66 -9 16 -8 21 3 21 8 0 12 -4 9 -9z m-1068 -148 l6 -25 13 25 c13
22 14 23 15 5 l1 -20 10 20 9 20 -3 -20 c-2 -11 -9 -19 -16 -17 -8 2 -11 -5
-7 -20 3 -13 3 -17 0 -10 -3 6 -12 12 -19 12 -17 0 -36 55 -27 78 6 15 7 15
10 -3 1 -11 5 -31 8 -45z m979 12 c-6 -7 -35 18 -35 31 0 5 9 2 20 -8 11 -10
18 -20 15 -23z m208 -19 c17 -3 27 -1 27 6 0 9 5 9 20 1 11 -6 20 -14 20 -18
0 -11 -168 -13 -174 -3 -3 4 6 6 19 3 36 -7 30 12 -8 26 -18 6 -42 19 -52 27
-12 9 8 5 50 -11 39 -14 82 -28 98 -31z m-275 11 c-4 -3 -12 5 -18 18 -12 22
-12 22 6 6 10 -10 15 -20 12 -24z m-757 -21 c-11 -21 -20 -32 -21 -25 0 16 32
73 38 68 2 -2 -6 -21 -17 -43z m39 17 c-6 -12 -14 -19 -17 -17 -2 3 1 15 7 27
6 12 14 19 17 17 2 -3 -1 -15 -7 -27z m-84 -28 c-18 -16 -18 -16 -6 6 6 13 14
21 18 18 3 -4 -2 -14 -12 -24z m75 -37 c16 11 10 -12 -12 -39 -26 -33 -39 -33
-39 1 0 32 33 75 38 49 2 -9 8 -14 13 -11z m1009 15 c0 -6 -11 -9 -25 -7 -37
5 -42 17 -7 17 18 0 32 -5 32 -10z m-22 -27 c-16 -2 -40 -2 -55 0 -16 2 -3 4
27 4 30 0 43 -2 28 -4z m-1088 -18 c0 -8 -4 -15 -10 -15 -5 0 -7 7 -4 15 4 8
8 15 10 15 2 0 4 -7 4 -15z m90 -45 c-20 -13 -33 -13 -25 0 3 6 14 10 23 10
15 0 15 -2 2 -10z m71 -14 c-13 -15 -51 -28 -51 -18 0 8 53 40 59 36 2 -2 -1
-10 -8 -18z m989 10 c0 -2 -8 -10 -17 -17 -16 -13 -17 -12 -4 4 13 16 21 21
21 13z m2268 -624 l2 -67 -20 43 c-32 69 -66 50 -54 -31 l6 -42 -37 38 -37 39
22 23 c19 20 92 63 110 64 3 1 6 -29 8 -67z"/>
<path d="M4029 10162 c12 -22 29 -36 56 -46 14 -5 10 3 -14 28 -38 39 -58 47
-42 18z"/>
<path d="M4204 10068 c11 -7 44 -33 75 -57 51 -40 53 -41 23 -9 -18 19 -52 45
-75 57 -23 12 -33 16 -23 9z"/>
<path d="M2654 9834 c-9 -47 0 -132 15 -147 10 -9 11 -3 4 28 -4 22 -8 66 -7
98 0 31 -1 57 -2 57 -2 0 -6 -16 -10 -36z"/>
<path d="M2690 9689 c0 -17 27 -45 35 -37 3 3 -3 16 -14 29 -16 19 -20 20 -21
8z"/>
</g>
</svg>
