<?xml version="1.0" standalone="no"?>
<!DOCTYPE svg PUBLIC "-//W3C//DTD SVG 20010904//EN"
 "http://www.w3.org/TR/2001/REC-SVG-20010904/DTD/svg10.dtd">
<svg version="1.0" xmlns="http://www.w3.org/2000/svg"
 width="1248.000000pt" height="1280.000000pt" viewBox="0 0 1248.000000 1280.000000"
 preserveAspectRatio="xMidYMid meet">
<metadata>
Created by potrace 1.15, written by Peter Selinger 2001-2017
</metadata>
<g transform="translate(0.000000,1280.000000) scale(0.100000,-0.100000)"
fill="#000000" stroke="none">
<path d="M8675 12794 c-174 -25 -357 -82 -610 -187 -163 -67 -336 -129 -343
-122 -2 2 1 12 7 23 16 29 14 97 -3 111 -8 7 -24 13 -35 14 -19 1 -21 6 -15
43 5 35 2 46 -15 63 -49 49 -163 19 -456 -121 -597 -284 -770 -346 -1459 -519
-576 -144 -775 -205 -990 -300 -167 -74 -260 -134 -357 -229 -99 -98 -133
-154 -184 -300 -20 -58 -42 -111 -50 -119 -13 -13 -17 -10 -31 25 -52 125
-178 226 -354 282 -241 78 -488 47 -600 -75 -23 -24 -44 -41 -49 -39 -4 3 -29
48 -55 101 -70 141 -99 160 -166 110 -58 -43 -68 -37 -139 78 -84 137 -216
125 -290 -26 -31 -62 -50 -160 -51 -260 0 -26 -7 -62 -16 -79 -14 -26 -19 -29
-47 -24 -16 3 -55 25 -84 48 l-54 41 75 70 c42 38 76 73 76 78 0 12 -50 36
-94 44 l-38 8 31 24 c66 52 18 93 -107 93 -89 0 -161 -34 -205 -97 l-31 -43
-25 24 c-29 26 -62 45 -100 57 -26 7 -26 7 4 8 79 3 69 53 -20 96 -49 24 -64
27 -128 23 -185 -12 -366 -187 -369 -358 -1 -36 11 -68 58 -160 46 -92 73
-130 131 -189 l72 -75 -27 -49 c-36 -67 -97 -134 -141 -156 -46 -23 -238 -86
-461 -151 -237 -69 -299 -92 -453 -167 -222 -108 -388 -233 -447 -337 -39 -67
-38 -99 2 -139 21 -21 31 -40 29 -55 -6 -54 46 -94 149 -112 78 -13 128 -28
153 -45 16 -11 12 -17 -45 -58 -107 -76 -197 -186 -179 -216 5 -7 29 -16 55
-18 25 -3 46 -7 46 -9 0 -2 -9 -18 -20 -36 -40 -66 -20 -81 120 -92 41 -3 156
-26 255 -51 297 -76 379 -72 650 29 198 73 288 96 415 103 156 8 282 -30 358
-110 41 -42 51 -84 52 -204 0 -142 -29 -260 -119 -486 -122 -305 -171 -588
-171 -990 0 -324 38 -602 124 -912 60 -215 75 -293 87 -449 5 -72 19 -174 30
-226 11 -52 25 -119 31 -147 13 -64 0 -103 -48 -139 -48 -37 -201 -102 -470
-199 -818 -295 -988 -369 -1112 -481 -110 -99 -130 -204 -78 -417 43 -180 65
-389 111 -1052 37 -533 53 -640 109 -725 14 -22 26 -45 26 -51 0 -21 46 -92
124 -189 42 -52 76 -102 76 -111 0 -29 120 -262 177 -344 83 -119 228 -287
344 -400 112 -109 166 -148 205 -148 84 1 153 188 154 417 0 162 -12 207 -111
406 -95 192 -86 181 -226 271 -77 50 -81 60 -93 282 -10 179 -19 233 -54 347
-68 215 -176 830 -176 1003 0 96 16 142 62 182 84 71 191 83 853 95 530 9 723
19 899 45 161 24 205 21 262 -18 69 -48 102 -64 191 -92 43 -14 85 -29 93 -35
21 -13 26 -280 11 -540 -94 -1584 -232 -2326 -514 -2744 -70 -105 -200 -226
-312 -291 -257 -149 -474 -309 -665 -491 -137 -131 -160 -185 -90 -214 38 -16
44 -25 30 -50 -42 -79 105 -123 338 -101 315 29 558 111 698 235 91 82 240
179 324 212 124 48 128 55 270 410 97 242 211 573 530 1534 224 674 436 1299
470 1390 87 232 178 416 242 485 81 89 105 98 338 125 196 22 410 63 690 131
388 94 549 141 1235 359 286 92 550 111 567 42 3 -9 -4 -96 -14 -192 -26 -236
-28 -625 -4 -800 31 -232 70 -338 270 -739 73 -145 76 -153 76 -221 0 -137
-78 -310 -364 -809 -440 -766 -629 -1058 -775 -1193 -63 -59 -102 -84 -323
-211 -248 -143 -673 -500 -694 -584 -8 -30 17 -59 58 -68 16 -4 28 -10 26 -13
-31 -60 -31 -61 -18 -77 37 -44 67 -50 260 -49 161 0 201 4 312 27 239 51 352
102 493 226 100 87 166 116 316 141 68 11 142 25 164 31 70 19 155 71 201 123
47 51 118 189 149 286 41 130 137 286 409 668 100 139 252 355 340 480 179
257 271 377 416 542 193 219 303 380 342 499 25 76 23 110 -12 164 -16 26 -30
51 -30 54 0 4 -20 47 -45 97 -73 148 -106 323 -86 455 19 122 61 181 129 181
50 0 91 -23 173 -99 128 -117 287 -239 484 -371 379 -255 443 -333 489 -600
46 -270 71 -991 46 -1350 -28 -395 -105 -626 -230 -690 -21 -11 -65 -24 -99
-29 -72 -12 -146 -43 -251 -108 -243 -150 -529 -390 -581 -487 -22 -43 -23
-46 -7 -80 9 -19 26 -37 36 -40 15 -5 19 -15 18 -47 -1 -33 5 -46 26 -64 103
-89 488 -34 804 115 176 82 274 161 333 264 42 75 83 105 273 202 185 93 228
125 262 193 57 112 68 228 101 1006 14 330 32 735 40 900 26 544 27 588 16
680 -9 79 -18 105 -71 213 l-61 124 -202 207 c-285 291 -341 370 -371 523 -33
160 -19 299 68 713 30 143 69 341 86 440 55 325 69 373 112 396 12 7 81 16
153 20 71 5 145 13 163 18 17 5 32 7 32 4 0 -3 -34 -42 -76 -86 -200 -215
-303 -402 -339 -615 -8 -48 -19 -195 -25 -327 -11 -274 -18 -325 -67 -450 -40
-102 -38 -130 12 -155 27 -13 30 -19 27 -56 -4 -55 17 -72 103 -83 65 -7 71
-11 109 -53 23 -25 70 -99 105 -164 133 -248 188 -316 479 -593 284 -270 308
-311 283 -485 -13 -94 -40 -176 -134 -416 -109 -277 -123 -387 -61 -487 17
-27 34 -61 37 -74 10 -38 49 -91 86 -116 85 -57 207 -29 230 53 9 32 3 53 -39
151 l-23 51 26 54 c15 29 74 107 133 173 139 158 221 274 288 404 106 209 136
321 197 748 46 320 47 393 9 538 -34 132 -160 378 -269 526 -13 18 -11 19 47
13 112 -12 204 54 244 174 31 95 18 257 -22 285 -10 7 -23 33 -30 57 -24 91
-59 101 -140 40 -29 -22 -57 -40 -62 -40 -15 0 -8 93 18 219 30 147 73 307
151 551 90 285 142 549 194 972 21 173 22 197 10 315 -26 265 -95 542 -182
732 -49 105 -49 136 -4 195 19 25 51 67 71 94 87 112 107 215 59 302 -14 25
-32 61 -40 80 -54 123 -103 169 -182 172 -29 1 -42 -5 -63 -29 -22 -24 -28
-43 -34 -104 -14 -149 -36 -141 -335 111 -353 298 -668 362 -1060 215 -580
-217 -897 -692 -751 -1125 25 -74 120 -267 163 -330 50 -73 142 -165 294 -292
78 -65 145 -123 149 -129 10 -16 -24 -47 -73 -65 -80 -31 -176 5 -458 171
-558 329 -840 464 -1168 560 -282 82 -343 111 -604 282 -100 65 -189 123 -199
129 -21 13 -17 13 276 34 392 29 693 115 865 247 106 82 130 159 72 230 -13
15 -29 47 -35 70 -15 50 -77 108 -134 125 -21 6 -38 14 -38 17 0 3 47 21 103
39 371 119 685 389 624 534 -8 18 -24 42 -36 52 -12 11 -21 31 -21 48 0 37
-53 95 -102 112 l-37 12 107 43 c410 165 698 376 748 546 18 64 8 119 -30 154
-13 12 -27 39 -30 59 -7 43 -26 67 -83 109 l-41 30 66 39 c37 21 109 72 162
114 195 153 342 259 506 365 218 141 310 212 420 327 168 176 227 360 140 435
-18 15 -26 32 -26 53 0 21 -9 41 -29 61 -55 54 -131 36 -286 -67 l-70 -46 108
107 c181 181 270 318 271 417 1 45 -2 53 -31 77 -26 21 -33 35 -33 62 0 66
-79 107 -179 94 -137 -19 -250 -60 -586 -212 -270 -123 -533 -230 -725 -295
-144 -49 -356 -108 -388 -108 -9 0 13 20 50 44 119 80 177 174 178 286 0 80
-11 122 -44 161 -14 17 -26 39 -26 50 0 32 -26 74 -55 87 -65 30 -150 5 -435
-123 -103 -47 -190 -85 -194 -85 -3 0 0 13 9 30 26 50 15 108 -25 137 -10 7
-20 31 -23 53 -7 51 -21 68 -77 93 -45 20 -192 32 -265 21z m285 -310 c0 -48
-16 -74 -45 -74 -14 0 -25 5 -25 11 0 16 53 99 63 99 4 0 7 -16 7 -36z m2398
-181 c-18 -27 -103 -118 -188 -204 -170 -171 -326 -295 -530 -418 -135 -81
-429 -236 -436 -229 -7 8 65 52 216 133 232 124 436 257 610 399 95 77 255
237 310 310 52 68 64 74 18 9z m-9638 -703 c-8 -5 -25 -10 -37 -10 -12 0 -56
-18 -97 -39 l-75 -39 15 30 c31 60 47 68 132 68 53 0 72 -3 62 -10z m75 -121
c54 -7 86 -7 107 0 27 9 29 9 23 -7 -3 -9 -9 -39 -12 -67 -12 -126 -64 -157
-194 -119 -44 13 -143 57 -157 69 -2 2 8 26 22 53 43 84 65 92 211 71z m380
-56 c-6 -25 -8 -26 -17 -10 -7 13 -6 22 3 33 16 20 23 10 14 -23z m8860 -103
c-4 -6 -48 -38 -98 -72 -153 -103 -264 -185 -429 -317 -161 -128 -359 -261
-390 -261 -41 0 -12 28 70 68 91 45 189 113 392 272 94 74 442 317 458 319 2
1 0 -4 -3 -9z m-965 -1265 c0 -2 -10 -9 -22 -15 -22 -11 -22 -10 -4 4 21 17
26 19 26 11z m-70 -45 c-76 -60 -629 -310 -686 -310 -50 0 -12 20 163 84 201
75 327 129 448 196 99 54 112 59 75 30z m-9733 -145 c20 -8 34 -17 32 -19 -9
-9 -83 10 -87 22 -5 16 11 15 55 -3z m1449 -366 c43 -6 91 -16 107 -22 23 -10
2 -12 -125 -12 -198 0 -269 -17 -598 -143 -143 -55 -178 -59 -286 -32 -49 12
-96 26 -104 31 -10 6 -4 7 15 2 51 -13 197 -6 265 12 36 9 125 39 198 66 159
58 230 78 337 95 106 16 102 16 191 3z m-1331 -99 c-3 -5 -10 -10 -16 -10 -5
0 -9 5 -9 10 0 6 7 10 16 10 8 0 12 -4 9 -10z m9315 -24 c0 -91 -185 -207
-503 -315 -147 -50 -466 -136 -474 -128 -6 7 7 10 157 46 324 77 586 206 740
363 36 36 68 67 73 67 4 1 7 -14 7 -33z m-550 -850 c0 -113 -347 -206 -825
-220 l-180 -5 148 14 c169 15 257 28 378 56 164 36 337 103 424 162 42 29 55
27 55 -7z m3180 -176 c-14 -48 -46 -94 -87 -123 -20 -14 -39 -25 -41 -22 -4 4
127 175 134 175 1 0 -1 -14 -6 -30z m-1039 -1161 c-12 -12 -24 -19 -27 -16 -7
6 25 37 39 37 6 0 1 -9 -12 -21z m181 -125 l31 -16 -6 -77 c-6 -100 -51 -233
-129 -383 -34 -65 -62 -117 -64 -115 -2 2 1 30 6 63 6 32 10 159 10 282 0 135
4 231 10 243 14 24 97 26 142 3z m-362 -752 c0 -4 -23 -34 -51 -65 -67 -75
-116 -100 -198 -101 -86 -1 -91 18 -9 34 82 16 155 51 209 100 48 43 49 44 49
32z m-3695 -1162 c12 -5 -32 -8 -115 -8 -90 1 -120 3 -90 8 65 10 182 10 205
0z m4872 -281 c-41 -98 -147 -160 -237 -139 -33 7 -32 8 20 9 95 2 171 53 207
140 8 18 16 31 19 28 3 -3 -1 -20 -9 -38z m-10342 -150 c-492 -12 -641 -28
-789 -83 -75 -28 -113 -52 -168 -105 -32 -30 -38 -32 -38 -16 1 69 70 142 155
164 122 32 439 47 970 48 163 0 134 -2 -130 -8z m3615 -39 c-8 -5 -24 -9 -35
-9 l-20 0 20 9 c11 5 27 9 35 9 13 1 13 0 0 -9z m-2245 -60 c3 -6 -1 -7 -9 -4
-18 7 -21 14 -7 14 6 0 13 -4 16 -10z m1625 -50 c-14 -4 -50 -8 -80 -8 l-55 1
45 7 c25 4 61 7 80 8 31 0 32 -1 10 -8z m5684 -176 c23 -9 20 -24 -4 -24 -11
0 -20 7 -20 15 0 17 2 18 24 9z m1285 -1736 c-13 -18 -59 -78 -104 -133 -107
-133 -128 -162 -155 -215 -13 -25 -25 -40 -27 -33 -9 27 40 104 138 218 57 66
117 137 133 158 35 46 46 49 15 5z m-3279 -150 c-17 -24 -90 -123 -162 -220
-72 -98 -132 -178 -135 -178 -5 0 -2 5 107 160 81 115 208 280 217 280 2 0
-10 -19 -27 -42z m3030 -503 c18 -22 8 -27 -36 -19 -34 6 -36 8 -19 20 24 18
40 18 55 -1z m-10130 -264 c-6 -12 -17 -21 -25 -21 -20 0 -19 4 8 34 24 27 35
19 17 -13z m9199 -930 c-13 -11 -59 -39 -102 -63 -241 -132 -301 -178 -342
-258 -14 -28 -27 -50 -29 -50 -3 0 -13 -3 -23 -7 -12 -5 -8 5 14 30 18 21 41
54 52 75 36 70 93 114 273 207 95 50 175 90 177 88 2 -1 -7 -11 -20 -22z
m-7659 -222 c-46 -40 -151 -99 -178 -99 -18 0 50 51 138 102 83 49 97 48 40
-3z m-364 -266 c-9 -38 -59 -79 -115 -93 -25 -7 -107 -14 -181 -16 l-135 -4
85 20 c103 24 252 74 300 100 47 26 53 25 46 -7z m7384 -19 c0 -27 -8 -44 -33
-69 -41 -41 -99 -54 -262 -61 l-120 -5 114 40 c62 22 155 60 205 85 50 24 92
45 94 45 1 1 2 -15 2 -35z m-3440 -15 c0 -12 -15 -36 -33 -54 -42 -42 -101
-55 -272 -61 l-130 -4 83 20 c119 28 240 67 292 94 58 30 60 30 60 5z"/>
</g>
</svg>
