<?xml version="1.0" standalone="no"?>
<!DOCTYPE svg PUBLIC "-//W3C//DTD SVG 20010904//EN"
 "http://www.w3.org/TR/2001/REC-SVG-20010904/DTD/svg10.dtd">
<svg version="1.0" xmlns="http://www.w3.org/2000/svg"
 width="641.000000pt" height="1280.000000pt" viewBox="0 0 641.000000 1280.000000"
 preserveAspectRatio="xMidYMid meet">
<metadata>
Created by potrace 1.15, written by Peter Selinger 2001-2017
</metadata>
<g transform="translate(0.000000,1280.000000) scale(0.100000,-0.100000)"
fill="#000000" stroke="none">
<path d="M3720 12782 c-62 -31 -100 -117 -100 -226 0 -24 -7 -57 -15 -72 -8
-16 -15 -38 -15 -49 0 -11 -13 -75 -30 -142 -32 -133 -92 -265 -217 -476 -135
-230 -252 -394 -503 -707 -64 -80 -167 -212 -230 -295 -63 -82 -159 -206 -215
-275 -172 -213 -418 -531 -482 -625 -34 -50 -87 -119 -118 -155 -60 -70 -94
-128 -131 -228 -36 -94 -57 -130 -114 -197 -65 -76 -71 -87 -124 -242 -66
-191 -75 -315 -36 -488 30 -132 30 -241 1 -316 -12 -31 -48 -94 -81 -140 -157
-221 -192 -309 -213 -531 -15 -160 -17 -163 -110 -293 -29 -41 -62 -72 -102
-96 -65 -39 -95 -78 -95 -123 0 -21 14 -42 57 -85 82 -82 113 -128 113 -169 0
-19 -18 -74 -40 -123 -70 -156 -133 -340 -133 -389 1 -65 33 -125 124 -229 88
-103 104 -128 119 -197 15 -64 -2 -171 -39 -249 -15 -33 -61 -100 -101 -150
-103 -129 -150 -232 -150 -332 0 -51 33 -93 74 -93 45 0 55 -10 62 -62 7 -53
40 -102 74 -113 29 -9 24 -35 -17 -92 -42 -57 -71 -103 -214 -347 -171 -292
-287 -525 -399 -806 -61 -152 -174 -496 -209 -635 -66 -261 -111 -454 -111
-473 0 -19 35 -54 94 -95 14 -9 33 -34 42 -53 13 -27 31 -43 68 -60 28 -13 58
-24 67 -24 66 0 164 -83 205 -173 28 -60 29 -67 28 -207 -1 -81 -7 -165 -14
-190 -6 -25 -15 -72 -19 -105 -4 -33 -16 -86 -26 -117 -28 -86 -18 -107 95
-200 52 -43 117 -89 144 -103 58 -29 128 -33 183 -10 56 24 93 18 145 -20 66
-48 119 -124 170 -240 l43 -100 -2 -154 -3 -154 132 -134 c73 -73 140 -136
150 -139 10 -3 35 0 55 7 29 9 51 9 105 -1 66 -13 72 -12 149 13 71 24 86 26
142 18 34 -5 99 -13 144 -16 68 -6 99 -15 180 -52 54 -25 154 -65 223 -90 68
-24 129 -48 135 -53 6 -5 51 -23 100 -41 50 -17 99 -38 110 -45 11 -8 32 -14
47 -14 49 0 221 31 363 66 77 19 150 34 161 34 11 0 58 11 105 25 46 14 104
27 129 28 l45 2 1 -48 c1 -69 19 -83 136 -101 128 -21 154 -20 195 5 40 25 84
26 173 4 75 -18 329 -31 413 -21 39 5 67 15 86 32 16 13 46 30 67 38 51 17 63
38 44 74 -22 39 -76 61 -190 77 -55 8 -117 24 -139 35 -48 24 -158 124 -166
151 -9 26 34 114 75 156 18 18 56 40 91 52 83 28 185 87 191 109 3 10 2 41 -2
68 -11 69 13 269 35 294 9 10 69 35 133 56 147 46 279 112 319 158 21 23 35
54 43 93 7 32 22 103 35 158 12 55 30 145 39 200 10 55 23 132 31 170 8 39 17
95 20 125 4 30 15 109 25 175 11 66 24 204 29 306 14 248 34 419 87 744 60
361 65 420 49 650 -15 209 -24 292 -60 530 l-25 160 33 50 c45 67 48 77 57
170 7 69 16 95 63 190 99 195 137 372 137 635 0 221 -27 405 -91 629 -47 166
-95 283 -200 494 -121 244 -125 265 -35 212 134 -78 319 -355 416 -620 53
-144 90 -194 230 -308 90 -74 97 -82 104 -127 3 -19 20 -64 38 -100 50 -98 46
-153 -20 -284 -28 -56 -53 -109 -56 -119 -3 -10 8 -124 24 -254 40 -311 34
-332 -90 -348 -70 -9 -83 -17 -111 -62 -52 -87 -80 -100 -143 -62 -42 24 -73
18 -87 -17 -14 -38 12 -78 63 -99 57 -23 219 -32 286 -15 67 16 133 60 159
107 11 21 29 66 38 101 13 46 30 76 61 111 51 57 91 131 100 187 5 34 1 47
-26 87 -17 25 -36 49 -41 53 -24 14 -99 220 -99 268 0 44 26 125 54 166 63 96
59 165 -18 295 -153 257 -177 349 -156 590 9 106 9 170 0 284 -31 379 -82 491
-382 822 -161 179 -291 329 -305 353 -20 34 -15 104 11 165 14 31 39 92 56
136 17 44 63 139 103 210 72 130 72 130 75 216 5 105 -5 129 -86 220 -32 36
-70 86 -85 111 -30 51 -131 138 -227 194 -36 21 -95 66 -131 100 l-66 62 -77
7 c-70 7 -79 6 -100 -14 -35 -33 -50 -26 -90 39 -44 71 -72 150 -87 239 -5 36
-19 84 -30 105 -31 59 -30 115 2 153 16 19 29 50 34 79 3 25 9 53 12 60 7 19
37 17 81 -5 20 -10 53 -26 72 -35 19 -9 47 -26 63 -38 51 -41 134 -18 165 45
26 57 39 77 87 137 49 61 105 100 145 100 12 0 29 13 41 33 18 28 20 42 14
113 -5 74 -4 82 16 100 33 29 103 132 140 204 25 49 33 78 33 120 l1 56 -180
176 c-99 96 -209 199 -245 229 -102 84 -340 320 -489 485 -172 190 -383 431
-438 500 -24 29 -56 60 -73 69 -16 8 -35 25 -41 37 -37 70 -105 148 -149 172
-69 38 -73 45 -53 100 13 34 15 51 7 64 -18 30 -76 52 -134 52 -32 0 -69 -7
-90 -18z m143 -544 c75 -219 97 -288 137 -443 22 -88 55 -198 71 -245 17 -47
55 -158 85 -248 58 -175 65 -228 39 -303 -9 -24 -22 -85 -30 -136 -10 -72 -26
-120 -65 -208 -77 -170 -88 -183 -251 -305 -181 -136 -339 -297 -339 -347 0
-7 14 -26 30 -43 35 -36 38 -66 11 -118 -17 -33 -17 -41 -5 -62 23 -42 16 -80
-25 -150 -21 -36 -47 -92 -56 -124 -10 -34 -31 -73 -50 -95 -42 -47 -55 -73
-55 -111 0 -45 36 -75 119 -100 63 -18 74 -25 88 -54 14 -31 14 -38 0 -79 -14
-41 -14 -49 5 -108 11 -35 33 -77 48 -94 69 -77 70 -79 70 -196 0 -98 3 -119
34 -206 19 -54 44 -120 56 -148 26 -58 80 -220 80 -239 0 -7 -16 -66 -36 -131
-29 -94 -48 -136 -99 -215 -62 -95 -68 -101 -252 -242 -235 -180 -345 -259
-548 -389 -244 -156 -312 -214 -446 -384 -90 -113 -318 -363 -682 -748 -150
-159 -230 -255 -395 -476 -113 -152 -238 -323 -277 -381 -61 -91 -74 -105
-101 -108 -38 -4 -84 30 -84 63 0 27 19 49 60 70 65 33 45 92 -46 135 -70 34
-83 58 -61 113 17 39 117 132 244 228 124 93 153 138 153 232 0 58 -15 86
-105 192 -28 33 -60 76 -73 96 -63 102 -37 251 71 419 l42 64 -1 111 c0 60 -4
157 -8 215 -7 86 -6 116 7 160 52 175 276 406 507 522 78 38 86 58 59 135 -26
75 -20 98 69 233 94 143 178 247 291 360 117 117 377 426 488 581 232 325 451
714 617 1097 314 727 440 1145 496 1647 11 105 28 234 37 289 10 66 13 123 9
172 -8 91 2 204 19 204 7 0 28 -46 48 -102z m1161 -2939 c14 -7 27 -18 31 -27
11 -30 -56 -99 -86 -87 -36 14 -73 107 -51 129 9 9 72 0 106 -15z m209 -463
c47 -37 99 -66 120 -66 25 0 67 -40 67 -65 0 -35 -27 -93 -87 -183 -40 -61
-78 -101 -146 -157 -88 -73 -127 -91 -127 -60 0 8 15 35 33 59 47 60 107 208
107 260 0 25 -10 62 -24 91 -14 26 -28 65 -31 85 -5 32 -3 40 17 54 12 9 24
16 26 16 2 0 22 -15 45 -34z m92 -2781 c34 -58 132 -322 140 -378 6 -36 1 -52
-30 -111 -61 -115 -110 -165 -138 -137 -6 6 -14 98 -18 218 -5 114 -13 254
-19 311 -10 107 -4 142 24 142 8 0 26 -20 41 -45z"/>
</g>
</svg>
