<?xml version="1.0" standalone="no"?>
<!DOCTYPE svg PUBLIC "-//W3C//DTD SVG 20010904//EN"
 "http://www.w3.org/TR/2001/REC-SVG-20010904/DTD/svg10.dtd">
<svg version="1.0" xmlns="http://www.w3.org/2000/svg"
 width="1280.000000pt" height="1090.000000pt" viewBox="0 0 1280.000000 1090.000000"
 preserveAspectRatio="xMidYMid meet">
<metadata>
Created by potrace 1.15, written by Peter Selinger 2001-2017
</metadata>
<g transform="translate(0.000000,1090.000000) scale(0.100000,-0.100000)"
fill="#000000" stroke="none">
<path d="M2920 10568 c-183 -26 -342 -79 -431 -144 -25 -18 -69 -44 -96 -57
-28 -13 -90 -53 -139 -89 -49 -36 -105 -73 -124 -83 -65 -33 -131 -100 -229
-230 -135 -182 -248 -385 -346 -625 -54 -131 -63 -169 -81 -340 -39 -380 -39
-578 0 -719 12 -42 13 -68 6 -119 -9 -64 -7 -71 40 -217 28 -84 50 -164 50
-178 0 -24 -3 -27 -26 -21 -26 7 -26 6 -19 -42 3 -27 13 -86 21 -132 12 -66
13 -95 3 -141 -10 -51 -8 -71 11 -157 12 -55 40 -146 60 -204 167 -462 173
-477 224 -547 37 -51 103 -212 117 -283 17 -92 143 -362 245 -527 47 -75 102
-169 121 -207 72 -144 279 -470 373 -586 29 -36 66 -92 82 -125 18 -36 54 -82
89 -115 47 -44 57 -59 53 -78 -10 -36 69 -130 131 -158 60 -26 97 -71 82 -96
-16 -25 32 -88 136 -177 48 -41 87 -82 87 -90 0 -9 -32 -41 -71 -71 -60 -47
-70 -58 -66 -80 8 -39 37 -120 63 -175 13 -28 24 -62 24 -77 0 -55 41 -135
125 -242 47 -60 85 -112 85 -115 0 -3 -21 -26 -46 -52 -45 -46 -46 -48 -35
-80 6 -19 22 -45 35 -59 21 -21 70 -129 63 -136 -1 -1 -85 6 -187 17 -230 23
-386 24 -560 2 -88 -11 -192 -16 -300 -14 -277 4 -479 -40 -715 -155 -194 -94
-323 -184 -578 -403 -56 -48 -129 -105 -162 -128 -155 -105 -216 -173 -230
-254 -10 -61 1 -90 70 -173 40 -48 65 -87 65 -102 0 -13 -22 -83 -49 -156 -55
-147 -82 -244 -106 -388 -22 -127 -90 -460 -110 -535 -8 -33 -27 -127 -41
-209 l-25 -149 -166 -171 -166 -171 6013 -3 c3307 -1 6015 0 6018 2 2 3 0 56
-6 119 -7 88 -15 124 -35 163 -31 60 -47 70 -131 84 -89 14 -91 15 -127 71
-44 68 -69 85 -156 105 -73 16 -123 16 -235 -2 -30 -5 -38 -3 -38 9 0 22 -38
65 -73 84 -20 10 -58 16 -103 17 -69 0 -70 1 -96 37 -15 20 -48 52 -75 70 -44
31 -54 34 -118 33 -46 -1 -89 -8 -124 -22 l-54 -21 -33 28 c-58 52 -111 51
-494 -4 -118 -17 -237 -27 -365 -30 -199 -5 -217 5 -43 25 160 18 315 70 383
128 74 63 146 180 200 325 39 105 65 157 100 197 32 36 35 54 18 86 -9 16 -38
73 -65 127 -50 102 -129 216 -192 276 -30 29 -36 42 -36 76 0 46 -26 142 -44
164 -6 8 -12 34 -12 58 -1 33 -10 56 -34 89 -17 25 -30 51 -27 58 10 26 -15
96 -43 120 l-28 23 21 59 c11 32 21 84 21 114 1 50 -4 62 -48 130 -65 100
-184 236 -349 397 -84 83 -137 143 -141 160 -4 16 -22 51 -40 79 -26 38 -43
53 -73 62 -36 11 -41 16 -57 68 -22 69 -57 108 -92 101 l-24 -4 0 111 c0 73
-7 142 -20 200 -15 66 -20 127 -20 228 0 133 1 140 30 202 31 64 31 65 83 75
29 5 104 15 167 21 231 24 365 106 388 238 14 80 31 103 101 141 33 17 62 38
65 47 9 24 7 63 -4 84 -8 15 -2 24 40 54 55 39 56 44 36 131 -14 57 -14 61 5
81 12 13 49 29 86 38 78 20 158 59 167 81 15 39 1 81 -87 256 -122 242 -152
362 -110 442 29 56 15 302 -30 501 -21 97 -21 99 -2 110 34 20 67 57 62 70 -3
8 5 18 19 25 24 10 28 20 25 53 -1 9 3 19 9 23 16 10 12 40 -10 60 -19 17 -19
18 0 43 26 33 25 41 -6 52 -18 7 -24 15 -20 26 9 23 -12 54 -35 54 -11 0 -30
11 -42 24 -34 36 -89 66 -122 66 -17 0 -48 9 -69 20 -22 10 -43 17 -47 14 -5
-3 -19 2 -31 10 -34 24 -217 22 -299 -4 -54 -16 -67 -17 -84 -6 -11 7 -62 43
-113 79 -106 75 -287 171 -424 223 -229 88 -514 116 -754 74 -274 -48 -409
-109 -599 -270 -289 -246 -510 -686 -595 -1185 -11 -65 -25 -209 -30 -320 -6
-110 -14 -288 -19 -395 -6 -107 -19 -249 -31 -315 -26 -152 -70 -335 -79 -335
-4 0 -18 44 -30 98 -51 211 -160 456 -300 668 -104 158 -175 233 -350 367 -80
61 -175 138 -211 171 -91 82 -197 162 -390 294 -130 89 -169 121 -185 151 -26
50 -90 134 -171 224 -75 82 -87 102 -104 174 -14 62 -63 113 -108 113 -21 0
-28 5 -29 22 -1 11 -18 37 -37 57 -28 29 -36 45 -36 74 0 57 -24 87 -71 87
-28 0 -41 5 -49 20 -8 15 -21 20 -55 20 -24 0 -56 -5 -70 -12 -33 -15 -38 -10
-100 107 -78 147 -145 244 -212 310 -46 44 -71 80 -97 136 -19 42 -42 81 -50
88 -42 35 -244 423 -291 561 -20 58 -70 173 -112 255 -64 128 -204 453 -249
577 -23 62 -54 255 -69 418 -9 106 -20 175 -35 215 -12 33 -31 87 -42 120 -12
33 -29 71 -38 85 -10 14 -33 57 -53 95 -36 72 -124 167 -182 198 -89 47 -272
102 -320 96 -5 -1 -39 -6 -75 -11z"/>
</g>
</svg>
