<?xml version="1.0" standalone="no"?>
<!DOCTYPE svg PUBLIC "-//W3C//DTD SVG 20010904//EN"
 "http://www.w3.org/TR/2001/REC-SVG-20010904/DTD/svg10.dtd">
<svg version="1.0" xmlns="http://www.w3.org/2000/svg"
 width="640.000000pt" height="1280.000000pt" viewBox="0 0 640.000000 1280.000000"
 preserveAspectRatio="xMidYMid meet">
<metadata>
Created by potrace 1.15, written by Peter Selinger 2001-2017
</metadata>
<g transform="translate(0.000000,1280.000000) scale(0.100000,-0.100000)"
fill="#000000" stroke="none">
<path d="M2429 12768 c-28 -27 -53 -40 -120 -57 -46 -13 -104 -31 -128 -42
-47 -21 -194 -157 -218 -203 -13 -26 -64 -334 -65 -395 -1 -34 40 -64 131 -97
42 -14 106 -42 143 -60 87 -44 111 -44 132 0 9 19 16 47 16 63 0 40 34 91 67
99 15 4 42 21 59 38 16 17 54 39 82 49 28 11 62 27 74 37 13 9 38 25 56 34 17
9 32 23 32 30 0 17 23 27 39 17 25 -16 -27 -210 -65 -242 -10 -8 -14 -34 -14
-83 0 -103 -17 -204 -40 -241 -11 -18 -51 -56 -90 -83 -124 -91 -163 -175 -98
-210 18 -9 45 -29 61 -44 33 -33 31 -45 -19 -128 -26 -43 -33 -63 -29 -85 5
-23 0 -39 -19 -64 -14 -19 -26 -40 -26 -45 0 -6 16 -31 35 -55 19 -24 35 -45
35 -46 0 -2 -16 -22 -36 -46 -28 -34 -34 -49 -32 -78 3 -35 5 -37 133 -101
123 -62 130 -67 133 -97 3 -26 -5 -41 -39 -78 -37 -40 -41 -48 -31 -69 12 -27
117 -143 141 -155 22 -12 195 4 373 34 212 36 323 31 323 -15 0 -20 -61 -42
-280 -100 -303 -80 -342 -84 -450 -49 -88 29 -136 73 -164 147 -12 33 -29 63
-39 67 -9 4 -109 11 -222 15 -127 5 -226 14 -260 24 -276 75 -307 79 -384 46
-25 -10 -46 -23 -46 -27 0 -4 -7 -76 -15 -159 -24 -258 -28 -401 -15 -636 11
-225 9 -293 -13 -285 -6 2 -20 28 -31 58 -19 51 -20 77 -21 427 0 204 -3 372
-7 372 -4 0 -31 -15 -60 -34 -82 -52 -417 -227 -693 -362 -137 -67 -264 -135
-281 -151 -17 -15 -60 -64 -95 -108 -35 -44 -107 -125 -160 -180 l-96 -100
-20 -185 -20 -185 41 -80 c45 -89 87 -135 196 -217 188 -141 682 -398 765
-398 32 0 55 -10 55 -24 0 -20 -49 -60 -175 -141 -66 -43 -143 -97 -172 -122
-64 -54 -163 -185 -206 -273 -32 -65 -32 -66 -31 -215 1 -177 26 -313 75 -414
25 -53 58 -92 164 -196 l132 -130 -18 -185 c-23 -238 -43 -392 -79 -613 -17
-97 -33 -224 -37 -281 l-6 -103 43 -47 c54 -59 105 -88 196 -115 89 -26 145
-26 219 -1 92 32 136 26 159 -19 8 -14 31 -105 51 -201 44 -209 79 -322 150
-490 29 -69 58 -143 64 -165 6 -22 11 -120 11 -217 l0 -178 53 -102 c30 -57
72 -137 94 -178 l41 -75 -14 -225 c-21 -328 -29 -980 -15 -1180 23 -322 24
-448 8 -625 -9 -93 -19 -215 -23 -270 -4 -61 -14 -122 -27 -155 -34 -92 -120
-242 -163 -285 -44 -43 -258 -174 -376 -230 -40 -19 -117 -46 -172 -60 -54
-13 -118 -34 -142 -45 -58 -28 -107 -85 -99 -113 10 -35 39 -71 69 -85 45 -22
221 -35 431 -30 l200 5 92 41 c51 23 129 51 174 63 70 18 90 20 138 10 96 -19
264 -25 317 -12 69 17 152 74 170 117 19 45 13 66 -64 214 l-65 125 6 285 c14
620 62 918 205 1255 68 162 115 380 115 535 0 167 -59 508 -133 771 -60 214
-63 255 -50 724 7 243 9 442 4 489 l-9 79 -75 43 c-115 67 -174 79 -378 79
-183 -1 -198 4 -126 40 32 16 63 21 171 23 l132 4 -13 31 c-7 18 -19 48 -26
67 -7 19 -18 51 -26 70 -26 68 -14 854 14 882 15 15 21 -63 28 -413 l7 -334
29 -80 c35 -97 82 -168 158 -239 57 -52 105 -75 121 -59 5 5 -2 35 -15 68 -14
33 -34 114 -46 180 -11 66 -30 150 -41 187 -20 67 -20 68 0 205 11 76 27 217
36 313 23 255 34 333 53 397 20 64 38 78 49 36 15 -53 6 -568 -12 -713 -10
-74 -19 -160 -22 -190 -6 -75 19 -188 63 -278 19 -41 43 -103 51 -138 15 -61
15 -64 -6 -104 -11 -22 -21 -51 -21 -63 1 -86 198 -543 278 -644 114 -143 161
-251 195 -449 15 -84 33 -157 47 -184 34 -66 111 -178 164 -236 76 -85 100
-165 156 -509 43 -274 92 -470 177 -720 87 -258 139 -452 148 -556 5 -51 2
-108 -10 -183 -24 -152 -16 -236 62 -647 34 -183 36 -205 35 -384 l-1 -190 36
-115 c61 -197 163 -340 251 -355 38 -6 53 -2 118 29 83 42 173 119 209 180 31
53 55 174 55 273 -1 154 -47 291 -132 389 -53 61 -171 327 -195 438 -18 84
-13 333 12 584 31 327 67 868 60 937 -16 177 -87 451 -172 665 -57 144 -103
235 -187 374 -142 234 -169 410 -182 1186 -6 334 -5 379 10 414 9 21 16 49 16
63 0 13 -25 128 -55 256 -58 245 -60 257 -45 257 11 0 46 -112 95 -307 19 -79
57 -216 84 -305 28 -90 59 -197 71 -238 26 -95 159 -665 211 -910 38 -178 185
-740 236 -905 28 -90 48 -120 59 -90 10 25 -14 303 -31 362 -34 118 -45 164
-58 248 -15 93 -45 229 -102 470 -19 77 -46 212 -60 300 -15 88 -35 196 -45
241 -31 134 -78 374 -126 644 -24 140 -54 291 -65 335 -11 44 -32 141 -45 215
-14 74 -45 219 -70 321 -44 187 -54 275 -32 297 18 18 81 14 138 -8 28 -11 59
-20 69 -20 50 0 70 94 30 144 -31 40 -84 62 -203 87 -133 28 -161 44 -177 101
-20 75 -38 191 -39 249 0 89 -19 167 -64 274 -24 55 -46 108 -49 118 -9 25
-36 21 -47 -9 -11 -27 1 -155 41 -438 21 -155 24 -257 9 -287 -6 -10 -21 -19
-34 -19 -13 0 -30 -7 -37 -16 -36 -44 -202 -139 -225 -130 -13 5 -13 10 1 35
22 43 94 101 178 141 48 24 71 40 68 50 -2 8 -9 54 -17 102 -7 48 -20 101 -29
118 -21 40 -35 164 -36 315 0 66 -4 143 -8 170 -5 29 -5 60 1 75 13 35 58 80
80 80 27 0 22 -24 -12 -48 -38 -28 -38 -42 -1 -42 19 0 44 13 71 35 23 19 46
35 51 35 18 0 37 -47 44 -105 3 -33 17 -82 30 -110 32 -69 50 -134 91 -320 54
-246 49 -233 92 -240 20 -3 96 -24 167 -47 117 -36 143 -41 265 -45 162 -6
335 9 395 36 58 25 69 49 60 126 -6 59 -5 64 19 83 30 23 38 25 248 52 87 11
174 26 195 33 35 11 38 15 41 56 4 57 -27 158 -94 303 -30 64 -54 123 -54 131
0 8 -25 64 -55 126 -30 62 -55 120 -55 130 0 9 60 78 133 152 143 145 172 188
225 341 39 110 58 200 77 370 15 143 40 236 65 249 8 5 32 16 53 25 21 9 60
37 87 61 38 34 50 52 50 74 0 64 -78 75 -176 24 -61 -31 -117 -37 -122 -13 -2
9 39 105 91 215 100 208 117 254 117 315 0 44 27 67 88 75 34 5 40 2 45 -16 4
-16 13 -21 40 -21 42 0 67 19 110 85 18 27 40 51 50 53 10 2 42 -12 70 -32 82
-56 131 -46 158 33 l12 33 62 -7 c40 -4 71 -2 88 6 27 12 150 169 167 214 36
93 -37 218 -144 249 -71 21 -223 46 -273 46 -39 0 -45 -4 -69 -40 -41 -62 -66
-62 -144 2 -45 36 -72 36 -104 -3 -29 -34 -34 -67 -11 -75 20 -8 19 -43 0 -51
-9 -3 -41 10 -74 31 -67 41 -81 43 -104 18 -22 -24 -21 -38 4 -79 l21 -34 -23
-26 c-28 -29 -100 -67 -147 -78 -20 -4 -62 0 -109 10 -83 19 -132 14 -157 -14
-16 -18 -16 -20 11 -38 15 -11 65 -39 111 -63 105 -54 109 -74 13 -64 -56 5
-74 3 -92 -10 -13 -9 -40 -16 -60 -16 -26 0 -52 -11 -90 -37 -58 -40 -46 -38
-209 -30 -62 3 -64 -19 -4 -83 54 -57 55 -53 -39 -102 -59 -31 -259 -108 -298
-115 -53 -10 -56 51 -10 186 34 98 35 133 3 150 -10 5 -76 19 -147 31 -166 27
-244 54 -347 124 -69 46 -100 60 -179 80 -53 13 -105 28 -117 35 -26 14 -36
43 -28 87 8 37 -1 59 -47 117 -30 38 -30 39 -13 74 44 93 145 173 284 223 152
55 242 113 350 222 60 62 63 66 65 120 4 86 47 159 134 233 118 99 154 164
173 318 12 100 2 144 -58 245 -65 109 -149 200 -222 242 -36 20 -94 55 -130
77 -143 88 -297 132 -565 163 -218 26 -265 43 -325 125 -63 86 -202 193 -281
217 -35 10 -41 9 -62 -10 -13 -12 -30 -22 -38 -22 -8 0 -56 16 -107 35 -51 20
-119 38 -151 41 -56 6 -59 5 -92 -28z m-644 -2770 c-9 -46 -41 -186 -71 -313
-29 -126 -57 -258 -62 -293 -10 -70 -14 -77 -38 -68 -14 5 -16 17 -12 74 3 37
15 112 26 167 12 55 26 129 32 165 14 78 73 264 108 340 21 44 26 51 29 33 3
-13 -3 -60 -12 -105z m2051 -84 c-20 -57 -74 -164 -103 -201 -30 -41 -48 -43
-39 -5 10 41 84 192 113 230 32 43 48 30 29 -24z m1001 -191 c4 -16 7 -66 7
-113 -1 -67 -7 -100 -28 -155 -38 -98 -183 -390 -202 -406 -13 -11 -29 1 -107
79 -51 51 -95 92 -98 92 -4 0 -134 -106 -290 -236 -156 -130 -338 -277 -403
-327 -66 -51 -185 -144 -265 -208 -80 -63 -180 -138 -223 -167 -94 -63 -111
-84 -296 -358 -12 -19 -42 -94 -67 -168 -45 -138 -75 -206 -120 -271 -13 -21
-22 -41 -20 -46 3 -4 -2 -12 -10 -17 -15 -8 -15 -10 -1 -21 27 -23 44 -5 91
96 26 54 52 108 58 121 6 12 17 22 25 22 11 0 13 -11 9 -52 -3 -29 -8 -64 -12
-78 -6 -22 6 -39 95 -130 115 -118 195 -226 210 -280 6 -20 21 -49 35 -64 28
-30 33 -56 11 -56 -15 0 -212 205 -288 299 -90 113 -113 113 -172 2 -45 -85
-46 -106 -6 -119 44 -16 125 -97 150 -150 12 -25 37 -64 56 -86 19 -22 34 -49
34 -61 0 -11 5 -26 12 -33 6 -6 9 -14 6 -17 -10 -10 -100 69 -215 188 -124
129 -111 126 -168 37 -36 -57 -123 -148 -189 -199 -64 -50 -271 -166 -339
-191 -98 -36 -322 -99 -387 -110 -126 -20 -197 -13 -334 29 -69 22 -152 45
-183 51 -64 14 -103 31 -122 54 -12 14 -10 16 12 16 14 0 79 -12 144 -27 151
-34 271 -35 448 -4 287 51 454 110 617 218 111 74 345 294 311 293 -4 0 -44
-33 -88 -72 -132 -119 -229 -171 -572 -309 -150 -61 -413 -108 -521 -94 -55 7
-132 33 -132 45 0 14 26 19 152 25 161 9 278 29 386 66 121 42 439 198 536
264 80 53 205 169 194 180 -3 3 -33 -15 -66 -39 -34 -25 -87 -60 -119 -78 -32
-17 -83 -49 -113 -69 -113 -76 -301 -159 -440 -195 -107 -28 -293 -44 -304
-26 -10 17 35 36 189 81 77 22 169 52 205 67 205 83 437 222 588 354 136 118
294 334 318 435 8 37 6 34 -43 -37 -107 -159 -361 -408 -534 -524 -189 -126
-452 -222 -726 -263 -90 -14 -251 -15 -238 -2 6 6 68 19 139 31 390 65 711
216 986 463 136 121 237 236 316 359 61 94 65 98 100 98 35 0 36 1 32 33 -3
17 -8 39 -11 47 -5 10 3 20 22 32 34 19 71 84 71 125 0 38 67 103 275 268 88
69 199 157 246 194 47 38 114 82 150 99 35 17 102 61 149 99 137 108 475 360
538 400 31 20 95 68 142 108 82 68 103 84 233 170 77 51 107 95 107 158 0 77
32 117 47 60z m-577 -163 c0 -12 -12 -26 -32 -36 -70 -36 -478 -310 -563 -379
-90 -72 -303 -220 -654 -454 -182 -122 -247 -158 -260 -146 -11 12 83 88 260
209 96 66 262 181 369 256 107 75 236 163 285 195 50 32 143 96 208 142 155
111 347 232 370 233 10 0 17 -8 17 -20z m661 -214 c16 -19 17 -19 49 17 32 37
33 37 59 20 104 -69 136 -83 185 -83 28 0 88 9 134 20 113 27 142 27 142 -3 0
-38 -30 -68 -95 -98 -75 -34 -152 -46 -195 -30 -27 9 -39 7 -82 -15 -31 -16
-78 -28 -121 -33 -54 -6 -74 -12 -88 -29 -23 -29 -34 -28 -59 8 -15 22 -33 32
-62 36 -22 4 -42 13 -45 21 -3 8 21 68 53 134 l59 121 25 -33 c14 -18 32 -42
41 -53z m-3895 -98 c77 -80 104 -116 104 -139 0 -47 -67 0 -137 94 -38 53 -56
107 -35 107 4 0 35 -28 68 -62z m540 -145 c-18 -208 -33 -296 -51 -310 -11 -7
-28 -10 -39 -7 -45 13 -183 85 -219 115 -46 38 -49 35 97 139 61 44 129 94
150 110 63 48 70 43 62 -47z m-830 56 c86 -15 156 -39 151 -52 -10 -30 -240
-5 -268 29 -27 33 14 42 117 23z m368 -146 c39 -20 48 -34 33 -51 -14 -18 -47
-11 -143 29 -55 23 -72 34 -62 41 19 13 135 0 172 -19z m3326 -163 c0 -6 -11
-27 -24 -48 -13 -21 -37 -65 -54 -97 -35 -70 -84 -120 -106 -112 -21 8 -20 33
3 82 28 60 76 121 123 155 43 32 58 37 58 20z m-2665 -133 c8 -12 15 -42 15
-67 0 -57 24 -97 141 -235 167 -198 178 -217 179 -316 0 -66 27 -230 39 -242
5 -5 19 1 31 13 19 19 24 20 43 7 12 -8 26 -29 31 -46 7 -26 5 -37 -11 -59
-24 -32 -62 -39 -115 -21 -36 12 -39 11 -91 -29 -70 -54 -113 -70 -134 -49
-24 23 -7 54 44 80 76 37 86 65 79 232 -3 77 -8 152 -12 166 -9 38 -117 179
-224 292 -117 123 -120 125 -162 88 -18 -15 -52 -38 -76 -50 -42 -22 -82 -71
-82 -102 0 -35 -41 -68 -107 -89 -36 -11 -76 -20 -90 -20 -24 0 -25 2 -18 38
15 82 67 150 223 289 162 143 254 181 297 120z m2785 -9 c-1 -46 -17 -113 -42
-175 -19 -47 -20 -58 -10 -104 23 -97 9 -138 -42 -125 -43 11 -43 59 -4 226
22 94 71 210 87 210 6 0 11 -15 11 -32z m-669 -205 c30 -53 89 -144 132 -201
42 -57 77 -112 77 -121 0 -10 11 -35 25 -55 14 -21 34 -54 44 -75 20 -38 80
-98 123 -123 16 -9 65 -13 163 -13 143 0 174 -8 122 -33 -44 -21 -216 -62
-261 -62 -123 1 -194 86 -368 440 -108 218 -138 289 -138 325 0 43 24 18 81
-82z m-1452 37 c168 -18 218 -45 131 -71 -40 -12 -55 -12 -410 19 -57 5 -75
11 -75 22 0 34 176 48 354 30z m-880 -197 c5 -21 15 -66 21 -100 17 -99 40
-163 77 -222 35 -55 36 -57 23 -101 -7 -25 -13 -58 -14 -75 -2 -52 -30 -38
-38 19 -4 27 -23 81 -43 120 -22 43 -43 108 -55 166 -19 94 -26 210 -13 223
16 17 33 4 42 -30z m1911 -71 c0 -113 -56 -248 -130 -315 -73 -66 -111 -81
-183 -73 -61 6 -112 29 -102 46 3 5 34 7 69 3 62 -5 64 -5 102 30 21 19 61 73
88 118 78 134 135 219 146 219 6 0 10 -13 10 -28z m-1508 -430 c2 -17 -1 -32
-7 -34 -6 -2 -11 19 -13 47 -1 36 1 46 8 34 5 -9 11 -30 12 -47z m-210 20 c3
-10 -1 -59 -8 -108 -8 -49 -14 -107 -14 -130 0 -22 -6 -49 -14 -60 -14 -18
-16 -18 -28 -2 -7 9 -26 18 -43 20 -26 3 -30 7 -33 38 -1 19 2 42 8 50 9 13
13 11 30 -10 27 -36 38 -19 46 75 9 111 42 183 56 127z m118 -12 c0 -28 -11
-51 -21 -44 -10 6 -12 57 -3 67 11 10 24 -3 24 -23z m1080 -80 c0 -34 -9 -60
-21 -60 -10 0 -12 83 -3 93 12 12 24 -4 24 -33z m203 -69 c69 -26 66 -71 -5
-71 -61 0 -157 48 -142 71 7 12 116 11 147 0z m285 -917 c15 -4 22 -14 22 -30
0 -23 -3 -24 -63 -24 -54 0 -76 -6 -145 -40 -44 -22 -83 -40 -86 -40 -3 0 -6
9 -6 21 0 20 6 23 145 85 77 34 94 38 133 28z m-700 -675 c3 -585 2 -601 -18
-645 -11 -26 -20 -55 -20 -66 0 -30 40 -140 62 -171 20 -28 24 -29 73 -24 65
7 127 38 230 116 44 34 85 61 91 61 6 0 33 11 60 25 27 14 51 25 52 25 2 0
-26 -29 -62 -64 -44 -42 -68 -74 -72 -95 -5 -24 -12 -31 -29 -31 -13 0 -59
-18 -102 -41 -87 -45 -189 -66 -263 -55 -70 10 -76 18 -49 55 l23 31 -27 57
c-48 106 -65 274 -40 413 7 36 19 256 28 490 18 510 22 557 49 530 8 -8 12
-179 14 -611z m643 459 c17 -34 63 -109 101 -166 85 -127 87 -132 55 -132 -36
0 -136 71 -203 143 -71 77 -147 178 -139 186 6 5 105 26 142 30 7 0 27 -27 44
-61z m-1953 -105 c2 -11 -13 -94 -33 -184 -34 -153 -37 -180 -45 -409 -8 -232
-13 -280 -29 -280 -26 0 -43 34 -61 120 -25 120 -25 165 0 331 42 269 107 461
153 446 7 -2 13 -13 15 -24z m-252 -19 c10 -40 -2 -170 -36 -374 -49 -294 -49
-331 -6 -480 20 -69 36 -138 34 -155 -4 -41 -34 -43 -80 -5 -58 48 -68 93 -68
311 0 325 39 598 100 697 24 39 47 41 56 6z m1884 -88 c35 -158 52 -464 30
-507 -16 -30 -38 -23 -44 14 -3 17 -8 140 -11 272 -3 132 -8 256 -11 275 -5
32 -4 34 10 16 8 -10 20 -41 26 -70z m269 -33 c30 -134 59 -613 44 -730 -18
-135 -71 -208 -92 -126 -8 32 -31 657 -31 835 0 101 57 116 79 21z m-1452
-367 c-6 -273 -11 -346 -27 -346 -11 0 -19 58 -31 232 -12 172 -2 329 27 396
31 73 37 19 31 -282z m-209 -216 c-7 -36 -12 -111 -12 -168 1 -90 -1 -103 -15
-100 -9 2 -26 23 -38 48 -34 67 -32 190 6 342 16 64 35 161 41 215 6 54 14
105 18 113 13 28 13 -381 0 -450z m1382 -134 c0 -78 -30 -219 -56 -263 -22
-37 -113 -113 -136 -113 -19 0 -5 42 26 83 48 63 64 97 86 182 20 79 55 155
70 155 6 0 10 -20 10 -44z m545 -162 c0 -12 -10 -22 -30 -28 -59 -17 -105 -39
-121 -57 -20 -22 -63 -35 -151 -44 -88 -10 -82 8 20 55 91 43 256 101 272 96
6 -1 10 -11 10 -22z m-1944 -140 c16 -20 29 -40 29 -45 0 -14 -41 -21 -78 -14
-82 15 -119 56 -58 63 25 3 28 7 23 32 -4 15 -3 30 0 33 8 9 49 -25 84 -69z
m559 -3789 c25 -30 -44 -169 -128 -257 -20 -21 -42 -38 -49 -38 -14 0 -98 258
-88 268 8 9 30 -20 61 -80 13 -27 28 -48 32 -48 4 0 25 29 46 65 54 92 98 124
126 90z m1627 -258 c-8 -57 -24 -97 -38 -97 -14 0 -6 88 11 120 19 36 33 24
27 -23z"/>
</g>
</svg>
