<?xml version="1.0" encoding="utf-8"?>
<svg version="1.1" id="Layer_1" xmlns="http://www.w3.org/2000/svg" xmlns:xlink="http://www.w3.org/1999/xlink" x="0px" y="0px"
	 viewBox="0 0 1523.945 1698.73" enable-background="new 0 0 1523.945 1698.73" xml:space="preserve">
<g>
	<path d="M1457.069,1313.965c-0.005-0.362-0.021-1.082-0.026-1.439c-1.33,1.522-2.521,3.152-3.701,4.792
		c-0.393-0.01-1.185-0.031-1.579-0.047c0.43-1.004,0.942-1.987,1.175-3.048c-1.713-0.041-2.51,1.77-3.597,2.795
		c-0.026,0.523-0.036,1.066-0.026,1.625c-0.787,1.082-1.609,2.143-2.329,3.276l-0.274,0.057c0.018-3.825,0.136-3.043,0.678-5.403
		c-1.765,1.693-3.809,3.033-5.77,4.477c-0.01,0.321-0.036,0.973-0.047,1.294c-2.479,2.448-4.917,5.02-8.089,6.568
		c-1.873,1.651-3.612,3.613-6.205,4.084c-14.407,10.683-14.436,11.764-16.215,13.498c-0.01,0.316-0.031,0.937-0.047,1.247
		c-0.699,0.398-1.387,0.802-2.055,1.227c-0.01,0.29-0.021,0.87-0.026,1.159c-0.895,0.507-1.672,1.17-2.401,1.889
		c-0.104-0.166-0.311-0.492-0.414-0.652c-0.569,1.377-1.775,2.288-2.728,3.385c0.078,0.171,0.228,0.518,0.305,0.694
		c-0.74,0.388-1.439,0.838-2.117,1.309c0.176,0.171,0.523,0.507,0.693,0.678c-0.999,0.274-1.708,0.978-1.77,2.044
		c-1.273,1.361-2.738,2.526-4.27,3.581c-1.516,2.097-8.527,12.048-11.049,11.971c-0.97-0.006-20.788,5.311-25.666,1.604
		c0.812-0.844,1.832-1.03,2.909-0.507l-0.067-0.833c0.611-0.036,1.242-0.057,1.889-0.057c1.553-0.921,2.531-2.417,3.602-3.809
		c1.785-1.232,3.907-1.946,5.631-3.302c0.29-0.057,0.875-0.166,1.164-0.222c0.44-0.487,0.89-0.958,1.366-1.408
		c0.3-0.041,0.901-0.124,1.201-0.16c0.212-0.197,0.642-0.58,0.854-0.776c4.295-0.345,12.536-7.737,14.005-11.107
		c-0.704,0.021-1.387,0.062-2.055,0.124c-2.464,1.998-3.809,5.103-6.614,6.692c-0.28,0.026-0.839,0.067-1.118,0.093
		c-0.833,0.642-1.692,1.242-2.531,1.868c-1.012,0.087-10.038,2.301-17.602,10.475c-5.254-0.174-7.403,0.632-10.931-0.953
		c-0.316-0.026-0.952-0.072-1.268-0.098v-0.372c2.541-0.321,5.046-2.086,7.639-0.745c0.254-0.321,0.528-0.626,0.823-0.906
		c0.279-0.016,0.838-0.052,1.113-0.067c1.734-1.346,3.462-2.717,5.362-3.825l0.057,0.781l0.663-0.026
		c-0.181-0.233-0.543-0.704-0.724-0.942c3.385-1.144,7.246-1.615,9.901-4.234c0.844,0.818,1.061-0.005,1.278-0.844
		c1.581-0.755,1.452-0.546,3.152-1.361c0.745-1.315,1.842-2.386,3.11-3.199c1.346-1.521,2.567-3.25,2.609-5.362
		c-2.098,1.691-5.322,6.009-8.214,8.576c-3.159,0.79-3.356,1.044-4.223,1.547c-2.21,0.171-4.068,1.558-6.247,1.853
		c-2.096,1.563-4.71,2.241-6.744,3.887c-0.274,0.036-0.813,0.104-1.087,0.14c-0.683,0.621-1.356,1.252-2.003,1.915
		c-4.721-0.153-4.488-3.53-13.865-8.007c-1.294-0.683-3.385-0.456-3.773-2.205c-0.673,0.424-1.314,0.895-1.599,1.687
		c-2.173-3.096-2.469-19.039-3.452-22.503c0.664-5.668-3.012-26.098-2.329-34.241c0.859-1.134-0.429-2.464,0.445-3.597
		c0.921,0.745,1.93,1.413,3.064,1.853c0.89-1.858-1.066-3.105-1.889-4.513c-1.475-1.739-0.895-4.109-0.927-6.169
		c0.161-0.207,0.487-0.621,0.647-0.828c-0.119-0.616-0.217-1.216-0.295-1.801c0.611-0.047,1.237-0.078,1.879-0.093
		c0.176,0.352,0.373,0.725,0.58,1.108c2.195,0.766,3.902,2.432,6.014,3.385c-0.016-0.512-0.047-1.542-0.062-2.055
		c-9.448-8.475-7.479-6.754-7.385-9.606c0.202-0.585,0.404-1.159,0.611-1.729c0.233-0.233,0.704-0.709,0.937-0.947
		c2.446,2.085,4.329,2.097,9.606,2.681c-1.382-1.894-3.871-1.962-5.9-2.64c-0.44-0.668-0.818-1.366-0.031-1.951
		c1.164,0.181,2.324,0.512,3.504,0.745c-1.299-2.35-3.752-3.664-5.729-5.346c-1.294-2.112,0.176-5.735,2.831-5.605
		c4.469-2.989-0.982,1.715,7.913-5.812c0.15-0.6,0.326-1.185,0.523-1.754c0.062,0.373,0.181,1.123,0.243,1.496
		c0.3-0.036,0.911-0.114,1.211-0.15c-0.072-0.285-0.223-0.849-0.3-1.133c0.787,0.248,1.589,0.528,2.401,0.807
		c1.158,0.804,7.689,2.76,15.19,2.929c0.021-0.259,0.052-0.776,0.073-1.03c1.061-0.021,2.137-0.036,3.229-0.031
		c-0.067-0.486-0.207-1.46-0.274-1.941c0.932,0.481,1.232-0.404,1.635-1.087c-1.651-1.03-3.38-1.931-4.922-3.095
		c4.793,0.186,3.638,1.645,6.387,3.084c0.352-1.216,1.252-2.055,2.298-2.702c-0.461-0.517-0.901-1.02-1.32-1.506
		c0.621,0.01,1.263,0.047,1.92,0.093c0.518,0.197,1.051,0.404,1.604,0.626c0.657,1.02,1.884,1.361,2.935,1.899
		c0.466-0.926,0.875-1.879,1.128-2.878c-1.511-0.45-2.96-1.061-4.461-1.48c0.911-1.211,2.277-1.542,3.752-1.397
		c0.016-0.243,0.047-0.735,0.062-0.978c0.347,0,1.03,0,1.371,0c0.228-0.662,0.492-1.299,0.761-1.925
		c-1.087-0.264-2.143-0.543-3.204-0.787v-0.393c0.378,0,1.144,0,1.527,0l0.036,0.486c0.331,0.016,0.988,0.052,1.32,0.067
		c3.178,2.298,7.912,4.655,12.918,5.755c0.647,0.487,1.32,0.958,2.013,1.444c0.668-0.005,1.346,0.005,2.055,0.036
		c0.388,0.585,0.932,1.056,1.506,1.511c2.289,0.346,0.909,0.384,3.711,0.528c-0.673-1.522-1.384-1.785-9.274-6.138
		c-0.264-0.041-0.797-0.114-1.061-0.15c-4.287-2.354-8.574-3.578-15.765-10.993c-0.036-0.559-0.057-1.103-0.052-1.63
		c-1.159-1.092-2.127-2.35-3.059-3.612c0.005-0.383,0.021-1.149,0.026-1.532c4.938,6.541,8.126,8.906,12.623,11.034
		c0.269,0.041,0.813,0.119,1.082,0.16c1.004,0.569,2.029,1.128,3.043,1.723c1.646,0.43,3.085,1.377,4.596,2.163
		c0.114,0.233,0.342,0.704,0.455,0.942c3.183,1.77,6.894,2.717,9.596,5.269c0.145-0.16,0.435-0.481,0.58-0.636
		c-2.49-2.753-5.227-5.233-8.421-7.127c-9.258-1.69-19.686-13.923-19.605-14.895c2.782,0.1,7.123,1.565,8.974,2.531
		c1.361-0.016,2.733,0.072,4.115,0.145c-0.016-0.662-0.016-1.309,0.005-1.946c-3.418-3.434-6.001-2.412-8.519-5.227
		c-2.27-0.614-1.989-0.598-4.7-0.678c0.321-0.166,0.968-0.487,1.289-0.647l0.036-0.316c-0.999-0.021-1.993-0.041-2.955-0.114
		c2.634-1.403,5.15,1.107,7.846,1.035c0.202-0.285,0.595-0.859,0.792-1.144c-0.021-0.926-0.026-1.837-0.01-2.733
		c-1.62-1.164-3.255-2.288-4.963-3.286c0.14-1.107,0.295-2.215,0.435-3.302c1.03,1.118,1.889,2.386,2.676,3.7
		c0.802,0.062,1.428,0.399,1.646,1.268l-0.823-0.145l-0.067,0.435c0.414,0.01,1.242,0.031,1.656,0.041
		c-0.036-0.942-0.057-1.874-0.062-2.784c-1.475-1.242-2.826-2.836-2.665-4.886c0.321,0,0.963,0.005,1.284,0.005
		c-0.14,0.176-0.419,0.518-0.554,0.688c0.176,0.574,0.352,1.165,0.543,1.77c0.445,0.44,0.906,0.89,1.392,1.356
		c0.016-0.305,0.047-0.921,0.057-1.227h0.486c-0.01,1.542-0.01,3.09,0,4.648c0.254,0.005,0.761,0.01,1.02,0.01l0.021-0.538
		l0.518,0.026l-0.026-0.559l0.735,0.093c-0.916,0.916-1.842,1.827-2.764,2.743c0.01,1.62,0.067,3.302-0.574,4.844
		c0.678,0.155,1.387,0.357,2.112,0.507c0.811-1.559,0.767-2.771,1.615-6.319c0.875-0.44,1.506-1.175,2.013-1.993
		c-0.574-0.989-1.103-1.987-1.646-2.971c0.305,0.016,0.921,0.042,1.232,0.052c-0.196-0.305-0.585-0.911-0.776-1.216
		c1.879,0.057,3.406,1.206,3.939,3.028c0.554,0.388,1.113,0.797,1.693,1.237c0.336,0.005,1.009,0.01,1.351,0.016
		c-1.49-2.779-3.654-5.119-5.734-7.453c-0.15-0.884-0.708-4.564-1.045-5.533c0.243,0.016,0.735,0.052,0.978,0.067
		c-0.01-1.165-0.016-2.318,0-3.462c0.259-0.217,0.776-0.642,1.035-0.854c-0.01-1.853-0.01-3.7,0-5.538l0.476,0.026
		c0.097,3.404,1.424,5.491-0.026,10.537c0.492-0.461,1.004-0.911,1.522-1.346c1.822-7.044-1.156-19.199-0.155-23.859
		c-0.018-0.109-0.379-9.486-0.243-10.191c1.832,1.289,2.728,3.4,3.752,5.315c0.223-0.171,0.663-0.512,0.88-0.683
		c-0.342-1.237-0.538-2.51-0.595-3.773c0.399,0.311,1.19,0.932,1.589,1.242c0.171-1.128,0.326-2.246,0.481-3.359
		c-0.62-1.358-0.762-1.634-1.051-3.669c1.832,0.952,3.188,2.593,4.886,3.778c1.159,1.48,2.034,3.183,3.219,4.679
		c0.492,0.3,0.999,0.616,1.521,0.942c1.113,2.831,3.033,5.957,6.314,6.402c1.47-0.958,0.45-2.769-0.207-3.897
		c-0.052-0.264-0.145-0.781-0.196-1.046c-1.63-1.356-1.915-3.876-4.037-4.653c-0.005-0.316-0.016-0.947-0.021-1.263
		c0.367-0.01,1.107-0.026,1.475-0.036c0.419,0.776,0.844,1.563,1.294,2.35c1.495,1.341,2.784,2.929,4.663,3.82
		c0.435-0.223,0.89-0.43,1.366-0.621c-0.047-1.874-0.502-3.68-1.496-5.269c-0.016-0.29-0.052-0.875-0.073-1.17
		c-0.802-0.73-1.635-1.418-2.546-1.962c-0.01-0.321-0.026-0.963-0.031-1.278l0.217,0.093c2.386,2.277,4.767,4.565,7.085,6.92
		c-0.264-3.752-3.893-10.505-4.358-11.474c-2.256-2.391-5.89-4.555-5.579-8.286c0.616-0.419,1.253-0.813,1.858-1.268
		c-1.475-3.535-3.571-6.79-5.181-10.268c0.228-3.509-1.226-6.811-1.439-10.274c-1.388-2.636-3.041-4.309-3.545-7.116
		c-1.149-1.092-1.889-2.484-2.577-3.866c0.29,0,0.864,0,1.154,0.005c-0.201-2.985-2.987-9.975-3.431-10.946
		c-1.817-0.926-2.355-3.116-3.892-4.363c0.062-1.009,0.388-1.998,0.311-2.997c-0.295-1.035-0.725-2.044-0.523-3.121
		c0.29,0.005,0.875,0.016,1.164,0.021c-1.211-1.335-1.915-3.038-3.193-4.301c-1.03-1.123-2.717-2.132-2.143-3.887
		c0.735-0.155,1.475-0.311,2.246-0.45c-1.292-3.415-5.242-6.47-2.07-6.594c-0.052-0.202-0.145-0.611-0.197-0.818
		c-0.605-0.062-1.195-0.109-1.77-0.145c-0.595-0.823-1.159-1.646-1.651-2.505c0.859-0.585,1.723-1.17,2.614-1.718
		c-1.278-1.154-3.483-1.775-3.54-3.768c-1.108-1.154-2.469-2.008-3.623-3.085c0.528-0.73,1.485-0.611,2.287-0.714
		c-0.724-1.139-0.492-2.49-0.398-3.742c-2.267-1.879-3.716-4.503-5.528-6.775c-0.577-1.361-4.684-5.925-10.372-8.778
		c0.538-0.652,1.133-1.258,1.698-1.889c-6.131-5.754-5.163-8.022-8.767-9.233c-2.458-0.937-4.187-2.94-5.584-5.067
		c0.181-0.75,0.476-1.449,0.745-2.158c-1.075-2.758-0.185-2.621-5.336-5.119c-0.01-0.336-0.041-1.004-0.052-1.335
		c-0.518-0.16-1.009-0.305-1.48-0.435c-0.569,0.29-1.154,0.45-1.76,0.471c-0.264-0.538-0.486-1.071-0.678-1.594
		c-3.814-1.511-5.983-5.693-10.118-6.5c-1.449-1.49-2.639-3.317-4.523-4.29c-1.392-0.74-3.224-1.268-3.483-3.079
		c-0.243,0.062-0.73,0.191-0.973,0.253c-0.129-0.745-0.233-1.475-0.321-2.199c-1.687-1.408-3.809-2.107-5.88-2.676
		c-6.435-1.351-9.445-7.055-13.192-5.766c-0.207-0.181-0.621-0.538-0.828-0.719c-0.192,0.119-0.569,0.352-0.756,0.471
		c-1.051-0.223-1.724-0.885-2.013-1.879c-0.79-0.369-20.239-6.924-21.768-6.863c-1.09-0.722-13.145-2.671-14.119-2.795
		c-1.06-0.541-37.921-22.164-44.096-37.243c-0.759-0.969-56.869-79.32-69.373-86.312c-1.7-1.966-1.329-1.408-2.355-3.292
		c-3.745-2.451-36.04-31.117-44.422-34.469c-1.047-1.933-17.744-13.09-19.222-15.304c-0.243-0.01-0.73-0.036-0.973-0.047
		c-0.177-0.735-9.151-7.894-10.744-8.902c-0.633-1.835-23.704-18.818-24.868-19.175c-0.561-0.514-22.548-17.912-23.28-18.12
		c-2.855-2.942-24.244-18.511-45.234-42.677c0-0.001-16.214-19.004-16.215-19.005c-25.393-31.536-26.69-35.313-26.69-35.313
		c-5.052-9.716-10.178-26.511-11.314-32.921c-0.781-1.61-1.216-3.349-1.335-5.124c0.699-0.041,1.413-0.067,2.132-0.088
		c0.109,1.449,0.28,2.898,0.58,4.327c0.864-2.704,0.862-1.718,2.049-4.834c-0.719-0.694-1.93-1.077-2.205-2.081
		c0.336-2.288,0.678-4.57,0.88-6.873c-1.029-3.577-0.773-4.316-1.232-6.397c0.15-0.502,0.316-0.999,0.486-1.485
		c1.232-1.522,0.538-3.711,1.837-5.222c0.145,2.091-0.166,4.223,0.326,6.288c2.749,8.158,3.013,8.489,2.914,10.061
		c0.3,0.005,0.901,0.021,1.206,0.026c-0.186-0.906-0.057-1.781,0.564-2.49c-0.217-2.236-0.419-4.477-0.507-6.718
		c-0.367-0.58-0.735-1.154-1.082-1.718c0.135-0.367,0.285-0.73,0.445-1.087c-0.428-0.364-1.692-7.201-1.842-7.753
		c-0.223-0.109-0.657-0.321-0.88-0.43c0.005-0.367,0.016-1.113,0.021-1.48c0.663-0.046,1.34-0.083,2.024-0.114
		c0.228,0.616,0.476,1.242,0.73,1.868c0.569,0.176,1.149,0.357,1.739,0.549c0.15,1.444-0.119,2.872-0.999,4.058
		c0.398,0.461,0.802,0.916,1.232,1.387c0.026,0.217,0.078,0.647,0.109,0.864c0.87-1.408,1.604-2.893,2.319-4.389
		c2.914,0.952,2.231,5.134,4.86,6.474c0.471-3.198-0.331-6.48-2.448-8.943c-0.326-0.021-0.989-0.062-1.32-0.083
		c1.077-7.322-3.608-9.285-0.813-12.582c1.247-2.153-0.083-4.653,0.6-6.915c1.097,1.149,1.63,2.66,2.407,4.016
		c0.668,0.212,1.366,0.336,2.101,0.378c-0.171-1.993-1.47-3.525-2.277-5.248c0.052-1.801,0.352-3.587,0.528-5.377
		c1.196,0.652,2.484,0.285,3.209-0.859c1.216-0.637,2.407-1.346,3.551-2.127c-0.207-1.144-1.133-2.406-0.606-3.499
		c1.786-0.44,1.801,1.977,2.541,3.069c0.766,0.6,1.522,1.221,2.308,1.822c-0.471-2.122-1.004-4.518-2.795-5.921
		c-1.465-0.807-3.437-2.044-3.209-3.933c1.723-0.383,2.484,1.568,3.721,2.391c0.481-0.507,0.978-1.009,1.48-1.506
		c-1.278-1.107-2.593-2.184-3.778-3.38c-1.679-8.638-0.566-2.553-2.816-8.659c0.223-0.575,0.456-1.149,0.699-1.713
		c1.801,1.553,3.664,3.318,6.159,3.561c-0.994-1.677-2.422-3.007-3.768-4.379c0.026-1.04,0.067-2.075,0.119-3.105
		c-2.451-1.906-2.657-1.241-1.232-4.208c-0.958-1.118-2.044-2.205-2.453-3.659c0.062-0.756,0.362-1.454,0.59-2.163
		c-1.704-3.215,0.152-0.604,1.491-9.083c1.195-0.864,2.401-1.723,3.4-2.826c0.357-0.026,1.071-0.078,1.429-0.103
		c0.01,0.388,0.031,1.175,0.041,1.563c0.336,0.435,0.678,0.875,1.03,1.32c1.428-1.584,2.381-3.457,2.562-5.605
		c0.709,0.559,1.537,0.921,2.453,1.035c-0.15-0.238-0.461-0.714-0.616-0.952c1.211-0.362,1.744-1.548,2.417-2.505
		c0.3-0.916,0.678-1.806,1.102-2.671c0.067-0.383,0.197-1.149,0.259-1.532c1.03,1.527,0.978,3.385,1.097,5.15
		c0.626-0.673,1.242-1.356,1.894-2.008c-0.057-0.507-0.103-0.999-0.14-1.485c-0.595-1.371-0.393-2.883-0.404-4.321
		c-0.259-0.212-0.787-0.642-1.051-0.854c0.01-0.735,0.036-1.46,0.083-2.184c0.487,0.657,0.963,1.33,1.449,2.013
		c0.041,0.269,0.114,0.818,0.155,1.092c1.244,2.337,2.035,9.964,5.869,12.292c0.709-0.921,1.382-1.879,2.06-2.831
		c1.335,1.009,2.008,2.578,2.986,3.897c0.611-0.223,1.237-0.44,1.863-0.657c-0.5-1.302-1.998-7.053-2.106-7.541
		c1.128,1.134,1.76,2.64,2.738,3.908c0.269-0.171,0.813-0.507,1.082-0.678c-1.291-4.904-0.815-2.567-4.642-6.671l-0.331,0.818
		c-0.657-0.797-1.278-1.61-1.858-2.448c-0.031-0.538-0.047-1.066-0.052-1.589c-0.906-1.133-1.713-2.339-2.443-3.581
		c0.191-0.616,0.383-1.232,0.58-1.848c0.507-0.057,1.03-0.114,1.568-0.166c0.859-0.342,1.786-0.398,2.717-0.461
		c0.968,1.175,1.998,2.308,3.131,3.338c1.775,5.786,4.931,5.858,7.033,6.785c-0.541,2.478-0.543,2.059-0.694,3.794
		c1.04,0.223,2.169,0.839,3.188,0.155c-0.042-1.454-0.042-2.904-0.01-4.353c0.74,0.341,1.49,0.693,2.251,1.04
		c0.709-0.186,1.439-0.326,2.179-0.45c0.217,0.285,0.642,0.849,0.859,1.128c0.29,0.021,0.875,0.052,1.165,0.067
		c0.983,0.735,2.06,1.418,2.686,2.531c1.066,0,2.148-0.005,3.235-0.01c-0.016-0.585-0.021-1.159-0.01-1.728
		c-2.549-2.525-5.795-3.919-3.09-4.161v-0.088c-0.238-0.103-0.709-0.31-0.947-0.414c-0.005-1.475,0.388-3.235-0.895-4.316
		c-0.166-0.435-0.316-0.864-0.445-1.289c-1.604-1.124-5.731-16.038-5.103-17.162c0.988-2.179,1.185-5.377-1.097-6.806
		c-0.838-0.901-1.822-1.646-2.64-2.551c0.75-0.321,1.527-0.631,2.298-0.932c0.718-3.736,0.598-1.274,0.523-6.278
		c-1.056-1.387-1.749-3.022-3.038-4.218c-0.031-1.465-0.031-2.924-0.021-4.384c0.331,0,0.994,0.005,1.33,0.01
		c0.58,0.969,2.603,5.35,7.422,8.835c1.263,0.181,2.546,0.274,3.804,0.611c-4.48-1.421-8.912-12.541-12.323-17.302
		c-1.568,0.248-2.66-0.854-3.711-1.791c-0.279,0.243-0.844,0.725-1.123,0.968c-0.595-0.414-1.18-0.818-1.76-1.206
		c0.171-0.191,0.362-0.378,0.569-0.554c0.461,0.176,1.377,0.523,1.837,0.693c-0.152-0.684-5.957-9.031-8.1-10.817
		c-0.186-0.078-0.559-0.233-0.745-0.311l0.047-0.321c0.186-0.01,0.559-0.026,0.745-0.031c0,0-0.952-15.355-0.952-15.356
		c-0.228-0.207-0.693-0.621-0.926-0.823c-0.5-3.064-0.157-2.838-1.051-4.849c-0.052-0.704-0.083-1.403-0.093-2.096
		c-0.248-0.212-0.74-0.627-0.983-0.839c-0.026-0.28-0.078-0.833-0.104-1.113c-0.321-0.709-0.601-1.423-0.89-2.127
		c0.088-0.16,0.259-0.486,0.342-0.652c-0.078-0.192-0.233-0.575-0.311-0.766c1.136-3.892,0.4-1.269,0.875-3.09
		c-0.549-1.656-1.258-3.276-1.465-5.025c-0.212-0.171-0.642-0.507-0.854-0.673c-0.611-1.454-3.933-7.551-4.881-9.269
		c0.083-0.512,0.223-1.014,0.424-1.496l-0.373,0.021l-0.129,0.864c-1.002-2.418-0.908-2.459-1.04-3.193
		c-0.512-0.921-1.045-1.832-1.434-2.805c0.999-0.854,1.33-2.091,1.025-3.354c-2.313-0.217-2.976-2.841-3.24-4.756
		c-0.373-0.419-0.74-0.833-1.092-1.248c0.362,0.016,1.092,0.042,1.454,0.057c0.911,0.735,1.848,1.465,2.872,2.065
		c0.409-0.269,0.823-0.543,1.237-0.833l-0.818-0.352c0.207-0.259,0.616-0.776,0.818-1.035c1.248,0.109,7.501,2.351,9.347,2.852
		c0,0,10.266,3.813,10.268,3.814c1.356,1.579,3.545,1.356,5.388,1.848c0.942,0.445,1.739,1.149,2.665,1.646
		c1.128,0.062,2.935,0.492,3.374-0.962c-1.667-0.724-3.297-1.527-4.875-2.417c0.005-0.305,0.01-0.916,0.01-1.222
		c-0.621-0.373-1.216-0.755-1.796-1.149c-1.879-0.403-4.072-0.923-6.2-2.158c-0.29-0.021-0.869-0.067-1.159-0.093
		c-0.207-0.233-0.621-0.704-0.828-0.942c-1.749,0.14-3.302-0.637-4.741-1.511c-0.264-0.052-0.797-0.155-1.061-0.207
		c-3.03-1.65-3.965-1.776-5.284-2.06c-0.642-0.657-1.273-1.309-1.894-1.962c-0.347-0.005-1.035-0.026-1.382-0.031l0.052-0.611
		c2.499,0.359,2.169,0.299,4.203,1.201c-0.186,0.243-0.559,0.73-0.745,0.973l0.73,0.016l-0.14-0.59
		c0.373,0.026,1.113,0.072,1.485,0.093c0.202,0.253,0.611,0.755,0.818,1.004c0.611-0.005,1.237-0.005,1.874,0
		c0.016,0.259,0.047,0.776,0.062,1.035c0.605-0.005,1.221-0.005,1.853,0c0.212,0.233,0.631,0.704,0.838,0.942
		c4.748,0.712,2.191,1.102,7.365,1.76c1.201,0.606,2.412,1.211,3.607,1.858c3.485,0.766,3.332,1.454,6.288,2.339
		c0.455,0.352,0.921,0.709,1.402,1.066c-0.15-0.393-0.445-1.18-0.595-1.573c0.083-0.124,0.254-0.373,0.336-0.497
		c-3.649-1.864-6.536-4.382-9.482-4.958c-2.065-1.152-4.569-2.105-6.744-2.593c-8.312-4.432-13.426-4.624-13.984-6.615
		c-1.066-0.01-2.127-0.015-3.173-0.015c-0.466-0.523-0.921-1.035-1.366-1.553c4.45,0.079,2.641-0.383,6.583,1.967
		c4.835,0.313,0.725,2.558,10.16,0.461c0.103-0.921,0.217-1.837,0.352-2.754c0.694,0.036,1.434,0.093,2.153,0.161
		c-1.656-0.564-2.733-1.998-2.433-3.773c-0.574,0.352-1.159,0.694-1.713,1.046c0.336,1.594-0.709,2.872-1.615,4.047
		c-0.756-0.129-1.48-0.259-2.21-0.393c-1.65,0.831-1.764,0.164-6.086-2.629c-2.443-0.6-4.71-1.708-7.096-2.443v-0.321
		c0.305-0.005,0.911-0.021,1.216-0.031c-1.165-0.73-2.215-1.63-3.012-2.748c1.123,0.295,2.174,0.839,3.079,1.584
		c1.046,0.269,2.096,0.544,3.168,0.777c0.751,0.419,1.506,0.843,2.272,1.273c0.01-0.455,0.021-1.361,0.031-1.817
		c-1.346-1.076-2.903-1.811-4.415-2.598c-0.279-0.026-0.849-0.078-1.128-0.104c-0.699-0.507-1.377-1.014-2.018-1.563
		c0.895,0.021,1.853,0.052,2.712,0.429c0.487,0.052,0.994,0.104,1.511,0.155c0.109-0.29,0.321-0.864,0.43-1.149
		c0.724,0.274,1.413,0.647,2.122,1.009c0.279,0.036,0.838,0.109,1.118,0.145c1.708,1.444,2.758,3.411,3.706,5.398
		c0.026,0.28,0.083,0.849,0.109,1.134c0.238,0.202,0.714,0.611,0.952,0.818c0.047,0.29,0.14,0.869,0.181,1.159
		c1.227,0.637,2.51,1.728,3.866,0.699c0.192-0.699,0.404-1.382,0.642-2.065c-0.942-0.569-1.703-0.564-1.801,0.745
		c-0.631-0.393-1.258-0.792-1.863-1.19c-1.98-8.296-4.929-8.405-9.481-10.129c-2.707,0.155-5.926,0.616-8.074-1.392
		c0.88-0.253,1.775-0.486,2.686-0.699c-0.414-0.554-0.818-1.113-1.206-1.667c-0.021-0.279-0.062-0.833-0.088-1.113
		c-0.828-1.113-1.522-2.329-1.91-3.664c1.108-0.259,2.35,0.026,2.619,1.356c0.259-0.326,0.523-0.657,0.797-0.983
		c-0.031-0.813-0.052-1.625-0.067-2.433c-2.049-1.925-4.725-3.131-6.526-5.294c-0.89,0.404-1.785,0.781-2.671,1.165
		c-0.057,0.574-0.104,1.154-0.14,1.734c-0.186,0.176-0.559,0.523-0.74,0.699c-0.849-0.901-1.858-1.785-1.92-3.111
		c-0.756-0.874-1.527-1.723-2.272-2.593c0.43-0.212,1.283-0.626,1.708-0.838c-0.792-0.528-1.594-1.03-2.401-1.511
		c-0.016-1.418,0.047-2.837-0.057-4.249c-0.274-1.961-2.655-3.059-2.552-5.113c0.29-0.218,0.87-0.652,1.159-0.869
		c-1.004-1.713-2.489-2.935-4.275-3.742c-0.254-1.056,0.512-1.858,1.335-2.37c1.263,1.667,2.702,3.478,5.015,3.514
		c-0.018-4.435-6.218-4.878-3.654-7.748c1.672,1.222,3.053,2.795,4.503,4.275c0.616,1.159,1.076,2.432,2.112,3.333
		c-0.01,0.326-0.026,0.973-0.036,1.299c0.181,0.321,0.549,0.963,0.73,1.283c0.3-0.719,0.606-1.434,0.916-2.148
		c-1.527-1.164-1.786-3.172-2.303-4.891c-0.411-0.395-6.578-6.616-6.904-7.075c0.383-0.176,1.149-0.528,1.527-0.704
		c-0.336-0.647-1.195-1.216-0.683-2.05c2.805-0.129,3.737,2.981,5.424,4.632c0.223,0.015,0.663,0.047,0.88,0.062
		c-0.585-0.921-0.533-1.993-0.564-3.033c-0.652-0.331-1.32-0.6-1.967-0.885c-0.041-0.3-0.124-0.9-0.161-1.201
		c-1.071-1.025-2.039-2.148-2.903-3.343c2.903-1.718,5.848,1.201,8.876,0.15c1.299,0.698,2.691,1.206,4.109,1.635
		c-4.186-4.366-9.231-5.639-11.365-5.32c-1.547-0.595-3.105-1.449-4.813-1.077c-0.362-0.352-0.714-0.698-1.051-1.04
		c-0.86-23.383-3.09-28.434-3.09-28.434c-0.336,0.005-1.004,0.016-1.34,0.021c-0.797-0.849-1.584-1.703-2.334-2.578
		c-0.243-0.015-0.724-0.046-0.968-0.062c-1.734-5.113-8.744-8.656-12.716-10.263c-0.399,0.098-1.201,0.285-1.604,0.378
		c-0.29-0.471-0.543-0.947-0.771-1.439c-21.156-11.099-13.118-1.623-23.383-10.341c-0.057-0.311-0.181-0.926-0.238-1.237
		c-1.47-0.771-2.935-1.537-4.384-2.329c-0.891-1.541-2.021-2.766-3.975-3.494c-1.76-3.105-4.011-6.05-7.287-7.66
		c-2.407-3.168-6.376-4.979-10.351-4.585c-0.181-0.606-0.347-1.211-0.497-1.817c0.388-0.021,1.159-0.062,1.548-0.083
		c-0.404-0.559-0.807-1.133-1.175-1.698c-0.771,0.021-1.537,0.041-2.288,0.067c-0.145-0.663-0.285-1.32-0.409-1.977
		c-1.423,0.145-3.085,1.014-4.265-0.176c-1.542-0.963-2.49-3.333-4.601-2.924c-2.568,0.114-4.45,5.397-7.561,3.09
		c4.239-5.529-0.012-3.212,4.12-8.053c0.072-2.283,0.75-4.477,1.03-6.733c-1.853-1.045-4.218,1.087-5.719-0.445
		c0.761-1.573,1.527-3.819,3.597-3.933c0.047-0.637,0.098-1.268,0.161-1.899c-8.373-9.25-4.081-4.202-7.701-7.153
		c-1.758,0.18-0.876,0.069-2.629,0.223c-0.269-0.492-0.543-0.978-0.781-1.465c-1.284-0.145-2.841,0.378-3.887-0.564
		c0.186-0.533,0.414-1.056,0.673-1.568c-1.77-0.673-4.032-0.864-5.429,0.647c0.373,0.052,1.118,0.166,1.491,0.223
		c-0.176,0.191-0.528,0.58-0.704,0.771c0.186,0.181,0.559,0.544,0.745,0.725c-0.3,0.005-0.89,0.01-1.19,0.016
		c-0.016,0.253-0.052,0.761-0.067,1.009c-0.238,0.021-0.719,0.062-0.963,0.083c0.435-0.963,0.487-2.013,0.528-3.048
		c-1.035-0.052-2.06-0.098-3.074-0.129c-0.062,0.787-0.119,1.579-0.181,2.37c-1.082-0.694-1.537-1.941-2.137-3.007
		c-0.419,0.714-0.895,1.392-1.449,1.998c0.088-0.916,0.305-1.811,0.549-2.697c-1.401,0.517-3.175,1.335-3.178,1.335l0.787-0.957
		c-0.969,0.707-1.159,0.382-4.756-3.452c-1.672,0.331-3.416,0.6-5.041-0.041c-1.077-0.104-2.355-0.435-2.112-1.785
		c-0.166,0.166-0.497,0.497-0.662,0.662c-0.021-0.341-0.057-1.02-0.073-1.361c-1.346-1.325-2.546-2.878-4.353-3.597
		c-2.973-4.421-5.775-4.158-7.298-6.273c-1.568-0.782-2.686-2.148-3.685-3.53c1.076-1.606-1.549-4.528-3.167-5.564
		c-2.091,0.161-4.141,0.538-6.175,1.035c0,0,23.566-38.998,20.547-50.037c-1.491,0.445-2.992,0.859-4.529,1.03
		c-2.31,1.611-10.745,10.429-15.258,12.132c-0.373,0.657-0.735,1.32-1.092,1.977c-1.496,0.968-3.209,1.692-4.327,3.126
		c-0.678,0.3-1.351,0.595-2.013,0.89c-0.098,0.316-0.295,0.952-0.393,1.268c-1.139,0.549-2.288,1.061-3.426,1.578
		c-1.434-0.109-2.8,0.306-3.726,1.429c-1.289,0.492-2.578,0.983-3.866,1.459c-3.023,2.293-7.178,2.365-10.165,4.792
		c-1.92-0.466-3.468,0.756-4.772,1.977c-1.739,0.74-3.178,1.977-4.772,2.945c-1.133,0.274-2.018,1.004-2.727,1.889
		c-1.977-0.223-3.038-2.019-4.337-3.281c-0.497-1.635-1.894-2.634-3.271-3.493c-0.797-0.114-1.667-0.083-2.282-0.673
		c-10.497-8.23-21.893-8.01-23.487-8.726c-0.569-0.072-1.128-0.15-1.677-0.233c0.414,0.471,1.972,0.725,1.014,1.553
		c-1.03,0.404-2.122,0.59-3.188,0.812c2.81-0.481,5.522,0.657,8.338,0.476c1.444,1.734,4.394,0.621,5.424,2.743
		c-1.449-0.45-3.028-0.311-4.41-0.968c-0.543,0.253-1.082,0.523-1.594,0.797c-1.113-0.129-2.717,0.383-3.043-1.092
		c-2.603-0.098-5.144,0.549-7.727,0.709c-0.218,0.279-0.652,0.838-0.87,1.118c-1.066,0.015-2.127,0.021-3.183,0.031
		c-0.233-0.285-0.694-0.854-0.926-1.139c-1.144,0.295-2.272,0.631-3.395,0.963c-5.97-5.22-26.949-34.746-27.006-34.8
		c-4.952-12.498-6.632-13.276-8.534-14.999c-1.04,0.01-2.075,0.01-3.1,0.005c0.475,13.486,2.942,10.108,3.907,16.831
		c0.243,0.223,0.725,0.668,0.968,0.895c-0.207,0.978-1.004,1.522-1.786,2.029c0.238,0.119,0.709,0.357,0.947,0.476
		c-0.445,0.843-0.181,1.568,0.461,2.169c0.609,2.146,2.292,7.674,0.776,9.331c-0.133,7.783,3.508,13.835,2.469,18.135
		c0.709,0.911,1.403,1.837,2.122,2.743c0.036,0.709,0.073,1.418,0.124,2.132c-0.228,0.238-0.688,0.719-0.916,0.963
		c-6.654,2.235-12.55,5.609-13.518,6.433c3.524-0.519,3.164-0.635,5.082-1.356c-0.968,1.667-2.671,2.717-4.43,3.38
		c0.466,0.026,1.392,0.083,1.853,0.114c0.083,1.04,0.217,2.086,0.197,3.131c-0.117,0.072-0.238,0.137-0.357,0.207
		c-0.224-0.156-0.449-0.311-0.676-0.465c-4.647-3.145-9.794-5.322-15.232-6.731c-5.636-1.46-11.313-2.405-17.062-0.554
		c-0.631,0.203-0.857-0.088-1.122-0.562c-2.473-4.427-6.191-7.717-10.23-10.58c-4.159-2.947-8.752-5.186-13.558-6.93
		c-5.958-2.161-11.998-3.916-18.449-3.415c-0.798,0.062-1.355-0.193-1.865-0.843c-0.836-1.066-1.736-2.094-2.703-3.043
		c-4.722-4.635-10.247-8.13-16.153-11.007c-7.042-3.429-14.293-6.302-22.15-7.292c-0.685-0.086-1.332-0.222-1.856-0.727
		c-4.494-4.332-9.566-7.844-14.977-10.953c-7.258-4.17-14.774-7.732-22.715-10.365c-2.361-0.783-4.556-1.667-6.536-3.296
		c-3.819-3.142-8.013-5.759-12.287-8.272c-5.394-3.172-10.951-6.022-16.5-8.895c-3.442-1.782-7.202-3.045-10.41-5.163
		c-9.07-5.987-18.375-11.568-27.837-16.893c-1.429-0.804-2.809-1.836-4.546-2.004c3.504,3.426,7.467,6.212,11.241,9.233
		c4.501,3.602,8.98,7.231,13.503,10.803c3.763,2.972,7.492,5.998,11.392,8.781c3.939,2.811,7.83,5.712,12.072,8.076
		c1.025,0.571,1.888,1.346,2.716,2.175c2.124,2.126,4.222,4.284,6.43,6.322c4.486,4.142,9.054,8.179,13.993,11.803
		c4.15,3.045,8.294,6.088,12.898,8.398c2.033,1.02,3.618,2.262,5.048,4.111c8.639,11.174,18.817,20.606,31.773,26.634
		c2.299,1.069,4.068,2.194,5.255,4.673c2.34,4.891,6.011,8.92,9.819,12.735c6.843,6.856,14.409,12.674,23.806,15.676
		c0.546,0.174,0.927,0.441,1.138,1.004c1.762,4.724,4.32,8.965,7.477,12.906c7.004,8.741,15.305,15.628,26.201,18.955
		c0.704,0.215,1.147,0.566,1.403,1.302c0.66,1.896,1.397,3.748,2.23,5.552c-0.154,0.104-0.297,0.223-0.456,0.319
		c-0.026,0.497-0.042,0.988-0.052,1.485c-0.932,0.559-1.76,1.258-2.557,1.982c-0.01,0.3-0.026,0.906-0.036,1.206
		c-0.331,0.368-0.647,0.735-0.958,1.108c2.944,5.062-0.872,19.106-3.447,23.688c-3.85,17.088-28.366,39.98-43.842,53.541
		c-0.217,0.476-0.424,0.958-0.621,1.439c-11.04,9.105-19.841,21.111-21.365,22.958c-1.666,0.921-3.105,2.2-4.829,3.038
		c-1.19,2.039,0.062,4.477-0.031,6.676c-11.578,16.534-10.053,39.577-0.528,54.033c3.894,5.776,13.254,8.37,14.222,9.031
		c11.422,7.978,12.344,6.646,16.655,7.649c1.651-1.775,4.254-1.532,6.464-1.615c2.21-1.216,4.803-1.154,7.241-1.423
		c1.506-1.066,2.784-2.443,4.368-3.426c0.093,0.958,0.171,1.92,0.259,2.883c1.729-0.181,3.467-0.311,5.206-0.43
		c1.894-2.536,5.17-3.514,6.925-6.221c3.834-11.172,3.232-14.404,7.417-14.849c39.585-17.171,64.825-14.53,81.012-25.717
		c3.654-0.58,7.437,0.036,11.107-0.735c0.047,3.867-6.632,15.014-8.845,19.144c0.145,0.228,0.44,0.688,0.59,0.916
		c-0.97,0.709-12.804,26.05-12.96,29.723c-3.481,2.94-7.327,14.723-7.82,15.692c-32.344,61.624-107.997,92.929-121.242,123.529
		c-0.399,0.927-1.201,1.573-1.889,2.282c-0.43,0.969-9.083,16.198-11.283,23.093c-6.951,0.62-23.368,2.428-28.315,1.139
		c-0.088,0.109-0.264,0.326-0.352,0.435c-1.253-2.357,0.872-0.091-7.282-5.01c-36.402-26.532-35.016-26.647-45.565-25.743
		c-0.906-0.569-1.734-0.316-2.308,0.549c-1.159,0.176-2.614-0.14-3.338,1.03c-0.74-0.114-1.485-0.238-2.215-0.342
		c-1.714,0.735-16.04,0.618-17.416,0.212c-0.114,0.145-0.347,0.424-0.461,0.564c-0.228-0.212-0.678-0.647-0.906-0.859
		c-1.832,0.528-3.742,0.378-5.621,0.435c-1.589,0.036-2.841,1.185-4.358,1.532c-0.16,0.176-0.486,0.528-0.647,0.704
		c-1.014,0.176-2.029,0.367-3.033,0.575c0,0-20.105,23.433-20.107,23.435c-0.176,0.026-0.518,0.078-0.694,0.104
		c-0.963,0.968-2.065,1.765-3.271,2.401c-1.496-0.833-3.224-0.704-4.86-0.947c-1.46-0.818-3.105-1.139-4.762-1.118
		c-4.218-1.646-8.85-1.817-13.125-3.292c-0.248,0.021-0.756,0.062-1.004,0.083c-2.385-1.257-13.083-2.43-15.128-2.169
		c-1.351-0.321-2.862-1.278-4.13-0.233c-0.186-0.259-0.564-0.771-0.756-1.03c-2.691-0.305-5.605,0.512-8.131-0.657
		c-3.083-0.161-17.7,0.331-21.996-0.419c-0.114,0.114-0.352,0.336-0.466,0.445c-1.951-0.192-4.027-0.487-5.812,0.518
		c-1.289-0.471-2.753-1.082-3.876,0.072c-0.191-0.088-0.574-0.264-0.761-0.352c-0.926,0.181-1.858,0.336-2.784,0.502
		c-0.248-0.254-0.75-0.761-0.999-1.02c-0.414,0.243-0.823,0.497-1.232,0.75c-1.485-0.243-2.847,0.414-4.078,1.165
		c-0.202-0.119-0.6-0.352-0.802-0.471c-0.926,0.585-1.858,1.159-2.733,1.817c-0.626,0.046-1.252,0.093-1.868,0.15
		c-0.129,0.104-0.383,0.316-0.512,0.419c-3.532,0.289-2.673,0.525-5.165,0.228c-0.409,0.119-0.818,0.243-1.221,0.373
		c-1.043-0.202-30.509-0.221-30.691-0.181c-1.087-0.869-2.189-0.135-3.318,0.124c-0.97-0.046-10.855-0.318-13.451-1.905
		c-2.779-0.155-5.61,0.269-8.333-0.466c-1.185-0.212-2.433-0.781-3.602-0.186c-5.984-1.568-17.641-1.258-18.611-1.046
		c-2.728-0.549-5.688,0.611-8.214-0.797c-0.15,0.171-0.45,0.512-0.6,0.683c-11.997-1.97-15.949-1.3-19.714-0.321
		c-0.264-0.145-0.787-0.43-1.051-0.574c-0.129,0.212-0.388,0.637-0.518,0.849c-0.969,0.102-7.749,1.41-8.446,2.174
		c-0.022,0.001-8.424,0.634-8.446,0.631c-0.512,0.342-1.025,0.699-1.532,1.056c-1.211-0.186-2.438-0.171-3.654-0.072
		c-0.538,0.196-1.082,0.367-1.641,0.507c-3.669-0.81-14.798-1.092-17.493-0.052c-0.97-0.06-22.079-1.017-25.308-0.388
		c-8.54,4.825-16.184,6.283-16.184,6.283c-0.36-0.093-13.112,2.233-13.694,2.293c-0.864,0.471-1.894,1.677-2.779,0.481
		c-1.827,0.797-3.799,0.564-5.678,0.098c-1.195,1.116-2.019,7.566-0.207,9.875c0.021,0.606,0.041,1.227,0.057,1.848
		c2.935,1.729,5.465,4.057,8.472,5.667c1.123,0.295,2.179,0.792,3.178,1.382c0.202,0.807,0.43,1.599,1.278,0.869
		c1.506,0.735,3.587,0.869,4.435,2.515c0.259,0.021,0.787,0.057,1.051,0.078c1.098,1.134,5.889,5.553,7.613,6.143
		c1.025,2.495,3.312,4.146,4.958,6.216c0.326,0.016,0.978,0.047,1.304,0.057c1.206,1.651,3.074,2.671,4.213,4.384
		c1.123,0.202,1.941,0.947,1.915,2.148c0.605,1.02,1.299,1.982,1.977,2.96c0.269,1.247,1.02,2.308,2.293,2.691
		c0.233,0.761,0.543,1.366,1.325,0.756c7.315,3.678,12.369,1.836,21.432,2.847c7.968-1.2,7.048-2.483,8.39-4.135
		c-0.021-0.171-0.057-0.513-0.078-0.683c0.875-1.599,1.465-3.493,0.854-5.284c0.311-0.89,0.388-1.827,0.186-2.743
		c3.022-10.328,1.214-6.733,2.345-11.562c0.699-0.75,1.335-1.558,2.091-2.251c0,0,2.652,1.335,6.93,1.734
		c1.498,0.603,1.297,1.334,12.369,0.512c1.558-0.595,2.805,1.677,4.254,0.502c1.884-0.725,3.235,1.169,4.503,2.231
		c13.535,6.429,57.37-5.701,69.14-2.313c6.552,1.131,27.358-0.248,30.587,0.859c1.268-0.274,2.614-0.657,3.887-0.176
		c3.116,1.33,6.573,0.3,9.818,1.066c0,0,12.939,2.396,12.939,2.396c16.989,5.313,10.651,4.885,18.937,7.38
		c1.118-0.176,2.541-0.864,3.457,0.176c-0.259,0.58-0.533,1.159-0.818,1.739c-1.304-0.042-2.246,0.776-3.167,1.563
		c-1.144,0.326-2.381,0.502-3.074,1.605c-3.313,0.583-12.101,6.728-12.716,13.306c-0.015,1.082-1.014,1.713-1.687,2.417
		c-0.744,2.113-0.929,4.242-1.263,13.917c0.062,0.155,0.186,0.466,0.243,0.621c-0.502,2.727,0.471,5.724-0.869,8.26
		c0.827,15.526-9.11,32.13-11.096,42.714c-2.173,5.174-0.1,7.733,1.941,17.975c0.714,9.255-1.276,23.774-0.921,33.046
		c12.617,3.425,56.651-26.454,59.13-43.128c1.501-5.647,0.88-11.619-0.254-17.281c2.922-4.043-4.472-11.539-8.736-12.892
		c-0.859-0.652-1.765-1.232-2.671-1.796c-1.232-0.326-2.464-0.652-3.711-0.885c0.528-1.34,1.185-2.624,1.925-3.851
		c1.33-0.74,2.251-1.956,3.271-3.038c0.347-1.418,0.787-2.8,1.299-4.156c3.003-1.884,1.348-1.248,4.477-2.365
		c0.171-0.243,0.512-0.724,0.683-0.968c9.14-1.184,5.732-9.214,7.458-12.126c38.417-26.058-5.496-25.939,93.015,6.666
		c1.577-1.362,48.555,14.497,49.525,14.926c2.722,2.37,5.496,4.705,7.908,7.406c1.392,0.839,3.167,1.077,4.265,2.396
		c2.267,1.123,4.668,1.894,7.054,2.728c2.888,0.937,8.242,8.192,10.869,9.59c0.052,0.3,0.155,0.906,0.212,1.206
		c2.189,1.78,4.089,3.923,6.428,5.522c0.471,0.969,12.285,19.339,26.928,33.046c6.848,8.453,10.607,22.784,22.943,23.647
		c0,0,7.263,16.081,48.112,61.962c2.731,4.922,56.53,57.644,59.115,62.644c0.228,0.119,0.694,0.352,0.921,0.471
		c0.106,0.169,8.375,8.296,9.347,8.829c2.137,2.634,4.767,4.808,6.951,7.411c0,0,74.266,73.904,81.934,77.064
		c1.579,1.589,3.701,2.464,5.362,3.975c0.321,0.01,0.968,0.031,1.294,0.041c14.65,10.71,58.706,39.779,58.706,39.779
		c2.876,1.036,70.841,39.583,96.844,47.594c1.986,5.424,8.196,7.242,9.254,8.369c1.277,4.196,4.052,2.752,7.856,6.392
		c0.018,0.969-7.516,33.287-5.206,44.37c0.207,0.813-0.036,1.61-0.295,2.396c7.131,24.754-5.052-3.99,12.116,29.697
		c1.682,2.686,2.241,6.086,4.705,8.255c0.766,0.605,0.994,1.553,1.253,2.479c0.437,0.56,4.004,16.93,12.421,25.8
		c2.038,3.096,13.813,37.916,19.957,40.783c-0.333,3.564,7.239,12.747,6.842,18.725c3.063,4.222,1.227,4.367,6.583,12.923
		c0.507,1.278-0.191,2.489-0.937,3.499c1.082,0.992,10.342,17.505,10.455,17.876c6.871,9.688,8.08,8.808,6.93,10.418
		c0.694,0.331,0.916,1.02,1.046,1.76c-7.453,0.961-13.807-25.123-21.437-29.454c-0.347,0.373-0.689,0.756-1.015,1.149
		c0.497,2.153,2.526,3.478,3.126,5.574c0.181,0.248,0.549,0.75,0.735,0.999c0,0,4.595,7.995,6.087,12.908
		c1.578,1.982,2.95,4.172,4.829,5.905c0.549,1.071,1.351,1.987,2.086,2.955c0.145,0.952-0.28,1.382-1.263,1.284
		c-0.001-0.001-16.474-19.677-16.474-19.677c-1.77-1.093-11.205-20.58-9.332-31.478c-0.367-0.021-1.102-0.067-1.47-0.088
		c-3.627,17.624,13.617,46.069,24.216,51.6c-0.192,0.616-0.072,1.418-0.543,1.946c-6.556-1.401-9.401-6.826-11.609-8.307
		c-0.806-2.144-11.287-16.329-17.177-19.625c0,0.921-0.352,1.791-0.75,2.624c1.995,1.361,12.982,13.317,12.934,15.376
		c-1.144,0.388-1.874-0.709-2.696-1.258c-6.078-8.842-12.227-13.481-13.115-14.45c-0.393,0.357-0.766,0.74-1.138,1.133
		c1.211,1.382,1.858,3.105,2.552,4.793c0.667,0.844,1.579,1.47,2.381,2.215c1.327,0.521,10.339,11.522,14.859,13.581
		c0.776,2.029,3.167,2.024,4.735,3.116c0,0-0.053,1.551,0.295,3.669c-1.025-0.947-1.858-2.044-2.784-3.053
		c0.616,2.073,0.897,1.696,1.77,5.129c-3.489-4.13-1.409-4.755-5.792-6.03c0.145,0.207,0.43,0.621,0.575,0.828
		c0.212-0.078,0.637-0.238,0.849-0.316c0.921,1.035,1.615,2.267,1.848,3.664c0.217,0.015,0.652,0.052,0.87,0.067
		c-0.01,0.88-0.015,1.76,0.005,2.671c-0.58-0.461-1.159-0.926-1.729-1.341c0.347,1.216,0.895,2.37,1.346,3.571
		c-6.925,2.191,2.068,0.292,5.766,12.934c0.656,0.97,5.087,8.992,5.072,10.356c-1.429-0.746-6.396-7.39-7.075-8.359
		c-3.214-1.226-4.694-4.585-7.365-6.506c-0.057-0.347-0.171-1.035-0.228-1.382c-0.963-1.33-1.579-2.852-2.189-4.353
		c-1.175-2.51-3.954-3.716-5.274-6.164c-0.388-1.801-1.511-3.354-1.672-5.196c-0.574,0.202-1.149,0.404-1.682,0.678
		c1.022,3.725,0.12-0.164,1.211,4.363c0.921,1.278,1.61,2.702,2.334,4.109c0.047,0.269,0.129,0.812,0.176,1.082
		c0.652,0.828,1.263,1.703,1.925,2.551c0.036,0.254,0.114,0.756,0.15,1.009c0.492,0.616,0.947,1.268,1.102,2.101
		c-3.45-2.616-2.514-5.382-4.674-6.759c-0.3-2.272-1.651-4.177-2.645-6.164c-0.031-0.285-0.088-0.849-0.114-1.133
		c-0.497-0.911-1.128-1.723-2.262-1.692c1.873,11.727,5.175,12.151,6.097,15.34c0.989,1.004,2.065,1.956,3.369,2.557
		c-0.01,0.269-0.036,0.813-0.047,1.082c1.304,0.999,2.898,1.61,4.042,2.847c-1.822-0.336-3.245-1.553-4.674-2.614
		c-0.264-0.067-0.792-0.207-1.056-0.274c-0.901-0.637-1.868-1.165-2.852-1.62c0-0.311,0-0.932,0-1.242
		c-2.122-0.466-4.446-0.781-5.942-2.531c0.584,3.794,7.183,11.416,8.742,12.716c-0.228,0.243-0.445,0.497-0.652,0.766
		c-1.961-2.365-3.861-4.777-5.667-7.261c-1.251,4.424-2.516,0.005-7.018-0.647c0.747,0.971,10.87,6.218,12.913,9.502
		c-0.298,1.429,1.143,2.454,1.892,3.558c-2.998-2.619-9.433-7.897-15.39-10.509c0.445,1.366,2.07,1.775,2.598,3.121
		c2.715,1.124,10.244,6.845,11.371,9.43c-5.41-2.465-1.541-1.532-8.726-6.076c0,0-7.821-5.163-19.372-10.382
		c-0.331,0.3-0.647,0.621-0.937,0.963c0.969,0.342,11.41,4.615,12.985,6.987c0.987,0.341,12.368,8.571,12.701,8.84
		c0.378,0.036,1.139,0.104,1.516,0.14c1.392,1.258,4.047,1.361,4.337,3.525c0,0-35.465-11.903-48.743-11.567
		c0.021,0.15,0.057,0.45,0.078,0.6c0.155,0.078,0.466,0.223,0.626,0.3l0.274,0.3c6.309,0.117,28.164,6.838,29.133,7.681
		c4.792,2.162,11.106,3.186,8.069,4.958c-33.86-9.896-37.141-14.715-43.231-12.546c7.167,4.986,29.044,7.309,27.674,11.252
		c-15.059-0.256-12.909,0.212-19.677,4.803c1.579-0.839,3.25-2.075,5.119-1.304c1.553-0.554,3.204-0.6,4.834-0.755
		c0.155,0.279,0.461,0.838,0.611,1.123c0.212-0.233,0.626-0.694,0.833-0.921c2.872,0.484,17.737-0.639,23.228,1.434
		c9.507-1.245,15.228,7.968,22.84,10.848c2.671,1.263,5.864,1.553,7.97,3.84c2.075,1.315,4.172,2.821,6.578,3.473
		c0.005,0.166,0.01,0.497,0.01,0.662c4.687,1.951,2.669,1.766,8.602,4.27c1.258,0.031,2.52,0.047,3.794,0.073
		c0.026,0.253,0.067,0.75,0.088,1.004c-1.082-0.621-2.329-0.642-3.462-0.202c-0.554-0.155-1.102-0.3-1.63-0.424
		c-0.217-0.197-0.647-0.59-0.859-0.792c-1.471-0.708-0.772-0.469-2.127-0.745c-1.791-1.315-3.866-2.153-5.662-3.447
		c-0.264-0.041-0.792-0.124-1.061-0.166c-8.783-5.727-14.652-4.169-25.758-14.486c-1.092-0.269-2.179-0.507-3.261-0.714
		c1.599,1.853,4.441,2.815,4.953,5.445c3.525,2.472,15.286,7.834,17.825,9.714c1.496,0.419,2.966,0.968,4.404,1.599
		c0.155,0.243,0.476,0.73,0.631,0.973c1.594,0.683,3.307,1.367,4.296,2.904c-0.802-0.176-1.46-0.606-2.081-1.071
		c-30.245-9.003-30.006-17.848-33.967-20.744c-0.947-0.14-1.899-0.093-2.826-0.078c0.979,0.592,28.716,35.097,53.655,36.27
		c0.181-0.259,0.543-0.776,0.724-1.035c1.909,0.302,19.36,6.324,20.019,6.505c-0.228,0.637-0.45,1.289-0.662,1.956
		c-1.558,0.766-3.028,1.693-4.539,2.536c-0.062,0.497-0.114,1.009-0.155,1.542c-0.652,0.44-1.273,0.927-1.879,1.434
		c-2.717,0.973-4.927,2.898-7.23,4.575c0.74,0.269,1.511,0.575,2.282,0.859c0.001-0.001,13.859-10.589,13.86-10.589
		c0.305-0.031,0.916-0.093,1.221-0.124c0.14-0.279,0.419-0.843,0.559-1.123c1.077,0.016,2.163-0.047,3.26,0.062
		c0.792,0.621,0.688,1.594,0.507,2.5c-0.631,0.114-1.252,0.243-1.858,0.393c-1.082,1.749-3.452,2.277-4.151,4.265
		c-0.714,0.476-1.428,0.952-2.148,1.423c-2.514,3.712-2.164,2.141-4.337,5.983c-8.776,0.559-23.432-3.058-31.99-10.103l-0.16,0.963
		c-0.362-0.388-0.709-0.761-1.04-1.123c-0.274-0.047-0.823-0.14-1.102-0.191c-5.222-8.248-33.275-26.798-35.939-28.569
		c-3.595-6.457-3.082-2.927-5.46-11.485c-0.367-0.6-0.735-1.206-1.066-1.786c-0.254,0.15-0.761,0.45-1.009,0.6
		c0.497,2.324,2.676,8.307,2.95,9.068c0.626,0.75,1.283,1.506,1.573,2.489c-5.662-3.376-5.854-10.427-8.348-8.302
		c0.227,5.896,11.02,13.058,16.137,16.034c0.311,0.046,0.942,0.145,1.253,0.191c1.221,1.247,2.655,2.443,2.888,4.306
		c-0.248,0.15-0.735,0.45-0.983,0.6c6.811,12.766,8.037,7.951,12.783,14.771c1.454,0.807,2.593,2.257,4.311,2.531
		c1.506,0.999,3.157,1.972,4,3.664c0.212-0.207,0.647-0.621,0.859-0.828c0.398,0.15,1.19,0.45,1.589,0.601
		c3.476-0.343,11.358,0.869,9.875,4.063l0.435-0.072l0.047-0.704c1.981,0.525,1.951,0.864,3.84,1.356
		c4.189,2.252,16.677,3.576,20.49,4.767c4.544-0.574,9.114,0.083,13.586,0.968c-0.321,0.745-0.704,1.475-1.139,2.179
		c-0.373-0.026-1.108-0.067-1.48-0.088c-0.958,2.189-2.298,4.156-3.695,6.081c-0.688,1.956-0.983,4.063-1.93,5.947
		c0.181-0.062,0.549-0.192,0.73-0.254c1.511-4.792,4.715-8.721,8.007-12.411c1.822-1.139,3.84-2.003,6.04-1.578
		c-0.329,10.321-42.268,91.665-51.129,104.561c-14.322,18.522-12.904,34.491-13.13,44.887c-0.171,0.228-0.512,0.678-0.683,0.901
		c0.062,1.946,0.15,3.897,0.243,5.859c0,0.001-4.27,18.083-4.27,18.083c-0.145,0.191-0.435,0.569-0.575,0.761
		c-0.545,2.644-7.163,31.569-7.163,33.532c4.218,9.365,1.644,27.732,3.923,32.859c5.588-0.5,6.401-3.089,9.228-3.333
		c1.946-1.542,4.078-2.836,6.366-3.799c0.321,0.057,0.957,0.171,1.278,0.228c2.308-0.839,4.322-2.412,6.764-2.888
		c4.383-3.006,6.543-6.75,8.736-5.336c-0.021,0.575-0.197,1.154-0.316,1.755c1.496,1.02,1.993,2.826,3.059,4.218
		c3.204,0.719,6.827,0.021,9.875,1.625c2.515,0.249,5.046-0.404,7.551-0.678c9.737-5.111,20.155,0.298,22.389-5.031
		c0.833-2.029,2.624-3.349,4.12-4.865c-0.119-1.351-0.3-2.686-0.145-4.026c-1.02-2.981-1.283-6.796-4.461-8.359
		c-0.042-0.326-0.114-0.989-0.155-1.32c-0.202-0.259-0.616-0.781-0.818-1.04c6.062-12.985,14.74-13.983,17.959-15.19
		c0.311,0.016,0.937,0.047,1.247,0.062c2.812-2.142,3.878-5.587,9.399-6.371c3.48-2.749,9.549,1.601,12.996-5.569
		c0.809-11.068-0.144-12.509,1.641-15.609c0.204-0.971,10.935-43.879,13.224-48.205c0.585-3.059,2.262-5.859,1.92-9.062
		c1.524-2.549,11.725-32.85,12.67-38.879c1.542-0.833,2.039-2.375,1.842-4.047c4.514-8.25,16.734-58.929,26.069-73.223
		c6.608-9.731,10.75-18.644,11.573-39.996c-0.264-0.14-0.797-0.419-1.061-0.554c0.072-0.652,0.16-1.283,0.269-1.894
		c0.264-0.083,0.797-0.259,1.061-0.342c0.424-1.511,1.035-2.965,1.941-4.249c4.825-0.681,17.29-9.422,18.259-10.015
		c1.197-0.247,5.969-3.673,6.288-4.29c0.238-0.026,0.709-0.073,0.942-0.098c2.64-2.588,5.222-5.279,8.291-7.37
		c-0.285,0.699-0.683,1.356-1.118,1.993c-2.133,7.099-3.98,5.789-5.678,9.72c-0.233,0.15-0.699,0.45-0.932,0.6
		c-13.628,22.419-15.511,26.861-15.511,26.861c-2.354,1.159-10.088,18.151-11.277,20.485c-0.195,0.97-24.854,49.289,4.223,74.274
		c0.525-1.827-0.277-2.543-5.833-10.853c-12.981-20.448-0.977-52.952,1.812-56.843c1.092,1.58-2.63,12.164-3.499,17.033
		c0.259,0.347,0.538,0.709,0.833,1.087c0.282-0.926,3.474-9.566,3.437-10.713c6.063-12.015,1.643-8.189,7.209-21.597
		c1.553-1.21,8.474-14.117,9.678-15.672c0.16,0.078,0.481,0.223,0.637,0.295c6.758-16.325,6.03-12.49,20.216-33.17
		c10.995-20.083,14.791-18.268,19.646-23.771c0.533-0.124,1.077-0.228,1.641-0.316c5.644-3.757,1.861-5.771,8.695-6.366
		c0.833,3.245-2.79,4.772-4.125,7.22c-1.925,1.713-3.592,3.649-5.134,5.703c-5.057,2.525-6.022,10.749-11.215,13.57
		c0.838,0.062,1.682,0.176,2.562,0.197c0.994-1.418,1.905-2.903,3.121-4.151c0.559,0.326,1.128,0.663,1.718,1.02
		c-0.326-0.528-0.631-1.045-0.927-1.547c1.936-2.562,3.509-5.714,6.361-7.355c0,0,9.619-10.737,9.621-10.739
		c1.962,2.693-3.099,7.511-4.927,11.873c1.987-1.661,2.79-4.26,4.508-6.154c0.29,0.036,0.864,0.109,1.149,0.145
		c0,0.512,0.016,1.046,0.047,1.594c-1.082,1.03-1.76,2.375-2.738,3.493c0,0.001-23.631,39.613-23.631,39.614
		c-1.956,1.125-20.897,24.905-20.93,39.194c-1.382,2.583-1.817,5.512-1.791,8.421c-0.58,1.801-0.429,3.804-1.237,5.532
		c-10.749,11.414-8.403,13.276-7.349,18.575c0.424,0.833,0.813,1.677,1.226,2.557c0.714-3.897-0.735-8.012,0.813-11.759
		c2.024-1.765,3.193-4.296,4.306-6.682c0.217,0.109,0.652,0.326,0.87,0.435c0.213,0.969-2.871,23.643,10.185,32.922
		c-0.398-2.241-1.879-4.006-3.085-5.843c-15.992-23.423,6.913-54.469,8.203-61.133c1.211-2.215,1.128-5.062,2.986-6.889l0.212,0.792
		l0.399,0.078c-0.43-2.287,1.822-4.021,2.655-6.014c0.016,0.497,0.052,1.485,0.067,1.982c1.014-0.968,2.153-1.889,2.712-3.209
		c0.864,0.87,1.439-0.538,2.034-0.999c1.087-1.651,2.728-2.748,4.141-4.094c1.046,0.285,2.127,0.373,3.23,0.486
		c-0.404,0.554-0.807,1.108-1.196,1.682c-0.041,0.264-0.119,0.787-0.16,1.051c-2.422,2.779-4.213,6.045-6.376,9.021l-0.75-0.683
		c1.356,1.641-0.466,2.448-1.858,2.355c0,0.001-8.244,11.028-8.245,11.029c-1.659,1.201-6.329,9.416-5.294,13.006
		c1.889-2.287,2.142-5.398,3.705-7.867c4.947-7.766,3.949-1.645,10.165-10.072c0.59-0.021,0.983,0.29,1.185,0.932
		c1.113-1.599,1.931-3.411,3.333-4.787c0.031-0.274,0.093-0.823,0.124-1.097c2.132-1.801,3.24-4.399,4.658-6.733
		c0.023,0.512-1.296,4.087-1.734,5.869c-0.238,0.223-0.709,0.673-0.947,0.901l0.052-0.766l-0.518-0.057
		c0.699,0.865,0.347,1.724-0.435,2.386c-0.057,0.254-0.171,0.766-0.228,1.02c-0.615,1.145-3.497,10.036-3.307,11.236
		c-2.655,4.417-6.048,12.953-6.692,18.311c0.507-0.233,1.019-0.461,1.563-0.647c0.282-3.563,4.109-16.352,6.5-16.184
		c0-0.394,0-1.185-0.005-1.579c0.279,0,0.833,0,1.113,0c-0.574,1.051-0.642,2.132,0.171,3.105c-0.709,1.423-1.299,2.96-1.108,4.591
		c-2.584,4.756-1.66,8.567-2.293,12.255c1.625-0.585,1.76-2.484,1.848-3.939c0.145-3.343,2.422-6.138,2.469-9.497
		c0.868-2.977,1.706-7.932,1.993-10.123l0.466-0.026c0.207,12.393-1.026,8.403,3.566,14.124c0.218-1.071,0.414-2.143,0.549-3.204
		c0.119-0.212,0.357-0.631,0.476-0.839c-0.492-0.28-0.958-0.549-1.413-0.802c-0.057-1.568-0.492-3.064-0.952-4.539
		c0.178-0.969,0.818-6.466,1.273-7.649c0.036-0.544,0.078-1.071,0.135-1.573c0.419-0.549,0.88-1.051,1.403-1.491
		c0.067-1.371,0.693-2.583,1.578-3.592c0.262-0.969,0.193-0.882,0.766-2.717c0.212-0.202,0.647-0.605,0.859-0.807
		c0.036-0.274,0.098-0.828,0.129-1.102c0.15-0.357,0.45-1.066,0.6-1.423c0.16,0.171,0.481,0.507,0.647,0.678
		c1.346-1.294,2.474-2.779,3.312-4.451c-0.005,0.388-0.005,1.165-0.01,1.553c-6.271,7.87-2.657,3.157-5.574,8.265
		c-0.047,0.269-0.145,0.802-0.197,1.071c-3.194,5.801-2.408,5.516-2.448,11.303c0.476,0.652,0.921,1.325,1.382,2.045
		c0.75-2.524,2.365-12.252,5.766-14.549c-1.218,8.263-6.108,10.575-6.055,37.538c0.597,1.578,3.085,11.611-1.32,15.542
		c-0.031,0.274-0.098,0.828-0.135,1.108c-1.894,3.193-3.944,6.293-5.714,9.559c2.189-0.678,3.514-2.614,4.425-4.591
		c0.021-0.29,0.062-0.875,0.088-1.164c0.248-0.207,0.751-0.616,1.004-0.823c0-0.31,0-0.926,0.005-1.232
		c0.254-0.212,0.771-0.626,1.03-0.839c0-0.347,0.005-1.045,0.005-1.397c0.367,0.005,1.102,0.015,1.47,0.021
		c0.719-1.439,1.439-2.919,2.748-3.913c-1.419,5.268-2.847,4.644-3.281,12.375c-0.311,0.896-0.564,1.811-0.875,2.722
		c-0.162,3.735,0.099,2.701-1.045,8.566c0.388,0.756,0.414,1.62,0.476,2.479c-0.057,2.417,1.796,4.28,2.272,6.588
		c0.187,0.212,0.554,0.637,0.74,0.849c0.223,0.969,1.1,5.364,2.914,10.009c0.424,0.186,0.859,0.393,1.304,0.621
		c-3.702-12.777-3.468-14.793-6.169-18.109c-0.016-1.02-0.01-2.018,0.01-3.007c0.849-1.439,1.796-2.955,1.754-4.684
		c0.055-14.117,5.398-13.895,1.987-21.66c0.528-1.035,1.035-2.091,1.734-3.017c0.549-1.781,1.051-3.659,2.577-4.865
		c0.798-3.501,9.958-24.794,16.675-29.532c0.578-1.313,6.854-7.046,7.111-7.24c0.236-1.017,2.967-6.784,4.12-7.598
		c0.082-0.268,14.308-24.482,14.372-24.755c2.832-3.796,4.496-4.954,5.036-9.497c0.248-0.01,0.745-0.042,0.994-0.057
		c-0.016-0.699-0.016-1.377,0.005-2.039c0.388,0,1.164,0.005,1.552,0.005c-0.005,0.248-0.005,0.745-0.005,0.994
		c-0.254,0.016-0.761,0.057-1.02,0.073c0,0-1.703,18.791-1.703,18.792c-6.108,19.866-1.148,28.355-3.4,37.119
		c4.689,31.747,26.955,28.504,31.224,25.443c11.314-3.005,24.379-11.309,25.35-12.017c0.129,0.093,0.388,0.274,0.518,0.362
		c2.743-1.837,5.848-2.96,8.809-4.384c1.78-0.016,3.488-0.585,5.02-1.491c2.707-3.002,7.344-4.27,8.923-8.24
		c1.318-0.785,20.302-15.674,21.768-17.664c3.395-0.932,5.973-3.571,8.276-6.092c2.189-1.32,3.638-3.773,6.33-4.177
		c5.509-3.659,8.531-6.82,10.884-10.625c0.047-0.336,0.14-1.009,0.187-1.346c1.744-1.905,3.602-3.732,5.781-5.145
		c0.543-0.481,1.547-0.787,1.413-1.687c-0.233-0.502-0.456-0.973-0.678-1.418c-2.552,1.077-4.963,2.412-7.318,3.856
		c-0.28,0.031-0.828,0.099-1.102,0.129c-13.792,8.666-6.005,5.653-14.921,9.435c0.378-0.512,0.776-1.004,1.2-1.47
		c0.01-0.704,0.047-1.382,0.104-2.044c7.361-10.097,3.331-4.63,10.429-11.531c1.04-0.29,2.251-0.543,2.748-1.651
		c0.248-0.031,0.755-0.083,1.004-0.109c0.264-0.16,0.792-0.481,1.056-0.642c1.532-3.084,5.821-3.286,8.151-11.029
		c1.348-0.117,5.217-4.404,6.04-5.372c-0.016-1.092-0.016-2.179,0.005-3.245c-0.59,0.233-1.165,0.481-1.719,0.745
		C1450.75,1321.957,1454.597,1317.339,1457.069,1313.965z M1406.602,1169.47c-3.19-1.03-4.597-3.626-6.102-5.564
		C1403.342,1164.625,1405.619,1166.696,1406.602,1169.47z M1397.794,1171.975c0.932,0.295-0.399,1.842-1.077,1.413
		C1396.469,1172.735,1397.245,1172.156,1397.794,1171.975z M1358.765,1255.606c2.821-0.337,4.203,2.908,6.971,2.836
		c0.326,0.135,0.978,0.404,1.304,0.533l0.016,0.31c-1.522,0.921-2.981-0.119-4.404-0.657c-0.828-0.844-1.729-1.599-2.593-2.365
		c-0.331-0.016-0.983-0.047-1.315-0.062L1358.765,1255.606z M1354.749,1035.32c0.724-0.455,1.506,0.771,1.222,1.423
		C1355.235,1037.132,1354.231,1035.977,1354.749,1035.32z M1361.353,1260.476l-0.016,0.476c-2.94,0.285-5.077-2.049-7.541-3.229
		C1356.695,1257.526,1358.449,1260.668,1361.353,1260.476z M961.207,526.261c0.057-1.9,0.911-3.99,2.867-4.606
		C963.484,523.388,962.454,524.93,961.207,526.261z M974.622,526.83c0.052,0.735,0.093,1.48,0.155,2.236l-0.497,0.005
		c-0.404-2.387-0.362-1.18-0.725-3.876c-0.461-0.631-0.88-1.294-1.092-2.034c0.549,0.424,1.102,0.88,1.646,1.351
		C974.218,525.288,974.348,526.074,974.622,526.83z M982.028,510.455c-0.833,0.155-1.454-1.191-0.507-1.465
		C982.313,508.762,982.975,510.247,982.028,510.455z M993.777,520.174c-0.688,0.238-1.863-0.631-1.367-1.372
		C993.14,518.311,994.025,519.491,993.777,520.174z M991.924,493.489c-0.124,1.304,0.844,2.728,0.041,3.928
		c-0.398-0.347-0.787-0.694-1.159-1.03c-0.073-0.807-0.129-1.61-0.166-2.407c-0.533-0.709-1.056-1.423-1.563-2.127
		C990.397,490.544,991.375,492.423,991.924,493.489z M990.361,506.542c1.128,1.268,1.465,3.111,2.826,4.187
		c0.078,0.947,0.725,1.568,1.516,2.029c0.906,1.547,2.329,2.8,2.914,4.529l0.404-0.166c0,0.398,0,1.196,0,1.594
		c-0.657-0.005-1.299,0-1.93,0.01c-1.423-1.506-2.464-3.297-3.685-4.943c-0.353-2.259-0.82-4.715-2.557-6.718
		c-0.589-2.625-0.418-0.626-1.201-4.172C989.336,503.509,989.995,504.552,990.361,506.542z M984.145,502.671
		c-0.275,3.681,3.609,10.424,3.701,13.203c0.631,1.123,0.957,2.36,0.921,3.659c-0.492,0.223-0.968,0.455-1.434,0.699
		c-2.855-5.095-2.219-4.466-1.868-7.297c-0.595-2.696-1.439-5.341-2.769-7.774c0.052-0.192,0.166-0.574,0.217-0.766
		c-0.047-1.584-0.797-3.002-1.346-4.441c-0.724-0.921-0.787-2.055-0.657-3.162c0.642,0.781,1.294,1.568,1.92,2.381
		C982.644,500.502,983.55,501.568,984.145,502.671z M983.167,460.826c-0.269,0.223-0.533,0.445-0.787,0.668
		c-1.403-1.377-2.665-2.888-3.664-4.58C980.729,457.478,981.185,460.055,983.167,460.826z M976.283,444.166l0.523,0.041
		c0.119,2.375-0.104,4.762-0.807,7.044c-0.129-0.678-0.191-1.356-0.223-2.029C976.666,447.691,976.17,445.838,976.283,444.166z
		 M974.695,494.374c-0.586,5.12,2.422,4.701,5.89,8.508c-0.135,0.885-0.259,1.775-0.378,2.671c-1.066-1.159-2.184-2.277-3.126-3.535
		l0.078-0.838l-1.765,0.631c0.492-0.481,1.035-0.901,1.584-1.325c-0.383,0.104-1.144,0.316-1.527,0.424l0.14-1.051
		c-0.3,0.336-0.59,0.673-0.869,1.014c-0.745-3.201-1.582-4.085-0.538-6.05l-0.45,0.088l-0.14,0.828
		c-0.145-0.331-0.435-0.994-0.585-1.325C973.432,494.405,974.27,494.384,974.695,494.374z M972.686,438.939
		c0.254,0.026,0.756,0.072,1.009,0.093c0,0.001-0.549,11.861-0.549,11.862c-0.238,0.026-0.714,0.073-0.952,0.093
		C973.131,447.096,973.794,442.841,972.686,438.939z M972.252,510.253c-0.284,0.202-0.844,0.616-1.128,0.823
		c0.026-1.366-0.026-2.738-0.471-4.037C971.957,507.535,972.127,509.036,972.252,510.253z M970.073,464.356
		c-0.015-0.807-0.01-1.604,0-2.396c-0.254-0.212-0.756-0.631-1.004-0.844c-0.052-0.533-0.093-1.061-0.119-1.584
		c-0.212-0.585-0.409-1.17-0.58-1.749c-0.191-0.202-0.574-0.616-0.766-0.818c-0.145-0.854-0.326-1.692-0.6-2.5
		c0.238,0.021,0.714,0.067,0.952,0.093c0.031,0.316,0.098,0.947,0.129,1.268c2.403,4.253,2.269,6.465,2.981,8.612
		C970.818,464.418,970.321,464.377,970.073,464.356z M967.112,430.073c1.221,0.963,1.718,2.51,1.646,4.027
		c0.381,0.97,2.56,13.547,1.817,17.4c-2.852-0.709-2.702-4.43-4.001-6.563C968.926,440.374,965.544,431.858,967.112,430.073z
		 M966.346,489.623c1.175,1.149,0.875,3.085,2.22,4.078c0,1.108-0.435,2.117-0.988,3.054c-0.067-0.678-0.114-1.356-0.145-2.024
		c-0.228-0.114-0.694-0.342-0.926-0.455c-0.285-1.33-0.533-2.671-1.035-3.934C965.689,490.161,966.129,489.804,966.346,489.623z
		 M965.544,513.534l-0.476,0.01c-0.649-2.117-0.624-1.679-0.73-3.628h0.486C965.332,512.636,964.921,510.182,965.544,513.534z
		 M964.638,488.277c-1.159,0.104-2.065-0.362-2.588-1.377c-0.543-0.471-1.082-0.952-1.568-1.449
		C962.051,485.995,964.142,486.414,964.638,488.277z M958.661,489.214c0.259,0,0.781,0,1.04,0c0.01,0.316,0.031,0.952,0.036,1.273
		c0.616,0.393,1.227,0.818,1.837,1.258c0.295,0.015,0.885,0.046,1.175,0.062c0.859,1.962,0.569,4.13,0.595,6.211l-0.336-0.01
		c-0.29-1.33-0.709-2.743-2.039-3.359c-0.507-1.045-1.299-1.863-2.184-2.572C958.604,491.129,958.676,490.161,958.661,489.214z
		 M962.449,506.278c-0.254,0.01-0.761,0.021-1.014,0.026c-0.228-0.792-0.455-1.584-0.657-2.37
		C961.813,504.316,962.491,505.134,962.449,506.278z M957.683,523.642c0.673-0.854,1.309-1.744,1.992-2.598
		c0.026-0.512,0.062-1.02,0.114-1.516c0.414-0.595,0.828-1.196,1.237-1.801l0.274-0.067c-0.016,0.264-0.047,0.797-0.062,1.061
		c0.595-0.243,1.206-0.471,1.832-0.678c-0.518,1.294-1.837,1.951-2.8,2.862c-0.036,0.29-0.098,0.869-0.129,1.159
		c-0.4,0.922-1.341,3.254-1.641,4.415c-0.217,0-0.647,0.005-0.859,0.005C957.641,525.531,957.651,524.584,957.683,523.642z
		 M954.805,353.703c0.016,0.352,0.052,1.056,0.067,1.408c-0.709-0.067-1.403-0.129-2.086-0.192
		c-0.046-0.316-0.135-0.958-0.181-1.278C953.325,353.662,954.06,353.682,954.805,353.703z M952.988,529.397
		c-0.005-0.802-0.005-1.604,0.01-2.391l0.528-0.026c-0.026,0.947-0.036,1.899-0.047,2.852c-1.397,1.516-2.215,3.613-4.032,4.689
		c-0.01-0.249-0.036-0.75-0.047-0.999C950.825,532.363,951.912,530.867,952.988,529.397z M938.274,598.464
		c0.972,3.936,2.545,4.73,3.514,5.636c0.793,1.528-3.034,4.076-4.881-5.569C937.25,598.516,937.933,598.48,938.274,598.464z
		 M933.611,608.251c0.875-0.181,1.03,1.341,0.657,1.904C933.554,610.125,933.389,608.795,933.611,608.251z M660.576,158.669
		c1.76-0.782,4.001-1.16,5.326-1.309c-0.197,0.279-0.6,0.838-0.797,1.118c-1.542-0.036-3.1,0.01-4.539,0.595L660.576,158.669z
		 M802.034,192.02c-1.19-1.284-2.614-2.303-4.12-3.178c-0.466-0.73-0.947-1.449-1.403-2.179c-1.232-0.869-2.427-1.785-3.659-2.645
		c-0.968-0.067-1.641-0.668-2.127-1.449c-0.745-0.58-1.444-1.211-2.07-1.904c1.088,0.282,3.576,0.945,4.705,1.221
		c1.708,1.874,4.498,2.381,5.942,4.539c1.47,2.049,3.095,3.954,4.958,5.657C803.514,191.922,802.727,191.451,802.034,192.02z
		 M874.693,250.374c-1.573-0.699-1.951-2.738-0.937-4.063c1.698,0.424,3.426,0.745,5.191,0.802c0.093,0.367,0.274,1.113,0.362,1.48
		C877.99,249.541,876.096,249.442,874.693,250.374z M888.129,260.057c-0.362-0.781-0.378-1.822-1.077-2.386
		c-1.061-0.388-2.205-0.502-3.209-1.004c-1.78-1.967,2.951-1.798,4.43,0.171c0.673,0.761,1.377,1.501,2.308,1.967
		C889.909,259.478,888.988,259.736,888.129,260.057z M931.774,603.433c0.264,0.212,0.787,0.637,1.051,0.849
		c-0.031,0.725-0.062,1.454-0.088,2.194c-0.906-0.74-1.646-1.646-2.386-2.521c0.186-0.642,0.352-1.289,0.549-1.92
		c0.217,0,0.647,0,0.859,0C931.763,602.387,931.769,603.081,931.774,603.433z M921.847,271.449c0.192,0.259,0.585,0.781,0.781,1.046
		c-1.159-0.187-2.624-0.362-3.048-1.656C920.326,271.035,921.081,271.242,921.847,271.449z M915.735,268.286
		c-0.005,0.285-0.021,0.854-0.031,1.139c-1.294-0.233-2.541-0.761-3.38-1.801C913.764,267.806,913.722,267.946,915.735,268.286z
		 M905.135,268.638c2.112-0.01,3.587,1.718,5.476,2.401c-0.186,0.202-0.564,0.6-0.756,0.802c-1.03,0-2.06,0-3.069,0
		c0.166-0.202,0.502-0.601,0.673-0.797C906.652,270.269,905.87,269.472,905.135,268.638z M900.115,261.424
		c2.329-0.14,4.808,0.854,6.035,2.919c0.533,0.429,1.056,0.88,1.573,1.361c-6.279-2.579-0.679-1.051-6.837-1.698
		C899.95,263.458,900.255,262.309,900.115,261.424z M918.778,289.335c-0.771-0.217-1.542-0.393-2.303-0.549
		c-3.619-2.798-2.97-3.219-10.843-5.145c-1.221-0.699-2.495-1.309-3.856-1.635l-0.052-0.414c4.301,0.299,2.677,0.686,6.485,1.195
		c0.657,0.497,1.335,0.968,2.029,1.444c0.269,0.031,0.802,0.098,1.071,0.129c0.663,0.269,1.346,0.513,2.044,0.761
		c1.04-0.585,2.163,0.238,3.255-0.15c0.186,0.06,6.205,2.288,7.106,2.671c-1.17,1.056-2.779,0.735-4.208,0.776
		C919.327,288.647,918.959,289.108,918.778,289.335z M923.26,297.875c-0.259-0.078-0.766-0.228-1.025-0.305
		c-0.657-1.837-2.588-3.085-2.655-5.108c0.771-0.383,1.656-0.352,2.505-0.497c2.287-1.253,5.144-0.285,7.215,1.025
		c0.274,2.417,1.351,4.704,1.19,7.184c-2.075,0.042-4.13,0.347-6.118,0.926C923.917,300.054,923.55,298.972,923.26,297.875z
		 M925.993,304.381c-0.228-0.016-0.673-0.042-0.9-0.057c-0.378-1.268,1.082-1.837,1.775-2.634c1.361,0.078,2.738,0.005,4.109-0.057
		c-0.01,0.419-0.031,1.268-0.047,1.692C929.196,303.258,927.478,303.449,925.993,304.381z M1031.367,1394.859
		c-2.163-1.071-3.934-2.764-6.128-3.768c-3.278-6.191-14.062-9.168-14.409-16.101c1.718,0.74,2.489,2.567,3.711,3.882
		c6.662,3.61,9.951,10.475,17.964,14.714c0.813,0.362,1.139,1.216,1.47,2.003
		C1031.858,1394.873,1032.942,1395.167,1031.367,1394.859z M1034.705,1392.054c-3.788-1.808-16.447-12.244-17.68-14.973
		c1.729,1.47,3.747,2.795,5.041,4.72c0.75,0.404,1.573,0.792,2.091,1.542c0.671,0.276,8.686,7.052,10.569,8.255L1034.705,1392.054z
		 M1089.224,1383.907c0.978,0.285,1.382,1.133,1.584,2.081c-0.409,0.026-1.227,0.078-1.641,0.104
		C1089.167,1385.351,1089.182,1384.622,1089.224,1383.907z M1079.897,1368.94c-0.031-0.404-0.093-1.201-0.124-1.604
		c1.791-0.678,3.742-0.569,5.201,0.782c-0.005,0.388-0.01,1.17-0.016,1.558C1083.287,1369.307,1081.595,1369.033,1079.897,1368.94z
		 M1084.56,1372.159c-2.334-0.564-4.663,0.098-7.002-0.093C1077.688,1369.611,1084.743,1368.871,1084.56,1372.159z
		 M1083.438,1355.654c-0.135,0.838-0.274,1.682-0.399,2.546c-0.564-0.124-1.118-0.233-1.656-0.326
		c-1.672,0.626-3.431,0.471-4.88-0.569c0.15-0.373,0.461-1.118,0.61-1.491C1079.219,1355.882,1081.331,1355.908,1083.438,1355.654z
		 M1059.796,1365.943c-0.466-0.507-0.911-0.988-1.356-1.46c-1.428,1.066-2.603-0.999-3.757-1.63
		c3.058-0.172,6.555,0.697,8.669,0.517c-0.192,0.254-0.574,0.766-0.761,1.025c0.409,0,1.227,0.005,1.635,0.005
		c0.021-0.259,0.062-0.781,0.083-1.04c0.248,0,0.74,0,0.989,0c0,0.388,0.005,1.159,0.01,1.542c-0.383,0.005-1.149,0.01-1.532,0.01
		c-0.016,0.259-0.041,0.781-0.057,1.04C1062.404,1365.938,1061.095,1365.938,1059.796,1365.943z M1063.305,1376.32
		c-0.714-0.021-1.418-0.031-2.106-0.026c-0.021-0.254-0.057-0.771-0.073-1.03c-0.864-0.015-1.713-0.021-2.552,0
		c0-0.259,0-0.776,0-1.035c1.102-0.01,2.22-0.005,3.343,0.005C1062.352,1374.928,1062.823,1375.621,1063.305,1376.32z
		 M1033.623,1330.775c3.054-0.593,11.322,7.793,10.905,9.238c-1.108,0.109-1.972-0.719-2.909-1.113
		c1.95,3.204,4.911,1.582,7.644,4.803c-0.14,0.523-0.388,1.014-0.745,1.475c-1.889-1.693-15.08-6.061-11.107-8.146
		c1.547,0.114,2.753,1.253,4.073,1.993C1035.616,1333.651,1034.207,1334.479,1033.623,1330.775z M1049.082,1344.304
		c2.055,0.352,3.959,1.284,5.688,2.443c0.15,1.874-1.848,1.366-2.681,0.456C1050.744,1346.628,1048.808,1346.219,1049.082,1344.304z
		 M1054.749,1360.172c-0.662,0.424-1.045,0.31-1.149-0.352C1054.237,1359.36,1054.62,1359.479,1054.749,1360.172z M1055.94,1352.833
		c2.029,0.678,4.052,1.429,6.211,1.63c-0.01,0.419-0.041,1.263-0.057,1.687C1053.592,1355.787,1054.386,1352.594,1055.94,1352.833z
		 M1065.271,1367.325c2.696,0.797,5.222,2.137,8.001,2.712c1.025-1.118,1.718-2.95,3.286-3.307c0.228,0.31,0.683,0.937,0.911,1.252
		c-0.279,0.186-0.838,0.554-1.118,0.74c-0.083,0.274-0.259,0.823-0.342,1.092c-2.476,1.801-1.406,2.307-7.07,1.449
		c-0.171-0.264-0.507-0.787-0.678-1.046c-0.989-0.285-1.967-0.564-2.94-0.812C1065.354,1368.784,1064.138,1367.19,1065.271,1367.325
		z M1067.311,1366.445c0.109-1.185,1.159-1.837,2.137-2.272c2.251,0.662,4.684,0.963,6.992,0.352c0.072,0.362,0.222,1.087,0.3,1.449
		C1075.606,1366.741,1072.094,1370.926,1067.311,1366.445z M1080.218,1346.457c-1.175,0.564-2.381,1.061-3.55,1.615
		c-0.399,0.45-0.616,1.454-1.418,1.139c-2.355-0.404-4.777-0.362-7.044-1.19c-2.412,0.569-4.808-0.632-7.147-1.108
		c-7.177-3.816-13.006-11.997,0.854-9.673c2.707,0.321,5.357,1.185,8.121,1.045c0.238,0.181,0.704,0.549,0.937,0.735
		c1.009,0.005,2.034,0.031,3.064,0.093C1074.927,1342.256,1078.978,1339.385,1080.218,1346.457z M1068.972,1324.824
		c-0.021-0.28-0.057-0.828-0.073-1.103c-0.414-0.424-0.818-0.838-1.201-1.242c0.249,0,0.75-0.005,1.004-0.01
		c1.237,2.557,3.048,4.741,4.808,6.961c0.195,1.105,0.183,1.013,0.735,2.562c-0.58-0.466-1.128-0.916-1.672-1.361
		c-0.026-0.285-0.083-0.849-0.109-1.128c-0.445-0.642-0.859-1.289-1.227-1.936c-0.098,0.16-0.285,0.481-0.383,0.642
		c-1.046-0.942-2.174-1.765-3.256-2.64c1.025,0.383,2.019,0.802,3.069,1.19C1070.105,1326.076,1069.541,1325.444,1068.972,1324.824z
		 M1063.527,1324.715c0.933,1.606,4.374,5.028,7.753,6.708c0.678,0.963,1.402,1.904,2.07,2.898
		c-0.906-0.243-1.806-0.435-2.712-0.574c-9.007-8.865-8.619-8.424-9.637-10.481
		C1061.871,1323.664,1062.699,1324.187,1063.527,1324.715z M1031.806,1308.236c0.14-0.336,0.414-0.999,0.554-1.33
		c9.622,0.602,15.828,8.724,16.173,9.694c2.324,3.493,16.463,17.844,16.464,17.845c1.206,0.476,2.443,0.859,3.628,1.428
		c-0.005,0.347-0.015,1.04-0.026,1.387c-6.903-0.262-5.736-2.356-10.703-0.906c-5.533-0.825-3.482-0.21-7.075,1.159
		c-1.273,0.119-1.547-1.315-1.755-2.22c-0.269,0.016-0.812,0.047-1.082,0.062c-0.683-3.007-3.711-4.399-5.569-6.573
		c-6.104-7.876-9.134-16.354-10.677-18.518C1031.75,1309.566,1031.775,1308.893,1031.806,1308.236z M1023.774,1309.561l0.6-0.052
		c0.026,0.331,0.083,0.994,0.109,1.32c0.983,1.853,2.096,3.675,2.655,5.724C1025.358,1314.669,1024.1,1312.133,1023.774,1309.561z
		 M1028.644,1314.467c-0.047-0.264-0.135-0.797-0.181-1.066c-0.807-1.558-1.698-3.074-2.344-4.694
		c0.16-0.233,0.486-0.693,0.647-0.926c1.324,3.333,1.178,3.16,1.33,4.202c0.461,0.647,0.937,1.309,1.439,1.967
		c0.021,0.518,0.062,1.056,0.114,1.61c0.642,0.983,1.299,1.967,1.951,2.971c0.036,0.274,0.114,0.823,0.15,1.097
		c0.155,0.321,0.461,0.963,0.611,1.284c0.15,0.01,0.44,0.026,0.585,0.036c1.17,1.423,2.251,2.919,3.344,4.415
		c-0.155,0.176-0.466,0.533-0.621,0.714c0.233,0.016,0.699,0.042,0.932,0.057c0.958,1.635,2.106,3.157,2.981,4.86
		c-1.258-0.347-1.749-1.63-2.422-2.588c-1.682-0.978-2.784-2.583-3.887-4.12c-0.026-0.259-0.088-0.787-0.114-1.045
		C1030.794,1318.931,1028.644,1314.468,1028.644,1314.467z M1013.232,1323.017c1.656,2.174,4.487,2.934,6.578,4.622
		c3.374,1.931,4.818,5.89,8.007,8.012c0.973,1.242,1.775,2.676,3.074,3.638c0.404,0.512,0.818,1.03,1.253,1.573
		c0.015,0.347,0.052,1.035,0.067,1.382c-0.647-0.445-1.335-0.854-1.941-1.294c0.352-0.885,0.279-1.698-0.709-2.039
		c-0.228,0.186-0.673,0.554-0.895,0.74c-0.223-0.429-0.668-1.283-0.89-1.713c0.388,0.15,1.165,0.445,1.547,0.595
		c-0.543-0.631-1.237-1.827-2.189-1.18c-2.541-3.561-5.362-7.215-9.611-8.788c0.683,0.766,1.284,1.604,1.454,2.671
		c0.103-0.093,0.316-0.279,0.419-0.367c0.673,0.254,1.242,0.766,1.899,1.144c0.01,0.259,0.031,0.781,0.047,1.04
		c0.926,0.554,1.76,1.258,2.577,1.998c-0.005,0.388-0.015,1.175-0.015,1.568c-2.22-2.583-6.231-3.726-7.008-7.37
		c-0.103,0.098-0.316,0.285-0.419,0.383c-1.066-1.04-1.661-2.479-2.065-3.876c-0.807-0.839-1.584-1.703-2.174-2.686
		C1012.486,1323.059,1012.983,1323.033,1013.232,1323.017z M1029.038,1341.742c-0.026,0.652-0.052,1.32-0.062,1.998
		c-7.414-0.876-7.657-6.443-10.418-7.913c0.228-0.202,0.476-0.378,0.74-0.538c0.859,0.595,1.811,1.082,2.753,1.584
		c0.554,2.479,3.504,2.96,5.067,4.684C1027.744,1341.603,1028.385,1341.665,1029.038,1341.742z M1013.501,1329.921
		c-0.305-0.15-0.926-0.455-1.237-0.611c0.336-0.357,0.864-1.299,1.314-0.248c1.806,1.382,2.971,3.359,4.296,5.176
		c0.109,0.31,0.098,0.642-0.036,0.988c-0.574-0.528-1.139-1.045-1.687-1.553c-0.01-0.264-0.036-0.797-0.047-1.061
		c-0.937-0.611-1.692-1.418-2.495-2.148C1013.583,1330.33,1013.532,1330.061,1013.501,1329.921z M1014.698,1334.382
		c-0.041-0.037-0.074-0.067-0.118-0.107C1014.619,1334.309,1014.659,1334.347,1014.698,1334.382z M1005.556,1339.884
		c1.677-0.042,13.382,3.134,13.493,3.245C1019.534,1346.421,1004.97,1341.833,1005.556,1339.884z M1030.45,1355.509
		c-2.003,0.466-3.483-1.605-5.279-2.184c-1.92-1.506-3.985-2.991-6.506-3.141c0.129-0.58,0.274-1.139,0.435-1.687
		c3.031,0.036,10.625,5.32,11.593,6.081C1030.631,1354.811,1030.513,1355.276,1030.45,1355.509z M1031.247,1348.398
		c2.733,0.347,5.274,1.62,7.955,2.282c1.635,0.921,4.523,1.242,4.503,3.628c-2.733-0.01-4.793-2.21-7.406-2.686
		C1034.124,1351.218,1030.416,1350.467,1031.247,1348.398z M1036.604,1355.483c4.708,2.901,5.386,2.619,7.251,4.208
		c1.791,0.057,3.597,0.047,5.403,0.047l0.005,0.512c-2.381,0.041-4.803,0.161-7.09-0.579
		C1036.957,1356.085,1036.751,1356.595,1036.604,1355.483z M1046.96,1362.217c1.19,0.036,2.272,0.559,3.302,1.149l0.078-0.554
		c0.756,0.399,1.516,0.802,2.287,1.227c0.6,1.361,2.241,1.604,3.105,2.753c0.673,0.388,1.372,0.776,2.075,1.185
		c-0.388,0.01-1.159,0.026-1.547,0.036C1053.39,1364.861,1052.042,1366.42,1046.96,1362.217z M1039.922,1376.434
		c-2.246-1.47-4.994-2.081-6.858-4.099c-2.79-1.817-4.829-4.549-7.913-5.9c1.646,0.051,14.519,3.91,16.546,5.046
		c0.735-0.269,1.465,0.093,2.199,0.233c3.219,2.096,6.35,4.373,9.202,6.966c0.947,0.481,1.884,1.03,2.681,1.786
		C1051.488,1379.144,1047.674,1381.257,1039.922,1376.434z M1062.668,1380.114c-0.781-0.383-1.542-0.756-2.293-1.128
		c-0.259-0.041-0.787-0.135-1.051-0.181c-0.854-0.481-1.713-0.937-2.552-1.403c-0.29-0.021-0.875-0.072-1.164-0.098
		c-0.202-0.249-0.6-0.74-0.802-0.989c-0.305-0.005-0.911-0.026-1.216-0.036c-1.62-1.387-3.618-2.246-5.139-3.726
		c4.41,1.49,8.333,4.099,12.432,6.268c0.6,0.016,1.216,0.052,1.848,0.098C1062.715,1379.218,1062.684,1379.813,1062.668,1380.114z
		 M1067.88,1377.547c-0.057,0.621-0.098,1.258-0.129,1.915c-1.682-0.331-3.359-0.75-4.865-1.563
		c0.668-1.294,2.029-1.951,3.463-1.687c-0.005-0.212-0.021-0.642-0.026-0.859c1.667,0.45,4.342-0.585,5.025,1.553
		C1071.001,1378.271,1068.972,1377.526,1067.88,1377.547z M1072.082,1381.345c-1.004,0.243-2.158-0.233-2.174-1.377
		c0.621-0.637,1.325-1.17,2.018-1.718c0.135-0.662,0.29-1.304,0.455-1.925c0.528,0.388,1.071,0.797,1.62,1.227
		c0.693,0.026,1.392,0.052,2.111,0.114c0,0.399,0,1.185,0,1.579C1074.505,1379.379,1072.61,1379.493,1072.082,1381.345z
		 M1077.9,1383.654c-1.578-0.668-4.104,0.031-4.534-2.132c0.569-0.466,1.144-0.921,1.729-1.366c0.367,0.021,1.092,0.067,1.459,0.088
		c0.45-0.647,0.906-1.299,1.377-1.92c0.59,0.192,1.185,0.398,1.801,0.631c0.212-0.279,0.631-0.838,0.839-1.118
		c1.413,0.155,1.666,1.258,1.558,2.536C1080.725,1381.475,1079.67,1383.1,1077.9,1383.654z M1079.706,1384.456
		c0.228-0.844,0.481-1.677,0.74-2.489c0.383,0.093,1.144,0.274,1.527,0.367c0.6-1.004,1.232-1.982,1.806-2.991
		c0.709,0.109,1.413,0.352,2.065,0.73c0.88,0.161,1.78,0.3,2.676,0.554c0.709,1.263-1.004,1.796-1.863,2.21
		c-0.331,0.518-0.652,1.051-0.942,1.615C1083.717,1384.73,1081.698,1384.627,1079.706,1384.456z M1074.065,1405.189
		c-0.15-1.522,0.595-2.764,1.615-3.799c0.605-0.331,7.477-8.468,13.953-11.412c0.486,0.259,0.983,0.533,1.501,0.818
		c0.28,3.245-0.932,6.309-1.734,9.394c-2.314,1.796-4.358,3.856-6.268,6.061C1081.897,1404.727,1081.443,1405.494,1074.065,1405.189
		z M1085.735,1405.743c0.688-1.294,1.765-2.293,2.852-3.24c-0.005,0.921-0.005,1.868,0.005,2.821l-1.154-0.683l0.678,1.175
		C1087.309,1405.784,1086.517,1405.758,1085.735,1405.743z M1086.677,1559.326c-1.63,2.65-6.139,13.32-6.257,14.171
		c-2.526,1.832-4.109,4.534-5.998,6.956c-2.099,0.8-6.073,8.524-8.959,8.405c0.01,0.326,0.036,0.978,0.047,1.299
		c-1.998-0.326-3.602-1.604-5.403-2.381c-1.17-0.104-2.324,0.088-3.473,0.067c-0.59-1.077-0.326-2.324-0.357-3.462
		c1.34-2.153,0.114-4.922,1.708-6.987c-0.171-0.419-0.326-0.813-0.466-1.19c0.062-0.085,7.986-12.902,7.986-12.902
		c1.19-0.347,2.391-0.688,3.602-0.999c0.171-0.233,0.518-0.704,0.693-0.942c0.932-0.238,1.874-0.481,2.831-0.683
		c1.185-1.03,2.546-1.853,3.644-2.986c3.201-6.974,0.294-9.567,0.026-12.768c-1.55-19.065,47.991-102.948,48.961-102.807
		C1127.821,1449.131,1086.857,1558.358,1086.677,1559.326z M1230.112,1394.201c-1.444,2.986-2.375,6.174-3.514,9.29
		c-0.492,0.269-0.973,0.559-1.439,0.864c-0.062-2.137,0.487-4.213,1.47-6.092c0.585-4.377,5.239-16.48,7.882-19.124
		C1235.517,1385.08,1231.239,1385.323,1230.112,1394.201z M1309.686,1310.549c0.704,0,1.423,0.026,2.163,0.062
		c-1.16,2.464-2.448,4.917-4.239,6.987l0.342-1.599c-0.512,0.595-1.635,1.201-1.139,2.138c-0.569,0.362-1.123,0.75-1.646,1.159
		c-0.249,0.031-0.75,0.083-0.999,0.109c-0.378,0.875-1.035,1.563-1.998,1.734c0.668-1.304,1.542-2.474,2.474-3.592
		C1307.046,1315.859,1308.18,1312.972,1309.686,1310.549z M1299.288,1292.683c0.274-0.492,0.559-0.978,0.859-1.444
		c0.397-2.518,1.246-5.411,3.39-6.806c-0.29,1.144-0.844,2.21-1.599,3.121c-0.27,0.978-0.466,1.473-0.787,3.09
		c-0.652,1.025-1.982,2.205-0.88,3.426c-0.264-0.021-0.792-0.057-1.056-0.078
		C1299.236,1293.667,1299.267,1293.015,1299.288,1292.683z M1300.406,1309.928c0.171,0.181,0.512,0.538,0.678,0.719
		c0.424-1.056,0.942-2.07,1.666-2.945c0.242-0.969,1.866-6.717,3.023-7.22c0.404-0.724,0.818-1.434,1.289-2.106
		c-0.331,2.495-0.39,1.904-1.201,5.217c-0.471,0.828-0.947,1.661-1.278,2.567c0.067,1.009,0.305,2.003,0.357,3.038
		c-0.622,1.197-0.878,1.93-1.201,3.198c-2.231,2.769-2.671,7.09-6.164,8.705c0.745-1.144,1.444-2.319,2.101-3.509
		c0.052-0.264,0.145-0.792,0.191-1.061c0.725-1.118,1.025-2.401,0.978-3.711c-0.233-0.197-0.699-0.585-0.932-0.781
		c-0.347,1.723-1.232,3.255-1.931,4.854c-0.274-0.492-0.538-0.968-0.787-1.423c0.155-0.181,0.471-0.554,0.631-0.74
		c-0.342-0.005-1.025-0.016-1.372-0.021C1298.475,1313.774,1299.143,1311.579,1300.406,1309.928z M1296.56,1297.347
		c-0.124,2.391-1.451,4.795-2.64,5.75C1294.511,1301.057,1295.577,1299.21,1296.56,1297.347z M1293.45,1307.19
		c0.031-0.274,0.093-0.828,0.124-1.102c0.585-0.937,1.283-1.801,2.122-2.52c-0.545,3.063-0.651,2.986-1.263,4.28
		c-0.549,0.228-1.082,0.476-1.594,0.735C1292.989,1308.236,1293.3,1307.537,1293.45,1307.19z M1292.922,1322.205
		c0.052-0.253,0.15-0.761,0.202-1.014c0.694-1.232,1.315-2.515,1.641-3.887l0.378-0.01c-0.093,2.913-0.086,1.975-0.621,4.503
		c-0.88,0.849-1.755,1.703-2.712,2.464C1291.975,1323.462,1292.43,1322.815,1292.922,1322.205z M1282.333,1124.629
		c-0.543,4.777-1.139,9.559-1.082,14.383c1.304-0.026,2.629-0.01,3.954,0c-0.052,0.807-0.103,1.62-0.145,2.458
		c-0.957,1.061-1.837,2.189-2.785,3.261c0.042,0.347,0.13,1.046,0.171,1.392c1.392-0.662,1.221-3.157,3.131-2.583
		c-1.332,9.489,1.034,17.365,1.485,31.291c1.478-7.573,2.284-12.806,1.004-20.888c5.039-1.492-0.312,40.965-1.853,41.047
		c-1.62-1.334-5.878-16.463-7.453-19.802c-1.697-11.003-0.573-11.167-1.915-14.274
		C1278.108,1156.124,1278.392,1125.52,1282.333,1124.629z M1284.745,1310.922c0.223,0.197,0.668,0.595,0.885,0.792
		c0.192,0.663,0.404,1.33,0.652,2.013c-0.388-0.021-1.154-0.052-1.537-0.073C1284.729,1312.728,1284.724,1311.812,1284.745,1310.922
		z M1282.809,1296.094c-0.14-0.036-0.424-0.104-0.569-0.14c0.906-1.175,1.604-2.831,3.188-3.188
		C1284.584,1293.889,1283.787,1295.075,1282.809,1296.094z M1144.829,1263.431c-0.704,0.31-1.667-0.657-1.346-1.335
		C1144.115,1261.863,1145.011,1262.774,1144.829,1263.431z M1158.255,1271.164c-2.682,0.656-1.991,0.586-5.31,0.611
		c-0.259,1.403-1.397,2.039-2.691,2.308c-0.016,0.248-0.036,0.75-0.052,0.999c1.796,0.512,3.447,1.413,5.16,2.158
		c-0.93,3.822-0.764,1.371-4.197-0.036c-0.89-0.098-1.77-0.016-2.629,0.026c-0.885-2.805-3.763-5.015-3.141-8.182
		c1.299-0.6,1.894,0.895,2.893,1.408c1.459,0.647,3.064,0.833,4.663,0.756c0.885-0.368,1.817-0.637,2.738-0.952
		c1.34-0.062,2.686-0.083,4.047-0.052C1159.233,1270.512,1158.736,1270.832,1158.255,1271.164z M1165.195,1273.663
		c-1.18,0.523-2.36,1.035-3.597,1.377c-0.01-0.285-0.031-0.859-0.036-1.144c2.314-0.431,1.748-0.46,3.633-0.719V1273.663z
		 M1199.55,1341.059c-0.29-0.657,0.865-1.108,1.33-0.73C1201.191,1341.018,1200.001,1341.458,1199.55,1341.059z M1200.42,1257.78
		c-0.016,0.306-0.052,0.916-0.067,1.222c-0.419-0.414-0.823-0.813-1.216-1.201c-0.724-0.036-1.428-0.052-2.117-0.052
		c-1.346-1.475-3.162-2.49-5.144-2.697c-0.828-1.082-2.143-1.568-3.178-2.37c-0.31-0.031-0.926-0.088-1.237-0.119
		c-0.021-0.238-0.057-0.719-0.078-0.957c7.563,2.35,12.781,2.156,14.326,5.103c0.217,0.016,0.662,0.036,0.885,0.052
		c-0.202,0.254-0.605,0.766-0.802,1.02C1201.45,1257.78,1200.761,1257.78,1200.42,1257.78z M1187.248,1245.317
		c0.103-0.109,0.305-0.331,0.409-0.44c1.299,0.719,2.635,1.392,3.959,2.111c-0.016,0.404-0.047,1.216-0.057,1.62
		c-1.47-0.789-4.299-1.653-6.718-1.698c-0.75-0.89-0.155-1.869,0.181-2.769C1185.758,1244.52,1186.492,1244.903,1187.248,1245.317z
		 M1187.227,1241.823l0.523-0.057c0.471,0.3,0.952,0.605,1.444,0.926c1.609,0.378,2.399,0.983,3.99,0.104
		c-0.041,0.709-0.067,1.428-0.072,2.163C1190.752,1244.913,1188.749,1243.506,1187.227,1241.823z M1199.711,1245.767
		c-0.942,1.811-3.038,0.792-4.146-0.243c0.896-0.59,1.941-0.838,3.002-0.978c0,0,3.582,0.161,8.824,1.418
		c0.844,0.466,1.708,0.916,2.572,1.397c-1.263,0.088-2.598-0.104-3.737,0.538
		C1203.784,1248.308,1201.973,1246.249,1199.711,1245.767z M1209.948,1337.022c0.254-0.026,0.761-0.073,1.014-0.093
		c0.409-0.668,0.88-1.289,1.439-1.832c-0.069,2.488-7.157,5.821-8.125,6.185C1205.564,1339.113,1208.416,1338.948,1209.948,1337.022
		z M1208.664,1346.783c-2.474,1.185-4.373,3.287-6.956,4.26c1.201-1.992,3.612-2.515,5.124-4.172
		c0.28-0.036,0.833-0.109,1.113-0.145c0.693-0.45,1.201-1.775,2.179-1.382C1210.202,1346.131,1209.135,1346.338,1208.664,1346.783z
		 M1210.724,1344.325l0.409-0.259C1212.453,1344.258,1210.812,1345.432,1210.724,1344.325z M1207.847,1344.139
		c-0.517,0.021-1.02,0.057-1.506,0.114c-0.999,0.963-2.112,2.065-3.602,2.039c1.372-1.014,2.779-1.993,4.109-3.069
		c0.507-0.057,1.03-0.093,1.568-0.109c1.035-0.652,1.972-1.961,3.266-1.91C1211.092,1342.684,1208.985,1343.021,1207.847,1344.139z
		 M1213.152,1340.573c-0.854,0.336-1.17-0.709-0.264-0.932C1213.762,1339.01,1214.006,1340.381,1213.152,1340.573z
		 M1207.122,1250.627l-0.031-0.481c0,0,8.51-1.594,8.591-1.615C1214.791,1250.545,1211.956,1250.023,1207.122,1250.627z
		 M1218.995,1248.22c-0.657-0.357-1.315-0.693-1.956-0.994c-0.109-0.363-0.326-1.082-0.43-1.444c0.507-0.652,1.03-1.289,1.537-1.936
		c1.309-0.476,2.707-0.6,3.933,0.207c0.932-1.439,2.127-2.66,3.338-3.856c0.611-0.026,1.237-0.031,1.879-0.026
		c0-0.243,0-0.735,0-0.978c-0.59-0.062-1.165-0.114-1.724-0.155c-0.802-0.595-1.692-0.171-2.526-0.021
		c-0.621-0.274-1.133-0.735-1.677-1.061c0.005,0.378,0.01,1.123,0.01,1.496c-0.518,0.735-1.02,1.485-1.496,2.251
		c-0.367-0.078-1.092-0.243-1.459-0.321c-1.573,1.641-3.411,3.11-5.652,3.69c-0.854-0.14-1.651-0.429-2.453-0.662
		c-1.363-2.917-8.967-3.309-10.672-1.149c-0.606-0.844-1.004-1.749-0.166-2.567c-0.73-2.112,1.454-3.214,2.795-4.342
		c0.969-0.076,14.302-2.396,17.576,0.518c0.673-0.041,1.361-0.067,2.065-0.093c2.312,1.043,2.769,0.961,7.975,1.931
		c-0.005,0.321-0.026,0.963-0.036,1.283c-1.635,1.724-3.447,3.266-5.362,4.674c-1.051,0.073-1.786,0.745-2.138,1.713
		c-0.549-0.005-1.077,0.005-1.589,0.036C1220.175,1247.009,1219.574,1247.605,1218.995,1248.22z M1223.467,1338.502
		c-0.502-0.29-0.978-0.543-1.444-0.787c0.792-0.399,1.599-0.781,2.396-1.196c0.29-0.046,0.875-0.14,1.17-0.191
		C1224.688,1336.846,1223.787,1337.457,1223.467,1338.502z M1226.318,1336.122c-0.274-0.238-0.528-0.466-0.766-0.673
		c2.35-1.113,4.027-3.126,5.859-4.891c0.01-0.274,0.036-0.823,0.047-1.097c1.382-0.637,2.52-2.096,4.037-2.22
		C1233.939,1329.67,1227.289,1335.16,1226.318,1336.122z M1236.048,1326.288c0.155-0.15,0.476-0.45,0.631-0.595
		C1237.958,1325.833,1236.467,1327.354,1236.048,1326.288z M1245.846,1228.191c-1.734-1.103-3.426,0.61-5.243,0.45
		c-0.171-1.284,0.688-1.806,1.755-2.081c1.351,0.145,2.722,0.166,4.104,0.166
		C1246.239,1227.198,1246.032,1227.689,1245.846,1228.191z M1250.866,1229.175c0.794-1.125,4.728-0.372,5.698,0.616
		C1253.236,1229.923,1254.039,1229.854,1250.866,1229.175z M1248.252,1226.162c0.404-1.144,1.221-1.806,2.469-1.475
		c1.004,0.611,2.21,0.46,3.354,0.528c0.197,0.248,0.595,0.745,0.792,0.994C1252.656,1226.204,1250.452,1226.235,1248.252,1226.162z
		 M1261.465,1218.14c-3.631-1.258-6.622-3.822-9.021-3.364c1.454,0.932,2.401,2.836,4.353,2.836
		c1.004,1.168,9.72,4.814,12.421,4.503c0,0.238,0,0.719,0,0.957c-2.883-0.533-6.247,1.806-8.69-0.455
		c-0.989,2.086-3.437,1.014-5.222,0.952c-0.197-0.186-0.59-0.559-0.787-0.745c-4.121-0.375-6.459-0.745-6.459-0.745
		c-1.232,0.455-2.267,1.263-3.344,1.982c-0.926,0.207-1.837,0.507-2.779,0.393c0.01,0.243,0.031,0.735,0.042,0.983
		c-1.977-0.202-3.954-0.316-5.926-0.264c-0.217-0.217-0.647-0.663-0.864-0.885c-0.97,0.406-17.205,0.737-17.933,0.616
		c-3.173,1.196-6.547,0.73-9.849,0.802c1.429,1.786,3.628,2.583,5.455,3.877c-0.776,0.486-1.444,1.107-2.091,1.739
		c1.304,0.036,2.702-0.119,3.939,0.492c3.253,0.408,2.907-0.539,8.648,0.73c2.22,0.321,4.042,1.868,6.293,2.039
		c0.445-0.538,0.921-1.051,1.408-1.558c4.977-0.859,7.472-2.709,11.05-3.209c-0.833,0.575-1.77,0.973-2.753,1.159
		c-0.595,0.362-1.154,0.776-1.496,1.403c-0.254,0.021-0.761,0.062-1.02,0.083c-1.682,0.957-3.188,2.163-4.627,3.447
		c-12.231-2.985-29.13-6.938-36.327,3.39c-0.771,0.58-1.532,1.175-2.272,1.791c-0.243-0.217-0.73-0.652-0.973-0.87
		c-6.807,0.295-5.338-2.533-11.604,0.6c-0.409-0.668-0.792-1.294-1.196-1.915c-0.233-0.73-0.445-1.423-0.668-2.117
		c-0.844-0.404-1.677-0.802-2.495-1.185c-0.031,2.039,0.719,3.954,1.051,5.952c-1.04,0.28-2.055,0.606-3.069,0.932
		c0.311,0.652,0.657,1.299,1.428,1.558c-0.176,0.197-0.523,0.595-0.699,0.797c1.863-0.005,3.737-0.041,5.615,0.062
		c-5.222,2.138-10.495-0.855-11.464-1.263c-0.849-0.973-1.853-1.78-2.857-2.546c-0.109,0.28-0.186,0.575-0.238,0.89
		c0.73,1.413,1.915,2.546,2.634,3.99c-0.528-0.145-1.04-0.279-1.532-0.398c-1.418,0.445-3.551-0.129-4.078,1.677
		c6.072,2.236,7.527,1.087,9.88,1.635c0.295,0.466,0.574,0.958,0.849,1.48c0.461,0.388,0.932,0.797,1.413,1.216
		c-0.554,0.409-1.097,0.828-1.63,1.258c0.036,0.616,0.093,1.242,0.16,1.889c0.559-0.031,1.134-0.052,1.723-0.052
		c0.637-0.709,1.289-1.402,1.946-2.091c0.518,0.01,1.056,0.036,1.605,0.088c0.924,0.718,13.986,5.166,14.937,5.279
		c-0.342,0.968-0.766,1.91-1.118,2.883c1.19,0.994,2.955,0.321,4.373,0.875c0.368-0.114,1.102-0.337,1.47-0.445
		c-0.372,3.11-8.243,2.285-9.911,3.152c-1.496,0.103-2.986,0.093-4.467,0.088c0.176-0.197,0.528-0.59,0.704-0.787
		c-1.247-0.585-2.2-1.579-3.152-2.515c0.078-0.16,0.233-0.487,0.305-0.647c-1.335-1.516-2.075-3.452-3.53-4.86
		c-0.621-0.005-1.221,0-1.811,0.021c-0.202,0.191-0.616,0.58-0.823,0.771c-3.556,0.728-3.434,0.877-3.835,3.623
		c0.89-0.264,1.817-0.528,2.671-0.952c5.838,0.995,4.132,2.522,6.982,5.419c-3.979,3.647-18.547-1.577-21.81-1.123
		c-0.798,0.7-5.385,0.625-8.457-2.013c-1.449-0.031-2.893,0.062-4.321-0.083c-0.849-0.533-1.542-1.268-2.365-1.801
		c-1.159-0.197-2.334-0.083-3.478-0.026c-1.34-1.646-1.63-3.84-2.598-5.683c-4.026-41.375,11.406-36.458,20.728-54.12
		c4.554-4.851,16.465-23.742,24.118-27.653c1.028-1.123,10.56-8.931,13.715-13.762c1.791-1.625,1.817-4.922,4.622-5.315
		c7.199-10.083,21.387-35.49,24.547-47.102c-0.068-1.63,2.895-8.718,3.788-10.258c0.227-0.97,8.386-20.864,8.824-30.163
		c0.155-0.31,0.326-0.6,0.518-0.88c-0.337-2.846,0.714-5.708-0.026-8.519c0.833-1.956,1.568-4.047,1.268-6.2
		c0.761-1.718,1.133-3.566,0.839-5.429c0.424-1.304,1.144-2.676,0.647-4.047c0.5-0.969,7.423-24.807,6.009-34.417
		c0.388-2.013,0.202-4.058,0.238-6.081c3.814,1.837,4.384,6.708,7.717,9.114c0.047,0.274,0.145,0.823,0.197,1.097
		c0,0,4.041,5.789,6.407,8.747c0.249,1.522,1.485,2.469,2.784,3.136c0.621,1.599,1.34,3.204,2.748,4.291
		c0.476,2.427,0.559,5.186,2.308,7.132c0.391,1.708,0.798,3.397,2.526,6.702c0.187,1.33,1.206,2.298,1.599,3.571
		c5.134,16.505-1.242,36.776-1.47,41.327c-0.207-0.166-0.621-0.502-0.828-0.668c0.222,1.715-1.386,14.675-0.704,15.428
		c-0.059,2.422-2.175,13.495-1.796,15.677c-0.383,3.059-0.15,6.174-0.839,9.212c1.646,0.197,1.408,1.987,1.372,3.209
		c-1.344,12.973-2.482,8.772,0.605,23.306c-0.227-3.712-0.754-16.345,3.002-16.2c0.146,1.672-2.303,8.086-1.408,13.725
		c0.24,0.986,3.944,32.597,8.389,42.269c0.492,2.205,1.915,3.939,3.199,5.729c0.036,0.295,0.109,0.88,0.145,1.175
		c0.15-0.28,0.44-0.844,0.59-1.128c0.762,1.362,1.057,10.586-2.619,17.447C1274.45,1222.843,1265.723,1217.935,1261.465,1218.14z
		 M1238.491,1226.313c-0.171,0.657-0.559,0.761-1.169,0.316C1237.461,1225.94,1237.849,1225.831,1238.491,1226.313z
		 M1233.874,1228.362c-2.122,1.516-4.539,3.23-7.292,2.433c-1.089-0.863-8.725-1.459-10.144-1.351
		c-0.3-0.228-0.911-0.683-1.216-0.916c1.885-1.989,15-1.785,17.731-1.724C1233.248,1227.306,1233.559,1227.829,1233.874,1228.362z
		 M1182.445,1242.74c-0.248-0.652,0.533-1.232,1.076-1.413C1184.464,1241.617,1183.134,1243.174,1182.445,1242.74z
		 M1280.786,1297.057l-0.016-0.44C1281.795,1295.986,1281.79,1297.869,1280.786,1297.057z M1279.73,1299.438
		c-0.166,1.491-1.449,2.407-2.634,3.121l-0.124-0.766c0.192-0.01,0.58-0.041,0.771-0.057
		C1278.208,1300.814,1278.886,1300.033,1279.73,1299.438z M1254.944,1357.833c-2.443,1.47-4.177,3.83-6.676,5.222
		c-0.564,0.911-1.615,1.206-2.567,1.511c3.178-3.773,7.085-6.894,11.158-9.647
		C1257.061,1356.332,1256.616,1357.818,1254.944,1357.833z M1258.588,1372.92c-2.591,3.887-2.419,4.568-3.928,6.79
		c0.069-0.97,1.189-5.808,2.841-6.837c-0.181-0.098-0.554-0.295-0.74-0.393c0.958-1.496,1.858-3.069,3.24-4.218
		C1259.84,1369.892,1259.017,1371.346,1258.588,1372.92z M1261.802,1362.072c-0.895,0.957-1.154,2.779-2.329,3.26
		c0.176-1.325,0.973-2.489,1.103-3.83c0.652-0.802,1.289-1.615,1.899-2.448c0.005-0.352,0.021-1.056,0.031-1.408l0.647,0.057
		C1262.883,1358.63,1261.967,1361.539,1261.802,1362.072z M1261.501,1354.184
		C1263.194,1354.257,1260.699,1355.742,1261.501,1354.184L1261.501,1354.184z M1255.886,1350.856
		c-0.145,1.03-0.523,2.003-1.201,2.815c-2.588-6.257,9.011-17.319,26.24-43.873c0.316-0.487,0.864-0.699,1.444-0.637
		c1.475,24.414-2.701,28.567-15.454,36.783C1254.91,1354.376,1257.068,1351.672,1255.886,1350.856z M1272.913,1359.365
		c0.476-0.471,0.968-0.932,1.48-1.366c-0.021-0.859-0.021-1.697-0.005-2.515c0.254,0.192,0.771,0.58,1.03,0.771l-0.135-0.367
		c-0.859-1.097,0.062-2.231,0.626-3.178c0.031,1.185,0.026,2.391-0.031,3.597c-0.249,0.653-2.087,7.101-2.138,7.308
		c-0.544,0.968-0.932,2.008-1.04,3.126c-0.476,0.652-0.937,1.314-1.387,1.992c-0.01,0.3-0.026,0.901-0.036,1.201
		c-0.259,0.207-0.771,0.631-1.025,0.844c-0.015,0.735-0.015,1.49,0,2.267c-0.264,0.202-0.787,0.605-1.051,0.807
		c-0.039-2.585-0.164-3.028,1.418-7.153C1270.833,1364.059,1273.208,1362.098,1272.913,1359.365z M1264.891,1367.511
		c-0.259-0.016-0.776-0.041-1.035-0.052c0.347-0.776,0.719-1.537,1.108-2.282c0.057-0.264,0.16-0.792,0.212-1.056
		c3.036-5.649,2.9-6.281,3.059-7.349c0.238-0.202,0.719-0.616,0.957-0.823c0.026-0.274,0.073-0.823,0.098-1.097
		c0.921-1.03,1.568-2.288,1.594-3.685c0.533-1.113,1.118-2.2,1.946-3.116c0.047,2.423-0.133,2.266-0.564,4.265
		c-0.476,0.668-0.952,1.335-1.434,2.003c-0.021,0.31-0.062,0.932-0.083,1.242c-0.207,0.016-0.626,0.042-0.838,0.057
		c-0.456,2.282-2.158,4.099-2.407,6.444C1266.34,1363.718,1265.357,1365.524,1264.891,1367.511z M1261.46,1414.629l-0.523-0.052
		c0.254-6.667-0.93-8.835,1.718-17.586c0.197,0.005,0.59,0.01,0.787,0.01c0.021-0.098,0.048-0.227,0.076-0.367
		c-0.291,1.51-0.817,4.634-1.122,8.808c-0.595,1.294-0.414,2.748-0.528,4.141C1261.165,1411.167,1261.496,1412.937,1261.46,1414.629
		z M1274.507,1394.885c-1.216,5.361-2.301,4.306-2.8,8.829c-0.233,0.01-0.688,0.031-0.916,0.042
		c-0.016,0.321-0.047,0.968-0.062,1.294c-0.321,0.476-0.631,0.973-0.927,1.485c-0.296,1.893-0.601,1.617-1.221,4.172
		c-1.423,0.74-2.06,2.272-2.872,3.561c-1.177,4.139-0.852,2.085-1.232,4.244c-0.683,1.175-1.108,2.712-2.598,3.079
		c0.036-1.242,0.626-2.469,0.28-3.69c0.409-0.642,0.823-1.273,1.247-1.889c-0.298-0.406,1.579-16.936,1.656-17.431
		c-0.346-2.533,3.793-16.111,7.515-20.557c0.119-0.492,0.254-0.958,0.409-1.408c0.481-0.445,0.932-0.932,1.496-1.279
		c1.521,0.192,3.033,0.512,4.565,0.782c0.005-0.243,0.005-0.73,0.01-0.978c0.264,0.186,0.797,0.548,1.066,0.73
		c0.864-0.016,1.734-0.026,2.634-0.01c0.073,0.254,0.223,0.761,0.3,1.015c4.006-2.028,2.998-0.855,4.27,1.014
		C1286.433,1379.109,1274.933,1394.097,1274.507,1394.885z M1285.593,1383.255c0.6-1.687,1.884-3.219,3.442-4.094
		C1288.342,1380.849,1287.063,1382.199,1285.593,1383.255z M1290.841,1373.427c1.315-2.169,2.557-4.425,4.394-6.206
		C1295.042,1368.43,1292.526,1372.891,1290.841,1373.427z M1289.967,1370.601c-1.858,0.818-3.726,1.62-5.512,2.583
		c-1.906,0.057-7.735,0.024-9.989-1.361c0.08-0.331,6.246-21.891,6.614-22.1c-0.005-2.795,0.016-5.6,0.647-8.333
		c1.185-0.595,1.346-2.127,2.448-2.795c2.313-1.428,4.56-2.986,6.588-4.808c0.513,0.14,1.035,0.3,1.579,0.486
		c0.171-0.14,0.512-0.419,0.683-0.554c-0.303,6.082,4.396,24.253,4.435,27.461
		C1294.097,1362.731,1290.639,1369.632,1289.967,1370.601z M1298.253,1359.422c0.135-1.76,0.367-3.519-0.14-5.238
		c-0.233-0.207-0.694-0.621-0.926-0.833c-0.031-1.04-0.052-2.07-0.109-3.084c-0.227-0.484-0.348-7.781-1.278-10.895
		c1.092-3.726-0.792-8.058,1.558-11.438c0.364-0.229,6.282-5.276,6.837-6.252c1.035-0.605,2.07-1.216,3.085-1.868
		c1.506-1.962,2.593-4.291,4.523-5.88c-0.399,1.527-1.139,2.96-2.148,4.177c-0.016,3.188-0.838,6.324-0.59,9.533
		c-0.636-0.016-1.258-0.01-1.863,0.01c-1.609,1.475-2.867,3.255-4.285,4.901c-0.062,0.642-0.104,1.299-0.124,1.972
		C1303.155,1335.5,1303.761,1355.553,1298.253,1359.422z M1311.073,1340.283c-2.158,1.672-2.717,4.684-5.108,6.19
		c-0.021-1.403-0.161-2.842,0.372-4.161c0.243-3.028,0.937-5.993,1.811-8.886c1.211-0.078,2.438-0.135,3.67-0.176
		C1312.78,1337.67,1311.545,1337.56,1311.073,1340.283z M1346.587,1366.574c-2.451-0.447-1.796-0.277-3.649-1.071
		c-0.316-0.015-0.947-0.047-1.263-0.062C1338.855,1362.946,1345.289,1362.623,1346.587,1366.574z M1348.528,1369.623
		c-0.197,0.248-0.6,0.755-0.797,1.004c-3.04-0.024-2.258-0.012-4.88-0.605c-0.197-0.218-0.59-0.652-0.787-0.87
		C1346.498,1367.963,1343.417,1369.559,1348.528,1369.623z M1324.876,1317.164c0.336-0.554,0.688-1.092,1.056-1.62
		c0.579,2.184,2.251,4.104,2.179,6.433c-1.134,4.146,0.057,8.4,0.228,12.597c0.523,1.294,0.373,2.722,0.507,4.11
		c0.644,1.689,1.683,16.458,1.661,16.996c-0.362,0.057-1.082,0.181-1.444,0.243c-0.021-0.409-0.052-1.232-0.072-1.641
		c-0.833-0.859-1.366-1.93-1.651-3.064c-0.197-0.145-0.6-0.44-0.797-0.585C1322.907,1344.467,1325.523,1319.173,1324.876,1317.164z
		 M1323.064,1352.714c1.594,1.108,2.458,2.924,3.638,4.425c1.651,0.145,1.993,2.184,3.256,3.043
		c0.036,1.227,0.083,2.458,0.176,3.706c3.139,5.138,1.664,25.513,18.917,40.317c0.202,1.045,0.455,2.096,0.849,3.116
		c-1.718-0.44-3.214,1.801-4.705,0.45c-5.945,2.543-13.27,0.914-15.118-0.078
		C1317.586,1396.968,1321.964,1390.714,1323.064,1352.714z M1352.311,1411.545c-0.673,0.487-1.346,0.968-2.019,1.449
		c-3.184,0.688-1.605,0.547-5.331,0.574c-0.207,0.243-0.631,0.725-0.838,0.968c-1.833,0.381-4.553,0.859-4.886,0.968
		c-0.073-0.062-0.217-0.192-0.29-0.254c-2.127,1.03-4.389-0.393-6.578,0.269c-2.495-0.072-5.543,0.88-7.541-1.025
		c-2.101-1.128-3.436-3.214-4.637-5.181c-0.999-3.985-2.945-7.779-2.976-11.961c-0.419-1.278-0.326-2.66-0.854-3.882
		c0.357-1.444,0.564-2.919,0.409-4.389c-0.559-0.833-0.538-1.791-0.186-2.671c-0.202-1.252-0.342-2.505-0.59-3.726
		c0.197-0.662,0.414-1.304,0.647-1.931c-0.469-1.48-0.592-8.885,0.062-10.491c0.104-1.232,0.057-2.484,0.528-3.633
		c0.072-0.989,0.135-1.962,0.233-2.924c0.611-1.428,0.373-3.012,0.409-4.508l0.512,0.031c-0.036,0.464-0.61,21.359-0.761,22.503
		c1.234,7.132-2.206,10.007,5.072,23.911c7.079,6.608,6.44,4.628,11.717,7.706c0.673-0.098,1.361-0.181,2.065-0.259
		c0.192,0.274,0.399,0.574,0.631,0.89c0.942-0.365,5.939-1.462,7.075-1.066c0.631-0.445,1.263-0.89,1.899-1.341
		c0.466-0.093,0.958-0.166,1.465-0.223c0,0,6.54-0.947,6.542-0.947c0.005,0.264,0.005,0.797,0.005,1.061
		C1353.486,1411.472,1352.891,1411.498,1352.311,1411.545z M1374.369,1395.614c-1.19,0.957-2.179,2.189-3.7,2.645
		c-0.01,0.259-0.021,0.787-0.031,1.046c-0.849,0.347-1.47,0.978-1.817,1.827c-0.31,0-0.921,0.01-1.232,0.015
		c-0.016,0.254-0.052,0.771-0.072,1.03c-0.331,0-0.999,0.005-1.33,0.01c-0.647,0.673-1.289,1.351-1.915,2.044
		c-0.305,0.005-0.916,0.021-1.221,0.026c-0.207,0.254-0.626,0.766-0.839,1.025c-0.6-0.016-1.19-0.01-1.76,0.01
		c-0.378-0.507-0.735-0.999-1.077-1.475c-1.165,0.192-2.319,0.363-3.468,0.445c-9.378-4.828-16.056-14.903-16.142-16.852
		c-1.082-2.37-1.718-4.901-2.303-7.422c-1.667-2.665-1.351-6.086-1.428-9.099c0.611,0.326,1.159,0.823,1.635,1.377
		c1.19,0.569,2.308,1.304,3.581,1.749c0.104,0.31,0.228,0.637,0.373,0.983c2.393,0.606,14.764,4.146,15.76,4.653
		c6.993,1.336,13.984,2.364,19.424-0.254c0.186,0.269,0.559,0.807,0.751,1.077c1.967-0.166,4.016-0.637,5.967-0.036l-0.01,1.258
		c0.455-0.238,0.957-1.449,1.351-0.197c-0.621,0.533-1.201,1.102-1.765,1.687c-0.021,0.29-0.062,0.864-0.083,1.149
		c-1.511,1.832-2.65,4.011-4.627,5.408c-1.413,1.749-2.981,3.359-4.622,4.891
		C1373.919,1394.879,1374.219,1395.371,1374.369,1395.614z M1401.644,1379.286c-0.937,0.828-2.039,1.485-2.79,2.51
		c-4.419,2.978-5.09,5.334-7.898,5.082c-2.225,0.989-3.835,2.991-6.159,3.757c-4.942,5.36-6.108,6.955-8.664,7.003
		c0.895-0.673,1.941-1.335,1.91-2.603c1.853-0.963,3.126-2.608,3.944-4.497c0.021-0.254,0.073-0.766,0.093-1.02
		c3.214-1.511,3.473-5.543,5.885-7.867c0.983-0.533,2.225-0.916,2.505-2.153c2.214,1.547,7.029-2.915,12.489-3.623
		c0.114,0.574,0.238,1.159,0.378,1.765c-0.73,0.228-1.413,0.502-2.106,0.771C1401.334,1378.628,1401.541,1379.063,1401.644,1379.286
		z M1408.145,1368.51c-0.264,0.01-0.792,0.031-1.061,0.042c-0.823,0.844-1.651,1.687-2.458,2.546
		c-0.279,0.021-0.833,0.062-1.113,0.083c-0.849,0.657-1.729,1.278-2.562,1.946c-0.688,0.036-1.356,0.093-2.003,0.181
		c-0.88,0.492-1.884,0.497-2.753,0.036c-0.238,0.119-0.709,0.367-0.942,0.486c1.877-5.238,7.971-7.473,10.33-10.739
		c3.261-2.458,5.553-6.076,9.28-7.955c0.274-0.036,0.818-0.104,1.092-0.14c0.999-0.569,2.024-1.097,3.084-1.573
		c-0.274,0.844-0.844,1.496-1.62,1.915C1416.788,1357.691,1408.73,1367.54,1408.145,1368.51z M1424.789,1360.172
		c5.007-4.537,3.372-2.771,9.233-6.816c-1.996,4.223-5.53,7.747-6.801,7.825c-0.119-0.098-0.352-0.3-0.471-0.399
		c0.184,1.626-1.328,1.811-3.064,2.158c-3.142,1.371-5.91,3.405-8.151,5.998c-0.885,0.109-1.749,0.3-2.552,0.636
		c0.3-0.947,0.579-1.889,0.787-2.846c0.776-1.222,1.49-2.484,2.35-3.649c0.026-0.269,0.083-0.807,0.109-1.077
		c0.357-0.579,0.714-1.154,1.154-1.667C1421.655,1361.273,1422.78,1360.664,1424.789,1360.172z M1429.592,1339.455
		c-0.787-0.616-1.698,0.155-1.713,1.035c-1.692,1.729-3.276,3.597-5.258,5.005c-2.963,3.851-1.142,3.235-7.494,7.261
		c0.155-0.367,0.466-1.097,0.621-1.459c-1.991,1.439-15.805,14.679-16.774,15.563c-0.828,0.212-1.641,0.461-2.427,0.724l0.01-0.331
		c0,0,16.824-20.297,19.387-22.26c0.476-0.854,1.19-1.439,2.215-1.449c1.19-2.112,3.447-3.152,5.388-4.43
		c0.176-0.269,0.528-0.813,0.704-1.082c0.487-0.047,0.994-0.078,1.527-0.083c2.84-2.179,5.677-4.54,5.683-4.544
		c0.274-0.031,0.828-0.083,1.103-0.114c1.775-0.952,3.167-2.562,5.093-3.24c-2.448,2.888-5.284,5.419-7.934,8.115
		C1429.691,1338.487,1429.623,1339.134,1429.592,1339.455z M1429.96,1341.307c1.371-1.408,2.365-3.095,3.468-4.689
		c2.254-1.602,8.496-7.736,9.45-9.461c0.222-0.016,0.662-0.041,0.885-0.052C1442.84,1328.076,1435.987,1339.43,1429.96,1341.307z"/>
	<path d="M959.095,358.946c0.502,0.398,1.009,0.802,1.532,1.211c-0.31-1.144-0.807-2.22-1.341-3.266
		c-0.176,0.15-0.523,0.455-0.693,0.611C958.718,357.864,958.971,358.584,959.095,358.946z"/>
	<path d="M1004.826,1321.216c0.969-0.91,0.413-1.027-6.345-8.1C997.812,1315.138,999.348,1316.263,1004.826,1321.216z"/>
	<path d="M977.018,1316.253c0.016,0.3,0.052,0.906,0.067,1.211c1.858,0.611,3.809,0.916,5.641,1.672
		C983.184,1316.352,980.957,1318.193,977.018,1316.253z"/>
	<path d="M1061.881,1364.991c0.093,0.663,0.476,0.781,1.144,0.363C1062.906,1364.66,1062.528,1364.535,1061.881,1364.991z"/>
	<path d="M1283.42,1372.226C1283.534,1373.929,1284.915,1371.367,1283.42,1372.226L1283.42,1372.226z"/>
	<path d="M1266.703,1393.109c-0.481,0.6-0.352,0.947,0.378,1.051C1267.531,1393.529,1267.407,1393.182,1266.703,1393.109z"/>
	<path d="M1360.545,1403.776C1360.608,1405.479,1362.077,1402.969,1360.545,1403.776L1360.545,1403.776z"/>
	<path d="M1197.32,1415.804c-2.492,10.609-1.262,16.51,0.026,28.01c0.699,0.533,1.351,1.154,1.956,1.832
		c-0.766-2.738-0.248-5.652-1.139-8.328c-0.685-11.784-0.06-11.048-0.75-13.969
		C1196.802,1420.809,1199.716,1417.864,1197.32,1415.804z"/>
</g>
</svg>
