<?xml version="1.0" standalone="no"?>
<!DOCTYPE svg PUBLIC "-//W3C//DTD SVG 20010904//EN"
 "http://www.w3.org/TR/2001/REC-SVG-20010904/DTD/svg10.dtd">
<svg version="1.0" xmlns="http://www.w3.org/2000/svg"
 width="1280.000000pt" height="1280.000000pt" viewBox="0 0 1280.000000 1280.000000"
 preserveAspectRatio="xMidYMid meet">
<metadata>
Created by potrace 1.15, written by Peter Selinger 2001-2017
</metadata>
<g transform="translate(0.000000,1285.000000) scale(0.100000,-0.100000)"
fill="#000000" stroke="none">
<path d="M2155 12260 c3 -5 46 -37 95 -71 140 -95 172 -138 225 -299 15 -47
32 -93 37 -103 15 -31 38 -140 44 -207 7 -83 21 -182 34 -240 32 -146 35 -168
28 -229 -4 -35 -14 -71 -23 -81 -8 -9 -24 -47 -34 -84 -10 -37 -27 -77 -38
-89 -10 -12 -24 -33 -29 -47 -6 -14 -23 -50 -37 -80 -17 -36 -28 -81 -32 -130
-4 -41 -11 -95 -16 -120 -41 -194 -5 -378 103 -517 l41 -54 -28 -51 c-33 -60
-65 -185 -57 -223 2 -14 14 -33 26 -41 52 -37 131 -84 142 -84 23 0 74 -70 75
-103 0 -18 2 -41 4 -52 2 -11 8 -55 14 -98 14 -99 20 -111 65 -114 36 -2 49
10 22 20 -15 6 -25 57 -32 172 -10 145 -32 189 -122 240 -26 15 -59 39 -75 53
-23 22 -26 31 -21 61 7 35 48 106 76 129 11 9 22 5 49 -17 19 -15 57 -40 86
-54 28 -15 55 -31 58 -37 4 -6 60 -38 126 -70 65 -33 167 -93 227 -132 166
-112 209 -137 317 -179 55 -22 120 -48 145 -58 134 -55 207 -76 375 -111 33
-6 96 -23 140 -36 44 -13 83 -24 87 -24 4 0 32 -11 61 -25 30 -13 76 -30 101
-37 42 -11 53 -21 91 -74 24 -34 46 -72 50 -84 4 -12 22 -54 40 -94 l33 -73
-34 -12 c-19 -7 -68 -35 -108 -62 -62 -41 -84 -64 -140 -146 -37 -54 -82 -118
-100 -143 -18 -25 -38 -62 -45 -83 -27 -90 -31 -104 -31 -121 0 -10 -13 -46
-29 -80 -56 -118 -69 -151 -75 -194 -4 -24 -18 -61 -32 -83 -14 -22 -28 -48
-32 -57 -13 -32 -80 -127 -106 -151 -14 -14 -26 -32 -26 -42 0 -10 -5 -21 -10
-24 -5 -3 -10 -16 -10 -28 0 -12 -18 -47 -40 -77 -21 -30 -47 -70 -56 -88 -10
-17 -23 -31 -30 -30 -7 2 -19 -6 -27 -16 -14 -19 -15 -19 -48 4 -36 25 -50 36
-87 70 -33 30 -55 22 -66 -23 -12 -47 -4 -61 53 -102 33 -23 53 -30 91 -30 27
0 52 -3 56 -8 4 -4 -5 -20 -22 -36 -16 -16 -47 -48 -69 -71 -22 -23 -65 -58
-95 -78 -84 -54 -235 -215 -261 -278 -7 -16 -25 -57 -40 -91 -16 -34 -32 -82
-35 -105 -6 -41 -80 -196 -109 -228 -7 -8 -23 -46 -36 -85 -27 -85 -68 -172
-97 -210 -12 -15 -22 -32 -22 -37 0 -5 -17 -35 -37 -66 -21 -31 -47 -85 -59
-120 -12 -34 -35 -77 -50 -96 -16 -18 -41 -55 -57 -82 -15 -27 -43 -69 -62
-94 -19 -25 -48 -65 -64 -90 -115 -172 -150 -213 -207 -244 -64 -34 -237 -209
-276 -279 -15 -26 -39 -77 -53 -114 -15 -37 -42 -98 -61 -137 -18 -39 -38 -93
-44 -120 -6 -27 -15 -56 -19 -65 -5 -9 -12 -43 -15 -76 -4 -33 -10 -71 -13
-85 -5 -25 -99 -322 -129 -410 -33 -95 -78 -337 -69 -363 4 -9 2 -39 -4 -67
-9 -41 -8 -58 4 -85 23 -58 46 -47 95 47 32 61 45 69 48 31 4 -49 23 -83 47
-83 21 0 45 34 45 64 0 8 6 19 14 25 8 6 24 40 36 74 12 34 26 71 31 82 15 34
40 216 43 310 2 95 5 105 66 195 20 30 44 66 53 80 68 102 91 131 135 173 l49
49 6 -34 c4 -18 4 -49 2 -68 -14 -108 -35 -244 -48 -305 -30 -142 -39 -201
-47 -329 -5 -72 -14 -158 -20 -191 -21 -106 -21 -138 -3 -234 14 -74 22 -96
39 -108 28 -18 59 -4 70 29 3 13 19 51 35 85 16 34 29 66 29 72 0 5 5 11 11
13 6 2 13 30 15 63 3 33 8 67 11 75 7 20 10 40 17 129 3 40 8 82 12 93 3 11 8
30 10 41 12 70 17 88 25 93 5 3 9 22 9 42 0 39 21 164 46 269 8 34 14 73 14
87 0 17 5 26 16 26 13 0 14 -14 9 -107 -4 -60 -8 -202 -9 -318 -2 -178 0 -224
17 -300 11 -49 26 -98 34 -107 24 -27 61 -4 75 46 6 23 15 46 19 51 13 17 31
142 35 235 2 47 6 96 9 110 15 64 25 128 25 160 0 112 10 316 19 369 6 34 8
68 5 75 -3 8 -1 17 5 21 7 4 11 -7 11 -32 0 -41 16 -101 48 -179 11 -27 37
-103 58 -169 42 -136 83 -201 158 -250 25 -16 52 -44 61 -61 8 -17 21 -37 30
-44 8 -7 15 -18 15 -24 0 -7 21 -41 46 -77 25 -35 55 -82 66 -103 11 -22 50
-69 87 -106 81 -81 178 -203 198 -250 8 -19 32 -55 52 -80 21 -25 44 -56 51
-70 12 -24 63 -81 155 -175 22 -22 70 -54 106 -72 76 -36 121 -85 163 -178 49
-107 78 -159 112 -200 39 -48 51 -77 61 -147 14 -105 10 -123 -49 -191 -74
-85 -112 -136 -134 -177 -11 -19 -31 -51 -46 -71 -16 -20 -28 -41 -28 -46 0
-6 -20 -37 -45 -69 -25 -31 -45 -64 -45 -71 0 -13 -16 -32 -126 -152 -28 -31
-54 -66 -58 -77 -4 -12 -38 -53 -76 -92 -144 -149 -176 -193 -206 -290 l-29
-89 -60 -28 c-103 -49 -222 -155 -255 -227 -27 -60 -26 -119 3 -145 29 -27 61
-43 85 -43 11 0 22 -6 25 -14 3 -8 23 -19 43 -25 48 -13 110 0 237 50 85 34
104 38 150 33 45 -5 60 -2 112 24 78 39 205 112 247 143 46 35 126 57 245 68
113 10 131 17 186 70 39 37 67 106 67 167 0 50 36 136 77 183 20 24 86 81 147
127 61 45 127 102 146 125 19 23 52 52 72 65 21 13 50 43 65 65 52 77 73 114
73 129 0 29 85 98 275 225 158 106 211 147 313 248 177 174 222 230 222 273 0
58 -29 63 -166 30 -124 -30 -129 -30 -374 -1 -166 21 -221 31 -255 49 -17 8
-38 17 -48 20 -9 3 -21 16 -27 30 -5 13 -14 27 -20 31 -6 4 -23 32 -39 63 -15
32 -39 77 -53 102 -15 25 -32 65 -39 90 -11 39 -34 95 -84 205 -31 67 -55 128
-55 142 0 7 -9 31 -19 52 -11 20 -29 69 -41 107 -57 180 -112 303 -201 453
-40 69 -205 277 -246 310 -20 17 -35 32 -32 34 7 7 133 55 162 63 16 3 51 17
78 30 27 13 51 24 55 24 3 0 30 11 60 25 30 14 59 25 64 25 5 0 27 9 48 20 21
11 65 25 98 30 32 6 75 17 94 24 19 8 62 21 95 31 33 10 89 31 125 47 36 16
101 42 145 58 197 69 262 97 453 190 266 131 328 150 480 150 124 0 238 16
365 50 l79 21 33 -21 c37 -23 93 -30 140 -19 89 21 198 59 240 83 50 28 71 31
94 17 12 -8 9 -15 -12 -41 -15 -17 -27 -36 -27 -41 0 -6 -11 -26 -25 -47 -19
-28 -23 -44 -19 -72 11 -69 -51 -246 -95 -269 -9 -5 -23 -22 -31 -38 -8 -15
-22 -33 -30 -39 -9 -7 -25 -32 -37 -55 -13 -26 -36 -52 -55 -63 -18 -10 -54
-39 -80 -65 -149 -147 -141 -141 -199 -141 -45 0 -60 -5 -90 -29 -30 -25 -52
-32 -140 -45 -127 -20 -189 -34 -205 -47 -6 -5 -54 -20 -105 -34 -52 -13 -112
-30 -134 -38 -22 -8 -57 -17 -77 -21 -27 -5 -65 -31 -138 -93 -55 -47 -100
-89 -100 -94 0 -4 -18 -33 -41 -63 -41 -55 -60 -66 -115 -66 -46 0 -99 -62
-135 -160 -8 -19 -33 -63 -56 -98 -24 -34 -43 -68 -43 -75 0 -8 -26 -40 -58
-73 -34 -35 -68 -82 -82 -114 -13 -30 -33 -68 -44 -84 -22 -32 -25 -78 -7 -99
10 -13 19 -12 69 4 31 10 74 21 94 24 21 3 50 17 66 30 15 13 43 27 62 32 41
11 252 204 268 245 26 68 103 132 232 194 62 30 162 43 282 38 55 -2 106 0
112 5 20 15 67 19 73 5 5 -14 -22 -112 -57 -209 -13 -33 -26 -85 -30 -115 -4
-30 -22 -86 -40 -125 -18 -38 -33 -79 -35 -90 -1 -11 -8 -33 -14 -48 -14 -36
-14 -99 0 -131 9 -19 9 -29 1 -39 -14 -17 -26 -110 -18 -141 7 -27 48 -48 75
-38 22 8 91 91 91 110 0 6 7 12 15 12 8 0 15 5 15 10 0 6 22 32 50 57 27 25
54 60 59 77 21 67 42 118 65 154 20 32 36 78 41 117 2 19 24 63 34 70 6 3 11
16 11 27 0 12 10 35 23 52 24 32 67 119 67 135 0 5 7 11 15 15 8 3 15 13 15
23 1 25 33 61 56 63 37 4 54 0 54 -14 0 -7 9 -25 20 -39 11 -14 20 -32 20 -41
0 -9 4 -25 10 -36 6 -11 14 -29 20 -40 6 -11 10 -29 10 -40 0 -12 9 -40 19
-64 52 -113 29 -386 -49 -576 -10 -25 -25 -72 -33 -105 -9 -33 -22 -79 -31
-103 -13 -35 -14 -53 -5 -110 6 -37 12 -105 14 -150 4 -88 16 -111 58 -112 29
0 77 42 96 85 10 22 25 46 34 54 10 7 17 19 17 26 0 7 7 18 15 25 8 7 15 19
15 27 0 8 10 28 21 45 12 16 26 48 31 71 5 23 24 74 42 112 51 107 61 154 71
316 2 31 10 67 18 80 9 13 19 46 22 72 4 26 9 46 11 44 5 -4 18 -177 18 -232
0 -22 -6 -94 -14 -160 -12 -115 -12 -124 8 -190 11 -39 24 -90 27 -115 9 -68
10 -73 23 -97 18 -32 36 -29 70 14 40 51 56 87 72 158 8 33 20 70 28 82 8 13
11 23 8 23 -3 0 1 16 9 36 8 20 15 55 15 78 0 22 2 66 5 96 3 30 7 98 10 150
3 52 13 127 21 165 20 85 18 189 -3 221 -10 16 -25 24 -43 24 -30 0 -54 28
-66 76 -3 16 -15 54 -24 84 -10 30 -28 114 -39 185 -12 72 -29 143 -37 158
-15 27 -14 30 25 96 23 37 41 72 41 79 0 6 14 18 30 27 17 9 30 24 30 34 0 23
197 212 243 235 37 17 67 49 67 71 0 8 4 15 9 15 4 0 11 -30 14 -67 10 -113
17 -161 27 -188 5 -14 13 -59 16 -98 3 -40 11 -85 19 -102 23 -54 26 -67 31
-169 4 -97 14 -203 34 -386 25 -220 32 -311 30 -385 -1 -44 -2 -89 -2 -100 -1
-35 -26 -198 -39 -250 -6 -27 -20 -81 -30 -120 -41 -158 -58 -497 -28 -589 5
-16 9 -54 9 -85 0 -31 7 -81 15 -111 12 -40 16 -109 16 -260 1 -203 1 -205
-31 -305 -18 -55 -36 -108 -41 -117 -5 -10 -9 -28 -9 -40 0 -13 -11 -59 -25
-102 -14 -43 -25 -91 -25 -105 -1 -14 -14 -42 -30 -61 -17 -19 -30 -40 -30
-48 0 -8 -9 -27 -20 -42 -82 -115 -58 -297 57 -437 46 -55 77 -72 152 -80 53
-5 67 -2 117 23 80 40 126 89 153 162 17 45 28 62 42 62 10 0 33 13 51 29 73
63 73 63 73 -67 1 -148 20 -219 73 -268 l37 -34 116 0 c107 0 117 2 135 23 36
40 55 108 61 219 l6 107 26 -39 c14 -21 68 -82 119 -136 l93 -97 70 -1 c69 -1
71 0 106 38 34 37 35 40 29 95 -4 31 -20 99 -36 151 -16 52 -34 131 -39 175
-21 170 -31 222 -51 284 -12 36 -23 81 -24 101 -2 20 -12 54 -23 76 -11 21
-37 73 -58 114 -21 41 -45 82 -52 90 -34 36 -83 124 -83 149 0 15 -7 51 -16
81 -28 98 -50 260 -48 355 4 193 14 337 26 375 10 32 13 76 10 155 -7 164 -6
204 6 275 6 36 16 106 23 155 6 50 18 115 25 146 10 40 13 118 12 270 -1 173
2 225 15 269 9 31 19 87 21 125 11 137 41 268 103 440 31 88 62 226 74 330 13
124 13 384 -1 435 -7 25 -14 56 -16 70 -3 28 -36 180 -61 280 -9 36 -24 101
-33 145 -10 44 -25 107 -35 140 -21 69 -25 192 -10 310 11 96 9 229 -6 305
-18 89 -74 193 -124 229 -24 17 -48 31 -55 31 -14 0 -71 29 -85 44 -19 21 -45
65 -45 79 0 7 -27 38 -61 70 -61 57 -69 60 -174 71 -16 1 -48 10 -69 20 -53
22 -145 28 -170 10 -25 -17 -47 -18 -80 -3 -19 9 -26 22 -31 58 -7 51 -29 120
-49 160 -12 23 -47 150 -66 241 -4 19 -22 69 -39 110 -33 76 -100 270 -120
347 -6 23 -34 93 -62 155 -28 62 -57 133 -64 156 -8 24 -25 62 -40 83 l-26 40
58 64 c32 36 85 87 119 114 33 27 85 71 115 99 30 27 99 87 154 132 55 46 132
114 171 152 100 97 133 119 155 108 10 -6 45 -10 78 -10 l60 0 43 55 c23 30
48 55 55 55 19 0 93 91 93 116 0 14 9 28 23 36 42 23 290 301 307 344 18 45
102 164 130 184 17 12 73 41 126 65 105 47 137 73 226 184 63 78 95 138 123
231 29 96 30 98 63 94 16 -2 60 -19 97 -39 37 -19 76 -35 86 -35 40 0 10 57
-44 86 -89 47 -126 62 -164 68 -41 6 -44 5 -67 -31 -14 -21 -34 -66 -45 -99
-33 -104 -66 -157 -151 -241 -78 -77 -88 -83 -201 -128 -65 -26 -124 -54 -131
-62 -6 -8 -29 -23 -50 -34 -21 -11 -38 -24 -38 -29 0 -5 -8 -11 -18 -15 -11
-3 -34 -27 -52 -53 -19 -26 -86 -99 -149 -162 -85 -85 -134 -124 -183 -150
l-67 -35 -33 19 c-18 10 -54 36 -80 57 -57 48 -71 50 -57 9 11 -29 80 -100 99
-100 30 0 -3 -25 -116 -89 -69 -40 -144 -85 -166 -101 -23 -17 -45 -30 -50
-30 -12 0 -122 -73 -293 -195 -155 -111 -264 -185 -272 -185 -4 0 -28 -14 -52
-30 -24 -17 -51 -30 -59 -30 -8 0 -40 -18 -69 -41 -30 -22 -56 -39 -57 -37 -1
1 -10 15 -19 31 -10 15 -22 27 -29 27 -6 0 -47 31 -92 68 -44 37 -97 74 -116
82 -19 7 -39 17 -45 21 -17 12 -126 50 -204 69 -40 10 -82 27 -93 37 -29 26
-297 27 -343 1 -34 -19 -125 -58 -125 -54 0 2 16 23 35 47 19 24 35 53 35 64
0 11 7 29 15 39 8 11 15 25 15 32 0 7 23 52 51 100 82 143 78 174 -22 173 -47
-1 -62 -5 -73 -20 -7 -11 -36 -28 -64 -38 -45 -17 -53 -17 -64 -4 -19 23 2 44
58 61 27 8 51 18 54 22 3 5 28 17 55 28 43 17 131 61 224 111 14 8 35 24 46
37 28 32 223 126 330 159 50 16 155 52 236 82 80 29 148 53 153 53 17 0 148
63 295 142 71 38 266 108 341 123 158 30 299 114 402 239 28 34 69 81 92 106
83 88 159 206 172 265 17 78 30 116 59 180 25 52 39 100 46 156 13 102 35 163
58 154 19 -8 44 -16 136 -43 230 -67 243 -72 306 -121 84 -63 94 -76 109 -138
21 -80 2 -119 -78 -161 -34 -18 -62 -39 -62 -47 0 -15 21 -14 41 2 8 6 25 14
39 18 97 29 130 125 89 261 -17 54 -111 137 -215 188 -52 25 -100 46 -108 46
-26 0 -212 73 -242 96 -21 15 -30 30 -28 46 1 13 3 26 3 31 2 18 69 46 159 68
53 13 99 26 102 29 3 3 22 16 42 28 31 19 49 22 120 21 70 -2 91 2 139 24 58
26 119 88 119 119 0 25 -11 23 -57 -11 -79 -57 -95 -62 -206 -59 -98 3 -105 2
-145 -25 -23 -15 -66 -32 -95 -38 -200 -41 -214 -48 -265 -122 -62 -93 -81
-147 -92 -262 -13 -127 -21 -160 -63 -229 -16 -28 -49 -88 -73 -134 -57 -109
-65 -119 -202 -245 -166 -153 -246 -191 -401 -189 -70 1 -105 18 -114 54 -3
13 -17 68 -31 123 -28 113 -43 237 -46 375 -2 154 -26 332 -61 463 -5 20 -14
84 -19 142 -12 133 -49 227 -74 186 -4 -5 -1 -22 5 -38 6 -15 13 -91 15 -168
1 -77 5 -167 8 -200 3 -35 0 -85 -8 -120 -8 -33 -17 -107 -21 -165 -4 -58 -11
-115 -16 -128 -22 -58 -41 -299 -35 -441 6 -144 5 -145 -20 -178 -46 -60 -109
-84 -459 -170 -33 -8 -91 -21 -129 -29 -146 -30 -280 -66 -312 -85 -19 -10
-43 -19 -53 -19 -10 0 -24 -7 -31 -15 -7 -8 -17 -15 -22 -15 -9 0 -33 -11
-194 -86 -102 -47 -157 -37 -249 46 -16 15 -61 42 -100 60 -38 18 -78 36 -87
41 -10 5 -32 9 -50 9 -18 0 -48 4 -66 10 -35 9 -172 12 -324 5 -70 -2 -93 -7
-114 -24 -14 -11 -30 -19 -34 -16 -17 10 -120 -46 -166 -90 -44 -43 -49 -46
-87 -40 -22 4 -42 3 -46 -2 -4 -6 -41 -6 -96 -2 -49 5 -121 11 -160 14 -115 8
-129 14 -187 68 -91 87 -180 157 -240 188 -161 84 -301 183 -383 271 -77 83
-166 139 -244 154 -36 7 -87 22 -113 34 -46 20 -48 22 -47 63 0 23 9 74 20
112 10 39 28 108 40 155 11 47 25 93 30 102 23 45 37 235 19 269 -17 31 -28
13 -41 -71 -13 -87 -36 -145 -98 -250 -24 -41 -60 -108 -79 -149 -36 -78 -43
-80 -57 -11 -14 76 -50 166 -93 239 -25 42 -56 96 -70 121 -14 25 -46 77 -72
115 -25 39 -50 77 -54 85 -4 8 -13 26 -21 40 -14 24 -12 27 24 65 22 22 53 64
71 93 26 43 30 55 20 67 -21 25 -37 17 -74 -39 -20 -30 -50 -64 -66 -76 l-29
-21 -24 38 c-25 42 -50 93 -97 198 -17 38 -42 84 -55 101 -19 24 -28 57 -40
140 -9 60 -26 134 -37 164 -11 30 -32 90 -47 133 -16 42 -31 80 -34 84 -4 3
-7 13 -7 21 0 8 -20 46 -45 83 -40 61 -76 95 -172 164 -56 40 -133 70 -118 45z
m535 -998 c0 -15 -2 -15 -10 -2 -13 20 -13 33 0 25 6 -3 10 -14 10 -23z m76
-199 c-2 -3 -14 0 -25 6 -20 11 -34 49 -46 126 -5 34 0 28 35 -44 22 -46 38
-86 36 -88z m131 -234 c46 -86 96 -195 113 -247 36 -111 68 -260 69 -323 1
-41 -3 -50 -34 -78 -35 -31 -47 -34 -190 -66 -44 -9 -96 -26 -115 -37 l-35
-20 -46 50 c-25 27 -53 65 -62 84 -21 43 -35 139 -31 203 2 28 5 93 7 145 2
57 10 109 19 130 26 60 52 153 57 210 l6 55 70 27 c39 15 74 26 79 24 5 -1 47
-72 93 -157z m173 -837 c0 -6 -8 -20 -18 -33 -15 -17 -29 -22 -63 -22 -43 1
-135 31 -125 41 6 5 92 16 164 20 23 2 42 -1 42 -6z m345 -22 c83 -26 119 -55
243 -191 l41 -46 -62 9 c-98 15 -122 15 -122 -1 0 -8 32 -25 77 -41 96 -33
198 -100 154 -100 -8 0 -25 4 -38 9 -13 6 -57 20 -98 32 -197 57 -270 137
-270 294 0 55 6 70 24 56 6 -5 29 -14 51 -21z m146 -2687 c8 -9 28 -25 44 -35
28 -18 28 -19 5 -13 -30 8 -72 37 -78 53 -6 18 13 15 29 -5z m1239 -28 c7 -8
20 -15 29 -15 19 -1 51 -23 51 -36 0 -5 15 -21 33 -36 24 -18 38 -41 47 -75 7
-26 22 -59 32 -72 10 -13 18 -31 18 -40 0 -20 56 -140 75 -161 8 -8 20 -27 27
-41 17 -33 188 -193 242 -226 22 -14 57 -36 76 -48 19 -13 47 -27 63 -30 15
-4 27 -11 27 -16 0 -5 9 -9 20 -9 11 0 20 -4 20 -9 0 -5 8 -12 18 -15 10 -3
54 -40 97 -81 44 -41 83 -75 88 -75 14 0 7 -32 -13 -60 -11 -15 -24 -39 -29
-53 -7 -19 -20 -28 -46 -33 -20 -3 -42 -13 -50 -20 -10 -10 -24 -12 -52 -6
-30 6 -45 4 -71 -11 -18 -11 -56 -21 -83 -24 -28 -2 -90 -10 -137 -18 -48 -8
-134 -22 -192 -30 -114 -16 -212 -38 -304 -67 -33 -10 -67 -18 -77 -18 -9 0
-70 -20 -135 -44 -66 -24 -146 -52 -179 -62 -33 -9 -80 -29 -105 -44 -25 -14
-94 -50 -155 -79 -121 -60 -190 -101 -388 -234 -73 -49 -145 -96 -161 -105
-54 -32 -145 -117 -206 -195 -53 -67 -122 -127 -148 -127 -15 0 -147 -91 -185
-128 -21 -20 -59 -65 -84 -100 -45 -64 -65 -78 -39 -28 10 20 13 54 9 134 -4
102 -3 109 22 155 15 26 30 47 34 47 7 0 33 38 96 141 33 54 82 118 111 145
19 17 34 34 34 38 0 10 30 49 74 97 18 19 39 46 46 60 11 21 52 65 171 188 14
14 29 36 33 47 3 11 18 27 32 34 14 8 41 36 60 62 20 26 40 48 45 48 4 0 16
14 25 32 9 18 33 48 54 68 155 148 220 213 220 221 0 4 20 31 44 58 24 27 65
92 91 143 25 51 52 100 60 108 7 8 16 30 20 48 4 18 20 45 36 60 95 87 236
231 242 245 3 9 23 27 44 40 38 24 130 119 162 167 9 13 28 38 44 54 15 17 27
34 27 38 0 14 27 9 40 -7z m885 -1175 c-3 -5 -13 -10 -21 -10 -8 0 -12 5 -9
10 3 6 13 10 21 10 8 0 12 -4 9 -10z"/>
</g>
</svg>
