<?xml version="1.0" standalone="no"?>
<!DOCTYPE svg PUBLIC "-//W3C//DTD SVG 20010904//EN"
 "http://www.w3.org/TR/2001/REC-SVG-20010904/DTD/svg10.dtd">
<svg version="1.0" xmlns="http://www.w3.org/2000/svg"
 width="1280.000000pt" height="1186.000000pt" viewBox="0 0 1280.000000 1186.000000"
 preserveAspectRatio="xMidYMid meet">
<metadata>
Created by potrace 1.15, written by Peter Selinger 2001-2017
</metadata>
<g transform="translate(0.000000,1186.000000) scale(0.100000,-0.100000)"
fill="#000000" stroke="none">
<path d="M1359 11813 c-18 -21 -265 -275 -548 -564 l-516 -525 -27 -110 c-15
-60 -41 -158 -57 -219 -16 -60 -52 -198 -80 -305 -28 -107 -67 -255 -86 -329
-20 -74 -34 -135 -33 -136 36 -24 1545 -951 1552 -953 6 -2 0 6 -14 18 -14 12
-227 199 -475 415 -247 216 -463 403 -479 417 l-30 25 23 129 c12 71 31 176
41 234 10 58 37 213 60 345 23 132 47 245 54 251 8 9 729 458 813 508 7 4 167
-52 355 -124 189 -72 428 -164 532 -203 172 -65 191 -75 211 -107 13 -19 321
-596 685 -1282 l662 -1248 -11 -497 c-21 -907 -31 -1364 -41 -1733 -6 -201
-12 -498 -15 -660 -2 -162 -9 -479 -14 -705 -6 -225 -16 -624 -22 -885 -6
-261 -15 -480 -20 -486 -5 -7 -16 -74 -23 -150 -11 -115 -22 -168 -65 -309
-29 -93 -68 -222 -87 -285 -20 -63 -38 -118 -42 -121 -4 -4 -164 -129 -356
-277 -249 -194 -354 -269 -364 -263 -9 5 -59 -11 -140 -45 -69 -30 -133 -54
-143 -54 -10 0 -19 -4 -21 -8 -1 -5 -372 -162 -823 -350 -616 -257 -830 -342
-860 -342 -58 0 -113 -18 -125 -41 -18 -33 10 -32 91 2 71 30 76 31 132 20 31
-7 90 -23 131 -37 l74 -24 126 40 c69 22 183 58 254 81 70 22 224 71 342 109
234 74 359 114 695 222 121 39 231 73 245 75 14 2 45 -6 70 -19 25 -13 318
-224 651 -469 l605 -446 210 -12 c115 -7 272 -16 349 -21 77 -5 237 -14 355
-20 212 -11 297 -24 515 -75 618 -146 811 -186 938 -195 278 -21 564 -32 887
-34 242 -1 341 -5 357 -14 18 -10 23 -9 31 4 7 12 39 17 163 24 288 17 476 39
744 87 138 25 145 27 505 185 588 258 967 424 1420 622 233 103 427 190 430
195 3 4 23 11 45 14 22 3 173 33 335 66 162 33 483 99 713 146 392 79 421 87
458 116 116 92 115 161 -6 299 -31 36 -62 75 -68 88 -5 12 -15 22 -22 22 -6 0
-116 -38 -245 -84 -129 -46 -476 -170 -770 -275 l-534 -192 -356 11 c-195 7
-425 15 -510 18 l-155 7 -407 565 c-224 311 -467 647 -539 747 -116 163 -133
191 -150 255 -23 91 -23 98 0 98 18 0 16 8 -20 70 -23 39 -51 107 -62 153 -21
76 -24 82 -47 80 -23 -3 -73 82 -728 1235 -386 680 -1042 1833 -1456 2561
l-753 1324 -164 141 c-90 78 -483 416 -874 751 -390 335 -789 677 -885 760
-168 146 -224 184 -1363 943 -653 436 -1189 792 -1191 792 -2 0 -19 -17 -37
-37z m9714 -10670 c-40 -2 -106 -2 -145 0 -40 1 -8 3 72 3 80 0 112 -2 73 -3z
m-670 -10 c-7 -2 -21 -2 -30 0 -10 3 -4 5 12 5 17 0 24 -2 18 -5z"/>
</g>
</svg>
