<?xml version="1.0" standalone="no"?>
<!DOCTYPE svg PUBLIC "-//W3C//DTD SVG 20010904//EN"
 "http://www.w3.org/TR/2001/REC-SVG-20010904/DTD/svg10.dtd">
<svg version="1.0" xmlns="http://www.w3.org/2000/svg"
 width="1280.000000pt" height="1150.000000pt" viewBox="0 0 1280.000000 1150.000000"
 preserveAspectRatio="xMidYMid meet">
<metadata>
Created by potrace 1.15, written by Peter Selinger 2001-2017
</metadata>
<g transform="translate(0.000000,1150.000000) scale(0.100000,-0.100000)"
fill="#000000" stroke="none">
<path d="M5270 11375 c0 -7 211 -72 550 -168 493 -140 654 -201 812 -303 184
-119 266 -276 238 -456 -6 -39 -13 -75 -16 -80 -3 -5 30 9 73 31 242 121 451
162 605 117 119 -34 229 -136 293 -271 14 -30 27 -55 29 -55 2 0 45 9 97 20
495 103 768 -15 840 -364 10 -50 19 -112 19 -137 0 -26 -27 -156 -59 -290 -75
-305 -106 -457 -98 -466 15 -15 135 36 382 162 143 73 316 165 385 204 249
143 380 191 521 191 143 0 245 -45 344 -152 94 -102 171 -266 220 -465 l17
-72 46 -15 c26 -8 80 -22 121 -31 40 -9 88 -22 106 -29 52 -22 111 -82 139
-142 46 -98 57 -164 63 -381 l5 -202 52 27 c46 24 62 27 152 27 98 0 103 -1
185 -42 163 -81 281 -193 620 -588 114 -132 219 -251 235 -265 l28 -25 -16 25
c-194 312 -286 526 -514 1202 -251 744 -356 989 -549 1278 -260 390 -606 629
-1050 725 -44 10 -81 19 -83 20 -2 2 62 110 142 241 79 132 143 240 141 242
-1 2 -142 -60 -311 -137 -170 -77 -310 -138 -312 -136 -2 1 -12 157 -22 345
-10 188 -21 344 -23 346 -2 2 -55 -122 -118 -276 -63 -154 -116 -280 -119
-280 -3 0 -16 25 -29 55 -28 66 -131 181 -210 234 -197 134 -483 222 -896 275
-351 46 -454 49 -1695 52 -652 2 -1220 5 -1262 8 -43 3 -78 3 -78 1z"/>
<path d="M314 10121 c-152 -50 -239 -153 -263 -311 -5 -36 -11 -155 -13 -265
l-3 -200 190 -67 c716 -254 1470 -545 2210 -853 251 -105 882 -374 1026 -438
l56 -26 -9 -58 c-41 -269 -126 -616 -307 -1250 -127 -446 -225 -809 -265 -988
-64 -283 -147 -749 -206 -1155 -37 -259 -39 -270 -51 -270 -13 0 -275 -110
-389 -163 -308 -143 -586 -295 -815 -444 -289 -189 -459 -326 -681 -547 -292
-293 -468 -561 -563 -858 -89 -281 -84 -585 14 -840 283 -732 1317 -1221 2855
-1353 780 -66 1673 -35 2565 90 1297 182 2504 522 3372 949 481 237 812 460
1107 746 l161 156 375 186 c524 261 686 355 905 525 544 423 931 1106 1190
2099 l26 101 -22 64 c-110 323 -387 594 -839 823 -141 72 -363 170 -465 206
-456 162 -707 239 -1440 440 -541 148 -911 259 -1173 352 l-113 40 -82 112
c-218 293 -364 411 -560 453 -175 37 -566 -20 -765 -112 -91 -42 -170 -101
-207 -155 -15 -22 -31 -40 -36 -40 -4 0 -86 42 -181 94 -314 170 -708 376
-1058 554 -190 97 -361 186 -381 198 -25 16 -41 37 -57 76 -150 382 -216 570
-287 823 -48 172 -106 314 -166 402 -241 358 -668 607 -1295 758 -154 37 -448
87 -614 105 -106 11 -390 27 -390 22 0 -1 56 -64 124 -140 279 -308 496 -589
664 -864 92 -151 122 -211 122 -247 l0 -29 -257 115 c-897 401 -1930 821
-2883 1173 -74 27 -75 27 -126 11z m6101 -3501 c220 -106 446 -214 503 -241
56 -27 102 -51 102 -54 0 -26 -35 -165 -47 -189 -13 -24 -14 -49 -9 -124 9
-127 22 -185 62 -268 70 -148 211 -243 474 -319 69 -20 135 -43 148 -51 18
-12 277 -386 269 -389 -1 0 -230 1 -508 3 l-505 4 -52 101 c-28 56 -133 255
-232 442 -172 323 -651 1249 -666 1288 -9 24 -33 34 461 -203z"/>
</g>
</svg>
