<?xml version="1.0" standalone="no"?>
<!DOCTYPE svg PUBLIC "-//W3C//DTD SVG 20010904//EN"
 "http://www.w3.org/TR/2001/REC-SVG-20010904/DTD/svg10.dtd">
<svg version="1.0" xmlns="http://www.w3.org/2000/svg"
 width="1280.000000pt" height="640.000000pt" viewBox="0 0 1280.000000 640.000000"
 preserveAspectRatio="xMidYMid meet">
<metadata>
Created by potrace 1.15, written by Peter Selinger 2001-2017
</metadata>
<g transform="translate(0.000000,640.000000) scale(0.100000,-0.100000)"
fill="#000000" stroke="none">
<path d="M6925 5519 c-334 -14 -785 -53 -1040 -90 -362 -52 -639 -132 -875
-253 -63 -32 -86 -49 -88 -65 -3 -20 -395 -440 -682 -732 l-95 -97 -595 -67
c-329 -37 -630 -76 -673 -87 -148 -37 -228 -76 -435 -211 l-124 -80 -161 -14
c-464 -38 -1430 -164 -1523 -198 -108 -40 -310 -201 -345 -274 -40 -84 -36
-205 12 -381 28 -104 69 -163 150 -218 93 -63 99 -69 99 -100 0 -27 -4 -30
-118 -66 -125 -41 -172 -65 -221 -118 -38 -41 -46 -64 -32 -92 22 -40 72 -63
164 -76 49 -7 90 -17 92 -24 2 -6 11 -47 20 -91 26 -122 43 -161 94 -214 55
-57 227 -144 381 -194 52 -17 97 -34 100 -38 3 -5 27 -18 54 -30 38 -16 63
-20 118 -17 l69 3 39 -102 c106 -280 225 -413 432 -478 72 -23 95 -25 251 -25
216 0 442 22 502 49 91 40 188 134 272 265 l38 60 63 -3 c49 -2 63 1 68 13 12
32 41 18 53 -26 23 -79 63 -109 151 -113 33 -1 67 -8 76 -16 16 -13 13 -15
-27 -20 -24 -3 6 -4 66 -2 61 2 189 5 285 6 l175 4 -165 -7 c-143 -6 -291 -25
-223 -29 18 -1 29 -15 52 -65 34 -76 92 -163 154 -230 25 -28 43 -54 41 -58
-3 -5 -8 -7 -12 -4 -4 2 -27 0 -52 -3 -25 -4 137 -10 360 -14 223 -4 655 -12
960 -18 l554 -11 346 42 c190 23 404 50 475 60 72 11 481 65 910 120 429 56
812 105 850 110 39 5 111 15 160 21 50 6 92 13 95 16 3 3 -22 3 -55 -1 -84 -9
-155 -14 -126 -9 28 5 229 203 293 288 52 69 128 195 147 242 l13 32 127 4
c69 1 -12 3 -182 2 -169 0 -307 3 -307 6 0 4 26 9 58 13 202 23 572 86 615
106 56 25 306 64 357 56 19 -4 46 -7 60 -9 16 -1 26 -10 30 -27 7 -26 8 -26
81 -14 20 3 46 1 56 -5 28 -14 61 11 68 52 6 30 13 35 78 60 43 15 122 32 197
42 69 9 204 29 300 45 266 44 240 48 270 -35 38 -102 78 -178 136 -253 54 -71
148 -143 211 -162 65 -19 580 -50 643 -38 254 46 446 389 476 851 6 96 9 106
28 111 12 3 100 39 196 80 173 74 175 75 220 133 24 32 90 112 146 179 186
222 262 338 300 458 29 93 40 221 20 233 -8 5 -21 70 -35 176 -25 183 -59 329
-94 391 -42 77 -19 74 -713 97 l-618 20 -106 78 c-293 217 -579 390 -925 561
-280 139 -499 229 -740 305 -374 118 -705 185 -1060 215 -139 11 -1179 11
-1460 -1z m-2497 -2135 c90 -44 157 -146 169 -256 5 -50 4 -52 -10 -33 -15 19
-16 16 -17 -41 0 -33 -9 -93 -19 -133 -22 -83 -57 -128 -128 -161 -66 -31 -74
-23 -13 13 l55 32 -42 3 -43 3 26 41 c14 22 24 42 21 44 -2 3 -49 0 -103 -5
-69 -6 -101 -6 -106 2 -3 6 17 37 45 69 l52 59 118 -6 117 -6 0 51 0 50 -62 0
c-43 0 -67 5 -80 17 -17 15 -20 15 -41 -5 -31 -29 -95 -29 -192 -1 l-74 22 16
23 c14 22 23 24 102 25 47 1 100 5 116 8 29 7 28 8 -17 15 -59 10 -54 22 13
31 28 4 47 10 42 14 -4 4 -51 20 -103 36 -52 15 -98 30 -103 32 -10 6 44 50
77 62 16 7 43 7 71 2 38 -7 44 -6 34 5 -19 23 21 17 79 -12z m-3799 -60 c19
-6 22 -4 16 6 -5 8 7 4 27 -8 19 -12 38 -20 41 -17 4 3 5 2 3 -1 -2 -3 7 -16
20 -29 22 -22 24 -32 23 -102 -1 -61 -3 -70 -9 -43 -5 25 -8 29 -9 11 -1 -20
-5 -23 -32 -19 -21 3 -33 0 -39 -13 -13 -24 -53 -31 -126 -23 -62 6 -63 7 -49
27 21 30 19 51 -9 85 -17 19 -23 36 -19 50 5 22 37 30 47 13 3 -4 16 -6 29 -4
13 3 40 0 61 -5 37 -11 52 2 16 13 -11 4 -18 11 -15 16 3 5 0 6 -8 3 -15 -5
-30 9 -41 40 -7 19 3 19 73 0z m165 -405 c2 -97 -91 -190 -172 -173 l-37 7 45
7 c25 4 48 6 53 3 4 -2 7 0 7 5 0 5 11 14 24 20 14 6 30 21 36 34 10 20 9 21
-2 7 -16 -19 -79 -39 -124 -39 -31 0 -84 32 -84 51 0 6 5 7 10 4 16 -10 11 1
-7 16 -15 12 -16 12 -8 -1 8 -13 7 -13 -9 -1 -9 8 -15 20 -12 28 3 8 1 11 -4
8 -16 -10 -42 63 -35 95 7 30 33 40 109 40 38 0 124 -18 170 -36 17 -6 18 -3
13 47 l-6 54 16 -65 c9 -36 17 -86 17 -111z m6390 -1177 c4 -8 -322 -47 -330
-39 -5 4 247 44 293 46 17 0 34 -2 37 -7z"/>
<path d="M521 3154 c0 -11 3 -14 6 -6 3 7 2 16 -1 19 -3 4 -6 -2 -5 -13z"/>
<path d="M505 3110 c-4 -6 3 -10 14 -10 25 0 27 6 6 13 -8 4 -17 2 -20 -3z"/>
<path d="M553 3013 c15 -2 39 -2 55 0 15 2 2 4 -28 4 -30 0 -43 -2 -27 -4z"/>
<path d="M490 2999 c0 -5 5 -7 10 -4 6 3 10 8 10 11 0 2 -4 4 -10 4 -5 0 -10
-5 -10 -11z"/>
<path d="M771 2974 c0 -11 3 -14 6 -6 3 7 2 16 -1 19 -3 4 -6 -2 -5 -13z"/>
<path d="M782 2930 c0 -14 2 -19 5 -12 2 6 2 18 0 25 -3 6 -5 1 -5 -13z"/>
<path d="M766 2875 c-9 -26 -7 -32 5 -12 6 10 9 21 6 23 -2 3 -7 -2 -11 -11z"/>
<path d="M567 2819 c7 -7 15 -10 18 -7 3 3 -2 9 -12 12 -14 6 -15 5 -6 -5z"/>
<path d="M613 2803 c9 -2 23 -2 30 0 6 3 -1 5 -18 5 -16 0 -22 -2 -12 -5z"/>
<path d="M3083 1283 c9 -2 23 -2 30 0 6 3 -1 5 -18 5 -16 0 -22 -2 -12 -5z"/>
<path d="M8338 1253 c6 -2 18 -2 25 0 6 3 1 5 -13 5 -14 0 -19 -2 -12 -5z"/>
<path d="M8253 1243 c9 -2 25 -2 35 0 9 3 1 5 -18 5 -19 0 -27 -2 -17 -5z"/>
<path d="M3168 913 c39 -2 105 -2 145 0 39 1 7 3 -73 3 -80 0 -112 -2 -72 -3z"/>
</g>
</svg>
