<?xml version="1.0" standalone="no"?>
<!DOCTYPE svg PUBLIC "-//W3C//DTD SVG 20010904//EN"
 "http://www.w3.org/TR/2001/REC-SVG-20010904/DTD/svg10.dtd">
<svg version="1.0" xmlns="http://www.w3.org/2000/svg"
 width="774.000000pt" height="1280.000000pt" viewBox="0 0 774.000000 1280.000000"
 preserveAspectRatio="xMidYMid meet">
<metadata>
Created by potrace 1.15, written by Peter Selinger 2001-2017
</metadata>
<g transform="translate(0.000000,1280.000000) scale(0.100000,-0.100000)"
fill="#000000" stroke="none">
<path d="M3641 12779 c-14 -24 -14 -24 31 -49 l33 -18 -3 -78 c-3 -77 -2 -80
27 -108 l31 -30 0 -138 c0 -111 3 -140 14 -144 10 -4 17 -32 22 -95 6 -78 9
-89 25 -89 15 0 19 -7 19 -32 0 -27 -6 -36 -32 -49 -69 -34 -85 -126 -32 -189
19 -22 22 -30 11 -30 -10 0 -17 -14 -21 -42 -6 -44 -156 -1053 -246 -1650 -30
-203 -50 -371 -50 -423 0 -78 -2 -85 -20 -85 -18 0 -20 7 -20 75 0 58 -3 75
-14 75 -10 0 -19 20 -26 58 -7 31 -18 86 -25 122 -10 47 -11 68 -3 78 15 17
-5 37 -27 28 -12 -4 -15 -13 -11 -29 3 -12 -4 -73 -16 -136 -18 -89 -26 -115
-40 -119 -16 -4 -18 -17 -18 -93 0 -53 4 -89 10 -89 6 0 10 -133 10 -380 0
-247 -4 -380 -10 -380 -5 0 -10 23 -10 50 0 43 -3 50 -20 50 -22 0 -21 -6 -54
179 -18 99 -21 139 -13 151 23 38 -24 70 -52 36 -9 -11 -9 -19 0 -34 10 -16 8
-45 -10 -153 -31 -181 -30 -179 -52 -179 -17 0 -19 -9 -19 -105 0 -63 4 -105
10 -105 6 0 10 -115 10 -326 l0 -325 -22 3 c-21 3 -23 9 -24 68 -1 58 -3 65
-22 68 -22 3 -21 -1 -63 211 -17 88 -20 118 -11 132 16 25 5 49 -23 49 -34 0
-52 -26 -32 -48 14 -15 12 -30 -14 -157 -39 -192 -37 -185 -59 -185 -19 0 -20
-7 -20 -125 0 -77 4 -125 10 -125 7 0 10 -343 10 -1010 l0 -1010 -110 0 -110
0 0 60 0 60 -100 0 -100 0 0 -100 0 -100 -80 0 -80 0 0 55 0 55 -100 0 -100 0
0 -95 0 -95 -110 0 -110 0 0 925 c0 610 3 925 10 925 6 0 10 40 10 100 0 80
-3 100 -14 100 -22 0 -24 7 -52 145 -21 104 -23 129 -13 142 11 13 10 17 -6
29 -16 12 -21 12 -34 -1 -12 -11 -13 -20 -5 -32 16 -26 -36 -277 -59 -281 -13
-3 -17 -14 -17 -53 0 -42 -3 -49 -20 -49 -19 0 -20 7 -20 260 0 167 4 260 10
260 6 0 10 35 10 84 0 72 -2 84 -18 88 -14 4 -22 29 -39 129 -16 91 -19 127
-11 137 8 10 7 17 -5 30 -16 15 -18 15 -34 0 -12 -13 -14 -20 -5 -30 8 -11 6
-46 -11 -141 -18 -105 -25 -127 -39 -127 -13 0 -18 -11 -21 -47 -3 -27 -4 124
-3 335 2 306 0 384 -11 390 -16 9 -53 186 -42 203 10 17 2 29 -18 29 -10 0
-14 -6 -10 -19 8 -30 -31 -204 -48 -214 -10 -5 -15 -25 -15 -62 0 -42 -4 -55
-15 -55 -12 0 -15 15 -15 73 0 82 -238 1700 -251 1705 -5 2 1 17 13 33 30 40
17 95 -29 124 -29 18 -32 25 -33 66 0 33 5 49 15 53 20 7 20 60 0 76 -9 8 -15
30 -15 56 0 37 -3 44 -20 44 -17 0 -20 -7 -20 -40 0 -26 -8 -51 -22 -70 l-22
-30 22 -30 c14 -18 22 -43 22 -67 -1 -32 -6 -41 -33 -58 -51 -32 -61 -99 -22
-138 8 -9 11 -17 5 -19 -9 -3 -28 -126 -175 -1113 -35 -242 -69 -467 -75 -501
-5 -33 -10 -84 -10 -112 0 -71 -18 -66 -22 6 -2 39 -7 56 -15 55 -7 -2 -13 -1
-13 1 0 2 -9 46 -19 98 -11 52 -17 105 -14 117 5 18 2 22 -12 20 -14 -3 -19
-16 -21 -59 -5 -75 -28 -175 -41 -173 -6 1 -8 -129 -5 -384 4 -287 2 -384 -7
-379 -6 4 -11 25 -11 47 0 26 -4 39 -13 39 -19 0 -62 243 -47 269 7 14 6 22
-4 30 -27 22 -61 -9 -37 -34 5 -6 1 -53 -10 -115 -26 -144 -27 -150 -44 -150
-12 0 -15 -17 -15 -85 0 -50 4 -85 10 -85 6 0 10 -93 10 -260 0 -253 -1 -260
-20 -260 -17 0 -20 7 -20 49 0 39 -4 50 -18 53 -25 7 -76 252 -59 280 9 14 8
21 -6 35 -16 16 -18 16 -34 0 -14 -13 -15 -21 -7 -35 17 -27 -35 -276 -59
-280 -15 -3 -17 -16 -17 -103 0 -59 4 -99 10 -99 7 0 10 -1263 10 -3770 l0
-3770 3850 0 3850 0 0 3770 c0 2507 3 3770 10 3770 6 0 10 40 10 99 0 87 -2
100 -17 103 -24 4 -76 253 -59 280 8 14 7 21 -5 33 -13 13 -18 13 -33 2 -15
-11 -16 -18 -8 -33 7 -14 3 -53 -16 -148 -20 -103 -29 -130 -44 -134 -14 -3
-18 -14 -18 -53 0 -42 -3 -49 -20 -49 -19 0 -20 7 -20 260 0 167 4 260 10 260
6 0 10 35 10 85 0 68 -3 85 -15 85 -17 0 -19 7 -44 150 -14 79 -16 109 -7 123
9 14 8 20 -4 27 -23 15 -35 6 -34 -26 1 -16 -7 -81 -17 -145 -10 -64 -19 -119
-19 -123 0 -3 -7 -6 -15 -6 -11 0 -15 -11 -15 -39 0 -22 -5 -43 -11 -47 -9 -5
-11 92 -7 379 3 255 1 385 -5 384 -13 -2 -36 98 -41 173 -2 43 -7 56 -21 59
-14 2 -17 -2 -12 -20 3 -12 -3 -65 -14 -117 -10 -52 -19 -96 -19 -98 0 -2 -6
-3 -12 -1 -9 1 -14 -16 -16 -55 -4 -72 -22 -77 -22 -6 0 28 -5 79 -10 112 -6
34 -40 259 -75 501 -147 987 -166 1110 -175 1113 -6 2 -3 10 5 19 39 39 29
106 -22 138 -27 17 -32 26 -33 58 0 24 8 49 22 67 l22 30 -22 30 c-14 19 -22
44 -22 70 0 33 -3 40 -20 40 -17 0 -20 -7 -20 -44 0 -26 -6 -48 -15 -56 -8 -7
-15 -26 -15 -42 0 -16 6 -31 15 -34 10 -4 15 -21 15 -54 0 -40 -4 -50 -21 -55
-24 -8 -59 -61 -59 -91 0 -12 9 -33 20 -47 11 -14 16 -27 11 -29 -13 -5 -251
-1622 -251 -1705 0 -58 -3 -73 -15 -73 -11 0 -15 13 -15 55 0 37 -5 57 -15 62
-17 10 -56 184 -48 214 4 13 0 19 -10 19 -20 0 -28 -12 -18 -29 11 -17 -26
-194 -42 -203 -11 -6 -13 -84 -11 -390 1 -211 0 -362 -3 -337 -3 34 -9 48 -21
51 -24 7 -68 244 -50 265 9 11 7 18 -5 31 -16 15 -18 15 -34 0 -12 -13 -14
-20 -5 -30 8 -11 6 -46 -11 -141 -18 -106 -25 -127 -39 -127 -16 0 -18 -10
-18 -85 0 -50 4 -85 10 -85 6 0 10 -93 10 -260 0 -253 -1 -260 -20 -260 -17 0
-20 7 -20 49 0 39 -4 50 -17 53 -23 4 -75 255 -59 281 8 12 7 21 -5 32 -13 13
-18 13 -34 1 -16 -12 -17 -16 -6 -29 10 -13 8 -38 -13 -142 -28 -138 -30 -145
-52 -145 -11 0 -14 -20 -14 -100 0 -60 4 -100 10 -100 7 0 10 -315 10 -925 l0
-925 -110 0 -110 0 0 95 0 95 -100 0 -100 0 0 -55 0 -55 -80 0 -80 0 0 100 0
100 -100 0 -100 0 0 -60 0 -60 -110 0 -110 0 0 1010 c0 667 3 1010 10 1010 6
0 10 48 10 125 0 118 -1 125 -20 125 -22 0 -20 -9 -59 187 -25 127 -26 143
-13 157 13 12 13 18 2 30 -16 20 -56 21 -64 1 -3 -9 -1 -24 6 -34 9 -14 6 -44
-11 -132 -42 -212 -41 -209 -61 -209 -17 0 -19 -9 -22 -67 -3 -62 -5 -68 -25
-71 l-23 -3 0 325 c0 211 4 326 10 326 6 0 10 42 10 105 0 96 -2 105 -19 105
-22 0 -21 -2 -52 179 -18 108 -20 137 -10 153 9 15 9 23 0 34 -28 34 -75 2
-52 -35 8 -13 3 -59 -16 -172 -25 -144 -28 -154 -50 -157 -21 -3 -23 -8 -19
-53 2 -34 -1 -49 -9 -49 -10 0 -13 83 -13 380 0 247 4 380 10 380 6 0 10 36
10 89 0 76 -2 89 -18 93 -13 4 -22 30 -39 119 -13 63 -20 124 -17 136 4 16 1
25 -11 29 -22 9 -42 -11 -27 -28 8 -10 7 -31 -3 -78 -7 -36 -18 -91 -25 -122
-7 -38 -16 -58 -26 -58 -11 0 -14 -17 -14 -75 0 -68 -2 -75 -20 -75 -18 0 -20
7 -20 85 0 52 -20 220 -50 423 -90 597 -240 1606 -246 1650 -4 28 -11 42 -21
42 -11 0 -8 8 11 30 53 63 37 155 -32 189 -27 14 -32 22 -32 52 0 21 7 42 15
49 11 9 15 33 15 86 0 43 4 74 10 74 6 0 10 41 10 102 l0 102 37 -74 c47 -96
55 -69 18 57 -33 108 -48 133 -80 133 -23 0 -25 4 -25 49 0 33 -6 56 -19 72
-19 23 -21 23 -48 8 -28 -15 -28 -15 -88 39 -33 30 -67 65 -75 78 -16 23 -16
23 -29 3z m385 -5887 c22 -11 57 -39 77 -61 67 -74 67 -78 67 -708 l0 -563
-255 0 -255 0 0 578 0 577 24 50 c34 74 87 120 166 146 40 13 133 3 176 -19z
m-3241 -633 c56 -15 104 -54 126 -103 17 -37 19 -70 19 -353 l0 -313 -190 0
-190 0 0 315 c0 291 2 319 19 353 26 51 61 81 112 97 55 17 56 17 104 4z
m6271 -4 c52 -15 91 -49 118 -102 14 -27 16 -77 16 -348 l0 -315 -190 0 -190
0 0 313 c0 283 2 316 19 353 28 62 82 97 172 113 3 1 28 -6 55 -14z m-3030
-1243 c22 -11 57 -39 77 -61 69 -76 67 -50 67 -973 l0 -828 -255 0 -255 0 0
843 0 842 24 50 c34 74 87 120 166 146 40 13 133 3 176 -19z m-3200 -32 c24
-12 54 -39 70 -62 l29 -41 3 -324 3 -323 -191 0 -191 0 3 323 3 324 27 40 c51
77 158 104 244 63z m6251 5 c50 -21 72 -42 94 -90 17 -36 19 -71 19 -352 l0
-313 -190 0 -190 0 0 310 c0 337 2 350 56 404 56 56 138 71 211 41z m-4709
-91 c91 -45 139 -136 129 -245 -18 -201 -234 -291 -376 -156 -49 47 -71 100
-71 177 0 185 164 301 318 224z m3163 15 c95 -29 159 -125 159 -239 0 -77 -22
-130 -71 -177 -142 -135 -358 -45 -376 156 -10 109 38 200 129 245 57 28 100
32 159 15z m-4705 -1039 c24 -12 54 -39 70 -62 l29 -41 3 -339 3 -338 -191 0
-191 0 3 338 3 338 27 41 c51 77 158 104 244 63z m1534 0 c50 -25 86 -73 99
-130 6 -26 11 -176 11 -347 l0 -303 -195 0 -195 0 0 323 c0 292 2 326 19 362
47 102 164 145 261 95z m3217 -16 c21 -17 48 -50 61 -74 21 -43 22 -52 22
-367 l0 -323 -195 0 -195 0 0 303 c0 171 5 321 11 347 22 98 95 152 196 147
52 -2 69 -8 100 -33z m1500 21 c50 -21 72 -42 94 -90 17 -36 19 -71 19 -367
l0 -328 -190 0 -190 0 0 325 c0 353 1 364 56 419 56 56 138 71 211 41z m-6242
-1217 c39 -21 61 -45 80 -91 12 -30 15 -93 15 -377 l0 -340 -190 0 -190 0 0
345 c0 326 1 348 20 385 49 95 165 130 265 78z m6282 -14 c18 -14 42 -43 53
-64 19 -37 20 -59 20 -385 l0 -345 -190 0 -191 0 3 353 3 353 27 42 c60 90
189 112 275 46z m-4750 -58 c209 -98 156 -445 -72 -464 -76 -6 -134 17 -185
75 -66 75 -80 185 -36 278 56 120 176 165 293 111z m3176 9 c115 -48 174 -183
137 -316 -15 -52 -82 -124 -135 -145 -216 -82 -396 190 -254 385 55 76 169
111 252 76z m-1515 -68 c50 -24 97 -74 121 -126 14 -32 16 -127 19 -888 l3
-853 -256 0 -255 0 0 840 c0 821 0 840 20 894 20 53 70 109 120 136 60 32 159
30 228 -3z m-1653 -852 c61 -27 117 -82 147 -144 23 -45 23 -53 26 -458 l3
-413 -301 0 -301 0 3 408 c3 400 3 408 26 457 42 91 117 152 212 171 69 14
121 8 185 -21z m3180 20 c83 -14 167 -83 207 -170 23 -49 23 -57 26 -457 l3
-408 -301 0 -301 0 3 413 c3 405 3 413 26 458 25 52 82 113 127 137 34 18 133
42 155 37 8 -2 33 -6 55 -10z m-4747 -210 c47 -20 79 -50 103 -97 18 -34 19
-63 19 -383 l0 -345 -190 0 -191 0 3 358 3 358 25 36 c52 77 146 107 228 73z
m6295 -16 c19 -13 45 -39 58 -58 l24 -35 3 -358 3 -358 -191 0 -190 0 0 345
c0 320 1 349 19 383 54 104 180 142 274 81z"/>
</g>
</svg>
