<?xml version="1.0" standalone="no"?>
<!DOCTYPE svg PUBLIC "-//W3C//DTD SVG 20010904//EN"
 "http://www.w3.org/TR/2001/REC-SVG-20010904/DTD/svg10.dtd">
<svg version="1.0" xmlns="http://www.w3.org/2000/svg"
 width="1280.000000pt" height="743.000000pt" viewBox="0 0 1280.000000 743.000000"
 preserveAspectRatio="xMidYMid meet">
<metadata>
Created by potrace 1.15, written by Peter Selinger 2001-2017
</metadata>
<g transform="translate(0.000000,743.000000) scale(0.100000,-0.100000)"
fill="#000000" stroke="none">
<path d="M7 7423 c-4 -3 -7 -96 -7 -204 l0 -199 50 -25 50 -25 0 -169 0 -168
40 -18 40 -18 0 -2878 0 -2878 -40 -22 -40 -23 0 -165 0 -166 -48 -25 -47 -25
0 -205 0 -205 1150 -3 1151 -2 56 50 c51 46 60 50 106 50 82 0 82 -1 82 273 0
230 1 237 20 237 19 0 20 -7 20 -255 l0 -255 1895 0 1895 0 -2 2832 -3 2833
-80 0 c-74 0 -80 -2 -83 -21 -3 -23 22 -30 -319 92 l-73 26 0 124 0 124 -35 0
-35 0 0 -111 c0 -110 0 -110 -22 -103 -13 4 -140 49 -283 99 l-260 93 -3 111
-3 111 -39 0 -40 0 0 -96 c0 -73 -3 -95 -12 -91 -11 4 -449 160 -530 189 -28
10 -28 11 -28 94 l0 84 -35 0 -35 0 0 -79 c0 -49 -4 -83 -11 -87 -7 -4 -134
-50 -283 -104 l-271 -97 -3 93 -3 94 -39 0 -40 0 0 -109 0 -108 -280 -100
c-154 -55 -282 -97 -285 -95 -3 3 -5 52 -5 109 l0 104 -37 -3 -38 -3 -3 -122
c-1 -68 -4 -123 -5 -123 -1 0 -81 -28 -178 -63 l-175 -63 -29 18 c-23 14 -47
18 -105 16 l-75 -3 -3 -217 c-2 -210 -3 -218 -22 -218 -18 0 -20 7 -20 75 0
88 -7 95 -99 95 l-61 0 0 490 0 490 35 0 35 0 0 174 0 175 43 3 42 3 2 195 2
195 -119 103 -119 102 -1149 0 c-632 0 -1152 -3 -1155 -7z m4453 -1291 c0 -98
-8 -108 -29 -41 -14 44 -38 67 -86 83 l-37 13 69 25 c37 14 71 24 76 21 4 -2
7 -48 7 -101z m158 81 l77 -28 -38 -6 c-45 -7 -83 -40 -108 -94 l-18 -40 0 98
c-1 53 2 97 5 97 3 0 40 -12 82 -27z m-259 -63 c51 -26 76 -87 76 -185 0 -94
-24 -157 -73 -185 -58 -34 -122 -14 -122 39 0 51 45 69 73 29 13 -19 16 -20
16 -6 1 18 -35 48 -56 48 -23 0 -53 -39 -53 -68 0 -36 33 -72 67 -72 38 0 28
-5 -80 -44 l-96 -35 9 24 c10 27 -2 74 -23 87 -23 14 -56 8 -71 -14 -21 -29
-13 -35 13 -9 45 45 98 -23 54 -71 -21 -24 -79 -23 -119 1 -61 37 -86 199 -44
295 31 73 106 107 158 70 26 -18 29 -56 6 -78 -21 -22 -40 -20 -58 6 -9 12
-18 20 -21 17 -2 -3 2 -15 11 -27 18 -26 65 -30 84 -6 31 36 2 114 -42 114
-38 0 -15 16 65 44 122 43 114 41 100 25 -32 -33 1 -109 46 -109 24 0 51 26
50 48 0 14 -3 13 -16 -5 -18 -26 -58 -30 -67 -7 -17 44 -2 77 39 87 33 8 34 8
74 -13z m379 -8 c15 -19 15 -37 2 -63 -14 -26 -60 -26 -67 1 -3 11 -9 20 -14
20 -15 0 -10 -19 12 -41 22 -22 66 -20 81 4 12 19 9 82 -4 95 -12 12 169 -49
201 -68 13 -8 11 -9 -9 -10 -44 0 -70 -26 -70 -70 0 -41 26 -70 62 -70 16 0
48 35 48 52 0 17 -18 7 -23 -12 -8 -30 -54 -27 -69 5 -9 19 -8 29 5 49 31 46
103 41 148 -10 55 -64 55 -254 0 -318 -65 -74 -183 -44 -151 39 12 32 59 35
67 5 3 -11 9 -20 14 -20 13 0 11 13 -7 38 -18 26 -41 28 -73 6 -20 -14 -23
-23 -18 -61 3 -31 1 -43 -7 -40 -6 2 -54 19 -106 38 -88 31 -92 34 -62 40 46
9 62 27 62 68 0 47 -9 59 -47 67 -24 5 -34 2 -46 -17 -9 -12 -13 -27 -10 -32
3 -6 10 -1 14 11 12 32 56 30 71 -3 28 -61 -48 -106 -115 -68 -50 29 -76 93
-77 185 0 95 24 158 72 188 38 24 95 20 116 -8z m-804 -107 c-9 -13 -22 -44
-29 -67 l-14 -43 0 56 c-1 58 -4 54 57 78 1 1 -5 -10 -14 -24z m1135 14 c29
-10 31 -14 30 -57 l-1 -47 -15 35 c-8 19 -24 45 -36 58 -23 25 -22 26 22 11z
m250 -94 c2 -3 -3 -5 -13 -5 -39 0 -78 -32 -101 -83 l-24 -52 0 97 -1 98 67
-25 c37 -14 69 -28 72 -30z m-1509 -47 l-1 -93 -23 48 c-26 54 -47 73 -91 85
-30 8 -29 9 30 29 33 12 66 22 73 22 9 1 12 -24 12 -91z m-89 9 c40 -27 55
-56 69 -128 14 -73 -4 -173 -39 -213 -44 -50 -134 -57 -150 -13 -22 59 34 103
71 55 11 -14 18 -18 18 -9 0 20 -30 51 -49 51 -9 0 -27 -7 -39 -16 -46 -32
-16 -124 40 -124 35 0 10 -14 -75 -44 -43 -15 -85 -30 -94 -33 -13 -5 -14 -3
-3 16 16 32 3 80 -26 93 -33 15 -74 -4 -74 -34 l0 -22 16 22 c18 25 59 29 68
6 10 -26 7 -61 -6 -72 -7 -5 -28 -13 -46 -17 -26 -5 -41 -2 -70 18 -97 64 -94
307 4 368 56 34 124 13 124 -40 0 -51 -46 -69 -74 -29 -13 18 -16 19 -16 6 0
-21 26 -48 46 -48 29 0 52 20 59 49 8 39 -9 69 -48 86 -18 8 -29 14 -26 15 4
0 47 15 97 34 l90 33 -5 -32 c-7 -41 10 -73 43 -81 27 -7 64 18 64 43 0 21
-17 15 -23 -8 -4 -15 -12 -20 -33 -17 -52 6 -48 84 6 99 40 11 45 10 81 -14z
m1637 12 c34 -11 45 -39 32 -75 -12 -31 -55 -33 -70 -3 -7 11 -14 18 -17 15
-11 -10 28 -56 47 -56 11 0 30 10 41 21 17 17 20 30 16 59 l-5 38 95 -34 c51
-19 97 -34 101 -35 4 0 -9 -5 -28 -12 -45 -16 -64 -52 -49 -96 19 -54 91 -54
96 0 l3 24 -12 -22 c-13 -27 -62 -32 -72 -7 -20 53 3 86 62 88 83 2 133 -75
131 -203 -1 -125 -60 -210 -137 -197 -44 7 -62 23 -62 55 0 51 46 69 74 29 13
-18 16 -19 16 -6 0 26 -30 50 -54 44 -12 -3 -24 -6 -28 -6 -14 0 -27 -61 -18
-85 5 -14 8 -25 7 -25 -10 0 -179 60 -194 69 -16 9 -15 10 10 11 36 0 67 33
67 70 0 34 -30 70 -58 70 -23 0 -56 -34 -50 -52 3 -8 9 -5 17 10 17 32 59 30
72 -4 22 -59 -47 -100 -114 -68 -54 26 -80 87 -80 189 0 95 21 148 72 182 39
26 46 27 89 12z m-902 -124 c-2 -7 -18 -17 -36 -23 l-31 -11 21 26 c11 14 20
29 20 34 0 4 5 20 12 36 l12 28 4 -39 c2 -21 1 -44 -2 -51z m99 38 c3 -16 16
-38 27 -50 24 -26 23 -27 -21 -12 -28 10 -31 15 -31 56 0 47 13 51 25 6z
m-1281 -70 c-32 -62 -34 -63 -34 -14 0 34 4 43 23 51 35 14 36 13 11 -37z
m2450 37 c24 -9 26 -15 26 -62 l-1 -53 -19 48 c-10 27 -24 55 -30 63 -15 17
-10 17 24 4z m-1807 -68 c15 -42 63 -84 106 -93 9 -2 -17 -16 -58 -31 l-75
-26 1 111 c0 62 3 105 5 97 3 -8 12 -34 21 -58z m1181 -148 c-2 -1 -37 9 -78
24 -69 24 -72 27 -45 32 49 10 75 32 98 83 l22 48 3 -92 c1 -50 1 -93 0 -95z
m-1938 84 l0 -93 -19 41 c-19 42 -57 78 -94 90 -18 6 -11 11 38 29 33 13 63
23 68 24 4 0 7 -41 7 -91z m2736 72 c32 -11 63 -26 69 -32 7 -8 6 -9 -2 -4
-15 8 -61 -14 -86 -42 -10 -11 -27 -42 -37 -68 l-19 -49 -1 108 c0 59 4 107 8
107 5 0 35 -9 68 -20z m-1436 -785 l0 -745 -285 0 -285 0 0 644 0 644 113 41
c61 22 184 68 272 100 88 33 166 60 173 60 9 1 12 -154 12 -744z m365 646
l270 -98 3 -646 2 -647 -285 0 -285 0 0 745 c0 590 3 745 13 745 6 -1 134 -45
282 -99z m-1736 63 c60 -50 78 -197 36 -297 -39 -93 -175 -105 -175 -16 0 22
7 32 26 41 23 11 28 9 45 -12 13 -18 19 -20 19 -9 0 38 -58 53 -92 22 -35 -32
-9 -113 37 -113 37 0 7 -18 -85 -51 l-100 -37 2 220 3 220 65 24 c36 13 66 24
67 24 1 0 0 -13 -3 -30 -9 -41 18 -80 54 -80 31 0 52 16 52 39 0 11 -5 9 -20
-7 -24 -25 -25 -25 -51 -12 -23 13 -26 62 -3 84 25 25 87 20 123 -10z m2929
10 c14 -9 22 -26 22 -43 0 -51 -46 -69 -74 -29 -11 16 -16 18 -16 7 0 -44 70
-54 96 -14 15 24 15 38 -1 76 -5 14 10 11 79 -14 l86 -31 0 -218 c0 -120 -3
-218 -7 -218 -5 0 -56 17 -115 37 l-107 38 31 15 c40 19 54 59 36 97 -21 45
-98 41 -98 -5 0 -12 5 -11 20 6 25 26 33 27 54 6 23 -22 20 -71 -3 -84 -26
-14 -74 -13 -107 2 -64 30 -95 195 -56 298 29 75 107 111 160 74z m-2208 -78
c0 -39 -3 -45 -28 -54 l-27 -9 25 53 c14 29 26 53 28 53 1 1 2 -19 2 -43z
m1436 -62 c16 -12 13 -12 -20 1 -21 8 -40 15 -42 15 -2 0 -4 21 -4 48 l1 47
23 -48 c13 -27 32 -55 42 -63z m501 -181 c-3 -2 -31 6 -63 17 -33 12 -66 24
-74 27 -9 3 0 10 25 18 49 17 80 52 97 108 13 41 13 40 16 -62 1 -57 1 -105
-1 -108z m-2479 145 c22 -50 39 -66 88 -83 l37 -12 -64 -22 c-34 -11 -69 -21
-76 -21 -10 0 -13 23 -13 90 0 50 2 90 5 90 2 0 13 -19 23 -42z m542 -658 l0
-630 -285 0 -285 0 2 527 3 528 280 102 c154 56 281 102 283 103 1 0 2 -283 2
-630z m1651 530 c140 -51 262 -96 272 -101 16 -9 17 -45 17 -534 l0 -525 -285
0 -285 0 0 631 c0 532 2 630 14 626 7 -3 128 -47 267 -97z m399 -31 l16 -37
-28 10 c-26 9 -28 14 -27 61 0 46 2 49 11 27 6 -14 18 -41 28 -61z m-2712 -20
c-7 -5 -19 -9 -27 -9 -11 0 -11 3 2 18 8 9 19 31 24 47 l8 30 3 -39 c2 -24 -2
-42 -10 -47z m12 -599 l0 -510 -180 0 -180 0 2 447 3 448 170 62 c94 34 173
62 178 63 4 0 7 -229 7 -510z m2866 445 c98 -36 179 -65 181 -65 2 0 3 -200 3
-445 l0 -445 -195 0 -195 0 0 510 c0 434 2 510 14 510 8 0 94 -29 192 -65z
m-3436 -2200 c0 -1928 0 -1935 -20 -1935 -20 0 -20 7 -20 1935 0 1928 0 1935
20 1935 20 0 20 -7 20 -1935z m1305 1135 c-28 -11 -47 -36 -43 -56 5 -25 28
-30 28 -5 0 22 35 51 61 51 10 0 28 -13 42 -30 49 -58 7 -161 -71 -175 -43 -7
-62 0 -223 88 -104 56 -107 57 -188 57 -98 0 -124 -12 -228 -99 l-72 -61 -200
0 -201 0 0 120 0 120 558 -1 c306 0 548 -4 537 -9z m173 -29 c-28 -34 -34 -37
-42 -23 -5 9 -18 27 -29 40 l-20 22 62 0 62 0 -33 -39z m735 29 c-27 -11 -42
-37 -36 -61 7 -25 23 -24 23 0 0 24 36 51 66 51 32 0 64 -45 64 -90 0 -27 -9
-47 -36 -78 l-36 -42 -353 0 -353 0 -36 42 c-27 31 -36 51 -36 78 0 45 32 90
64 90 33 0 69 -29 63 -51 -3 -12 0 -19 10 -19 26 0 12 62 -17 77 -21 10 34 13
305 12 198 0 321 -4 308 -9z m184 -20 c-14 -16 -28 -35 -31 -42 -5 -11 -7 -11
-12 0 -3 7 -17 26 -31 42 l-25 30 62 0 62 0 -25 -30z m1223 -90 l0 -120 -212
0 -213 0 -70 61 c-102 87 -128 99 -226 99 -81 0 -84 -1 -188 -57 -161 -88
-180 -95 -223 -88 -54 10 -98 64 -94 117 4 42 38 88 66 88 25 0 60 -29 60 -51
0 -25 17 -25 25 1 7 23 -9 48 -40 60 -11 5 235 9 548 9 l567 1 0 -120z m-2600
-4 c25 -12 89 -46 143 -74 116 -62 166 -68 216 -26 17 14 39 39 48 55 10 16
20 29 23 29 3 0 14 -16 25 -36 41 -77 24 -74 430 -74 406 0 389 -3 430 74 22
40 31 44 39 19 3 -10 20 -33 36 -50 61 -65 118 -58 289 36 122 67 132 71 194
71 81 0 119 -16 199 -83 35 -29 74 -61 88 -70 24 -16 20 -17 -103 -17 -102 0
-133 3 -153 16 -35 24 -74 6 -74 -34 0 -15 5 -33 12 -40 17 -17 53 -15 68 3
10 12 39 15 143 15 126 0 130 -1 107 -17 -14 -9 -53 -40 -87 -70 -77 -67 -115
-83 -199 -83 -63 0 -72 3 -196 71 -168 92 -227 101 -284 41 -14 -15 -32 -40
-38 -55 l-13 -29 -26 45 c-47 80 -31 77 -434 77 -402 0 -383 4 -429 -76 l-26
-45 -17 29 c-63 112 -118 120 -268 40 -182 -97 -184 -97 -249 -98 -78 0 -123
19 -199 84 -33 29 -71 60 -85 69 -23 16 -19 17 107 17 104 0 133 -3 143 -15
15 -18 51 -20 68 -3 18 18 14 53 -9 74 -20 18 -22 18 -51 1 -24 -14 -55 -17
-156 -17 -122 0 -125 1 -102 17 14 9 51 39 82 66 81 69 121 86 198 86 48 0 77
-6 110 -23z m-333 -280 c108 -88 127 -96 224 -96 81 0 83 1 188 57 156 85 177
93 214 86 47 -9 63 -19 86 -57 16 -25 19 -42 15 -67 -8 -39 -40 -79 -64 -79
-25 0 -60 29 -60 51 0 27 -24 19 -28 -8 -2 -13 7 -29 24 -42 l27 -21 -552 0
-551 0 0 120 0 119 200 0 199 0 78 -63z m2931 -58 l3 -118 -561 0 -561 0 27
23 c20 18 25 29 20 45 -9 27 -26 29 -26 2 0 -27 -43 -54 -75 -46 -44 11 -65
85 -40 136 20 38 46 57 90 63 35 6 54 -1 182 -68 l142 -75 81 0 c96 0 123 12
225 99 l70 61 210 -3 210 -2 3 -117z m-1324 70 c27 -31 36 -51 36 -78 0 -45
-32 -90 -64 -90 -30 0 -66 27 -66 51 0 26 -16 24 -23 -2 -4 -14 2 -29 18 -45
l24 -24 -317 0 c-289 0 -315 1 -294 16 22 15 32 74 12 74 -5 0 -10 -9 -10 -19
0 -24 -36 -51 -66 -51 -32 0 -64 45 -64 90 0 27 9 47 36 78 l36 42 353 0 353
0 36 -42z m-794 -180 c0 -5 -25 -8 -56 -8 l-56 0 26 31 c14 17 26 36 26 42 0
12 59 -53 60 -65z m870 63 c0 -5 12 -23 26 -40 l26 -31 -57 0 c-31 0 -55 3
-53 8 24 51 58 87 58 63z m-2010 -1731 l0 -1570 -75 0 -75 0 0 1570 0 1570 75
0 75 0 0 -1570z m210 0 l0 -1570 -65 0 -65 0 0 1563 c0 860 3 1567 7 1570 3 4
33 7 65 7 l58 0 0 -1570z m220 0 l0 -1570 -70 0 -70 0 0 1563 c0 860 3 1567 7
1570 3 4 35 7 70 7 l63 0 0 -1570z m218 -3 l2 -1567 -70 0 -70 0 0 1563 c0
860 3 1567 7 1571 4 4 34 6 68 4 l60 -3 3 -1568z m212 3 l0 -1570 -65 0 -65 0
0 1570 0 1570 65 0 65 0 0 -1570z m210 0 l0 -1570 -65 0 -65 0 0 1570 0 1570
65 0 65 0 0 -1570z m220 0 l0 -1570 -70 0 -70 0 0 1563 c0 860 3 1567 7 1570
3 4 35 7 70 7 l63 0 0 -1570z m218 -2 l2 -1568 -70 0 -70 0 0 1570 0 1571 68
-3 67 -3 3 -1567z m210 -1 l2 -1567 -70 0 -70 0 0 1563 c0 860 3 1567 7 1571
4 4 34 6 68 4 l60 -3 3 -1568z m220 1 l2 -1568 -70 0 -70 0 0 1570 0 1571 68
-3 67 -3 3 -1567z m212 2 l0 -1570 -65 0 -65 0 0 1570 0 1570 65 0 65 0 0
-1570z m210 0 l0 -1570 -65 0 -65 0 0 1570 0 1570 65 0 65 0 0 -1570z m218 -2
l2 -1568 -70 0 -70 0 0 1570 0 1571 68 -3 67 -3 3 -1567z m220 0 l2 -1568 -70
0 -70 0 0 1570 0 1571 68 -3 67 -3 3 -1567z m212 2 l0 -1570 -70 0 -70 0 0
1563 c0 860 3 1567 7 1570 3 4 35 7 70 7 l63 0 0 -1570z m250 0 l0 -1570 -85
0 -85 0 0 1570 0 1570 85 0 85 0 0 -1570z"/>
<path d="M10371 7324 l-121 -105 2 -192 3 -192 43 -3 42 -3 0 -175 0 -174 35
0 35 0 0 -489 0 -489 -69 -4 c-39 -2 -73 -6 -76 -10 -4 -3 -7 -39 -8 -80 -2
-66 -4 -73 -22 -73 -19 0 -20 8 -23 218 l-2 218 -83 -3 c-45 -3 -95 -10 -112
-17 -28 -12 -44 -8 -202 49 l-173 62 0 124 0 124 -40 0 -39 0 -3 -109 -3 -109
-270 97 c-148 53 -276 100 -282 104 -9 6 -13 40 -13 113 l0 105 -37 -3 -38 -3
-5 -91 -5 -91 -115 42 c-63 23 -188 67 -277 99 l-163 58 0 84 0 84 -40 0 -40
0 0 -84 c0 -82 -1 -84 -27 -95 -35 -13 -535 -191 -540 -191 -1 0 -3 43 -3 95
l0 95 -40 0 -39 0 -3 -111 -3 -111 -275 -99 c-151 -54 -276 -99 -277 -99 -1 0
-4 48 -5 108 l-3 107 -37 3 -38 3 0 -125 0 -124 -42 -16 c-153 -57 -324 -116
-335 -116 -7 0 -13 9 -13 20 0 20 -5 21 -82 18 l-83 -3 0 -2830 0 -2830 1893
-3 1892 -2 0 255 c0 248 1 255 20 255 19 0 20 -7 20 -182 1 -203 7 -297 22
-316 6 -7 33 -12 62 -12 48 0 56 -4 108 -50 l56 -50 1151 0 1151 0 0 208 0
207 -48 25 -47 25 -3 167 -2 168 -40 20 -40 20 0 2879 0 2879 40 16 40 16 0
170 0 170 50 25 50 25 0 205 0 205 -1154 0 -1153 0 -122 -106z m-2102 -1181
l0 -98 -24 52 c-24 54 -48 73 -105 83 -34 6 -34 6 40 32 41 15 78 27 83 27 4
1 7 -43 6 -96z m211 51 c10 -3 1 -11 -25 -23 -47 -21 -67 -43 -88 -91 -15 -34
-15 -34 -16 62 l-1 97 58 -20 c31 -10 64 -22 72 -25z m-430 -43 c-18 -34 -12
-78 12 -95 12 -9 30 -16 40 -16 18 0 55 46 45 56 -3 3 -10 -4 -17 -15 -15 -30
-58 -28 -70 3 -14 38 -2 64 37 77 91 30 158 -58 156 -206 -1 -92 -29 -155 -80
-179 -67 -32 -136 9 -114 68 13 34 55 36 72 4 8 -15 14 -18 17 -10 6 18 -27
52 -50 52 -27 0 -58 -36 -58 -68 0 -39 20 -62 60 -71 34 -7 33 -8 -50 -38
-137 -49 -132 -48 -120 -19 13 36 -5 83 -36 90 -33 9 -64 -10 -63 -37 l0 -22
11 23 c21 43 78 22 78 -29 0 -32 -14 -45 -60 -54 -27 -5 -43 -1 -70 17 -47 32
-69 92 -69 188 0 131 62 213 146 193 64 -15 73 -94 11 -101 -17 -2 -27 3 -34
19 -7 14 -13 19 -17 12 -4 -6 1 -21 11 -33 41 -51 117 11 92 74 -10 28 -23 37
-64 45 -28 6 -20 11 79 48 61 22 111 41 113 42 1 1 -2 -8 -8 -18z m477 9 c7 0
20 -11 28 -24 36 -54 -31 -107 -68 -53 -12 16 -16 18 -16 6 -1 -26 35 -52 63
-45 33 8 50 40 43 82 l-6 33 90 -32 c84 -30 110 -47 72 -47 -27 0 -53 -31 -53
-62 0 -48 16 -68 55 -68 24 0 38 6 45 19 13 25 13 31 0 31 -5 0 -10 -6 -10
-14 0 -8 -7 -17 -16 -20 -18 -7 -54 1 -54 12 0 4 -3 17 -6 29 -14 51 67 81
127 46 94 -56 97 -306 5 -367 -14 -9 -43 -16 -65 -16 -32 0 -44 5 -57 25 -32
49 17 104 57 64 25 -25 35 -19 19 10 -13 26 -61 28 -85 4 -13 -12 -16 -28 -12
-59 l4 -43 -81 30 c-44 16 -88 32 -96 35 -10 4 -3 10 20 17 23 8 38 21 44 38
22 63 -28 118 -79 85 -14 -9 -25 -24 -24 -34 0 -14 3 -13 16 6 21 31 61 29 73
-3 30 -79 -69 -111 -143 -46 -51 44 -68 207 -31 286 22 46 79 89 109 81 11 -3
26 -6 32 -6z m-771 -119 c-9 -10 -26 -41 -36 -67 l-19 -49 -1 57 c0 53 2 57
28 66 41 15 47 14 28 -7z m1153 -49 l0 -47 -17 41 c-9 23 -23 49 -31 58 -12
14 -10 15 18 5 29 -10 31 -14 30 -57z m-1290 -79 c0 -97 -1 -98 -15 -59 -19
52 -31 66 -79 87 -34 15 -37 19 -20 25 11 4 40 15 65 25 25 10 46 18 48 18 1
1 2 -43 1 -96z m1453 65 l59 -21 -33 -14 c-45 -19 -76 -50 -83 -84 -14 -61
-25 -38 -25 50 0 62 4 91 11 91 7 0 39 -10 71 -22z m-1542 -58 c31 -16 42 -30
59 -75 26 -68 26 -151 2 -220 -14 -39 -26 -55 -57 -73 -77 -44 -146 -2 -118
72 9 23 50 19 68 -6 13 -18 16 -19 16 -6 0 22 -27 48 -51 48 -27 0 -59 -35
-59 -65 0 -32 41 -75 72 -75 36 0 10 -14 -87 -48 -99 -35 -115 -38 -97 -20 29
29 -1 108 -41 108 -21 0 -57 -30 -56 -48 0 -14 3 -13 16 6 28 40 73 22 73 -29
0 -53 -68 -74 -124 -40 -67 42 -94 196 -53 304 22 57 75 91 126 81 40 -8 53
-26 49 -66 -4 -43 -42 -52 -70 -16 -14 18 -18 20 -18 6 0 -22 27 -48 51 -48
28 0 59 36 59 68 0 33 -25 60 -64 70 -24 7 -15 12 66 41 51 19 98 36 105 38 9
4 9 -2 1 -25 -15 -40 2 -79 37 -88 29 -7 65 18 65 45 0 11 -4 9 -16 -7 -21
-31 -62 -29 -70 2 -9 37 -1 59 26 73 34 17 44 16 90 -7z m1639 9 c35 -12 49
-46 31 -78 -15 -29 -58 -28 -69 1 -4 12 -10 17 -14 11 -4 -6 1 -21 11 -33 15
-18 24 -21 50 -16 33 8 46 30 44 78 -1 32 3 33 49 15 19 -8 56 -22 83 -32 l49
-18 -32 -13 c-39 -16 -54 -52 -40 -94 6 -16 14 -30 17 -30 4 0 17 -3 29 -6 21
-6 63 25 63 46 0 18 -18 11 -25 -10 -9 -30 -52 -26 -67 5 -28 61 48 106 115
68 50 -29 76 -93 76 -188 0 -97 -25 -159 -77 -189 -29 -16 -39 -17 -73 -7 -42
13 -61 49 -42 80 16 26 58 26 69 0 7 -14 13 -19 17 -12 4 6 -1 21 -11 33 -15
18 -24 21 -50 15 -25 -5 -34 -14 -40 -38 -5 -18 -5 -42 -1 -54 8 -22 6 -22
-89 12 -53 19 -99 35 -102 36 -3 0 11 5 30 12 43 15 61 48 49 89 -10 37 -8 35
-41 43 -19 5 -32 1 -47 -14 -22 -22 -27 -41 -12 -41 5 0 11 9 14 20 8 30 54
27 69 -5 28 -62 -47 -107 -114 -68 -51 29 -77 92 -78 185 0 95 24 159 72 188
38 23 44 24 87 9z m-899 -93 c0 -40 -3 -45 -31 -55 -42 -15 -43 -14 -20 11 11
12 25 36 32 55 6 18 12 33 15 33 2 0 4 -20 4 -44z m131 -53 c9 -10 5 -11 -20
-2 -29 10 -31 14 -31 57 l0 47 21 -44 c11 -25 25 -51 30 -58z m-1309 0 c-11
-21 -22 -45 -25 -53 -3 -8 -6 6 -6 32 -1 46 3 51 42 57 4 0 -1 -16 -11 -36z
m2465 -29 l2 -49 -15 40 c-8 22 -19 44 -24 49 -17 17 -11 26 13 17 18 -7 22
-17 24 -57z m-1801 -64 c11 -12 38 -27 58 -34 l37 -13 -63 -23 c-35 -12 -69
-25 -75 -27 -10 -4 -13 20 -12 103 l1 109 16 -47 c9 -26 26 -57 38 -68z m1154
1 l0 -98 -70 25 -71 25 39 17 c45 20 78 58 87 100 4 17 8 30 11 30 2 0 4 -44
4 -99z m-1930 -23 l-1 -103 -22 55 c-19 46 -30 59 -70 81 l-47 25 58 21 c31
12 63 22 70 22 9 1 12 -26 12 -101z m2743 74 l49 -19 -30 -12 c-38 -16 -66
-46 -85 -91 -15 -35 -15 -34 -16 58 -1 105 -9 99 82 64z m-1453 -777 l0 -745
-285 0 -285 0 2 646 3 646 270 98 c149 54 276 99 283 99 9 1 12 -154 12 -744z
m346 651 c143 -52 267 -97 277 -101 16 -7 17 -47 17 -651 l0 -644 -280 0 -280
0 0 745 c0 410 2 745 4 745 2 0 120 -42 262 -94z m-1728 64 c48 -30 72 -88 72
-182 0 -132 -45 -198 -134 -198 -39 0 -66 21 -66 53 0 47 40 67 71 36 26 -26
34 -20 13 9 -31 44 -94 18 -94 -39 0 -42 15 -66 47 -74 25 -6 16 -11 -77 -46
-58 -21 -111 -39 -118 -39 -10 0 -12 47 -10 217 l3 217 70 28 c39 15 75 27 80
28 6 0 9 -17 7 -40 -5 -50 10 -70 53 -70 24 0 34 6 43 25 14 30 2 33 -16 5
-15 -24 -35 -26 -56 -4 -37 36 -4 94 54 94 14 0 40 -9 58 -20z m2946 7 c32
-24 17 -97 -20 -97 -7 0 -20 10 -28 22 -19 27 -32 18 -16 -11 7 -14 21 -21 40
-21 42 0 63 25 58 72 -4 43 -6 42 82 8 l45 -18 5 -216 c3 -141 2 -216 -5 -216
-5 0 -52 15 -102 32 -87 31 -114 48 -76 48 27 0 53 31 53 62 0 48 -16 68 -55
68 -24 0 -38 -6 -45 -19 -13 -25 -13 -31 0 -31 6 0 10 6 10 14 0 22 40 31 57
13 21 -21 19 -68 -3 -84 -48 -35 -126 -3 -156 65 -27 60 -28 178 -3 241 28 68
110 104 159 68z m-2212 -83 c-3 -37 -8 -47 -29 -55 -35 -13 -37 -12 -14 16 11
14 23 39 26 55 10 46 21 36 17 -16z m1388 12 c0 -7 9 -25 21 -40 21 -27 12
-34 -22 -16 -13 8 -19 21 -19 46 0 21 4 33 10 29 6 -3 10 -12 10 -19z m548
-205 l-3 -49 -68 25 -68 26 38 17 c47 21 66 43 84 95 l14 40 3 -52 c2 -29 2
-75 0 -102z m-2449 46 c10 -10 35 -24 57 -32 25 -9 34 -15 24 -19 -8 -3 -41
-15 -72 -25 l-58 -20 1 97 c0 97 0 97 15 57 8 -22 23 -48 33 -58z m511 -607
l0 -630 -280 0 -280 0 0 529 0 528 273 101 c149 55 275 100 280 101 4 1 7
-282 7 -629z m1940 -102 l0 -528 -285 0 -285 0 0 623 c0 343 2 626 5 629 3 3
131 -40 285 -96 l280 -101 0 -527z m-2580 633 c0 -45 -2 -50 -28 -59 l-28 -10
23 46 c13 25 23 51 23 59 0 7 2 13 5 13 3 0 5 -22 5 -49z m2704 -59 c-2 -2
-12 -1 -23 3 -17 5 -21 14 -21 48 l1 42 22 -45 c13 -25 22 -47 21 -48z m-2704
-587 l0 -515 -195 0 -195 0 0 444 0 443 193 71 c105 39 193 71 195 71 1 1 2
-231 2 -514z m2851 441 c96 -35 173 -67 172 -70 -2 -3 -3 -204 -3 -446 l0
-440 -180 0 -180 0 0 510 c0 281 4 510 8 510 5 0 87 -29 183 -64z m424 -2201
l0 -1930 -22 -3 -23 -3 0 1929 c0 1061 3 1932 7 1936 4 4 14 5 23 4 13 -3 15
-199 15 -1933z m-2550 1133 c-11 -6 -23 -16 -27 -22 -11 -16 -10 -56 2 -56 6
0 10 9 10 19 0 22 35 51 63 51 10 0 29 -11 42 -25 57 -56 11 -165 -75 -180
-36 -6 -53 0 -184 69 -142 75 -145 76 -219 76 -95 0 -130 -15 -225 -96 l-76
-64 -210 2 -211 3 -3 118 -3 117 568 0 c429 -1 563 -3 548 -12z m182 -18 c-14
-16 -28 -35 -31 -42 -5 -11 -7 -11 -12 0 -3 7 -17 26 -31 42 l-25 30 62 0 62
0 -25 -30z m719 9 c-29 -23 -36 -69 -10 -69 10 0 14 7 12 22 -2 15 5 26 22 35
38 20 56 16 83 -18 20 -26 23 -37 17 -70 -7 -37 -26 -68 -59 -96 -11 -10 -98
-13 -361 -13 -381 0 -369 -2 -409 64 -29 46 -26 80 8 118 26 29 31 31 62 22
27 -8 35 -16 37 -37 4 -33 18 -35 28 -5 5 16 0 27 -20 45 l-27 23 322 0 322 0
-27 -21z m207 3 c-10 -9 -25 -28 -33 -41 l-15 -23 -27 41 -27 41 60 0 c56 0
58 -1 42 -18z m1189 -98 c2 -64 1 -118 -1 -120 -2 -2 -93 -4 -202 -4 l-197 0
-73 61 c-104 87 -132 99 -228 99 -75 0 -83 -2 -163 -45 -161 -88 -206 -106
-245 -99 -83 16 -123 118 -69 180 21 25 27 27 57 18 27 -8 35 -16 37 -37 4
-34 32 -37 32 -3 0 15 -11 33 -26 45 l-27 21 551 0 551 0 3 -116z m-2513 -41
c58 -32 123 -66 145 -75 78 -36 153 -14 191 55 18 35 35 48 35 28 0 -4 18 -29
41 -55 l41 -46 368 0 368 0 28 33 c16 18 36 43 45 56 l15 24 23 -36 c64 -103
113 -104 306 -2 133 70 147 75 204 75 80 0 117 -16 207 -92 41 -35 82 -66 92
-70 9 -4 -44 -7 -119 -7 -110 -1 -139 2 -149 14 -16 20 -39 19 -62 -2 -22 -20
-23 -41 -1 -65 20 -22 56 -23 73 -3 10 12 38 15 137 15 l124 0 -85 -70 c-102
-85 -136 -100 -217 -100 -58 0 -72 5 -204 75 -169 89 -210 96 -268 45 -19 -16
-40 -44 -47 -60 l-13 -31 -19 33 c-11 18 -32 45 -46 61 l-26 27 -366 0 -366 0
-31 -32 c-18 -18 -38 -46 -46 -61 l-15 -28 -26 46 c-30 51 -69 75 -119 75 -40
0 -71 -13 -218 -93 -99 -53 -111 -57 -173 -57 -80 0 -117 17 -208 93 -35 29
-72 59 -83 65 -16 9 8 11 111 12 105 0 134 -3 144 -15 33 -39 105 9 81 54 -16
28 -48 36 -76 17 -19 -13 -51 -16 -152 -15 -70 0 -121 3 -113 6 8 4 46 33 84
66 89 76 134 97 215 97 59 0 72 -4 170 -57z m-397 -247 c93 -81 130 -96 226
-96 74 0 77 1 216 74 128 68 145 74 184 69 88 -12 135 -120 77 -178 -13 -14
-32 -25 -42 -25 -28 0 -63 29 -63 51 0 10 -4 19 -10 19 -19 0 -10 -49 12 -70
l22 -20 -562 0 -562 0 0 113 c0 63 3 116 6 120 4 3 100 6 214 6 l208 0 74 -63z
m2908 52 c0 -5 0 -57 0 -118 l0 -110 -551 0 -552 0 27 21 c15 12 26 30 26 45
0 34 -28 31 -32 -3 -2 -21 -10 -29 -36 -37 -28 -8 -36 -6 -54 12 -12 11 -24
38 -27 59 -6 30 -2 45 17 75 13 21 32 39 41 42 75 20 87 17 256 -78 98 -55
101 -56 181 -56 102 0 131 12 228 94 l76 65 200 -2 c110 -1 200 -5 200 -9z
m-1330 -11 c64 -51 80 -134 36 -176 -19 -18 -31 -22 -53 -16 -39 9 -52 22 -46
45 4 14 0 20 -11 20 -23 0 -20 -39 6 -67 l21 -23 -317 0 -317 0 27 23 c20 18
25 29 20 45 -10 30 -26 28 -26 -3 0 -19 -8 -28 -27 -36 -39 -14 -70 -3 -88 31
-20 39 -19 66 6 106 40 66 28 64 409 64 256 -1 349 -4 360 -13z m-810 -146 c0
-5 12 -23 26 -40 l26 -31 -57 0 c-31 0 -55 3 -53 8 24 51 58 87 58 63z m934
-34 l25 -37 -54 0 -54 0 26 40 c15 22 28 39 29 37 2 -1 14 -19 28 -40z m-2026
-1699 l2 -1568 -90 0 -90 0 0 1563 c0 860 3 1567 7 1571 4 4 43 5 88 4 l80 -3
3 -1567z m212 2 l0 -1570 -70 0 -70 0 0 1563 c0 860 3 1567 7 1570 3 4 35 7
70 7 l63 0 0 -1570z m218 -2 l2 -1568 -70 0 -70 0 0 1570 0 1571 68 -3 67 -3
3 -1567z m212 2 l0 -1570 -70 0 -70 0 0 1563 c0 860 3 1567 7 1570 3 4 35 7
70 7 l63 0 0 -1570z m210 0 l0 -1570 -65 0 -65 0 0 1570 0 1570 65 0 65 0 0
-1570z m218 -2 l2 -1568 -70 0 -70 0 0 1570 0 1571 68 -3 67 -3 3 -1567z m215
-1 l2 -1567 -67 0 -68 0 0 1570 0 1571 65 -3 65 -3 3 -1568z m217 3 l0 -1570
-65 0 -65 0 0 1570 0 1570 65 0 65 0 0 -1570z m210 0 l0 -1570 -65 0 -65 0 0
1570 0 1570 65 0 65 0 0 -1570z m220 0 l0 -1570 -70 0 -70 0 0 1563 c0 860 3
1567 7 1570 3 4 35 7 70 7 l63 0 0 -1570z m210 0 l0 -1570 -65 0 -65 0 0 1570
0 1570 65 0 65 0 0 -1570z m218 -3 l2 -1567 -70 0 -70 0 0 1563 c0 860 3 1567
7 1571 4 4 34 6 68 4 l60 -3 3 -1568z m212 3 l0 -1570 -65 0 -65 0 0 1570 0
1570 65 0 65 0 0 -1570z m220 0 l0 -1570 -70 0 -70 0 0 1563 c0 860 3 1567 7
1570 3 4 35 7 70 7 l63 0 0 -1570z m210 0 l0 -1570 -65 0 -65 0 0 1570 0 1570
65 0 65 0 0 -1570z m233 1558 c-2 -5 -3 -710 -3 -1568 l0 -1560 -75 0 -75 0 0
1563 c0 860 3 1567 7 1571 9 9 149 3 146 -6z"/>
</g>
</svg>
