<?xml version="1.0" standalone="no"?>
<!DOCTYPE svg PUBLIC "-//W3C//DTD SVG 20010904//EN"
 "http://www.w3.org/TR/2001/REC-SVG-20010904/DTD/svg10.dtd">
<svg version="1.0" xmlns="http://www.w3.org/2000/svg"
 width="965.000000pt" height="1280.000000pt" viewBox="0 0 965.000000 1280.000000"
 preserveAspectRatio="xMidYMid meet">
<metadata>
Created by potrace 1.15, written by Peter Selinger 2001-2017
</metadata>
<g transform="translate(0.000000,1280.000000) scale(0.100000,-0.100000)"
fill="#000000" stroke="none">
<path d="M12 12788 c-9 -9 -12 -135 -12 -504 0 -557 -5 -524 78 -524 l47 0 80
-210 80 -210 53 0 c47 0 54 -3 64 -26 14 -31 56 -54 97 -54 23 0 33 -8 50 -35
12 -21 38 -43 64 -56 41 -20 45 -26 50 -66 6 -56 46 -116 97 -145 33 -19 40
-28 40 -53 0 -43 25 -75 58 -75 22 0 30 -7 39 -31 7 -19 23 -34 41 -41 29 -11
29 -12 36 -116 29 -481 -43 -808 -217 -984 -108 -110 -240 -168 -446 -195 -64
-8 -117 -16 -119 -17 -1 -2 -5 -176 -8 -387 -11 -666 26 -1194 112 -1603 14
-65 68 -266 119 -445 290 -1009 475 -1778 545 -2266 27 -188 37 -414 21 -496
-35 -178 -149 -284 -388 -363 l-83 -28 0 -69 0 -69 -70 0 -70 0 0 -240 0 -240
-140 0 -140 0 -2 -597 -3 -598 -33 -3 c-24 -3 -35 -10 -43 -28 -5 -15 -9 -408
-9 -997 0 -864 2 -975 16 -995 l15 -22 4794 0 4794 0 15 22 c14 20 16 131 16
995 0 589 -4 982 -9 997 -8 18 -19 25 -43 28 l-33 3 -3 598 -2 597 -140 0
-140 0 0 240 0 240 -70 0 -70 0 0 69 0 69 -82 28 c-240 79 -354 185 -389 363
-16 82 -6 308 21 496 70 488 255 1257 545 2266 51 179 105 380 119 445 86 409
123 937 112 1603 -3 211 -7 385 -8 387 -2 1 -55 9 -119 17 -206 27 -338 85
-446 195 -174 176 -246 503 -217 984 7 104 7 105 36 116 18 7 34 22 41 41 9
24 17 31 39 31 33 0 58 32 58 75 0 25 7 34 40 53 51 29 91 89 97 145 5 40 9
46 50 66 26 13 52 35 64 56 16 27 28 35 50 35 41 0 73 18 93 51 15 26 22 29
69 29 l52 0 80 210 80 210 47 0 c83 0 78 -33 78 524 0 369 -3 495 -12 504 -17
17 -9609 17 -9626 0z m3652 -1240 l79 -208 53 0 c45 0 55 -3 65 -22 18 -37 51
-58 92 -58 20 0 37 -4 37 -9 0 -18 50 -69 84 -85 28 -13 37 -24 42 -54 14 -75
69 -149 124 -167 15 -5 20 -15 20 -42 0 -45 24 -73 61 -73 21 0 28 -5 31 -22
2 -13 17 -32 35 -43 44 -27 47 -50 47 -315 0 -306 -27 -467 -104 -625 -108
-222 -276 -328 -580 -364 -52 -7 -96 -14 -98 -16 -2 -2 -6 -190 -9 -417 -8
-590 18 -1035 83 -1418 30 -178 53 -270 169 -674 418 -1458 608 -2413 540
-2705 -40 -169 -139 -260 -373 -341 l-92 -33 0 -68 0 -69 -70 0 -70 0 0 -240
0 -239 -142 -3 -143 -3 -3 -597 -2 -598 -445 0 -445 0 0 600 0 600 -145 0
-145 0 0 240 0 239 -67 3 -68 3 0 65 0 65 -110 40 c-164 60 -239 108 -296 191
-42 62 -68 144 -75 238 -26 341 170 1269 546 2586 54 190 110 390 124 445 50
195 90 469 118 815 13 153 19 1262 8 1274 -3 3 -48 10 -100 17 -207 25 -334
76 -442 177 -79 75 -120 135 -160 239 -63 163 -95 418 -84 663 10 193 13 206
48 221 20 8 31 21 35 40 4 23 11 29 31 29 38 0 62 27 62 70 0 32 4 39 30 50
48 20 97 85 111 147 11 46 17 56 44 67 30 13 85 69 85 87 0 5 16 9 36 9 40 0
89 30 99 60 5 17 15 20 59 20 l53 0 78 203 c43 111 80 205 82 210 2 4 223 6
491 5 l487 -3 79 -207z m3423 92 c24 -63 60 -157 79 -207 l36 -93 53 0 c45 0
55 -3 60 -20 10 -33 54 -60 96 -60 22 0 39 -4 39 -9 0 -18 55 -74 85 -87 27
-11 33 -21 44 -67 14 -62 63 -127 111 -147 26 -11 30 -18 30 -50 0 -46 21 -70
59 -70 23 0 30 -5 34 -29 4 -19 15 -32 35 -40 35 -15 38 -28 48 -221 11 -245
-21 -500 -84 -663 -40 -104 -81 -164 -160 -239 -108 -101 -235 -152 -442 -177
-52 -7 -97 -14 -100 -17 -11 -12 -5 -1121 8 -1274 28 -346 68 -620 118 -815
14 -55 70 -255 124 -445 376 -1317 572 -2245 546 -2586 -7 -94 -33 -176 -75
-238 -57 -83 -132 -131 -296 -191 l-110 -40 0 -65 0 -65 -70 -3 -70 -3 3 -239
3 -240 -146 0 -145 0 0 -600 0 -600 -445 0 -445 0 -2 598 -3 597 -142 3 -143
3 0 239 0 240 -70 0 -70 0 0 69 0 68 -92 33 c-234 81 -333 172 -373 341 -68
292 122 1247 540 2705 116 404 139 496 169 674 65 383 91 828 83 1418 -3 227
-7 415 -9 417 -2 2 -46 9 -98 16 -304 36 -472 142 -580 364 -77 158 -104 319
-104 625 0 265 3 289 44 312 16 9 32 28 36 42 5 20 13 26 32 26 38 0 62 27 62
71 0 29 5 39 20 44 51 16 120 104 120 154 0 34 11 51 47 68 20 9 47 34 62 54
21 32 32 38 61 39 38 0 71 22 89 58 10 19 20 22 64 22 l53 0 64 168 c35 92 72
186 82 210 l17 42 487 -2 486 -3 45 -115z"/>
</g>
</svg>
