<?xml version="1.0" standalone="no"?>
<!DOCTYPE svg PUBLIC "-//W3C//DTD SVG 20010904//EN"
 "http://www.w3.org/TR/2001/REC-SVG-20010904/DTD/svg10.dtd">
<svg version="1.0" xmlns="http://www.w3.org/2000/svg"
 width="1110.000000pt" height="1280.000000pt" viewBox="0 0 1110.000000 1280.000000"
 preserveAspectRatio="xMidYMid meet">
<metadata>
Created by potrace 1.15, written by Peter Selinger 2001-2017
</metadata>
<g transform="translate(0.000000,1280.000000) scale(0.100000,-0.100000)"
fill="#000000" stroke="none">
<path d="M5513 12552 c-93 -92 -140 -169 -156 -251 -10 -53 -14 -60 -37 -63
-25 -3 -25 -4 -28 -103 l-3 -100 -447 -274 c-246 -151 -528 -333 -627 -405
-1007 -726 -1776 -1754 -2187 -2921 -33 -93 -70 -206 -83 -250 l-22 -80 -245
-3 -246 -2 -7 -46 c-3 -25 -5 -70 -4 -100 2 -31 -1 -59 -7 -62 -5 -4 -8 -317
-6 -804 l3 -798 25 0 c13 0 24 -4 24 -10 0 -6 76 -10 209 -10 l209 0 7 -80
c11 -124 13 -477 14 -3147 l1 -2483 34 0 34 0 7 -75 c4 -41 5 -90 3 -110 l-4
-35 243 0 243 0 0 -30 0 -30 538 0 538 0 47 159 47 159 0 388 0 389 -29 16
-29 17 26 75 26 74 -29 26 c-26 23 -39 26 -101 27 -74 0 -82 4 -111 57 -19 33
-16 41 17 58 17 9 30 20 30 26 0 5 -20 21 -43 36 l-44 26 -6 345 c-4 190 -7
911 -7 1603 l0 1258 25 28 c14 15 34 37 45 49 20 21 26 44 12 44 -18 0 -42 61
-42 107 1 63 27 119 78 165 23 21 42 44 42 52 0 8 16 27 36 43 57 43 97 83 91
90 -4 3 -17 11 -29 17 -17 9 -22 21 -25 63 -3 51 -1 54 32 75 19 13 35 27 35
32 0 8 -13 24 -64 79 -18 19 -18 25 -7 96 7 42 21 92 31 111 19 36 97 120 112
120 13 0 10 84 -4 98 -7 7 -42 12 -86 12 l-75 0 7 131 c28 533 297 944 776
1184 166 83 417 277 520 402 19 23 37 42 40 42 3 0 20 -19 39 -42 53 -67 207
-202 321 -281 106 -74 333 -196 364 -196 32 0 259 122 364 196 114 79 272 216
325 283 17 22 34 40 37 40 3 0 20 -18 37 -41 97 -120 348 -314 523 -403 246
-125 423 -281 559 -489 135 -207 201 -423 217 -703 l7 -123 -81 0 c-88 0 -92
-3 -92 -67 0 -30 8 -42 45 -76 63 -55 95 -122 102 -211 5 -70 5 -71 -31 -113
-20 -22 -36 -46 -36 -52 0 -6 13 -17 29 -25 16 -9 31 -21 34 -29 7 -17 -4
-107 -12 -107 -4 0 -16 -6 -26 -14 -18 -13 -18 -15 11 -42 16 -16 46 -42 67
-57 20 -15 37 -34 37 -41 0 -7 22 -35 49 -62 79 -80 95 -180 39 -248 -23 -28
-29 -41 -19 -44 7 -2 20 -12 28 -22 9 -10 26 -30 39 -44 l24 -27 0 -577 c0
-317 -3 -1039 -7 -1604 -5 -847 -9 -1028 -20 -1028 -7 0 -13 -4 -13 -9 0 -5
-13 -14 -30 -21 -16 -7 -30 -18 -30 -26 0 -7 14 -21 30 -31 34 -20 35 -24 18
-56 -30 -53 -38 -57 -110 -57 -55 0 -75 -4 -101 -22 -18 -13 -33 -23 -35 -24
-1 -1 9 -32 23 -69 32 -86 31 -94 -5 -108 l-30 -11 0 -381 0 -380 53 -165 53
-165 537 -3 537 -2 0 30 0 30 245 0 245 0 0 110 0 110 36 0 36 0 -3 777 c-6
1118 0 4546 8 4756 l6 177 214 0 c135 0 213 4 213 10 0 6 11 10 25 10 l25 0 0
733 c1 402 3 758 7 790 4 39 1 62 -8 73 -8 9 -12 36 -10 69 1 30 -1 74 -4 99
l-7 46 -246 2 -245 3 -22 80 c-106 378 -360 950 -605 1360 -339 569 -809 1117
-1335 1556 -246 206 -466 357 -930 642 -242 148 -448 276 -457 285 -14 11 -18
35 -20 111 -3 95 -3 96 -29 99 -23 3 -27 9 -32 48 -9 80 -62 171 -154 262 -46
45 -90 82 -98 82 -8 0 -50 -35 -92 -78z m210 -2743 c80 -27 145 -75 190 -141
50 -73 69 -130 69 -214 1 -64 -4 -84 -52 -202 -30 -72 -51 -135 -47 -138 4 -4
58 -13 120 -21 160 -19 217 -42 297 -123 82 -82 111 -152 111 -263 0 -209
-162 -369 -377 -369 -67 0 -90 5 -145 29 -85 39 -115 66 -205 184 -42 55 -77
99 -79 99 -1 0 -36 -45 -78 -99 -124 -161 -210 -213 -352 -213 -211 0 -376
159 -377 363 -1 164 94 303 245 359 28 11 103 26 165 34 63 8 116 17 120 20 3
4 -18 66 -48 138 -49 121 -53 138 -53 208 2 160 102 295 258 349 78 26 159 26
238 0z m-720 -261 c-2 -24 -6 -51 -8 -62 -3 -16 6 -88 20 -153 4 -18 -4 -25
-66 -49 -39 -15 -96 -47 -127 -70 -31 -23 -58 -41 -60 -39 -13 12 55 175 106
255 36 56 122 160 134 160 3 0 4 -19 1 -42z m1253 -6 c85 -100 147 -208 178
-312 9 -29 15 -55 13 -56 -1 -1 -28 17 -59 40 -31 23 -88 55 -127 70 -62 24
-70 31 -66 49 16 73 24 141 20 167 -3 17 -7 44 -10 60 -2 17 -1 30 3 30 4 0
25 -21 48 -48z m-1816 -574 c0 -34 54 -225 90 -320 36 -95 129 -283 171 -345
16 -23 29 -47 29 -53 0 -6 -53 -64 -117 -129 -131 -130 -276 -237 -416 -307
-173 -88 -348 -217 -480 -357 -32 -34 -56 -55 -54 -45 3 9 22 74 41 145 131
473 383 984 685 1386 39 52 51 58 51 25z m2402 -55 c120 -169 149 -212 218
-328 87 -144 210 -388 280 -554 57 -135 145 -395 184 -541 l25 -95 -57 62
c-128 137 -301 267 -474 354 -145 73 -288 179 -420 310 -65 65 -118 123 -118
129 0 6 13 30 28 53 50 74 122 217 163 321 41 105 99 307 99 344 0 37 14 25
72 -55z m-1171 -689 c57 -42 81 -55 159 -86 25 -10 25 -10 -13 -24 -91 -32
-305 -34 -415 -3 -50 14 -47 18 28 48 30 12 80 42 110 66 30 24 58 44 61 45 4
0 35 -21 70 -46z m3 -402 l-70 -34 -68 34 -69 35 138 0 139 0 -70 -35z m-2935
-2619 c1 -28 -3 -55 -9 -58 -6 -4 -10 24 -9 77 1 91 16 75 18 -19z m5751 17
c0 -40 -4 -70 -10 -70 -11 0 -13 81 -4 118 10 37 14 25 14 -48z m-5727 -219
c16 -15 17 -104 17 -1617 l0 -1602 -22 -15 c-22 -14 -22 -15 -5 -34 16 -19 16
-21 -1 -36 -10 -10 -22 -17 -25 -17 -4 0 -7 759 -6 1688 0 1309 3 1683 12
1668 7 -10 20 -26 30 -35z m5722 -3208 l-7 -112 -22 16 c-23 17 -23 17 -3 34
21 17 16 39 -9 39 -12 0 -14 215 -14 1610 0 1457 2 1611 16 1617 8 3 21 17 27
32 9 20 13 -334 15 -1549 2 -866 0 -1626 -3 -1687z"/>
</g>
</svg>
