<?xml version="1.0" standalone="no"?>
<!DOCTYPE svg PUBLIC "-//W3C//DTD SVG 20010904//EN"
 "http://www.w3.org/TR/2001/REC-SVG-20010904/DTD/svg10.dtd">
<svg version="1.0" xmlns="http://www.w3.org/2000/svg"
 width="1108.000000pt" height="1280.000000pt" viewBox="0 0 1108.000000 1280.000000"
 preserveAspectRatio="xMidYMid meet">
<metadata>
Created by potrace 1.15, written by Peter Selinger 2001-2017
</metadata>
<g transform="translate(0.000000,1280.000000) scale(0.100000,-0.100000)"
fill="#000000" stroke="none">
<path d="M2726 12792 c48 -43 1161 -1043 1408 -1265 176 -158 326 -287 333
-287 7 0 77 14 155 30 78 17 143 28 145 26 2 -2 -37 -66 -86 -142 l-90 -139
37 -7 c20 -4 57 -7 82 -7 68 -1 36 -16 -90 -40 -63 -13 -117 -24 -121 -27 -8
-4 -16 -59 -34 -228 -8 -70 -15 -129 -17 -131 -2 -1 -118 35 -258 81 -140 46
-261 84 -268 84 -21 0 -1932 -1845 -1913 -1847 9 -2 591 82 1294 185 l1279
188 83 159 c50 95 86 154 89 145 10 -26 106 -342 106 -347 0 -3 8 1 17 8 10 8
1 -8 -20 -36 -74 -99 -346 -513 -424 -645 -694 -1178 -1048 -2435 -1080 -3835
-5 -244 9 -770 23 -818 3 -9 -1 -19 -8 -22 -655 -224 -1237 -546 -2035 -1128
-96 -70 -189 -125 -345 -205 -117 -60 -251 -131 -298 -159 -398 -238 -626
-521 -681 -847 -10 -58 -10 -86 0 -128 25 -113 72 -172 202 -253 641 -398
1351 -650 2074 -737 191 -23 824 -17 1250 12 315 22 429 25 915 25 638 -1 597
4 1039 -106 479 -119 400 -110 1091 -119 685 -9 782 -16 1060 -76 187 -40 533
-101 715 -125 247 -33 605 -33 789 0 167 29 260 57 443 130 266 107 392 171
598 306 218 143 512 391 726 611 95 98 108 116 133 184 92 249 -13 505 -294
720 -106 80 -138 100 -380 227 -511 270 -804 399 -1445 636 -414 153 -578 215
-725 272 -344 134 -535 198 -1130 376 -733 220 -1015 312 -1285 419 -346 137
-577 181 -960 180 -121 0 -267 -4 -324 -10 -58 -5 -106 -8 -109 -6 -7 8 18
702 34 921 131 1829 646 3344 1572 4630 97 134 285 375 290 370 6 -6 -90 -265
-164 -443 -97 -232 -200 -455 -350 -754 -74 -148 -134 -270 -134 -273 0 -3 91
-5 202 -5 l203 0 -137 -137 -136 -138 93 -600 c51 -330 143 -924 204 -1320 61
-396 114 -732 117 -747 4 -20 12 -28 27 -28 19 0 50 55 214 383 106 210 387
769 626 1242 l434 860 -173 245 -173 244 132 56 c108 46 213 95 224 104 4 3
-35 362 -52 486 -31 219 -111 560 -159 674 -8 20 -13 36 -11 36 17 0 383 -533
575 -837 46 -73 87 -133 91 -133 3 0 48 70 99 156 60 99 96 151 100 142 4 -7
25 -84 46 -170 l38 -158 121 -49 c66 -27 379 -153 695 -281 316 -128 697 -282
845 -342 357 -146 764 -308 771 -308 3 0 -8 19 -24 43 -16 23 -339 530 -717
1127 -378 597 -689 1086 -690 1087 0 1 -126 -7 -279 -18 -152 -12 -279 -20
-281 -18 -2 2 3 45 11 94 7 50 16 131 20 180 l6 90 -133 62 c-393 182 -660
276 -959 334 l-65 13 55 8 c106 14 387 38 603 52 121 8 220 16 223 18 2 2 -33
66 -76 142 -65 111 -76 136 -58 131 99 -32 274 -73 282 -66 11 8 1104 891
1498 1209 120 97 216 177 215 178 -1 1 -510 -28 -1130 -65 l-1129 -66 -90
-195 c-49 -107 -94 -206 -99 -218 -9 -24 -10 -23 -72 25 -68 54 -183 133 -192
133 -6 0 -111 -76 -240 -173 -354 -267 -593 -539 -728 -826 l-39 -84 -63 129
c-160 330 -385 588 -827 947 l-108 87 -67 -41 c-38 -23 -101 -64 -140 -91
l-73 -48 -13 32 c-8 18 -49 123 -92 233 -43 110 -80 202 -81 203 -7 10 -2224
252 -2305 252 -46 0 -79 -4 -73 -8z"/>
</g>
</svg>
