<?xml version="1.0" standalone="no"?>
<!DOCTYPE svg PUBLIC "-//W3C//DTD SVG 20010904//EN"
 "http://www.w3.org/TR/2001/REC-SVG-20010904/DTD/svg10.dtd">
<svg version="1.0" xmlns="http://www.w3.org/2000/svg"
 width="1280.000000pt" height="809.000000pt" viewBox="0 0 1280.000000 809.000000"
 preserveAspectRatio="xMidYMid meet">
<metadata>
Created by potrace 1.15, written by Peter Selinger 2001-2017
</metadata>
<g transform="translate(0.000000,809.000000) scale(0.100000,-0.100000)"
fill="#000000" stroke="none">
<path d="M6584 7682 c-51 -35 -59 -134 -19 -221 25 -53 25 -54 7 -75 -35 -39
-112 -210 -112 -249 0 -17 -6 -18 -57 -13 -500 52 -603 65 -603 78 0 6 -12 8
-29 5 -15 -3 -33 -1 -39 5 -9 9 -18 8 -36 -1 -19 -11 -48 -10 -160 3 -75 8
-146 21 -158 27 -14 8 -56 10 -124 6 -95 -4 -107 -3 -151 20 -49 24 -94 26
-182 7 -33 -7 -34 -7 -19 14 8 12 26 31 41 42 45 35 37 77 -22 133 -125 117
-287 185 -379 161 -25 -7 -57 -58 -46 -75 8 -14 -57 -157 -75 -164 -7 -3 -34
14 -61 39 -60 56 -232 141 -325 161 -93 20 -178 19 -218 -1 -56 -29 -139 -106
-177 -165 -137 -212 -161 -675 -50 -943 24 -57 49 -95 93 -143 66 -70 109 -97
174 -107 44 -6 162 7 221 26 18 5 35 8 38 5 2 -2 -10 -34 -27 -71 -20 -43 -37
-66 -48 -66 -10 0 -26 -18 -39 -45 -20 -41 -25 -45 -57 -45 -28 0 -38 -5 -47
-25 -10 -21 -7 -30 25 -68 36 -44 36 -45 17 -62 -11 -10 -20 -30 -20 -44 0
-15 -8 -31 -20 -39 -12 -7 -20 -23 -20 -41 0 -16 -6 -31 -15 -35 -8 -3 -15
-16 -15 -29 0 -14 -7 -30 -15 -37 -8 -7 -15 -23 -15 -36 0 -13 -9 -28 -21 -35
-15 -8 -20 -18 -16 -35 3 -17 -1 -28 -14 -35 -11 -5 -19 -20 -19 -33 0 -13 -9
-31 -19 -40 -11 -10 -17 -24 -14 -32 3 -8 -5 -26 -17 -39 -13 -14 -20 -31 -17
-40 4 -9 -1 -20 -13 -27 -11 -7 -20 -24 -20 -38 0 -15 -9 -31 -21 -38 -11 -7
-18 -19 -15 -27 3 -8 -4 -25 -15 -38 -10 -14 -19 -30 -19 -35 0 -6 -31 3 -69
19 -99 41 -297 94 -426 112 -165 24 -271 28 -470 20 l-180 -8 3 -25 c2 -14 14
-42 28 -62 29 -45 30 -52 5 -45 -32 8 -316 -58 -446 -104 -155 -54 -204 -76
-349 -156 -419 -230 -748 -581 -981 -1045 -280 -557 -338 -1227 -158 -1823
151 -501 439 -908 848 -1197 300 -213 595 -332 949 -383 187 -27 291 -30 466
-14 405 37 875 242 1228 537 86 71 258 256 350 374 92 119 240 369 296 501
130 304 216 695 216 982 0 33 4 55 8 50 5 -6 21 -46 36 -90 28 -79 142 -302
174 -339 37 -42 115 -96 169 -116 86 -32 292 -58 523 -66 205 -7 205 -7 248
-36 56 -38 98 -55 180 -72 161 -34 320 -39 1149 -40 453 -1 823 -2 823 -3 0
-1 -67 -149 -149 -330 -82 -180 -157 -355 -166 -387 -20 -70 -23 -163 -6 -224
34 -123 221 -222 368 -195 49 9 70 8 132 -9 41 -10 92 -28 114 -40 101 -51
170 -70 232 -65 80 8 115 21 115 46 0 28 -29 41 -92 41 -106 1 -253 52 -285
98 -22 35 -21 166 2 237 9 28 73 169 142 315 69 146 148 317 176 380 28 63 54
120 59 127 9 12 70 20 219 29 l86 5 47 -98 c93 -192 193 -334 360 -510 208
-220 537 -390 876 -454 194 -36 408 -17 627 57 178 59 430 208 600 354 273
233 503 616 618 1029 102 363 116 780 40 1153 -92 448 -332 873 -633 1120
-126 104 -292 207 -415 257 l-113 46 10 28 c12 34 -1 61 -33 65 -19 3 -21 9
-21 78 0 71 1 74 23 74 24 0 66 38 86 77 18 36 17 124 -3 161 -26 51 -60 59
-203 52 -99 -5 -126 -9 -142 -25 -12 -10 -21 -24 -21 -30 0 -7 -9 -15 -20 -18
-15 -4 -20 -14 -20 -39 0 -28 -5 -37 -26 -46 -30 -14 -59 -76 -70 -147 -8 -59
-17 -66 -67 -58 -21 3 -94 0 -163 -7 -68 -7 -127 -10 -131 -6 -5 5 -20 134
-22 199 -1 10 -9 17 -21 17 -16 0 -20 7 -20 35 0 19 -4 35 -9 35 -4 0 -25 14
-46 30 -49 39 -87 39 -123 2 -15 -16 -35 -32 -44 -35 -12 -4 -18 -17 -18 -34
0 -17 -8 -33 -20 -41 -19 -11 -20 -23 -20 -165 l0 -153 -57 -26 c-118 -54
-310 -187 -420 -291 l-41 -40 -249 113 c-385 175 -571 254 -679 290 -54 18
-103 36 -108 41 -6 5 -2 16 8 28 16 17 16 24 5 54 -11 32 -10 41 16 99 22 48
30 84 34 153 l6 89 75 32 c95 40 255 74 345 74 43 0 81 6 99 15 15 8 51 15 80
15 76 0 236 26 293 48 78 30 148 82 291 220 132 127 132 127 122 160 -19 69
-65 92 -184 92 -126 0 -615 -38 -708 -55 -80 -15 -179 -48 -205 -68 -29 -22
-486 30 -562 64 -25 11 -73 23 -106 26 -44 4 -77 15 -125 43 -36 21 -103 57
-150 80 -47 23 -87 44 -89 46 -2 2 4 15 13 28 22 35 20 69 -6 93 -38 34 -156
99 -298 164 -393 179 -635 258 -745 242 l-46 -6 11 27 c25 66 2 121 -55 132
-48 9 -52 40 -19 145 39 125 55 135 111 70 45 -54 116 -78 165 -58 68 29 75
118 18 234 -33 67 -113 153 -166 178 -34 16 -82 20 -100 7z m-1954 -519 c6 -5
-22 -23 -36 -23 -9 0 -22 19 -43 64 -3 7 59 -25 79 -41z m1148 -139 c12 -4 22
-13 22 -20 0 -8 9 -14 20 -14 16 0 20 -7 20 -35 0 -32 -2 -35 -30 -35 -17 0
-44 7 -59 14 -15 8 -59 20 -97 27 -38 7 -73 15 -77 19 -9 8 122 48 158 49 11
0 30 -2 43 -5z m-593 -14 c8 -13 -5 -13 -25 0 -13 8 -13 10 2 10 9 0 20 -4 23
-10z m65 -5 c17 -9 30 -24 30 -34 0 -11 14 -31 30 -44 33 -28 37 -37 17 -37
-15 0 -90 75 -106 108 -14 26 -10 27 29 7z m1145 -55 c17 -5 58 -12 93 -16 58
-6 62 -8 56 -28 -4 -11 -8 -23 -10 -25 -2 -2 -43 1 -92 8 -49 6 -105 11 -125
11 -35 0 -37 1 -37 34 l0 34 43 -5 c23 -3 56 -9 72 -13z m-1425 -857 c0 -20
-3 -24 -11 -16 -7 7 -9 19 -6 27 10 24 17 19 17 -11z m-35 -73 c3 -5 1 -10 -4
-10 -6 0 -11 5 -11 10 0 6 2 10 4 10 3 0 8 -4 11 -10z m39 -173 c16 -67 30
-127 32 -132 4 -9 -79 -55 -97 -55 -4 0 -12 42 -19 94 -12 95 -12 95 16 155
15 34 30 61 33 61 3 0 19 -55 35 -123z m-517 -28 c-9 -6 -17 -21 -17 -34 0
-14 -9 -34 -19 -44 -12 -12 -17 -27 -14 -39 3 -14 -2 -24 -16 -31 -12 -7 -21
-22 -21 -34 0 -12 -9 -30 -21 -40 -13 -12 -18 -24 -14 -37 4 -13 -1 -22 -16
-30 -15 -9 -20 -18 -16 -37 3 -17 -1 -28 -14 -36 -11 -7 -19 -23 -19 -38 0
-14 -9 -34 -20 -44 -11 -10 -20 -29 -20 -42 0 -12 -4 -23 -9 -23 -5 0 -17 44
-26 98 -9 53 -23 121 -30 150 -12 49 -12 53 6 62 12 7 19 21 19 38 0 15 9 35
20 45 11 9 20 28 20 42 0 14 4 25 10 25 5 0 16 13 25 30 15 29 16 29 108 32
100 3 111 2 84 -13z m4088 -70 c5 -14 1 -27 -9 -37 -19 -19 -30 -10 -40 31 -6
24 -4 27 18 27 16 0 27 -7 31 -21z m-3518 -113 c-4 -11 -19 -16 -47 -16 -22 0
-40 2 -40 5 0 2 17 13 38 24 38 20 59 14 49 -13z m-35 -88 c-20 -21 -23 -21
-38 -6 -16 16 -15 17 17 26 43 12 48 7 21 -20z m124 -31 c35 -68 137 -199 203
-259 l69 -63 82 -235 c94 -267 92 -221 17 -400 -33 -78 -82 -234 -108 -339 -6
-23 -12 -41 -14 -39 -2 2 -97 294 -211 648 -114 355 -209 651 -211 658 -3 8 0
10 10 6 21 -8 71 20 91 51 14 21 20 24 36 15 11 -6 27 -25 36 -43z m-956 -127
c26 -127 28 -145 15 -164 -8 -11 -15 -28 -15 -37 0 -9 -7 -22 -15 -29 -8 -7
-15 -25 -15 -40 0 -16 -7 -30 -15 -34 -8 -3 -15 -16 -15 -29 0 -13 -11 -33
-24 -46 -19 -18 -30 -21 -66 -15 -35 6 -45 4 -56 -11 -8 -10 -15 -17 -17 -14
-20 30 -36 84 -28 92 6 6 11 21 11 33 0 12 7 24 15 28 8 3 15 16 15 29 0 13 9
32 20 42 11 10 20 28 20 40 0 13 7 28 15 35 8 7 15 22 15 35 0 12 9 30 21 41
11 10 18 26 16 36 -3 9 4 25 14 34 10 9 19 25 19 34 0 10 7 23 15 30 8 7 15
24 15 38 0 48 11 14 40 -128z m530 95 c0 -27 245 -751 479 -1419 16 -47 16
-50 -1 -86 -10 -20 -21 -61 -25 -91 -3 -30 -11 -57 -17 -61 -6 -4 -29 -8 -50
-8 -66 0 -119 -34 -184 -115 -49 -61 -61 -83 -66 -125 -9 -65 -30 -66 -48 -2
l-14 47 28 8 c15 4 28 14 28 21 0 29 -104 317 -145 401 -53 108 -184 320 -248
402 -43 55 -47 65 -62 158 -8 55 -18 117 -21 137 -5 28 -1 46 15 73 11 20 21
47 21 60 0 12 7 25 15 29 8 3 15 16 15 29 0 13 9 32 20 42 11 10 20 29 20 42
0 13 7 26 15 29 8 4 15 19 15 35 0 17 7 32 19 38 13 7 17 18 14 35 -4 17 1 27
16 35 13 8 21 22 21 39 0 16 8 32 20 40 12 7 20 23 20 38 0 14 7 32 15 40 8 9
15 24 15 35 0 10 9 28 21 40 13 13 18 27 14 40 -5 15 -2 19 14 19 12 0 21 -2
21 -5z m6070 -171 c0 -56 -3 -75 -12 -72 -7 3 -15 13 -17 23 -3 20 17 125 25
125 2 0 4 -34 4 -76z m-4887 -164 c154 0 150 6 84 -137 -10 -22 -16 -23 -127
-23 l-116 0 -26 79 c-14 44 -23 83 -19 86 3 4 22 4 41 1 19 -3 92 -6 163 -6z
m278 -82 c35 -45 36 -48 4 -48 -18 0 -25 -5 -25 -20 0 -11 -7 -20 -15 -20 -9
0 -15 9 -15 21 0 18 -4 20 -25 15 -34 -9 -32 10 5 54 17 19 31 43 31 55 1 20
1 20 6 0 3 -11 18 -37 34 -57z m177 35 c21 -21 62 -51 92 -67 69 -36 67 -35
50 -46 -8 -6 -54 -10 -102 -10 -72 0 -88 3 -88 15 0 8 -4 15 -10 15 -5 0 -10
8 -10 18 0 9 -9 34 -20 55 -27 50 -26 57 15 57 27 0 44 -9 73 -37z m350 1 c25
-13 43 -24 41 -24 -2 0 -47 -15 -100 -33 l-96 -32 -64 35 c-85 47 -119 70
-119 82 0 7 49 8 146 3 127 -6 152 -10 192 -31z m370 11 c1 -1 -58 -7 -133
-13 -124 -11 -138 -10 -177 7 l-43 19 175 -5 c96 -3 176 -7 178 -8z m735 -21
c-4 -11 -9 -12 -16 -5 -16 16 -38 14 -58 -5 -13 -12 -28 -14 -58 -9 -81 14
-41 29 86 33 44 2 51 -1 46 -14z m158 -10 c10 -12 2 -14 -45 -14 -31 0 -56 2
-56 4 0 2 -2 10 -5 18 -7 18 90 11 106 -8z m-983 -30 c-18 -9 -38 -12 -55 -8
-25 7 -25 8 -8 15 11 4 36 8 55 8 l35 0 -27 -15z m332 -9 c-15 -16 -34 -25
-55 -25 -19 0 -39 -8 -50 -20 -25 -28 -111 -27 -166 1 -23 11 -38 23 -35 26 3
3 29 14 58 24 38 12 85 18 162 18 l109 1 -23 -25z m-446 -7 c53 -15 52 -14 31
-38 -17 -18 -31 -20 -164 -20 -166 0 -174 9 -39 46 98 27 117 28 172 12z
m1733 -24 c89 -30 540 -211 563 -226 10 -6 -35 -7 -127 -4 l-141 5 -154 72
c-84 40 -154 76 -156 80 -2 5 -12 9 -22 9 -10 0 -58 18 -106 41 -68 31 -85 42
-74 50 23 16 132 2 217 -27z m-1217 -4 c0 -27 -3 -30 -30 -30 -23 0 -30 4 -30
20 0 19 24 39 48 40 7 0 12 -13 12 -30z m347 1 c19 -30 -7 -45 -62 -37 -39 6
-45 10 -45 32 0 22 4 24 48 24 36 0 50 -5 59 -19z m208 -6 c0 -12 -10 -23 -27
-29 -23 -8 -31 -6 -42 9 -21 30 -9 46 33 43 28 -2 36 -7 36 -23z m65 -2 c0
-20 -3 -24 -11 -16 -7 7 -9 19 -6 27 10 24 17 19 17 -11z m139 -19 c2 -2 -17
-4 -42 -4 -44 0 -47 2 -47 25 l0 25 43 -21 c23 -12 44 -23 46 -25z m-1149 6
c11 -7 7 -10 -18 -10 -20 0 -31 4 -27 10 8 13 26 13 45 0z m-2651 -331 c6 -40
10 -73 8 -75 -2 -2 -20 14 -41 35 l-37 38 17 36 c10 21 23 37 29 37 7 0 17
-30 24 -71z m5033 -19 c-2 -19 -8 -39 -13 -44 -7 -8 -209 69 -209 80 0 3 51 3
113 2 l112 -3 -3 -35z m1361 -297 c-4 -10 -22 -43 -42 -73 -30 -46 -36 -51
-39 -33 -2 12 5 34 14 50 37 59 82 96 67 56z m67 4 c0 -8 6 -27 14 -43 9 -18
16 -81 19 -169 4 -86 12 -156 21 -182 l15 -43 -30 -16 c-17 -8 -33 -14 -35
-12 -2 2 -33 73 -69 158 l-65 154 21 35 c30 51 92 131 101 131 4 0 8 -6 8 -13z
m-8007 -124 c-10 -26 -95 -153 -102 -153 -4 0 -24 34 -44 77 -30 59 -35 78
-25 84 7 5 50 9 95 9 74 0 82 -2 76 -17z m204 -2 c22 -6 31 -18 47 -65 24 -71
21 -81 -84 -295 l-76 -155 -21 35 c-11 19 -51 93 -88 165 l-67 130 47 74 c26
40 56 81 66 91 11 11 19 24 19 30 0 12 100 5 157 -10z m7533 -121 l28 -36 -62
-96 -62 -97 -52 30 -53 30 23 31 c19 27 22 48 26 147 3 70 9 119 16 124 11 7
70 -51 136 -133z m-7994 88 c-5 -57 -29 -192 -36 -206 -4 -9 -32 14 -89 74
-58 61 -79 90 -72 97 9 9 170 64 193 66 3 1 5 -14 4 -31z m94 -61 l44 -84 -44
-71 c-25 -40 -50 -72 -56 -72 -6 0 -19 9 -29 20 -14 16 -16 29 -11 67 13 100
38 223 45 223 4 0 27 -37 51 -83z m450 48 c0 -14 -2 -25 -4 -25 -2 0 -6 11 -8
25 -3 14 -1 25 3 25 5 0 9 -11 9 -25z m8102 -22 c15 -15 28 -30 28 -35 0 -7
-52 -38 -65 -38 -3 0 -5 23 -5 50 0 28 3 50 7 50 4 0 20 -12 35 -27z m-460
-137 c21 -49 36 -91 34 -94 -3 -2 -21 30 -40 72 -20 42 -45 90 -57 107 -12 18
-18 36 -14 47 8 21 19 2 77 -132z m-8308 6 l78 -80 -17 -120 c-11 -70 -25
-129 -34 -141 l-17 -22 -189 93 -190 93 -5 73 -5 73 62 40 c34 22 90 55 124
74 63 33 63 33 89 15 14 -10 60 -54 104 -98z m8873 18 c68 -84 146 -223 130
-231 -6 -3 -57 -19 -113 -34 l-101 -27 -40 26 c-34 23 -42 35 -50 75 -8 39 -6
55 6 77 8 16 17 49 21 74 4 38 11 48 45 72 22 15 43 27 47 28 4 0 29 -27 55
-60z m-7820 -55 c-3 -10 -99 -66 -105 -61 -1 2 8 29 22 60 l25 57 31 -22 c17
-13 29 -28 27 -34z m7118 -45 l-7 -68 -36 -6 c-21 -3 -47 -9 -59 -12 -13 -4
-23 -2 -23 3 0 6 25 49 57 97 65 102 79 99 68 -14z m-7858 -2 c18 -35 57 -109
87 -165 l56 -103 -37 0 c-32 0 -46 10 -134 97 -55 53 -99 101 -99 105 0 13 79
128 88 128 4 0 22 -28 39 -62z m-719 -48 l-3 -29 -33 21 -33 21 33 34 33 34 3
-25 c2 -14 2 -39 0 -56z m8628 23 c4 -24 3 -43 -2 -43 -22 1 -30 18 -26 58 5
52 18 44 28 -15z m-7102 28 c16 -18 13 -27 -76 -204 -70 -142 -97 -187 -114
-191 -12 -3 -30 -9 -39 -13 -16 -6 -17 4 -13 128 7 177 18 206 100 249 51 28
95 46 119 49 3 1 14 -7 23 -18z m6606 -19 c0 -13 -3 -12 -15 4 -19 25 -19 40
0 24 8 -7 15 -20 15 -28z m-10 -89 c0 -35 -5 -37 -59 -27 -26 5 -30 10 -27 29
5 25 22 62 39 83 14 18 46 -40 47 -85z m-7605 -24 c-37 -54 -37 -54 -31 -19 3
19 8 55 12 78 l7 44 24 -25 25 -25 -37 -53z m7879 48 c18 -13 17 -15 -15 -39
-60 -44 -59 -45 -59 22 l0 61 28 -15 c15 -8 36 -21 46 -29z m489 23 c5 -18 0
-20 -36 -20 l-42 1 35 19 c19 11 36 19 36 20 1 0 4 -9 7 -20z m-1885 -4 c5 -5
-11 -125 -18 -136 -6 -10 -16 -8 -43 9 -51 31 -124 51 -191 51 -51 0 -57 2
-51 18 3 9 9 30 12 46 l6 29 141 -8 c78 -3 142 -8 144 -9z m1768 -13 c-7 -7
-26 7 -26 19 0 6 6 6 15 -2 9 -7 13 -15 11 -17z m-8816 -8 l50 -25 0 -125 0
-125 -40 0 c-41 0 -41 1 -70 65 -16 36 -36 86 -45 111 l-15 45 32 40 c17 21
33 39 35 39 2 0 26 -11 53 -25z m704 -94 l78 -78 -109 -6 c-59 -3 -120 -9
-135 -13 -20 -4 -28 -3 -28 7 0 15 101 169 110 169 3 0 41 -35 84 -79z m-314
-148 c-30 -13 -71 -35 -91 -49 -36 -24 -37 -25 -128 -13 l-91 13 0 128 0 128
182 -91 183 -92 -55 -24z m7775 157 c3 -5 3 -48 -1 -95 l-7 -85 -41 0 -41 0 9
95 10 95 32 0 c18 0 36 -4 39 -10z m1305 -17 c-49 -155 -52 -163 -70 -163 -10
0 -25 12 -35 26 -9 14 -33 43 -52 65 -20 22 -34 41 -32 43 5 5 171 54 186 55
9 1 9 -7 3 -26z m-9575 -69 c20 -47 34 -88 32 -90 -8 -9 -177 19 -177 28 0 22
86 148 101 148 4 0 23 -39 44 -86z m9619 30 c5 -18 -2 -40 -25 -80 -17 -30
-34 -53 -36 -50 -8 8 39 166 48 161 4 -3 10 -16 13 -31z m-1313 -42 c2 -59 -4
-83 -17 -69 -3 3 -3 35 1 72 4 36 9 64 11 63 1 -2 4 -31 5 -66z m-6899 -42
c-3 -75 -5 -79 -22 -67 -11 6 -21 20 -22 32 -3 19 32 114 42 115 3 0 4 -36 2
-80z m8242 0 c3 -11 9 -29 12 -40 4 -15 1 -20 -15 -20 -45 0 -51 9 -34 46 19
39 29 43 37 14z m-7674 -100 c0 -7 -15 -38 -32 -67 -30 -50 -35 -53 -63 -47
-16 3 -32 8 -34 10 -4 4 9 37 51 133 l29 65 24 -40 c13 -21 25 -46 25 -54z
m1419 57 c50 -21 97 -109 110 -207 16 -124 112 -344 170 -393 43 -36 238 -97
310 -97 l31 0 0 -67 c0 -38 -5 -85 -10 -105 -13 -47 8 -103 44 -120 23 -10 26
-17 26 -60 l0 -48 -217 5 c-277 7 -327 18 -396 87 -50 50 -114 171 -155 293
-53 159 -112 534 -98 628 10 64 22 76 91 86 33 5 61 9 61 10 1 0 16 -5 33 -12z
m-3422 -18 l82 -12 41 -95 c22 -52 39 -97 36 -99 -4 -5 -254 -38 -329 -44 -33
-3 -40 0 -64 36 l-26 39 34 64 c64 121 65 122 106 122 21 0 75 -5 120 -11z
m8293 -6 c0 -5 -15 -41 -32 -81 -30 -67 -35 -72 -58 -67 -38 10 -42 19 -30 65
24 88 25 90 75 90 25 0 45 -3 45 -7z m1260 -3 c0 -5 -4 -10 -10 -10 -5 0 -10
5 -10 10 0 6 5 10 10 10 6 0 10 -4 10 -10z m30 -4 c0 -3 -4 -8 -10 -11 -5 -3
-10 -1 -10 4 0 6 5 11 10 11 6 0 10 -2 10 -4z m91 -6 c24 0 27 -5 38 -62 7
-35 14 -73 17 -85 2 -13 2 -23 -1 -23 -3 0 -37 17 -76 38 -78 41 -90 62 -64
112 13 25 21 31 38 26 12 -3 34 -6 48 -6z m-9505 -8 c6 -4 14 -38 18 -77 4
-38 5 -67 3 -65 -3 3 -21 38 -41 78 -36 71 -36 72 -14 72 13 0 28 -4 34 -8z
m156 -21 c27 -6 27 -6 -39 -73 -36 -38 -67 -68 -69 -68 -2 0 -4 36 -4 79 l0
79 43 -5 c23 -3 54 -8 69 -12z m1727 -98 c13 -38 26 -74 29 -81 3 -8 -20 -1
-57 17 -33 17 -61 34 -61 38 0 9 54 93 60 93 3 0 16 -30 29 -67z m4964 -48
c114 -27 157 -41 153 -50 -2 -7 -8 -88 -12 -179 l-7 -166 -147 0 c-114 0 -154
4 -178 16 l-32 15 0 97 c0 83 21 260 35 299 2 7 10 11 17 9 7 -3 84 -21 171
-41z m2662 2 l60 -32 3 -60 3 -60 -51 -50 -50 -49 0 49 c-1 51 -22 186 -35
218 -10 24 1 21 70 -16z m-9935 -65 c-28 -5 -33 1 -25 29 l8 23 20 -25 19 -24
-22 -3z m440 21 c0 -5 -18 -35 -40 -68 -22 -33 -51 -92 -66 -131 -22 -60 -31
-74 -60 -88 -19 -9 -40 -16 -47 -16 -12 1 -164 258 -156 264 2 2 83 12 179 23
96 11 178 21 183 22 4 0 7 -2 7 -6z m-327 -172 c42 -71 77 -133 77 -138 0 -6
-28 -22 -62 -36 l-62 -27 -39 27 c-21 15 -59 44 -83 66 -50 44 -50 36 -13 159
16 52 25 68 42 71 58 11 60 10 140 -122z m9893 -8 c-3 -21 -6 -50 -6 -64 0
-19 -10 -31 -41 -48 -45 -26 -59 -19 -59 27 0 23 83 122 103 122 6 0 7 -15 3
-37z m-7625 -96 c-13 -13 -24 -16 -34 -11 -13 8 -11 17 11 64 l25 55 8 -45 c7
-38 6 -48 -10 -63z m5903 -49 c7 -5 3 -15 -11 -30 l-23 -22 1 74 1 75 11 -45
c6 -25 15 -48 21 -52z m-8296 -27 c24 -19 39 -37 35 -42 -7 -6 -150 -69 -157
-69 -3 0 13 131 19 158 5 22 6 22 33 5 15 -10 46 -33 70 -52z m8447 35 c10
-49 3 -71 -23 -74 -16 -3 -25 4 -32 23 -14 37 -13 42 10 48 11 3 20 12 20 21
0 30 19 16 25 -18z m-6025 20 c0 -3 -4 -8 -10 -11 -5 -3 -10 -1 -10 4 0 6 5
11 10 11 6 0 10 -2 10 -4z m7583 -49 l-8 -37 -29 23 -29 23 34 22 c39 24 43
20 32 -31z m-9707 -7 l-10 -41 -18 23 c-23 30 -22 37 5 48 34 14 35 13 23 -30z
m2129 -54 c9 -78 -1 -124 -29 -147 -11 -10 -51 -32 -87 -50 l-66 -32 -56 39
c-31 22 -56 42 -57 46 0 3 15 1 34 -4 19 -6 40 -8 48 -6 8 3 27 38 43 77 35
88 112 169 144 151 15 -7 21 -25 26 -74z m-2169 6 l31 -48 -21 -27 -22 -27
-62 51 c-34 27 -62 52 -62 55 0 6 81 44 95 44 6 0 24 -22 41 -48z m9689 -45
c29 -78 30 -85 18 -128 -10 -34 -20 -48 -36 -52 -43 -11 -117 -19 -117 -14 0
3 11 27 25 54 13 26 34 90 46 140 13 51 25 90 28 87 3 -2 19 -42 36 -87z
m-1653 51 c-7 -7 -12 -8 -12 -2 0 14 12 26 19 19 2 -3 -1 -11 -7 -17z m1698
-46 c0 -54 -2 -53 -29 15 l-20 52 24 -11 c21 -10 25 -18 25 -56z m-9841 -27
l70 -56 -106 -102 c-58 -56 -111 -101 -117 -99 -6 2 -39 15 -73 30 l-63 26 0
66 c0 99 1 100 103 147 51 22 97 42 103 42 7 1 44 -24 83 -54z m131 -45 c0 -5
-5 -10 -11 -10 -5 0 -7 5 -4 10 3 6 8 10 11 10 2 0 4 -4 4 -10z m8189 -27 c41
-24 52 -52 35 -86 -21 -39 -39 -33 -66 19 -12 25 -33 55 -47 65 l-24 19 36 0
c19 0 49 -8 66 -17z m-8201 -16 c6 -7 15 -57 21 -112 7 -55 18 -122 26 -149 8
-27 13 -51 12 -53 -2 -2 -37 12 -78 31 -41 19 -105 48 -144 65 l-69 32 99 99
c55 55 105 100 111 100 6 0 16 -6 22 -13z m1896 -52 c25 -20 46 -38 46 -40 0
-6 -81 -47 -85 -43 -1 2 -10 18 -19 35 -16 31 -13 83 4 83 4 0 28 -16 54 -35z
m251 -57 c-4 -40 -9 -75 -10 -76 -7 -8 -125 80 -120 89 9 14 97 58 119 59 17
0 17 -6 11 -72z m5032 46 c4 -12 -64 -30 -74 -20 -3 3 -3 12 1 21 7 19 67 17
73 -1z m2493 -31 c0 -5 -19 -55 -43 -113 l-42 -105 -45 3 c-25 2 -46 5 -47 6
-6 5 19 171 25 178 4 4 37 14 72 22 82 18 80 17 80 9z m-1380 -35 c0 -5 -7 -8
-15 -8 -17 0 -18 2 -9 25 5 13 8 14 15 3 5 -7 9 -16 9 -20z m-6187 -73 l27
-20 -20 -85 c-12 -47 -24 -90 -28 -96 -4 -6 -24 -14 -44 -18 l-37 -7 -66 130
c-36 72 -65 133 -65 136 0 3 24 16 53 29 l52 23 50 -36 c28 -20 63 -45 78 -56z
m4457 83 c-1 -7 -7 -24 -15 -38 -10 -18 -14 -20 -15 -8 0 9 -6 19 -12 22 -9 3
-7 9 6 20 24 19 36 20 36 4z m1655 2 c-3 -5 -11 -10 -16 -10 -6 0 -7 5 -4 10
3 6 11 10 16 10 6 0 7 -4 4 -10z m-6385 -30 c0 -5 -4 -10 -10 -10 -5 0 -10 5
-10 10 0 6 5 10 10 10 6 0 10 -4 10 -10z m-2137 -37 c25 -8 22 -14 -32 -67
-56 -55 -61 -51 -61 45 l0 59 38 -16 c20 -9 45 -18 55 -21z m2211 -120 c36
-70 64 -128 63 -129 -6 -4 -283 -52 -285 -49 -2 2 8 20 22 42 27 41 69 143 86
210 6 25 17 43 28 46 9 3 18 5 19 6 1 0 31 -56 67 -126z m7568 52 c-7 -35 -11
-40 -33 -37 -40 6 -41 16 -2 62 41 48 49 42 35 -25z m-9525 -47 l93 -41 -36
-61 c-19 -33 -42 -76 -52 -94 l-16 -33 -71 6 c-104 9 -209 25 -216 33 -3 4
-12 40 -19 81 l-12 73 62 63 63 63 56 -24 c31 -14 98 -44 148 -66z m9476 -85
c19 -48 27 -81 23 -98 l-6 -25 -105 52 -104 52 31 21 c17 11 44 32 62 47 48
43 65 34 99 -49z m36 40 c0 -16 -4 -37 -8 -48 -7 -17 -8 -15 -14 10 -3 17 -9
38 -12 48 -6 13 -2 17 14 17 16 0 21 -6 20 -27z m109 12 c9 -8 -78 -155 -92
-155 -8 0 -2 79 10 142 5 24 8 26 42 21 20 -3 38 -7 40 -8z m-9474 -49 c13
-31 12 -41 -4 -98 l-19 -63 -51 4 c-32 2 -50 7 -48 15 6 23 93 176 100 176 4
0 14 -15 22 -34z m9084 -58 c-8 -13 -34 -57 -58 -98 -24 -41 -45 -77 -47 -79
-2 -3 -14 5 -26 17 l-22 22 46 39 c25 22 53 58 64 80 12 28 24 41 38 41 18 0
18 -2 5 -22z m149 -38 c59 -27 109 -54 111 -59 4 -11 -124 -149 -180 -193 -44
-34 -46 -34 -127 39 l-44 39 63 112 c35 62 65 112 67 112 1 0 51 -22 110 -50z
m-7257 31 c0 -5 -5 -22 -11 -38 l-11 -28 -13 25 c-19 33 -18 38 3 43 28 8 32
7 32 -2z m-1879 -94 c10 -17 7 -18 -38 -11 -26 3 -49 7 -50 8 -1 1 3 21 9 45
l11 44 29 -34 c16 -19 33 -42 39 -52z m1818 37 l24 -45 -39 -81 c-25 -52 -47
-83 -62 -89 -13 -5 -66 -3 -134 6 -61 8 -115 15 -119 15 -12 0 -39 91 -39 131
0 21 6 41 12 46 15 9 270 61 308 62 20 1 30 -8 49 -45z m-2199 -45 c55 -7 100
-16 100 -21 0 -15 -135 -226 -141 -222 -10 6 -99 221 -99 239 0 18 10 18 140
4z m248 -24 c4 -4 -39 -160 -48 -175 -7 -11 -144 -49 -178 -50 -20 0 -7 33 57
143 l56 98 55 -6 c30 -4 56 -8 58 -10z m215 -60 c30 -28 55 -53 56 -56 1 -6
-282 -69 -287 -64 -2 2 8 42 23 90 l26 87 64 -4 c60 -4 67 -7 118 -53z m8656
-48 l45 -98 -30 -54 c-49 -92 -53 -96 -122 -102 -84 -8 -181 13 -193 41 -5 12
-17 68 -28 126 -20 104 -20 105 0 137 21 34 39 39 159 46 129 8 119 14 169
-96z m73 91 c2 -7 -1 -44 -7 -83 l-11 -70 -37 79 c-20 43 -37 80 -37 82 0 11
88 2 92 -8z m-7396 -84 c-5 -14 -42 -19 -70 -8 -11 4 -5 16 27 50 l42 45 3
-37 c2 -20 1 -42 -2 -50z m6812 51 c-25 -14 -64 -27 -86 -31 -34 -5 -42 -3
-56 17 l-17 24 63 6 c35 3 81 6 103 7 l40 1 -47 -24z m102 -39 c0 -41 -6 -62
-30 -99 -16 -26 -33 -47 -38 -47 -4 0 -33 26 -65 58 l-57 58 87 46 c48 26 91
44 95 42 4 -3 8 -29 8 -58z m32 39 c0 -14 1 -30 2 -37 1 -6 -5 -13 -11 -15 -9
-3 -13 8 -13 36 0 44 19 58 22 16z m38 16 c0 -6 -4 -13 -10 -16 -5 -3 -10 1
-10 9 0 9 5 16 10 16 6 0 10 -4 10 -9z m445 -75 c-11 -19 -21 -34 -23 -32 -2
3 0 25 4 51 6 42 8 45 22 31 14 -14 14 -19 -3 -50z m-7385 3 c0 -5 -4 -9 -10
-9 -5 0 -10 7 -10 16 0 8 5 12 10 9 6 -3 10 -10 10 -16z m7490 -45 c61 -65 63
-61 -42 -115 l-58 -29 -20 39 -20 40 36 60 c20 34 40 61 44 61 4 0 31 -25 60
-56z m-2218 40 c7 -7 -109 -256 -123 -264 -9 -6 -378 56 -387 65 -3 3 14 48
39 99 l44 95 125 3 c266 8 297 8 302 2z m-5343 -24 l23 0 -7 -117 c-4 -65 -9
-120 -10 -122 -3 -3 -265 103 -289 116 -4 3 14 18 40 32 73 40 131 79 139 92
5 7 21 9 44 5 20 -3 47 -6 60 -6z m7000 -80 c7 -36 15 -76 18 -89 6 -22 5 -23
-22 -9 -25 14 -28 21 -32 82 -8 119 15 129 36 16z m-8219 -85 l0 -155 -104
-49 c-57 -27 -127 -56 -156 -66 l-52 -17 -45 44 -45 45 37 139 c20 76 37 140
39 141 4 4 290 71 309 72 15 1 17 -13 17 -154z m65 115 c8 -26 45 -199 45
-210 0 -8 -70 -50 -85 -50 -3 0 -5 68 -5 150 0 148 0 150 20 138 11 -7 22 -20
25 -28z m1268 -72 c46 -148 53 -182 36 -176 -8 3 -38 13 -67 24 l-53 18 6 71
c18 218 26 225 78 63z m122 91 c50 -6 93 -14 97 -18 7 -6 -51 -102 -107 -176
-34 -43 -30 -47 -84 99 -45 123 -54 113 94 95z m-1260 -64 c39 -13 94 -27 123
-31 29 -4 54 -10 57 -14 4 -7 -212 -110 -231 -110 -5 0 -17 37 -28 82 -10 45
-20 88 -24 96 -4 12 -1 14 14 8 10 -4 51 -18 89 -31z m7957 -14 c-3 -20 -8
-28 -18 -24 -17 6 -17 6 -3 37 15 33 27 25 21 -13z m-8516 -3 c-3 -13 -18 -69
-32 -125 -15 -57 -30 -103 -33 -103 -8 0 -122 178 -128 200 -4 15 8 20 74 33
117 22 127 21 119 -5z m1469 -100 c55 -23 104 -44 108 -48 4 -4 5 -50 1 -103
l-7 -97 -51 -38 c-84 -64 -90 -65 -129 -39 -18 12 -77 58 -130 102 -94 78 -96
81 -91 115 4 19 26 70 51 112 l44 77 52 -20 c29 -11 97 -39 152 -61z m7508 45
c-3 -17 -12 -34 -20 -38 -26 -9 -27 2 -3 40 26 42 29 42 23 -2z m-7755 1 c-7
-15 -14 -21 -16 -15 -5 16 5 41 17 41 7 0 6 -10 -1 -26z m7789 -6 c-3 -7 -5
-2 -5 12 0 14 2 19 5 13 2 -7 2 -19 0 -25z m-8126 2 c18 0 57 -25 125 -82 55
-45 98 -85 97 -89 -3 -8 -65 -113 -100 -167 -14 -23 -17 -20 -95 120 -44 78
-91 163 -105 187 l-26 44 39 -6 c22 -4 51 -7 65 -7z m289 -31 c-8 -45 -40
-111 -52 -107 -4 2 -42 30 -84 63 l-77 60 78 7 c43 4 83 9 89 12 6 2 21 5 32
5 20 1 21 -2 14 -40z m-457 -1 c-73 -96 -177 -219 -179 -212 -2 5 -10 35 -18
67 l-14 58 101 49 c109 52 125 57 110 38z m159 -172 l105 -184 -59 -92 -59
-92 -115 4 c-63 2 -119 9 -125 15 -10 10 -68 224 -69 254 0 16 198 279 210
279 4 0 55 -83 112 -184z m5688 89 c73 -13 134 -26 137 -28 10 -10 -33 -78
-52 -83 -22 -5 -271 39 -282 50 -11 11 30 86 47 86 9 0 77 -11 150 -25z
m-4850 -38 c0 -1 -27 -29 -60 -62 l-59 -59 5 75 c8 106 6 103 64 74 27 -14 50
-27 50 -28z m-1221 -14 c29 -107 28 -112 -34 -188 -32 -39 -61 -71 -66 -73 -5
-2 -9 55 -9 127 l0 130 43 20 c56 26 55 26 66 -16z m-130 -163 c-2 -77 -7
-140 -12 -140 -36 0 -249 135 -244 155 3 12 225 124 246 125 10 0 12 -27 10
-140z m778 125 c-3 -8 -18 -77 -33 -155 -14 -77 -29 -140 -33 -140 -8 0 -61
94 -61 109 0 16 114 200 124 201 4 0 6 -7 3 -15z m124 -90 c49 -42 95 -86 104
-98 15 -21 13 -23 -42 -51 -66 -33 -191 -86 -204 -86 -15 0 -10 72 12 181 23
118 26 129 34 129 4 0 47 -34 96 -75z m5227 11 c101 -18 186 -36 189 -40 6 -5
-2 -25 -72 -183 -62 -141 -75 -254 -39 -355 14 -41 8 -46 -29 -26 -12 6 -62
15 -112 18 -114 8 -232 58 -265 112 -26 43 -27 126 -1 199 24 69 133 309 140
309 3 0 88 -15 189 -34z m-5943 -113 c10 -43 21 -95 25 -115 7 -37 7 -38 -19
-32 -102 22 -151 43 -151 64 0 17 108 160 121 160 3 0 14 -35 24 -77z m476
-80 c13 -32 25 -60 27 -64 3 -8 -137 -33 -144 -26 -6 5 78 147 87 147 3 0 16
-26 30 -57z"/>
</g>
</svg>
