<?xml version="1.0" standalone="no"?>
<!DOCTYPE svg PUBLIC "-//W3C//DTD SVG 20010904//EN"
 "http://www.w3.org/TR/2001/REC-SVG-20010904/DTD/svg10.dtd">
<svg version="1.0" xmlns="http://www.w3.org/2000/svg"
 width="1280.000000pt" height="743.000000pt" viewBox="0 0 1280.000000 743.000000"
 preserveAspectRatio="xMidYMid meet">
<metadata>
Created by potrace 1.15, written by Peter Selinger 2001-2017
</metadata>
<g transform="translate(0.000000,743.000000) scale(0.100000,-0.100000)"
fill="#000000" stroke="none">
<path d="M7 7423 c-4 -3 -7 -96 -7 -204 l0 -199 50 -25 50 -25 0 -169 0 -168
40 -18 40 -18 0 -2878 0 -2878 -40 -22 -40 -23 0 -165 0 -166 -48 -25 -47 -25
0 -205 0 -205 1150 -3 1151 -2 56 50 57 50 133 4 c73 2 376 22 673 45 1170 90
2274 171 2322 171 l43 0 2 1482 3 1483 49 6 c60 7 76 26 76 95 0 46 -6 61 -46
121 -72 107 -74 113 -74 218 0 107 3 115 71 197 58 70 73 113 67 193 -7 77
-27 109 -89 137 -28 13 -50 31 -53 43 -3 11 -6 320 -6 687 l0 666 -40 7 c-22
4 -82 4 -133 0 l-92 -7 -127 60 -127 60 -3 114 -3 113 -45 0 -45 0 -5 -87 -5
-88 -197 97 -198 97 0 103 0 104 -42 -3 -43 -3 -3 -78 c-2 -43 -7 -77 -11 -75
-5 2 -97 46 -205 98 l-196 94 0 78 0 78 -50 0 -50 0 0 -79 0 -79 -102 -41
c-235 -91 -312 -121 -315 -121 -1 0 -4 39 -5 88 -3 83 -4 87 -27 90 -12 2 -34
1 -47 -2 -22 -6 -23 -10 -26 -112 l-3 -107 -200 -78 c-110 -43 -204 -78 -210
-79 -6 0 -10 39 -10 97 l0 98 -47 3 -47 3 -3 -123 -3 -122 -105 -42 c-104 -40
-107 -41 -268 -46 l-162 -6 0 364 0 364 35 0 35 0 0 174 0 175 43 3 42 3 2
195 2 195 -119 103 -119 102 -1149 0 c-632 0 -1152 -3 -1155 -7z m3963 -1317
l0 -44 -31 29 c-17 16 -36 29 -43 30 -14 1 44 28 62 29 8 0 12 -15 12 -44z
m139 -14 c-13 -9 -27 -21 -31 -26 -4 -6 -8 8 -8 32 l0 43 31 -17 31 -16 -23
-16z m-197 -12 c33 -25 53 -97 51 -185 -3 -124 -50 -203 -107 -177 -31 14 -42
52 -25 83 l12 23 17 -22 c30 -37 54 -26 27 12 -9 12 -23 17 -47 14 -28 -2 -35
-8 -42 -33 -10 -38 7 -82 36 -91 18 -6 14 -10 -29 -30 -68 -31 -75 -30 -75 10
0 36 -21 66 -46 66 -27 0 -54 -20 -54 -40 0 -26 14 -25 32 2 19 28 38 16 38
-26 0 -90 -99 -66 -128 32 -15 49 -15 164 -1 216 20 71 77 106 114 70 21 -22
16 -78 -7 -82 -11 -2 -18 3 -18 12 0 9 -7 16 -15 16 -8 0 -15 -6 -15 -13 0
-21 22 -37 50 -37 36 0 50 17 50 61 0 40 -20 69 -48 69 -15 1 -15 2 -2 10 9 5
38 17 66 28 l49 20 0 -40 c0 -40 22 -68 52 -68 18 0 55 39 48 50 -10 16 -23
11 -30 -10 -9 -27 -23 -25 -37 5 -8 19 -8 31 0 50 14 31 49 33 84 5z m283 -6
c21 -21 16 -78 -6 -82 -10 -2 -19 5 -22 18 -6 25 -27 27 -27 2 0 -24 19 -42
46 -42 31 0 54 26 54 61 l0 29 55 -27 c46 -23 53 -30 41 -39 -24 -17 -34 -56
-24 -91 8 -29 13 -33 43 -33 31 0 55 20 55 44 0 16 -29 3 -35 -14 -9 -27 -24
-25 -35 6 -14 35 -13 41 10 64 19 19 22 19 50 5 45 -23 63 -68 68 -166 6 -126
-27 -209 -85 -209 -30 0 -56 40 -47 74 7 31 30 34 39 6 7 -21 20 -26 29 -12 8
14 -23 52 -43 52 -28 0 -51 -23 -53 -52 -3 -34 -6 -34 -69 -7 l-49 21 25 20
c29 23 34 77 9 102 -23 24 -71 21 -79 -5 -9 -28 3 -38 19 -16 17 23 33 22 41
-4 10 -31 -2 -67 -26 -74 -31 -10 -71 24 -91 76 -19 51 -23 165 -7 223 20 71
77 106 114 70z m-745 -169 l0 -44 -25 24 c-13 14 -29 25 -35 25 -22 0 -8 18
23 28 17 5 33 10 35 11 1 1 2 -19 2 -44z m-57 -25 c77 -61 75 -315 -4 -359
-52 -29 -97 7 -83 66 8 28 34 30 41 3 5 -21 33 -28 33 -9 0 24 -22 49 -43 49
-38 0 -59 -22 -60 -64 -1 -31 5 -43 27 -61 l27 -22 -56 -21 c-67 -26 -76 -27
-69 -7 10 26 -6 65 -31 77 -19 9 -29 7 -50 -6 -27 -18 -34 -46 -11 -46 7 0 16
9 19 20 7 26 23 26 37 -1 29 -52 -21 -101 -72 -71 -47 27 -63 74 -63 187 0
117 20 173 68 190 46 15 85 -21 73 -68 -8 -32 -31 -35 -47 -6 -7 14 -14 18
-21 11 -7 -7 -6 -17 2 -32 9 -16 19 -20 43 -18 64 6 76 95 17 125 -24 12 -24
12 20 31 85 36 86 36 87 -3 1 -45 18 -65 52 -65 29 0 51 16 51 37 0 19 -20 16
-36 -4 -13 -17 -15 -17 -29 1 -19 25 -19 51 1 70 21 21 46 20 77 -4z m1215 -3
l22 -13 -25 -22 c-33 -29 -35 -28 -35 13 0 38 4 40 38 22z m80 -43 c14 -10 22
-26 22 -44 0 -35 -19 -49 -35 -27 -12 16 -35 23 -35 11 0 -22 24 -44 48 -44
36 0 52 17 52 52 0 15 2 28 5 28 3 0 29 -12 58 -27 34 -17 46 -28 35 -31 -23
-5 -37 -50 -26 -89 8 -29 13 -33 43 -33 33 0 64 28 48 44 -12 11 -22 6 -28
-14 -9 -27 -23 -25 -37 5 -8 19 -8 31 0 50 25 55 100 12 121 -70 26 -102 3
-240 -45 -271 -43 -29 -93 10 -80 62 8 29 32 32 41 4 7 -21 20 -26 29 -12 9
16 -25 52 -48 52 -29 0 -45 -18 -48 -54 -3 -32 -6 -32 -63 -4 -44 22 -44 22
-25 40 22 20 26 67 10 99 -20 36 -90 17 -90 -25 0 -12 23 -5 35 11 17 23 35 7
35 -32 0 -65 -63 -66 -104 -2 -24 36 -36 139 -25 209 11 71 21 91 51 112 28
20 28 20 56 0z m-1758 -146 c-1 -49 -2 -51 -15 -34 -8 11 -27 27 -42 37 l-27
18 34 15 c19 8 38 15 43 16 4 0 7 -24 7 -52z m-69 -19 c77 -55 78 -299 2 -359
-31 -24 -51 -25 -75 -3 -22 19 -24 66 -4 83 12 9 17 7 28 -9 13 -21 38 -29 38
-13 0 21 -29 45 -55 45 -16 0 -34 -8 -42 -19 -11 -15 -13 0 -12 102 0 65 3
112 6 104 8 -21 24 -30 55 -30 24 0 48 22 48 44 0 13 -28 5 -34 -9 -3 -8 -12
-15 -20 -15 -29 0 -36 73 -8 89 25 15 41 13 73 -10z m740 -76 c-45 -21 -51
-17 -51 35 l0 49 39 -36 38 -36 -26 -12z m1513 15 c-10 -6 -25 -18 -31 -26
-11 -13 -13 -9 -13 26 l0 43 32 -17 c29 -15 30 -17 12 -26z m-1144 -683 l0
-715 -210 0 -210 0 2 632 3 633 200 82 c110 45 203 82 208 82 4 1 7 -321 7
-714z m415 554 l90 -44 0 -615 0 -615 -140 -3 c-77 -2 -168 0 -202 3 l-63 7 0
708 0 709 113 -53 c61 -29 153 -73 202 -97z m91 85 c-5 -12 -10 -13 -28 -3
-34 18 -34 18 -3 44 l30 23 3 -25 c2 -13 1 -31 -2 -39z m719 12 c12 -19 13
-29 4 -52 l-11 -29 -18 23 c-22 27 -30 28 -30 3 0 -25 15 -34 51 -33 l29 1 0
-78 0 -78 -29 5 c-21 3 -33 -2 -45 -19 -20 -29 0 -42 21 -13 10 13 16 15 24 7
16 -16 14 -62 -4 -80 -25 -25 -77 11 -99 68 -19 51 -23 155 -7 214 21 78 82
111 114 61z m-2118 -193 c-41 -23 -52 -16 -52 31 l0 43 37 -31 c36 -31 36 -31
15 -43z m373 -563 l0 -610 -210 2 -210 3 0 519 c0 285 2 522 5 525 7 6 394
168 408 170 4 1 7 -274 7 -609z m1517 504 c-2 -3 -16 0 -30 7 l-25 11 26 23
27 24 3 -31 c2 -16 1 -32 -1 -34z m-187 -34 l185 -89 3 -501 2 -500 -197 2
-198 3 -3 588 c-2 466 0 587 10 587 7 0 96 -41 198 -90z m-1997 -9 c19 -7 18
-9 -11 -19 l-32 -11 0 37 c1 31 2 34 11 19 6 -10 20 -22 32 -26z m2437 -71 c0
-5 -4 -10 -10 -10 -5 0 -10 5 -10 10 0 6 5 10 10 10 6 0 10 -4 10 -10z m-2292
-497 l-3 -498 -93 0 -92 0 2 464 3 465 80 32 c44 18 86 33 93 34 10 0 12 -103
10 -497z m2290 -72 l2 -441 -75 0 -75 0 0 474 0 475 73 -33 72 -33 3 -442z
m442 -549 c0 -66 -4 -83 -25 -115 -14 -20 -28 -37 -30 -37 -3 0 -5 66 -5 148
l1 147 29 -33 c28 -30 30 -38 30 -110z m-2138 8 c-27 -26 -31 -83 -5 -78 9 2
17 13 18 26 3 43 45 55 69 20 24 -35 20 -96 -9 -134 -46 -60 -58 -57 -217 47
-86 56 -93 59 -153 59 -86 0 -106 -10 -190 -90 l-72 -70 -111 0 -112 0 0 120
0 120 402 0 402 0 -22 -20z m168 15 c0 -2 -8 -18 -18 -34 l-18 -29 -22 34 -22
34 40 0 c22 0 40 -2 40 -5z m363 -5 l208 0 -21 -22 c-11 -12 -18 -28 -15 -36
3 -7 5 -18 5 -23 0 -5 7 -9 15 -9 9 0 15 9 15 25 0 15 8 29 21 36 48 25 82
-68 48 -134 -31 -59 -19 -57 -308 -57 -146 0 -271 4 -276 8 -51 36 -72 124
-39 170 24 35 66 24 68 -19 1 -31 30 -31 34 -1 2 15 -6 34 -20 49 l-23 26 40
-6 c22 -4 134 -7 248 -7z m346 -30 c-13 -16 -23 -29 -24 -27 0 1 -9 14 -18 30
l-17 27 40 0 41 0 -22 -30z m821 -85 l0 -115 -93 0 -93 0 -59 61 c-78 79 -105
93 -185 93 -64 0 -67 -1 -173 -72 -60 -40 -117 -72 -127 -72 -29 0 -80 69 -80
108 0 31 24 92 36 92 20 0 44 -24 44 -45 0 -18 5 -25 20 -25 15 0 20 7 20 25
0 14 -9 34 -20 45 l-20 20 365 0 365 0 0 -115z m-1940 10 c15 -8 70 -42 121
-75 75 -48 101 -60 134 -60 47 0 79 19 100 61 l16 30 32 -43 33 -43 302 -3
302 -2 29 46 30 46 15 -31 c22 -41 54 -61 99 -61 31 0 60 14 146 70 99 64 112
70 161 70 52 0 53 0 134 -80 l81 -80 -92 0 c-51 0 -93 4 -93 9 0 5 -7 12 -16
15 -41 16 -84 -27 -65 -63 15 -27 41 -34 67 -16 16 10 49 15 111 15 l87 0 -64
-66 c-120 -121 -151 -124 -305 -24 -95 62 -114 70 -156 70 -40 0 -51 -4 -72
-30 -14 -16 -28 -35 -31 -42 -4 -9 -9 -8 -18 7 -7 10 -25 32 -40 47 l-26 28
-281 0 -280 0 -35 -31 c-19 -16 -38 -39 -41 -50 -5 -16 -11 -13 -39 24 -29 38
-36 42 -82 45 -46 3 -56 -1 -158 -67 -167 -109 -206 -107 -326 14 l-74 75 92
0 c70 0 97 -4 108 -15 20 -19 48 -19 68 1 23 23 20 51 -9 70 -23 15 -27 15
-50 0 -18 -12 -48 -16 -117 -16 l-92 0 74 75 c92 93 153 115 220 80z m-254
-286 c78 -80 116 -99 198 -99 61 0 67 2 154 59 121 80 150 94 177 87 53 -13
84 -124 49 -174 -24 -35 -66 -23 -69 20 -1 13 -9 24 -18 26 -23 5 -23 -45 0
-70 16 -17 5 -18 -313 -18 -181 0 -359 -3 -396 -7 l-68 -6 0 121 0 121 114 0
113 0 59 -60z m2194 -49 l0 -110 -361 0 c-328 0 -359 1 -345 16 23 23 21 64
-3 64 -14 0 -21 -8 -23 -27 -4 -37 -40 -43 -62 -11 -40 57 4 168 67 168 10 0
67 -31 126 -70 106 -69 109 -70 174 -70 81 0 114 17 180 95 l48 55 100 0 99 0
0 -110z m-913 78 c11 -13 25 -32 31 -43 13 -25 0 -101 -20 -121 -20 -21 -48
-7 -55 27 -7 34 -28 38 -36 7 -4 -15 1 -30 15 -45 l21 -23 -243 0 c-235 0
-243 1 -227 18 25 27 22 72 -4 72 -14 0 -19 -5 -17 -18 3 -22 -18 -52 -38 -52
-22 0 -44 42 -44 85 0 27 9 53 25 78 l26 37 273 0 c270 0 273 0 293 -22z
m-650 -196 c-38 -4 -43 2 -21 31 l19 24 16 -26 c16 -26 15 -26 -14 -29z m740
6 c-7 -4 -22 -8 -34 -8 -22 0 -22 1 -5 30 l17 30 17 -23 c12 -16 14 -24 5 -29z
m1233 -108 c26 -51 25 -60 -5 -60 -23 0 -25 3 -25 50 0 28 2 50 5 50 2 0 14
-18 25 -40z m-822 -1486 l-3 -1489 -32 -3 -33 -3 0 1495 0 1495 28 3 c15 2 30
1 35 -2 4 -3 6 -676 5 -1496z m162 11 l0 -1495 -35 0 -35 0 0 1495 0 1495 35
0 35 0 0 -1495z m160 11 c0 -1344 -1 -1484 -16 -1490 -47 -18 -44 -105 -44
1484 l0 1490 30 0 30 0 0 -1484z m-1330 -56 l0 -1530 -40 0 -40 0 0 1523 c0
838 3 1527 7 1530 3 4 21 7 40 7 l33 0 0 -1530z m168 8 l-3 -1523 -32 -3 -33
-3 0 1525 0 1526 35 0 35 0 -2 -1522z m172 8 l0 -1514 -22 -6 c-13 -3 -29 -6
-35 -6 -10 0 -13 311 -13 1520 l0 1520 35 0 35 0 0 -1514z m170 5 l0 -1509
-35 -4 -35 -4 0 1513 0 1513 35 0 35 0 0 -1509z m170 4 l0 -1505 -35 0 -35 0
0 1505 0 1505 35 0 35 0 0 -1505z m160 5 l0 -1500 -35 0 -35 0 0 1500 0 1500
35 0 35 0 0 -1500z m-1893 -852 c-1 -431 -2 -79 -2 782 0 861 1 1213 2 783 2
-431 2 -1135 0 -1565z m178 787 l0 -1550 -37 -3 -38 -3 0 1556 0 1556 38 -3
37 -3 0 -1550z m183 8 l-3 -1548 -37 -3 -38 -3 0 1550 0 1551 40 0 40 0 -2
-1547z m172 7 l0 -1540 -25 -6 c-14 -3 -31 -4 -37 -1 -10 3 -12 319 -10 1546
l2 1541 35 0 35 0 0 -1540z m170 6 l0 -1534 -35 -4 -35 -4 0 1538 0 1538 35 0
35 0 0 -1534z m178 7 l-3 -1528 -37 -3 -38 -3 0 1530 0 1531 40 0 40 0 -2
-1527z"/>
<path d="M10371 7324 l-121 -105 2 -192 3 -192 43 -3 42 -3 0 -175 0 -174 35
0 35 0 0 -366 0 -367 -49 7 c-27 3 -93 6 -147 7 -91 0 -107 3 -206 41 l-107
41 -3 121 -3 121 -47 3 -48 3 0 -100 c0 -56 -3 -101 -7 -101 -5 0 -98 35 -208
79 l-200 78 -3 106 c-3 116 -4 118 -74 108 -27 -3 -27 -4 -30 -86 l-3 -83
-195 77 -195 76 -5 80 -5 80 -47 3 -48 3 0 -78 0 -78 -195 -98 c-107 -53 -197
-97 -200 -97 -3 0 -5 34 -5 75 l0 75 -45 0 -45 0 0 -100 0 -100 -190 -95
c-104 -52 -192 -95 -195 -95 -3 0 -5 38 -5 85 l0 85 -50 0 -50 0 0 -113 0
-112 -115 -58 -115 -57 -140 0 -140 0 0 -667 c0 -368 -3 -678 -6 -690 -3 -12
-17 -24 -32 -28 -43 -11 -91 -45 -107 -75 -9 -18 -15 -57 -15 -102 0 -82 7
-97 89 -193 29 -33 54 -70 57 -82 4 -13 4 -60 2 -105 -3 -72 -7 -89 -33 -126
-105 -153 -115 -177 -94 -236 14 -41 14 -41 70 -44 49 -3 58 -6 63 -25 3 -12
6 -680 6 -1483 l0 -1462 93 -7 c123 -8 892 -68 1357 -105 206 -17 546 -44 755
-60 209 -17 432 -36 495 -42 103 -10 189 -14 346 -17 45 -1 55 -6 106 -51 l56
-50 1151 0 1151 0 0 208 0 207 -48 25 -47 25 -3 167 -2 168 -40 20 -40 20 0
2879 0 2879 40 16 40 16 0 170 0 170 50 25 50 25 0 205 0 205 -1154 0 -1153 0
-122 -106z m-1452 -1187 l32 -14 -35 -27 -36 -27 0 40 c0 23 2 41 4 41 2 0 18
-6 35 -13z m-139 -42 l0 -36 -31 23 c-28 21 -29 24 -13 35 31 22 44 16 44 -22z
m234 -28 c7 -19 7 -33 0 -44 -14 -23 -34 -28 -34 -9 0 19 -19 31 -31 19 -13
-13 18 -53 42 -53 31 0 62 38 57 71 -3 17 0 29 6 28 17 -1 112 -47 99 -48 -34
-3 -55 -68 -37 -115 13 -33 94 -15 94 21 0 20 -24 15 -38 -7 -17 -28 -32 -16
-32 25 0 35 21 65 46 65 34 0 71 -54 83 -122 19 -99 1 -200 -44 -245 -27 -27
-37 -32 -57 -24 -19 7 -23 15 -23 51 0 47 22 68 32 31 6 -22 33 -29 33 -8 0
21 -14 35 -41 42 -35 9 -59 -16 -59 -61 0 -19 -4 -34 -9 -34 -4 0 -32 10 -60
21 -49 21 -50 22 -29 33 30 15 45 58 32 94 -7 22 -16 28 -45 30 -30 3 -37 -1
-47 -23 -10 -22 -9 -25 8 -25 11 0 20 7 20 15 0 26 29 16 36 -12 7 -28 -2 -50
-29 -67 -12 -8 -24 -6 -44 6 -79 47 -85 276 -10 356 29 31 68 26 81 -11z
m-283 -1 c69 -72 62 -294 -12 -349 -47 -34 -93 4 -74 62 7 24 35 29 35 6 0 -8
7 -15 15 -15 18 0 20 21 3 38 -19 19 -55 14 -72 -10 -23 -32 -20 -65 7 -92
l24 -24 -54 -26 -53 -26 0 25 c0 27 -32 65 -54 65 -19 0 -46 -27 -46 -46 0
-21 27 -17 33 6 7 27 25 25 33 -4 13 -53 -13 -84 -60 -72 -79 20 -94 279 -21
352 41 40 85 26 85 -27 0 -15 -6 -32 -14 -38 -12 -10 -17 -8 -26 8 -14 27 -30
27 -30 1 0 -26 43 -44 71 -30 39 21 37 104 -4 119 -20 7 -17 11 30 35 63 31
63 31 63 5 0 -39 19 -59 54 -59 22 0 36 6 40 16 10 25 7 34 -9 34 -8 0 -15 -7
-15 -15 0 -20 -26 -19 -34 1 -10 27 -7 43 14 64 26 26 43 25 71 -4z m694 -136
l28 -11 -24 -16 c-13 -10 -29 -24 -36 -33 -10 -12 -12 -7 -13 33 0 27 4 46 9
43 4 -3 21 -10 36 -16z m83 -42 c15 -15 16 -75 0 -84 -6 -4 -16 0 -23 9 -15
20 -35 22 -35 4 0 -21 22 -37 50 -37 36 0 50 17 50 62 l0 38 53 -21 c53 -21
81 -39 60 -39 -22 0 -43 -32 -43 -64 0 -45 20 -68 54 -64 36 4 56 32 38 50
-10 10 -14 8 -19 -10 -8 -34 -37 -24 -41 14 -3 36 19 64 49 64 28 0 66 -41 78
-86 16 -57 13 -174 -5 -227 -24 -72 -87 -105 -116 -63 -13 18 -9 63 6 75 12
10 17 8 26 -8 14 -26 30 -27 30 -1 0 25 -34 43 -63 34 -29 -9 -37 -22 -37 -62
0 -37 -3 -37 -84 -3 l-39 17 27 17 c47 31 29 127 -24 127 -22 0 -50 -26 -50
-46 0 -21 27 -17 33 6 7 27 26 25 36 -2 11 -31 3 -57 -25 -75 -21 -14 -26 -13
-53 7 -39 27 -55 82 -55 180 0 88 17 144 52 177 28 25 52 29 70 11z m-1218
-38 c0 -16 -4 -30 -10 -30 -5 0 -10 4 -10 9 0 5 -10 13 -22 17 -21 6 -21 7 -3
20 30 22 45 17 45 -16z m-32 -53 c48 -98 25 -293 -38 -327 -43 -23 -82 18 -65
69 7 24 35 29 35 6 0 -8 7 -15 15 -15 18 0 20 21 3 38 -19 19 -55 14 -72 -10
-23 -32 -20 -65 7 -92 l24 -24 -44 -21 c-55 -27 -63 -26 -63 3 0 27 -24 56
-46 56 -8 0 -23 -9 -35 -21 -16 -16 -18 -24 -9 -32 8 -8 14 -8 16 -2 19 47 44
41 44 -9 0 -72 -69 -73 -105 -1 -15 31 -20 60 -20 130 0 102 21 159 67 184 35
20 58 2 58 -45 0 -42 -16 -52 -39 -23 -12 15 -20 18 -25 11 -8 -13 28 -52 48
-52 45 0 65 96 26 123 -18 13 -17 15 26 35 54 27 54 27 54 4 0 -30 25 -54 54
-54 28 0 46 15 46 40 0 21 -27 13 -33 -10 -5 -18 -8 -19 -21 -8 -44 36 11 117
59 86 11 -7 26 -25 33 -39z m1687 -77 l29 -11 -31 -19 c-17 -10 -33 -24 -36
-32 -3 -7 -6 9 -6 35 -1 27 3 46 8 43 4 -3 21 -10 36 -16z m90 -54 c12 -17 13
-30 6 -49 -13 -34 -28 -41 -36 -17 -7 22 -35 28 -35 7 0 -21 22 -37 50 -37 14
0 31 5 38 12 9 9 12 -10 12 -85 0 -53 -2 -97 -4 -97 -3 0 -16 4 -29 9 -28 11
-67 -10 -67 -35 0 -21 28 -17 35 6 9 27 24 25 35 -5 22 -59 -30 -104 -79 -68
-56 42 -78 182 -46 291 25 81 88 118 120 68z m-759 -83 c-3 -3 -19 0 -36 7
l-31 13 33 31 33 31 3 -39 c2 -21 1 -40 -2 -43z m-1476 27 l0 -30 -26 17 c-25
16 -25 17 -8 30 27 20 34 16 34 -17z m1375 -95 l100 -41 3 -632 2 -632 -200 0
-200 0 0 714 0 715 98 -41 c53 -23 142 -60 197 -83z m-736 64 c1 -5 -44 -29
-54 -29 -3 0 -5 18 -5 41 l0 41 29 -24 c17 -13 30 -26 30 -29z m341 -663 c0
-633 -2 -704 -16 -710 -9 -3 -99 -6 -200 -6 l-184 0 0 615 0 615 188 94 c103
52 193 95 200 95 9 1 12 -146 12 -703z m-1023 662 c34 -38 46 -92 41 -187 -3
-47 -11 -99 -18 -114 -16 -32 -61 -60 -84 -51 -22 9 -30 48 -15 75 l12 23 15
-22 c18 -27 32 -28 32 -2 0 22 -34 44 -56 36 -11 -4 -14 9 -14 73 0 74 1 79
20 74 25 -7 50 13 50 38 0 25 -17 24 -30 -1 -15 -27 -28 -25 -36 5 -8 31 19
75 44 75 10 0 28 -10 39 -22z m2043 -168 c0 -44 -7 -47 -55 -26 l-29 12 32 19
c18 11 32 23 32 27 0 4 5 8 10 8 6 0 10 -18 10 -40z m-185 -77 c88 -37 166
-71 173 -76 9 -8 12 -120 10 -526 l-3 -516 -207 -3 -208 -2 0 610 0 610 38
-15 c20 -9 109 -46 197 -82z m-1681 0 c-27 -20 -34 -16 -34 17 l0 30 26 -17
c25 -16 25 -17 8 -30z m356 -543 l0 -590 -195 0 -195 0 0 498 0 499 188 91
c103 50 190 92 195 92 4 0 7 -265 7 -590z m1777 473 c-3 -3 -16 -2 -28 2 l-22
7 24 14 c20 11 25 10 27 -2 2 -9 1 -18 -1 -21z m-77 -87 l75 -32 0 -462 0
-463 -82 -4 -83 -4 0 500 c0 274 3 499 8 498 4 0 41 -15 82 -33z m-2190 -506
l0 -470 -65 0 -65 0 0 440 0 440 58 29 c31 17 60 30 65 31 4 0 7 -211 7 -470z
m-520 -592 l0 -151 -26 24 c-36 33 -54 79 -54 139 0 75 33 138 73 140 4 0 7
-68 7 -152z m1940 36 c0 -3 -9 -17 -19 -30 l-19 -25 -16 23 c-23 32 -20 38 19
38 19 0 35 -3 35 -6z m848 -111 l-3 -118 -104 -3 -105 -3 -70 70 c-39 38 -81
74 -93 80 -12 6 -51 11 -88 11 -65 0 -67 -1 -180 -75 -94 -63 -118 -75 -140
-69 -59 15 -90 139 -44 180 25 23 53 9 57 -30 4 -29 26 -35 36 -10 10 26 7 34
-20 59 l-27 25 392 0 392 0 -3 -117z m-1716 91 c-30 -21 -31 -74 -1 -74 16 0
20 5 16 19 -3 12 3 27 14 37 18 16 20 16 39 -1 15 -14 20 -31 20 -70 0 -45 -5
-58 -29 -84 -16 -17 -36 -31 -44 -31 -9 0 -64 32 -122 72 -104 70 -108 72
-168 72 -78 -1 -107 -16 -179 -93 l-56 -61 -86 0 -86 0 0 115 0 115 352 0
c322 0 351 -1 330 -16z m158 9 c0 -5 -8 -18 -18 -30 l-17 -23 -17 30 -17 30
34 0 c19 0 35 -3 35 -7z m536 -12 c-20 -22 -18 -66 4 -66 8 0 17 11 20 24 3
13 14 29 23 35 26 16 57 -25 57 -73 0 -34 -30 -98 -54 -113 -6 -4 -129 -8
-273 -8 l-262 0 -27 46 c-21 36 -25 53 -21 86 7 53 27 74 56 59 13 -7 21 -21
21 -37 0 -19 5 -25 18 -22 25 5 27 43 3 67 l-21 21 237 0 c232 0 236 0 219
-19z m629 -90 c23 -10 65 -47 98 -84 l59 -67 -87 0 c-61 0 -93 4 -110 16 -43
28 -86 -6 -70 -56 9 -28 51 -37 74 -16 15 14 35 16 104 14 l85 -3 -67 -72
c-52 -55 -77 -74 -110 -83 -59 -16 -91 -6 -179 54 -104 72 -134 86 -180 86
-44 0 -62 -12 -90 -59 l-20 -33 -16 30 c-9 17 -28 40 -42 51 -26 20 -38 21
-288 21 -143 0 -271 -3 -283 -6 -12 -3 -34 -24 -49 -47 -24 -37 -27 -39 -37
-21 -25 48 -50 64 -98 64 -43 0 -59 -7 -151 -70 -146 -100 -186 -97 -292 22
l-56 63 75 3 c53 2 81 -1 97 -12 44 -29 89 4 73 53 -9 28 -41 36 -70 17 -26
-17 -175 -23 -175 -8 0 5 33 41 74 80 72 70 75 72 125 72 46 0 60 -6 154 -70
88 -59 110 -70 146 -70 42 0 66 16 99 66 9 14 14 15 18 6 3 -7 17 -26 31 -42
l25 -30 287 0 c285 0 288 0 308 23 11 12 26 33 33 46 l12 23 20 -33 c28 -46
47 -58 91 -59 40 0 82 18 132 56 66 50 150 94 179 94 17 0 49 -9 71 -19z
m-1780 -273 c74 -84 99 -98 176 -98 66 0 68 1 172 70 58 39 114 70 125 70 57
0 95 -108 61 -172 -19 -35 -76 -9 -62 30 3 7 -4 12 -16 12 -26 0 -29 -40 -5
-64 14 -15 -16 -16 -330 -16 l-346 0 0 110 0 110 89 0 89 0 47 -52z m2170 -68
l0 -115 -32 1 c-18 0 -190 1 -383 2 l-350 2 20 20 c21 21 23 29 14 54 -10 25
-32 19 -36 -10 -8 -67 -65 -50 -78 23 -11 61 34 133 82 133 7 0 64 -34 127
-75 111 -74 114 -75 178 -75 35 0 74 5 86 11 12 7 54 42 93 80 l71 68 104 -2
104 -2 0 -115z m-941 70 c32 -48 35 -107 7 -141 -16 -20 -23 -22 -38 -13 -10
6 -19 23 -21 38 -2 18 -9 26 -23 26 -24 0 -26 -45 -2 -72 16 -17 8 -18 -215
-18 -128 0 -232 4 -232 9 0 5 7 14 15 21 20 17 15 54 -7 58 -13 3 -18 -3 -18
-22 0 -26 -28 -50 -47 -38 -39 26 -43 103 -8 155 l26 37 268 0 268 0 27 -40z
m-640 -168 c-34 -4 -38 1 -22 27 l13 21 17 -22 c17 -22 16 -23 -8 -26z m703
-10 c-38 -4 -43 2 -21 31 l19 24 16 -26 c16 -26 15 -26 -14 -29z m-1907 -102
l0 -60 -30 0 c-21 0 -30 5 -30 17 0 16 47 103 55 103 3 0 5 -27 5 -60z m520
-1466 l0 -1485 -27 3 -28 3 -3 1483 -2 1482 30 0 30 0 0 -1486z m168 -6 l2
-1488 -35 0 -35 0 0 1491 0 1490 33 -3 32 -3 3 -1487z m140 1486 l22 -6 0
-1489 0 -1489 -35 0 -35 0 0 1488 c0 819 3 1492 7 1495 8 8 12 8 41 1z m182
-1498 c0 -822 -3 -1497 -8 -1499 -4 -3 -19 -3 -35 0 l-27 5 0 1494 0 1494 35
0 35 0 0 -1494z m160 -11 c0 -1477 0 -1505 -19 -1505 -11 0 -26 3 -35 6 -15 6
-16 147 -16 1505 l0 1499 35 0 35 0 0 -1505z m160 -5 l0 -1510 -30 0 -30 0 0
1510 0 1510 30 0 30 0 0 -1510z m170 -5 l0 -1515 -35 0 -35 0 0 1515 0 1515
35 0 35 0 0 -1515z m160 -8 l0 -1524 -30 5 -30 4 0 1519 0 1519 30 0 30 0 0
-1523z m173 1511 c-2 -5 -3 -692 -3 -1528 0 -1492 0 -1520 -19 -1520 -11 0
-26 3 -35 6 -15 6 -16 149 -16 1523 0 835 3 1521 7 1525 9 9 69 3 66 -6z m153
2 c12 0 14 -216 14 -1531 l0 -1530 -32 3 -33 3 -3 1520 c-1 836 0 1526 3 1534
3 7 12 10 21 7 9 -3 22 -6 30 -6z m184 -1535 l0 -1535 -35 0 -35 0 0 1535 0
1535 35 0 35 0 0 -1535z m170 -11 l0 -1546 -22 6 c-13 3 -29 6 -35 6 -10 0
-13 315 -13 1540 l0 1540 35 0 35 0 0 -1546z m178 -1 l-3 -1548 -35 0 -35 0
-3 1548 -2 1547 40 0 40 0 -2 -1547z m172 -8 l0 -1555 -35 0 -35 0 0 1555 0
1555 35 0 35 0 0 -1555z"/>
</g>
</svg>
