<?xml version="1.0" standalone="no"?>
<!DOCTYPE svg PUBLIC "-//W3C//DTD SVG 20010904//EN"
 "http://www.w3.org/TR/2001/REC-SVG-20010904/DTD/svg10.dtd">
<svg version="1.0" xmlns="http://www.w3.org/2000/svg"
 width="1195.000000pt" height="1280.000000pt" viewBox="0 0 1195.000000 1280.000000"
 preserveAspectRatio="xMidYMid meet">
<metadata>
Created by potrace 1.15, written by Peter Selinger 2001-2017
</metadata>
<g transform="translate(0.000000,1280.000000) scale(0.100000,-0.100000)"
fill="#000000" stroke="none">
<path d="M10259 11966 c-2 -2 -184 -7 -404 -11 -582 -11 -587 -11 -625 -5 -26
5 -45 1 -75 -16 -22 -12 -67 -27 -100 -33 -33 -6 -65 -18 -72 -27 -6 -9 -15
-41 -19 -72 -14 -112 -5 -455 14 -527 5 -22 13 -80 16 -130 3 -49 8 -106 11
-126 5 -36 5 -36 -38 -43 -58 -10 -51 -10 -246 4 -172 13 -193 12 -509 -16
-44 -4 -65 -10 -71 -22 -5 -9 -16 -64 -26 -122 -13 -86 -16 -148 -11 -340 3
-129 7 -257 11 -285 8 -68 -4 -84 -41 -58 -176 121 -231 153 -263 153 -11 0
-25 8 -30 18 -5 9 -66 46 -136 81 -125 63 -128 64 -144 45 -12 -14 -30 -19
-70 -20 -41 -2 -71 -11 -135 -44 -291 -150 -440 -250 -621 -414 -77 -70 -147
-140 -155 -156 -8 -16 -20 -30 -26 -30 -23 0 -221 -230 -334 -387 l-75 -105
-345 1 c-431 1 -561 -8 -627 -40 -40 -20 -49 -30 -55 -59 -9 -45 -27 -246 -33
-380 -2 -58 -9 -130 -15 -160 -30 -164 -19 -723 15 -776 11 -17 28 -23 82 -29
l68 -7 1 -646 c0 -356 3 -659 7 -673 6 -22 3 -28 -16 -33 -12 -3 -209 -6 -437
-6 -228 0 -420 -4 -427 -8 -33 -21 -36 -66 -37 -537 -1 -258 1 -491 4 -517 l6
-48 -250 0 c-310 -1 -566 -14 -603 -32 l-28 -13 -6 -195 c-3 -107 -9 -221 -14
-252 -6 -52 -5 -60 18 -89 l25 -32 -24 -35 c-27 -39 -28 -56 -14 -212 5 -58
10 -220 10 -360 1 -276 13 -430 36 -443 21 -12 17 -41 -11 -65 -34 -30 -39
-57 -31 -190 3 -65 8 -155 11 -202 2 -47 2 -77 -1 -67 -6 20 -20 23 -26 5 -3
-7 -17 8 -32 32 -27 44 -27 44 -24 14 4 -31 4 -32 -19 -17 -46 30 -35 3 18
-47 54 -50 54 -51 18 -36 -52 20 -74 3 -23 -19 36 -15 38 -17 19 -28 -27 -16
-355 -15 -410 1 -58 16 -458 18 -655 2 -91 -7 -258 -15 -373 -17 l-207 -4 -16
-24 c-14 -21 -17 -67 -19 -298 -2 -149 -8 -303 -14 -342 -6 -38 -11 -99 -11
-135 0 -36 -7 -76 -14 -89 l-13 -24 -6 24 c-3 13 -9 47 -13 74 -3 28 -10 56
-14 64 -10 19 -23 -88 -15 -125 6 -28 6 -28 -10 -9 -13 15 -19 17 -22 7 -3 -8
-16 2 -35 28 -39 52 -78 73 -112 60 -34 -13 -33 -18 4 -12 41 6 71 -16 118
-85 68 -101 69 -109 8 -59 -68 55 -122 74 -168 58 -32 -11 -32 -11 -4 -8 47 6
95 -13 142 -56 24 -22 44 -43 44 -47 0 -3 -21 -6 -47 -7 -27 0 -158 -4 -292
-8 -206 -6 -251 -10 -295 -27 -78 -30 -128 -69 -155 -122 -14 -27 -31 -47 -41
-47 -29 0 -98 -81 -102 -120 -3 -30 -7 -35 -39 -43 -27 -6 -48 -22 -75 -57
-22 -27 -44 -49 -51 -50 -14 0 -52 -52 -75 -102 -10 -22 -33 -47 -58 -63 -22
-14 -45 -38 -50 -53 -47 -130 -52 -137 -113 -178 -98 -63 -101 -72 -105 -236
-2 -78 -1 -156 3 -175 l6 -33 5702 2 5702 3 -1 160 c0 220 -24 295 -92 295
-14 0 -21 9 -26 33 -3 17 -22 54 -41 81 -27 39 -33 54 -28 80 3 17 10 36 14
42 5 6 7 13 4 16 -3 3 1 20 9 39 10 23 13 61 11 114 -2 44 -6 208 -10 365 -8
313 -21 436 -59 532 -13 35 -26 72 -28 83 -2 11 -12 24 -23 30 -45 23 -47 26
-22 46 21 16 24 25 20 66 -2 27 -16 84 -31 128 -23 71 -26 95 -26 215 0 127 1
138 27 187 27 52 27 55 27 247 0 151 -3 200 -15 222 -8 16 -17 49 -21 74 -11
84 -24 120 -42 120 -39 2 -85 35 -97 70 -10 31 -17 36 -51 40 -35 5 -39 8 -42
36 -2 18 -12 40 -23 50 -20 18 -19 18 6 38 20 16 26 32 29 71 2 28 6 57 10 65
3 9 2 44 -2 78 -5 35 -5 65 0 68 4 3 8 90 8 194 l0 189 -27 19 c-16 10 -37 22
-48 26 -18 7 -18 8 8 29 41 34 50 133 52 552 1 204 7 397 13 445 13 94 15 385
3 467 -7 48 -6 52 13 55 39 6 44 40 57 403 22 597 22 682 4 717 -8 17 -15 38
-15 48 0 27 -22 40 -67 40 -24 0 -43 2 -43 3 0 8 34 74 52 99 21 30 25 138 7
185 -24 63 -29 138 -28 436 1 386 2 373 -15 405 -21 40 -46 59 -91 67 -22 4
-34 10 -27 12 7 3 20 19 30 36 15 28 17 72 20 367 2 184 1 363 -3 398 -6 56
-10 64 -36 77 l-29 16 23 25 c35 37 41 151 46 879 1 66 1 131 0 145 0 14 3 55
7 92 7 73 -2 98 -37 98 -26 0 -24 14 7 45 l26 26 -8 107 c-12 142 -9 340 7
430 12 71 8 310 -6 357 -11 37 -68 45 -313 45 -126 0 -231 -2 -233 -4z m-2644
-2384 c70 -46 163 -120 222 -176 55 -53 106 -96 112 -96 6 0 11 -4 11 -9 0 -6
48 -63 106 -128 58 -65 137 -163 176 -218 75 -106 103 -134 130 -135 14 0 16
-6 12 -28 -4 -21 13 -65 74 -189 44 -88 83 -179 87 -202 4 -23 11 -41 17 -41
6 0 7 -7 4 -16 -3 -9 3 -51 14 -95 14 -52 22 -130 27 -232 6 -152 6 -154 -15
-160 -35 -8 -30 -66 8 -99 22 -19 30 -35 30 -60 0 -19 6 -43 14 -53 12 -16 13
-106 8 -552 -4 -404 -2 -536 7 -547 8 -10 9 -16 2 -21 -15 -9 -15 -2181 0
-2190 6 -4 6 -11 1 -18 -13 -16 -23 -967 -11 -989 6 -11 6 -19 -1 -23 -8 -5
-11 -147 -9 -457 1 -321 -2 -453 -10 -461 -6 -6 -11 -25 -11 -43 0 -22 -11
-45 -35 -74 -19 -23 -35 -47 -35 -53 0 -6 -3 -8 -6 -5 -3 3 2 23 11 43 8 21
13 40 10 43 -3 3 -5 1 -5 -4 0 -6 -7 -19 -15 -30 -14 -18 -15 -17 -10 11 5 28
4 27 -14 -9 l-19 -39 -7 44 c-4 24 -11 51 -16 59 -8 14 -7 -9 6 -105 3 -23 -2
-17 -20 24 -14 29 -25 57 -25 62 0 4 -4 10 -9 13 -5 3 1 -32 14 -79 13 -47 22
-85 20 -85 -3 0 -14 18 -25 40 -24 47 -33 51 -24 13 l7 -28 -29 26 c-38 34
-51 38 -99 29 l-40 -7 28 -13 29 -14 -39 -12 c-36 -12 -36 -13 -8 -12 53 2 71
-2 91 -17 18 -14 17 -15 -11 -10 l-30 6 35 -20 c19 -10 48 -33 64 -50 l30 -31
-882 0 c-667 0 -887 -3 -901 -12 -15 -9 -25 -9 -46 0 -24 11 -25 15 -14 30 13
16 12 16 -7 0 -11 -10 -23 -18 -27 -18 -9 0 20 78 43 117 16 28 17 32 3 37 -9
4 -16 5 -17 4 -1 -2 -11 -23 -23 -48 -22 -45 -22 -45 -17 -10 20 133 34 167
49 119 4 -11 9 -19 11 -16 8 7 -15 57 -26 57 -16 0 -47 -57 -55 -103 -5 -25
-10 -35 -12 -24 -3 10 -10 16 -16 14 -8 -2 -11 -23 -9 -58 l3 -54 -20 41 c-21
46 -87 124 -104 124 -6 0 1 -12 14 -27 24 -27 69 -98 69 -110 0 -3 -8 1 -17 8
-10 7 -6 0 10 -17 37 -41 34 -54 -9 -54 -21 0 -33 4 -29 10 3 5 1 10 -4 10 -6
0 -11 -4 -11 -10 0 -5 -4 -10 -10 -10 -6 0 -10 36 -10 88 0 85 -1 89 -30 117
-21 20 -30 38 -30 60 0 17 -7 40 -15 52 -13 18 -15 85 -15 457 0 285 -4 437
-11 441 -7 5 -6 11 1 20 17 20 10 1022 -7 1051 -10 18 -10 24 2 34 13 11 15
81 15 494 0 352 -3 485 -12 494 -8 8 -8 15 0 25 9 11 12 297 12 1127 0 983 1
1115 15 1130 8 9 15 31 15 49 0 24 9 41 31 62 24 22 30 35 27 61 -2 26 -8 34
-27 36 l-24 4 6 157 c9 236 50 394 160 614 39 78 69 150 68 160 -1 9 4 17 13
17 8 0 54 55 103 123 48 67 135 174 194 237 58 63 111 125 118 138 6 12 16 22
22 22 6 0 59 43 117 95 58 53 157 128 220 167 63 39 116 78 119 85 4 11 7 11
17 -1 6 -8 65 -50 131 -94z m735 -7362 c24 -15 7 -18 -20 -3 -14 7 -18 13 -10
13 8 0 22 -4 30 -10z m-6730 -120 c0 -11 -4 -20 -10 -20 -5 0 -10 9 -10 20 0
11 5 20 10 20 6 0 10 -9 10 -20z"/>
<path d="M8335 2290 c-12 -4 -27 -16 -35 -26 -14 -17 -14 -18 2 -6 9 7 29 17
44 21 16 4 24 10 19 13 -6 3 -19 2 -30 -2z"/>
</g>
</svg>
