<?xml version="1.0" standalone="no"?>
<!DOCTYPE svg PUBLIC "-//W3C//DTD SVG 20010904//EN"
 "http://www.w3.org/TR/2001/REC-SVG-20010904/DTD/svg10.dtd">
<svg version="1.0" xmlns="http://www.w3.org/2000/svg"
 width="1280.000000pt" height="954.000000pt" viewBox="0 0 1280.000000 954.000000"
 preserveAspectRatio="xMidYMid meet">
<metadata>
Created by potrace 1.15, written by Peter Selinger 2001-2017
</metadata>
<g transform="translate(0.000000,954.000000) scale(0.100000,-0.100000)"
fill="#000000" stroke="none">
<path d="M4795 8197 c-754 -738 -2140 -2095 -3080 -3015 -1696 -1660 -1710
-1674 -1712 -1715 l-3 -42 1140 -760 c627 -418 1178 -785 1224 -815 47 -30 85
-57 85 -61 1 -3 -71 -69 -159 -148 -88 -78 -160 -146 -160 -150 0 -5 327 -342
726 -750 l726 -741 4244 0 4244 0 0 371 0 371 31 107 c18 62 38 113 49 122 11
9 102 63 202 119 l183 102 99 261 99 261 -28 405 c-16 225 -31 525 -33 672
l-4 265 32 110 c17 60 47 160 66 222 34 113 34 114 16 140 -11 15 -237 340
-504 722 -266 382 -855 1226 -1307 1874 l-823 1179 101 381 c95 357 112 436
94 436 -5 0 -153 -32 -331 -72 -279 -62 -324 -70 -337 -57 -7 8 -203 293 -434
633 l-421 619 -68 37 -67 37 -400 37 c-220 21 -757 71 -1193 112 -436 41 -823
74 -860 74 l-67 -1 -1370 -1342z m2840 1144 c176 -17 471 -44 655 -61 184 -17
350 -33 368 -36 l32 -5 0 -744 c0 -700 -1 -744 -17 -749 -10 -3 -279 -82 -598
-176 -319 -94 -595 -175 -612 -181 -30 -10 -33 -14 -33 -50 0 -37 2 -39 30
-39 17 0 30 -5 30 -10 0 -6 -43 -233 -95 -505 -52 -273 -95 -501 -95 -508 -1
-24 -39 34 -68 105 -45 108 -71 218 -84 356 -32 336 72 798 284 1255 45 99 58
137 56 166 l-3 38 -575 -93 c-316 -50 -575 -91 -576 -90 -1 0 -6 249 -13 551
-6 303 -14 629 -17 725 l-7 176 509 -48 c280 -26 653 -61 829 -77z m-1465
-621 c0 -648 -2 -741 -15 -746 -8 -4 -336 -88 -727 -188 l-713 -182 -7 -50
c-3 -27 -16 -78 -28 -114 -63 -193 -116 -442 -140 -670 -16 -147 -14 -499 4
-650 38 -320 127 -631 252 -882 40 -81 44 -94 44 -164 0 -61 -8 -101 -40 -201
-141 -443 -130 -934 34 -1420 51 -152 80 -222 152 -365 l54 -108 -67 0 -68 0
-129 -146 c-105 -119 -131 -143 -141 -132 -24 24 -194 353 -286 549 -623 1335
-752 2645 -364 3691 99 268 283 593 453 801 98 119 430 464 868 899 377 374
840 817 857 818 4 0 7 -333 7 -740z m3050 -150 c216 -325 391 -592 389 -594
-5 -6 -751 -187 -754 -184 -1 2 -7 239 -14 528 -6 289 -14 596 -17 683 -4 86
-4 157 -2 157 3 0 182 -266 398 -590z m-2434 -705 c-231 -96 -428 -177 -438
-181 -18 -5 -19 0 -16 87 l3 93 415 87 c228 48 424 87 435 88 11 0 -169 -78
-399 -174z m3413 141 c-2 -2 -89 -43 -192 -91 l-188 -88 -34 33 c-19 19 -33
36 -30 38 4 4 417 108 439 111 5 1 7 -1 5 -3z m-485 -177 c14 -17 26 -34 26
-37 0 -8 -859 -332 -878 -332 -8 0 -12 28 -12 90 0 89 0 90 28 96 15 4 196 53
402 110 206 56 382 102 392 103 9 1 28 -13 42 -30z m-3544 -79 l0 -70 -56 -25
c-82 -36 -228 -81 -345 -106 -122 -26 -367 -32 -459 -11 -79 18 -190 54 -190
61 0 7 989 219 1028 220 21 1 22 -3 22 -69z m2520 -225 c0 -71 -1 -75 -22 -75
-13 0 -201 -16 -418 -35 -216 -19 -395 -33 -396 -32 -3 3 805 215 824 216 8 1
12 -20 12 -74z m1556 -438 c51 -73 630 -908 1288 -1856 658 -948 1195 -1725
1194 -1727 -2 -1 -359 -69 -793 -150 l-790 -147 -222 -179 c-123 -98 -229
-181 -236 -184 -22 -8 -81 202 -116 416 -34 207 -44 376 -38 615 11 386 58
714 169 1173 l42 172 33 0 33 0 0 75 0 75 -34 0 c-41 0 -69 29 -210 216 -219
291 -352 580 -416 897 -26 129 -43 352 -35 457 9 133 28 280 34 280 3 0 47
-60 97 -133z m-3106 -1514 c-112 -20 -670 -125 -688 -130 -22 -5 -23 -3 -20
33 l3 39 85 8 c467 46 561 54 600 54 25 0 34 -2 20 -4z m-910 -112 l0 -58
-287 -63 c-159 -34 -424 -93 -590 -129 -167 -37 -303 -65 -303 -62 0 4 33 30
72 59 83 62 257 149 373 187 100 33 336 80 475 95 58 6 139 15 180 19 41 5 76
9 78 10 1 0 2 -25 2 -58z m705 -137 c-220 -79 -424 -153 -452 -164 l-53 -20 0
75 c0 41 1 75 3 75 1 1 196 41 432 89 237 49 439 89 450 89 11 1 -160 -64
-380 -144z m3368 -33 l138 -6 -683 -104 c-376 -57 -695 -105 -710 -108 l-28
-5 0 74 0 75 78 17 c261 55 744 78 1205 57z m-4075 -133 l-3 -93 -100 -17
c-148 -25 -384 -40 -520 -33 -122 6 -322 29 -385 44 -33 8 -34 8 -10 15 14 3
169 31 345 62 176 30 390 68 475 84 223 40 201 47 198 -62z m4372 58 c0 -19
-412 -225 -575 -289 -304 -118 -653 -203 -916 -223 l-89 -7 0 111 0 110 28 6
c15 3 365 69 777 146 413 77 755 142 760 144 15 6 15 6 15 2z m-1854 -183 c-3
-3 -123 -39 -268 -80 -145 -40 -285 -80 -311 -88 -26 -8 -45 -10 -42 -5 4 6
10 10 14 10 5 0 143 60 307 134 l299 134 3 -50 c2 -28 1 -52 -2 -55z m-1117
-230 l64 -107 -98 -295 -99 -296 -9 70 c-12 99 -1 464 17 553 18 84 47 182 55
182 4 0 35 -48 70 -107z m1121 -15 l0 -93 -414 0 c-228 0 -412 2 -410 5 5 4
785 176 812 179 9 1 12 -24 12 -91z m-6900 -543 c280 -33 585 -132 903 -294
308 -157 616 -358 1072 -701 495 -372 719 -542 734 -556 12 -11 4 -27 -58
-109 -251 -329 -558 -556 -859 -635 -285 -75 -609 -36 -927 110 -85 39 -2540
1414 -2564 1436 -37 34 253 333 430 444 420 262 820 358 1269 305z m4450
-1190 c0 -41 -4 -75 -8 -75 -5 0 -192 -16 -416 -35 -225 -20 -410 -34 -413
-32 -6 6 146 61 287 103 126 38 439 105 533 113 15 1 17 -9 17 -74z m700 35
c360 -29 444 -37 378 -39 -39 -1 -763 -60 -825 -67 l-53 -5 0 76 0 77 58 -6
c31 -3 230 -20 442 -36z m439 -187 c27 -179 130 -529 214 -722 32 -74 37 -95
37 -163 0 -74 1 -78 23 -78 12 0 272 16 577 35 305 19 565 35 577 35 l23 0 0
-444 c0 -415 -1 -445 -17 -450 -46 -13 -277 -27 -358 -21 -330 25 -548 125
-764 350 -178 187 -332 452 -476 820 l-47 121 -195 36 c-107 20 -197 38 -199
40 -2 3 -18 69 -36 149 l-33 144 -133 3 -132 3 0 74 0 75 38 1 c20 0 213 15
427 33 215 19 406 34 426 35 l37 1 11 -77z m-1139 -33 l0 -40 -42 5 c-108 12
-266 25 -311 25 -103 0 -30 15 151 31 103 9 190 17 195 18 4 0 7 -17 7 -39z
m3860 -558 l25 -6 -25 -3 c-14 -2 -248 -33 -520 -68 -272 -36 -507 -67 -522
-70 l-28 -4 0 112 0 112 522 -33 c288 -19 534 -36 548 -40z m-1270 -42 c0 -76
-4 -110 -11 -110 -7 0 -194 -16 -417 -35 -223 -20 -406 -34 -408 -32 -4 4 806
285 824 286 9 1 12 -27 12 -109z m1317 -227 c-36 -637 -387 -942 -1064 -924
l-53 1 0 445 c0 245 1 445 3 446 6 2 1084 147 1101 148 18 1 19 -5 13 -116z"/>
</g>
</svg>
