<?xml version="1.0" standalone="no"?>
<!DOCTYPE svg PUBLIC "-//W3C//DTD SVG 20010904//EN"
 "http://www.w3.org/TR/2001/REC-SVG-20010904/DTD/svg10.dtd">
<svg version="1.0" xmlns="http://www.w3.org/2000/svg"
 width="859.000000pt" height="1280.000000pt" viewBox="0 0 859.000000 1280.000000"
 preserveAspectRatio="xMidYMid meet">
<metadata>
Created by potrace 1.15, written by Peter Selinger 2001-2017
</metadata>
<g transform="translate(0.000000,1280.000000) scale(0.100000,-0.100000)"
fill="#000000" stroke="none">
<path d="M4299 12790 c-96 -17 -132 -51 -169 -160 -20 -59 -22 -86 -24 -295
l-1 -230 -365 -3 c-359 -3 -554 6 -617 28 -51 18 -67 73 -82 281 -9 123 -25
174 -63 198 -57 36 -260 20 -396 -31 -42 -16 -56 -27 -71 -56 -33 -67 -61
-156 -90 -287 -35 -156 -63 -234 -94 -263 -49 -46 -266 -113 -484 -148 -180
-30 -239 7 -273 173 -27 128 -76 182 -156 171 -57 -8 -150 -46 -183 -74 -45
-37 -54 -80 -54 -249 0 -122 5 -173 26 -275 164 -790 208 -992 217 -1002 11
-14 318 44 960 181 810 172 1038 195 1796 181 913 -18 1530 -70 1934 -165 492
-115 700 -172 900 -246 132 -48 170 -52 204 -20 56 52 120 215 190 481 33 129
140 596 157 690 12 67 23 331 15 372 -8 45 -47 84 -89 91 -109 19 -201 -57
-222 -183 -9 -56 -38 -114 -67 -134 -50 -35 -176 -7 -379 84 -196 87 -278 155
-304 250 -3 14 -23 66 -42 115 -99 250 -168 313 -358 323 -124 6 -157 -8 -190
-83 -20 -44 -25 -73 -25 -138 0 -58 -6 -94 -19 -122 -19 -44 -78 -101 -119
-116 -56 -22 -189 -29 -552 -29 l-379 -1 -5 203 c-9 306 -34 424 -99 472 -26
19 -44 21 -205 23 -97 1 -198 -2 -223 -7z"/>
<path d="M5575 12539 c-41 -80 -43 -136 -10 -219 16 -39 34 -70 40 -70 41 0
75 25 109 80 55 88 51 116 -27 196 -35 35 -68 64 -75 64 -6 0 -23 -23 -37 -51z"/>
<path d="M3193 12488 c-37 -47 -44 -166 -13 -213 l19 -29 17 39 c25 59 30 145
10 183 -19 36 -20 37 -33 20z"/>
<path d="M6992 12116 c-61 -45 -88 -78 -77 -96 11 -17 80 -30 112 -21 70 20
97 57 91 122 -3 30 -7 34 -34 37 -23 2 -45 -8 -92 -42z"/>
<path d="M3555 10773 c-241 -9 -560 -40 -775 -74 -452 -72 -915 -219 -1112
-352 -79 -53 -86 -90 -26 -127 43 -26 121 -26 269 0 112 20 174 34 559 123
403 94 656 138 1020 179 176 20 1060 16 1350 -5 691 -52 1325 -155 1995 -323
153 -39 192 -45 258 -42 75 3 96 12 97 42 0 19 -72 75 -146 113 -350 180
-1132 385 -1694 442 -221 23 -516 31 -1110 29 -338 -1 -646 -3 -685 -5z"/>
<path d="M3660 10404 c-319 -22 -606 -69 -980 -161 -440 -108 -670 -216 -670
-314 0 -39 6 -49 40 -72 34 -24 123 -22 174 3 93 45 344 110 576 149 319 54
625 70 1331 71 1008 0 1675 -54 2339 -191 154 -32 236 -32 308 -3 42 17 44 54
5 82 -212 150 -923 315 -1663 387 -360 35 -599 47 -995 50 -225 1 -435 1 -465
-1z"/>
<path d="M4010 9973 c-630 -23 -1229 -102 -1544 -203 -152 -50 -180 -75 -238
-225 -49 -125 -66 -208 -89 -435 -23 -234 -27 -266 -45 -350 -61 -283 -419
-3307 -428 -3620 -2 -52 -11 -186 -21 -298 -10 -111 -15 -206 -11 -209 9 -9
337 13 699 46 633 60 786 69 1304 80 1023 22 2023 -38 2893 -175 398 -62 422
-65 489 -62 l66 3 -1 40 c-1 22 -13 139 -27 260 -43 357 -84 866 -152 1890
-120 1800 -213 2779 -277 2920 -13 28 -43 44 -153 79 -276 88 -841 198 -1190
231 -324 30 -884 43 -1275 28z m1050 -2555 c0 -398 3 -740 6 -760 l7 -38 -662
0 -661 0 0 760 0 760 655 0 655 0 0 -722z"/>
<path d="M4869 7768 c-10 -24 -14 -85 -14 -225 0 -165 2 -195 16 -209 16 -15
18 -11 30 57 21 125 14 409 -11 409 -4 0 -14 -15 -21 -32z"/>
<path d="M3615 4554 c-460 -9 -932 -36 -1230 -69 -388 -43 -807 -143 -1010
-241 -70 -34 -191 -146 -163 -152 9 -2 91 17 182 42 472 132 1179 237 1976
293 317 22 1483 26 1825 5 688 -41 1077 -85 1819 -208 375 -62 457 -58 357 14
-167 121 -863 221 -1951 282 -452 25 -1384 43 -1805 34z"/>
<path d="M3565 4234 c-727 -27 -1773 -148 -2235 -259 -271 -65 -447 -149 -438
-210 4 -26 4 -26 387 46 826 156 1219 206 1876 240 284 15 1593 15 1915 0
1061 -49 1717 -116 2420 -246 354 -66 362 -66 340 -24 -80 149 -1067 314
-2545 425 -307 23 -403 26 -985 28 -355 2 -685 2 -735 0z"/>
<path d="M3550 3819 c-708 -7 -934 -16 -1275 -49 -689 -69 -1368 -208 -1527
-313 -148 -98 -487 -1238 -714 -2402 -16 -81 -28 -177 -28 -227 -1 -79 1 -89
24 -114 103 -113 1107 -436 1925 -620 238 -53 468 -94 533 -94 59 0 111 26
135 67 32 56 65 291 117 823 40 415 94 845 125 997 125 612 510 1163 985 1412
167 87 279 111 518 111 434 0 657 -91 975 -399 251 -244 408 -497 527 -853
133 -397 198 -855 230 -1608 6 -140 16 -284 21 -320 20 -125 63 -157 198 -147
97 8 438 66 696 118 638 130 1407 362 1542 465 40 30 41 50 18 254 -86 746
-418 2461 -491 2534 -31 32 -322 101 -794 191 -553 104 -789 138 -1085 155
-164 9 -1705 32 -1900 28 -38 -1 -378 -5 -755 -9z m-1643 -949 c161 -18 219
-50 243 -135 18 -64 8 -304 -25 -575 -42 -354 -69 -493 -115 -595 -33 -72 -71
-110 -126 -124 -69 -18 -275 -30 -569 -33 -307 -3 -333 1 -360 53 -8 15 -15
53 -15 83 0 100 127 806 175 971 68 235 157 334 327 365 60 10 340 5 465 -10z
m5673 -1 c60 -27 87 -70 130 -207 124 -396 308 -1138 298 -1204 -3 -21 -11
-24 -83 -35 -123 -17 -457 -26 -565 -15 -124 13 -265 48 -315 77 -118 68 -219
329 -345 890 -55 246 -75 385 -60 430 24 74 90 84 560 81 293 -1 350 -4 380
-17z"/>
<path d="M1931 2513 c-14 -50 -14 -145 0 -180 l11 -28 19 40 c27 60 33 126 15
169 -19 46 -32 46 -45 -1z"/>
<path d="M4325 2470 l8 -840 -270 0 -270 0 -6 377 c-4 207 -7 513 -7 680 l0
303 -56 0 -57 0 6 -357 c11 -567 12 -993 4 -993 -4 0 -135 0 -292 0 l-285 0
-1 168 c0 92 -4 176 -8 187 -7 18 -8 18 -24 -5 -60 -95 -146 -554 -177 -954
-16 -203 -17 -642 -2 -679 26 -63 58 1 96 196 28 138 70 465 86 667 6 74 14
173 18 220 l7 85 298 3 297 2 0 -86 c0 -74 2 -85 16 -80 9 3 31 6 50 6 l34 0
0 80 0 80 271 -2 272 -3 4 -80 c3 -44 6 -81 8 -83 2 -2 24 0 49 3 l46 7 0 81
0 80 68 -6 c37 -4 172 -7 300 -7 l232 0 0 -70 0 -70 50 0 50 0 0 70 0 70 305
0 c236 0 307 -3 310 -12 2 -7 11 -206 20 -443 21 -581 34 -709 78 -769 13 -18
15 -16 31 29 54 160 44 820 -20 1230 -34 222 -74 368 -132 480 -31 60 -31 60
-31 25 -1 -29 21 -220 45 -397 l5 -43 -229 0 c-126 0 -263 3 -304 6 l-76 7 -6
501 c-4 275 -8 593 -9 706 l-2 205 -53 3 -53 3 6 -618 c3 -340 8 -660 10 -710
l5 -93 -298 0 -299 0 -6 248 c-4 136 -7 412 -7 613 0 201 -3 468 -7 592 l-6
227 -50 0 -49 0 7 -840z"/>
</g>
</svg>
