<?xml version="1.0" standalone="no"?>
<!DOCTYPE svg PUBLIC "-//W3C//DTD SVG 20010904//EN"
 "http://www.w3.org/TR/2001/REC-SVG-20010904/DTD/svg10.dtd">
<svg version="1.0" xmlns="http://www.w3.org/2000/svg"
 width="584.000000pt" height="1280.000000pt" viewBox="0 0 584.000000 1280.000000"
 preserveAspectRatio="xMidYMid meet">
<metadata>
Created by potrace 1.15, written by Peter Selinger 2001-2017
</metadata>
<g transform="translate(0.000000,1280.000000) scale(0.100000,-0.100000)"
fill="#000000" stroke="none">
<path d="M2936 12779 c-3 -8 -37 -151 -76 -319 -175 -748 -180 -767 -296
-1057 -58 -148 -110 -280 -114 -294 -5 -15 -30 -60 -57 -100 -27 -41 -65 -102
-84 -137 -28 -52 -32 -65 -22 -81 10 -16 5 -29 -36 -88 -68 -98 -105 -169 -98
-192 3 -15 -7 -33 -34 -63 -42 -46 -79 -113 -79 -142 0 -10 -9 -30 -19 -45
-10 -14 -34 -58 -53 -96 -19 -39 -53 -99 -76 -135 -24 -36 -47 -82 -53 -104
-6 -21 -23 -49 -39 -62 -35 -30 -90 -115 -90 -139 0 -10 -32 -51 -71 -92 -41
-42 -69 -79 -66 -87 3 -8 -16 -34 -45 -62 -27 -27 -60 -70 -74 -96 -13 -26
-28 -49 -34 -53 -5 -3 -10 -13 -10 -22 0 -8 -18 -33 -40 -54 -42 -41 -80 -106
-80 -138 0 -11 -6 -24 -14 -28 -41 -23 -137 -126 -142 -152 -4 -19 -30 -52
-71 -91 -44 -43 -62 -67 -58 -79 3 -12 -16 -35 -71 -80 -68 -58 -75 -67 -70
-92 5 -26 -3 -35 -94 -110 -59 -48 -100 -89 -100 -100 0 -10 -43 -53 -105
-104 -58 -47 -105 -93 -105 -101 0 -25 -29 -61 -83 -102 -76 -58 -107 -91
-102 -105 3 -7 -28 -33 -77 -64 -89 -56 -178 -140 -178 -167 0 -10 -5 -26 -11
-37 -8 -16 -6 -26 7 -47 22 -34 69 -81 115 -115 28 -21 35 -33 32 -51 -5 -27
19 -56 48 -56 10 0 38 5 61 11 64 16 113 -7 123 -58 10 -55 73 -111 169 -151
84 -36 280 -92 404 -117 43 -8 87 -17 98 -20 18 -4 23 -15 28 -59 4 -30 15
-65 25 -78 13 -17 18 -46 20 -115 3 -99 -11 -159 -40 -168 -19 -6 -15 -43 7
-52 23 -9 25 -75 9 -323 -51 -821 -114 -2205 -116 -2550 0 -174 -3 -198 -20
-225 -31 -50 -39 -74 -39 -125 0 -27 -4 -52 -10 -55 -5 -3 -10 -28 -10 -55 0
-63 -10 -69 -148 -80 -72 -6 -132 -18 -182 -36 -65 -23 -85 -25 -151 -21 -68
6 -81 3 -122 -18 -25 -14 -51 -25 -57 -25 -6 0 -47 -17 -90 -37 -88 -41 -83
-33 -100 -163 -20 -156 -9 -280 24 -280 4 0 22 -16 42 -35 25 -26 43 -35 67
-35 47 0 67 -43 56 -120 -4 -30 -8 -128 -8 -217 -1 -139 -4 -170 -22 -218 -12
-33 -18 -66 -15 -78 11 -36 26 -369 35 -752 14 -617 20 -627 396 -766 44 -17
103 -37 130 -45 28 -9 73 -29 102 -45 28 -16 72 -36 97 -43 25 -8 67 -30 94
-50 27 -19 84 -49 128 -66 43 -17 97 -39 119 -49 50 -23 165 -47 275 -59 84
-8 131 -8 242 4 45 5 65 2 105 -17 47 -22 53 -22 488 -21 242 0 496 3 565 6
344 14 469 17 885 20 492 3 459 0 727 72 70 19 133 34 140 34 11 0 74 27 226
96 29 13 60 24 70 24 10 0 28 7 40 16 46 32 163 57 282 59 63 2 118 3 122 4
19 3 38 65 38 126 0 36 4 85 9 108 5 23 15 69 22 102 19 85 22 1132 4 1225 -8
44 -12 159 -11 354 l1 290 80 31 80 31 7 49 c16 127 6 262 -28 351 -14 38 -20
42 -67 53 -29 6 -63 17 -77 24 -14 7 -59 19 -99 27 -43 8 -83 22 -93 32 -10
10 -33 18 -52 18 -19 0 -38 4 -41 10 -3 5 -19 10 -36 10 l-29 0 3 94 c2 77 -1
97 -15 113 -14 15 -18 37 -18 90 0 51 -4 74 -15 83 -8 7 -15 22 -15 35 0 12
-3 25 -6 28 -4 4 -8 510 -9 1124 -2 1124 -8 1383 -44 1943 -10 157 -14 287
-10 288 5 2 9 12 9 22 0 10 9 20 20 23 30 8 27 67 -5 97 -29 28 -23 34 44 45
42 7 179 58 240 90 56 28 89 64 96 103 5 34 11 39 68 65 134 60 174 84 232
144 45 45 59 66 54 80 -3 10 -1 26 5 35 8 13 7 21 -1 29 -9 9 -9 18 -2 32 9
16 4 26 -38 65 -26 24 -83 70 -125 102 -43 31 -75 60 -71 64 8 8 -111 122
-174 167 -24 16 -50 43 -58 59 -8 16 -38 48 -67 72 -58 48 -110 99 -178 173
-210 229 -250 275 -250 283 0 5 -27 39 -60 75 -33 36 -60 71 -60 79 0 8 -30
45 -67 83 -36 39 -65 74 -64 79 1 4 -15 28 -36 51 -53 61 -83 102 -83 113 0 5
-11 17 -24 26 -28 17 -92 106 -88 120 2 4 -19 31 -46 60 -27 28 -61 71 -77 96
-16 25 -48 75 -72 111 -24 36 -43 73 -43 81 0 9 -11 30 -25 46 -14 17 -23 37
-19 45 3 10 -22 50 -68 109 -72 92 -90 119 -114 168 -6 14 -22 47 -35 75 -13
27 -39 69 -56 93 -18 24 -33 52 -33 63 0 29 -29 80 -57 102 -15 12 -23 27 -20
37 2 9 -2 28 -9 41 -7 13 -13 36 -14 50 0 14 -15 46 -33 70 -42 56 -67 124
-63 171 3 32 -6 49 -74 140 -42 57 -81 119 -87 138 -6 19 -59 165 -117 324
-58 159 -106 294 -106 301 0 6 -50 166 -111 356 l-111 344 -18 193 c-17 184
-24 222 -34 191z m1615 -5739 c10 -6 19 -17 19 -25 0 -7 4 -15 10 -17 6 -2 4
-101 -5 -273 -8 -148 -15 -310 -15 -359 0 -50 -4 -86 -8 -80 -5 5 -21 38 -37
74 -15 36 -52 109 -81 163 -43 79 -52 105 -47 129 5 24 1 35 -20 54 -33 31
-41 59 -35 135 3 47 9 63 26 75 18 12 22 25 22 69 l0 54 38 4 c75 8 114 7 133
-3z m-2752 -41 c64 -7 121 -15 128 -18 8 -4 -10 -33 -50 -84 -34 -43 -97 -137
-139 -210 l-78 -131 0 204 c0 113 -3 215 -6 228 -8 26 -12 26 145 11z m1301
-83 c36 -19 152 -104 207 -153 46 -41 197 -235 243 -312 127 -214 243 -606
257 -868 3 -57 10 -103 14 -103 5 0 9 -12 9 -27 0 -41 18 -98 38 -123 11 -13
35 -25 58 -29 l39 -6 -3 -95 c-2 -52 6 -345 17 -650 30 -781 29 -717 9 -732
-20 -15 -26 -78 -34 -325 l-5 -173 -174 0 c-104 0 -211 6 -267 15 -51 8 -133
17 -181 21 l-89 6 7 36 c17 96 17 128 1 141 -20 17 -21 68 -2 107 14 30 11
104 -5 104 -12 0 -11 87 1 95 15 9 11 87 -5 109 -17 22 -20 92 -5 101 13 8 13
82 0 90 -5 3 -10 24 -10 45 0 21 5 42 10 45 15 9 12 99 -5 121 -17 22 -20 90
-4 100 8 4 9 27 4 68 -6 55 -7 101 -5 199 1 41 -7 362 -16 632 -4 116 -7 264
-6 330 6 289 6 278 -17 330 -35 79 -68 115 -137 147 -59 28 -63 31 -69 71 -4
23 -17 60 -30 82 -19 35 -23 58 -28 180 -4 110 -9 152 -26 195 -28 72 -27 77
13 82 32 4 34 2 52 -50 20 -61 48 -102 70 -102 18 0 17 18 -1 50 -8 14 -14 39
-15 56 0 17 -11 52 -24 78 -13 27 -27 59 -30 72 -4 16 -14 24 -27 24 -15 0
-19 -5 -15 -15 4 -10 -1 -15 -14 -15 -24 0 -26 26 -6 55 12 18 22 19 92 15 48
-3 93 -13 114 -24z m-258 -18 c-2 -24 -9 -47 -16 -53 -41 -32 -46 -91 -15
-161 17 -37 24 -82 31 -186 l9 -137 -27 -36 c-20 -26 -29 -52 -32 -91 -4 -48
-8 -56 -38 -75 -77 -47 -135 -147 -149 -256 -4 -29 -1 -81 9 -132 22 -113 21
-136 -9 -165 -27 -27 -33 -72 -15 -107 9 -15 3 -36 -30 -102 -22 -45 -40 -87
-40 -92 0 -6 -18 -47 -40 -93 -22 -45 -42 -94 -45 -110 -9 -38 -45 -120 -72
-161 -13 -19 -23 -42 -23 -52 0 -9 -18 -54 -39 -98 -21 -44 -44 -93 -50 -108
-7 -16 -18 -39 -26 -53 -22 -38 -18 -66 15 -103 23 -26 30 -44 30 -75 0 -42
-12 -52 -71 -52 -24 0 -27 -4 -33 -52 -8 -74 -8 -126 3 -146 4 -9 11 -207 15
-438 l7 -422 -34 -6 c-76 -14 -215 -22 -302 -17 -22 1 -66 -1 -97 -4 -32 -4
-65 -4 -75 0 -10 4 -31 8 -48 9 l-30 1 -3 80 c-2 57 -7 83 -18 91 -18 14 -15
142 16 689 12 198 27 544 34 768 14 452 9 427 82 427 26 0 51 7 67 20 33 27
67 97 67 142 0 23 6 38 15 42 10 3 15 19 15 48 0 74 38 309 64 393 13 44 36
119 50 167 60 200 150 367 250 461 186 176 390 286 531 287 l71 0 -4 -42z
m1102 -368 c14 -22 26 -52 26 -67 0 -23 -6 -16 -30 35 -17 35 -30 66 -30 68 0
11 10 1 34 -36z m-754 -814 c0 -24 -16 -43 -27 -32 -8 8 6 56 17 56 6 0 10
-11 10 -24z m-530 -56 c0 -16 -4 -30 -8 -30 -5 0 -7 14 -4 30 2 17 6 30 8 30
2 0 4 -13 4 -30z m497 -72 c-3 -37 -2 -148 3 -245 6 -98 10 -279 10 -403 1
-124 5 -253 9 -288 4 -35 4 -65 -1 -68 -12 -8 -10 -112 3 -120 8 -4 9 -39 4
-114 -5 -75 -4 -110 4 -114 16 -11 13 -82 -4 -96 -19 -16 -19 -47 1 -85 12
-23 14 -44 9 -90 -9 -78 -9 -80 3 -150 7 -43 7 -64 -1 -73 -13 -16 -10 -93 4
-106 12 -13 12 -93 -1 -101 -16 -10 -12 -78 6 -103 8 -12 14 -32 12 -45 -3
-20 -8 -22 -77 -23 l-73 -1 6 91 c3 50 13 242 22 426 8 184 19 339 25 345 14
14 11 141 -4 153 -6 6 -24 13 -39 17 -38 10 -42 66 -10 115 32 47 26 72 -47
223 -34 68 -61 131 -61 139 0 7 -22 60 -50 116 -27 56 -50 106 -50 112 0 5
-20 51 -45 101 -25 51 -45 98 -45 106 0 8 -18 53 -41 100 -29 61 -38 88 -30
96 18 18 13 72 -9 100 -11 14 -20 33 -20 43 0 15 4 14 28 -8 45 -42 109 -69
181 -75 l67 -6 94 66 c86 59 96 63 108 48 10 -11 12 -35 9 -83z m20 15 c-3
-10 -5 -2 -5 17 0 19 2 27 5 18 2 -10 2 -26 0 -35z m-495 -27 c5 -10 7 -28 4
-42 -5 -19 -13 -24 -40 -24 -38 0 -51 24 -36 64 10 27 57 28 72 2z m508 -66
c0 -22 -4 -40 -10 -40 -5 0 -10 18 -10 40 0 22 5 40 10 40 6 0 10 -18 10 -40z
m-492 -72 c6 -16 8 -28 3 -28 -9 0 -31 44 -31 62 0 16 13 -1 28 -34z m-68 27
c0 -14 -32 -66 -37 -61 -8 7 17 66 28 66 5 0 9 -2 9 -5z m54 -89 c15 -46 33
-90 41 -96 8 -7 15 -20 15 -29 0 -9 9 -31 20 -49 11 -18 20 -40 20 -49 0 -10
20 -58 44 -108 24 -49 47 -103 51 -120 4 -16 27 -66 51 -109 24 -43 42 -81 40
-84 -3 -2 2 -22 11 -44 12 -31 13 -45 4 -64 -19 -43 -13 -93 15 -126 17 -22
24 -40 22 -62 l-3 -31 -335 2 c-184 1 -345 2 -356 2 -18 1 -23 9 -28 46 -6 37
-4 50 13 71 24 31 28 96 7 113 -17 14 -1 66 61 197 24 50 43 96 43 102 0 9 34
84 71 152 10 19 18 44 19 56 0 11 5 25 11 31 12 12 63 126 98 221 13 34 27 62
31 62 4 0 19 -38 34 -84z m503 2 c-2 -13 -4 -3 -4 22 0 25 2 35 4 23 2 -13 2
-33 0 -45z m1360 -2 c5 -4 4 -1718 -1 -1724 -3 -3 -6 -16 -6 -29 0 -38 -18
-26 -25 17 -4 22 -11 42 -16 46 -5 3 -9 32 -9 64 0 32 -5 62 -11 65 -5 4 -15
18 -20 33 -9 22 -38 1108 -39 1418 l0 120 63 -4 c34 -2 63 -5 64 -6z m-1808
-27 c14 -39 14 -49 1 -49 -11 0 -39 61 -33 73 9 15 21 6 32 -24z m-149 16 c0
-14 -32 -65 -40 -65 -12 0 -12 0 1 39 6 17 17 31 25 31 8 0 14 -2 14 -5z m602
-71 c2 -19 0 -37 -4 -40 -4 -3 -8 3 -8 13 0 10 -3 28 -6 41 -4 12 -2 22 4 22
5 0 12 -16 14 -36z m-413 -55 c17 -49 12 -58 -9 -19 -22 40 -24 50 -11 50 5 0
14 -14 20 -31z m-259 -29 c-6 -12 -14 -19 -17 -16 -4 3 0 18 8 32 7 14 15 21
17 15 2 -5 -2 -20 -8 -31z m680 -37 c0 -13 -4 -23 -10 -23 -5 0 -10 17 -10 38
0 27 3 33 10 22 5 -8 10 -25 10 -37z m-717 -58 c-16 -34 -33 -46 -33 -25 0 6
7 24 15 41 22 42 38 26 18 -16z m353 14 c10 -21 12 -35 6 -41 -7 -7 -17 3 -31
31 -18 34 -19 41 -6 41 8 0 22 -14 31 -31z m364 -60 c0 -24 -4 -38 -10 -34 -5
3 -10 22 -10 41 0 19 5 34 10 34 6 0 10 -18 10 -41z m-765 -55 c-8 -20 -15
-38 -15 -41 0 -2 -4 -1 -10 2 -5 3 -3 20 7 40 22 46 37 45 18 -1z m441 0 c8
-20 13 -38 10 -41 -5 -6 -36 51 -36 67 0 20 11 9 26 -26z m324 -54 c0 -22 -4
-40 -10 -40 -5 0 -10 18 -10 40 0 22 5 40 10 40 6 0 10 -18 10 -40z m-805 -49
c-6 -30 -35 -44 -35 -18 0 16 30 60 37 53 3 -2 2 -18 -2 -35z m530 9 c18 -36
19 -50 2 -50 -14 0 -39 58 -31 71 8 14 12 11 29 -21z m272 -92 c-2 -13 -4 -3
-4 22 0 25 2 35 4 23 2 -13 2 -33 0 -45z m-854 -23 c-9 -19 -20 -35 -25 -35
-4 0 0 16 9 35 9 19 20 35 25 35 4 0 0 -16 -9 -35z m625 0 c14 -30 16 -54 4
-39 -15 17 -32 64 -23 64 4 0 13 -11 19 -25z m242 -65 c0 -29 -4 -40 -15 -40
-11 0 -15 11 -15 40 0 29 4 40 15 40 11 0 15 -11 15 -40z m-895 -17 c-4 -10
-10 -26 -12 -35 -5 -18 -15 -23 -26 -12 -10 10 15 64 30 64 10 0 13 -5 8 -17z
m709 -29 c9 -20 15 -39 12 -41 -9 -9 -46 37 -46 57 0 31 14 24 34 -16z m-740
-54 c21 -8 26 -16 26 -43 0 -18 -6 -41 -13 -51 -29 -39 -73 22 -54 77 10 31 8
30 41 17z m768 -35 c13 -18 9 -63 -7 -79 -32 -31 -65 14 -51 68 4 18 12 24 29
23 12 0 25 -6 29 -12z m158 -85 c0 -22 -4 -40 -10 -40 -5 0 -10 18 -10 40 0
22 5 40 10 40 6 0 10 -18 10 -40z m10 -221 c0 -52 -24 -48 -28 4 -2 28 1 37
12 37 12 0 16 -11 16 -41z m10 -209 c0 -23 -4 -30 -20 -30 -16 0 -20 7 -20 30
0 23 4 30 20 30 16 0 20 -7 20 -30z m8 -192 c-2 -30 -8 -42 -20 -44 -15 -2
-18 6 -18 42 0 38 3 44 21 44 18 0 20 -5 17 -42z m2 -207 c0 -44 -2 -49 -20
-44 -16 4 -20 14 -20 43 0 34 8 47 33 49 4 1 7 -21 7 -48z m4 -183 c11 -44 7
-69 -11 -66 -30 5 -37 88 -8 88 7 0 15 -10 19 -22z"/>
</g>
</svg>
