<?xml version="1.0" standalone="no"?>
<!DOCTYPE svg PUBLIC "-//W3C//DTD SVG 20010904//EN"
 "http://www.w3.org/TR/2001/REC-SVG-20010904/DTD/svg10.dtd">
<svg version="1.0" xmlns="http://www.w3.org/2000/svg"
 width="1132.000000pt" height="1280.000000pt" viewBox="0 0 1132.000000 1280.000000"
 preserveAspectRatio="xMidYMid meet">
<metadata>
Created by potrace 1.15, written by Peter Selinger 2001-2017
</metadata>
<g transform="translate(0.000000,1280.000000) scale(0.100000,-0.100000)"
fill="#000000" stroke="none">
<path d="M4889 12419 c-7 -14 -13 -82 -14 -178 l-3 -156 -304 -16 c-166 -10
-397 -20 -513 -23 -394 -12 -495 -18 -495 -29 0 -6 12 -23 27 -39 l27 -28 -33
-40 -33 -41 26 -38 c32 -45 32 -52 -2 -120 l-27 -55 -241 -52 c-133 -28 -253
-54 -268 -58 -23 -6 -26 -11 -26 -51 0 -52 -33 -43 293 -85 226 -30 234 -30
663 -29 239 1 437 0 439 -2 3 -4 -114 -95 -629 -489 -260 -199 -399 -328 -478
-445 l-62 -90 -22 109 c-23 109 -35 136 -60 136 -11 0 -14 -19 -14 -84 0 -92
-8 -107 -52 -99 -46 9 -73 48 -72 105 0 44 -1 48 -13 32 -34 -46 -6 -129 74
-215 58 -64 63 -73 63 -114 0 -31 -15 -83 -47 -163 -26 -64 -48 -118 -49 -120
-1 -2 -57 38 -124 87 -135 101 -149 109 -246 146 -119 45 -112 -9 14 -96 41
-29 109 -88 151 -133 42 -44 98 -103 124 -129 l48 -48 -17 -121 c-14 -98 -16
-159 -10 -336 3 -120 9 -247 12 -283 l6 -66 -56 -7 c-61 -8 -76 -22 -76 -74 0
-29 2 -31 70 -43 39 -7 73 -16 75 -20 11 -17 26 -163 26 -248 -1 -82 -4 -100
-29 -144 -54 -100 -233 -175 -511 -212 -64 -9 -176 -29 -249 -46 -73 -16 -143
-29 -155 -29 l-22 0 9 511 c4 280 6 513 3 516 -3 3 -20 -5 -37 -17 -17 -12
-33 -20 -36 -17 -3 2 -19 165 -37 361 -17 195 -34 352 -38 348 -3 -4 -23 -68
-43 -143 -35 -127 -41 -139 -81 -179 l-42 -42 -38 46 c-21 25 -41 46 -45 46
-4 0 -19 -24 -35 -52 -15 -29 -45 -75 -65 -103 -20 -27 -63 -93 -94 -145 l-56
-96 -10 -414 c-6 -227 -13 -416 -16 -419 -10 -10 -71 67 -108 138 -39 74 -59
97 -77 86 -15 -10 -4 -108 21 -181 11 -32 20 -61 20 -66 0 -32 -137 33 -197
94 -53 55 -143 186 -143 209 0 10 32 46 70 80 67 60 85 89 57 89 -23 0 -131
-69 -165 -105 -42 -46 -42 -81 4 -187 68 -160 65 -148 47 -148 -22 0 -172 153
-222 229 -41 60 -43 66 -39 125 3 53 10 71 41 114 20 28 33 54 28 56 -15 10
-99 -73 -111 -110 l-12 -36 -28 34 c-97 116 27 -168 140 -321 71 -96 136 -154
233 -210 74 -42 325 -132 405 -146 l39 -6 -2 -52 c-2 -29 -6 -239 -9 -467 -4
-228 -9 -463 -12 -521 l-6 -107 53 -36 53 -36 33 32 33 32 23 -22 c22 -21 24
-21 84 -5 l61 17 35 -27 c20 -15 39 -27 43 -27 4 0 22 11 40 25 40 31 41 31
85 1 l36 -25 41 25 c40 24 42 28 42 72 0 66 9 447 16 689 l6 201 47 6 c210 25
302 29 421 17 207 -19 345 -73 506 -198 117 -90 191 -187 293 -385 248 -481
454 -791 845 -1273 209 -256 294 -382 322 -473 8 -26 21 -92 30 -147 8 -55 24
-127 34 -160 17 -54 20 -109 25 -535 10 -685 -10 -1073 -85 -1700 -42 -348
-40 -332 -54 -327 -7 3 -35 -30 -67 -80 l-54 -85 -8 143 c-5 79 -11 147 -15
151 -4 4 -8 -71 -9 -165 -3 -184 -8 -237 -24 -237 -5 0 -7 10 -4 23 3 12 -1
42 -9 67 l-14 45 -1 -53 c-1 -57 -32 -132 -55 -132 -9 0 -15 22 -19 72 -3 39
-10 75 -14 79 -5 5 -5 -41 0 -102 5 -69 5 -119 -1 -137 -8 -22 -11 -9 -11 63
-1 96 -14 223 -32 315 l-11 54 -19 -23 c-14 -17 -19 -19 -19 -8 0 17 57 188
84 251 9 22 15 41 12 43 -7 7 -44 -65 -82 -159 -33 -83 -114 -379 -114 -419 0
-8 -7 -24 -15 -35 -14 -17 -15 -14 -9 36 6 52 54 263 69 305 6 14 5 17 -3 10
-19 -17 -81 -221 -99 -322 -11 -60 -19 -88 -24 -77 -4 13 -8 3 -13 -31 -4 -28
-11 -57 -15 -64 -16 -26 -21 37 -11 160 9 121 11 269 3 219 -2 -14 -11 -57
-19 -97 -8 -40 -14 -89 -15 -110 -1 -37 -1 -37 -8 -8 -4 17 -8 98 -9 180 -3
167 -19 352 -34 375 -6 11 -8 6 -4 -15 3 -16 8 -113 11 -215 5 -150 4 -181 -6
-165 -7 11 -16 69 -21 130 -8 119 -21 193 -45 268 -23 74 -26 49 -4 -34 27
-99 41 -250 35 -384 -7 -160 -15 -167 -35 -30 -10 66 -22 131 -28 145 -11 23
-11 22 -6 -10 12 -75 35 -318 34 -365 l-1 -50 -9 40 c-4 22 -9 58 -10 80 -1
38 -2 39 -8 10 -6 -25 -8 -17 -14 40 -11 96 -35 198 -64 273 -35 86 -38 73 -6
-19 15 -42 27 -102 29 -139 1 -36 7 -85 13 -110 15 -66 25 -263 15 -296 -6
-21 -10 11 -14 111 -5 93 -14 167 -28 220 -12 44 -24 101 -27 128 -4 26 -11
47 -17 47 -11 0 -7 -75 8 -149 5 -24 4 -32 -4 -27 -7 4 -9 -4 -5 -27 4 -24 0
-37 -13 -47 -14 -12 -18 -12 -22 -2 -2 7 -15 25 -29 40 -22 24 -23 25 -13 4 6
-13 10 -40 8 -60 l-3 -37 -44 68 c-45 67 -74 92 -48 40 15 -31 40 -123 34
-129 -2 -2 -18 10 -35 26 -26 24 -32 36 -32 72 0 70 -21 83 -49 30 l-12 -22
-67 36 c-37 21 -69 39 -71 40 -2 2 6 27 18 56 34 79 36 84 23 73 -6 -6 -25
-35 -41 -65 l-30 -55 -73 3 c-45 2 -92 -3 -123 -12 -38 -12 -51 -13 -57 -3 -6
8 -10 5 -14 -10 -3 -12 -12 -24 -19 -27 -10 -3 -16 11 -21 52 -12 96 -24 103
-17 11 5 -73 3 -87 -10 -92 -17 -6 -21 2 -32 68 -7 44 -35 138 -40 133 -2 -2
5 -39 16 -83 29 -122 28 -129 -37 -188 -31 -29 -60 -53 -64 -55 -5 -2 -13 13
-20 33 -7 20 -14 34 -17 31 -3 -2 1 -20 8 -40 12 -32 11 -38 -8 -58 -15 -18
-19 -32 -16 -60 3 -21 3 -38 0 -38 -3 0 -19 24 -36 53 -17 29 -40 62 -52 73
-20 17 -20 16 3 -21 58 -92 90 -167 81 -188 -8 -18 -12 -15 -38 29 -40 70 -97
144 -136 179 -35 31 -32 26 38 -60 63 -78 115 -169 107 -189 -6 -16 -8 -16
-27 1 -19 18 -20 18 -8 -5 7 -12 11 -42 9 -65 l-3 -42 -45 72 c-25 40 -48 72
-51 73 -3 0 2 -24 12 -53 23 -69 35 -157 21 -157 -6 0 -14 21 -17 48 -4 26 -8
52 -10 57 -4 11 -9 -127 -6 -162 2 -33 -15 -36 -27 -5 -16 39 -34 210 -27 244
4 16 2 28 -3 28 -6 0 -16 26 -22 58 -16 81 -42 172 -50 177 -3 2 1 -32 11 -77
23 -105 32 -219 20 -237 -8 -12 -11 -9 -16 15 -21 104 -59 235 -81 285 -34 76
-41 71 -10 -7 47 -115 93 -332 72 -340 -6 -2 -13 -26 -14 -52 -1 -26 -8 -71
-15 -101 l-12 -54 -67 136 c-37 76 -72 137 -77 137 -6 0 -1 -17 9 -37 38 -74
70 -155 64 -164 -14 -24 -33 6 -49 75 -5 22 -9 26 -18 17 -8 -8 -7 -27 6 -76
17 -65 16 -92 -5 -79 -5 3 -7 16 -4 27 3 12 -1 28 -9 37 -8 9 -20 49 -26 90
-18 108 -33 114 -25 10 l6 -85 -20 25 c-13 15 -19 36 -17 52 6 44 -18 15 -33
-40 -7 -26 -16 -51 -21 -56 -4 -5 -5 -14 -2 -22 2 -7 0 -21 -6 -31 -9 -16 -10
-15 -11 8 0 15 -7 46 -15 69 -8 23 -15 70 -16 104 0 33 -4 84 -8 111 l-7 50
-8 -55 c-8 -58 8 -296 24 -365 14 -59 12 -64 -10 -22 -11 20 -24 61 -29 90 -5
28 -9 44 -10 33 -1 -11 -6 -16 -15 -13 -12 5 -13 1 -1 -26 7 -18 16 -66 20
-107 6 -73 5 -74 -10 -47 -23 40 -28 28 -10 -23 22 -62 18 -69 -16 -30 -28 33
-29 38 -23 100 6 67 27 193 40 244 5 20 3 27 -4 22 -12 -7 -35 -83 -52 -171
-22 -120 -16 -113 -60 -64 -22 23 -40 48 -40 54 0 17 48 208 60 240 9 25 9 26
-5 15 -8 -7 -29 -58 -46 -114 -43 -140 -43 -139 -49 -61 -4 58 -6 65 -13 41
-8 -27 -9 -28 -23 -10 -13 17 -13 17 -4 -9 21 -59 9 -60 -28 -1 -45 73 -61 94
-74 94 -7 0 -6 -5 1 -13 6 -8 8 -16 5 -19 -3 -4 3 -23 14 -45 27 -53 52 -113
47 -113 -3 0 -16 18 -30 40 -14 22 -50 69 -80 105 -55 65 -63 88 -49 143 5 16
14 22 38 23 82 3 111 32 127 129 13 84 -2 179 -41 247 -59 103 -191 124 -267
42 -83 -91 -110 -323 -44 -383 10 -9 38 -20 62 -24 l44 -7 3 -49 c2 -27 0 -56
-4 -65 -3 -9 -8 -41 -11 -71 -5 -66 -18 -84 -28 -40 -7 33 -64 160 -71 160 -2
0 6 -24 17 -52 51 -127 67 -196 53 -233 -6 -14 -8 -14 -27 2 l-21 18 17 -27
c17 -27 24 -98 9 -98 -4 0 -27 27 -51 60 -43 58 -96 114 -61 63 8 -11 36 -52
62 -90 l47 -69 -11 -99 -11 -98 -15 38 c-12 30 -17 35 -22 21 -5 -15 -9 -12
-22 16 -10 18 -20 45 -23 61 -3 15 -10 27 -15 27 -15 0 -12 -39 10 -109 11
-36 18 -67 16 -68 -11 -11 -37 33 -32 53 4 14 1 26 -8 31 -8 5 -21 44 -30 92
-9 47 -19 87 -23 90 -3 3 -3 -32 0 -79 l6 -85 -19 25 c-28 36 -24 16 5 -28 26
-37 32 -76 16 -101 -7 -10 -11 -5 -16 18 -3 17 -11 33 -16 37 -9 5 -7 -16 7
-68 3 -9 0 -19 -6 -23 -5 -3 -10 -15 -10 -26 0 -10 -4 -19 -10 -19 -5 0 -10
-13 -10 -28 0 -16 -5 -55 -12 -87 -10 -51 -13 -55 -20 -34 -10 27 5 200 28
304 25 118 27 131 16 120 -15 -15 -40 -100 -58 -200 -20 -111 -24 -126 -31
-105 -13 38 -74 162 -78 158 -2 -2 7 -31 20 -64 23 -56 33 -133 18 -147 -4 -4
-13 7 -20 24 -20 48 -27 27 -9 -27 9 -26 14 -49 12 -51 -2 -3 -16 12 -31 32
-26 33 -27 40 -21 101 7 71 32 220 42 250 5 18 5 18 -10 0 -14 -17 -46 -142
-61 -238 l-6 -38 -59 61 -60 61 -1 67 c-1 60 -2 64 -13 39 -11 -25 -13 -26
-24 -10 -12 15 -12 15 -6 -3 4 -11 9 -54 11 -95 2 -63 1 -71 -9 -50 -6 14 -29
64 -51 113 -22 48 -42 85 -45 83 -2 -3 9 -34 26 -68 17 -35 34 -77 38 -93 l7
-30 -22 19 c-11 11 -21 15 -21 10 0 -5 13 -21 29 -35 33 -29 41 -61 66 -279 9
-80 19 -163 22 -185 4 -28 2 -37 -5 -30 -6 6 -18 64 -27 130 -20 156 -36 245
-43 245 -3 0 -3 -69 0 -152 l6 -153 -33 155 c-45 216 -100 400 -120 400 -2 0
3 -19 11 -42 32 -91 99 -387 90 -396 -9 -9 -44 83 -72 188 -24 92 -110 288
-121 276 -2 -2 11 -35 30 -72 35 -70 64 -152 90 -255 13 -50 13 -57 -2 -66
-14 -9 -14 -17 8 -84 15 -48 20 -74 13 -77 -7 -2 -4 -21 8 -53 21 -52 27 -90
11 -73 -5 5 -14 27 -21 49 -40 132 -184 453 -217 485 -19 18 -16 11 23 -65 35
-66 147 -345 142 -351 -9 -8 -56 67 -83 131 -49 120 -109 220 -176 295 -39 45
-27 22 29 -55 24 -33 62 -96 85 -140 42 -84 120 -295 112 -303 -6 -6 -53 98
-69 152 -6 22 -17 41 -24 44 -17 5 -15 -7 17 -97 17 -49 23 -77 15 -70 -18 15
-17 -1 1 -25 8 -11 15 -27 15 -35 0 -9 7 -29 15 -45 8 -15 15 -36 15 -46 0
-10 9 -39 20 -64 26 -62 9 -59 -19 3 -25 57 -100 175 -106 169 -3 -2 11 -33
30 -69 19 -35 35 -68 35 -74 0 -15 -110 152 -126 191 -14 34 -34 46 -34 21 0
-13 27 -67 62 -124 18 -30 18 -32 2 -26 -14 5 -11 -2 9 -29 15 -19 27 -38 27
-43 0 -4 20 -39 45 -77 25 -38 56 -96 68 -130 22 -62 47 -88 47 -49 0 12 5 21
10 21 6 0 10 -7 10 -15 0 -8 5 -15 10 -15 6 0 10 5 10 11 0 6 8 1 19 -12 l19
-23 12 57 c12 53 30 69 30 26 0 -11 6 -22 14 -25 8 -3 17 -15 20 -27 3 -12 8
-18 12 -14 4 4 13 2 21 -4 17 -15 43 5 43 33 0 17 3 18 15 8 17 -14 21 -45 4
-34 -7 4 -10 1 -7 -6 6 -19 28 -24 28 -7 0 16 53 31 58 16 6 -15 32 -10 32 6
0 19 16 19 24 0 3 -8 14 -15 24 -15 16 0 18 5 14 27 l-5 28 24 -20 c13 -11 27
-24 31 -30 5 -6 8 -6 8 -1 0 6 6 3 12 -6 22 -26 48 -30 48 -8 0 26 17 26 25
-1 5 -15 10 -17 19 -10 7 6 16 8 20 3 4 -4 43 -7 87 -7 l79 -1 9 31 8 30 17
-34 c17 -32 19 -33 64 -27 26 3 67 8 92 9 33 2 46 7 48 20 3 15 6 15 30 -3 40
-28 82 -31 82 -5 0 22 18 18 31 -6 9 -17 13 -19 20 -8 5 8 9 27 9 44 l0 30 25
-36 c29 -44 75 -59 75 -25 1 21 1 21 15 2 14 -19 15 -18 15 12 0 36 14 42 30
13 21 -41 40 -51 96 -51 41 0 54 4 54 15 0 18 4 19 30 3 17 -11 22 -10 29 1 5
7 13 11 19 7 6 -4 8 3 5 16 -4 23 -4 23 11 3 43 -56 52 -58 61 -13 l7 31 16
-26 c27 -45 45 -35 38 21 l-5 47 15 -35 16 -35 23 27 24 28 22 -36 21 -35 24
22 c26 24 26 24 43 -8 8 -16 18 -22 34 -19 12 3 25 5 28 5 4 1 9 15 13 33 l6
32 28 -30 c36 -40 62 -50 62 -24 0 27 15 25 37 -4 17 -22 20 -22 30 -8 9 14
13 15 24 5 20 -20 29 -16 29 12 0 32 27 34 35 3 3 -13 17 -28 31 -35 22 -10
25 -9 30 13 4 14 4 39 0 57 l-6 32 15 -25 c8 -14 14 -33 15 -42 0 -20 55 -49
76 -41 7 3 14 14 14 24 0 10 7 19 15 19 8 0 15 5 15 10 0 23 20 8 31 -24 13
-37 7 -36 100 -21 18 3 38 13 45 23 12 16 13 16 14 -4 0 -13 8 -24 19 -27 25
-6 31 0 32 32 0 26 0 26 11 3 12 -24 23 -28 33 -12 10 16 22 11 28 -11 8 -29
27 -14 27 22 0 16 5 29 10 29 6 0 10 -6 10 -14 0 -11 55 -46 74 -46 3 0 8 16
12 35 6 35 17 44 29 25 3 -5 16 -10 29 -10 12 0 27 -5 34 -12 14 -14 42 6 42
31 1 14 2 14 14 -2 14 -18 15 -17 21 3 5 16 12 19 27 14 18 -5 20 -3 15 15 -3
11 -1 24 4 27 5 3 9 2 9 -3 1 -4 12 -21 26 -38 l25 -30 -21 48 c-11 27 -20 61
-19 75 0 26 1 26 9 5 5 -13 13 -23 19 -23 5 0 19 -25 31 -55 24 -60 36 -68 45
-32 4 13 13 24 21 24 9 0 12 -7 9 -17 -4 -12 1 -19 15 -23 11 -3 17 -1 14 4
-3 6 -3 33 1 62 6 43 9 48 16 30 5 -13 13 -23 19 -23 6 0 8 -16 5 -42 -4 -35
-4 -39 5 -20 10 24 30 22 30 -4 0 -9 11 -14 31 -14 29 0 30 2 28 34 -2 19 0
38 4 42 4 4 7 17 8 28 0 18 2 18 9 -4 4 -14 11 -38 15 -55 7 -27 8 -28 15 -10
7 18 8 18 15 -7 4 -16 13 -28 20 -28 7 0 23 -12 34 -27 l20 -28 1 53 c0 55 13
63 23 15 4 -17 16 -33 31 -40 24 -10 26 -9 26 14 0 18 4 23 14 20 19 -8 29 34
16 68 -6 15 -6 33 -2 42 12 21 34 -33 31 -78 -4 -66 24 -107 37 -54 8 30 20
32 29 4 6 -17 53 -46 60 -37 1 2 6 19 12 38 10 31 11 32 13 10 l1 -25 11 25
10 25 8 -27 c12 -39 19 -48 36 -41 9 3 14 13 11 24 -3 11 -1 17 4 13 5 -3 9 2
9 10 0 23 27 20 40 -5 9 -16 14 -18 26 -8 8 6 15 8 16 3 0 -5 4 13 7 40 8 63
27 71 36 15 5 -28 10 -37 16 -28 9 15 11 14 26 -21 11 -24 12 -24 13 10 l0 35
19 -24 c10 -14 25 -25 33 -27 12 -1 10 13 -8 76 -15 51 -21 91 -17 115 3 19 8
34 10 31 2 -2 11 -41 19 -86 14 -80 26 -110 46 -110 5 0 7 10 3 23 -5 18 -3
17 10 -5 9 -16 17 -28 19 -28 6 0 -2 87 -9 112 -13 41 5 12 20 -33 l15 -44 -6
40 c-3 22 -8 51 -10 65 -5 25 -5 25 20 -5 15 -16 25 -37 25 -45 -1 -8 2 -34 6
-57 8 -44 38 -65 50 -35 4 12 11 8 28 -19 20 -32 22 -33 25 -11 3 19 6 21 18
11 11 -9 14 -7 14 10 0 14 4 20 11 15 6 -3 4 5 -5 19 -21 31 -31 114 -20 164
l8 38 6 -60 c4 -48 8 -60 22 -59 10 1 21 -10 27 -29 14 -39 14 -80 0 -72 -7 5
-7 2 0 -11 5 -11 13 -28 17 -39 6 -19 7 -18 14 5 5 14 8 19 9 13 1 -7 5 -13
10 -13 4 0 6 11 3 25 -5 27 7 32 26 13 25 -25 41 -18 36 15 -5 29 -4 30 7 12
7 -11 23 -31 35 -44 19 -19 25 -21 29 -9 3 8 5 19 3 24 -3 10 4 14 27 14 8 0
15 -8 15 -17 0 -10 4 -24 9 -32 8 -12 12 -12 25 -2 13 11 17 9 28 -14 9 -20
17 -26 35 -22 13 2 23 0 23 -4 0 -5 5 -9 11 -9 7 0 8 11 4 29 -5 24 -3 29 10
27 9 -1 20 -9 25 -16 5 -7 17 -14 28 -15 17 -1 18 2 12 26 -5 16 -5 41 -1 56
l7 28 14 -35 c12 -31 14 -32 17 -13 5 29 23 30 23 2 0 -11 5 -17 10 -14 6 3
10 0 10 -7 0 -7 7 -22 15 -32 14 -18 15 -18 29 15 l15 34 11 -32 c7 -18 15
-34 18 -34 25 -5 62 -4 62 2 0 4 -7 12 -15 19 -8 7 -15 17 -15 22 0 6 7 5 15
-2 12 -10 15 -9 15 5 0 11 5 15 15 11 8 -3 15 -1 15 4 0 20 19 9 22 -12 2 -16
9 -22 22 -21 11 1 26 -6 33 -15 13 -15 13 -15 8 4 -3 13 1 26 10 34 13 11 15
9 15 -13 0 -44 27 -45 43 -2 2 6 13 2 24 -8 25 -21 49 -22 57 -1 5 13 9 14 20
5 8 -7 17 -8 20 -3 2 4 35 7 71 6 63 -2 67 -1 76 25 10 25 11 25 25 7 8 -11
14 -24 14 -28 0 -5 23 -8 50 -7 28 2 50 7 50 13 0 6 4 6 11 -1 8 -8 20 -8 36
-2 14 5 29 7 34 3 5 -3 9 7 9 23 l0 28 18 -22 c32 -40 102 -52 102 -17 0 21
18 17 25 -6 9 -28 25 -15 25 21 0 36 5 36 36 0 32 -38 61 -45 68 -17 5 21 5
21 20 1 14 -17 17 -18 26 -5 8 13 14 10 37 -17 27 -31 31 -32 82 -26 30 3 55
12 58 19 3 9 14 12 29 8 15 -4 24 -2 24 6 0 7 6 10 14 7 8 -3 17 -1 20 6 2 7
5 5 5 -4 1 -9 10 -19 22 -22 15 -4 23 1 30 20 l10 26 23 -22 c27 -26 37 -14
29 35 l-5 29 17 -23 17 -23 22 20 22 21 24 -32 23 -31 19 23 c20 25 20 25 37
-8 17 -32 63 -27 71 7 8 34 24 36 48 6 22 -28 52 -34 52 -10 0 23 20 18 43
-11 l20 -26 12 22 c10 19 13 20 24 6 16 -19 31 -12 31 15 0 29 19 23 34 -11 7
-17 16 -27 20 -23 4 4 11 1 16 -7 14 -22 22 -6 22 44 0 25 1 46 3 46 3 0 9
-17 14 -38 8 -29 18 -40 43 -50 34 -12 58 -3 58 24 0 8 6 14 14 14 8 0 16 6
19 13 2 6 11 -4 20 -23 16 -32 21 -35 62 -35 25 -1 45 3 45 7 0 4 9 8 19 8 11
0 22 8 24 18 4 15 6 14 12 -5 13 -41 54 -36 55 7 1 12 3 11 11 -3 8 -14 14
-15 30 -6 17 9 21 7 26 -10 8 -32 21 -25 29 16 6 34 8 35 15 14 5 -12 13 -20
18 -16 6 3 13 0 18 -7 17 -27 68 -1 56 28 -6 16 17 30 26 15 4 -6 19 -12 34
-13 15 -1 27 -6 27 -10 0 -20 30 -5 36 17 5 21 9 23 20 14 12 -9 17 -8 28 6 7
10 18 15 24 11 8 -5 12 2 12 21 l0 28 25 -29 c14 -16 25 -34 25 -39 0 -6 2 -8
5 -6 2 3 -4 29 -15 57 -23 59 -24 72 -10 72 6 0 10 -7 10 -15 0 -8 5 -15 10
-15 6 0 23 -28 39 -62 l27 -62 14 34 c8 21 14 29 17 20 2 -9 12 -21 23 -28 19
-11 20 -9 20 36 0 27 3 52 7 55 11 12 32 -27 33 -63 1 -27 3 -31 9 -15 8 19 8
19 20 -3 8 -15 21 -22 40 -22 26 0 27 2 27 49 -1 27 -4 47 -7 45 -9 -5 -17 28
-25 109 -4 37 -4 67 0 67 14 0 36 -71 36 -115 0 -25 5 -45 10 -45 6 0 10 -11
10 -24 0 -13 3 -32 7 -42 6 -16 7 -16 14 2 6 16 8 14 14 -13 5 -23 13 -33 26
-33 11 0 25 -11 31 -25 15 -33 27 -15 28 40 l1 40 14 -40 c8 -22 15 -40 15
-40 0 0 11 -1 25 -1 19 -2 25 3 25 18 0 10 5 16 10 13 6 -3 10 1 10 9 0 9 4
16 10 16 6 0 6 9 0 26 -13 32 -13 64 -1 64 14 0 30 -59 29 -103 -2 -50 17 -69
33 -34 16 34 22 34 36 -2 7 -19 17 -29 29 -28 25 3 33 15 35 57 l2 35 6 -40 7
-40 9 35 9 35 11 -39 c8 -29 17 -40 33 -41 17 -1 21 2 16 17 -3 10 2 25 11 35
16 16 18 15 35 -7 12 -16 19 -19 25 -11 4 7 14 10 22 7 12 -5 13 0 8 24 -7 32
1 70 15 70 5 0 15 -19 21 -42 6 -24 14 -37 17 -29 3 10 8 7 18 -10 l13 -24 1
23 c0 26 12 28 30 7 7 -8 18 -15 24 -15 9 0 7 22 -8 78 -11 45 -17 86 -12 97
11 28 22 5 31 -65 8 -59 20 -90 35 -90 6 0 10 8 10 18 1 13 4 11 16 -8 14 -24
15 -22 11 40 l-4 65 18 -55 c22 -66 24 -47 4 30 -16 59 -13 74 10 44 18 -23
35 -80 35 -116 0 -33 36 -59 46 -33 9 23 18 18 31 -15 6 -17 17 -30 23 -30 7
0 10 7 6 15 -4 11 0 15 12 13 12 -2 16 3 14 16 -2 11 1 15 8 11 7 -4 5 6 -4
23 -18 35 -23 177 -6 187 6 4 10 -17 10 -56 0 -56 2 -61 19 -56 17 4 21 -3 31
-46 7 -35 7 -53 1 -55 -7 -2 -5 -15 4 -33 19 -36 27 -37 20 -1 l-6 27 15 -25
15 -25 1 34 c0 32 1 33 18 19 21 -19 42 -13 42 13 0 16 6 13 31 -16 32 -36 57
-39 39 -5 -7 12 -7 21 0 25 16 10 50 -14 50 -35 0 -24 20 -37 31 -19 6 11 13
11 26 3 14 -9 21 -8 30 5 10 14 13 13 23 -9 9 -22 10 -20 6 15 -8 63 8 76 33
27 20 -40 44 -57 40 -29 -4 35 2 67 15 67 10 0 12 11 8 45 -3 27 -1 45 6 45
22 0 30 -68 11 -87 -8 -8 -8 -19 -1 -40 l10 -28 1 30 c1 17 5 37 10 44 7 12
14 5 26 -27 17 -42 35 -56 35 -26 0 8 5 12 10 9 6 -3 10 0 10 7 1 8 9 4 19 -9
35 -42 44 -33 43 47 -1 45 0 44 10 -12 6 -32 14 -58 19 -58 5 0 9 37 9 83 0
56 3 77 10 67 5 -8 10 -28 11 -45 0 -26 2 -27 9 -10 7 18 9 18 15 3 3 -9 5
-27 3 -40 -4 -30 20 -56 54 -56 23 0 27 5 33 44 8 58 25 56 25 -2 0 -27 4 -43
10 -39 6 3 10 14 10 24 0 9 7 41 15 69 13 41 20 52 37 52 19 0 20 -3 13 -76
-9 -102 12 -97 42 10 12 42 37 101 55 131 29 49 33 53 40 34 6 -16 -1 -35 -28
-75 -19 -30 -37 -71 -40 -92 -4 -34 -2 -31 32 33 42 80 45 85 51 68 3 -7 13
-13 24 -13 16 0 19 7 19 45 0 33 4 45 15 45 12 0 15 15 15 75 0 84 -1 83 129
219 36 37 57 63 45 58 -12 -6 -56 -48 -98 -92 -42 -45 -76 -76 -76 -69 0 7 9
46 21 87 11 40 18 76 15 79 -8 8 21 62 71 128 l45 60 -51 -53 c-27 -29 -71
-89 -96 -135 l-46 -82 6 54 c3 30 14 79 24 110 10 31 19 67 19 81 1 25 19 81
66 203 14 37 24 67 21 67 -16 0 -112 -256 -135 -363 -8 -32 -17 -60 -22 -63
-17 -11 -7 68 17 123 14 32 18 49 10 39 -8 -11 -15 -23 -15 -28 0 -4 -5 -8
-11 -8 -8 0 -10 16 -5 50 5 35 3 50 -5 50 -20 0 -3 126 21 160 25 35 25 43 1
35 -19 -6 -19 -4 -5 57 25 105 25 115 5 67 -11 -25 -25 -74 -32 -110 -13 -70
-33 -109 -55 -109 -11 0 -14 20 -16 83 l-1 82 -6 -70 c-6 -62 -31 -135 -47
-135 -3 0 -3 55 0 123 4 83 2 111 -4 87 -5 -19 -12 -87 -15 -150 -4 -63 -9
-122 -12 -130 -3 -8 -14 34 -24 93 -10 60 -23 116 -29 125 -9 14 -10 11 -6
-13 15 -87 15 -146 3 -210 -14 -69 -14 -70 -27 -40 -11 28 -10 47 4 135 5 29
3 26 -13 -15 -26 -70 -34 -43 -35 124 -1 109 4 157 23 239 12 57 21 106 18
109 -13 13 -26 -11 -37 -73 -7 -37 -19 -68 -26 -71 -8 -3 -14 -17 -14 -32 0
-15 -10 -53 -23 -84 -18 -44 -26 -54 -35 -45 -15 15 -16 57 -2 92 6 17 6 26 0
26 -6 0 -10 -4 -10 -8 0 -5 -6 -16 -13 -27 -13 -16 -18 -12 -63 53 -27 40 -53
72 -58 72 -4 0 -2 -10 6 -22 81 -127 91 -150 84 -191 -3 -23 -11 -60 -17 -82
l-12 -40 -43 94 c-25 52 -46 92 -49 89 -3 -2 10 -42 29 -89 48 -120 50 -129
32 -129 -9 0 -16 -6 -16 -12 -1 -12 -17 5 -83 84 -26 31 -74 68 -61 47 4 -8
18 -28 31 -45 l23 -31 -25 -23 c-19 -18 -26 -20 -30 -9 -43 118 -43 128 -10
167 34 41 32 52 -4 18 -28 -27 -49 -24 -30 4 12 20 11 33 -1 25 -22 -14 -22
33 -1 150 13 68 26 163 29 212 7 84 8 88 32 91 80 10 101 22 122 69 17 39 20
62 16 147 -3 89 -7 108 -33 154 -38 70 -74 95 -144 100 -46 3 -62 0 -91 -20
-78 -53 -125 -172 -118 -299 5 -92 26 -121 98 -134 l53 -9 -6 -76 c-9 -109
-63 -386 -81 -412 -14 -19 -16 -20 -22 -4 -3 9 -4 30 0 47 4 23 2 30 -7 26
-22 -8 -6 126 21 162 27 37 28 45 2 38 -25 -6 -25 -8 0 82 12 40 19 75 17 78
-7 6 -46 -109 -53 -157 -8 -52 -32 -100 -51 -100 -9 0 -13 23 -14 83 l-2 82
-7 -65 c-4 -37 -16 -82 -29 -105 l-22 -40 4 118 c4 155 -9 126 -23 -49 -7 -76
-13 -140 -14 -141 -1 -1 -12 54 -25 122 -12 69 -26 125 -31 125 -4 0 -21 -20
-37 -45 l-28 -45 -5 42 c-6 55 5 157 30 260 11 47 16 86 11 91 -12 12 -18 -1
-35 -74 -9 -35 -20 -65 -26 -67 -5 -2 -10 -14 -10 -27 0 -29 -40 -135 -51
-135 -19 0 -30 41 -20 72 17 47 12 57 -8 20 l-17 -34 -43 66 c-38 58 -71 97
-71 84 0 -3 22 -43 50 -89 27 -46 50 -91 50 -99 0 -8 -6 -37 -14 -65 l-13 -50
-12 42 c-15 53 -32 66 -20 16 4 -21 7 -39 5 -40 -1 -2 -17 29 -35 67 -18 39
-37 70 -42 70 -5 0 -3 -13 5 -29 44 -84 80 -211 57 -197 -5 4 -12 0 -15 -6 -3
-9 -13 -3 -28 17 -37 49 -111 126 -115 121 -3 -3 11 -26 31 -52 20 -26 36 -50
35 -53 -4 -37 -27 -123 -31 -115 -7 11 -64 191 -71 222 -3 12 1 52 9 89 7 37
12 69 9 71 -2 2 -12 -13 -21 -34 -19 -45 -17 -50 -44 96 l-18 95 -1 -95 c-1
-115 -10 -177 -23 -158 -5 8 -6 -3 -2 -27 4 -30 2 -44 -9 -54 -13 -10 -19 -5
-36 35 -12 25 -21 49 -21 53 0 3 14 14 31 23 17 10 29 24 27 32 -5 22 -167
164 -225 197 -29 17 -53 34 -53 38 0 16 -123 33 -203 29 -64 -4 -94 -11 -137
-32 l-55 -28 25 27 c47 51 -11 11 -70 -49 -30 -31 -57 -56 -61 -56 -3 0 -2 21
2 48 5 26 11 64 14 85 2 21 9 55 14 75 15 52 5 52 -18 1 -19 -45 -137 -186
-151 -182 -5 2 -21 -17 -37 -42 -33 -53 -45 -57 -36 -12 4 24 3 29 -6 21 -7
-6 -16 -39 -21 -74 -5 -35 -14 -68 -19 -73 -15 -15 -14 0 4 102 21 123 75 225
179 343 87 99 105 144 26 63 -24 -25 -49 -45 -56 -45 -11 0 -91 -114 -109
-155 -6 -13 -11 29 -16 128 -4 82 -9 151 -12 153 -2 2 -7 -79 -10 -180 -3
-111 -10 -192 -17 -203 -10 -15 -11 -14 -7 10 2 15 0 30 -4 33 -5 3 -9 16 -9
29 0 13 -5 27 -11 31 -8 4 -9 -3 -5 -23 8 -34 -1 -83 -15 -83 -5 0 -9 10 -9
23 0 12 -5 29 -11 37 -8 11 -9 4 -6 -30 l5 -45 -28 63 c-27 58 -47 83 -36 45
8 -32 18 -158 11 -151 -4 3 -13 62 -21 130 -7 67 -19 142 -25 165 l-11 42 -19
-22 c-32 -39 -23 -7 75 268 l8 20 -17 -20 c-23 -27 -58 -105 -99 -224 -19 -55
-44 -117 -55 -138 -20 -36 -21 -36 -15 -8 3 17 13 52 21 78 8 27 13 50 10 53
-12 12 -81 -216 -102 -335 -15 -81 -32 -131 -23 -63 3 18 1 35 -4 38 -4 3 -8
-3 -9 -13 0 -10 -7 -36 -14 -58 -12 -36 -13 -24 -9 120 3 88 8 163 10 167 3 4
1 15 -3 23 -6 10 -16 -27 -28 -107 l-20 -123 -3 79 c-2 46 2 84 8 90 13 13 13
29 0 21 -6 -4 -10 7 -10 26 0 22 9 43 28 62 l27 30 -26 -17 c-14 -9 -29 -13
-32 -9 -4 3 -7 38 -7 77 0 58 4 74 22 93 12 13 16 23 10 23 -6 0 -14 -4 -17
-10 -12 -19 -25 -10 -25 18 0 30 -19 106 -25 100 -2 -2 0 -35 6 -72 8 -60 7
-72 -8 -88 -16 -18 -18 -16 -34 59 -16 74 -47 169 -48 148 -1 -5 6 -32 14 -60
9 -27 20 -80 26 -117 l10 -67 -53 -70 c-29 -39 -56 -70 -59 -70 -4 -1 -10 6
-13 15 -4 11 14 50 49 107 31 49 54 92 52 94 -2 2 -26 -33 -53 -77 -27 -44
-53 -79 -59 -77 -23 8 -14 40 28 94 24 32 49 72 55 88 10 24 2 18 -42 -30 -31
-33 -55 -63 -56 -67 0 -5 -8 -8 -18 -8 -10 0 -26 -16 -37 -37 -11 -21 -27 -45
-35 -53 -8 -9 -25 -36 -37 -60 -18 -38 -22 -41 -22 -20 -1 14 6 60 14 102 24
126 106 268 214 373 23 21 41 46 41 54 0 9 -19 -4 -48 -32 -26 -26 -52 -47
-58 -47 -10 0 -86 -105 -113 -155 -9 -17 -10 -12 -11 30 -1 90 -12 250 -19
257 -3 4 -7 -70 -8 -165 -3 -175 -8 -237 -21 -237 -4 0 -7 19 -8 43 0 24 -6
52 -12 63 -10 16 -11 12 -12 -28 0 -61 -34 -137 -61 -138 -3 0 -9 34 -12 76
-3 42 -11 82 -17 88 -9 8 -10 5 -6 -14 11 -55 16 -207 7 -235 -7 -24 -9 -11
-10 60 -1 99 -15 240 -32 325 l-11 54 -24 -29 -24 -30 16 55 c9 30 33 101 54
157 38 103 37 126 -1 51 -46 -89 -90 -223 -129 -389 -44 -183 -67 -240 -55
-134 7 56 54 264 71 310 5 14 4 17 -4 10 -18 -17 -78 -212 -98 -317 -10 -54
-21 -93 -25 -87 -4 7 -10 -8 -14 -32 -4 -24 -11 -50 -15 -58 -16 -30 -20 29
-10 160 5 74 9 159 9 189 l-1 55 -10 -50 c-5 -27 -15 -88 -22 -135 -11 -74
-13 -80 -19 -50 -3 19 -6 103 -7 185 -1 158 -15 322 -31 358 -8 19 -9 18 -5
-8 3 -16 8 -115 11 -220 6 -177 5 -188 -9 -156 -9 18 -16 57 -16 85 0 87 -20
214 -46 298 -33 103 -40 97 -9 -8 29 -101 45 -266 39 -407 -7 -155 -18 -170
-32 -45 -12 101 -30 184 -37 176 -3 -2 0 -31 5 -64 5 -32 11 -95 15 -139 5
-76 5 -79 -10 -53 -8 15 -22 55 -31 90 -33 133 -35 139 -46 132 -7 -4 -8 -3
-4 5 4 7 -6 47 -23 89 -39 99 -54 155 -90 332 -82 402 -95 569 -122 1490 -14
470 -5 1131 14 1189 25 72 105 171 358 441 279 299 506 567 563 665 l37 62
157 6 c86 4 307 7 490 7 182 0 332 4 332 8 0 5 -9 17 -21 28 -39 36 -41 49 -9
89 16 21 27 42 23 49 -4 6 -16 23 -27 38 l-19 27 27 69 26 69 208 42 c114 23
228 47 255 53 45 9 47 11 47 43 0 39 26 32 -270 80 -184 30 -240 35 -390 36
-96 0 -184 4 -195 9 -14 6 -3 9 40 9 67 1 281 25 365 41 145 27 202 49 555
213 204 94 192 120 -37 78 -58 -11 -132 -27 -164 -35 -162 -42 -279 -58 -375
-53 -102 6 -189 24 -189 38 0 16 101 244 144 325 59 110 147 242 193 286 43
42 88 56 283 88 69 11 136 23 150 26 24 5 26 1 54 -96 28 -100 29 -101 56 -95
85 19 118 -52 160 -340 16 -115 30 -214 30 -218 0 -5 19 -7 42 -5 l42 3 21
125 c20 119 24 130 80 224 l59 100 11 574 10 574 75 54 c85 62 150 122 150
140 0 7 -7 19 -15 28 -14 13 -21 13 -68 -3 -29 -10 -72 -28 -95 -40 l-42 -21
1 197 c0 109 4 351 8 538 4 187 6 343 4 347 -2 4 -29 -5 -60 -18 -53 -24 -58
-24 -70 -8 -7 9 -14 22 -16 28 -2 6 -13 1 -23 -12 l-20 -24 -56 25 -56 25 -36
-36 -36 -36 -39 38 -39 38 -35 -26 c-18 -14 -37 -26 -41 -26 -4 0 -22 11 -41
26 -18 14 -35 21 -38 17 -2 -4 -5 -96 -6 -203 -3 -270 -21 -1153 -24 -1155 -1
-1 -43 -10 -93 -21 l-91 -20 -54 50 c-83 77 -167 132 -181 118 -8 -8 9 -32 66
-93 42 -45 75 -83 73 -85 -2 -2 -113 -15 -248 -29 -333 -34 -464 -66 -622
-148 -144 -75 -281 -185 -354 -283 -64 -86 -110 -130 -145 -138 -39 -9 -37 15
8 90 114 189 158 307 92 247 -10 -9 -18 -13 -18 -9 0 8 137 146 255 257 86 81
181 184 570 624 284 321 388 444 453 533 39 55 44 68 36 90 -5 15 -21 31 -35
36 -23 8 -35 2 -90 -37 -78 -56 -268 -222 -630 -553 -324 -296 -473 -416 -629
-509 -305 -182 -400 -263 -523 -445 -144 -213 -227 -459 -286 -845 -30 -198
-95 -537 -106 -556 -4 -5 -144 -9 -346 -9 -191 0 -339 -4 -339 -9 0 -5 20 -36
45 -70 36 -49 45 -69 45 -103 0 -34 -8 -50 -45 -96 -25 -30 -45 -57 -45 -61 0
-4 18 -25 40 -46 35 -34 40 -45 40 -83 0 -40 -4 -48 -45 -84 -39 -34 -45 -45
-45 -79 0 -21 -4 -39 -9 -39 -22 0 -98 334 -140 610 -33 219 -111 832 -111
875 l0 26 233 -6 c127 -3 294 -8 370 -11 97 -3 137 -2 137 6 0 6 -11 26 -25
44 -14 18 -25 36 -25 41 0 4 13 24 30 45 l30 38 -39 44 -40 44 38 45 38 44
-25 58 -25 58 24 25 c23 25 23 26 5 39 -10 8 -24 16 -30 18 -6 2 0 29 18 71
16 37 27 68 25 70 -2 2 -170 8 -373 14 -203 6 -370 13 -372 15 -8 7 49 314 62
334 25 40 189 154 304 211 98 49 124 57 183 60 63 4 69 6 82 33 8 15 15 35 15
44 0 9 23 44 52 78 48 58 64 87 147 270 16 37 47 88 67 112 36 45 40 75 9 75
-28 0 -95 -72 -157 -171 -35 -54 -66 -99 -69 -99 -9 0 -57 165 -70 240 -11 61
-10 69 15 127 29 70 33 129 11 159 -17 22 -19 15 -5 -20 14 -38 -3 -78 -32
-74 -20 3 -25 12 -34 66 -6 34 -14 65 -17 69 -27 26 -19 -223 13 -439 l22
-147 -21 -22 c-12 -13 -21 -33 -21 -45 0 -30 -18 -46 -98 -92 -106 -61 -313
-164 -319 -158 -3 2 11 77 31 164 37 160 37 160 40 438 5 297 -4 488 -26 569
-13 49 -14 50 -55 53 l-41 3 -21 -56 c-12 -32 -37 -161 -57 -293 -19 -130 -43
-280 -53 -332 l-18 -95 -36 78 c-20 42 -41 77 -48 77 -13 0 -12 -6 25 -144 14
-54 26 -116 26 -137 0 -39 -77 -259 -183 -524 -31 -77 -70 -183 -86 -235 l-31
-95 5 300 c3 165 10 368 15 450 44 663 51 823 51 1147 l0 346 102 6 c56 3 266
8 467 11 558 8 810 17 810 28 0 5 -25 40 -55 78 -70 87 -71 105 -5 184 27 33
50 68 50 77 0 10 -20 36 -45 59 -33 31 -45 49 -45 70 0 21 12 40 45 70 43 40
45 44 45 100 l0 58 -182 -5 c-365 -9 -1055 -24 -1144 -24 l-91 0 -12 123 c-16
167 -30 221 -58 225 -14 2 -26 -4 -34 -19z m-33 -1081 c-4 -24 -13 -113 -22
-198 -8 -85 -28 -249 -44 -365 -16 -115 -45 -336 -65 -490 -46 -366 -83 -636
-87 -640 -6 -6 -132 27 -145 37 -17 13 -120 341 -133 419 -7 46 -7 97 0 160
24 220 24 219 8 219 -18 0 -33 -31 -63 -130 -48 -160 -54 -268 -23 -448 14
-84 4 -148 -27 -168 -21 -14 -41 -14 -152 -5 -311 25 -701 77 -735 97 -3 2 6
51 22 109 20 72 49 144 97 235 89 170 200 300 474 556 548 512 626 585 659
618 l35 35 103 0 103 1 -5 -42z m-1101 -1764 c245 -26 460 -86 565 -159 19
-13 67 -34 105 -45 97 -30 115 -43 115 -84 0 -18 5 -58 11 -89 6 -30 8 -72 5
-91 -6 -31 -10 -35 -29 -32 -25 6 -891 31 -1044 31 -62 0 -103 4 -103 10 0 6
-9 69 -20 140 -11 72 -20 174 -20 227 l0 97 48 6 c26 4 51 7 55 8 19 5 174 -5
312 -19z m5122 -696 c-4 -66 -7 -153 -7 -191 l0 -70 -104 5 c-77 3 -112 9
-131 22 -33 22 -31 37 23 193 l37 107 80 27 c44 15 86 28 94 28 12 1 13 -20 8
-121z m-332 15 c-3 -10 -34 -65 -68 -122 -75 -127 -132 -191 -170 -191 -37 0
-112 37 -148 72 -38 38 -83 97 -78 102 20 19 172 76 294 112 173 49 180 51
170 27z m-4995 -251 c-26 -46 -28 -47 -39 -19 -6 15 -14 39 -17 53 l-6 25 36
-22 c28 -17 34 -24 26 -37z m4473 20 c41 -102 102 -216 137 -257 22 -26 42
-56 46 -69 14 -56 -99 -251 -251 -433 l-77 -93 -126 0 -125 0 7 58 c3 31 11
83 17 115 l12 57 54 0 c53 0 141 16 155 29 4 3 -37 6 -90 6 l-97 0 2 43 c1 23
9 57 17 74 9 17 13 34 11 39 -9 14 67 191 120 279 44 73 146 189 166 190 4 0
14 -17 22 -38z m-4355 -146 c76 -26 110 -41 105 -49 -3 -7 -17 -26 -30 -43
l-23 -31 192 -7 c106 -3 298 -9 426 -12 127 -4 232 -9 232 -13 0 -26 34 -359
50 -495 11 -93 18 -171 16 -174 -3 -2 -66 -11 -141 -19 -74 -7 -177 -25 -228
-39 -158 -42 -189 -47 -219 -36 l-27 11 43 64 c23 35 71 120 106 188 44 86 80
141 117 180 77 81 69 120 -13 60 -54 -39 -71 -60 -154 -184 -39 -59 -86 -118
-103 -131 -31 -24 -45 -28 -115 -40 l-33 -6 -64 131 c-51 103 -62 134 -54 147
6 9 47 44 92 77 132 98 112 116 -38 35 l-93 -49 -57 140 c-76 187 -128 342
-112 336 7 -2 63 -21 125 -41z m3447 -386 c-14 -63 -25 -117 -25 -119 0 -3 -5
0 -12 7 -13 13 -16 182 -4 246 l7 39 29 -29 29 -29 -24 -115z m628 -637 c-29
-2 -78 -2 -110 0 -32 2 -8 3 52 3 61 0 87 -1 58 -3z m-3138 -158 c33 -9 65
-21 72 -28 7 -7 22 -86 33 -177 11 -91 23 -186 27 -212 l6 -47 -54 16 c-91 26
-310 195 -488 376 l-64 65 44 6 c24 4 69 11 99 16 75 12 252 4 325 -15z m-496
-4738 c1 -19 -10 -39 -36 -65 -20 -20 -34 -30 -31 -22 3 8 15 46 28 85 18 55
25 65 31 50 4 -11 8 -33 8 -48z m357 -59 c-7 -102 -27 -161 -51 -152 -6 3 -21
-13 -34 -36 -12 -22 -27 -45 -34 -52 -7 -7 -22 -33 -34 -58 -21 -43 -22 -44
-22 -15 0 59 27 171 57 237 28 61 107 178 120 178 2 0 2 -46 -2 -102z m2643
21 c1 -17 -11 -36 -36 -60 -20 -18 -34 -27 -31 -19 40 124 53 152 59 129 4
-13 7 -35 8 -50z m-2989 -130 c0 -64 -4 -98 -10 -94 -5 3 -10 -1 -10 -9 0 -33
-19 -14 -39 39 -12 31 -21 58 -21 60 0 11 65 105 73 105 4 0 7 -45 7 -101z
m3000 -25 c0 -73 -4 -99 -15 -111 -9 -8 -18 -14 -20 -11 -7 6 -45 99 -45 109
0 13 64 109 73 109 4 0 7 -43 7 -96z m-3347 -89 l-6 -40 -15 43 c-10 31 -12
59 -7 100 l8 57 13 -60 c8 -33 11 -78 7 -100z m3000 -35 l-6 -45 -14 50 c-10
34 -13 66 -7 105 l7 55 13 -60 c8 -33 11 -80 7 -105z m-2774 -76 c-12 -19 -23
-34 -24 -32 -4 3 4 49 27 153 l13 60 3 -73 c2 -61 -1 -79 -19 -108z m3638 23
c-15 -33 -27 -6 -27 62 0 40 5 72 13 80 10 10 13 -1 17 -56 3 -37 2 -76 -3
-86z m-4297 122 c0 -11 -4 -18 -10 -14 -5 3 -7 12 -3 20 7 21 13 19 13 -6z
m920 11 c0 -20 -74 -192 -78 -181 -7 22 55 191 70 191 5 0 8 -5 8 -10z m160
-95 c-24 -73 -37 -87 -45 -52 -4 16 4 41 27 79 18 31 34 52 36 47 2 -5 -6 -38
-18 -74z m-971 39 c20 -33 20 -54 2 -54 -4 0 -12 20 -18 45 -6 25 -9 45 -8 45
2 0 13 -16 24 -36z m3550 -134 c-13 -16 -24 -29 -25 -27 -3 3 24 146 33 177 6
18 9 4 11 -47 2 -62 0 -77 -19 -103z m251 124 c-20 -58 -69 -161 -70 -143 -1
36 65 197 77 186 3 -3 0 -22 -7 -43z m348 -46 c-4 -54 -16 -77 -39 -78 -4 0
-10 20 -13 45 -6 37 -3 49 15 74 12 17 26 28 32 24 5 -3 7 -32 5 -65z m-4013
-5 c8 -32 14 -67 14 -78 0 -17 -2 -16 -11 5 -6 14 -19 45 -30 68 -15 34 -16
47 -7 58 16 19 18 16 34 -53z m152 45 c-3 -8 -6 -5 -6 6 -1 11 2 17 5 13 3 -3
4 -12 1 -19z m310 -25 c-3 -10 -5 -2 -5 17 0 19 2 27 5 18 2 -10 2 -26 0 -35z
m72 -10 c0 -29 -2 -33 -8 -18 -7 18 -4 55 5 55 2 0 4 -17 3 -37z m3321 16 c0
-27 -49 -111 -61 -103 -15 9 -10 35 16 81 28 47 45 55 45 22z m-703 -21 c-3
-7 -5 -2 -5 12 0 14 2 19 5 13 2 -7 2 -19 0 -25z m1233 -17 c0 -36 -4 -50 -17
-55 -9 -4 -20 -3 -25 2 -10 10 20 102 33 102 5 0 9 -22 9 -49z m-923 2 c-3
-10 -5 -4 -5 12 0 17 2 24 5 18 2 -7 2 -21 0 -30z m-3508 -24 c6 -29 9 -54 7
-56 -7 -7 -24 30 -31 70 -11 58 12 45 24 -14z m3581 14 c-1 -28 -3 -34 -10
-22 -8 14 -3 59 6 59 2 0 4 -17 4 -37z m-3383 -45 c1 -44 0 -48 -7 -23 -11 42
-12 87 -2 81 5 -3 9 -29 9 -58z m3723 26 c0 -14 -4 -23 -10 -19 -5 3 -10 15
-10 26 0 10 5 19 10 19 6 0 10 -12 10 -26z m74 -16 c6 -34 3 -45 -14 -62 l-20
-20 0 22 c0 13 5 33 11 45 9 15 9 22 1 25 -6 2 -8 10 -5 18 10 26 20 15 27
-28z m-4034 11 c0 -6 -4 -7 -10 -4 -5 3 -10 11 -10 16 0 6 5 7 10 4 6 -3 10
-11 10 -16z m845 -72 c-17 -52 -53 -112 -62 -103 -7 6 25 102 50 151 28 53 35
23 12 -48z m3305 43 c0 -16 -4 -30 -10 -30 -5 0 -10 3 -10 8 0 4 -3 17 -6 30
-5 16 -2 22 10 22 11 0 16 -9 16 -30z m-3542 -45 c0 -16 -2 -15 -8 5 -4 14 -8
34 -8 45 0 16 2 15 8 -5 4 -14 8 -34 8 -45z m-608 28 c0 -21 -3 -24 -9 -14 -5
8 -7 20 -4 28 8 21 13 15 13 -14z m3840 -74 c-23 -58 -37 -79 -52 -79 -12 0
-4 27 36 115 25 57 32 65 34 44 2 -14 -7 -50 -18 -80z m260 53 c0 -21 -6 -47
-14 -57 -13 -19 -15 -17 -21 18 -6 29 -3 42 10 57 10 11 20 20 22 20 1 0 3
-17 3 -38z m-3585 -11 c-4 -17 -10 -31 -14 -31 -18 0 -19 14 -5 42 19 36 28
31 19 -11z m3093 -26 c0 -16 -2 -15 -8 5 -4 14 -8 34 -8 45 0 16 2 15 8 -5 4
-14 8 -34 8 -45z m304 23 c-13 -13 -24 5 -16 27 7 16 8 16 17 0 6 -11 6 -20
-1 -27z m568 5 c0 -37 0 -37 -16 -15 -12 18 -13 26 -4 37 18 22 20 19 20 -22z
m-5338 -18 c-4 -35 -22 -59 -22 -29 0 10 -3 30 -7 43 -5 19 -2 22 13 19 14 -3
18 -11 16 -33z m798 -44 c0 -39 -4 -73 -10 -76 -5 -3 -10 -1 -10 5 0 6 -5 8
-11 4 -8 -5 -9 11 -4 57 8 69 11 79 26 79 5 0 9 -31 9 -69z m612 -36 c-7 -32
-11 -36 -17 -22 -4 11 -2 44 6 75 13 54 14 55 17 22 1 -19 -1 -53 -6 -75z
m4347 58 c-5 -23 -34 -82 -65 -130 -31 -48 -64 -99 -72 -113 l-15 -24 -10 21
c-11 25 20 81 105 189 26 34 48 68 48 76 0 14 11 31 16 25 2 -1 -1 -21 -7 -44z
m-5676 -28 c10 -84 4 -98 -21 -45 -27 57 -30 113 -5 108 14 -2 20 -18 26 -63z
m4291 27 c-7 -34 -18 -41 -27 -18 -5 13 21 61 29 53 2 -2 1 -18 -2 -35z
m-4245 -24 c-1 -29 -4 -64 -8 -78 -6 -20 -9 -15 -14 30 -10 82 -9 100 8 100
12 0 15 -12 14 -52z m567 10 c-10 -61 -24 -68 -21 -11 3 56 2 53 16 53 8 0 9
-14 5 -42z m251 5 c-3 -10 -5 -4 -5 12 0 17 2 24 5 18 2 -7 2 -21 0 -30z
m3803 18 c0 -19 -26 -48 -35 -39 -6 6 18 58 28 58 4 0 7 -8 7 -19z m160 -20
c0 -35 -26 -62 -36 -37 -8 20 15 78 27 70 5 -3 9 -18 9 -33z m415 8 c21 -40
26 -119 8 -119 -7 0 -13 -4 -13 -10 0 -28 -19 -4 -38 47 -20 54 -20 58 -4 85
21 36 28 35 47 -3z m-5096 -1 c0 -13 -4 -32 -9 -43 -7 -15 -9 -10 -9 23 -1 23
4 42 9 42 6 0 10 -10 9 -22z m86 -33 c-1 -28 -5 -59 -10 -70 -7 -17 -10 -12
-16 25 -13 78 -11 102 9 98 13 -3 17 -14 17 -53z m205 -31 c0 -48 -4 -73 -10
-69 -5 3 -10 1 -10 -5 0 -6 -4 -8 -10 -5 -14 9 -13 138 2 153 21 21 28 2 28
-74z m70 65 c0 -5 -4 -9 -10 -9 -5 0 -10 7 -10 16 0 8 5 12 10 9 6 -3 10 -10
10 -16z m60 -9 c0 -34 -19 -80 -33 -80 -5 0 -6 7 -3 16 3 9 6 33 6 55 0 28 4
39 15 39 10 0 15 -10 15 -30z m3765 -67 c-3 -18 -10 -33 -15 -33 -13 0 -12 18
2 82 12 51 13 51 16 19 2 -19 1 -50 -3 -68z m-3575 66 c0 -6 -4 -7 -10 -4 -5
3 -10 11 -10 16 0 6 5 7 10 4 6 -3 10 -11 10 -16z m275 -6 c-8 -32 -13 -39
-21 -30 -10 9 5 57 17 57 7 0 9 -10 4 -27z m235 -13 c0 -13 -1 -13 -10 0 -5 8
-10 22 -10 30 0 13 1 13 10 0 5 -8 10 -22 10 -30z m3645 -45 c10 -86 -2 -117
-21 -56 -13 45 -9 135 7 126 4 -3 11 -34 14 -70z m-4825 -86 l-6 -44 -13 52
c-12 49 -13 117 -2 138 10 19 28 -102 21 -146z m564 56 c-18 -97 -34 -158 -40
-153 -2 2 1 20 6 39 6 18 10 55 10 82 0 43 24 126 34 116 2 -2 -2 -40 -10 -84z
m3616 47 c0 -15 -2 -15 -10 -2 -13 20 -13 33 0 25 6 -3 10 -14 10 -23z m600
-14 c-1 -26 -3 -30 -10 -16 -6 9 -7 23 -4 32 9 25 14 19 14 -16z m472 -33 c-3
-5 -9 1 -13 15 -12 42 -8 57 6 25 7 -16 10 -34 7 -40z m-4863 -75 c-5 -9 -8
17 -7 60 l1 75 7 -60 c4 -33 3 -67 -1 -75z m268 108 c-3 -8 -6 -5 -6 6 -1 11
2 17 5 13 3 -3 4 -12 1 -19z m83 -4 c0 -8 -4 -14 -10 -14 -5 0 -10 9 -10 21 0
11 5 17 10 14 6 -3 10 -13 10 -21z m416 -106 c-3 -55 -7 -103 -10 -106 -7 -6
-7 1 -7 93 0 141 1 151 12 132 7 -11 9 -57 5 -119z m-139 60 c-2 -13 -4 -3 -4
22 0 25 2 35 4 23 2 -13 2 -33 0 -45z m-1157 7 c0 -17 -2 -17 -10 -5 -5 8 -10
24 -10 35 0 17 2 17 10 5 5 -8 10 -24 10 -35z m1086 18 c-10 -10 -19 5 -10 18
6 11 8 11 12 0 2 -7 1 -15 -2 -18z m4626 -3 c-5 -33 -32 -64 -32 -36 0 14 27
66 34 66 2 0 1 -13 -2 -30z m-494 -53 l-4 -42 -12 29 c-15 35 -6 101 10 73 5
-10 8 -36 6 -60z m228 36 c-11 -11 -19 6 -11 24 8 17 8 17 12 0 3 -10 2 -21
-1 -24z m-557 -45 l-2 -73 -7 65 c-7 60 -6 80 6 80 2 0 3 -33 3 -72z m-4273
16 c-5 -26 -10 -34 -18 -26 -8 8 -7 20 2 42 16 39 24 31 16 -16z m4134 29 c0
-10 -4 -24 -9 -32 -12 -19 -24 3 -16 29 8 25 25 26 25 3z m-3860 -29 c0 -14
-4 -22 -10 -19 -5 3 -10 17 -10 31 0 14 4 22 10 19 6 -3 10 -17 10 -31z m-171
-18 c-9 -8 -10 -7 -5 7 3 10 7 24 7 30 1 7 3 4 6 -7 3 -10 -1 -23 -8 -30z
m-790 -26 l-1 -35 -12 29 c-15 32 -10 78 5 54 5 -7 8 -29 8 -48z m298 38 c-3
-8 -6 -5 -6 6 -1 11 2 17 5 13 3 -3 4 -12 1 -19z m574 -21 c-8 -8 -11 -5 -11
9 0 27 14 41 18 19 2 -9 -1 -22 -7 -28z m4441 8 c2 -19 0 -35 -4 -35 -4 0 -8
16 -8 35 0 19 2 35 4 35 2 0 6 -16 8 -35z m-5412 -26 c20 -37 20 -39 2 -39
-14 0 -21 12 -29 45 -12 52 -1 50 27 -6z m4771 24 c-12 -20 -14 -14 -5 12 4 9
9 14 11 11 3 -2 0 -13 -6 -23z m339 -6 c0 -5 -4 -5 -10 -2 -5 3 -10 14 -10 23
0 15 2 15 10 2 5 -8 10 -19 10 -23z m-4833 -19 c-3 -7 -5 -2 -5 12 0 14 2 19
5 13 2 -7 2 -19 0 -25z m5213 -3 c0 -19 -4 -35 -10 -35 -11 0 -14 53 -3 63 11
12 13 8 13 -28z m81 -28 c-13 -13 -14 5 -3 43 l7 25 3 -29 c2 -16 -1 -33 -7
-39z m-5713 -3 c-3 -37 -4 -38 -16 -17 -7 13 -10 34 -6 49 10 38 26 14 22 -32z
m5663 29 c-12 -20 -14 -14 -5 12 4 9 9 14 11 11 3 -2 0 -13 -6 -23z m-5118
-30 c4 -18 2 -35 -3 -38 -6 -3 -10 0 -10 8 0 8 -3 30 -6 48 -5 23 -3 31 3 24
6 -5 13 -24 16 -42z m4956 -25 c-16 -29 -21 -16 -13 33 7 43 8 43 15 15 5 -17
4 -37 -2 -48z m-4069 26 c0 -8 -5 -12 -10 -9 -6 4 -8 11 -5 16 9 14 15 11 15
-7z m3810 -88 c-7 -7 -10 9 -9 45 l1 54 9 -45 c5 -28 5 -48 -1 -54z m-6092
-10 c19 -27 36 -56 37 -66 1 -10 13 -31 27 -48 24 -29 25 -32 13 -84 -7 -29
-16 -66 -20 -82 -3 -15 -8 -26 -11 -24 -2 3 -19 58 -37 124 -19 65 -42 133
-51 149 -10 17 -15 21 -11 11 39 -128 91 -363 81 -373 -8 -9 -33 51 -47 112
-7 33 -30 104 -51 157 -39 98 -40 108 -22 197 l5 24 25 -24 c14 -13 42 -46 62
-73z m5892 72 c0 -16 -3 -19 -11 -11 -6 6 -8 16 -5 22 11 17 16 13 16 -11z
m900 0 c-1 -23 -21 -58 -34 -58 -10 0 -7 27 6 55 14 31 28 33 28 3z m-6716
-82 c47 -84 54 -106 36 -106 -5 0 -10 6 -10 13 0 7 -18 48 -40 91 -22 43 -40
80 -40 82 0 15 15 -7 54 -80z m6463 62 c-3 -8 -6 -5 -6 6 -1 11 2 17 5 13 3
-3 4 -12 1 -19z m175 -3 c-2 -14 -6 -25 -8 -25 -2 0 -4 11 -4 25 0 14 4 25 9
25 4 0 6 -11 3 -25z m-6172 -36 c32 -49 33 -51 17 -82 -13 -26 -16 -28 -16
-11 -1 11 -7 29 -15 39 -13 18 -14 17 -9 -10 4 -29 4 -29 -11 -11 -16 20 -20
64 -10 104 4 12 8 22 9 22 2 0 18 -23 35 -51z m530 19 c0 -36 -4 -35 -14 5 -4
16 -2 27 4 27 5 0 10 -14 10 -32z m1368 -53 c0 -13 -5 -7 -13 15 -7 19 -13 44
-13 55 0 13 5 7 13 -15 7 -19 13 -44 13 -55z m4020 30 c0 -16 -2 -15 -8 5 -11
34 -11 60 0 35 5 -11 8 -29 8 -40z m1182 -19 l22 -54 -23 -31 c-13 -17 -29
-31 -36 -31 -7 0 -19 -12 -27 -27 l-15 -28 -1 40 c0 48 -16 37 -28 -20 l-8
-39 -22 31 -23 32 40 80 c38 74 74 116 91 106 4 -3 17 -29 30 -59z m-707 47
c2 -5 -7 -26 -20 -48 l-23 -40 2 35 c2 46 27 78 41 53z m-4990 -28 c-7 -21
-13 -19 -13 6 0 11 4 18 10 14 5 -3 7 -12 3 -20z m5591 -2 c-10 -16 -30 -50
-45 -76 -20 -37 -28 -45 -33 -32 -9 25 -7 80 4 109 8 22 16 26 51 26 l41 0
-18 -27z m-6729 -170 c-3 -24 -11 -43 -17 -43 -12 0 -2 206 10 225 9 14 15
-130 7 -182z m6215 183 c0 -3 -4 -8 -10 -11 -5 -3 -10 -1 -10 4 0 6 5 11 10
11 6 0 10 -2 10 -4z m69 -13 c0 -10 -6 -36 -13 -58 l-12 -40 -16 50 c-19 56
-17 65 18 65 16 0 24 -5 23 -17z m86 -5 c-3 -13 -14 -54 -24 -93 l-18 -70 -16
32 c-15 28 -15 35 -1 85 20 67 21 68 45 68 15 0 18 -5 14 -22z m160 12 c3 -5
2 -10 -4 -10 -5 0 -13 5 -16 10 -3 6 -2 10 4 10 5 0 13 -4 16 -10z m45 0 c0
-5 -4 -10 -10 -10 -5 0 -10 5 -10 10 0 6 5 10 10 10 6 0 10 -4 10 -10z m70 -6
c0 -14 -2 -14 -16 -3 -15 12 -16 10 -9 -20 5 -23 4 -31 -4 -27 -6 4 -11 20
-11 37 0 22 5 29 20 29 12 0 20 -7 20 -16z m699 -31 c0 -41 -2 -45 -11 -26
-10 20 -4 73 7 73 3 0 5 -21 4 -47z m-5869 -76 c-11 -12 -23 67 -14 95 7 19 9
12 15 -32 4 -30 4 -59 -1 -63z m4446 65 c-20 -20 -22 -1 -4 31 11 20 12 21 16
3 2 -10 -3 -26 -12 -34z m-370 1 c-11 -11 -17 4 -9 23 7 18 8 18 11 1 2 -10 1
-21 -2 -24z m1718 -56 c-9 -37 -20 -67 -25 -67 -11 0 -11 13 1 70 22 98 21 96
30 79 5 -9 3 -42 -6 -82z m-7225 32 c14 -53 11 -65 -13 -56 -11 5 -15 19 -13
57 1 27 5 50 8 50 3 0 11 -23 18 -51z m5812 -22 c-13 -13 -15 31 -3 60 5 14 8
10 10 -16 2 -18 -1 -38 -7 -44z m377 17 c16 -56 14 -88 -2 -44 -8 20 -17 51
-21 70 -10 48 8 27 23 -26z m325 43 c3 -8 1 -20 -4 -28 -6 -10 -9 -7 -9 14 0
29 5 35 13 14z m384 -24 c-3 -10 -5 -4 -5 12 0 17 2 24 5 18 2 -7 2 -21 0 -30z
m-6580 -40 c-2 -16 -4 -5 -4 22 0 28 2 40 4 28 2 -13 2 -35 0 -50z m4934 0
c-9 -15 -10 -13 -11 13 0 17 3 34 8 38 11 12 14 -32 3 -51z m2171 -29 c2 -73
-20 -183 -33 -163 -11 18 -11 73 1 124 13 56 3 57 -12 1 -15 -56 -28 -60 -28
-6 0 25 10 55 27 84 33 54 42 46 45 -40z m-7304 30 c2 -37 1 -38 -13 -20 -18
24 -20 69 -2 64 6 -3 13 -22 15 -44z m5978 18 c-18 -16 -18 -16 -6 6 6 13 14
21 18 18 3 -4 -2 -14 -12 -24z m-7022 -89 c29 -84 44 -197 27 -207 -8 -5 -8
-13 0 -28 7 -12 7 -24 2 -29 -17 -17 -31 33 -48 161 -9 69 -19 141 -22 160 -8
53 11 26 41 -57z m574 20 c-7 -9 -19 -28 -25 -42 -11 -23 -12 -19 -7 34 8 75
13 85 31 51 12 -23 12 -30 1 -43z m6494 22 l16 -46 -32 -29 c-17 -17 -34 -30
-38 -30 -3 0 -11 14 -17 31 -10 28 -8 37 17 75 15 24 29 44 32 44 3 0 13 -20
22 -45z m385 23 c-3 -8 -6 -5 -6 6 -1 11 2 17 5 13 3 -3 4 -12 1 -19z m341
-83 l0 -50 -14 55 c-8 30 -11 66 -7 80 l6 25 7 -30 c4 -16 8 -52 8 -80z m422
38 c0 -19 -25 -43 -44 -43 -10 0 -7 35 6 70 10 31 12 32 25 15 7 -11 13 -29
13 -42z m-7233 25 c-3 -8 -6 -5 -6 6 -1 11 2 17 5 13 3 -3 4 -12 1 -19z m6420
0 c-3 -8 -6 -5 -6 6 -1 11 2 17 5 13 3 -3 4 -12 1 -19z m-1007 -18 c0 -11 -2
-20 -4 -20 -2 0 -6 9 -9 20 -3 11 -1 20 4 20 5 0 9 -9 9 -20z m-6104 -46 c16
-38 18 -64 5 -64 -12 0 -41 63 -41 90 0 29 19 16 36 -26z m7144 -35 c-16 -64
-35 -54 -26 14 9 62 16 75 28 53 6 -11 6 -35 -2 -67z m70 48 c0 -5 -4 -5 -10
-2 -5 3 -10 14 -10 23 0 15 2 15 10 2 5 -8 10 -19 10 -23z m245 -52 c-4 -41
-10 -75 -14 -75 -8 0 -31 44 -31 60 0 17 41 103 46 97 4 -3 3 -40 -1 -82z
m119 24 c10 -33 15 -63 12 -66 -8 -8 -46 75 -46 102 0 44 17 27 34 -36z m577
-16 c-25 -47 -28 -19 -4 39 14 34 19 39 21 21 2 -12 -6 -39 -17 -60z m82 3
c-4 -43 -13 -75 -24 -89 -18 -22 -18 -21 -19 35 0 40 6 67 21 93 12 20 23 34
25 32 2 -2 1 -34 -3 -71z m-7583 27 c0 -20 -3 -24 -11 -16 -7 7 -9 19 -6 27
10 24 17 19 17 -11z m-986 -88 l6 -80 -20 38 c-17 30 -19 47 -14 88 9 69 20
50 28 -46z m6436 59 c0 -13 -4 -24 -10 -24 -5 0 -10 14 -10 31 0 17 4 28 10
24 6 -3 10 -17 10 -31z m800 -19 c0 -30 -4 -55 -10 -55 -5 0 -10 25 -10 55 0
30 5 55 10 55 6 0 10 -25 10 -55z m394 -27 c-4 -7 -14 2 -25 23 -27 51 -23 69
6 26 14 -20 23 -42 19 -49z m426 58 c18 -36 -1 -136 -21 -105 -11 18 -12 129
-1 129 5 0 14 -11 22 -24z m-1030 -50 c-7 -7 -10 4 -9 30 1 39 1 39 10 9 5
-18 5 -33 -1 -39z m685 17 c-18 -43 -21 -47 -28 -36 -5 8 30 73 39 73 2 0 -3
-17 -11 -37z m-595 20 c0 -18 -41 -73 -50 -68 -16 10 -12 27 12 52 21 23 38
30 38 16z m1174 -64 c8 -78 4 -93 -19 -63 -15 19 -15 19 -8 0 4 -13 3 -17 -5
-13 -21 14 -25 68 -7 108 10 21 21 39 25 39 4 0 11 -32 14 -71z m-1394 57 c0
-3 -4 -8 -10 -11 -5 -3 -10 -1 -10 4 0 6 5 11 10 11 6 0 10 -2 10 -4z m-6661
-78 c0 -50 -3 -67 -9 -53 -12 28 -12 125 0 125 6 0 10 -30 9 -72z m8162 25
c-9 -16 -10 -15 -11 8 0 14 3 29 8 33 12 12 14 -22 3 -41z m-7724 -28 c-3 -17
-5 -16 -16 9 -6 16 -9 37 -5 45 5 13 8 11 15 -9 6 -13 8 -33 6 -45z m6843 48
c-1 -24 -28 -82 -29 -62 -2 29 11 79 20 79 5 0 9 -8 9 -17z m-650 -23 c-6 -12
-14 -19 -17 -17 -2 3 1 15 7 27 6 12 14 19 17 17 2 -3 -1 -15 -7 -27z m283 10
c3 -11 1 -18 -4 -14 -5 3 -9 12 -9 20 0 20 7 17 13 -6z m1338 -117 l-20 -38
-1 42 c0 23 4 52 9 65 5 13 13 32 17 43 7 15 9 9 12 -27 2 -33 -3 -58 -17 -85z
m-736 96 c5 -14 1 -25 -12 -34 -23 -17 -26 -13 -18 24 8 36 21 40 30 10z
m-7218 -21 c-3 -7 -5 -2 -5 12 0 14 2 19 5 13 2 -7 2 -19 0 -25z m6513 6 c0
-8 -4 -14 -10 -14 -5 0 -10 9 -10 21 0 11 5 17 10 14 6 -3 10 -13 10 -21z m50
6 c0 -5 -5 -10 -11 -10 -5 0 -7 5 -4 10 3 6 8 10 11 10 2 0 4 -4 4 -10z
m-6645 -50 c-6 -9 -12 -6 -21 11 -20 36 -17 46 7 22 13 -12 18 -26 14 -33z
m6698 33 c3 -10 5 -36 6 -58 2 -30 -1 -37 -10 -28 -15 15 -25 103 -11 103 6 0
13 -8 15 -17z m404 -15 c-3 -7 -5 -2 -5 12 0 14 2 19 5 13 2 -7 2 -19 0 -25z
m853 -25 c0 -33 -3 -44 -11 -36 -9 9 -3 83 7 83 2 0 4 -21 4 -47z m233 22 c-3
-9 -8 -14 -10 -11 -3 3 -2 9 2 15 9 16 15 13 8 -4z m-7996 -17 c-3 -8 -6 -5
-6 6 -1 11 2 17 5 13 3 -3 4 -12 1 -19z m8490 -26 c3 -43 2 -46 -12 -28 -8 11
-15 24 -15 29 0 8 19 47 23 47 1 0 3 -21 4 -48z m-1362 9 c-7 -23 -25 -29 -25
-8 0 14 21 39 28 33 2 -3 1 -14 -3 -25z m773 -87 l-13 -29 -3 47 c-2 27 3 57
10 70 12 22 13 21 16 -18 2 -22 -3 -53 -10 -70z m508 16 c-9 -40 -16 -84 -16
-99 -1 -23 -2 -24 -11 -8 -11 19 -9 44 13 145 7 34 15 49 21 43 6 -6 4 -36 -7
-81z m-1516 52 c0 -10 -7 -27 -15 -38 -13 -17 -14 -16 -5 16 6 19 10 36 10 37
0 2 2 3 5 3 3 0 5 -8 5 -18z m1090 -14 c0 -18 -5 -40 -10 -48 -7 -11 -10 -2
-10 33 0 26 5 47 10 47 6 0 10 -15 10 -32z m-8626 -51 c16 -52 4 -65 -13 -16
-11 32 -15 76 -6 67 3 -2 11 -26 19 -51z m8746 18 c0 -14 7 -42 15 -62 10 -25
12 -40 5 -47 -13 -13 -20 -4 -31 41 -12 51 -11 93 1 93 6 0 10 -11 10 -25z
m-8370 -32 c0 -13 -4 -23 -9 -23 -10 0 -21 57 -12 65 8 8 21 -18 21 -42z m597
25 c-3 -8 -6 -5 -6 6 -1 11 2 17 5 13 3 -3 4 -12 1 -19z m-1007 -30 c0 -10 -4
-18 -10 -18 -5 0 -10 15 -10 33 0 24 3 28 10 17 5 -8 10 -23 10 -32z m9156
-11 c18 -40 25 -78 29 -148 6 -89 5 -93 -10 -64 l-15 30 6 -40 c9 -60 -3 -38
-31 56 -25 84 -25 84 -5 101 27 22 25 31 -5 24 -16 -4 -25 -2 -25 5 0 16 22
89 27 89 2 0 15 -24 29 -53z m-1996 13 c0 -16 -4 -30 -10 -30 -11 0 -14 43 -3
53 11 12 13 8 13 -23z m1379 -27 c-1 -32 -4 -46 -6 -30 -2 15 -9 25 -14 22 -5
-4 -9 -4 -9 -2 0 9 22 67 26 67 2 0 3 -26 3 -57z m350 -37 c-13 -59 -23 -64
-34 -15 -5 24 -2 36 16 55 12 13 24 22 27 20 2 -3 -2 -29 -9 -60z m512 17 c-6
-21 -18 -47 -26 -58 -16 -19 -16 -19 -11 6 8 37 36 102 42 96 3 -3 1 -22 -5
-44z m63 -55 c-4 -49 -13 -83 -25 -99 l-19 -24 0 70 c0 53 5 78 21 104 11 18
22 31 25 28 3 -2 2 -38 -2 -79z m-9356 41 c-3 -8 -7 -3 -11 10 -4 17 -3 21 5
13 5 -5 8 -16 6 -23z m-688 -81 c0 -53 -41 -20 -59 47 -17 61 -13 63 24 20 21
-24 35 -51 35 -67z m354 49 c-3 -8 4 -35 16 -61 13 -32 17 -53 11 -64 -7 -12
-13 -4 -25 37 -23 77 -29 118 -20 132 9 15 26 -24 18 -44z m9179 16 c11 -23
12 -37 2 -73 -11 -42 -12 -44 -23 -23 -13 23 -16 81 -6 107 8 22 11 20 27 -11z
m-129 -58 c-4 -8 -10 -15 -14 -15 -14 0 -20 44 -8 58 10 11 13 10 20 -7 4 -12
5 -28 2 -36z m-8834 30 c0 -8 -2 -15 -4 -15 -2 0 -6 7 -10 15 -3 8 -1 15 4 15
6 0 10 -7 10 -15z m8527 -7 c-3 -8 -6 -5 -6 6 -1 11 2 17 5 13 3 -3 4 -12 1
-19z m787 -127 c-4 -26 -8 -31 -15 -20 -5 8 -6 22 -3 32 3 9 0 17 -6 17 -11 0
-10 11 7 93 6 29 8 27 15 -28 4 -33 5 -75 2 -94z m-9144 72 c0 -13 -20 -19
-20 -5 0 4 -3 18 -6 32 -5 24 -5 24 10 6 9 -11 16 -26 16 -33z m-416 -43 l6
-65 -14 40 c-17 46 -21 114 -7 100 5 -6 12 -39 15 -75z m9645 -82 c-7 -21 -16
-38 -21 -38 -14 0 -9 94 10 151 l17 54 3 -65 c2 -36 -2 -82 -9 -102z m-10018
51 c16 -89 13 -112 -9 -64 -15 32 -28 173 -16 162 5 -5 16 -49 25 -98z m79 60
c0 -16 -4 -29 -10 -29 -5 0 -10 16 -10 36 0 21 4 33 10 29 6 -3 10 -19 10 -36z
m9660 31 c0 -5 -2 -10 -4 -10 -3 0 -8 5 -11 10 -3 6 -1 10 4 10 6 0 11 -4 11
-10z m-363 -42 c-3 -7 -5 -2 -5 12 0 14 2 19 5 13 2 -7 2 -19 0 -25z m-9146
-5 c5 -15 7 -45 3 -68 -6 -33 -8 -36 -15 -20 -9 23 -12 115 -4 115 3 0 10 -12
16 -27z m8439 -9 c0 -8 -4 -14 -10 -14 -5 0 -10 9 -10 21 0 11 5 17 10 14 6
-3 10 -13 10 -21z m960 -29 c0 -25 -4 -45 -10 -45 -11 0 -14 73 -3 83 11 12
13 8 13 -38z m453 -32 c-8 -79 -19 -97 -28 -46 -4 29 -2 50 10 72 8 17 17 31
20 31 2 0 1 -26 -2 -57z m-9937 21 c16 -24 2 -56 -17 -37 -15 15 -21 65 -7 61
6 -2 17 -13 24 -24z m508 10 c3 -8 2 -12 -4 -9 -6 3 -10 10 -10 16 0 14 7 11
14 -7z m9096 -12 c0 -15 -2 -15 -10 -2 -13 20 -13 33 0 25 6 -3 10 -14 10 -23z
m-9680 -4 c0 -19 -2 -20 -10 -8 -13 19 -13 30 0 30 6 0 10 -10 10 -22z m8610
0 c0 -16 -3 -19 -11 -11 -6 6 -8 16 -5 22 11 17 16 13 16 -11z m-8325 -115
c-12 -11 -16 -11 -25 6 -13 26 -13 67 2 94 11 20 13 18 24 -32 10 -45 10 -56
-1 -68z m124 7 c0 -23 -1 -23 -9 -5 -5 11 -9 29 -9 40 -1 17 1 17 9 5 5 -8 9
-26 9 -40z m8926 11 c4 -15 3 -21 -3 -17 -5 3 -12 17 -15 32 -5 30 8 20 18
-15z m-9332 -67 c-5 -42 -8 -53 -14 -39 -10 26 -11 119 -2 129 14 13 22 -33
16 -90z m9967 54 c-1 -24 -9 -59 -20 -78 -18 -32 -19 -33 -19 -10 0 14 6 36
14 50 19 33 18 50 0 26 -18 -24 -20 -7 -3 29 17 37 28 30 28 -17z m-9870 -19
c0 -6 -4 -7 -10 -4 -5 3 -10 11 -10 16 0 6 5 7 10 4 6 -3 10 -11 10 -16z
m9497 -1 c-3 -8 -6 -5 -6 6 -1 11 2 17 5 13 3 -3 4 -12 1 -19z m-9327 -29 c24
-46 22 -76 -3 -39 -17 27 -33 80 -23 80 3 0 15 -18 26 -41z m9739 -16 c-1 -45
-1 -46 -10 -18 -8 27 -4 65 7 65 2 0 4 -21 3 -47z m117 11 c-4 -9 -9 -15 -11
-12 -3 3 -3 13 1 22 4 9 9 15 11 12 3 -3 3 -13 -1 -22z m-10026 -43 c0 -25
-18 1 -25 34 l-6 30 15 -25 c8 -14 15 -32 16 -39z m-300 -30 c-1 -13 -29 45
-29 59 0 8 6 0 14 -19 8 -18 15 -36 15 -40z m600 29 c0 -13 -1 -13 -10 0 -5 8
-10 22 -10 30 0 13 1 13 10 0 5 -8 10 -22 10 -30z m-250 -13 c0 -10 -4 -15
-10 -12 -5 3 -10 18 -10 33 0 21 2 24 10 12 5 -8 10 -23 10 -33z m9557 11 c-3
-8 -6 -5 -6 6 -1 11 2 17 5 13 3 -3 4 -12 1 -19z m266 -90 c-11 -31 -20 -44
-25 -35 -12 19 -9 47 9 96 l17 44 8 -29 c5 -20 2 -44 -9 -76z m-9913 56 c0
-14 -4 -23 -10 -19 -5 3 -10 15 -10 26 0 10 5 19 10 19 6 0 10 -12 10 -26z
m10040 -33 c-11 -47 -30 -70 -30 -36 0 20 31 97 37 91 3 -3 0 -28 -7 -55z
m-9513 -13 c-3 -8 -6 -5 -6 6 -1 11 2 17 5 13 3 -3 4 -12 1 -19z m8871 0 c-4
-27 -28 -36 -28 -10 0 20 8 32 22 32 5 0 8 -10 6 -22z m-9734 -93 c11 -46 -9
-18 -28 39 -9 27 -16 52 -16 55 1 12 38 -65 44 -94z m10260 10 c-23 -55 -30
-26 -7 32 13 34 19 42 21 28 2 -11 -5 -38 -14 -60z m-804 44 c0 -5 -4 -9 -10
-9 -5 0 -10 7 -10 16 0 8 5 12 10 9 6 -3 10 -10 10 -16z m286 -26 c-11 -11
-17 4 -9 23 7 18 8 18 11 1 2 -10 1 -21 -2 -24z m-1557 -20 c0 -34 -1 -36 -11
-16 -6 12 -8 29 -5 37 11 27 17 18 16 -21z m-142 -20 c-3 -10 -5 -2 -5 17 0
19 2 27 5 18 2 -10 2 -26 0 -35z m2337 22 c8 -31 -2 -54 -15 -34 -11 18 -11
59 0 59 5 0 12 -11 15 -25z m-6687 -7 c-3 -8 -6 -5 -6 6 -1 11 2 17 5 13 3 -3
4 -12 1 -19z m5913 13 c0 -6 -4 -13 -10 -16 -5 -3 -10 1 -10 9 0 9 5 16 10 16
6 0 10 -4 10 -9z m537 -13 c-3 -8 -6 -5 -6 6 -1 11 2 17 5 13 3 -3 4 -12 1
-19z m-6777 -2 c0 -8 -4 -18 -10 -21 -5 -3 -10 3 -10 14 0 12 5 21 10 21 6 0
10 -6 10 -14z m6017 -18 c-3 -7 -5 -2 -5 12 0 14 2 19 5 13 2 -7 2 -19 0 -25z
m-9231 -123 c-5 -15 -26 66 -25 95 1 15 7 2 15 -30 7 -30 12 -59 10 -65z
m4199 106 c3 -5 1 -12 -5 -16 -5 -3 -10 1 -10 9 0 18 6 21 15 7z m3565 -7 c0
-8 -4 -12 -10 -9 -5 3 -10 10 -10 16 0 5 5 9 10 9 6 0 10 -7 10 -16z m-6363
-16 c-3 -8 -6 -5 -6 6 -1 11 2 17 5 13 3 -3 4 -12 1 -19z m8631 -56 l-3 -37
-13 38 c-16 43 -8 86 9 54 6 -9 9 -34 7 -55z m-6818 -56 c0 -98 -22 -73 -27
31 -4 72 -3 76 11 59 11 -14 16 -41 16 -90z m860 49 c0 -5 -5 -3 -10 5 -5 8
-10 20 -10 25 0 6 5 3 10 -5 5 -8 10 -19 10 -25z m-4214 -57 c16 -86 17 -91 5
-84 -5 3 -12 27 -15 53 -4 27 -10 64 -13 83 -11 66 9 21 23 -52z m5611 40 c-3
-8 -6 -5 -6 6 -1 11 2 17 5 13 3 -3 4 -12 1 -19z m-4817 -19 c0 -6 -4 -7 -10
-4 -5 3 -10 11 -10 16 0 6 5 7 10 4 6 -3 10 -11 10 -16z m7549 -36 c-1 -34 -2
-35 -9 -13 -11 36 -11 50 0 50 6 0 10 -17 9 -37z m-4819 -15 c0 -10 -4 -18
-10 -18 -5 0 -10 15 -10 33 0 24 3 28 10 17 5 -8 10 -23 10 -32z m4592 17 c3
-13 1 -22 -3 -19 -9 5 -13 44 -5 44 2 0 6 -11 8 -25z m1195 -7 c-3 -7 -5 -2
-5 12 0 14 2 19 5 13 2 -7 2 -19 0 -25z m-6018 -23 l0 -20 -9 20 c-5 11 -9 27
-9 35 -1 13 0 13 9 0 5 -8 9 -24 9 -35z m528 13 c-3 -8 -6 -5 -6 6 -1 11 2 17
5 13 3 -3 4 -12 1 -19z m673 7 c0 -8 -4 -15 -10 -15 -5 0 -10 7 -10 15 0 8 5
15 10 15 6 0 10 -7 10 -15z m-4551 -35 c0 -10 -3 -8 -9 5 -12 27 -12 43 0 25
5 -8 9 -22 9 -30z m7748 -22 c-3 -8 -6 -5 -6 6 -1 11 2 17 5 13 3 -3 4 -12 1
-19z m1487 6 c3 -8 2 -12 -4 -9 -6 3 -10 10 -10 16 0 14 7 11 14 -7z m-8754
-16 c0 -19 -2 -20 -10 -8 -13 19 -13 30 0 30 6 0 10 -10 10 -22z m6713 2 c3
-11 3 -20 1 -20 -2 0 -8 9 -14 20 -6 11 -7 20 -2 20 6 0 12 -9 15 -20z m-4823
-30 c0 -13 -1 -13 -10 0 -5 8 -10 22 -10 30 0 13 1 13 10 0 5 -8 10 -22 10
-30z m547 18 c-3 -8 -6 -5 -6 6 -1 11 2 17 5 13 3 -3 4 -12 1 -19z m4033 -35
c0 -21 -7 -15 -24 19 -21 41 -20 46 4 18 11 -13 20 -29 20 -37z m-4832 -11
c-3 -13 -8 -9 -21 15 -23 43 -21 52 4 25 11 -13 19 -30 17 -40z"/>
<path d="M334 481 c42 -63 76 -119 76 -124 0 -6 3 -8 6 -5 12 13 -91 182 -136
223 -12 11 12 -31 54 -94z"/>
<path d="M9760 420 c6 -11 13 -20 16 -20 2 0 0 9 -6 20 -6 11 -13 20 -16 20
-2 0 0 -9 6 -20z"/>
<path d="M4930 414 c0 -6 7 -19 16 -30 14 -18 14 -18 3 6 -14 31 -19 36 -19
24z"/>
<path d="M4750 366 c0 -8 4 -17 9 -20 5 -4 7 3 4 14 -6 23 -13 26 -13 6z"/>
<path d="M9616 337 c3 -10 9 -15 12 -12 3 3 0 11 -7 18 -10 9 -11 8 -5 -6z"/>
</g>
</svg>
