<?xml version="1.0" standalone="no"?>
<!DOCTYPE svg PUBLIC "-//W3C//DTD SVG 20010904//EN"
 "http://www.w3.org/TR/2001/REC-SVG-20010904/DTD/svg10.dtd">
<svg version="1.0" xmlns="http://www.w3.org/2000/svg"
 width="1280.000000pt" height="818.000000pt" viewBox="0 0 1280.000000 818.000000"
 preserveAspectRatio="xMidYMid meet">
<metadata>
Created by potrace 1.15, written by Peter Selinger 2001-2017
</metadata>
<g transform="translate(0.000000,818.000000) scale(0.100000,-0.100000)"
fill="#000000" stroke="none">
<path d="M5714 8166 c-43 -19 -201 -153 -263 -222 -186 -213 -313 -457 -386
-743 -20 -81 -55 -265 -55 -294 0 -5 -30 19 -67 53 -455 417 -1258 497 -2048
206 -148 -55 -424 -194 -560 -284 -378 -247 -666 -559 -836 -907 -114 -234
-153 -397 -154 -640 l0 -161 -95 37 c-237 93 -435 132 -675 133 -181 1 -257
-9 -379 -50 -131 -45 -180 -85 -192 -161 -8 -53 14 -103 64 -143 72 -57 123
-154 141 -269 8 -49 5 -80 -15 -182 -43 -223 -30 -325 60 -447 53 -71 137
-128 290 -197 59 -27 119 -57 131 -67 40 -31 62 -78 110 -238 61 -203 83 -251
129 -280 30 -18 47 -22 91 -18 61 5 113 40 242 161 251 238 411 549 493 959
l11 57 57 -43 c182 -140 457 -244 739 -281 132 -17 401 -20 541 -5 138 15 370
64 503 106 874 277 1539 916 1691 1624 22 103 29 314 15 427 l-8 62 103 -49
c133 -64 310 -122 473 -157 119 -25 149 -27 340 -27 233 0 298 12 436 75 91
42 121 74 127 138 6 67 -10 101 -72 155 -59 50 -98 116 -121 201 -20 79 -19
133 6 251 39 188 23 308 -54 418 -62 87 -147 144 -330 221 -112 48 -155 93
-186 197 -55 182 -95 296 -113 326 -23 37 -84 72 -125 72 -15 -1 -42 -7 -59
-14z"/>
<path d="M8685 7102 c-37 -8 -85 -53 -110 -101 -31 -62 -90 -112 -184 -159
l-75 -37 -180 -6 c-206 -7 -258 -20 -345 -89 -94 -75 -147 -180 -191 -378 -37
-171 -52 -188 -259 -297 -163 -85 -204 -113 -232 -159 -23 -37 -25 -96 -4
-135 36 -70 229 -215 402 -302 242 -122 598 -193 881 -175 56 4 102 4 102 2 0
-3 -13 -25 -29 -48 -47 -69 -108 -199 -140 -295 -205 -615 -4 -1423 518 -2083
175 -221 468 -482 692 -615 207 -122 422 -210 635 -257 83 -18 131 -22 299
-22 202 -1 226 2 391 50 l21 6 -18 -89 c-89 -430 -20 -913 163 -1144 46 -59
86 -81 145 -81 56 0 104 35 138 101 63 125 240 210 409 197 104 -9 225 7 293
39 73 33 163 121 202 198 17 34 47 124 66 200 19 76 42 151 50 166 25 48 79
87 237 168 173 88 222 129 233 192 11 64 -9 104 -83 171 -280 254 -659 393
-1095 402 -99 3 -117 5 -113 18 2 8 20 51 40 95 89 203 121 391 113 680 -5
210 -17 297 -67 489 -215 834 -898 1593 -1657 1842 -175 57 -306 78 -493 79
-175 0 -265 -13 -402 -59 -38 -12 -68 -22 -68 -21 0 1 13 53 29 116 50 194 56
248 56 494 0 300 -26 444 -115 630 -78 164 -165 238 -255 217z"/>
<path d="M2824 3609 c-34 -10 -93 -69 -96 -97 -1 -9 -2 -66 -2 -127 -1 -90 -5
-120 -24 -166 -36 -89 -75 -140 -154 -199 -215 -162 -277 -267 -265 -449 6
-96 17 -129 89 -285 28 -60 53 -128 56 -151 5 -53 -5 -84 -84 -260 -35 -77
-69 -163 -75 -192 -11 -47 -10 -55 12 -99 41 -82 63 -89 269 -88 197 1 304 18
486 79 221 74 501 242 671 404 l22 20 6 -57 c24 -218 95 -419 214 -612 504
-812 1720 -1278 2726 -1045 364 84 704 286 890 530 l58 75 54 -102 c158 -296
394 -559 619 -688 84 -48 221 -99 267 -100 39 0 87 23 117 55 24 25 25 33 25
143 1 124 8 159 55 252 32 62 67 97 191 193 148 113 200 201 207 349 5 103
-13 171 -88 336 -26 59 -51 122 -55 139 -9 44 13 114 78 253 29 63 61 137 71
163 35 94 15 171 -54 212 -32 18 -51 20 -225 19 -156 0 -208 -4 -291 -22 -258
-55 -522 -182 -742 -354 -35 -27 -65 -48 -66 -46 -1 2 -12 46 -25 99 -60 255
-213 511 -451 750 -229 231 -485 403 -790 533 -796 338 -1668 311 -2245 -71
-119 -80 -290 -246 -355 -347 l-44 -69 -15 34 c-134 309 -263 502 -467 700
-201 194 -452 321 -570 288z"/>
</g>
</svg>
