<?xml version="1.0" standalone="no"?>
<!DOCTYPE svg PUBLIC "-//W3C//DTD SVG 20010904//EN"
 "http://www.w3.org/TR/2001/REC-SVG-20010904/DTD/svg10.dtd">
<svg version="1.0" xmlns="http://www.w3.org/2000/svg"
 width="640.000000pt" height="1280.000000pt" viewBox="0 0 640.000000 1280.000000"
 preserveAspectRatio="xMidYMid meet">
<metadata>
Created by potrace 1.15, written by Peter Selinger 2001-2017
</metadata>
<g transform="translate(0.000000,1280.000000) scale(0.100000,-0.100000)"
fill="#000000" stroke="none">
<path d="M2950 12790 c-368 -36 -768 -161 -1095 -343 -667 -372 -1205 -1020
-1462 -1762 -26 -76 -95 -317 -90 -320 1 -1 49 -26 107 -57 232 -121 442 -258
637 -414 131 -105 375 -344 481 -472 97 -117 94 -116 133 -13 31 82 49 191 49
292 0 256 90 568 236 817 288 490 767 792 1254 792 514 0 1004 -277 1272 -719
l51 -84 20 39 c161 313 290 781 327 1184 11 127 13 425 3 508 l-6 53 -91 56
c-358 224 -764 370 -1192 429 -133 18 -504 26 -634 14z"/>
<path d="M6100 10007 c-75 -126 -204 -308 -319 -452 -307 -386 -632 -661 -986
-837 l-105 -53 0 -732 c0 -581 3 -732 13 -728 6 2 61 18 122 35 437 126 859
307 1228 528 l127 76 0 1016 c0 949 -5 1240 -19 1240 -3 0 -31 -42 -61 -93z"/>
<path d="M6035 5397 c-367 -184 -753 -327 -1168 -432 l-172 -43 -3 -1066 c-1
-586 1 -1066 4 -1066 49 0 517 135 720 208 271 98 748 314 760 345 2 7 3 487
2 1068 l-3 1057 -140 -71z"/>
<path d="M6100 1248 c-108 -67 -455 -232 -630 -301 -200 -79 -446 -161 -638
-212 l-142 -39 6 -35 c26 -155 72 -268 155 -375 94 -121 245 -220 400 -262 89
-24 281 -24 369 0 290 79 508 321 550 613 11 79 14 653 3 652 -5 0 -37 -19
-73 -41z"/>
</g>
</svg>
