<?xml version="1.0" standalone="no"?>
<!DOCTYPE svg PUBLIC "-//W3C//DTD SVG 20010904//EN"
 "http://www.w3.org/TR/2001/REC-SVG-20010904/DTD/svg10.dtd">
<svg version="1.0" xmlns="http://www.w3.org/2000/svg"
 width="864.000000pt" height="1280.000000pt" viewBox="0 0 864.000000 1280.000000"
 preserveAspectRatio="xMidYMid meet">
<metadata>
Created by potrace 1.15, written by Peter Selinger 2001-2017
</metadata>
<g transform="translate(0.000000,1280.000000) scale(0.100000,-0.100000)"
fill="#000000" stroke="none">
<path d="M3285 11249 c-16 -46 -142 -1112 -205 -1739 -53 -523 -88 -1501 -70
-1945 36 -879 175 -1278 606 -1735 38 -41 86 -98 106 -125 37 -52 110 -191
123 -235 4 -14 20 -50 35 -81 16 -32 42 -99 58 -150 65 -210 91 -447 117
-1079 15 -361 25 -1224 14 -1193 -3 10 -9 -59 -12 -152 -8 -182 -29 -406 -47
-495 -7 -30 -32 -97 -56 -148 -37 -77 -58 -106 -122 -168 -83 -82 -202 -171
-322 -241 -180 -107 -241 -128 -427 -143 -196 -16 -263 -53 -263 -146 0 -25 5
-54 10 -65 27 -49 208 -110 430 -143 298 -46 477 -58 925 -63 482 -6 668 2
1010 43 327 39 435 66 449 111 16 58 18 114 2 137 -29 46 -148 93 -326 131
-91 19 -178 39 -195 44 -251 76 -538 329 -634 558 -56 135 -94 679 -94 1338 0
612 37 1041 124 1463 74 355 186 581 408 817 365 388 501 700 572 1310 29 256
39 488 39 934 0 702 -42 1390 -144 2331 -46 418 -76 703 -82 767 -5 51 -6 52
-42 57 -20 3 -475 8 -1009 12 -822 6 -973 4 -978 -7z m2024 -239 c7 -74 21
-202 32 -285 10 -82 23 -195 29 -250 5 -55 16 -154 25 -220 17 -133 55 -510
55 -544 0 -14 -4 -20 -11 -15 -6 3 -170 8 -364 9 -195 2 -376 7 -402 11 -26 4
-174 9 -328 9 -154 1 -325 4 -380 6 -55 3 -109 0 -120 -5 -11 -5 -167 -11
-357 -13 l-338 -3 0 28 c0 34 51 450 121 996 l54 418 986 -3 986 -4 12 -135z
m-2187 -9424 c106 -36 369 -91 483 -101 88 -8 105 -13 105 -29 0 -8 7 -19 15
-26 25 -21 189 -39 366 -41 164 -1 171 -1 194 21 28 26 84 39 170 40 77 0 336
36 395 54 25 8 74 17 109 21 65 6 127 31 150 59 19 23 67 20 107 -8 34 -23 38
-23 87 -10 80 21 124 18 152 -11 29 -29 31 -46 8 -67 -43 -38 -109 -60 -236
-78 -73 -11 -181 -28 -242 -39 -60 -11 -126 -22 -145 -25 -19 -2 -62 -11 -95
-19 -87 -22 -259 -47 -340 -49 -142 -3 -465 13 -645 32 -102 11 -255 25 -340
31 -97 7 -176 18 -210 29 -30 10 -89 26 -130 35 -125 26 -169 67 -138 132 15
32 69 63 110 63 15 0 47 -6 70 -14z"/>
</g>
</svg>
