<?xml version="1.0" standalone="no"?>
<!DOCTYPE svg PUBLIC "-//W3C//DTD SVG 20010904//EN"
 "http://www.w3.org/TR/2001/REC-SVG-20010904/DTD/svg10.dtd">
<svg version="1.0" xmlns="http://www.w3.org/2000/svg"
 width="1280.000000pt" height="1110.000000pt" viewBox="0 0 1280.000000 1110.000000"
 preserveAspectRatio="xMidYMid meet">
<metadata>
Created by potrace 1.15, written by Peter Selinger 2001-2017
</metadata>
<g transform="translate(0.000000,1110.000000) scale(0.100000,-0.100000)"
fill="#000000" stroke="none">
<path d="M6232 9927 c-27 -29 -47 -84 -77 -219 -27 -118 -43 -156 -83 -197
-26 -26 -105 -63 -207 -96 -27 -9 -63 -22 -80 -30 -16 -7 -45 -19 -62 -26 -18
-8 -33 -17 -33 -21 0 -5 -5 -8 -11 -8 -38 0 -178 -129 -214 -197 -11 -21 -24
-41 -30 -45 -5 -4 44 -8 110 -9 85 -1 36 -6 -170 -14 -1682 -74 -2705 -244
-3199 -533 -134 -79 -248 -207 -232 -260 3 -9 10 -107 16 -217 22 -422 70
-850 141 -1270 152 -898 439 -1798 781 -2445 113 -214 175 -318 362 -602 l17
-26 -68 -11 c-343 -55 -482 -79 -693 -121 -965 -191 -1649 -453 -1930 -739
-95 -96 -121 -141 -161 -276 -39 -133 -37 -200 12 -302 42 -89 171 -219 299
-303 97 -63 298 -169 407 -213 33 -13 94 -45 135 -70 484 -294 1363 -548 2408
-696 258 -37 283 -40 460 -60 775 -88 1396 -121 2270 -121 874 0 1495 33 2270
121 177 20 202 23 460 60 1100 156 2004 426 2475 740 55 36 129 80 165 97 187
89 347 199 454 312 78 83 105 133 140 261 31 116 32 157 6 242 -125 406 -1072
793 -2511 1028 l-197 32 73 106 c39 58 95 145 124 193 53 86 54 87 110 103
259 73 591 200 856 329 460 224 824 473 1159 796 342 330 539 716 537 1053 -1
154 -27 243 -105 358 -142 212 -402 361 -736 423 -191 35 -479 46 -695 27 -49
-5 -92 -7 -94 -5 -2 2 8 104 23 226 34 289 52 485 66 738 6 113 13 216 16 228
19 88 -158 244 -389 344 -565 245 -1505 385 -3037 453 -207 9 -252 13 -163 14
l122 1 -22 41 c-55 104 -192 209 -354 274 -24 10 -43 21 -43 26 0 5 -9 9 -20
9 -23 0 -206 94 -236 121 -11 11 -23 19 -27 19 -4 0 -26 12 -50 27 -116 73
-148 94 -215 137 -69 46 -182 141 -210 179 -7 9 -20 17 -28 17 -8 0 -14 5 -14
10 0 19 -56 10 -78 -13z m5043 -3452 c241 -35 394 -103 517 -233 61 -64 78
-105 78 -187 0 -100 -45 -215 -132 -343 -201 -292 -747 -669 -1283 -885 -229
-92 -211 -91 -175 -12 42 93 169 435 218 585 104 318 209 716 277 1047 5 25
12 33 33 36 70 11 375 5 467 -8z"/>
</g>
</svg>
