<?xml version="1.0" standalone="no"?>
<!DOCTYPE svg PUBLIC "-//W3C//DTD SVG 20010904//EN"
 "http://www.w3.org/TR/2001/REC-SVG-20010904/DTD/svg10.dtd">
<svg version="1.0" xmlns="http://www.w3.org/2000/svg"
 width="1280.000000pt" height="640.000000pt" viewBox="0 0 1280.000000 640.000000"
 preserveAspectRatio="xMidYMid meet">
<metadata>
Created by potrace 1.15, written by Peter Selinger 2001-2017
</metadata>
<g transform="translate(0.000000,640.000000) scale(0.100000,-0.100000)"
fill="#000000" stroke="none">
<path d="M5765 6119 c-1283 -55 -2509 -281 -3505 -644 -627 -229 -1176 -527
-1545 -838 -392 -330 -629 -694 -689 -1057 -72 -434 21 -896 257 -1277 265
-426 690 -778 1312 -1084 648 -318 1437 -547 2410 -698 641 -100 1261 -148
2118 -167 l307 -6 0 133 c1 148 2 151 67 192 23 15 47 36 53 47 6 11 32 26 63
35 71 21 271 120 325 161 24 19 52 34 62 34 10 0 31 11 47 23 15 13 52 37 82
53 68 36 119 96 146 172 13 37 47 91 91 146 38 47 78 99 89 114 35 48 109 109
147 121 53 18 81 57 108 152 30 104 51 141 93 162 17 9 118 30 223 47 182 29
277 54 312 82 9 7 46 42 82 78 77 78 191 141 307 171 50 13 141 23 253 30 157
9 187 14 290 46 63 20 150 42 193 50 43 7 90 22 105 33 15 10 62 29 104 40 43
12 115 38 160 59 46 22 117 46 158 55 41 10 131 32 200 51 69 18 142 36 162
40 21 3 73 24 115 46 43 22 102 46 132 55 29 8 67 24 83 35 37 26 103 47 188
59 36 5 119 20 185 34 86 19 151 26 230 26 61 0 148 7 195 16 101 19 544 32
775 23 100 -4 118 2 178 60 38 36 38 36 110 31 116 -7 228 -3 240 9 17 17 15
427 -2 521 -28 154 -96 329 -189 485 -108 181 -346 441 -557 609 -948 752
-2652 1276 -4585 1411 -504 35 -1200 45 -1685 24z"/>
<path d="M11673 2545 c-13 -9 -23 -25 -23 -36 0 -26 30 -37 45 -16 7 10 18 17
24 17 18 0 9 44 -9 48 -8 1 -25 -5 -37 -13z"/>
<path d="M10617 2406 c-17 -13 -22 -50 -11 -79 9 -25 44 17 44 52 0 36 -9 43
-33 27z"/>
<path d="M9812 2158 c-17 -17 -15 -38 3 -38 8 0 22 -8 32 -19 13 -14 24 -17
41 -10 35 13 28 46 -14 64 -44 18 -47 18 -62 3z"/>
<path d="M11140 2131 c0 -5 -22 -17 -50 -26 -66 -22 -91 -53 -80 -101 9 -40
23 -54 55 -54 11 0 29 -3 40 -5 15 -4 24 2 35 27 12 26 26 37 62 49 26 8 50
18 53 21 12 12 -19 70 -46 83 -31 17 -69 20 -69 6z"/>
<path d="M8495 1762 c-15 -11 -36 -62 -30 -73 6 -9 125 -13 125 -4 0 10 -33
60 -49 73 -17 14 -31 15 -46 4z"/>
<path d="M9709 1415 c-9 -9 -31 -24 -50 -33 -51 -26 -64 -61 -49 -136 14 -73
35 -126 49 -126 6 0 14 15 19 33 6 23 15 33 33 35 59 9 73 62 44 171 -17 65
-26 76 -46 56z"/>
<path d="M10733 1299 c-7 -7 -9 -18 -4 -28 5 -9 12 -40 16 -69 8 -60 29 -80
93 -89 39 -5 40 -4 77 52 47 71 43 82 -46 111 -93 31 -123 36 -136 23z"/>
<path d="M8694 1058 c3 -13 6 -33 6 -45 0 -22 24 -53 41 -53 7 0 39 62 39 76
0 8 -65 44 -79 44 -9 0 -11 -7 -7 -22z"/>
<path d="M7690 920 c-41 -10 -82 -54 -78 -83 2 -15 15 -23 48 -31 36 -9 48
-17 60 -43 13 -29 19 -33 58 -33 50 0 82 26 82 68 0 43 -26 70 -84 88 -37 12
-53 21 -49 31 3 7 4 13 2 12 -2 -1 -20 -5 -39 -9z"/>
<path d="M9181 408 c-36 -97 -38 -123 -10 -139 23 -12 192 -9 205 3 8 8 -39
111 -64 141 -11 12 -30 17 -69 17 -46 0 -55 -3 -62 -22z"/>
</g>
</svg>
