<?xml version="1.0" standalone="no"?>
<!DOCTYPE svg PUBLIC "-//W3C//DTD SVG 20010904//EN"
 "http://www.w3.org/TR/2001/REC-SVG-20010904/DTD/svg10.dtd">
<svg version="1.0" xmlns="http://www.w3.org/2000/svg"
 width="640.000000pt" height="1280.000000pt" viewBox="0 0 640.000000 1280.000000"
 preserveAspectRatio="xMidYMid meet">
<metadata>
Created by potrace 1.15, written by Peter Selinger 2001-2017
</metadata>
<g transform="translate(0.000000,1280.000000) scale(0.100000,-0.100000)"
fill="#000000" stroke="none">
<path d="M2795 12794 c-431 -21 -668 -41 -931 -79 -354 -51 -640 -122 -786
-196 -31 -16 -73 -29 -91 -29 -33 0 -36 -3 -65 -69 -196 -437 -807 -2708 -877
-3256 -80 -633 -2 -1273 217 -1785 166 -387 375 -688 699 -1005 337 -330 660
-545 1226 -816 111 -54 223 -112 250 -130 230 -156 340 -436 388 -986 43 -492
46 -1785 5 -2345 -64 -878 -228 -1159 -875 -1499 -117 -62 -185 -89 -551 -219
-372 -134 -541 -212 -598 -281 -49 -58 -46 -59 170 -59 187 0 196 -1 201 -20
5 -20 14 -20 2244 -20 l2239 0 0 45 c0 81 -42 132 -165 200 -91 51 -181 89
-544 226 -317 120 -427 171 -603 283 -464 293 -585 565 -639 1431 -17 273 -23
1560 -10 1866 37 808 128 1118 380 1289 31 20 148 82 261 138 460 225 802 464
1115 777 298 297 497 582 656 940 273 617 347 1380 205 2125 -120 626 -508
2121 -713 2744 -59 181 -120 336 -132 336 -4 0 -27 18 -50 40 -164 156 -698
276 -1496 335 -186 14 -967 27 -1130 19z"/>
</g>
</svg>
