<?xml version="1.0" standalone="no"?>
<!DOCTYPE svg PUBLIC "-//W3C//DTD SVG 20010904//EN"
 "http://www.w3.org/TR/2001/REC-SVG-20010904/DTD/svg10.dtd">
<svg version="1.0" xmlns="http://www.w3.org/2000/svg"
 width="1280.000000pt" height="746.000000pt" viewBox="0 0 1280.000000 746.000000"
 preserveAspectRatio="xMidYMid meet">
<metadata>
Created by potrace 1.15, written by Peter Selinger 2001-2017
</metadata>
<g transform="translate(0.000000,746.000000) scale(0.100000,-0.100000)"
fill="#000000" stroke="none">
<path d="M10790 7130 c-283 -176 -527 -327 -542 -337 -15 -10 -40 -40 -55 -68
-24 -43 -27 -60 -26 -125 1 -41 2 -133 2 -204 0 -103 5 -145 22 -203 13 -44
19 -77 13 -83 -5 -5 -868 -527 -1919 -1162 -1178 -710 -1920 -1152 -1935
-1152 -16 0 -984 590 -2629 1603 -1432 881 -2609 1605 -2615 1607 -6 2 -23
-17 -37 -43 l-27 -47 2469 -1519 c1358 -836 2468 -1521 2467 -1522 -2 -2 -66
12 -143 30 l-140 34 -1448 891 c-797 490 -1456 897 -1464 905 -8 8 -19 15 -24
15 -5 0 -379 228 -831 506 -616 379 -823 502 -830 492 -35 -53 -50 -80 -47
-83 3 -2 301 -186 664 -409 362 -223 653 -406 647 -406 -7 0 -54 11 -105 24
-50 14 -270 70 -487 125 -217 56 -560 143 -761 195 l-367 93 -35 -136 c-19
-75 -112 -440 -207 -811 -95 -371 -208 -812 -251 -979 -43 -168 -76 -309 -73
-313 3 -4 14 -8 24 -8 10 0 22 -5 25 -11 4 -5 -5 -60 -20 -120 -15 -60 -26
-111 -24 -113 2 -1 477 -107 1054 -235 578 -128 1057 -235 1065 -238 8 -3
-385 -63 -875 -134 -490 -70 -927 -134 -972 -143 -247 -45 -407 -236 -335
-399 19 -43 20 -50 6 -82 -21 -50 -18 -138 6 -185 59 -116 182 -176 355 -174
77 1 2056 279 2340 328 203 35 336 135 366 274 7 31 13 58 14 59 1 2 390 67
1535 254 305 50 617 101 693 113 76 13 134 20 130 15 -4 -4 -445 -271 -979
-593 l-971 -585 -38 19 c-70 36 -140 44 -227 27 -42 -8 -101 -26 -130 -40 -58
-26 -1965 -1125 -2065 -1189 -107 -69 -174 -157 -200 -265 -15 -61 -15 -71 0
-132 13 -50 15 -74 7 -101 -28 -96 0 -204 68 -260 78 -64 216 -80 343 -41 69
22 95 37 1424 802 654 376 726 420 788 481 88 87 121 156 122 253 0 39 -2 79
-5 90 -4 16 191 138 1374 852 759 457 1382 830 1385 829 7 -4 2765 -1698 2769
-1702 2 -1 -2 -27 -8 -56 -24 -105 30 -232 141 -332 36 -32 398 -251 1064
-642 555 -327 1027 -603 1050 -614 192 -93 409 -47 473 100 19 44 18 146 -1
193 -14 31 -14 40 0 79 40 114 -30 278 -161 376 -62 47 -2024 1203 -2099 1238
-110 50 -245 56 -341 14 l-48 -20 -917 563 c-504 310 -925 569 -936 575 -41
23 -92 35 965 -218 256 -61 539 -129 630 -151 91 -21 302 -71 469 -111 l303
-73 4 -45 c12 -130 138 -257 303 -306 40 -11 350 -80 1521 -335 151 -33 388
-85 525 -115 138 -30 280 -58 317 -61 164 -14 315 56 369 172 23 50 24 130 3
181 -13 30 -14 45 -6 69 45 126 2 238 -126 334 -29 22 -78 49 -110 61 -31 12
-280 71 -552 130 -272 60 -785 173 -1140 250 -697 153 -768 164 -878 136 -62
-16 -164 -74 -180 -102 -8 -15 3 -17 -892 197 -91 21 -230 55 -310 74 -80 19
-381 91 -670 160 -289 69 -538 129 -553 132 -15 3 -26 7 -25 9 2 1 158 28 348
59 312 51 573 94 1650 270 772 126 884 144 886 142 1 -1 12 -49 24 -107 85
-396 224 -719 365 -849 37 -34 51 -41 73 -37 15 3 502 76 1082 161 580 86
1056 157 1057 159 2 1 -6 51 -17 111 -24 130 -24 135 -5 135 8 0 15 6 15 13 0
8 -31 186 -69 398 -38 211 -120 663 -181 1004 -172 958 -151 861 -180 857 -14
-2 -221 -38 -460 -81 -239 -43 -437 -77 -439 -75 -1 1 24 16 57 33 84 43 257
160 375 255 56 45 106 84 112 88 6 4 -6 23 -30 48 -33 34 -41 38 -56 27 -9 -6
-52 -41 -95 -76 -192 -156 -458 -310 -641 -371 -122 -40 -180 -51 -288 -51
-107 -1 -170 13 -249 54 -53 28 -176 137 -176 156 0 4 11 13 25 19 22 10 35 6
103 -27 106 -54 166 -66 302 -64 233 3 488 101 795 306 95 63 305 226 305 236
-1 3 -16 23 -35 44 l-34 39 -98 -78 c-391 -312 -751 -464 -1021 -432 -72 8
-164 38 -169 54 -2 5 234 152 525 327 290 175 533 321 541 326 11 7 8 18 -14
55 -15 26 -33 45 -39 43 -6 -3 -261 -156 -566 -340 l-555 -336 -32 32 c-18 17
-33 36 -33 42 0 7 279 180 620 385 341 205 620 377 620 382 0 10 -48 88 -55
88 -2 0 -283 -169 -625 -375 -342 -206 -623 -375 -626 -375 -10 0 -95 186 -92
202 3 16 106 81 895 567 l172 106 -26 45 c-14 25 -27 47 -29 48 -1 2 -236
-141 -522 -317 -286 -177 -523 -321 -526 -321 -12 0 -6 61 10 100 9 22 26 45
38 51 28 15 1028 630 1040 640 8 7 -43 100 -54 98 -3 0 -237 -144 -520 -319z
m-366 -1142 c-10 -16 -21 -7 -42 40 l-22 47 34 -40 c19 -21 32 -43 30 -47z
m-136 -24 c13 -26 22 -48 20 -49 -2 -1 -770 -465 -1708 -1031 l-1705 -1028
-134 -23 c-74 -12 -136 -21 -137 -20 -2 2 3628 2195 3637 2196 3 1 15 -20 27
-45z m125 -191 c68 -82 176 -156 272 -189 12 -4 -78 -25 -230 -53 l-250 -46
-28 -55 c-47 -96 -61 -189 -62 -440 -1 -223 7 -466 20 -558 l6 -47 -263 -42
c-271 -44 -350 -57 -1303 -213 -308 -50 -737 -121 -954 -156 -217 -36 -398
-63 -403 -62 -8 3 3141 1908 3152 1907 3 0 22 -21 43 -46z m-6325 -978 c678
-417 1231 -760 1229 -762 -2 -2 -78 14 -168 36 -252 61 -1385 331 -1914 457
-198 47 -377 90 -398 95 -31 8 -36 13 -32 32 15 70 36 207 45 307 10 107 6
521 -6 578 -3 13 -1 22 3 19 4 -2 563 -345 1241 -762z m-958 -359 c173 -41
524 -125 780 -186 256 -61 539 -129 630 -151 91 -21 316 -75 500 -119 184 -44
393 -94 464 -111 143 -34 146 -35 282 -118 l95 -59 -51 -11 c-45 -10 -66 -7
-198 24 -162 38 -259 62 -942 225 -256 61 -604 144 -775 185 -170 41 -490 117
-710 170 -220 53 -413 99 -428 102 -31 6 -31 2 -6 96 8 29 14 37 27 33 9 -3
159 -39 332 -80z m-183 -205 c114 -28 417 -100 673 -161 256 -61 605 -144 775
-185 171 -41 481 -115 689 -165 208 -49 381 -90 384 -90 3 0 3 -2 1 -4 -4 -4
-146 -28 -1234 -206 -302 -49 -690 -113 -861 -141 l-312 -51 -35 39 c-39 43
-119 87 -188 102 -74 17 -177 12 -394 -19 -114 -16 -212 -30 -219 -30 -6 0 6
11 27 25 143 98 321 439 442 848 15 48 30 87 35 87 4 0 102 -22 217 -49z
m7220 -23 c5 -35 9 -64 8 -65 -1 -2 -246 -43 -1375 -228 -1401 -229 -1747
-285 -1776 -285 -18 0 -74 9 -124 21 -101 23 -100 20 -10 72 39 22 112 36 510
101 256 42 713 116 1015 166 303 50 660 108 795 130 135 22 391 64 570 94 179
30 337 55 352 55 25 1 27 -2 35 -61z m-4087 -479 c11 -6 8 -8 -11 -9 -14 0
-34 7 -45 15 -18 14 -17 15 11 9 17 -4 37 -10 45 -15z m321 -110 l51 -32 -48
-28 c-52 -30 -58 -29 -123 20 l-23 18 43 26 c24 14 45 26 46 27 2 0 26 -14 54
-31z m309 -39 c12 -8 11 -10 -7 -10 -12 0 -25 5 -28 10 -8 13 15 13 35 0z
m-800 -60 c0 -3 -40 -28 -88 -56 l-87 -51 -445 -72 c-408 -67 -990 -162 -1878
-307 -189 -31 -345 -54 -348 -51 -3 3 2 19 10 36 9 16 16 46 16 66 0 19 2 35
4 35 2 0 221 36 487 79 266 44 736 121 1044 171 308 50 668 109 800 131 132
22 263 43 290 47 47 7 195 -14 195 -28z m1581 -126 c266 -63 635 -151 819
-195 773 -185 974 -233 1150 -275 102 -25 200 -48 218 -51 29 -5 32 -9 32 -44
0 -21 5 -50 10 -65 6 -15 8 -29 6 -31 -3 -3 -150 30 -328 72 -178 43 -404 97
-503 120 -99 24 -322 77 -495 119 -461 110 -1222 292 -1315 314 -59 14 -102
33 -160 70 -87 56 -89 51 20 71 28 5 53 9 56 10 3 0 224 -51 490 -115z m-1398
79 c-7 -2 -19 -2 -25 0 -7 3 -2 5 12 5 14 0 19 -2 13 -5z m-143 -186 c-58 -35
-606 -366 -1219 -736 -761 -459 -1116 -668 -1122 -660 -11 19 -20 92 -12 99 4
4 496 301 1093 661 l1085 654 120 21 c66 12 129 22 140 23 11 1 -27 -28 -85
-62z m873 18 l144 -35 1079 -664 c673 -415 1078 -670 1076 -678 -2 -7 -7 -30
-10 -51 l-7 -37 -1219 750 c-670 412 -1216 750 -1213 750 2 0 70 -16 150 -35z"/>
</g>
</svg>
