<?xml version="1.0" standalone="no"?>
<!DOCTYPE svg PUBLIC "-//W3C//DTD SVG 20010904//EN"
 "http://www.w3.org/TR/2001/REC-SVG-20010904/DTD/svg10.dtd">
<svg version="1.0" xmlns="http://www.w3.org/2000/svg"
 width="748.000000pt" height="1280.000000pt" viewBox="0 0 748.000000 1280.000000"
 preserveAspectRatio="xMidYMid meet">
<metadata>
Created by potrace 1.15, written by Peter Selinger 2001-2017
</metadata>
<g transform="translate(0.000000,1280.000000) scale(0.100000,-0.100000)"
fill="#000000" stroke="none">
<path d="M2705 12794 c-542 -33 -794 -61 -1135 -130 -439 -88 -882 -232 -1135
-369 -351 -191 -495 -422 -409 -660 229 -640 394 -1409 464 -2164 37 -399 45
-691 32 -1242 -54 -2267 -38 -2788 98 -3324 107 -420 265 -665 582 -897 226
-167 554 -328 863 -425 60 -19 116 -36 123 -38 9 -4 8 -15 -8 -45 -12 -23 -23
-69 -27 -104 -12 -128 51 -255 172 -349 l54 -42 -68 -65 c-149 -142 -175 -272
-90 -443 38 -75 88 -129 168 -183 58 -39 62 -43 40 -48 -13 -3 -67 -15 -119
-26 -585 -127 -954 -289 -1202 -528 -140 -135 -189 -253 -187 -458 0 -60 4
-127 8 -149 8 -38 9 -37 11 25 1 46 4 59 10 45 5 -11 9 -33 9 -48 2 -78 93
-228 204 -334 253 -243 749 -455 1262 -539 565 -93 1261 -79 1770 37 361 82
695 216 931 375 159 107 277 234 337 364 27 58 30 79 35 185 4 114 3 125 -25
206 -55 158 -149 270 -368 432 -153 114 -308 195 -505 262 -233 80 -610 174
-699 175 l-36 1 35 27 c125 95 191 213 191 341 0 54 -6 76 -35 135 -19 39 -63
102 -98 140 l-62 69 22 17 c62 50 82 70 125 123 55 68 77 133 77 234 0 62 -5
83 -31 136 -17 34 -36 65 -43 69 -7 5 -6 9 4 12 8 3 65 22 125 42 227 76 479
197 669 321 366 239 533 473 656 916 l35 129 55 23 c30 12 149 62 264 109 355
147 561 244 671 317 507 335 800 995 920 2069 100 898 -32 1785 -362 2445
-205 410 -461 635 -778 686 -94 15 -346 15 -425 1 -30 -5 -56 -9 -57 -8 -3 3
49 219 91 381 67 252 127 438 174 540 46 98 47 102 47 200 0 91 -3 106 -31
165 -106 223 -372 393 -874 560 -463 154 -897 238 -1475 285 -178 15 -903 28
-1050 19z m1002 -78 c686 -57 1233 -186 1634 -386 220 -110 361 -229 421 -356
29 -61 33 -78 33 -154 -1 -72 -5 -94 -29 -143 -35 -74 -126 -171 -216 -232
l-68 -47 -29 20 c-43 30 -249 137 -338 175 -203 87 -321 115 -525 128 -179 11
-243 20 -357 55 -240 72 -427 203 -628 439 -190 224 -354 323 -558 340 -73 6
-231 -15 -249 -33 -6 -6 12 -22 47 -41 31 -17 58 -38 61 -45 22 -56 -181 -237
-505 -451 -257 -169 -420 -253 -592 -304 -120 -36 -123 -37 -110 -12 23 43
-33 42 -164 -4 -73 -25 -107 -42 -128 -65 -15 -17 -25 -35 -22 -40 3 -4 -28
-21 -67 -36 -153 -57 -247 -98 -362 -157 l-118 -61 -95 48 c-183 94 -305 202
-366 325 -28 57 -32 76 -32 146 0 74 3 88 39 159 68 139 199 246 440 362 427
204 1080 341 1827 384 214 12 837 4 1056 -14z m-3358 -1441 c46 -30 124 -75
173 -100 63 -33 86 -50 80 -58 -5 -7 -31 -39 -57 -72 -27 -33 -69 -104 -95
-157 l-46 -97 -23 97 c-19 76 -82 306 -117 425 -3 9 -4 17 -1 17 2 0 41 -25
86 -55z m5485 -90 l-38 -136 -12 46 c-6 25 -25 65 -41 88 l-30 41 76 51 c42
28 78 50 80 48 2 -1 -14 -63 -35 -138z m-72 -267 c-7 -7 -12 -8 -12 -2 0 14
12 26 19 19 2 -3 -1 -11 -7 -17z m229 -1721 c104 -50 172 -124 239 -260 107
-218 150 -475 151 -892 0 -305 -26 -545 -96 -892 -59 -287 -92 -369 -186 -462
-90 -89 -271 -161 -405 -161 l-51 0 -7 371 c-4 205 -11 494 -16 643 -12 327
-12 1301 -1 1514 4 84 12 157 17 161 15 15 62 19 174 17 98 -2 110 -5 181 -39z
m-2051 -5702 c21 -42 25 -64 25 -140 0 -83 -3 -96 -37 -167 -50 -106 -110
-167 -211 -217 -45 -22 -108 -46 -140 -55 -75 -19 -85 -28 -21 -19 27 5 81 8
119 8 58 -1 79 -5 124 -30 100 -55 150 -151 136 -262 -12 -100 -108 -255 -190
-309 -21 -14 -40 -15 -112 -9 l-87 7 69 43 c148 93 216 190 217 309 1 52 -3
72 -25 108 -14 25 -38 53 -52 62 -26 17 -30 16 -116 -10 -72 -22 -89 -31 -84
-43 17 -43 35 -130 41 -195 8 -89 -8 -169 -44 -227 l-28 -43 -244 2 c-135 2
-301 -2 -370 -7 -186 -15 -319 -21 -282 -13 l33 7 -80 53 c-81 53 -134 108
-166 172 -10 19 -26 46 -36 59 -43 54 -8 163 73 232 28 23 76 53 107 66 l56
24 -48 -6 c-160 -21 -257 -149 -226 -297 24 -114 111 -239 206 -295 24 -14 42
-28 39 -30 -2 -3 -30 12 -61 32 -91 61 -162 162 -191 275 -20 78 -9 145 35
211 68 101 173 132 354 104 17 -3 26 -1 22 5 -3 6 6 11 22 11 l28 1 -30 9
c-33 9 8 6 165 -11 167 -19 398 -8 566 25 93 19 274 76 274 86 0 5 -25 16 -55
25 -30 10 -55 20 -55 23 1 3 24 22 53 42 141 98 182 285 84 383 l-25 24 57 15
c31 9 63 15 71 14 8 -1 26 -24 40 -52z m-1534 -8 c3 -3 -4 -22 -15 -43 -25
-46 -27 -101 -6 -131 19 -27 78 -47 111 -39 46 12 68 114 39 187 -5 13 2 14
52 8 32 -4 210 -8 396 -8 l337 -1 0 28 1 27 17 -28 c17 -28 18 -29 82 -23 36
4 86 9 111 12 l46 6 14 -53 c17 -65 19 -313 3 -329 -7 -7 -45 -4 -130 11 -95
17 -159 22 -319 22 -255 0 -371 -18 -620 -97 -16 -5 -16 -4 2 5 22 12 22 12
-22 62 -24 28 -61 84 -81 124 -21 41 -44 79 -51 85 -19 15 -16 88 6 130 21 42
19 48 -19 48 -25 0 -28 -4 -34 -46 -21 -155 17 -297 103 -381 15 -15 55 -41
87 -58 32 -16 60 -33 62 -37 2 -4 10 -4 19 -1 12 5 14 3 8 -7 -6 -10 -2 -11
21 -6 23 5 26 4 14 -5 -12 -8 -8 -9 15 -5 23 5 27 4 15 -5 -12 -8 -9 -9 13 -4
19 4 26 2 22 -5 -3 -5 2 -10 11 -10 10 0 15 -3 11 -6 -10 -10 -117 26 -198 67
-59 29 -88 52 -123 94 -69 85 -90 149 -91 275 0 58 3 117 7 131 7 25 11 26 44
19 19 -5 38 -10 40 -13z"/>
<path d="M2425 2773 c-27 -27 -55 -94 -55 -135 0 -28 7 -42 31 -62 88 -74 156
-27 145 99 -4 35 -14 70 -25 85 -23 31 -71 38 -96 13z"/>
<path d="M5492 1040 c0 -14 2 -19 5 -12 2 6 2 18 0 25 -3 6 -5 1 -5 -13z"/>
<path d="M5219 713 c-13 -16 -12 -17 4 -4 16 13 21 21 13 21 -2 0 -10 -8 -17
-17z"/>
<path d="M5359 693 c-13 -16 -12 -17 4 -4 16 13 21 21 13 21 -2 0 -10 -8 -17
-17z"/>
<path d="M1095 680 c10 -11 20 -20 23 -20 3 0 -3 9 -13 20 -10 11 -20 20 -23
20 -3 0 3 -9 13 -20z"/>
<path d="M5294 618 l-19 -23 23 19 c12 11 22 21 22 23 0 8 -8 2 -26 -19z"/>
<path d="M1205 570 c10 -11 20 -20 23 -20 3 0 -3 9 -13 20 -10 11 -20 20 -23
20 -3 0 3 -9 13 -20z"/>
<path d="M5219 553 c-13 -16 -12 -17 4 -4 9 7 17 15 17 17 0 8 -8 3 -21 -13z"/>
<path d="M1250 536 c0 -2 8 -10 18 -17 15 -13 16 -12 3 4 -13 16 -21 21 -21
13z"/>
<path d="M2418 73 c7 -3 16 -2 19 1 4 3 -2 6 -13 5 -11 0 -14 -3 -6 -6z"/>
<path d="M2538 53 c7 -3 16 -2 19 1 4 3 -2 6 -13 5 -11 0 -14 -3 -6 -6z"/>
<path d="M3898 53 c7 -3 16 -2 19 1 4 3 -2 6 -13 5 -11 0 -14 -3 -6 -6z"/>
<path d="M2708 33 c7 -3 16 -2 19 1 4 3 -2 6 -13 5 -11 0 -14 -3 -6 -6z"/>
<path d="M3728 33 c6 -2 18 -2 25 0 6 3 1 5 -13 5 -14 0 -19 -2 -12 -5z"/>
<path d="M2833 23 c9 -2 25 -2 35 0 9 3 1 5 -18 5 -19 0 -27 -2 -17 -5z"/>
<path d="M3593 23 c9 -2 23 -2 30 0 6 3 -1 5 -18 5 -16 0 -22 -2 -12 -5z"/>
<path d="M2963 13 c9 -2 25 -2 35 0 9 3 1 5 -18 5 -19 0 -27 -2 -17 -5z"/>
<path d="M3453 13 c9 -2 25 -2 35 0 9 3 1 5 -18 5 -19 0 -27 -2 -17 -5z"/>
</g>
</svg>
