<?xml version="1.0" standalone="no"?>
<!DOCTYPE svg PUBLIC "-//W3C//DTD SVG 20010904//EN"
 "http://www.w3.org/TR/2001/REC-SVG-20010904/DTD/svg10.dtd">
<svg version="1.0" xmlns="http://www.w3.org/2000/svg"
 width="1280.000000pt" height="1004.000000pt" viewBox="0 0 1280.000000 1004.000000"
 preserveAspectRatio="xMidYMid meet">
<metadata>
Created by potrace 1.15, written by Peter Selinger 2001-2017
</metadata>
<g transform="translate(0.000000,1004.000000) scale(0.100000,-0.100000)"
fill="#000000" stroke="none">
<path d="M8161 10025 c-181 -41 -341 -167 -428 -338 -58 -115 -77 -274 -49
-407 l14 -65 -58 -160 c-148 -412 -193 -625 -193 -915 0 -199 15 -305 67 -456
l24 -72 -23 -83 c-13 -46 -31 -122 -40 -169 -14 -71 -26 -99 -72 -170 -115
-178 -200 -391 -244 -606 -41 -209 -37 -500 11 -706 9 -43 13 -79 8 -80 -5 -2
88 -260 207 -573 119 -314 340 -894 490 -1290 150 -396 416 -1096 590 -1555
175 -459 418 -1100 540 -1423 123 -324 235 -606 249 -628 31 -46 114 -96 176
-105 101 -15 211 33 262 116 15 25 117 281 227 570 188 498 345 910 1051 2770
166 437 414 1091 551 1453 138 361 248 661 245 666 -3 5 6 46 20 92 138 459
71 970 -182 1391 l-35 57 21 81 c78 304 11 726 -174 1106 -457 938 -1439 1437
-2468 1253 l-117 -21 -75 78 c-84 89 -151 134 -258 171 -92 31 -242 40 -337
18z"/>
<path d="M3295 10024 c-168 -39 -226 -63 -345 -142 -105 -69 -301 -263 -395
-389 -67 -91 -69 -93 -109 -93 -68 0 -206 -38 -291 -80 -246 -122 -489 -420
-565 -692 -27 -98 -27 -218 0 -299 12 -34 20 -62 18 -64 -2 -1 -37 -12 -78
-25 -143 -42 -232 -101 -290 -191 -108 -168 -87 -454 51 -686 40 -66 129 -166
170 -190 l29 -17 -90 -43 c-116 -56 -187 -124 -235 -225 -42 -88 -68 -202 -59
-258 6 -40 5 -41 -60 -101 -166 -152 -188 -346 -73 -634 24 -60 30 -85 21 -87
-8 -2 36 -130 136 -393 81 -214 346 -912 588 -1550 242 -638 630 -1659 862
-2270 232 -611 432 -1137 443 -1169 29 -77 91 -147 159 -176 42 -18 65 -21
118 -18 107 8 187 64 229 158 11 25 155 403 321 840 299 787 559 1473 1093
2880 227 598 509 1341 622 1637 13 34 22 63 20 65 -3 2 14 26 37 54 101 121
185 272 226 405 65 211 42 369 -66 460 l-38 31 24 48 c12 25 32 89 42 141 17
82 19 107 10 191 -32 293 -193 516 -412 572 l-53 13 -7 59 c-24 213 -152 358
-410 463 l-91 37 -48 93 c-54 105 -91 212 -143 413 -58 223 -103 326 -223 508
-137 208 -362 445 -525 553 -102 68 -229 128 -318 152 -63 16 -255 29 -295 19z"/>
</g>
</svg>
