<?xml version="1.0" standalone="no"?>
<!DOCTYPE svg PUBLIC "-//W3C//DTD SVG 20010904//EN"
 "http://www.w3.org/TR/2001/REC-SVG-20010904/DTD/svg10.dtd">
<svg version="1.0" xmlns="http://www.w3.org/2000/svg"
 width="1280.000000pt" height="933.000000pt" viewBox="0 0 1280.000000 933.000000"
 preserveAspectRatio="xMidYMid meet">
<metadata>
Created by potrace 1.15, written by Peter Selinger 2001-2017
</metadata>
<g transform="translate(0.000000,933.000000) scale(0.100000,-0.100000)"
fill="#000000" stroke="none">
<path d="M3260 9184 c-267 -79 -502 -149 -522 -154 -44 -12 -117 -101 -263
-319 -203 -304 -292 -533 -283 -725 4 -82 9 -103 55 -211 111 -262 300 -789
669 -1864 52 -151 94 -276 94 -278 0 -9 43 -1 81 16 24 11 89 29 144 40 138
27 394 56 404 45 4 -5 40 -101 79 -214 39 -113 114 -331 167 -485 53 -154 139
-401 190 -550 51 -148 157 -454 234 -680 78 -225 146 -420 151 -433 6 -13 10
-24 10 -26 0 -1 -348 0 -772 2 -1343 8 -1705 -23 -1923 -163 -144 -92 -188
-197 -189 -452 l0 -151 -37 42 c-47 53 -135 101 -235 126 -225 58 -641 39
-902 -41 -546 -168 -547 -512 -2 -684 168 -52 302 -69 550 -70 235 0 313 9
420 48 74 27 152 80 181 122 13 19 27 35 32 35 4 0 7 -18 7 -40 0 -53 26 -179
51 -246 45 -119 155 -226 294 -287 118 -51 281 -85 520 -109 149 -15 1791 -16
2332 -1 274 7 314 6 319 -7 6 -15 97 -278 270 -779 89 -260 100 -285 128 -302
48 -29 137 -25 249 11 52 16 99 30 106 30 6 0 11 -17 11 -40 l0 -40 58 6 57 7
-33 -35 c-42 -44 -57 -97 -42 -143 14 -43 87 -110 148 -136 205 -89 509 -47
616 85 26 31 31 47 31 89 0 63 -27 106 -93 147 l-45 28 113 7 c94 7 113 11
117 25 4 16 9 16 61 3 89 -21 219 -21 264 1 53 26 58 40 242 701 l102 370 420
2 c1199 6 2407 45 2684 89 222 34 392 105 477 198 92 100 123 198 123 389 l0
110 31 -62 c71 -142 247 -211 539 -211 477 0 932 161 1026 365 41 87 28 157
-45 237 -63 68 -138 113 -259 154 -321 110 -848 110 -1088 0 -96 -44 -163
-111 -192 -191 -8 -23 -11 9 -11 147 -1 270 -31 377 -138 489 -62 65 -142 109
-260 141 -70 19 -103 22 -313 22 -129 0 -352 -5 -495 -12 -267 -12 -1127 -36
-1682 -47 -252 -4 -312 -3 -308 7 2 7 29 101 60 208 346 1200 642 2071 839
2470 78 158 127 223 209 283 477 345 715 581 962 957 163 246 252 419 296 575
30 103 37 308 15 408 -36 160 -106 286 -226 407 -170 171 -393 287 -690 360
-669 163 -1232 -95 -1434 -658 -55 -154 -70 -258 -70 -482 2 -457 109 -923
304 -1323 l50 -104 -159 -519 c-227 -743 -376 -1230 -600 -1959 l-197 -640
-258 -3 -259 -2 8 585 7 585 -22 0 c-16 0 -20 5 -16 18 32 102 119 568 216
1152 l70 425 146 345 c378 896 545 1315 583 1465 170 677 -215 1119 -1085
1244 -334 48 -787 53 -1069 11 -567 -84 -932 -305 -1119 -677 -102 -203 -133
-512 -70 -700 23 -69 102 -215 312 -573 354 -604 501 -870 615 -1110 153 -320
206 -505 327 -1138 53 -277 99 -424 144 -461 26 -22 18 -31 -28 -31 l-44 0 9
-37 c8 -34 24 -511 32 -930 l3 -163 -261 1 c-143 0 -278 3 -299 7 l-40 7 -67
205 c-37 113 -154 468 -259 790 -207 632 -319 972 -458 1395 l-88 270 125 26
c230 48 342 87 394 136 33 32 34 51 5 106 -21 42 -139 342 -228 582 -111 300
-197 535 -282 770 -232 645 -582 1625 -601 1683 -6 19 -17 32 -26 31 -9 0
-234 -65 -501 -145z m3320 -79 c645 -73 1018 -264 1171 -601 46 -101 62 -184
62 -319 -1 -264 -18 -314 -563 -1620 -199 -477 -209 -505 -225 -610 -59 -395
-194 -1154 -240 -1357 -14 -59 -25 -109 -25 -112 0 -2 -36 -6 -80 -8 -44 -2
-80 -2 -80 -1 0 2 22 24 49 50 84 82 101 158 121 528 10 182 20 302 36 440 3
28 17 93 29 145 13 52 45 192 70 310 62 291 146 534 295 860 179 393 223 502
278 700 53 190 66 287 66 485 -1 160 -4 191 -27 277 -51 192 -136 337 -273
468 -190 181 -433 292 -774 351 -106 19 -332 16 -475 -5 -274 -42 -585 -142
-773 -248 -285 -163 -459 -377 -519 -640 -23 -104 -21 -296 5 -418 58 -268
153 -467 413 -865 220 -339 348 -571 468 -852 66 -157 100 -258 166 -493 55
-200 74 -299 115 -585 36 -255 55 -333 108 -445 l38 -80 -27 0 c-15 0 -42 12
-59 26 -65 55 -103 169 -165 499 -74 394 -112 557 -171 740 -96 296 -277 648
-724 1410 -279 474 -353 618 -370 713 -17 96 -8 324 18 417 137 506 606 799
1367 855 151 12 532 3 695 -15z m-70 -64 c36 -7 106 -23 155 -37 392 -108 665
-332 776 -635 79 -216 86 -450 22 -739 -45 -208 -105 -374 -233 -650 -85 -182
-128 -280 -182 -410 -21 -52 -36 -80 -34 -62 3 17 21 130 40 250 19 119 44
291 56 382 11 91 34 212 50 270 72 264 95 430 87 648 -5 155 -18 230 -87 484
-12 41 -55 98 -74 98 -7 0 -35 28 -62 61 -141 176 -405 313 -652 338 -140 14
-376 -11 -567 -61 -44 -11 -94 -20 -111 -19 -17 1 -42 -7 -55 -17 -13 -11 -67
-38 -120 -61 -257 -112 -459 -300 -539 -501 -40 -98 -51 -153 -57 -277 -16
-332 115 -681 437 -1163 102 -153 103 -155 135 -310 15 -74 42 -200 61 -280
19 -80 36 -156 39 -170 3 -14 -34 54 -83 150 -110 219 -197 366 -376 640 -301
460 -415 764 -403 1075 7 186 52 315 162 466 151 204 460 381 835 476 304 76
553 94 780 54z m-306 -78 c-75 -76 -135 -445 -180 -1118 l-7 -100 -28 175
c-56 354 -149 772 -199 900 -11 28 -18 55 -15 60 7 11 176 66 245 79 30 6 64
13 75 15 11 2 44 4 73 5 50 1 52 0 36 -16z m181 3 c33 -8 82 -24 108 -35 l49
-21 -44 -33 c-24 -18 -57 -56 -74 -85 l-31 -51 -22 83 c-12 46 -33 99 -47 119
-28 42 -26 43 61 23z m293 -57 c106 -49 198 -114 279 -198 64 -66 75 -87 49
-97 -8 -3 -27 -23 -42 -45 l-27 -39 -45 80 c-80 142 -170 237 -297 316 -77 47
-35 39 83 -17z m-389 -72 c11 -34 27 -99 36 -144 16 -80 16 -85 -4 -145 -109
-335 -178 -908 -183 -1503 0 -132 -3 -224 -5 -205 -2 19 -15 134 -30 255 -22
194 -25 242 -19 410 21 625 81 1175 147 1351 11 30 24 52 29 49 5 -3 18 -33
29 -68z m-689 20 c0 -7 -19 -24 -42 -37 -23 -13 -77 -52 -120 -87 -43 -34 -84
-63 -92 -63 -17 0 -52 -40 -61 -70 -4 -14 -23 -46 -41 -71 -44 -61 -100 -179
-119 -254 -61 -238 0 -515 173 -780 l46 -70 46 -257 c25 -142 45 -258 43 -258
-1 0 -33 46 -69 103 -207 318 -329 583 -381 827 -24 116 -24 330 1 419 69 250
230 426 517 566 51 25 94 45 96 45 2 0 3 -6 3 -13z m159 -187 c95 -334 245
-1237 239 -1442 l-3 -93 -19 75 c-63 250 -200 699 -277 907 l-49 131 0 209 c0
219 13 372 33 385 16 10 38 -40 76 -172z m858 138 c49 -54 94 -182 128 -364
31 -167 40 -279 27 -324 -75 -260 -100 -350 -141 -518 -27 -108 -61 -255 -76
-327 -15 -71 -30 -139 -34 -150 -4 -11 -11 106 -14 260 -10 409 -34 775 -73
1092 l-17 132 37 78 c61 129 117 170 163 121z m-1038 -123 c-4 -55 -8 -134 -9
-175 l-1 -75 -36 68 c-20 37 -54 88 -76 113 -22 26 -36 49 -31 54 17 15 158
119 160 117 1 -1 -2 -47 -7 -102z m1236 -32 c20 -28 48 -80 64 -114 32 -66 32
-60 -11 -157 l-24 -54 -28 143 c-15 78 -36 165 -46 193 -10 28 -21 60 -25 71
-6 16 -3 15 14 -5 12 -14 37 -48 56 -77z m-1381 -130 c40 -63 67 -115 118
-233 13 -30 21 -75 24 -135 20 -437 44 -778 78 -1115 8 -79 14 -146 13 -147
-2 -1 -27 53 -56 120 -29 67 -81 174 -116 238 l-64 116 -26 174 c-65 442 -91
821 -66 964 7 38 15 73 17 77 13 21 38 2 78 -59z m1676 -119 c23 -207 -5 -753
-60 -1144 -14 -95 -54 -199 -195 -502 -25 -56 -42 -77 -31 -40 9 30 35 291 46
467 10 154 14 180 46 269 118 334 142 635 73 904 l-19 75 26 46 c15 25 36 57
48 69 l21 24 17 -40 c10 -21 22 -79 28 -128z m-1854 4 c-11 -109 25 -560 64
-803 6 -33 10 -64 10 -70 0 -16 -27 28 -73 121 -115 230 -142 459 -77 650 20
58 71 164 78 164 3 0 2 -28 -2 -62z m1128 -163 c30 -322 46 -661 52 -1095 l7
-435 -42 -260 c-23 -143 -47 -303 -55 -355 -12 -88 -14 -93 -24 -66 -20 46
-60 260 -76 401 -63 541 -30 1298 80 1830 27 131 34 158 39 153 2 -2 10 -79
19 -173z m590 -200 c1 -225 -9 -298 -65 -475 l-24 -75 -6 285 c-3 157 -9 303
-13 325 -7 40 12 108 61 222 l17 38 14 -55 c11 -40 15 -114 16 -265z m232 -95
c-4 -85 -13 -189 -21 -230 l-14 -75 5 75 c2 41 7 163 11 270 5 151 9 186 16
155 5 -22 6 -110 3 -195z m-1401 -405 c35 -121 92 -326 125 -455 69 -266 65
-226 75 -818 3 -177 12 -436 20 -574 15 -242 15 -316 1 -206 -22 166 -140 696
-207 927 -17 57 -37 153 -45 213 -38 289 -97 960 -108 1233 l-6 130 40 -115
c23 -63 70 -214 105 -335z m1002 5 c-3 -230 -7 -282 -21 -315 -72 -169 -201
-742 -261 -1155 -9 -63 -19 -117 -22 -120 -3 -3 -3 31 1 75 3 44 8 215 11 380
5 260 10 318 31 440 52 288 128 621 231 1017 l18 68 8 -58 c5 -31 6 -181 4
-332z m-1308 -398 c48 -95 117 -258 160 -374 28 -76 61 -265 61 -343 0 -11
-25 27 -56 85 -31 58 -68 126 -84 151 -22 36 -36 87 -65 235 -59 306 -63 324
-59 324 2 0 21 -35 43 -78z m1287 -114 c-4 -29 -13 -116 -22 -193 -27 -251
-61 -424 -119 -607 -30 -95 -62 -199 -71 -231 -9 -32 -18 -56 -20 -54 -6 6 38
284 82 517 48 253 137 620 150 620 3 0 3 -24 0 -52z m208 -188 c-122 -751
-262 -1384 -396 -1790 l-32 -95 -7 40 c-23 129 -32 345 -20 498 17 226 36 328
76 401 58 105 132 346 165 536 15 83 20 96 128 330 49 107 92 204 96 214 15
43 12 3 -10 -134z m-1324 -439 c46 -93 75 -163 80 -200 5 -31 26 -164 46 -296
19 -132 47 -296 60 -364 13 -69 22 -126 21 -128 -4 -3 -70 229 -127 447 -34
128 -67 268 -164 684 -9 38 14 -1 84 -143z m420 -3 c28 -130 58 -598 65 -1012
5 -330 -3 -345 -29 -51 -24 272 -56 906 -56 1096 0 34 8 20 20 -33z m-237
-283 l6 -30 -14 30 c-8 17 -14 39 -14 50 l0 20 8 -20 c4 -11 11 -33 14 -50z
m572 -234 c-5 -36 -9 -41 -19 -30 -10 11 -10 39 3 144 l16 130 3 -100 c2 -55
0 -120 -3 -144z m-155 67 c12 -35 26 -67 31 -72 10 -12 11 -113 1 -139 -5 -10
-17 34 -31 115 -13 73 -26 138 -28 145 -3 7 -3 13 0 13 2 0 14 -28 27 -62z
m-357 -193 c35 -148 54 -263 61 -365 7 -114 -3 -72 -54 222 -22 128 -43 244
-45 258 -4 18 -3 21 4 10 5 -8 20 -64 34 -125z m502 -63 c-2 -31 -12 -156 -21
-276 -19 -234 -29 -253 -40 -73 -4 67 0 153 10 251 9 82 16 155 16 163 0 11 4
11 20 3 17 -9 19 -18 15 -68z m-163 -180 c16 -104 16 -141 6 -332 -8 -167 -8
-248 2 -360 13 -154 14 -179 6 -187 -11 -11 -24 9 -42 64 -22 69 -23 106 -6
238 9 68 12 198 10 402 -2 166 -1 299 2 297 2 -3 12 -58 22 -122z m244 -180
c0 -162 5 -257 17 -331 9 -58 17 -116 17 -131 0 -27 -105 -250 -118 -250 -17
0 -5 255 21 455 36 276 57 451 57 470 0 8 1 15 3 15 1 0 2 -102 3 -228z m229
-322 c-8 -129 -19 -262 -25 -295 -12 -61 -48 -146 -65 -152 -6 -1 -11 18 -13
45 -1 26 -9 81 -17 122 -15 74 -15 77 9 136 30 75 116 348 116 371 0 9 2 14 5
12 2 -3 -2 -110 -10 -239z m-665 36 c11 -65 19 -121 17 -123 -10 -9 -47 158
-46 208 1 68 3 61 29 -85z m-89 -176 c5 -51 -3 -183 -11 -170 -7 13 -33 173
-55 340 -3 19 11 -8 30 -60 19 -52 35 -102 36 -110z m135 -308 c46 -90 42 -96
-34 -50 -55 33 -62 52 -61 158 l0 95 27 -60 c14 -33 45 -97 68 -143z m468 106
c9 -83 7 -145 -6 -156 -18 -14 -116 -42 -150 -42 -42 0 -35 20 30 87 31 32 68
83 81 111 14 29 28 52 31 52 4 0 10 -24 14 -52z m-304 -141 c0 -18 -32 -19
-45 -1 -22 29 -18 33 15 21 17 -6 30 -15 30 -20z m46 -42 c-4 -16 -14 -25 -26
-25 -18 0 -18 1 3 34 23 35 33 31 23 -9z m-446 -3022 c0 -22 -2 -25 -10 -13
-13 20 -13 40 0 40 6 0 10 -12 10 -27z m661 -1107 c77 -31 113 -59 133 -101
54 -114 -114 -219 -350 -218 -150 0 -261 37 -322 108 -56 63 -36 130 56 187
31 20 60 25 187 34 221 16 234 16 296 -10z"/>
<path d="M6173 325 c-131 -65 -92 -195 67 -225 124 -23 250 36 252 119 3 109
-187 171 -319 106z m198 -26 c136 -46 82 -159 -77 -159 -152 0 -210 109 -84
159 34 13 120 13 161 0z"/>
</g>
</svg>
