<?xml version="1.0" standalone="no"?>
<!DOCTYPE svg PUBLIC "-//W3C//DTD SVG 20010904//EN"
 "http://www.w3.org/TR/2001/REC-SVG-20010904/DTD/svg10.dtd">
<svg version="1.0" xmlns="http://www.w3.org/2000/svg"
 width="640.000000pt" height="1280.000000pt" viewBox="0 0 640.000000 1280.000000"
 preserveAspectRatio="xMidYMid meet">
<metadata>
Created by potrace 1.15, written by Peter Selinger 2001-2017
</metadata>
<g transform="translate(0.000000,1280.000000) scale(0.100000,-0.100000)"
fill="#000000" stroke="none">
<path d="M2825 12789 c-720 -59 -1401 -377 -1925 -899 -284 -282 -496 -589
-645 -933 -292 -674 -320 -1410 -80 -2072 213 -588 552 -1034 1040 -1367 314
-215 656 -363 985 -427 93 -18 245 -41 271 -41 5 0 9 -1365 9 -3525 l0 -3525
245 0 245 0 0 2918 0 2919 143 17 c348 43 649 119 972 248 772 307 1489 948
1868 1669 175 334 277 602 341 900 124 573 111 1117 -39 1659 -161 582 -481
1114 -931 1550 -673 652 -1585 984 -2499 909z m495 -1514 c249 -34 480 -125
730 -290 293 -193 552 -517 690 -864 172 -434 173 -954 3 -1381 -133 -337
-271 -542 -531 -791 -312 -301 -704 -501 -1133 -579 l-97 -17 -7 421 c-4 232
-5 437 -4 456 l4 35 120 42 c342 119 555 289 732 583 49 80 84 168 114 285 20
76 23 115 23 250 0 143 -3 170 -27 258 -49 178 -121 308 -244 438 -81 85 -133
124 -244 181 -148 76 -213 92 -369 93 -103 0 -149 -5 -195 -19 -206 -63 -388
-225 -455 -404 -62 -166 -33 -356 74 -479 47 -54 159 -110 247 -125 l66 -10 6
-172 c9 -214 9 -584 1 -613 -6 -22 -10 -23 -136 -23 -78 0 -159 6 -206 16
-101 20 -267 91 -383 162 -173 106 -349 309 -449 517 -101 209 -125 323 -124
575 1 275 20 342 184 671 76 151 168 271 287 377 239 211 556 363 848 407 121
17 346 18 475 0z"/>
</g>
</svg>
