<?xml version="1.0" standalone="no"?>
<!DOCTYPE svg PUBLIC "-//W3C//DTD SVG 20010904//EN"
 "http://www.w3.org/TR/2001/REC-SVG-20010904/DTD/svg10.dtd">
<svg version="1.0" xmlns="http://www.w3.org/2000/svg"
 width="1014.000000pt" height="1280.000000pt" viewBox="0 0 1014.000000 1280.000000"
 preserveAspectRatio="xMidYMid meet">
<metadata>
Created by potrace 1.15, written by Peter Selinger 2001-2017
</metadata>
<g transform="translate(0.000000,1280.000000) scale(0.100000,-0.100000)"
fill="#000000" stroke="none">
<path d="M5505 12724 c-180 -147 -242 -220 -462 -544 -257 -378 -443 -609
-664 -825 -215 -209 -397 -354 -699 -555 -266 -176 -302 -201 -415 -286 -478
-356 -780 -757 -935 -1241 -53 -164 -85 -330 -106 -546 -4 -45 -10 -67 -18
-64 -6 3 -52 23 -101 46 l-91 40 -199 10 c-110 6 -229 15 -264 21 -88 15 -198
17 -211 4 -7 -7 -3 -30 15 -77 33 -90 34 -175 2 -211 -12 -14 -91 -57 -175
-96 -296 -136 -401 -194 -496 -274 -47 -39 -32 -54 143 -147 165 -87 227 -171
200 -271 -14 -54 -47 -88 -198 -203 -230 -175 -425 -366 -471 -461 -24 -49
-22 -102 5 -124 8 -7 81 -19 162 -26 128 -12 326 -46 417 -72 l29 -8 -54 -39
c-259 -188 -494 -433 -605 -630 -43 -79 -99 -232 -109 -300 -4 -28 -12 -57
-17 -65 -7 -11 -8 -8 -5 13 5 34 -12 35 -49 3 -24 -20 -27 -30 -26 -72 2 -47
0 -50 -38 -77 -49 -35 -59 -67 -37 -127 16 -43 15 -47 -3 -83 -27 -52 -25
-107 6 -169 14 -28 45 -101 69 -162 44 -113 648 -1685 770 -2006 37 -96 77
-202 90 -235 97 -248 185 -497 325 -925 229 -699 334 -1004 381 -1104 11 -25
34 -56 50 -69 75 -58 93 -71 146 -103 31 -19 65 -34 74 -34 10 0 39 -18 64
-40 54 -47 102 -73 165 -90 27 -7 62 -28 88 -52 53 -49 115 -75 206 -89 39 -6
80 -16 91 -22 11 -6 45 -24 75 -41 45 -25 69 -31 140 -34 63 -3 97 -11 131
-28 63 -32 119 -44 214 -48 62 -2 94 -9 145 -32 62 -28 71 -29 220 -29 119 -1
166 -5 202 -18 79 -28 158 -36 244 -26 43 6 84 15 91 20 9 8 31 2 77 -21 100
-50 189 -59 317 -33 l104 20 94 -28 c146 -45 307 -37 419 20 38 19 38 19 87
-4 121 -55 286 -59 429 -11 63 22 85 25 110 17 17 -6 68 -15 113 -22 103 -15
194 -1 272 41 53 30 54 30 100 14 69 -23 200 -21 286 6 59 19 95 23 225 24
148 1 158 2 220 30 51 23 83 30 145 32 96 4 151 16 216 49 37 19 64 25 113 25
73 0 139 19 200 58 24 15 71 30 118 38 98 17 175 51 221 98 21 20 51 39 69 43
53 10 112 41 167 88 29 25 60 45 69 45 25 0 93 36 147 79 28 22 63 50 78 62
15 11 37 40 49 63 31 60 179 489 329 950 197 606 233 708 409 1166 26 69 164
427 305 795 600 1563 588 1533 614 1549 22 14 22 76 0 127 -20 46 -21 56 -11
95 20 74 16 89 -33 130 -44 36 -46 38 -39 80 5 38 3 46 -20 67 -15 14 -35 27
-46 30 -17 4 -18 1 -14 -27 4 -21 2 -26 -4 -16 -5 8 -12 35 -15 60 -9 68 -60
211 -107 298 -64 119 -145 225 -262 346 l-108 111 50 112 c89 201 123 360 136
633 8 171 -6 334 -42 499 -117 528 -430 952 -907 1230 -261 152 -725 301 -937
301 l-59 0 -6 38 c-69 432 -363 886 -860 1328 -49 44 -171 147 -270 230 -270
223 -527 480 -673 672 -52 68 -140 246 -176 357 -66 197 -102 406 -112 643 -4
83 -10 152 -13 152 -3 0 -42 -30 -86 -66z m-5328 -7126 c-3 -8 -6 -5 -6 6 -1
11 2 17 5 13 3 -3 4 -12 1 -19z m9790 0 c-3 -8 -6 -5 -6 6 -1 11 2 17 5 13 3
-3 4 -12 1 -19z m-17 -215 c0 -5 -5 -15 -10 -23 -8 -12 -10 -11 -10 8 0 12 5
22 10 22 6 0 10 -3 10 -7z"/>
</g>
</svg>
