<?xml version="1.0" standalone="no"?>
<!DOCTYPE svg PUBLIC "-//W3C//DTD SVG 20010904//EN"
 "http://www.w3.org/TR/2001/REC-SVG-20010904/DTD/svg10.dtd">
<svg version="1.0" xmlns="http://www.w3.org/2000/svg"
 width="1280.000000pt" height="848.000000pt" viewBox="0 0 1280.000000 848.000000"
 preserveAspectRatio="xMidYMid meet">
<metadata>
Created by potrace 1.15, written by Peter Selinger 2001-2017
</metadata>
<g transform="translate(0.000000,848.000000) scale(0.100000,-0.100000)"
fill="#000000" stroke="none">
<path d="M5370 8474 c-258 -30 -447 -68 -875 -175 -409 -102 -792 -251 -1305
-509 -1159 -583 -1635 -918 -1927 -1355 -22 -33 -84 -132 -138 -220 -131 -213
-190 -296 -369 -514 -357 -436 -412 -532 -574 -1011 -50 -146 -102 -291 -116
-324 -39 -87 -66 -183 -66 -230 1 -62 20 -103 92 -197 49 -65 69 -100 77 -138
15 -71 14 -83 -15 -260 -43 -259 -25 -328 130 -505 101 -114 127 -151 185
-261 81 -153 159 -204 406 -270 77 -20 221 -61 320 -90 381 -113 536 -148
1065 -235 168 -28 438 -77 600 -110 678 -136 656 -134 1385 -135 584 -1 772
-8 797 -33 4 -4 12 -78 17 -164 7 -124 13 -164 28 -189 24 -43 61 -54 106 -35
56 23 69 60 79 220 4 77 10 141 11 143 5 4 527 -81 829 -137 376 -68 937 -182
1378 -280 165 -36 1584 -337 1845 -390 216 -45 252 -55 272 -76 46 -50 148
-71 184 -38 15 14 62 6 540 -91 577 -117 1839 -369 1906 -380 24 -4 46 -11 49
-16 3 -5 20 -70 39 -143 51 -206 114 -304 210 -322 84 -15 172 95 231 293 23
76 27 108 28 228 1 160 -14 247 -71 415 -94 276 -275 562 -510 811 -61 63 -91
85 -185 135 -152 79 -237 164 -326 320 -84 151 -120 232 -149 339 -13 50 -34
106 -47 125 -28 43 -107 87 -226 125 -118 38 -198 82 -230 127 -33 46 -68 129
-110 265 -41 133 -81 199 -144 238 l-49 30 -203 5 c-184 5 -204 7 -224 25 -18
16 -217 245 -542 622 -29 34 -200 230 -379 435 l-325 373 -67 137 c-85 172
-144 252 -264 353 -139 117 -198 186 -293 345 -141 235 -182 276 -382 387
l-107 60 -204 236 c-136 157 -209 248 -217 274 -36 110 -90 177 -177 215 -43
19 -72 47 -173 163 -67 77 -133 164 -148 194 -30 60 -139 182 -201 225 -49 34
-217 228 -305 354 -111 157 -174 232 -295 352 -159 157 -240 202 -446 245 -77
16 -345 28 -425 19z"/>
</g>
</svg>
