<?xml version="1.0" standalone="no"?>
<!DOCTYPE svg PUBLIC "-//W3C//DTD SVG 20010904//EN"
 "http://www.w3.org/TR/2001/REC-SVG-20010904/DTD/svg10.dtd">
<svg version="1.0" xmlns="http://www.w3.org/2000/svg"
 width="640.000000pt" height="1280.000000pt" viewBox="0 0 640.000000 1280.000000"
 preserveAspectRatio="xMidYMid meet">
<metadata>
Created by potrace 1.15, written by Peter Selinger 2001-2017
</metadata>
<g transform="translate(0.000000,1280.000000) scale(0.100000,-0.100000)"
fill="#000000" stroke="none">
<path d="M2643 12794 c3 -3 57 -16 119 -29 234 -49 402 -110 512 -189 81 -58
122 -105 160 -186 28 -59 31 -74 31 -165 0 -93 -2 -105 -33 -167 -79 -162
-264 -285 -584 -392 -75 -25 -165 -59 -199 -76 -189 -96 -259 -271 -178 -446
33 -70 148 -182 234 -226 84 -43 102 -49 318 -93 191 -40 260 -63 335 -113 85
-55 140 -154 157 -278 15 -112 -40 -261 -122 -333 -25 -23 -125 -81 -223 -131
-98 -50 -200 -108 -228 -130 -182 -145 -273 -435 -213 -672 20 -76 68 -185 77
-175 3 3 -2 19 -11 37 -9 17 -23 62 -31 98 -42 203 15 421 149 568 70 76 135
117 287 179 155 63 224 101 284 156 204 187 209 546 11 744 -90 90 -197 135
-433 185 -81 17 -168 37 -193 45 -201 58 -332 226 -273 351 35 73 105 115 314
189 285 100 477 229 582 389 125 192 97 448 -66 612 -126 125 -322 200 -611
234 -167 19 -178 20 -172 14z"/>
<path d="M1180 8310 l0 -380 -400 0 -400 0 0 -475 0 -475 190 0 c189 0 190 0
194 -22 3 -13 59 -628 125 -1368 114 -1268 128 -1428 151 -1675 5 -55 14 -154
20 -220 6 -66 15 -165 20 -220 5 -55 14 -152 20 -215 5 -63 19 -207 30 -320
11 -113 74 -810 140 -1550 67 -740 123 -1355 126 -1367 l4 -23 1815 0 c998 0
1815 1 1815 3 0 3 204 2243 329 3617 28 300 107 1173 176 1940 69 767 128
1401 130 1408 3 9 48 12 180 12 l175 0 0 475 0 475 -400 0 -400 0 0 380 0 380
-2020 0 -2020 0 0 -380z"/>
</g>
</svg>
