<?xml version="1.0" standalone="no"?>
<!DOCTYPE svg PUBLIC "-//W3C//DTD SVG 20010904//EN"
 "http://www.w3.org/TR/2001/REC-SVG-20010904/DTD/svg10.dtd">
<svg version="1.0" xmlns="http://www.w3.org/2000/svg"
 width="1280.000000pt" height="1036.000000pt" viewBox="0 0 1280.000000 1036.000000"
 preserveAspectRatio="xMidYMid meet">
<metadata>
Created by potrace 1.15, written by Peter Selinger 2001-2017
</metadata>
<g transform="translate(0.000000,1036.000000) scale(0.100000,-0.100000)"
fill="#000000" stroke="none">
<path d="M8708 10313 c-19 -26 -570 -806 -1223 -1733 -653 -927 -1198 -1699
-1210 -1716 -22 -29 -25 -30 -79 -24 -30 3 -63 14 -74 23 -10 9 -24 17 -31 17
-20 0 -122 54 -189 99 -47 33 -67 54 -82 89 -11 25 -47 74 -80 108 -33 34 -60
67 -60 73 0 6 -13 17 -29 26 -16 8 -32 24 -36 35 -4 12 -32 33 -65 50 -32 16
-61 34 -65 40 -11 17 -127 73 -175 83 -51 12 -314 12 -405 2 -33 -4 -69 -13
-80 -21 -10 -8 -31 -14 -45 -14 -14 0 -40 -9 -58 -20 -18 -11 -41 -20 -52 -20
-11 0 -43 -11 -72 -24 -29 -13 -61 -26 -70 -30 -10 -3 -18 -12 -18 -21 0 -17
-16 -20 -25 -5 -4 6 -10 8 -15 5 -4 -3 -13 2 -20 10 -7 8 -18 15 -26 15 -7 0
-30 11 -50 25 -20 14 -47 25 -60 25 -13 0 -39 9 -59 20 -32 18 -54 20 -240 20
-112 0 -214 -4 -227 -9 -13 -5 -49 -17 -80 -26 -32 -9 -68 -25 -82 -36 -13
-10 -36 -19 -50 -19 -16 0 -31 -9 -43 -27 -10 -14 -62 -72 -116 -129 -64 -67
-99 -112 -103 -133 -11 -52 -76 -91 -155 -91 -20 0 -42 -7 -49 -15 -8 -10 -31
-15 -66 -15 -29 0 -56 -4 -59 -10 -3 -5 -44 -10 -90 -10 -46 0 -87 -4 -90 -10
-4 -6 -117 -10 -306 -10 l-300 0 -49 -25 c-27 -14 -59 -25 -70 -25 -11 0 -39
-12 -63 -27 -51 -32 -157 -133 -157 -149 0 -15 -29 -72 -41 -79 -5 -4 -9 -24
-9 -45 0 -21 -4 -42 -10 -45 -6 -3 -10 -50 -10 -105 l0 -98 -32 -7 c-80 -18
-573 -188 -606 -210 -20 -13 -56 -31 -80 -39 -80 -28 -280 -154 -352 -222 -31
-28 -70 -55 -87 -58 -27 -6 -84 -60 -236 -224 -7 -7 -29 -27 -50 -44 -24 -19
-53 -61 -77 -107 -21 -42 -47 -85 -59 -95 -12 -11 -21 -30 -21 -43 0 -15 -8
-27 -23 -34 -27 -12 -86 -124 -99 -186 -4 -24 -12 -62 -16 -86 -5 -23 -12 -49
-17 -57 -37 -58 -35 -500 2 -590 19 -46 33 -96 33 -119 0 -12 11 -44 25 -71
14 -27 25 -60 25 -73 0 -31 19 -88 36 -108 8 -8 14 -32 14 -53 0 -22 14 -64
35 -106 19 -38 35 -81 35 -95 0 -14 11 -48 25 -75 14 -27 25 -60 25 -73 0 -13
11 -41 26 -62 42 -63 134 -253 134 -279 0 -13 6 -29 14 -35 8 -7 17 -24 21
-39 3 -15 14 -38 23 -52 18 -27 78 -133 137 -244 20 -38 51 -91 68 -117 18
-26 44 -67 58 -91 67 -111 94 -148 111 -154 10 -3 26 -20 34 -37 9 -18 29 -50
44 -72 15 -22 43 -65 63 -95 19 -30 56 -75 82 -100 26 -25 67 -76 93 -115 37
-57 133 -168 217 -254 7 -7 27 -27 44 -45 17 -17 41 -41 54 -54 21 -21 30 -30
67 -67 33 -33 117 -102 142 -118 14 -9 29 -25 33 -36 3 -11 15 -23 26 -26 11
-4 40 -24 65 -46 25 -21 49 -39 53 -39 4 0 13 -11 19 -25 6 -13 33 -35 59 -49
26 -13 57 -34 68 -46 11 -12 45 -35 75 -50 30 -16 80 -54 110 -85 42 -44 82
-70 174 -117 122 -61 156 -82 214 -131 18 -15 45 -27 60 -27 15 0 50 -13 77
-28 l50 -27 5 -199 5 -199 30 -19 c17 -10 37 -20 45 -23 23 -9 101 -45 132
-61 14 -8 40 -14 56 -14 17 0 34 -4 37 -10 3 -5 14 -10 24 -10 10 0 39 -11 65
-25 30 -16 63 -25 91 -25 24 0 47 -4 50 -10 3 -5 19 -10 34 -10 15 0 32 -5 39
-12 19 -19 84 -38 135 -38 27 0 58 -5 70 -12 12 -6 37 -11 55 -9 17 1 42 -4
55 -11 21 -12 77 -19 267 -36 47 -4 92 -11 100 -17 47 -32 1073 -32 1120 0 8
6 49 13 90 17 114 11 183 23 209 37 13 7 36 11 52 9 17 -3 34 1 40 9 7 8 34
13 75 13 34 0 65 4 68 9 3 5 20 11 38 14 18 2 58 14 88 26 30 11 64 21 75 21
12 0 45 11 73 25 29 14 59 25 67 25 8 0 56 20 107 45 51 25 97 45 103 45 5 1
20 9 32 19 22 18 23 26 25 211 l3 192 65 25 c36 14 117 44 181 67 85 30 127
51 157 78 23 21 68 51 101 68 33 16 81 43 106 59 26 17 59 33 75 36 15 3 42
22 61 42 19 19 86 70 150 113 69 47 134 99 160 131 24 28 59 66 77 83 19 17
65 60 104 96 39 36 83 84 99 107 16 23 43 50 60 60 17 10 57 56 89 103 32 47
81 108 110 135 29 28 88 102 131 165 44 63 97 137 119 164 21 27 42 61 45 75
3 14 22 51 41 83 18 31 34 63 34 72 0 9 15 33 33 53 45 52 73 93 82 123 4 14
24 54 46 90 21 36 50 99 64 140 14 41 36 86 49 100 13 14 31 50 41 80 18 56
39 108 106 262 21 48 42 107 45 130 4 24 20 70 37 103 17 33 34 80 39 105 5
25 12 59 15 75 3 17 15 43 26 58 19 28 34 73 44 134 3 18 11 38 19 44 8 6 14
24 14 40 0 15 5 31 10 34 6 3 10 13 10 21 0 9 -5 12 -12 8 -8 -5 -9 0 -3 17 5
13 10 80 12 149 3 68 9 130 15 137 7 9 7 17 0 26 -6 7 -13 64 -16 127 -6 155
-15 217 -32 231 -8 6 -14 21 -14 33 0 12 -11 46 -25 74 -14 29 -25 58 -25 65
0 7 -5 18 -11 24 -6 6 -9 20 -7 32 3 22 -111 -43 2573 1471 715 403 1308 740
1318 749 16 13 18 27 14 96 -6 105 -15 142 -61 245 -31 71 -108 170 -132 170
-7 0 -25 10 -41 23 -15 13 -35 27 -43 30 -8 4 -29 16 -47 26 l-32 20 -1153
-675 c-634 -372 -1530 -896 -1991 -1166 l-838 -491 -69 64 c-95 88 -134 119
-199 156 -31 17 -82 46 -115 65 -32 18 -115 62 -185 98 -125 64 -126 66 -158
125 -41 78 -214 245 -299 288 -17 9 -34 14 -36 11 -3 -2 -11 2 -18 11 -7 9
-29 15 -51 15 -21 0 -41 5 -44 10 -3 6 -23 10 -44 10 -22 0 -44 6 -51 15 -7 8
-25 15 -41 15 -15 0 -31 5 -34 10 -3 6 -24 10 -45 10 -21 0 -42 5 -45 10 -3 6
-14 10 -24 10 -9 0 -23 6 -29 12 -7 7 -36 20 -64 29 -29 9 -53 20 -55 25 -1 5
553 781 1232 1724 1138 1580 1235 1718 1235 1754 0 32 -12 58 -62 133 -58 87
-68 97 -126 124 -35 17 -77 43 -95 59 -34 30 -69 37 -213 46 l-81 5 -35 -48z"/>
</g>
</svg>
