<?xml version="1.0" standalone="no"?>
<!DOCTYPE svg PUBLIC "-//W3C//DTD SVG 20010904//EN"
 "http://www.w3.org/TR/2001/REC-SVG-20010904/DTD/svg10.dtd">
<svg version="1.0" xmlns="http://www.w3.org/2000/svg"
 width="1280.000000pt" height="1102.000000pt" viewBox="0 0 1280.000000 1102.000000"
 preserveAspectRatio="xMidYMid meet">
<metadata>
Created by potrace 1.15, written by Peter Selinger 2001-2017
</metadata>
<g transform="translate(0.000000,1102.000000) scale(0.100000,-0.100000)"
fill="#000000" stroke="none">
<path d="M370 11013 c-63 -23 -93 -49 -196 -169 -141 -165 -161 -194 -170
-251 -14 -92 -8 -99 304 -407 666 -656 1103 -1037 1637 -1431 88 -65 164 -121
169 -125 4 -5 -38 -65 -95 -134 -57 -69 -127 -164 -155 -211 -153 -251 -194
-503 -106 -633 16 -24 390 -346 897 -773 895 -753 1135 -957 1135 -965 0 -3
-4 -2 -10 1 -13 8 -13 -41 1 -107 23 -105 86 -200 209 -314 53 -48 138 -121
605 -514 115 -96 286 -240 380 -320 95 -80 266 -224 380 -320 115 -96 286
-240 380 -320 95 -80 266 -224 380 -320 115 -96 286 -240 380 -320 95 -80 266
-224 380 -320 115 -96 287 -242 384 -323 97 -82 225 -190 285 -240 60 -51 144
-121 186 -157 528 -447 575 -482 699 -520 90 -28 232 -26 214 2 -3 6 19 -8 48
-30 78 -59 120 -74 205 -73 207 1 433 143 673 422 l117 135 135 -128 c703
-672 1169 -1062 1729 -1448 90 -62 207 -149 258 -192 51 -44 105 -84 120 -90
45 -17 120 -11 165 14 44 24 250 253 291 323 56 94 42 173 -43 255 -31 30
-187 183 -347 340 -541 535 -925 866 -1556 1341 l-246 186 40 49 c148 184 240
371 268 547 16 95 7 171 -28 239 -25 49 -293 277 -3502 2980 -1911 1610 -3495
2938 -3520 2950 -119 59 -302 18 -496 -112 -43 -29 -132 -106 -198 -172 l-118
-118 -177 168 c-530 504 -1005 895 -1686 1387 -82 59 -173 128 -201 151 -75
64 -147 88 -204 67z"/>
</g>
</svg>
