<?xml version="1.0" standalone="no"?>
<!DOCTYPE svg PUBLIC "-//W3C//DTD SVG 20010904//EN"
 "http://www.w3.org/TR/2001/REC-SVG-20010904/DTD/svg10.dtd">
<svg version="1.0" xmlns="http://www.w3.org/2000/svg"
 width="1280.000000pt" height="734.000000pt" viewBox="0 0 1280.000000 734.000000"
 preserveAspectRatio="xMidYMid meet">
<metadata>
Created by potrace 1.15, written by Peter Selinger 2001-2017
</metadata>
<g transform="translate(0.000000,734.000000) scale(0.100000,-0.100000)"
fill="#000000" stroke="none">
<path d="M5794 6934 c-213 -36 -439 -140 -596 -275 -67 -58 -85 -64 -38 -11
19 20 -3 1 -48 -43 -77 -75 -132 -142 -185 -224 -14 -24 -17 -32 -7 -27 8 4 6
0 -4 -8 -11 -9 -17 -16 -13 -16 4 0 -11 -35 -33 -77 -150 -294 -157 -606 -24
-1001 98 -291 269 -609 591 -1096 83 -127 151 -231 150 -232 -5 -4 -402 60
-535 86 -173 34 -438 99 -555 135 -88 28 -87 28 -87 17 0 -4 9 -8 19 -9 11 -1
59 -15 108 -32 48 -16 147 -46 218 -65 72 -19 124 -35 116 -35 -18 -1 -342 83
-401 104 -23 8 -48 15 -54 15 -18 0 -55 -155 -67 -280 -8 -78 -8 -146 0 -238
10 -122 44 -315 61 -341 5 -10 113 4 441 58 239 38 477 75 529 82 95 12 324
18 333 9 3 -3 1 -41 -3 -85 -8 -72 -20 -225 -49 -626 -25 -331 -56 -1775 -44
-2022 l6 -127 373 0 374 0 0 268 c0 245 -21 1117 -35 1462 -18 448 -56 1064
-68 1122 -3 18 76 21 276 9 327 -19 579 -57 846 -126 74 -19 139 -31 143 -27
14 14 55 143 69 214 17 82 16 345 0 428 -15 76 -69 250 -78 250 -3 0 -83 -20
-177 -45 -396 -103 -569 -144 -706 -168 -202 -35 -243 -40 -234 -24 4 6 68
100 142 207 333 485 470 744 542 1025 43 170 55 278 54 510 0 225 -11 314 -60
482 -32 113 -99 257 -115 247 -8 -4 -9 -3 -5 5 7 11 -66 121 -80 121 -3 0 9
-19 27 -42 40 -53 53 -75 19 -34 -14 17 -42 49 -62 72 -44 48 -50 68 -10 33
27 -24 27 -23 -2 8 -16 18 -32 31 -35 28 -4 -2 -36 21 -71 52 -284 242 -621
344 -956 287z m-725 -394 c-34 -38 -64 -70 -67 -70 -6 0 22 33 82 98 63 67 54
49 -15 -28z m-69 -84 c0 -2 -8 -10 -17 -17 -16 -13 -17 -12 -4 4 13 16 21 21
21 13z m2529 -2310 c-7 -7 -442 -117 -446 -113 -2 3 49 18 114 35 65 17 159
42 208 55 85 23 134 32 124 23z m-462 -122 c-3 -3 -12 -4 -19 -1 -8 3 -5 6 6
6 11 1 17 -2 13 -5z m-2150 -10 c-3 -3 -12 -4 -19 -1 -8 3 -5 6 6 6 11 1 17
-2 13 -5z m2098 -4 c-11 -5 -29 -8 -40 -8 -16 0 -15 2 5 8 34 11 60 11 35 0z
m-2052 -7 c-7 -2 -19 -2 -25 0 -7 3 -2 5 12 5 14 0 19 -2 13 -5z m44 -9 c-3
-3 -12 -4 -19 -1 -8 3 -5 6 6 6 11 1 17 -2 13 -5z m1928 -4 c-11 -5 -29 -8
-40 -8 -16 0 -15 2 5 8 34 11 60 11 35 0z m-1872 -7 c-7 -2 -21 -2 -30 0 -10
3 -4 5 12 5 17 0 24 -2 18 -5z m44 -9 c-3 -3 -12 -4 -19 -1 -8 3 -5 6 6 6 11
1 17 -2 13 -5z m1760 0 c-3 -3 -12 -4 -19 -1 -8 3 -5 6 6 6 11 1 17 -2 13 -5z
m-1704 -11 c-7 -2 -19 -2 -25 0 -7 3 -2 5 12 5 14 0 19 -2 13 -5z m1660 0 c-7
-2 -19 -2 -25 0 -7 3 -2 5 12 5 14 0 19 -2 13 -5z m-46 -9 c-3 -3 -12 -4 -19
-1 -8 3 -5 6 6 6 11 1 17 -2 13 -5z m-44 -11 c-7 -2 -19 -2 -25 0 -7 3 -2 5
12 5 14 0 19 -2 13 -5z m-1406 -9 c-3 -3 -12 -4 -19 -1 -8 3 -5 6 6 6 11 1 17
-2 13 -5z m1360 0 c-3 -3 -12 -4 -19 -1 -8 3 -5 6 6 6 11 1 17 -2 13 -5z m-64
-11 c-7 -2 -19 -2 -25 0 -7 3 -2 5 12 5 14 0 19 -2 13 -5z m-1156 -9 c-3 -3
-12 -4 -19 -1 -8 3 -5 6 6 6 11 1 17 -2 13 -5z m1106 -1 c-7 -2 -19 -2 -25 0
-7 3 -2 5 12 5 14 0 19 -2 13 -5z m-70 -10 c-7 -2 -19 -2 -25 0 -7 3 -2 5 12
5 14 0 19 -2 13 -5z m-896 -9 c-3 -3 -12 -4 -19 -1 -8 3 -5 6 6 6 11 1 17 -2
13 -5z m806 -1 c-7 -2 -19 -2 -25 0 -7 3 -2 5 12 5 14 0 19 -2 13 -5z"/>
<path d="M5219 6703 c-13 -16 -12 -17 4 -4 9 7 17 15 17 17 0 8 -8 3 -21 -13z"/>
</g>
</svg>
