<?xml version="1.0" standalone="no"?>
<!DOCTYPE svg PUBLIC "-//W3C//DTD SVG 20010904//EN"
 "http://www.w3.org/TR/2001/REC-SVG-20010904/DTD/svg10.dtd">
<svg version="1.0" xmlns="http://www.w3.org/2000/svg"
 width="1280.000000pt" height="1098.000000pt" viewBox="0 0 1280.000000 1098.000000"
 preserveAspectRatio="xMidYMid meet">
<metadata>
Created by potrace 1.15, written by Peter Selinger 2001-2017
</metadata>
<g transform="translate(0.000000,1098.000000) scale(0.100000,-0.100000)"
fill="#000000" stroke="none">
<path d="M3165 10913 c-223 -6 -410 -38 -770 -133 -16 -4 -64 -20 -105 -35
-41 -14 -87 -30 -101 -35 -15 -4 -44 -16 -65 -25 -22 -9 -48 -20 -59 -25 -41
-16 -258 -123 -318 -157 -34 -19 -76 -44 -94 -54 -65 -37 -284 -188 -303 -209
-3 -3 -39 -32 -80 -64 -106 -84 -352 -333 -444 -449 -84 -106 -247 -345 -285
-417 -105 -200 -134 -263 -221 -485 -27 -69 -82 -262 -102 -360 -54 -269 -62
-348 -62 -650 0 -272 8 -370 43 -555 5 -25 14 -70 20 -100 18 -96 90 -343 120
-415 5 -11 26 -63 47 -115 35 -87 150 -324 192 -395 10 -16 31 -52 46 -80 16
-27 35 -57 42 -65 7 -9 48 -83 90 -165 213 -413 430 -685 809 -1011 79 -68
508 -449 760 -675 133 -119 544 -485 645 -574 31 -27 139 -124 240 -215 101
-91 204 -183 229 -205 87 -75 406 -359 596 -530 287 -257 451 -403 529 -471
39 -33 211 -186 382 -340 171 -153 382 -342 469 -419 87 -77 181 -161 209
-186 137 -124 338 -301 400 -352 122 -100 152 -95 150 26 0 57 3 74 19 90 13
13 17 26 12 40 -18 61 -57 242 -85 392 -20 110 -29 154 -45 235 -22 110 -45
233 -64 343 -18 102 -31 173 -46 252 -9 44 -20 107 -26 140 -5 33 -14 87 -20
120 -22 129 -22 170 0 212 25 50 80 99 145 129 l51 24 13 -38 c29 -79 46 -159
91 -439 6 -32 19 -110 30 -173 20 -113 33 -190 51 -300 5 -30 13 -84 19 -120
68 -419 95 -607 107 -748 5 -61 9 -72 24 -72 10 0 20 3 22 8 2 4 25 25 53 47
27 22 59 48 69 57 11 10 25 18 32 18 14 0 17 -11 39 -160 24 -160 44 -242 62
-262 36 -40 95 -13 213 96 64 59 39 36 475 430 49 45 114 104 145 132 119 110
527 481 574 524 28 24 107 96 176 160 69 63 145 133 170 154 45 39 186 167
549 500 237 216 443 403 532 482 93 84 730 665 819 749 42 38 98 90 125 114
28 25 153 137 278 250 126 113 279 245 340 294 226 181 332 279 464 429 414
471 662 1014 737 1617 30 237 17 704 -24 896 -11 51 -16 91 -44 335 -22 187
-38 285 -65 389 -6 20 -15 59 -21 86 -7 28 -15 61 -20 75 -29 94 -63 198 -70
215 -4 11 -19 49 -33 85 -45 117 -89 211 -185 390 -104 195 -342 511 -508 675
-124 122 -240 224 -355 312 -72 55 -294 203 -304 203 -3 0 -24 12 -46 26 -140
88 -456 224 -684 294 -64 19 -324 78 -392 89 -40 6 -106 17 -145 23 -102 17
-715 17 -828 0 -387 -59 -674 -141 -969 -278 -51 -24 -95 -44 -96 -44 -8 0
-227 -126 -300 -173 -300 -190 -661 -527 -841 -784 l-36 -52 23 -33 c13 -18
26 -35 29 -38 15 -13 155 -207 217 -300 94 -141 106 -166 108 -228 3 -59 23
-94 190 -322 103 -141 264 -375 271 -395 3 -7 -4 -22 -16 -33 -19 -18 -240
-132 -300 -155 -14 -5 -33 -13 -42 -18 -10 -5 -30 -9 -46 -9 -24 0 -36 11 -74
68 -68 100 -71 107 -49 126 9 9 23 16 29 16 7 0 12 4 12 8 0 4 38 28 85 52 47
24 85 50 85 58 0 12 -45 83 -77 122 -73 89 -623 887 -623 905 0 3 -16 29 -35
59 -19 30 -35 58 -35 62 0 8 -143 216 -184 267 -224 280 -439 483 -711 670
-259 177 -428 262 -810 407 -11 4 -40 13 -65 20 -25 7 -63 18 -85 25 -132 41
-368 87 -540 105 -99 10 -395 17 -550 13z m3253 -3512 c9 -5 28 -13 42 -19
131 -51 420 -212 420 -233 0 -4 -42 -29 -92 -55 -51 -25 -97 -50 -102 -55 -6
-5 -20 -9 -33 -9 -46 0 -354 151 -440 216 -17 13 -37 24 -43 24 -6 0 -10 8 -8
17 3 19 190 122 221 123 9 0 25 -4 35 -9z m375 -557 c31 -16 57 -34 57 -42 0
-33 -297 -245 -395 -282 -24 -9 -38 -5 -103 31 -42 23 -89 50 -106 60 l-30 18
38 36 c70 65 243 183 354 241 l44 22 41 -28 c23 -15 68 -41 100 -56z m-671
-959 c153 -72 358 -199 358 -221 0 -7 -31 -35 -69 -63 -38 -28 -74 -58 -81
-66 -14 -17 -42 -19 -68 -6 -9 5 -60 31 -112 56 -52 26 -107 56 -122 66 -14
10 -29 19 -33 19 -15 0 -135 93 -135 104 0 7 12 24 28 38 32 30 144 108 154
108 5 0 41 -16 80 -35z m517 -651 c61 -36 113 -69 116 -74 7 -11 -162 -93
-302 -146 -182 -69 -236 -77 -290 -44 -18 10 -63 36 -100 56 -81 44 -84 46
-75 60 7 12 127 70 215 105 55 22 268 94 302 102 11 3 21 5 21 6 1 0 52 -29
113 -65z m-536 -765 c93 -77 222 -213 247 -259 11 -20 8 -25 -23 -51 -43 -35
-51 -57 -37 -95 6 -16 128 -146 271 -289 142 -144 259 -266 259 -272 0 -9
-126 -76 -195 -103 -102 -40 -146 -55 -201 -70 l-65 -18 -96 94 -96 93 24 19
c36 28 241 107 357 138 22 6 -9 41 -220 244 -414 399 -540 528 -536 551 2 18
22 30 103 60 55 21 103 38 106 39 3 0 49 -36 102 -81z"/>
</g>
</svg>
