<?xml version="1.0" standalone="no"?>
<!DOCTYPE svg PUBLIC "-//W3C//DTD SVG 20010904//EN"
 "http://www.w3.org/TR/2001/REC-SVG-20010904/DTD/svg10.dtd">
<svg version="1.0" xmlns="http://www.w3.org/2000/svg"
 width="1280.000000pt" height="808.000000pt" viewBox="0 0 1280.000000 808.000000"
 preserveAspectRatio="xMidYMid meet">
<metadata>
Created by potrace 1.15, written by Peter Selinger 2001-2017
</metadata>
<g transform="translate(0.000000,808.000000) scale(0.100000,-0.100000)"
fill="#000000" stroke="none">
<path d="M9065 7753 c-270 -17 -591 -110 -872 -252 -449 -226 -855 -585 -1238
-1096 -206 -275 -385 -563 -601 -967 -49 -92 -92 -168 -96 -168 -4 0 -26 35
-49 78 -99 180 -281 481 -403 667 -698 1059 -1425 1598 -2275 1686 -131 13
-566 7 -696 -11 -439 -60 -877 -254 -1215 -538 -128 -108 -360 -345 -450 -462
-409 -529 -662 -1196 -749 -1976 -132 -1172 62 -2164 576 -2953 541 -830 1282
-1322 2143 -1422 120 -13 512 -7 650 11 686 89 1307 488 1899 1220 246 305
374 496 626 935 76 132 139 242 141 244 10 12 54 -48 142 -193 142 -235 411
-637 565 -842 367 -488 729 -830 1092 -1031 276 -153 602 -256 936 -298 161
-20 494 -20 663 0 800 94 1476 561 1948 1348 276 460 453 1012 528 1653 27
226 39 813 21 1064 -33 486 -167 1006 -371 1435 -338 715 -947 1354 -1564
1640 -192 89 -438 167 -625 200 -170 29 -508 42 -726 28z m823 -1454 c515 -57
944 -307 1269 -740 301 -400 428 -805 440 -1404 4 -218 2 -269 -16 -400 -39
-282 -105 -504 -220 -740 -108 -223 -208 -363 -385 -540 -172 -172 -281 -254
-468 -350 -301 -156 -527 -213 -929 -236 -566 -32 -1097 115 -1564 432 -200
135 -452 373 -617 579 -165 208 -408 581 -408 627 0 39 54 160 205 458 657
1297 1166 1915 1799 2184 154 65 359 117 536 134 81 8 268 6 358 -4z m-6188
-154 c295 -46 462 -101 738 -239 279 -139 431 -247 646 -456 259 -252 494
-555 632 -815 45 -83 46 -88 35 -127 -16 -51 -312 -646 -426 -853 -191 -348
-485 -801 -664 -1020 -302 -372 -566 -578 -946 -740 -221 -94 -399 -121 -761
-112 -235 5 -257 9 -474 78 -130 42 -355 155 -470 237 -115 81 -300 258 -385
367 -349 447 -514 1020 -476 1653 38 627 239 1096 637 1482 308 300 644 469
1066 539 172 29 182 29 478 26 186 -2 296 -8 370 -20z"/>
</g>
</svg>
