<?xml version="1.0" standalone="no"?>
<!DOCTYPE svg PUBLIC "-//W3C//DTD SVG 20010904//EN"
 "http://www.w3.org/TR/2001/REC-SVG-20010904/DTD/svg10.dtd">
<svg version="1.0" xmlns="http://www.w3.org/2000/svg"
 width="1280.000000pt" height="1026.000000pt" viewBox="0 0 1280.000000 1026.000000"
 preserveAspectRatio="xMidYMid meet">
<metadata>
Created by potrace 1.15, written by Peter Selinger 2001-2017
</metadata>
<g transform="translate(0.000000,1026.000000) scale(0.100000,-0.100000)"
fill="#000000" stroke="none">
<path d="M6073 10249 c-40 -5 -102 -15 -139 -24 -56 -13 -81 -13 -152 -4 -52
7 -160 9 -276 6 -199 -5 -310 -24 -459 -76 -52 -18 -82 -20 -260 -20 -227 1
-357 -14 -515 -60 -218 -64 -418 -170 -562 -299 l-55 -49 -90 -6 c-226 -15
-398 -127 -734 -477 -90 -94 -217 -216 -283 -272 -219 -184 -288 -271 -365
-457 -24 -58 -73 -167 -108 -241 -86 -181 -98 -220 -99 -315 -1 -69 3 -88 28
-137 l29 -57 -27 -61 c-96 -213 -25 -447 228 -756 14 -16 37 -69 51 -117 115
-398 459 -643 1076 -767 54 -10 57 -13 73 -54 9 -23 40 -69 69 -101 58 -66 76
-122 80 -250 2 -48 10 -84 25 -116 29 -60 136 -162 236 -225 43 -27 115 -77
161 -111 231 -173 456 -280 688 -328 282 -57 705 -42 1112 40 29 6 31 4 64
-64 70 -147 217 -331 335 -421 35 -26 67 -69 125 -165 169 -281 324 -571 460
-864 88 -188 228 -301 371 -301 225 1 248 88 115 436 -66 172 -89 243 -82 251
3 2 68 -9 144 -25 109 -24 172 -32 298 -36 88 -3 214 -8 280 -12 99 -5 141 -2
240 15 424 77 714 207 884 398 58 64 116 170 127 228 4 22 20 55 35 73 42 47
59 85 73 163 11 57 11 79 0 131 -7 35 -13 66 -14 71 0 4 30 7 68 7 82 0 233
24 327 51 347 102 581 387 670 816 33 157 45 305 45 545 0 565 -78 978 -225
1183 -28 39 -61 106 -85 170 -79 214 -169 349 -293 439 l-64 48 -7 61 c-16
152 -98 363 -189 483 -65 86 -185 197 -275 254 -117 75 -117 75 -130 117 -16
53 -59 118 -129 194 -32 35 -89 102 -125 150 -133 171 -308 310 -533 422 -161
80 -278 123 -480 178 -99 27 -225 67 -280 88 -190 75 -379 111 -586 111 -122
0 -129 1 -200 34 -217 99 -446 134 -696 105z"/>
<path d="M274 8372 c-56 -27 -101 -85 -124 -162 -21 -68 -58 -364 -84 -660
-49 -560 -78 -1840 -48 -2120 65 -606 212 -1286 404 -1869 101 -307 194 -482
376 -707 178 -222 384 -389 833 -675 155 -99 325 -209 377 -245 375 -263 642
-553 830 -904 67 -126 113 -233 207 -480 123 -326 190 -437 289 -484 101 -48
448 -79 635 -57 219 26 430 105 586 220 100 73 225 200 311 314 163 218 166
276 26 484 -174 259 -283 463 -332 623 -32 104 -48 193 -80 435 -59 447 -150
673 -344 852 -100 92 -203 152 -403 235 -484 201 -620 267 -816 398 -377 252
-658 527 -1007 985 -330 434 -503 594 -745 690 -94 38 -209 41 -271 8 -95 -51
-129 -132 -122 -292 4 -84 11 -125 36 -198 90 -265 273 -536 581 -857 128
-133 218 -236 207 -236 -4 0 -28 11 -54 24 -79 40 -205 140 -328 259 -280 270
-479 562 -571 836 -63 188 -57 371 18 496 118 198 130 258 104 514 -23 224
-25 554 -6 1036 13 352 6 609 -25 890 -26 242 -51 361 -89 442 -82 169 -249
261 -371 205z"/>
<path d="M12367 8375 c-90 -33 -171 -117 -222 -228 -45 -98 -88 -416 -105
-784 -8 -171 -7 -316 5 -673 17 -476 15 -612 -12 -898 -24 -247 -10 -312 106
-507 75 -125 81 -308 18 -496 -92 -274 -291 -566 -571 -836 -123 -119 -249
-219 -328 -259 -26 -13 -50 -24 -54 -24 -12 0 62 85 199 229 183 192 282 310
378 455 159 236 239 432 247 603 7 158 -29 246 -120 295 -62 33 -177 31 -272
-6 -236 -90 -417 -258 -746 -691 -349 -458 -630 -733 -1007 -985 -196 -131
-332 -197 -816 -398 -202 -84 -305 -144 -403 -236 -184 -170 -281 -400 -334
-783 -38 -278 -59 -396 -85 -488 -46 -158 -152 -361 -328 -624 -150 -225 -148
-277 17 -498 240 -320 527 -490 897 -534 187 -22 534 9 635 57 98 46 168 162
279 459 199 531 347 779 639 1070 190 190 331 295 785 584 449 286 655 453
833 675 178 221 274 399 371 691 233 701 398 1538 423 2137 6 155 -18 1159
-36 1498 -22 403 -78 929 -111 1031 -46 145 -157 210 -282 164z"/>
<path d="M975 7696 c-45 -20 -81 -68 -95 -124 -8 -37 -11 -295 -8 -1008 3
-936 3 -960 23 -999 15 -30 27 -41 47 -43 37 -4 85 22 103 58 12 23 242 992
334 1407 54 240 1 471 -139 613 -88 90 -195 128 -265 96z"/>
<path d="M11698 7695 c-129 -47 -242 -194 -283 -366 -21 -91 -19 -231 6 -342
92 -415 322 -1384 334 -1407 18 -36 66 -62 103 -58 20 2 32 13 47 43 20 39 20
63 23 1002 4 1057 5 1038 -55 1095 -51 48 -105 59 -175 33z"/>
<path d="M1611 7063 c-53 -26 -84 -88 -140 -276 -106 -359 -291 -1140 -291
-1229 0 -110 121 -246 194 -219 72 28 161 230 345 781 159 475 179 569 152
701 -24 115 -95 222 -164 248 -38 15 -56 14 -96 -6z"/>
<path d="M11090 7069 c-68 -28 -138 -136 -161 -248 -19 -91 -6 -209 40 -356
162 -526 340 -1003 402 -1079 56 -67 94 -67 167 -1 58 52 86 124 79 200 -21
215 -301 1307 -362 1411 -39 67 -107 97 -165 73z"/>
<path d="M1994 6371 c-53 -32 -92 -91 -180 -271 -157 -319 -235 -521 -268
-699 -29 -153 -18 -245 36 -307 27 -31 36 -35 72 -32 l40 3 66 120 c36 66 118
213 182 327 188 336 251 501 251 653 1 105 -34 174 -105 211 -36 19 -57 18
-94 -5z"/>
<path d="M10715 6378 c-75 -41 -109 -107 -108 -213 0 -177 59 -315 371 -870
56 -99 108 -192 116 -207 13 -23 22 -28 54 -28 72 0 122 82 122 201 0 124 -59
341 -150 553 -84 195 -219 461 -256 505 -55 64 -105 84 -149 59z"/>
</g>
</svg>
