<?xml version="1.0" standalone="no"?>
<!DOCTYPE svg PUBLIC "-//W3C//DTD SVG 20010904//EN"
 "http://www.w3.org/TR/2001/REC-SVG-20010904/DTD/svg10.dtd">
<svg version="1.0" xmlns="http://www.w3.org/2000/svg"
 width="668.000000pt" height="1280.000000pt" viewBox="0 0 668.000000 1280.000000"
 preserveAspectRatio="xMidYMid meet">
<metadata>
Created by potrace 1.15, written by Peter Selinger 2001-2017
</metadata>
<g transform="translate(0.000000,1280.000000) scale(0.100000,-0.100000)"
fill="#000000" stroke="none">
<path d="M2902 12427 c-22 -23 -22 -25 -22 -480 l0 -457 -22 -4 c-13 -3 -75
-15 -138 -26 -353 -64 -762 -202 -1030 -347 -693 -376 -1102 -939 -1215 -1673
-22 -147 -30 -466 -16 -620 72 -749 447 -1338 1156 -1816 252 -170 464 -284
968 -519 l297 -139 0 -1566 0 -1567 -77 4 c-254 12 -475 48 -639 103 -256 87
-414 210 -439 342 -9 49 12 68 147 136 57 29 124 68 150 87 97 71 186 214 224
360 28 106 26 409 -4 517 -46 170 -101 272 -205 384 -124 133 -273 214 -467
254 -91 19 -128 21 -270 17 -200 -6 -290 -26 -436 -97 -290 -141 -473 -390
-539 -732 -21 -108 -21 -353 -1 -479 138 -858 998 -1446 2398 -1639 82 -11
150 -20 153 -20 3 0 5 -442 5 -982 l0 -982 27 -28 27 -28 341 0 341 0 27 28
27 28 0 982 0 982 23 5 c12 2 76 14 142 25 1091 188 1914 741 2285 1535 241
514 312 1193 190 1796 -91 447 -295 834 -605 1144 -283 283 -752 576 -1345
840 -58 26 -237 114 -397 197 l-293 150 0 1340 0 1341 193 -6 c213 -6 323 -24
474 -79 103 -37 224 -117 264 -173 39 -56 57 -126 41 -167 -21 -55 -74 -135
-174 -260 -111 -139 -197 -298 -224 -413 -23 -96 -23 -268 0 -370 66 -297 309
-526 647 -611 129 -32 383 -44 506 -24 184 29 334 103 466 229 161 154 251
327 287 553 18 113 8 417 -18 533 -90 400 -313 710 -694 966 -393 265 -938
427 -1613 482 l-150 12 -3 478 -2 477 -373 0 -374 0 -21 -23z m8 -2832 c0
-778 -3 -1145 -10 -1145 -30 0 -256 129 -415 238 -417 284 -648 593 -684 915
-10 92 0 236 25 330 77 297 331 546 719 702 86 35 312 104 343 104 l22 1 0
-1145z m915 -3637 c72 -32 189 -91 260 -130 562 -310 887 -686 946 -1097 14
-103 7 -317 -15 -418 -114 -526 -544 -874 -1293 -1047 l-63 -14 0 1389 c0
1318 1 1388 18 1382 9 -4 76 -33 147 -65z"/>
</g>
</svg>
