<?xml version="1.0" standalone="no"?>
<!DOCTYPE svg PUBLIC "-//W3C//DTD SVG 20010904//EN"
 "http://www.w3.org/TR/2001/REC-SVG-20010904/DTD/svg10.dtd">
<svg version="1.0" xmlns="http://www.w3.org/2000/svg"
 width="1280.000000pt" height="1263.000000pt" viewBox="0 0 1280.000000 1263.000000"
 preserveAspectRatio="xMidYMid meet">
<metadata>
Created by potrace 1.15, written by Peter Selinger 2001-2017
</metadata>
<g transform="translate(0.000000,1263.000000) scale(0.100000,-0.100000)"
fill="#000000" stroke="none">
<path d="M6030 12619 c-1484 -88 -2718 -667 -3694 -1735 -709 -774 -1128
-1700 -1256 -2774 -59 -497 -52 -1068 20 -1560 210 -1433 943 -2787 2404
-4440 l145 -165 1 -107 0 -108 -1319 0 -1318 0 -52 163 c-29 89 -92 286 -141
437 -49 151 -137 427 -196 612 l-108 338 -258 0 -257 0 15 -53 c17 -57 243
-813 329 -1102 30 -99 106 -355 170 -570 121 -405 287 -963 398 -1335 l64
-215 2135 -3 2135 -2 -109 202 c-933 1729 -1556 3541 -1803 5237 -88 605 -123
1054 -132 1666 -15 1118 96 2010 342 2745 148 443 361 850 598 1143 397 491
909 798 1543 926 243 49 416 65 714 65 351 0 590 -27 868 -100 681 -177 1206
-570 1601 -1199 80 -127 232 -434 294 -590 313 -797 451 -1754 434 -2995 -9
-594 -43 -1034 -128 -1619 -198 -1373 -614 -2756 -1260 -4181 -106 -235 -427
-879 -557 -1118 l-100 -182 2131 2 2131 3 12 40 c6 22 109 362 227 755 477
1582 710 2358 727 2418 l19 62 -258 0 -257 0 -56 -173 c-31 -94 -120 -368
-198 -607 -78 -239 -166 -510 -196 -602 l-56 -168 -1314 0 -1314 0 0 108 1
107 136 155 c503 574 921 1114 1264 1632 724 1094 1078 2038 1191 3173 20 198
16 846 -5 1055 -64 616 -192 1117 -414 1620 -175 397 -416 779 -723 1150 -130
157 -495 522 -660 661 -823 692 -1760 1085 -2865 1203 -319 34 -726 44 -1045
25z"/>
</g>
</svg>
