<?xml version="1.0" standalone="no"?>
<!DOCTYPE svg PUBLIC "-//W3C//DTD SVG 20010904//EN"
 "http://www.w3.org/TR/2001/REC-SVG-20010904/DTD/svg10.dtd">
<svg version="1.0" xmlns="http://www.w3.org/2000/svg"
 width="993.000000pt" height="1280.000000pt" viewBox="0 0 993.000000 1280.000000"
 preserveAspectRatio="xMidYMid meet">
<metadata>
Created by potrace 1.15, written by Peter Selinger 2001-2017
</metadata>
<g transform="translate(0.000000,1280.000000) scale(0.100000,-0.100000)"
fill="#000000" stroke="none">
<path d="M5863 12785 c-68 -19 -123 -54 -184 -118 -116 -121 -230 -327 -300
-541 -49 -149 -176 -661 -199 -801 -11 -71 -30 -175 -40 -230 -49 -261 -125
-908 -200 -1718 -11 -119 -29 -271 -39 -336 -11 -65 -31 -255 -45 -422 -44
-508 -45 -519 -87 -519 -32 0 -76 52 -93 110 -9 29 -32 157 -51 284 -20 127
-44 281 -55 341 -11 61 -36 223 -55 360 -20 138 -51 331 -70 430 -18 99 -41
248 -50 330 -8 83 -25 189 -36 235 -11 47 -34 157 -50 245 -70 384 -121 562
-215 754 -41 84 -69 128 -107 165 -114 112 -337 192 -465 166 -214 -44 -357
-204 -445 -500 -61 -201 -71 -360 -70 -1035 1 -563 13 -879 38 -1055 32 -221
45 -335 59 -495 29 -323 95 -654 176 -885 44 -125 49 -148 59 -280 55 -742 64
-1197 27 -1395 -44 -235 -89 -380 -168 -542 -88 -180 -165 -242 -296 -243 -97
0 -233 54 -312 126 -14 12 -88 62 -165 110 -77 48 -158 103 -181 123 -22 20
-58 49 -78 65 -21 16 -44 43 -51 60 -7 17 -31 51 -52 76 -22 25 -55 66 -75 92
-63 83 -191 213 -253 255 -33 22 -69 51 -80 63 -11 12 -78 68 -150 123 -71 55
-146 115 -165 132 -98 86 -449 273 -614 326 -128 42 -246 45 -338 10 -152 -59
-353 -264 -379 -389 -15 -74 -6 -351 15 -451 32 -146 158 -405 241 -491 23
-25 91 -108 151 -185 186 -241 325 -402 402 -467 15 -13 46 -48 69 -78 22 -30
80 -93 129 -140 206 -196 573 -569 745 -755 134 -146 208 -236 270 -330 48
-72 107 -158 133 -192 80 -106 147 -275 271 -688 103 -341 159 -480 298 -740
120 -225 236 -388 500 -698 51 -60 95 -115 99 -122 5 -7 63 -55 130 -106 68
-52 152 -121 188 -154 92 -86 203 -159 360 -236 42 -20 82 -44 90 -54 56 -67
740 -314 990 -357 52 -9 193 -13 465 -13 603 1 808 29 1128 156 227 90 573
288 719 411 34 30 97 80 138 112 88 67 132 116 292 329 198 263 302 426 403
632 114 230 150 322 248 620 102 307 144 451 168 564 24 115 70 478 104 821
48 484 133 1036 220 1425 13 61 33 154 45 208 49 237 62 295 110 517 78 355
142 604 210 815 151 465 237 724 306 912 41 111 86 246 100 300 14 54 39 141
56 193 34 108 90 369 109 510 19 134 18 620 0 725 -35 201 -130 314 -279 332
-142 16 -330 -70 -501 -231 -65 -62 -173 -203 -282 -368 -89 -136 -422 -796
-505 -1003 -27 -66 -65 -150 -85 -187 -21 -37 -45 -91 -55 -120 -19 -59 -57
-140 -85 -179 -10 -14 -28 -51 -39 -82 -14 -36 -27 -57 -37 -57 -14 0 -15 14
-10 113 6 119 8 125 123 712 97 495 125 614 289 1245 95 366 196 793 236 1005
l43 220 0 320 c0 261 -3 335 -17 399 -30 144 -123 268 -273 366 -100 65 -166
85 -289 85 -87 0 -107 -3 -150 -25 -174 -88 -400 -443 -535 -845 -202 -600
-382 -1238 -466 -1653 -24 -123 -58 -273 -74 -335 -17 -62 -48 -179 -69 -262
-43 -163 -68 -247 -138 -458 -51 -156 -65 -168 -95 -82 -17 47 -17 129 -14
1200 2 640 9 1279 15 1440 7 160 13 529 14 820 2 519 2 532 -20 607 -81 286
-216 446 -448 533 -88 34 -224 42 -302 20z"/>
</g>
</svg>
