<?xml version="1.0" standalone="no"?>
<!DOCTYPE svg PUBLIC "-//W3C//DTD SVG 20010904//EN"
 "http://www.w3.org/TR/2001/REC-SVG-20010904/DTD/svg10.dtd">
<svg version="1.0" xmlns="http://www.w3.org/2000/svg"
 width="1280.000000pt" height="1246.000000pt" viewBox="0 0 1280.000000 1246.000000"
 preserveAspectRatio="xMidYMid meet">
<metadata>
Created by potrace 1.15, written by Peter Selinger 2001-2017
</metadata>
<g transform="translate(0.000000,1246.000000) scale(0.100000,-0.100000)"
fill="#000000" stroke="none">
<path d="M6262 12084 c-460 -326 -962 -811 -1295 -1251 -309 -409 -562 -838
-764 -1298 l-48 -110 -75 -44 c-41 -24 -113 -66 -160 -94 -202 -119 -440 -288
-645 -458 -122 -101 -472 -450 -576 -574 -402 -480 -710 -1027 -904 -1610 -47
-141 -145 -515 -166 -628 -53 -294 -68 -458 -74 -802 -3 -148 -8 -280 -10
-291 -3 -12 -42 -73 -88 -135 -468 -640 -817 -1382 -1002 -2134 -90 -366 -143
-677 -161 -955 -6 -85 -4 -97 12 -112 39 -34 420 -195 659 -278 283 -97 698
-205 925 -240 30 -5 96 -15 145 -24 345 -57 821 -84 1163 -67 249 12 421 26
524 42 75 12 70 13 216 -75 449 -271 990 -475 1552 -585 147 -28 213 -38 410
-62 135 -17 745 -23 895 -10 186 17 347 40 540 77 318 62 630 155 920 274 168
70 468 219 615 307 64 38 124 72 134 76 10 4 44 3 75 -2 77 -13 265 -28 524
-42 271 -15 686 3 975 41 259 35 278 38 467 76 430 86 905 239 1319 426 151
67 157 75 145 183 -5 44 -14 123 -20 175 -35 317 -121 729 -225 1071 -192 637
-501 1257 -901 1809 -49 69 -95 135 -102 147 -7 14 -11 93 -11 235 0 199 -4
263 -31 523 -88 818 -402 1627 -898 2308 -156 214 -279 356 -511 587 -327 327
-623 554 -1015 777 -114 65 -175 112 -175 135 0 4 -37 87 -81 185 -177 388
-429 808 -690 1153 -290 383 -670 772 -1054 1079 -172 138 -373 281 -395 281
-9 0 -71 -39 -138 -86z m252 -1616 c170 -177 406 -469 406 -503 0 -16 -10 -17
-167 -9 -93 5 -251 9 -353 9 -102 0 -260 -4 -352 -9 -161 -8 -168 -8 -168 11
0 50 476 603 520 603 8 0 60 -46 114 -102z m306 -1763 c332 -43 801 -166 834
-218 19 -30 68 -218 104 -402 60 -302 84 -496 97 -791 9 -188 19 -181 -195
-134 -52 12 -135 28 -185 36 -49 8 -115 19 -145 24 -345 59 -953 87 -1283 60
-67 -6 -180 -15 -252 -21 -71 -5 -158 -14 -193 -19 -163 -25 -220 -34 -387
-67 -237 -47 -243 -47 -261 -32 -36 30 13 585 82 929 38 188 96 403 116 427
23 28 309 116 508 156 169 34 385 64 520 71 139 8 521 -4 640 -19z m-3116
-1623 c1 -259 -3 -407 -9 -412 -5 -4 -71 -40 -145 -80 -161 -87 -344 -194
-458 -267 -80 -52 -102 -58 -102 -27 0 51 176 444 277 619 130 223 391 578
422 573 11 -3 14 -74 15 -406z m5472 345 c132 -162 249 -329 342 -487 99 -169
236 -461 278 -593 27 -86 13 -90 -87 -25 -127 82 -309 187 -454 263 -71 38
-137 74 -145 81 -13 11 -15 68 -13 416 1 222 2 404 2 406 5 14 35 -9 77 -61z
m-2316 -1397 c281 -31 451 -59 675 -111 167 -39 171 -43 143 -142 -187 -671
-541 -1331 -997 -1857 -165 -191 -254 -280 -281 -280 -61 0 -459 473 -663 786
-272 420 -494 905 -616 1351 -27 99 -23 103 144 141 156 37 250 54 500 92 90
14 278 30 385 34 162 6 610 -4 710 -14z m-2913 -672 c5 -7 20 -49 33 -93 30
-105 137 -396 202 -549 259 -613 626 -1192 1080 -1701 69 -78 113 -136 113
-149 0 -25 -126 -97 -365 -207 -331 -153 -874 -330 -924 -302 -39 22 -260 231
-349 331 -404 451 -665 924 -816 1482 -25 93 -71 307 -71 333 0 36 266 292
486 469 213 170 548 398 585 398 9 0 21 -6 26 -12z m5102 -88 c302 -199 528
-378 754 -599 76 -74 140 -146 144 -159 7 -29 -7 -114 -43 -257 -132 -533
-388 -1034 -740 -1451 -113 -134 -403 -419 -448 -440 -29 -14 -39 -14 -136 11
-144 36 -467 145 -614 206 -125 52 -456 212 -513 248 -18 12 -33 29 -33 38 0
10 39 61 86 113 401 442 751 962 1001 1489 112 235 241 559 303 761 39 126 45
140 69 140 10 0 87 -45 170 -100z m-7012 -2267 c100 -204 195 -369 324 -562
60 -90 109 -170 109 -177 0 -29 -4 -29 -245 7 -209 31 -504 99 -532 123 l-24
21 49 160 c93 304 201 575 231 575 11 0 40 -48 88 -147z m8854 100 c46 -103
142 -366 189 -522 50 -163 50 -165 31 -184 -26 -26 -295 -89 -536 -126 -38 -6
-104 -15 -146 -22 -78 -12 -99 -8 -99 16 0 8 42 76 94 152 125 186 218 346
323 557 97 198 108 207 144 129z m-4328 -1187 c184 -113 334 -200 444 -254
122 -62 122 -73 -2 -96 -304 -55 -628 -68 -940 -37 -253 26 -360 47 -360 71 0
8 25 28 55 44 178 92 395 218 549 318 40 26 80 48 88 48 8 0 83 -42 166 -94z"/>
</g>
</svg>
