<?xml version="1.0" standalone="no"?>
<!DOCTYPE svg PUBLIC "-//W3C//DTD SVG 20010904//EN"
 "http://www.w3.org/TR/2001/REC-SVG-20010904/DTD/svg10.dtd">
<svg version="1.0" xmlns="http://www.w3.org/2000/svg"
 width="1280.000000pt" height="675.000000pt" viewBox="0 0 1280.000000 675.000000"
 preserveAspectRatio="xMidYMid meet">
<metadata>
Created by potrace 1.15, written by Peter Selinger 2001-2017
</metadata>
<g transform="translate(0.000000,675.000000) scale(0.100000,-0.100000)"
fill="#000000" stroke="none">
<path d="M7780 6642 l-355 -106 -620 -2 c-674 -2 -793 -6 -986 -34 -376 -55
-654 -179 -915 -408 -88 -77 -223 -227 -294 -325 -18 -26 -36 -47 -39 -47 -3
0 -29 16 -56 36 -335 242 -592 368 -829 405 -88 14 -323 6 -466 -16 -382 -59
-683 -153 -1035 -325 -200 -98 -356 -189 -755 -443 -396 -251 -678 -415 -693
-401 -7 8 -108 -54 -146 -89 -80 -75 -148 -222 -181 -394 -12 -58 -15 -63 -44
-71 -17 -5 -106 -31 -198 -57 l-168 -48 0 -46 c0 -39 12 -65 87 -191 199 -334
711 -1171 1325 -2170 360 -586 769 -1255 909 -1487 l254 -423 36 0 c25 0 116
39 310 131 1341 641 2200 993 3653 1499 l178 62 82 -16 c310 -61 609 -40 944
69 223 72 452 188 623 317 l92 69 536 74 c1602 222 2514 336 3466 435 165 18
301 33 302 34 1 1 -3 48 -9 104 -9 79 -8 135 2 241 8 86 10 175 5 234 l-7 96
-391 288 c-215 158 -397 293 -405 298 -22 17 -6 85 21 85 l21 0 -22 20 c-12
11 -23 20 -26 20 -3 0 -429 289 -948 642 -670 456 -1064 732 -1363 953 -1205
896 -1479 1094 -1510 1093 -16 0 -190 -48 -385 -106z"/>
</g>
</svg>
