<?xml version="1.0" standalone="no"?>
<!DOCTYPE svg PUBLIC "-//W3C//DTD SVG 20010904//EN"
 "http://www.w3.org/TR/2001/REC-SVG-20010904/DTD/svg10.dtd">
<svg version="1.0" xmlns="http://www.w3.org/2000/svg"
 width="1280.000000pt" height="1048.000000pt" viewBox="0 0 1280.000000 1048.000000"
 preserveAspectRatio="xMidYMid meet">
<metadata>
Created by potrace 1.15, written by Peter Selinger 2001-2017
</metadata>
<g transform="translate(0.000000,1048.000000) scale(0.100000,-0.100000)"
fill="#000000" stroke="none">
<path d="M4407 10464 c-331 -60 -602 -304 -713 -644 l-28 -85 -4 -387 -3 -388
-155 0 -154 0 0 35 c0 62 -21 139 -62 225 -73 153 -216 272 -394 327 -86 26
-508 27 -603 0 -156 -43 -317 -169 -389 -304 -35 -66 -72 -195 -72 -250 0 -25
-4 -33 -17 -33 -64 0 -263 -24 -348 -41 -673 -136 -1225 -654 -1401 -1315 -62
-231 -57 -70 -61 -2304 -3 -1441 -1 -2077 7 -2155 64 -639 451 -1191 1032
-1470 212 -102 429 -158 670 -175 73 -5 921 -10 1883 -10 l1750 0 55 -68 c340
-416 800 -780 1295 -1022 420 -206 804 -317 1320 -381 157 -20 648 -17 825 5
772 95 1434 375 2038 863 146 118 467 444 577 585 85 110 93 117 150 138 580
215 1022 726 1154 1335 42 192 42 234 38 2360 -4 2228 1 2068 -61 2299 -176
661 -728 1179 -1401 1315 -185 37 -301 41 -1412 41 l-1081 0 -5 368 c-5 406
-10 442 -72 585 -51 118 -92 182 -179 274 -135 144 -297 234 -491 274 -86 18
-171 19 -1850 18 -1465 -1 -1773 -3 -1838 -15z m3656 -628 c64 -31 127 -101
149 -164 9 -28 13 -196 16 -679 l3 -642 1447 -4 c1040 -3 1463 -7 1503 -15
256 -53 458 -155 628 -317 182 -174 297 -377 357 -635 16 -67 18 -150 21 -754
l4 -679 -43 36 c-144 123 -394 262 -588 328 l-101 34 -62 75 c-194 237 -532
541 -802 723 -857 577 -1889 793 -2897 606 l-107 -20 -82 21 c-199 51 -365 72
-606 77 -243 6 -368 -2 -573 -37 -496 -85 -958 -292 -1363 -612 -208 -165
-473 -454 -626 -680 l-52 -78 -1217 0 c-700 0 -1275 -4 -1354 -10 -387 -28
-716 -153 -1014 -386 l-95 -74 4 677 c3 603 5 686 21 753 60 258 175 461 357
635 170 162 373 264 628 317 40 8 429 12 1354 15 l1297 4 0 639 c0 614 1 641
20 692 20 54 79 122 130 149 68 37 55 37 1840 35 l1745 -1 58 -29z m-1148
-2314 c-6 -5 -35 -19 -65 -32 -176 -73 -431 -213 -625 -344 -936 -632 -1544
-1615 -1696 -2741 -27 -202 -36 -627 -17 -812 8 -73 11 -133 8 -133 -12 0
-142 265 -194 395 -136 344 -194 673 -183 1053 8 287 47 518 128 764 223 676
695 1230 1322 1553 337 174 635 259 1047 298 77 8 283 6 275 -1z m1955 -231
c269 -40 520 -103 743 -187 703 -267 1290 -749 1698 -1396 85 -136 233 -432
289 -581 92 -244 168 -552 202 -817 18 -140 18 -670 0 -800 -66 -474 -190
-863 -394 -1234 -718 -1305 -2156 -1989 -3623 -1725 -1057 191 -1975 890
-2450 1864 -349 717 -435 1532 -244 2314 157 640 515 1244 1001 1689 565 516
1246 818 2016 892 155 15 610 4 762 -19z"/>
<path d="M5521 9244 c-83 -22 -147 -62 -211 -130 -173 -186 -171 -445 7 -626
62 -63 121 -99 204 -122 50 -15 135 -16 750 -14 l694 3 75 36 c175 85 270 230
270 414 0 184 -95 329 -270 414 l-75 36 -695 2 c-584 2 -704 0 -749 -13z"/>
<path d="M8175 6859 c-421 -33 -879 -174 -1234 -380 -673 -391 -1158 -1005
-1376 -1745 -76 -256 -105 -453 -112 -759 -4 -187 -2 -272 11 -385 80 -692
363 -1280 855 -1770 259 -259 470 -410 786 -565 307 -151 588 -236 945 -287
146 -20 593 -17 745 5 677 101 1232 375 1701 842 509 507 806 1153 865 1880
28 348 -20 756 -128 1097 -156 494 -446 949 -826 1296 -612 558 -1415 835
-2232 771z m625 -323 c143 -23 394 -86 515 -130 148 -54 424 -194 555 -281
668 -444 1090 -1138 1180 -1940 11 -99 13 -448 4 -507 l-7 -38 -37 33 c-21 17
-82 71 -136 118 -853 741 -2016 1069 -3139 883 -702 -116 -1383 -438 -1915
-907 l-55 -48 -7 48 c-10 74 -9 236 2 363 47 532 241 1017 578 1445 91 116
338 354 464 449 382 285 815 461 1288 521 143 19 567 13 710 -9z"/>
</g>
</svg>
