<?xml version="1.0" standalone="no"?>
<!DOCTYPE svg PUBLIC "-//W3C//DTD SVG 20010904//EN"
 "http://www.w3.org/TR/2001/REC-SVG-20010904/DTD/svg10.dtd">
<svg version="1.0" xmlns="http://www.w3.org/2000/svg"
 width="1280.000000pt" height="773.000000pt" viewBox="0 0 1280.000000 773.000000"
 preserveAspectRatio="xMidYMid meet">
<metadata>
Created by potrace 1.15, written by Peter Selinger 2001-2017
</metadata>
<g transform="translate(0.000000,773.000000) scale(0.100000,-0.100000)"
fill="#000000" stroke="none">
<path d="M4403 7720 c-56 -12 -186 -64 -251 -102 -98 -56 -812 -567 -2247
-1608 -1346 -976 -1578 -1152 -1806 -1368 -101 -94 -103 -101 -95 -252 17
-309 113 -907 160 -998 23 -44 186 -121 751 -352 283 -116 526 -230 630 -295
38 -24 94 -69 123 -99 117 -122 247 -185 1512 -728 1252 -537 1708 -719 1843
-734 68 -7 120 18 125 59 7 57 -51 107 -169 146 -72 24 -140 75 -166 124 -8
17 -21 73 -29 124 -7 52 -22 114 -34 139 -45 92 -161 175 -310 222 -36 11
-118 37 -183 57 -289 91 -563 291 -481 352 37 27 189 -5 499 -107 221 -72 297
-90 384 -90 71 0 111 21 111 58 -1 32 -37 96 -99 176 -33 43 -61 85 -61 94 0
35 93 0 667 -246 l343 -146 2 -616 3 -615 170 -73 c280 -120 460 -200 650
-290 201 -96 235 -103 269 -59 20 27 21 40 21 230 0 192 -1 204 -24 249 -43
88 -114 133 -415 265 -270 118 -408 204 -436 273 -12 29 -12 34 5 46 28 20
146 17 245 -6 47 -11 178 -52 292 -91 230 -78 310 -93 326 -63 5 11 12 66 14
124 6 133 27 182 92 210 24 10 58 37 78 62 158 193 433 808 416 929 -2 19 -21
33 -99 71 -347 171 -2247 921 -3284 1298 -753 273 -1098 380 -1229 380 -116 0
-251 36 -490 132 -264 105 -566 267 -600 321 -8 12 -8 22 0 35 32 51 403 364
794 668 232 181 1603 1229 1724 1318 215 158 401 266 459 266 98 0 1194 -339
2457 -760 669 -222 928 -313 1086 -380 172 -74 669 -253 1249 -450 110 -38
439 -149 730 -248 805 -273 1305 -452 1467 -524 88 -40 100 -65 65 -140 -51
-109 -171 -226 -827 -803 -317 -279 -362 -320 -725 -655 -572 -528 -1036 -922
-1273 -1081 -87 -58 -110 -69 -145 -69 -54 0 -255 69 -662 225 -346 133 -524
194 -570 198 -27 2 -33 -4 -67 -68 -106 -198 -368 -876 -368 -950 0 -24 117
-120 222 -182 112 -67 310 -165 593 -293 292 -133 402 -202 450 -284 31 -53
48 -170 39 -276 -17 -220 -86 -238 -391 -104 -368 161 -442 191 -603 244 -197
66 -299 89 -397 92 -77 2 -93 -4 -93 -36 0 -100 553 -387 1115 -579 201 -68
300 -92 348 -83 91 17 334 163 482 289 423 362 2497 2249 3698 3366 l317 295
0 321 c0 433 -19 617 -77 748 -24 53 -31 60 -87 86 -170 81 -783 296 -2051
721 -522 175 -1265 425 -1650 555 -731 247 -979 327 -1535 495 -309 93 -710
217 -1265 390 -1320 411 -1587 481 -1732 450z m-3796 -3633 c394 -146 575
-190 743 -185 166 5 165 7 165 -494 0 -243 -4 -371 -11 -378 -7 -7 -117 38
-365 151 -600 272 -739 351 -789 449 -30 59 -40 149 -40 364 0 184 1 198 18
194 9 -3 135 -48 279 -101z m1954 -118 c127 -49 160 -110 96 -174 -81 -81
-237 -64 -281 29 -25 53 -16 157 16 178 19 13 81 1 169 -33z m861 -426 c52
-50 46 -129 -11 -152 -62 -25 -134 -17 -172 17 -30 27 -31 30 -20 64 13 39 53
81 91 97 36 15 80 5 112 -26z m-730 -198 c70 -18 203 -69 498 -190 389 -160
470 -203 470 -248 0 -12 -18 -48 -39 -80 -71 -103 -93 -236 -89 -515 3 -190
-6 -239 -45 -267 -50 -35 -147 -12 -360 85 -166 76 -227 113 -296 180 -61 60
-84 104 -102 194 -10 53 -18 67 -68 116 -74 74 -205 150 -456 264 -243 111
-344 167 -402 222 -49 47 -53 71 -18 104 19 18 40 25 84 28 73 5 140 -14 286
-80 219 -100 328 -126 395 -91 58 30 62 69 19 219 -7 23 -9 48 -6 57 8 21 54
22 129 2z m1224 -451 c67 -32 112 -110 81 -141 -36 -37 -145 5 -186 71 -25 40
-26 59 -4 81 18 19 53 15 109 -11z m1698 -155 c59 -27 102 -138 72 -184 -15
-22 -23 -25 -77 -25 -56 0 -64 3 -95 34 -28 28 -34 42 -34 76 0 34 6 48 34 76
36 36 59 41 100 23z m-1363 -22 c94 -29 239 -118 239 -147 0 -47 -228 33 -309
109 -52 48 -21 65 70 38z"/>
<path d="M2876 2986 c-66 -65 -57 -368 15 -522 47 -99 169 -176 283 -178 80
-1 116 20 116 68 0 49 -38 89 -129 136 -86 45 -127 82 -140 126 -19 66 22 101
141 120 91 14 128 39 128 85 0 58 -138 145 -276 174 -94 20 -111 19 -138 -9z"/>
<path d="M4305 6452 c-149 -71 -412 -269 -1005 -756 -408 -335 -560 -473 -560
-509 0 -21 26 -40 107 -81 189 -94 555 -218 652 -220 57 -1 65 1 83 25 25 34
37 128 38 299 1 336 55 499 219 661 87 85 153 130 201 136 36 5 40 3 46 -21
14 -57 -22 -143 -154 -370 -196 -338 -207 -468 -49 -613 61 -56 124 -96 299
-188 254 -135 378 -230 398 -305 18 -66 78 -102 200 -121 110 -17 111 -10 4
128 -35 45 -64 86 -64 92 0 20 38 12 142 -30 227 -89 438 -208 446 -252 5 -25
-46 -22 -174 8 -58 14 -117 25 -131 25 -22 0 -24 -2 -12 -16 28 -34 211 -164
271 -193 35 -16 104 -39 153 -50 121 -26 319 -94 615 -208 497 -193 629 -242
800 -298 211 -68 333 -97 391 -93 43 3 44 4 44 38 0 48 29 57 138 44 144 -18
245 -81 268 -167 14 -55 46 -96 117 -150 125 -96 320 -190 544 -262 267 -86
455 -96 592 -29 28 13 92 61 141 105 50 45 222 192 383 326 160 135 292 248
292 251 0 4 -36 115 -79 247 -107 321 -131 408 -131 470 0 56 19 85 57 85 75
0 381 -136 426 -190 51 -61 53 -101 8 -265 -16 -59 -16 -71 -5 -73 29 -7 322
258 349 314 16 34 16 40 2 70 -38 79 -194 152 -837 392 -549 204 -1359 483
-1895 652 -137 43 -387 130 -555 193 -168 63 -402 150 -520 192 -118 43 -321
120 -450 172 -606 244 -1575 563 -1710 563 -19 0 -62 -13 -95 -28z m583 -448
c44 -18 50 -39 22 -91 -41 -76 -59 -76 -185 2 -76 47 -113 81 -101 93 11 11
124 20 181 14 28 -2 65 -11 83 -18z m326 -49 c253 -121 542 -228 2331 -865
535 -190 975 -360 1108 -426 109 -55 137 -79 137 -118 0 -87 -59 -87 -242 0
l-123 59 -110 0 c-101 0 -116 -3 -182 -32 -215 -92 -373 -288 -404 -498 -13
-91 4 -172 61 -291 28 -57 50 -110 50 -118 0 -19 -49 -2 -755 257 -1614 594
-2229 840 -2351 940 -51 42 -33 55 92 66 54 5 122 18 150 28 110 43 216 133
290 249 124 193 92 389 -107 678 -59 85 -80 126 -65 126 1 0 56 -25 120 -55z
m-381 -420 c74 -16 163 -52 204 -85 32 -25 126 -141 119 -147 -3 -3 -39 14
-80 36 -107 59 -238 91 -403 98 -178 8 -263 -15 -263 -69 0 -10 -12 -30 -27
-44 -22 -20 -35 -24 -72 -22 -39 3 -48 7 -60 32 -10 23 -11 37 -2 67 19 62 83
105 201 134 75 18 297 18 383 0z m903 -1299 c77 -36 144 -89 144 -113 0 -51
-277 62 -319 130 -29 46 59 38 175 -17z m3072 -26 c198 -99 352 -330 352 -528
0 -57 -19 -106 -45 -116 -43 -16 -105 2 -105 30 0 8 7 37 16 64 39 120 -49
320 -168 381 -66 34 -180 44 -346 31 -281 -23 -315 -47 -352 -257 -31 -174
-66 -245 -121 -245 -53 0 -81 73 -82 211 -1 197 77 278 393 404 155 63 206 75
293 72 68 -3 88 -9 165 -47z m-2603 -158 c78 -38 145 -89 145 -111 0 -20 -70
-11 -148 19 -84 33 -175 95 -180 124 -4 17 1 18 49 13 30 -4 88 -23 134 -45z
m536 -206 c65 -33 89 -53 89 -76 0 -33 -52 -39 -121 -15 -64 23 -129 90 -113
116 11 18 85 5 145 -25z m2043 -358 c16 -26 -4 -69 -42 -91 -57 -33 -224 -20
-225 18 -1 13 66 57 118 78 52 21 134 18 149 -5z"/>
<path d="M6260 5382 c-40 -6 -162 -66 -230 -112 -120 -81 -233 -213 -217 -253
29 -77 647 -327 807 -327 60 0 108 19 193 78 134 92 253 132 392 132 82 0 178
-25 228 -60 47 -33 106 -110 113 -148 10 -52 -13 -89 -103 -163 -46 -39 -91
-82 -100 -96 -16 -24 -16 -26 3 -40 78 -58 374 146 456 316 26 55 27 94 2 122
-57 65 -722 332 -1164 467 -240 74 -326 93 -380 84z"/>
<path d="M5035 2116 c-81 -81 -83 -506 -3 -593 27 -29 93 -50 192 -63 78 -10
182 -4 191 11 10 15 -11 44 -107 153 -113 128 -146 185 -129 222 6 13 32 39
57 57 113 78 125 99 77 143 -14 13 -58 40 -96 59 -87 43 -146 47 -182 11z"/>
</g>
</svg>
