<?xml version="1.0" standalone="no"?>
<!DOCTYPE svg PUBLIC "-//W3C//DTD SVG 20010904//EN"
 "http://www.w3.org/TR/2001/REC-SVG-20010904/DTD/svg10.dtd">
<svg version="1.0" xmlns="http://www.w3.org/2000/svg"
 width="1221.000000pt" height="1280.000000pt" viewBox="0 0 1221.000000 1280.000000"
 preserveAspectRatio="xMidYMid meet">
<metadata>
Created by potrace 1.15, written by Peter Selinger 2001-2017
</metadata>
<g transform="translate(0.000000,1280.000000) scale(0.100000,-0.100000)"
fill="#000000" stroke="none">
<path d="M5735 12760 c-1328 -90 -2513 -564 -3535 -1413 -271 -226 -672 -642
-896 -932 -646 -833 -1070 -1833 -1213 -2855 -46 -331 -55 -470 -55 -865 -1
-373 5 -474 40 -760 170 -1370 809 -2647 1810 -3615 894 -864 2053 -1445 3259
-1635 55 -8 125 -20 155 -25 l55 -9 -60 5 c-140 11 -447 69 -684 129 -79 20
-145 34 -148 32 -6 -7 222 -65 399 -102 602 -125 1263 -159 1878 -94 247 25
730 109 804 139 39 16 -1 10 -109 -15 -195 -46 -516 -96 -820 -127 -195 -20
-852 -16 -1070 6 -99 10 -182 20 -185 23 -5 5 49 2 245 -18 50 -5 216 -11 370
-15 1010 -24 1981 197 2880 657 1767 903 2986 2603 3264 4554 48 333 55 453
55 870 0 432 -14 630 -70 969 -256 1559 -1096 2945 -2359 3894 -899 674 -1958
1082 -3086 1187 -195 19 -740 27 -924 15z m403 -4177 c-27 -2 -69 -2 -95 0
-27 2 -5 3 47 3 52 0 74 -1 48 -3z m235 -38 c389 -59 732 -225 1019 -494 272
-255 473 -618 547 -990 50 -247 48 -512 -5 -760 -59 -275 -192 -555 -369 -776
-163 -204 -400 -394 -630 -506 -272 -132 -523 -189 -830 -189 -305 0 -532 51
-805 181 -563 270 -948 790 -1044 1415 -20 130 -21 401 -1 532 27 183 62 307
131 468 254 595 799 1018 1440 1118 125 19 419 20 547 1z"/>
<path d="M5956 7699 c-580 -75 -982 -632 -866 -1201 44 -213 128 -368 284
-523 210 -208 458 -304 751 -292 309 12 581 154 765 398 226 300 268 685 114
1036 -90 204 -304 415 -511 502 -184 78 -354 103 -537 80z m244 -29 c-7 -4 9
-6 36 -3 39 4 46 2 34 -7 -12 -10 -11 -11 10 -6 29 6 112 -13 105 -24 -3 -5 5
-6 17 -2 14 3 19 1 14 -6 -5 -8 -2 -10 8 -6 9 3 16 1 16 -6 0 -6 4 -9 10 -5 9
6 150 -60 150 -71 0 -3 -5 -2 -12 2 -7 4 -8 3 -4 -5 4 -6 12 -9 17 -5 10 6 84
-40 96 -60 4 -6 -2 -4 -13 4 -18 14 -18 14 -5 -2 7 -10 18 -15 23 -12 13 8
150 -127 144 -143 -3 -6 3 -17 12 -25 16 -12 16 -11 2 6 -8 11 -10 17 -4 13
20 -12 66 -86 60 -96 -4 -5 -1 -13 5 -17 8 -4 9 -3 5 4 -4 7 -5 12 -1 12 12 0
96 -186 91 -203 -2 -9 0 -15 4 -12 11 7 23 -51 14 -66 -5 -8 -3 -9 6 -4 10 6
11 -1 6 -31 -5 -30 -4 -35 4 -24 9 12 11 8 7 -17 -2 -18 0 -33 4 -33 5 0 8
-56 8 -125 0 -69 -4 -125 -9 -125 -5 0 -6 -17 -4 -37 5 -30 3 -35 -6 -23 -9
12 -10 8 -5 -19 5 -24 4 -31 -4 -26 -8 5 -10 -1 -5 -21 5 -20 4 -25 -6 -19 -9
5 -10 2 -6 -12 8 -25 -3 -55 -16 -47 -6 4 -7 -2 -3 -16 5 -15 4 -20 -4 -16 -7
4 -9 1 -5 -7 5 -14 -50 -137 -62 -137 -3 0 -2 5 2 12 4 7 3 8 -5 4 -6 -4 -9
-12 -5 -17 6 -10 -40 -89 -52 -89 -3 0 -2 5 2 12 4 7 3 8 -4 4 -6 -4 -9 -12
-6 -19 2 -7 -10 -26 -28 -42 -31 -28 -32 -29 -9 -2 34 38 21 34 -15 -5 -16
-17 -23 -28 -16 -24 21 12 13 -9 -12 -33 -14 -13 -29 -21 -34 -17 -5 3 -22 -9
-38 -27 l-29 -32 35 30 c25 21 29 23 15 6 -33 -39 -199 -151 -181 -122 5 7 1
9 -8 5 -9 -3 -14 -9 -11 -14 7 -11 -91 -53 -106 -45 -8 6 -10 4 -4 -5 6 -9 2
-10 -15 -5 -17 5 -21 4 -15 -6 6 -9 3 -11 -8 -6 -10 4 -17 2 -17 -4 0 -7 -11
-9 -27 -5 -22 5 -25 4 -13 -4 12 -9 9 -11 -12 -7 -16 2 -28 0 -28 -6 0 -5 -13
-7 -30 -3 -17 3 -29 2 -26 -2 2 -4 -67 -7 -155 -7 -87 -1 -153 3 -146 7 7 5
-6 6 -27 2 -29 -5 -37 -4 -32 5 6 9 0 10 -20 5 -17 -4 -25 -3 -21 3 4 6 -4 8
-20 5 -19 -4 -24 -2 -18 8 5 9 4 11 -4 6 -16 -10 -53 3 -45 16 4 6 -1 8 -12 4
-18 -6 -144 46 -144 59 0 3 5 3 12 -1 7 -4 8 -3 4 4 -4 6 -12 9 -19 6 -12 -4
-127 70 -127 83 0 3 8 -1 18 -8 15 -13 16 -12 4 3 -8 9 -19 15 -25 12 -16 -6
-131 111 -123 124 3 5 -4 18 -17 28 l-22 19 19 -22 c11 -13 16 -23 13 -23 -13
0 -77 94 -73 107 3 7 0 15 -6 19 -7 4 -8 3 -4 -4 4 -7 5 -12 2 -12 -10 0 -47
70 -42 79 8 12 -14 62 -25 56 -11 -7 -22 32 -13 46 5 8 3 9 -6 4 -8 -5 -11 -3
-8 6 3 8 -2 20 -10 28 -7 8 -12 25 -9 38 2 12 0 23 -5 23 -6 0 -7 12 -4 28 4
17 3 22 -2 14 -12 -18 -23 60 -17 129 3 41 2 47 -4 24 -7 -23 -9 -13 -9 45 0
58 2 68 9 45 6 -21 7 -8 3 40 -3 52 -1 66 6 55 8 -11 9 -4 4 29 -4 32 -3 42 5
36 8 -5 10 1 5 19 -3 15 -2 26 4 26 6 0 8 10 4 22 -3 13 -1 19 5 15 7 -5 9 1
5 15 -3 13 -1 19 5 15 7 -5 9 1 5 15 -3 14 -1 19 6 14 8 -5 10 -2 6 8 -3 9 -1
16 6 16 6 0 9 4 5 10 -6 9 50 130 61 130 3 0 2 -5 -2 -12 -4 -7 -3 -8 5 -4 6
4 9 12 5 17 -6 11 29 71 54 90 16 13 16 13 2 -6 -14 -18 -14 -19 2 -7 9 8 15
19 12 26 -2 6 10 25 28 41 l33 30 -30 -35 -30 -35 31 28 c17 16 31 36 30 45 0
10 6 16 16 16 9 -1 31 15 50 35 l33 36 -40 -35 c-32 -29 -35 -30 -15 -6 35 40
162 128 177 122 7 -3 15 0 19 6 4 7 3 8 -4 4 -7 -4 -12 -5 -12 -2 0 13 80 45
96 39 11 -4 15 -3 10 5 -8 13 29 26 45 16 8 -5 9 -3 4 6 -6 9 -2 10 15 5 16
-5 20 -4 15 5 -5 9 -1 10 15 5 17 -5 21 -4 15 5 -6 10 0 12 26 7 26 -5 30 -4
19 4 -12 8 -9 9 13 4 21 -4 27 -3 21 6 -5 9 5 11 42 6 28 -4 43 -3 36 2 -8 5
39 8 113 9 70 0 122 -4 115 -8z m-83 -1967 c-20 -2 -52 -2 -70 0 -17 2 0 4 38
4 39 0 53 -2 32 -4z"/>
<path d="M6630 7506 c0 -2 8 -10 18 -17 15 -13 16 -12 3 4 -13 16 -21 21 -21
13z"/>
<path d="M5489 7473 c-13 -16 -12 -17 4 -4 9 7 17 15 17 17 0 8 -8 3 -21 -13z"/>
<path d="M6770 7385 c30 -30 57 -55 59 -55 3 0 -19 25 -49 55 -30 30 -57 55
-59 55 -3 0 19 -25 49 -55z"/>
<path d="M6870 7266 c0 -2 8 -10 18 -17 15 -13 16 -12 3 4 -13 16 -21 21 -21
13z"/>
<path d="M5269 7243 c-13 -16 -12 -17 4 -4 9 7 17 15 17 17 0 8 -8 3 -21 -13z"/>
<path d="M6889 6143 c-13 -16 -12 -17 4 -4 9 7 17 15 17 17 0 8 -8 3 -21 -13z"/>
<path d="M5270 6136 c0 -2 8 -10 18 -17 15 -13 16 -12 3 4 -13 16 -21 21 -21
13z"/>
<path d="M5390 5998 c24 -27 45 -48 47 -48 8 0 0 9 -44 50 l-48 45 45 -47z"/>
<path d="M6659 5903 c-13 -16 -12 -17 4 -4 16 13 21 21 13 21 -2 0 -10 -8 -17
-17z"/>
<path d="M5500 5906 c0 -2 8 -10 18 -17 15 -13 16 -12 3 4 -13 16 -21 21 -21
13z"/>
<path d="M6584 5854 c-18 -14 -18 -15 4 -4 12 6 22 13 22 15 0 8 -5 6 -26 -11z"/>
<path d="M4358 843 c7 -3 16 -2 19 1 4 3 -2 6 -13 5 -11 0 -14 -3 -6 -6z"/>
<path d="M4428 823 c7 -3 16 -2 19 1 4 3 -2 6 -13 5 -11 0 -14 -3 -6 -6z"/>
<path d="M7768 823 c7 -3 16 -2 19 1 4 3 -2 6 -13 5 -11 0 -14 -3 -6 -6z"/>
<path d="M7705 810 c-13 -5 -14 -9 -5 -9 8 0 24 4 35 9 13 5 14 9 5 9 -8 0
-24 -4 -35 -9z"/>
<path d="M7658 793 c7 -3 16 -2 19 1 4 3 -2 6 -13 5 -11 0 -14 -3 -6 -6z"/>
<path d="M7590 780 c-20 -6 -21 -8 -5 -8 11 0 29 3 40 8 25 11 -1 11 -35 0z"/>
</g>
</svg>
