<?xml version="1.0" standalone="no"?>
<!DOCTYPE svg PUBLIC "-//W3C//DTD SVG 20010904//EN"
 "http://www.w3.org/TR/2001/REC-SVG-20010904/DTD/svg10.dtd">
<svg version="1.0" xmlns="http://www.w3.org/2000/svg"
 width="1280.000000pt" height="696.000000pt" viewBox="0 0 1280.000000 696.000000"
 preserveAspectRatio="xMidYMid meet">
<metadata>
Created by potrace 1.15, written by Peter Selinger 2001-2017
</metadata>
<g transform="translate(0.000000,696.000000) scale(0.100000,-0.100000)"
fill="#000000" stroke="none">
<path d="M12430 6920 c-115 -38 -903 -297 -1962 -645 l-568 -186 -137 45
c-662 216 -1518 337 -2581 366 -1242 33 -2454 -108 -3222 -375 -140 -49 -316
-126 -398 -174 l-70 -41 -598 126 c-330 69 -727 152 -884 184 -247 51 -1446
301 -1735 362 -115 24 -159 20 -206 -19 -111 -94 -79 -277 58 -336 21 -9 344
-82 718 -162 374 -80 891 -191 1150 -247 259 -55 630 -135 825 -177 l355 -76
-4 -80 c-2 -44 -7 -352 -10 -685 -6 -506 -5 -611 7 -640 12 -30 12 -156 1
-855 l-12 -820 -27 -25 c-47 -44 -55 -108 -54 -445 1 -165 7 -397 13 -515 l12
-215 33 -50 c159 -237 517 -519 906 -714 560 -280 1194 -437 2030 -503 335
-26 1140 -15 1575 23 1074 92 1946 324 2514 667 164 99 364 265 406 337 40 67
46 163 48 754 2 498 0 551 -16 603 -17 57 -37 78 -75 78 -17 0 -20 11 -26 118
-3 64 -9 411 -13 769 l-6 653 26 26 c15 15 32 43 39 63 16 49 24 1354 9 1438
-15 81 -54 154 -118 223 -39 43 -51 61 -41 65 8 3 533 178 1166 389 634 211
1164 391 1178 401 30 19 63 87 64 129 0 85 -60 171 -136 194 -64 19 -109 13
-234 -28z"/>
</g>
</svg>
