<?xml version="1.0" standalone="no"?>
<!DOCTYPE svg PUBLIC "-//W3C//DTD SVG 20010904//EN"
 "http://www.w3.org/TR/2001/REC-SVG-20010904/DTD/svg10.dtd">
<svg version="1.0" xmlns="http://www.w3.org/2000/svg"
 width="1271.000000pt" height="1280.000000pt" viewBox="0 0 1271.000000 1280.000000"
 preserveAspectRatio="xMidYMid meet">
<metadata>
Created by potrace 1.15, written by Peter Selinger 2001-2017
</metadata>
<g transform="translate(0.000000,1280.000000) scale(0.100000,-0.100000)"
fill="#000000" stroke="none">
<path d="M12075 12767 c-389 -145 -599 -299 -863 -632 -161 -203 -172 -215
-192 -215 -37 0 -128 -43 -188 -88 -79 -60 -137 -137 -157 -210 -9 -31 -20
-67 -23 -80 -4 -12 -364 -405 -800 -872 l-794 -850 -56 0 c-102 -1 -175 -51
-196 -134 -10 -39 -27 -60 -125 -151 -72 -66 -122 -105 -135 -105 -38 0 -139
-30 -201 -59 -188 -88 -339 -275 -382 -474 -15 -70 -19 -77 -45 -82 -64 -15
-118 -87 -118 -160 0 -34 -22 -59 -322 -373 -1088 -1137 -1529 -1594 -4172
-4327 -298 -309 -346 -354 -406 -386 -60 -31 -75 -35 -123 -31 -73 6 -112 -15
-128 -68 -10 -33 -22 -45 -69 -72 -81 -46 -566 -499 -582 -544 -10 -28 -18
-34 -52 -39 -106 -17 -196 -87 -242 -188 -26 -55 -29 -73 -29 -163 l0 -102
-32 -11 c-38 -14 -49 -31 -69 -108 -52 -198 -260 -410 -614 -624 -131 -79
-444 -239 -529 -269 -35 -13 -72 -32 -82 -43 -16 -18 -23 -18 -63 -8 -69 17
-166 14 -206 -7 -72 -38 -96 -135 -65 -257 98 -381 639 -923 1020 -1020 122
-31 219 -7 257 65 21 40 24 137 6 207 -9 39 -9 47 5 54 8 5 28 42 43 82 42
110 183 386 276 539 117 194 187 287 308 409 111 112 205 175 299 199 80 21
102 32 116 61 8 15 15 34 15 41 0 10 25 13 99 14 91 0 104 3 164 32 87 43 141
104 167 190 11 35 20 69 20 76 0 7 15 17 33 24 42 15 497 501 547 584 19 32
39 58 43 58 5 0 24 7 42 15 39 19 55 51 55 110 0 108 -114 -11 2528 2624 1339
1334 2439 2424 2445 2422 7 -2 47 -6 89 -9 65 -4 83 -1 122 17 53 26 84 70 92
132 l6 45 87 27 c187 59 327 179 415 353 33 66 66 171 66 211 0 10 48 70 107
133 82 89 114 117 141 123 87 19 130 77 141 187 l6 69 859 798 c793 736 863
799 908 810 75 19 127 50 195 116 67 64 128 168 139 236 6 31 20 46 112 116
148 112 350 311 443 434 153 205 250 451 274 697 7 63 5 75 -18 120 -84 166
-321 347 -468 360 -44 3 -71 -2 -144 -29z m-1020 -1369 c62 -31 165 -103 165
-116 0 -4 -19 -29 -41 -55 -27 -31 -47 -46 -57 -42 -8 3 -73 40 -144 82 l-129
76 48 49 c55 56 59 56 158 6z m-3354 -3397 c68 -68 3 -175 -95 -157 -114 21
-92 186 24 186 33 0 48 -6 71 -29z m-769 -780 c28 -25 33 -36 33 -76 0 -41 -4
-51 -37 -81 -32 -29 -45 -34 -85 -34 -120 1 -154 137 -50 200 48 30 100 26
139 -9z m-773 -782 c36 -35 42 -89 16 -139 -45 -86 -198 -76 -224 14 -23 86
34 155 131 156 39 0 51 -5 77 -31z m-950 -924 c59 -30 64 -114 11 -159 -38
-32 -83 -41 -121 -26 -31 13 -59 55 -59 87 0 31 39 84 73 98 41 18 62 18 96 0z
m-919 -940 c88 -46 71 -174 -29 -219 -52 -24 -104 -15 -144 25 -27 27 -29 35
-25 80 10 99 113 158 198 114z m-866 -767 c24 -34 19 -66 -13 -99 -52 -52
-121 -30 -121 38 0 71 97 114 134 61z m117 -178 c24 -13 26 -66 2 -92 -37 -41
-111 -7 -97 46 7 27 38 56 62 56 7 0 22 -5 33 -10z m-1081 -461 c0 -53 -141
-138 -165 -99 -10 16 25 59 69 85 42 25 96 33 96 14z m58 -106 c-3 -19 -63
-63 -84 -63 -24 0 -15 27 17 54 36 30 72 35 67 9z m-2142 -2496 c111 -82 273
-271 251 -293 -19 -19 -212 152 -293 259 -69 92 -53 104 42 34z"/>
</g>
</svg>
