<?xml version="1.0" standalone="no"?>
<!DOCTYPE svg PUBLIC "-//W3C//DTD SVG 20010904//EN"
 "http://www.w3.org/TR/2001/REC-SVG-20010904/DTD/svg10.dtd">
<svg version="1.0" xmlns="http://www.w3.org/2000/svg"
 width="640.000000pt" height="1280.000000pt" viewBox="0 0 640.000000 1280.000000"
 preserveAspectRatio="xMidYMid meet">
<metadata>
Created by potrace 1.15, written by Peter Selinger 2001-2017
</metadata>
<g transform="translate(0.000000,1280.000000) scale(0.100000,-0.100000)"
fill="#000000" stroke="none">
<path d="M1345 12785 c-305 -56 -464 -273 -557 -760 -22 -117 -23 -134 -22
-730 3 -2500 316 -5297 815 -7300 91 -366 249 -917 333 -1163 l25 -73 -152
-388 -153 -387 -82 -78 c-95 -91 -136 -151 -228 -329 -83 -159 -132 -216 -229
-262 -87 -41 -136 -93 -163 -175 l-20 -58 83 -35 83 -35 214 19 c117 10 222
19 233 19 17 0 22 11 33 66 21 113 83 210 180 287 l60 47 113 -54 c257 -121
578 -201 1184 -295 110 -17 212 -34 227 -37 l26 -5 -30 -66 c-31 -68 -61 -194
-72 -298 -17 -157 -47 -234 -121 -314 -56 -61 -74 -98 -81 -168 -10 -108 -8
-110 156 -165 80 -26 149 -48 155 -48 5 0 82 57 169 128 105 83 154 128 143
130 -21 4 -21 12 -2 132 52 339 221 623 433 728 70 34 83 37 161 37 71 0 95
-5 136 -25 98 -48 169 -144 167 -227 0 -41 1 -42 21 -31 63 33 354 203 365
213 21 19 -53 77 -138 110 -82 31 -130 69 -166 130 -40 69 -126 288 -125 320
0 17 43 359 96 760 132 1006 223 1707 294 2250 33 253 97 737 141 1075 81 618
146 1119 330 2525 55 418 127 974 161 1235 46 354 66 478 77 487 16 13 14 104
-8 338 -25 268 -98 440 -221 522 -84 55 -296 88 -421 64 -129 -25 -179 -49
-388 -184 -85 -56 -192 -121 -238 -145 l-83 -44 -62 31 c-89 45 -151 101 -165
149 -14 45 -27 59 -62 64 -19 2 -32 17 -56 65 -16 34 -37 70 -45 80 -9 10 -35
61 -58 113 -170 375 -477 808 -811 1140 -360 359 -675 548 -987 595 -107 16
-404 35 -523 34 -41 0 -106 -7 -145 -14z m648 -1562 c4 -32 56 -487 117 -1010
60 -524 160 -1382 220 -1905 182 -1577 309 -2669 360 -3108 l48 -415 -36 -95
c-34 -88 -37 -92 -44 -65 -4 17 -44 356 -88 755 -45 399 -94 840 -110 980 -16
140 -43 375 -60 523 -16 147 -43 386 -60 532 -16 146 -43 384 -60 530 -16 146
-43 383 -60 528 -16 144 -66 582 -110 972 -44 391 -109 959 -143 1263 -68 604
-68 571 -6 572 24 0 27 -4 32 -57z m72 20 c19 -9 35 -21 35 -27 0 -11 219
-1917 554 -4821 l163 -1410 -27 -70 c-34 -85 -31 -96 -64 205 -14 124 -89 772
-166 1440 -490 4236 -540 4671 -540 4686 0 18 2 18 45 -3z m-185 -2 c0 -8 59
-533 169 -1506 28 -242 55 -483 61 -535 42 -375 113 -997 125 -1105 8 -71 103
-903 210 -1848 l194 -1719 -28 -71 -29 -72 -6 35 c-3 19 -177 1536 -386 3370
-209 1834 -383 3353 -386 3376 -5 38 -4 42 28 62 36 24 48 27 48 13z m302 -56
c45 -22 37 19 88 -430 38 -337 116 -1012 220 -1920 27 -236 79 -686 115 -1000
128 -1120 207 -1806 254 -2214 l48 -415 -33 -80 c-18 -45 -35 -74 -37 -66 -3
8 -69 573 -147 1255 -78 682 -207 1803 -286 2490 -79 688 -173 1504 -209 1815
-70 609 -69 593 -57 588 4 -2 24 -12 44 -23z m-12 -3459 l389 -3398 -103 -262
c-56 -143 -106 -270 -111 -281 -9 -23 -13 -5 -99 395 -296 1376 -558 3103
-665 4385 -52 611 -70 1105 -59 1565 13 561 81 870 221 1018 l32 33 3 -28 c2
-15 179 -1557 392 -3427z m133 3389 c20 -14 39 -36 42 -48 2 -12 54 -461 115
-997 61 -536 122 -1070 135 -1185 14 -116 108 -942 210 -1835 l186 -1625 -28
-72 c-15 -40 -30 -69 -34 -65 -3 4 -11 54 -17 112 -6 58 -39 341 -72 630 -69
599 -142 1238 -200 1740 -22 190 -67 581 -100 870 -33 289 -78 680 -100 870
-22 190 -53 464 -70 610 -17 146 -48 423 -70 615 -22 193 -42 362 -45 378 -6
33 0 34 48 2z m121 -87 l37 -33 24 -210 c23 -190 88 -755 280 -2430 63 -553
84 -732 239 -2075 l73 -635 -30 -78 c-16 -43 -31 -77 -33 -75 -2 2 -64 537
-139 1188 -74 652 -144 1266 -156 1365 -222 1937 -343 3015 -339 3015 4 0 23
-15 44 -32z m128 -105 c26 -27 28 -39 58 -298 301 -2632 541 -4737 541 -4765
1 -40 -47 -163 -54 -140 -3 8 -28 220 -56 470 -52 454 -66 577 -246 2143 -82
718 -274 2387 -290 2532 -4 28 -9 63 -12 78 -4 26 -3 28 14 19 10 -6 30 -23
45 -39z m163 -178 c3 -11 36 -306 75 -655 72 -649 338 -3027 411 -3675 l40
-361 -29 -74 c-17 -42 -32 -68 -35 -60 -3 8 -75 634 -161 1390 -86 756 -168
1472 -181 1590 -39 335 -50 428 -135 1175 -43 385 -82 720 -85 745 l-7 45 52
-50 c28 -27 53 -59 55 -70z m120 -140 c2 -11 18 -141 35 -290 26 -235 193
-1729 220 -1965 31 -275 194 -1727 212 -1890 l22 -195 -29 -73 c-15 -39 -29
-71 -31 -69 -3 3 -16 119 -214 1882 -82 737 -183 1643 -225 2014 -41 370 -75
678 -75 685 0 16 79 -75 85 -99z m87 -107 c21 -29 40 -71 43 -93 3 -22 42
-359 86 -750 44 -390 104 -928 135 -1195 30 -267 79 -703 109 -970 31 -267 69
-602 85 -745 l30 -260 -28 -72 c-16 -40 -31 -75 -34 -78 -3 -3 -10 43 -16 102
-9 84 -135 1213 -202 1803 -5 47 -50 447 -100 890 -50 443 -106 944 -125 1113
-19 170 -35 310 -35 313 0 12 18 -8 52 -58z m125 -171 l42 -62 26 -235 c14
-129 75 -674 135 -1210 60 -536 132 -1177 160 -1425 28 -247 57 -508 65 -579
l15 -130 -27 -70 -28 -70 -7 40 c-4 21 -46 381 -93 799 -47 418 -106 938 -131
1155 -24 217 -80 712 -124 1100 -44 388 -81 715 -83 728 -7 35 5 26 50 -41z
m123 -166 l34 -44 93 -821 c50 -451 106 -942 123 -1091 17 -148 44 -389 61
-535 16 -146 43 -381 59 -523 l30 -257 -29 -72 -28 -72 -7 45 c-3 24 -56 487
-116 1029 -61 542 -137 1226 -170 1520 -33 294 -67 596 -75 670 -8 74 -17 153
-20 175 -6 43 -6 43 45 -24z m154 -218 c3 -21 26 -216 51 -433 41 -360 96
-839 176 -1535 16 -143 45 -399 65 -570 l36 -309 -27 -69 c-15 -37 -29 -66
-32 -64 -5 5 -24 164 -93 778 -22 196 -62 553 -90 795 -27 241 -54 482 -60
534 -6 52 -33 292 -60 533 -28 241 -50 445 -50 453 0 31 78 -75 84 -113z m267
-1360 l147 -1268 -31 -77 c-16 -43 -31 -77 -33 -76 -1 2 -10 66 -19 143 -37
320 -180 1567 -235 2055 -33 289 -62 539 -65 555 -5 30 -5 30 42 -18 l48 -47
146 -1267z m-40 1185 l37 -33 41 -365 c49 -433 129 -1123 176 -1518 l33 -283
-38 -97 c-31 -79 -39 -92 -43 -72 -6 26 -278 2386 -277 2408 0 17 24 4 71 -40z
m1048 -272 c-52 -129 -94 -234 -95 -233 -3 2 -34 284 -34 302 0 6 33 32 73 58
39 25 88 61 107 80 19 20 37 34 39 32 1 -2 -39 -110 -90 -239z m-930 202 l38
-22 17 -150 c9 -83 43 -380 76 -661 33 -280 74 -638 92 -795 l32 -285 -29 -74
c-36 -90 -39 -85 -59 104 -9 77 -38 335 -66 573 -166 1433 -155 1332 -144
1332 3 0 22 -10 43 -22z m147 -71 c1 -1 44 -368 95 -815 l93 -813 -24 -69
c-24 -68 -40 -89 -40 -51 0 10 -22 213 -50 450 -27 237 -72 625 -100 862 -27
237 -50 440 -50 450 0 18 2 18 37 4 20 -9 38 -17 39 -18z m82 -28 c36 -12 30
21 77 -394 19 -170 52 -466 74 -657 l40 -347 -25 -63 c-14 -35 -29 -67 -33
-71 -5 -4 -11 23 -15 60 -4 37 -42 382 -86 766 -44 384 -80 702 -80 708 0 12
10 11 48 -2z m133 -38 c4 -3 36 -265 71 -581 l65 -575 -27 -70 -28 -70 -6 35
c-3 19 -31 256 -61 525 -30 270 -62 546 -70 615 -8 69 -15 129 -15 133 0 7 62
-2 71 -12z m433 -201 l17 -165 -25 -60 c-21 -53 -25 -57 -30 -35 -8 35 -47
442 -43 446 1 2 14 7 27 12 33 12 34 7 54 -198z m-327 178 c4 -7 31 -220 59
-473 l51 -460 -27 -70 c-24 -60 -29 -66 -34 -45 -5 23 -101 871 -113 1003 l-6
57 31 0 c17 0 34 -6 39 -12z m118 -20 c2 -13 20 -176 39 -364 l35 -341 -29
-74 c-24 -62 -29 -70 -34 -49 -3 14 -24 194 -46 400 -23 206 -44 392 -47 413
l-6 37 42 0 c34 0 41 -4 46 -22z m96 20 c0 -2 12 -121 27 -266 l28 -262 -24
-66 c-14 -35 -26 -63 -28 -61 -3 2 -18 132 -34 288 -16 156 -32 303 -35 327
l-6 42 35 0 c20 0 36 -1 37 -2z"/>
</g>
</svg>
