<?xml version="1.0" standalone="no"?>
<!DOCTYPE svg PUBLIC "-//W3C//DTD SVG 20010904//EN"
 "http://www.w3.org/TR/2001/REC-SVG-20010904/DTD/svg10.dtd">
<svg version="1.0" xmlns="http://www.w3.org/2000/svg"
 width="1278.000000pt" height="1280.000000pt" viewBox="0 0 1278.000000 1280.000000"
 preserveAspectRatio="xMidYMid meet">
<metadata>
Created by potrace 1.15, written by Peter Selinger 2001-2017
</metadata>
<g transform="translate(0.000000,1280.000000) scale(0.100000,-0.100000)"
fill="#000000" stroke="none">
<path d="M5860 12794 c-203 -13 -832 -118 -955 -159 -23 -7 -70 -18 -105 -25
-155 -27 -727 -221 -931 -316 -90 -42 -222 -103 -294 -136 -174 -81 -328 -166
-515 -283 -298 -188 -470 -305 -551 -379 -25 -22 -74 -62 -110 -88 -105 -75
-212 -169 -418 -361 -198 -186 -294 -289 -557 -603 -153 -182 -453 -610 -540
-772 -20 -37 -40 -71 -44 -77 -13 -17 -178 -328 -227 -427 -130 -263 -362
-902 -418 -1148 -9 -41 -32 -138 -50 -215 -40 -168 -60 -282 -75 -430 -7 -60
-18 -138 -25 -171 -28 -125 -38 -330 -39 -809 -1 -409 2 -494 16 -575 9 -52
22 -151 28 -220 13 -148 44 -341 65 -399 7 -22 19 -87 25 -143 6 -57 27 -179
46 -273 19 -93 43 -224 54 -290 21 -125 47 -267 73 -395 9 -41 25 -136 37
-210 12 -74 30 -175 41 -225 10 -49 24 -124 30 -165 24 -164 58 -358 72 -415
8 -33 18 -87 22 -120 9 -81 53 -328 70 -390 8 -27 17 -75 20 -105 12 -103 54
-348 69 -407 9 -32 22 -107 30 -166 9 -59 24 -124 35 -145 l20 -39 98 -6 c54
-4 207 -7 341 -7 146 0 261 -4 288 -11 42 -11 45 -14 59 -63 19 -62 38 -166
65 -351 11 -77 34 -210 49 -295 16 -85 39 -213 51 -285 35 -212 69 -345 101
-395 49 -78 121 -141 204 -178 49 -22 81 -23 494 -23 167 0 308 -2 312 -5 4
-2 276 -5 604 -5 572 0 695 5 730 31 6 4 25 11 43 15 112 24 302 169 394 301
38 54 88 153 88 173 0 9 9 41 21 71 29 77 36 241 15 335 -9 39 -21 99 -27 135
-5 36 -15 90 -20 120 -6 30 -12 64 -14 75 -2 11 -8 33 -14 49 -6 16 -11 43
-11 60 0 56 -9 114 -24 158 -17 51 -37 188 -30 200 3 5 -2 34 -11 66 -10 31
-19 66 -21 77 -2 11 -8 47 -14 80 -6 33 -12 74 -14 91 -1 16 -6 35 -9 42 -4 6
-10 45 -12 88 -3 42 -14 94 -24 118 -10 22 -22 70 -26 106 -3 36 -8 85 -11
109 -2 25 -9 49 -13 55 -9 10 -15 52 -26 181 -2 28 -9 66 -15 85 -6 19 -17 85
-26 145 -8 61 -16 117 -17 125 -2 8 -6 21 -11 29 -5 7 -12 50 -17 94 -8 79
-17 127 -46 241 -8 32 -12 69 -9 82 4 13 0 38 -7 56 -20 47 -36 124 -41 193
-3 33 -14 93 -25 134 -12 41 -21 88 -21 105 -1 17 -8 58 -16 91 -9 33 -27 128
-40 210 -14 83 -29 174 -34 203 -23 122 -30 168 -30 187 0 11 -5 34 -10 50 -5
17 -11 53 -14 80 -3 28 -11 66 -19 85 -8 19 -18 51 -22 70 -16 83 -61 173
-122 244 -58 69 -197 190 -246 214 -194 93 -227 102 -410 102 -93 0 -127 -4
-160 -19 -47 -20 -122 -48 -212 -79 -33 -11 -87 -31 -120 -46 -34 -14 -79 -26
-105 -26 -73 0 -42 11 -685 -238 -71 -28 -222 -84 -335 -126 -375 -137 -380
-140 -483 -269 -21 -26 -44 -47 -52 -47 -21 0 -35 32 -41 92 -3 29 -7 67 -9
83 -2 17 -12 55 -23 85 -12 31 -22 87 -23 130 -2 41 -9 95 -16 119 -7 24 -15
66 -18 95 -7 63 -12 95 -26 166 -6 30 -16 78 -21 105 -5 28 -9 73 -8 100 1 44
-9 147 -26 255 -9 61 -17 377 -10 413 6 32 10 35 54 42 26 4 255 7 509 7 389
-2 466 1 490 13 15 8 33 15 40 15 6 0 38 20 70 45 108 81 147 166 162 355 11
133 21 178 46 217 14 21 15 30 5 54 -9 22 -10 40 -1 73 6 25 11 55 11 66 0 12
9 35 20 50 14 19 23 52 26 97 4 40 15 82 26 103 11 19 22 53 25 74 2 22 15 65
28 95 13 31 26 74 30 96 4 22 15 54 23 70 17 32 19 37 21 59 0 8 12 27 25 43
13 16 27 46 30 67 4 22 15 54 26 71 11 18 20 40 20 50 0 10 10 32 23 49 13 17
31 52 41 79 10 26 35 74 57 106 21 32 39 65 39 73 0 8 9 23 21 34 12 10 30 35
40 54 11 19 32 58 48 87 15 29 42 68 60 88 17 20 31 41 31 46 0 6 10 24 23 40
12 15 38 51 57 79 19 28 46 63 60 78 14 15 39 45 55 67 175 236 538 584 770
739 28 19 61 46 74 60 14 14 28 26 33 26 5 0 19 9 31 21 12 11 36 28 52 36 17
9 37 22 46 29 27 24 141 93 199 121 30 15 78 41 105 58 28 17 66 38 85 45 19
8 70 34 113 57 42 24 95 47 118 52 22 5 48 16 58 25 10 9 26 16 37 16 10 0 33
9 51 19 17 11 53 26 80 35 26 8 88 28 137 46 49 17 127 38 174 46 47 8 92 20
99 26 7 6 35 12 61 15 26 2 71 12 100 23 29 11 96 25 150 31 53 6 111 15 127
20 35 10 61 14 233 31 70 7 150 12 177 11 81 -3 130 -3 325 -4 102 0 239 -7
304 -14 66 -8 123 -12 127 -9 4 2 52 -7 106 -20 87 -22 216 -43 235 -38 4 1
36 -10 72 -23 36 -14 86 -27 110 -29 25 -3 71 -13 103 -24 32 -11 105 -35 163
-53 58 -18 114 -38 126 -46 12 -7 46 -20 77 -28 31 -8 96 -33 144 -56 167 -78
368 -180 413 -209 25 -16 64 -38 86 -48 36 -17 134 -82 239 -159 16 -12 44
-30 60 -39 17 -9 49 -33 72 -53 23 -20 68 -57 100 -83 285 -230 514 -462 728
-738 33 -43 68 -91 77 -106 10 -16 49 -76 88 -134 39 -58 78 -121 87 -140 10
-19 28 -48 40 -63 13 -16 23 -32 23 -37 0 -4 17 -37 38 -71 43 -73 123 -234
177 -359 20 -47 45 -99 56 -116 10 -17 19 -41 19 -53 0 -12 11 -48 25 -81 14
-33 25 -72 25 -87 0 -15 7 -41 15 -56 8 -16 21 -50 29 -77 8 -26 21 -61 30
-78 9 -18 16 -55 16 -87 0 -33 10 -86 24 -128 14 -40 27 -101 31 -137 4 -36
14 -87 23 -115 10 -32 18 -109 22 -210 6 -128 11 -172 29 -218 36 -98 75 -151
138 -189 142 -87 114 -81 453 -89 168 -3 314 -3 326 1 11 5 27 4 35 -1 9 -4
83 -9 166 -10 82 0 156 -4 163 -9 19 -12 7 -513 -14 -588 -9 -30 -22 -111 -30
-181 -8 -70 -22 -154 -30 -187 -20 -77 -73 -354 -80 -421 -4 -29 -16 -81 -27
-115 -11 -35 -23 -89 -28 -121 -13 -96 -32 -97 -82 -4 -11 21 -26 40 -34 44
-8 3 -15 11 -15 17 0 27 -53 59 -199 121 -83 36 -155 65 -158 65 -12 0 -208
82 -298 125 -49 23 -121 53 -160 65 -38 13 -86 31 -105 40 -20 10 -82 34 -140
54 -57 20 -117 45 -134 55 -45 28 -137 57 -250 80 -54 11 -122 31 -150 45 -28
14 -112 49 -186 78 l-135 53 -155 0 c-155 -1 -155 -1 -255 -38 -228 -86 -364
-206 -468 -413 -43 -86 -65 -168 -111 -420 -19 -105 -44 -227 -55 -271 -11
-44 -25 -113 -31 -154 -5 -41 -21 -121 -35 -179 -35 -148 -73 -336 -80 -395
-3 -27 -22 -122 -42 -210 -19 -88 -43 -207 -54 -265 -44 -252 -70 -380 -84
-420 -8 -24 -20 -84 -25 -134 -6 -50 -21 -131 -34 -181 -32 -122 -63 -266 -75
-345 -6 -36 -24 -128 -41 -205 -17 -77 -37 -176 -46 -220 -8 -44 -24 -127 -36
-185 -11 -58 -29 -148 -39 -200 -10 -52 -22 -111 -28 -130 -6 -19 -15 -69 -20
-110 -5 -41 -17 -106 -25 -145 -35 -156 -8 -335 74 -493 28 -53 71 -119 96
-147 25 -27 49 -55 52 -61 13 -21 128 -102 187 -132 67 -33 181 -69 261 -82
29 -5 315 -11 636 -15 321 -3 603 -8 628 -10 25 -3 195 -5 378 -6 l333 -1 57
28 c100 50 158 108 204 204 22 47 42 99 43 115 2 17 4 30 4 30 1 0 4 16 6 37
2 20 13 67 24 105 12 37 25 109 31 158 5 50 18 114 29 144 11 30 18 57 16 62
-3 4 -1 10 5 14 6 4 8 10 5 15 -6 10 17 140 35 200 6 19 12 65 15 102 2 37 14
95 25 129 12 35 23 74 25 88 1 14 3 26 4 26 1 0 4 20 6 45 6 72 6 71 291 69
138 -1 256 1 263 5 7 5 26 2 42 -4 36 -15 178 -7 208 12 24 15 29 32 37 133 4
47 16 103 29 135 13 30 26 87 29 125 3 39 10 86 16 105 6 19 13 44 15 55 3 11
7 32 11 48 3 15 9 60 14 100 5 39 18 97 29 128 11 31 22 78 25 105 2 27 9 62
15 78 7 16 14 52 16 80 3 28 7 65 10 81 3 17 7 41 9 55 2 14 16 61 30 105 15
43 24 85 22 92 -3 7 -1 15 5 19 6 3 8 11 6 17 -2 7 0 26 5 42 4 17 15 75 23
130 8 55 17 114 20 130 2 17 16 62 30 100 14 39 25 92 25 121 0 28 7 70 15 93
8 23 14 44 14 46 -5 39 20 167 82 420 10 44 21 109 24 145 8 103 15 142 34
185 19 42 27 76 36 160 3 28 15 79 26 113 10 35 17 67 14 71 -7 12 22 164 44
228 10 32 21 81 24 108 3 28 12 68 20 90 7 22 14 66 15 98 1 57 22 183 43 262
6 22 12 76 14 120 2 44 9 111 15 148 7 37 10 77 6 89 -3 12 -1 54 4 93 13 94
16 398 7 625 -5 102 -10 237 -13 300 -2 63 -9 132 -15 153 -14 52 -19 85 -30
202 -8 90 -13 123 -39 265 -4 25 -16 72 -26 105 -9 33 -18 69 -20 80 -8 62
-67 307 -84 347 -11 26 -22 66 -25 89 -3 23 -10 49 -15 59 -6 10 -10 28 -10
39 0 12 -4 29 -9 39 -19 37 -69 179 -74 211 -6 35 -44 138 -59 157 -4 6 -15
35 -24 63 -17 57 -112 265 -233 508 -45 90 -81 167 -81 172 0 4 -18 35 -40 67
-22 33 -40 63 -40 67 0 4 -17 34 -37 65 -21 31 -56 89 -78 128 -23 39 -47 77
-54 85 -7 8 -22 31 -34 51 -42 70 -102 160 -160 236 -31 42 -89 120 -129 172
-39 52 -84 109 -99 125 -45 47 -78 87 -111 133 -17 23 -35 42 -40 42 -4 0 -18
17 -32 38 -13 20 -80 93 -150 162 -69 69 -131 130 -136 135 -6 6 -41 42 -79
80 -37 39 -118 113 -180 165 -62 52 -136 115 -166 140 -29 25 -76 63 -104 85
-29 22 -76 61 -106 86 -51 43 -259 185 -400 274 -33 21 -62 41 -65 44 -3 4
-50 33 -105 65 -55 32 -125 74 -156 92 -31 19 -86 47 -121 63 -36 16 -82 40
-104 53 -124 77 -596 280 -814 350 -540 174 -1041 283 -1455 319 -122 11
-1035 21 -1155 13z"/>
</g>
</svg>
