<?xml version="1.0" standalone="no"?>
<!DOCTYPE svg PUBLIC "-//W3C//DTD SVG 20010904//EN"
 "http://www.w3.org/TR/2001/REC-SVG-20010904/DTD/svg10.dtd">
<svg version="1.0" xmlns="http://www.w3.org/2000/svg"
 width="640.000000pt" height="1280.000000pt" viewBox="0 0 640.000000 1280.000000"
 preserveAspectRatio="xMidYMid meet">
<metadata>
Created by potrace 1.15, written by Peter Selinger 2001-2017
</metadata>
<g transform="translate(0.000000,1280.000000) scale(0.100000,-0.100000)"
fill="#000000" stroke="none">
<path d="M3271 12726 c-146 -49 -218 -78 -227 -92 -20 -31 -130 -367 -168
-514 -82 -322 -166 -840 -166 -1031 0 -27 -3 -49 -7 -48 -5 0 -29 44 -55 97
-120 248 -295 527 -455 727 -154 193 -407 432 -585 553 l-47 32 -118 -71 c-65
-40 -143 -91 -173 -114 -172 -132 -327 -364 -380 -568 -44 -174 -48 -351 -14
-717 7 -85 14 -162 14 -171 0 -10 -17 -19 -49 -28 -180 -46 -271 -244 -187
-408 131 -258 517 -183 543 106 13 136 -67 252 -205 299 l-53 18 74 149 c89
179 172 307 257 398 65 70 199 167 230 167 20 0 275 -254 346 -345 61 -79 159
-227 191 -289 24 -47 24 -50 7 -63 -10 -7 -24 -13 -31 -13 -18 0 -17 -1 20
-58 37 -54 66 -164 48 -185 -6 -8 -3 -31 10 -70 33 -98 43 -307 20 -395 -7
-23 -23 -106 -36 -185 -41 -237 -99 -357 -213 -440 -53 -39 -171 -97 -197 -97
-8 0 -15 -4 -15 -10 0 -5 13 -10 29 -10 61 0 159 -58 186 -110 36 -70 -5 -205
-83 -271 -44 -36 -33 -35 87 12 129 51 278 168 313 245 10 21 12 20 54 -22 29
-29 53 -68 73 -116 78 -194 184 -396 260 -498 33 -44 38 -56 26 -63 -8 -4
-126 -35 -262 -67 -360 -87 -330 -75 -381 -145 -25 -33 -55 -82 -68 -110 -50
-109 -56 -153 -63 -459 l-6 -290 -35 -4 c-53 -5 -93 -33 -117 -82 -28 -55 -29
-82 -3 -135 35 -72 130 -106 199 -70 41 21 79 70 87 111 11 61 -35 149 -89
167 -21 7 128 219 228 326 55 59 142 129 193 155 l33 17 -7 -28 c-4 -15 -42
-134 -85 -264 -99 -300 -109 -357 -87 -493 2 -14 -5 -21 -28 -28 -41 -11 -91
-68 -100 -114 -21 -111 87 -208 196 -175 48 14 96 70 105 122 12 68 -54 169
-108 169 -30 0 -28 21 10 91 69 127 215 290 421 468 l63 54 -8 -44 c-14 -78
-7 -270 15 -434 38 -274 38 -242 -2 -249 -102 -19 -159 -144 -103 -226 37 -55
72 -75 130 -75 156 0 210 210 72 280 -22 11 -42 21 -44 22 -7 5 108 269 175
403 34 69 86 159 116 200 l53 75 5 -3565 c3 -1961 9 -3572 13 -3581 6 -12 1
-19 -22 -29 -47 -19 -109 -89 -131 -147 -40 -108 -18 -206 65 -290 108 -107
265 -110 376 -6 86 81 113 206 65 308 -25 56 -72 107 -118 131 -30 16 -31 17
-24 76 3 34 6 1548 6 3366 l0 3305 51 -79 c53 -82 150 -205 188 -238 24 -22
27 -36 7 -36 -26 0 -83 -64 -96 -107 -11 -36 -11 -49 4 -87 10 -25 31 -57 47
-70 112 -95 283 22 240 164 -14 48 -68 96 -118 104 l-38 7 -5 197 c-7 286 -6
553 3 586 8 28 8 28 45 -33 100 -165 253 -357 434 -546 l106 -111 -39 -32
c-73 -61 -77 -156 -10 -223 65 -65 159 -63 220 6 82 94 27 234 -98 251 -48 6
-49 7 -69 59 -38 98 -100 309 -120 410 -24 113 -45 304 -40 352 3 31 4 30 78
-64 187 -241 284 -341 406 -422 l43 -28 -39 -17 c-44 -19 -78 -67 -87 -120 -7
-43 25 -112 64 -140 39 -28 119 -32 163 -8 42 23 80 84 80 130 0 70 -55 138
-123 149 l-32 5 -2 96 c-2 125 -24 208 -119 445 -41 104 -74 191 -72 193 7 6
159 -86 233 -142 71 -53 174 -154 212 -210 l22 -31 -35 -16 c-39 -19 -69 -63
-79 -114 -8 -42 26 -117 66 -146 43 -31 110 -34 158 -6 44 25 81 85 81 132 0
73 -60 141 -135 153 -37 5 -45 10 -45 28 0 40 -30 140 -64 211 -45 95 -98 159
-218 262 -56 49 -144 125 -195 171 -84 75 -99 84 -150 94 -128 24 -303 96
-382 157 l-24 18 51 97 c60 112 147 299 172 371 12 32 37 69 70 104 l53 54 26
-30 c58 -69 170 -137 294 -179 l68 -23 -40 45 c-73 83 -107 237 -62 278 27 25
112 55 176 62 30 4 55 10 55 14 0 3 -24 14 -53 23 -60 19 -159 76 -200 115
-45 43 -95 123 -118 186 -11 33 -34 126 -50 208 -16 82 -38 166 -48 187 -18
34 -19 48 -10 137 12 126 17 157 41 222 16 42 17 56 8 67 -10 12 -10 25 -1 61
14 55 53 135 75 153 25 21 19 30 -29 42 -25 6 -45 13 -45 14 0 2 15 39 34 82
79 184 171 342 295 506 78 103 177 215 183 207 2 -3 35 -59 72 -125 119 -209
280 -417 460 -595 47 -46 86 -87 86 -91 0 -4 -12 -9 -27 -12 -41 -8 -107 -61
-141 -112 -93 -141 -41 -336 113 -418 60 -32 192 -31 257 2 94 48 150 135 156
241 9 161 -109 294 -270 305 l-53 3 -26 95 c-79 280 -95 580 -58 1115 7 95 10
175 7 177 -8 9 -515 102 -613 114 -49 5 -142 13 -206 17 l-116 7 -78 -79
c-148 -149 -304 -342 -449 -552 -60 -86 -82 -112 -95 -107 -35 14 -114 27
-132 22 -25 -7 -25 -2 6 182 54 316 140 533 282 704 13 16 23 33 23 38 0 18
-131 116 -202 151 -63 32 -268 99 -294 97 -5 0 -105 -33 -223 -73z m309 -1115
c3 -2 -4 -8 -14 -15 -11 -6 -37 -27 -60 -46 -25 -22 -37 -28 -33 -17 4 10 12
47 19 83 l12 64 35 -32 c20 -18 38 -35 41 -37z m-70 -505 c0 -7 -62 -106 -66
-106 -2 0 -4 46 -4 101 l0 102 35 -46 c19 -25 35 -48 35 -51z"/>
</g>
</svg>
