<?xml version="1.0" standalone="no"?>
<!DOCTYPE svg PUBLIC "-//W3C//DTD SVG 20010904//EN"
 "http://www.w3.org/TR/2001/REC-SVG-20010904/DTD/svg10.dtd">
<svg version="1.0" xmlns="http://www.w3.org/2000/svg"
 width="1067.000000pt" height="1280.000000pt" viewBox="0 0 1067.000000 1280.000000"
 preserveAspectRatio="xMidYMid meet">
<metadata>
Created by potrace 1.15, written by Peter Selinger 2001-2017
</metadata>
<g transform="translate(0.000000,1280.000000) scale(0.100000,-0.100000)"
fill="#000000" stroke="none">
<path d="M8263 12790 c-279 -50 -557 -266 -851 -660 -136 -182 -290 -454 -384
-678 l-27 -63 -108 3 -108 3 0 94 0 94 43 12 c206 61 231 354 39 450 -180 89
-364 -90 -306 -299 12 -45 77 -119 120 -136 l30 -13 -3 -101 -3 -101 -177 -3
-178 -2 0 254 0 255 38 10 c177 48 230 294 88 418 -118 105 -312 46 -356 -108
-16 -55 -11 -130 11 -179 25 -56 53 -86 102 -111 l37 -19 0 -260 0 -260 -210
0 -210 0 0 339 0 338 36 6 c157 26 248 193 183 337 -41 91 -112 140 -204 140
-137 0 -237 -120 -222 -266 7 -67 45 -136 92 -167 l35 -22 0 -352 0 -353 -190
0 -190 0 0 419 0 419 32 11 c152 53 205 253 102 388 -33 43 -115 83 -170 83
-151 0 -258 -161 -214 -321 14 -49 81 -123 130 -143 l40 -16 0 -420 0 -419
-201 -3 c-110 -2 -203 -1 -205 1 -2 2 -4 161 -4 352 l0 349 39 20 c82 41 139
148 128 241 -15 122 -117 219 -231 219 -39 0 -124 -40 -153 -71 -78 -85 -83
-244 -11 -329 26 -31 84 -68 118 -77 l35 -9 0 -350 0 -349 -195 0 -195 0 -3
223 -2 223 34 14 c90 38 146 126 146 230 0 75 -24 128 -77 176 -164 148 -412
-7 -365 -228 16 -78 57 -131 126 -167 l56 -29 0 -224 0 -223 -202 2 -203 3 0
60 0 59 42 9 c57 11 124 72 153 139 75 174 -81 370 -257 325 -106 -28 -173
-118 -173 -233 0 -86 37 -155 108 -203 l53 -36 -3 -60 -3 -60 -112 -3 c-87 -2
-113 0 -113 10 0 27 -171 357 -247 478 -233 371 -513 660 -754 777 -107 53
-163 71 -258 84 -315 45 -590 -135 -641 -421 -63 -348 267 -669 638 -621 126
16 270 85 337 162 18 21 17 20 -15 -3 -94 -69 -193 -101 -315 -102 -205 -1
-372 99 -452 270 -24 52 -28 71 -28 154 0 84 3 101 27 146 57 108 162 168 290
167 208 -3 393 -149 609 -481 108 -165 195 -343 274 -559 l23 -63 -276 -2
-275 -3 -158 -215 -157 -215 483 -3 c450 -2 484 -3 489 -20 33 -114 41 -604
13 -817 -102 -776 -415 -1424 -1126 -2335 -79 -102 -269 -340 -421 -530 -428
-536 -607 -771 -787 -1041 -353 -528 -604 -1041 -756 -1549 -185 -617 -205
-1277 -57 -1895 182 -759 686 -1465 1363 -1910 672 -441 1510 -625 2317 -510
403 58 842 207 1193 406 73 41 333 209 392 253 8 6 45 -13 111 -56 462 -304
954 -485 1509 -554 189 -24 575 -24 768 -1 951 117 1744 576 2305 1335 254
344 450 784 536 1204 177 868 44 1704 -417 2624 -253 505 -515 888 -1164 1700
-579 725 -704 890 -908 1199 -460 698 -673 1303 -702 1990 -5 135 9 422 24
482 l5 23 406 2 406 3 -243 223 -243 222 -115 0 c-101 0 -114 2 -109 16 3 9 9
28 12 42 13 51 104 273 155 375 95 189 205 354 324 488 156 176 330 257 487
229 83 -15 126 -39 182 -101 59 -65 80 -133 74 -234 -8 -121 -67 -224 -171
-301 -174 -129 -421 -132 -610 -8 l-52 34 49 -45 c57 -51 167 -108 241 -126
73 -17 219 -15 294 5 272 71 457 341 412 602 -34 195 -175 350 -371 408 -67
20 -226 28 -297 16z m-4396 -2020 c3 -158 -7 -195 -21 -85 -3 28 -17 96 -30
153 l-23 103 36 -3 36 -3 2 -165z m483 -3865 l0 -4035 -126 86 c-135 93 -127
92 -161 29 -26 -49 -103 -155 -113 -155 -11 0 -14 8093 -3 8103 3 4 96 7 205
7 l198 0 0 -4035z m475 -75 l0 -4105 -125 -3 -126 -3 -72 47 -72 46 0 4064 0
4064 198 -2 197 -3 0 -4105z m485 0 l0 -4110 -202 2 -203 3 -3 4095 c-1 2252
0 4101 3 4108 3 9 54 12 205 12 l200 0 0 -4110z m458 3 l-3 -4108 -185 0 -185
0 -3 4108 -2 4107 190 0 190 0 -2 -4107z m502 85 l-1 -4023 -128 -88 -129 -87
-81 0 -81 0 0 4110 0 4110 210 0 210 0 0 -4022z m437 5 c2 -2207 0 -4013 -5
-4013 -9 1 -35 37 -85 119 -22 36 -41 68 -43 69 -1 2 -52 -30 -113 -71 l-111
-75 0 3994 0 3994 178 -2 177 -3 2 -4012z m149 3995 c-5 -23 -48 -267 -63
-363 -6 -35 -9 12 -11 155 -1 112 0 210 2 217 3 7 21 13 42 13 33 0 36 -2 30
-22z m-31 -1526 c77 -475 253 -980 540 -1547 158 -312 230 -437 655 -1145 384
-640 473 -796 625 -1105 236 -481 354 -826 411 -1205 8 -59 18 -206 21 -335 4
-198 2 -249 -15 -365 -29 -188 -61 -293 -142 -455 -85 -170 -140 -247 -284
-390 -127 -126 -209 -187 -351 -260 -191 -97 -364 -138 -590 -138 -211 -1
-368 30 -535 104 -65 30 -71 34 -66 58 3 14 8 45 11 69 l7 42 -110 0 -109 0
-51 40 c-27 22 -53 47 -56 56 -3 9 -5 1546 -5 3417 1 1871 5 3384 10 3362 4
-22 19 -113 34 -203z m-2966 -6658 c-7 -8 -31 -14 -60 -14 -52 0 -55 -3 -39
-45 9 -23 5 -28 -49 -68 -367 -271 -924 -299 -1351 -70 -132 71 -205 127 -335
257 -141 142 -204 230 -285 398 -71 149 -105 259 -132 438 -17 116 -19 167
-15 365 9 358 51 587 175 942 151 432 376 868 852 1653 602 992 802 1375 1003
1915 87 234 186 595 217 790 6 39 14 81 18 95 4 14 8 -1475 10 -3309 1 -2456
-1 -3337 -9 -3347z m1728 -301 c-3 -5 -71 -53 -151 -107 l-145 -99 -128 87
c-210 142 -226 126 125 126 167 0 301 -3 299 -7z"/>
<path d="M5295 833 c-208 -159 -560 -360 -730 -415 -131 -43 -466 -133 -1040
-279 l-540 -138 2460 1 2460 0 -215 44 c-888 181 -1353 318 -1793 528 -150 71
-338 176 -445 248 -39 27 -78 51 -85 53 -6 3 -39 -16 -72 -42z"/>
</g>
</svg>
