<?xml version="1.0" standalone="no"?>
<!DOCTYPE svg PUBLIC "-//W3C//DTD SVG 20010904//EN"
 "http://www.w3.org/TR/2001/REC-SVG-20010904/DTD/svg10.dtd">
<svg version="1.0" xmlns="http://www.w3.org/2000/svg"
 width="1280.000000pt" height="897.000000pt" viewBox="0 0 1280.000000 897.000000"
 preserveAspectRatio="xMidYMid meet">
<metadata>
Created by potrace 1.15, written by Peter Selinger 2001-2017
</metadata>
<g transform="translate(0.000000,897.000000) scale(0.100000,-0.100000)"
fill="#000000" stroke="none">
<path d="M1876 8959 c-219 -21 -455 -81 -664 -169 -450 -191 -857 -586 -1047
-1018 -249 -566 -208 -1211 109 -1732 191 -313 483 -581 820 -754 626 -321
1417 -308 2031 32 85 47 92 49 120 37 17 -7 674 -299 1460 -650 1476 -658
3967 -1765 4715 -2095 692 -306 863 -378 925 -395 124 -32 280 -13 419 52 93
44 221 135 262 187 32 40 45 46 37 17 -4 -15 5 -20 59 -30 97 -19 351 -86 468
-124 337 -111 593 -247 761 -405 144 -135 201 -252 202 -412 1 -81 -4 -108
-30 -182 -95 -272 -235 -390 -543 -458 -146 -32 -277 -43 -515 -43 -584 1
-1155 86 -2615 389 -1384 288 -1793 356 -2235 371 -265 9 -442 -17 -584 -84
-74 -36 -221 -184 -279 -282 -174 -295 -120 -603 157 -894 124 -130 362 -310
383 -289 12 12 119 194 116 197 -2 2 -43 30 -93 63 -224 150 -382 346 -417
516 -23 118 28 261 138 384 106 119 199 146 504 146 113 0 255 -6 315 -13 455
-51 784 -111 1870 -336 1266 -263 1723 -341 2335 -397 199 -18 646 -15 796 5
328 45 552 140 699 298 89 95 176 258 217 410 19 68 23 108 22 209 -1 112 -4
134 -31 212 -151 435 -676 751 -1588 956 -24 5 -39 14 -37 21 7 33 41 242 46
291 l7 55 -3153 1765 c-1734 970 -3315 1855 -3513 1966 l-360 202 -8 93 c-4
52 -14 144 -22 204 -61 452 -301 882 -665 1187 -308 260 -675 425 -1073 483
-136 20 -391 27 -521 14z"/>
</g>
</svg>
