<?xml version="1.0" standalone="no"?>
<!DOCTYPE svg PUBLIC "-//W3C//DTD SVG 20010904//EN"
 "http://www.w3.org/TR/2001/REC-SVG-20010904/DTD/svg10.dtd">
<svg version="1.0" xmlns="http://www.w3.org/2000/svg"
 width="1143.000000pt" height="1280.000000pt" viewBox="0 0 1143.000000 1280.000000"
 preserveAspectRatio="xMidYMid meet">
<metadata>
Created by potrace 1.15, written by Peter Selinger 2001-2017
</metadata>
<g transform="translate(0.000000,1280.000000) scale(0.100000,-0.100000)"
fill="#000000" stroke="none">
<path d="M10480 12794 c-14 -3 -47 -12 -74 -20 -38 -11 -52 -11 -63 -2 -11 9
-20 5 -42 -18 -16 -16 -1583 -1784 -3482 -3929 -1899 -2145 -3958 -4470 -4576
-5167 l-1122 -1266 -259 -554 c-143 -304 -390 -830 -550 -1168 -159 -339 -293
-626 -297 -639 l-7 -24 48 28 c27 16 525 332 1107 704 l1059 676 3277 3700
c1803 2035 3875 4374 4605 5198 1127 1273 1325 1501 1311 1510 -13 10 -14 20
-4 72 38 205 -66 462 -262 651 -117 112 -240 184 -381 224 -71 21 -236 34
-288 24z m-9130 -10385 c92 -30 221 -97 346 -180 249 -164 532 -520 551 -693
5 -39 3 -46 -18 -57 -19 -10 -1188 -736 -1361 -845 l-38 -24 -26 52 c-38 74
-135 172 -207 208 -33 17 -66 30 -74 30 -25 0 -69 -101 396 919 144 316 266
582 272 593 13 25 78 24 159 -3z"/>
</g>
</svg>
