<?xml version="1.0" standalone="no"?>
<!DOCTYPE svg PUBLIC "-//W3C//DTD SVG 20010904//EN"
 "http://www.w3.org/TR/2001/REC-SVG-20010904/DTD/svg10.dtd">
<svg version="1.0" xmlns="http://www.w3.org/2000/svg"
 width="1280.000000pt" height="1268.000000pt" viewBox="0 0 1280.000000 1268.000000"
 preserveAspectRatio="xMidYMid meet">
<metadata>
Created by potrace 1.15, written by Peter Selinger 2001-2017
</metadata>
<g transform="translate(0.000000,1268.000000) scale(0.100000,-0.100000)"
fill="#000000" stroke="none">
<path d="M12484 12436 c-45 -14 -165 -74 -226 -112 -69 -44 -297 -168 -498
-271 -463 -238 -653 -333 -630 -314 14 11 28 21 32 21 9 0 -71 80 -118 117
-59 46 -188 108 -269 129 -93 24 -275 24 -365 0 -150 -40 -282 -124 -380 -241
-111 -135 -159 -317 -129 -493 10 -55 14 -63 30 -58 65 20 49 11 -66 -39 -71
-31 -203 -86 -292 -122 -145 -58 -169 -71 -235 -128 -91 -79 -473 -465 -594
-600 -49 -55 -151 -166 -226 -247 -75 -81 -154 -171 -176 -200 -22 -29 -49
-62 -61 -72 -11 -11 -21 -29 -21 -40 0 -12 -20 -61 -43 -111 -24 -49 -49 -106
-57 -125 -18 -48 -17 -47 -49 -16 -27 26 -34 28 -80 21 -30 -4 -69 -19 -95
-37 -77 -50 -417 -438 -656 -748 -57 -74 -141 -180 -186 -235 -44 -55 -132
-172 -194 -260 -63 -88 -130 -180 -149 -205 -73 -92 -193 -230 -201 -230 -4 0
-80 79 -170 175 -89 97 -439 453 -779 793 -1012 1011 -1179 1202 -1172 1334 2
44 -9 56 -114 125 -93 62 -232 130 -390 193 -137 54 -586 255 -718 322 -160
80 -1101 641 -1322 788 -38 26 -104 66 -145 90 -92 53 -327 209 -640 425 -306
212 -297 207 -341 195 -62 -17 -76 -96 -40 -220 42 -147 80 -209 246 -400 50
-58 126 -152 169 -210 43 -58 109 -136 146 -175 37 -38 79 -89 94 -112 14 -23
52 -73 84 -110 123 -144 333 -435 453 -629 70 -113 246 -431 304 -549 72 -147
157 -401 294 -887 54 -190 117 -286 361 -548 530 -569 636 -678 920 -939 291
-269 1370 -1347 1370 -1370 0 -10 -251 -319 -351 -432 -52 -59 -203 -228 -335
-375 -373 -416 -463 -520 -808 -939 -353 -429 -457 -549 -489 -567 -19 -10
-26 -6 -59 33 -61 70 -114 154 -150 237 -33 76 -33 78 -32 227 1 188 14 262
51 294 33 29 73 25 183 -17 105 -41 146 -47 176 -27 32 21 30 47 -6 89 -71 80
-208 148 -337 166 -137 19 -261 -2 -758 -127 -318 -81 -348 -87 -466 -91 -283
-10 -519 61 -519 156 0 32 33 82 55 82 8 0 37 20 65 45 31 27 60 45 75 45 15
0 25 6 25 14 0 40 -120 88 -222 90 -70 1 -96 -16 -155 -103 -55 -79 -73 -143
-73 -254 l0 -89 106 -101 c59 -56 131 -120 162 -142 30 -22 95 -74 144 -115
49 -41 119 -96 156 -122 149 -105 406 -366 551 -561 105 -140 235 -368 226
-396 -3 -12 -31 -29 -72 -46 -94 -37 -147 -77 -172 -128 -12 -24 -21 -52 -21
-63 0 -24 -39 -61 -100 -96 -52 -30 -160 -139 -160 -162 0 -9 -19 -25 -43 -37
-117 -60 -173 -125 -208 -241 -12 -42 -28 -73 -42 -83 -12 -9 -49 -36 -82 -60
-33 -25 -64 -45 -69 -45 -6 0 -19 -9 -30 -19 -29 -27 -99 -48 -181 -55 -38 -4
-88 -9 -110 -12 l-40 -4 0 67 c0 88 -38 172 -95 209 -91 60 -258 95 -362 75
-223 -41 -438 -209 -554 -431 -27 -51 -29 -62 -29 -170 1 -131 21 -209 78
-295 29 -46 36 -50 76 -53 55 -4 76 15 91 81 16 77 107 217 140 217 13 0 33
-42 60 -125 34 -105 95 -254 150 -370 43 -89 63 -118 142 -200 196 -205 473
-381 806 -511 138 -54 262 -128 262 -157 0 -6 -24 -34 -52 -62 -45 -43 -68
-55 -153 -84 -104 -35 -210 -83 -234 -106 -18 -17 -6 -49 25 -70 14 -9 62 -23
107 -32 45 -8 103 -27 130 -40 48 -26 51 -26 215 -20 279 10 400 52 527 180
97 99 128 163 133 277 5 103 -10 181 -43 232 -13 20 -73 74 -132 120 -59 46
-109 92 -111 102 -6 31 45 119 117 200 38 43 86 109 106 147 35 62 42 70 85
84 67 22 134 67 221 149 45 42 111 91 164 120 49 27 107 66 130 87 47 43 100
142 110 204 12 69 15 73 76 111 l61 37 98 -68 c170 -116 428 -343 499 -439 21
-28 70 -88 110 -134 40 -46 109 -141 155 -210 88 -134 146 -194 242 -253 114
-70 254 -106 306 -78 24 13 162 169 201 227 28 41 16 92 -42 187 -28 45 -51
87 -51 92 0 15 -35 43 -53 43 -33 0 -32 -50 1 -146 18 -50 32 -102 32 -116 0
-57 -88 -86 -147 -49 -46 29 -87 90 -102 154 -12 49 -11 66 8 160 32 161 65
255 161 457 49 102 93 205 100 230 6 25 27 91 46 146 30 90 36 125 50 300 13
151 14 205 5 229 -6 17 -11 52 -11 77 0 48 -4 56 -90 154 -19 22 -43 50 -52
62 -21 26 -70 29 -89 6 -11 -13 -10 -30 4 -99 21 -100 22 -157 3 -193 -8 -15
-41 -53 -74 -84 -59 -56 -62 -58 -119 -59 -165 -4 -235 10 -379 76 -81 37
-134 71 -134 86 0 5 75 69 168 143 92 74 213 174 269 223 55 48 208 181 340
294 131 113 488 444 793 735 690 658 750 714 769 714 15 0 150 -143 506 -534
60 -67 299 -312 530 -546 1012 -1025 1453 -1489 1755 -1850 142 -169 219 -250
513 -534 147 -142 281 -276 298 -297 48 -61 76 -65 288 -40 100 12 256 24 347
28 l166 6 153 116 c258 196 339 267 571 509 213 221 226 237 268 325 75 157
105 323 71 403 -8 19 -28 49 -45 66 -17 17 -85 97 -150 177 -65 80 -151 182
-192 227 -557 616 -641 702 -968 1000 -382 347 -922 869 -1455 1405 -309 310
-597 605 -640 656 -44 50 -153 169 -242 263 -90 94 -163 176 -163 181 0 21
123 139 395 378 154 136 323 282 375 326 52 44 176 154 275 244 99 90 250 223
335 295 85 72 195 167 245 211 49 44 115 100 145 125 30 25 105 88 166 140 61
52 200 163 310 246 109 83 235 182 279 220 44 38 98 82 120 98 48 35 294 276
337 329 29 36 30 39 13 57 -24 27 -16 47 119 285 63 110 178 322 256 470 79
149 146 275 151 280 4 6 163 314 352 685 189 371 374 725 412 785 92 148 211
325 310 465 45 63 94 137 109 165 27 51 34 95 16 95 -6 0 -15 11 -20 25 -10
25 -46 46 -78 44 -9 0 -35 -6 -58 -13z"/>
<path d="M12760 6622 c0 -14 11 -21 26 -15 21 8 17 23 -6 23 -11 0 -20 -4 -20
-8z"/>
</g>
</svg>
