<?xml version="1.0" standalone="no"?>
<!DOCTYPE svg PUBLIC "-//W3C//DTD SVG 20010904//EN"
 "http://www.w3.org/TR/2001/REC-SVG-20010904/DTD/svg10.dtd">
<svg version="1.0" xmlns="http://www.w3.org/2000/svg"
 width="640.000000pt" height="1280.000000pt" viewBox="0 0 640.000000 1280.000000"
 preserveAspectRatio="xMidYMid meet">
<metadata>
Created by potrace 1.15, written by Peter Selinger 2001-2017
</metadata>
<g transform="translate(0.000000,1280.000000) scale(0.100000,-0.100000)"
fill="#000000" stroke="none">
<path d="M670 12772 l-44 -27 -310 -3 c-171 -1 -312 -4 -314 -7 -2 -2 -1 -13
3 -25 5 -15 82 -58 290 -163 282 -140 284 -141 278 -169 -4 -23 -3 -27 10 -22
12 4 17 -6 22 -50 l7 -55 62 6 c40 4 68 12 83 25 12 11 31 18 45 16 19 -2 22
-8 20 -30 -2 -19 2 -28 11 -28 19 0 49 -87 33 -94 -6 -3 27 -3 74 0 74 5 87 9
103 30 l18 23 47 -20 c36 -16 51 -18 70 -10 36 17 64 14 272 -31 107 -22 222
-42 255 -44 122 -7 151 -12 205 -37 75 -33 162 -54 305 -73 149 -20 562 -14
850 11 215 19 393 16 495 -10 36 -9 106 -36 155 -60 191 -92 294 -254 297
-470 1 -80 -1 -90 -21 -107 -29 -23 -42 -15 -35 21 7 32 -10 49 -30 32 -8 -6
-16 -25 -20 -42 l-6 -30 -56 7 c-51 6 -56 5 -52 -12 2 -11 17 -21 38 -27 19
-5 38 -12 43 -16 4 -4 -10 -50 -30 -102 -38 -93 -39 -94 -70 -92 -42 4 -83
-13 -83 -32 0 -9 9 -33 20 -55 23 -45 24 -50 10 -50 -5 0 -10 7 -10 15 0 19
-9 19 -34 0 -18 -14 -18 -15 2 -40 17 -21 19 -32 11 -58 -49 -169 -89 -319
-95 -349 -3 -21 -11 -38 -16 -38 -7 0 -8 15 -5 37 l7 38 -29 -49 c-27 -48 -27
-51 -13 -88 14 -36 13 -43 -16 -135 -41 -132 -43 -157 -14 -161 12 -2 22 -8
22 -13 0 -6 -15 -7 -37 -3 -31 5 -36 4 -25 -7 19 -20 14 -31 -8 -19 -24 13
-26 38 -5 46 8 4 15 14 15 24 0 10 6 35 13 56 22 61 29 96 19 90 -5 -3 -15
-27 -22 -53 -7 -27 -21 -65 -32 -85 -10 -21 -18 -53 -18 -73 0 -37 -14 -72
-35 -90 -16 -14 -8 -105 9 -99 9 4 7 -15 -8 -61 -11 -36 -24 -61 -28 -57 -5 5
-4 21 2 37 16 42 4 43 -14 1 -8 -20 -20 -36 -25 -36 -6 0 -11 -13 -11 -30 0
-16 -8 -45 -17 -65 -14 -30 -15 -38 -3 -60 12 -22 20 -25 66 -25 29 0 59 -2
66 -5 10 -4 18 8 26 45 16 67 16 67 -9 73 -20 5 -21 10 -15 64 11 90 25 133
52 160 38 38 38 38 9 -112 -14 -76 17 27 65 212 60 233 90 336 95 331 2 -2
-25 -118 -61 -258 -163 -635 -367 -1418 -494 -1895 -76 -286 -149 -560 -161
-610 -13 -49 -25 -83 -26 -75 -4 15 103 429 323 1253 63 236 114 436 113 445
0 21 -72 -229 -124 -436 -37 -144 -41 -154 -72 -173 -39 -24 -136 -129 -128
-138 4 -3 13 2 20 12 11 16 16 16 34 5 21 -13 28 -28 13 -28 -4 0 -13 5 -20
12 -19 19 -36 -6 -71 -97 -37 -96 -38 -103 -6 -115 14 -5 25 -15 25 -22 0 -7
-20 -56 -45 -108 -42 -90 -45 -100 -45 -182 0 -89 -12 -144 -30 -133 -6 4 -10
-5 -10 -19 0 -14 -4 -26 -8 -26 -5 0 -7 26 -5 58 l4 57 -30 -56 c-21 -40 -36
-91 -50 -170 -10 -63 -25 -130 -33 -149 -14 -33 -17 -35 -64 -35 -42 0 -49 -3
-52 -21 -2 -12 4 -29 13 -38 21 -20 65 -21 65 -1 0 8 5 15 11 15 13 0 8 -34
-27 -177 -14 -57 -34 -123 -45 -147 -18 -43 -21 -44 -50 -36 -23 7 -31 5 -35
-5 -8 -20 2 -32 33 -40 49 -12 52 -21 27 -70 -13 -27 -25 -73 -28 -113 -10
-106 -27 -201 -38 -208 -7 -4 -8 5 -3 26 5 23 4 30 -4 26 -6 -4 -11 -25 -11
-46 0 -21 -5 -42 -11 -46 -12 -7 -11 15 6 121 11 73 -14 12 -35 -82 -19 -89
-18 -111 4 -80 7 9 17 17 21 17 5 0 -3 -12 -17 -27 -16 -18 -32 -54 -42 -99
-10 -39 -39 -138 -66 -220 -46 -143 -49 -149 -79 -157 -41 -10 -39 -23 7 -38
50 -16 54 -18 45 -32 -12 -20 -9 -41 10 -59 21 -22 22 -64 1 -103 -9 -16 -18
-48 -19 -70 -2 -22 -7 -58 -13 -80 -6 -22 -16 -73 -22 -113 -15 -108 -143
-547 -184 -637 l-36 -78 -42 7 c-24 3 -58 9 -76 12 -42 8 -62 -9 -62 -55 0
-20 -7 -47 -16 -60 -15 -21 -15 -25 5 -52 11 -15 21 -35 21 -43 0 -22 -11 -46
-21 -46 -4 0 -6 7 -3 15 4 8 1 15 -5 15 -6 0 -11 -6 -11 -12 0 -7 -14 -57 -32
-111 -32 -96 -33 -97 -65 -97 -29 0 -33 -4 -42 -37 -5 -21 -15 -74 -21 -118
-22 -163 -30 -185 -68 -203 -54 -26 -62 -46 -29 -72 33 -26 36 -75 9 -165
l-18 -60 -76 -5 c-42 -3 -79 -8 -82 -11 -3 -3 -9 -19 -12 -36 -8 -39 13 -52
92 -60 45 -5 54 -9 49 -22 -4 -9 -11 -38 -16 -65 -9 -49 -32 -96 -47 -96 -4 0
-7 -29 -7 -64 0 -55 -4 -70 -31 -107 -23 -33 -29 -50 -24 -69 3 -14 0 -47 -8
-75 -8 -27 -16 -65 -19 -83 -3 -18 -16 -41 -29 -51 -22 -17 -23 -22 -12 -45
11 -24 8 -30 -27 -66 l-39 -40 21 -27 c20 -26 25 -28 88 -25 87 4 97 -4 80
-66 -25 -96 -35 -102 -121 -81 -39 10 -47 9 -65 -7 -17 -15 -19 -26 -14 -70 7
-51 7 -51 -24 -57 -24 -5 -31 -12 -31 -29 0 -13 7 -31 15 -42 9 -12 11 -25 6
-35 -4 -9 -14 -45 -21 -81 -7 -36 -20 -78 -29 -95 -9 -16 -16 -48 -17 -70 0
-22 -17 -94 -37 -161 -53 -178 -53 -178 -80 -169 -62 20 -81 17 -102 -17 -20
-32 -23 -33 -105 -40 -142 -12 -148 -14 -156 -53 -3 -19 -1 -78 5 -131 8 -70
8 -106 0 -137 -10 -37 -6 -116 15 -312 2 -16 -1 -59 -5 -94 -9 -63 -9 -65 18
-87 20 -16 46 -23 98 -27 46 -3 91 -14 131 -32 l62 -27 45 21 c64 29 72 27 86
-21 20 -67 72 -154 195 -325 62 -87 137 -201 166 -253 87 -153 166 -222 310
-268 27 -8 122 -17 235 -22 105 -5 237 -17 295 -27 72 -12 159 -17 280 -17
189 0 226 7 399 78 262 107 533 363 655 620 44 93 211 526 240 626 9 30 21 89
27 130 18 130 343 1169 472 1505 212 555 545 1097 818 1334 104 91 261 192
307 198 34 4 47 -3 147 -77 170 -127 273 -173 390 -173 77 -1 112 13 157 60
49 51 71 118 76 228 9 198 -45 375 -224 734 -204 411 -366 624 -719 943 -91
82 -128 108 -210 148 -116 56 -169 70 -257 70 -108 -1 -176 -47 -209 -145 -25
-72 -10 -321 26 -436 4 -12 -12 -28 -57 -56 -35 -22 -103 -73 -153 -115 -115
-97 -506 -502 -530 -548 -30 -60 -106 -161 -116 -155 -5 4 -13 -5 -19 -19 -5
-14 -11 -26 -12 -26 -9 0 -107 98 -116 116 -6 12 -9 37 -5 57 12 78 -57 195
-152 256 l-42 26 68 320 c37 176 83 388 102 470 33 149 34 150 63 153 16 2 54
-2 84 -8 103 -22 194 26 219 115 14 51 14 217 1 343 -9 80 -15 100 -33 116
-18 15 -22 29 -22 79 0 52 -3 62 -19 65 -10 2 -29 -2 -42 -9 -13 -7 -27 -9
-31 -6 -3 4 -16 -10 -27 -30 -24 -42 -57 -63 -98 -63 -20 0 -28 5 -28 18 0 9
-7 30 -15 46 -19 36 -19 46 0 46 18 0 20 30 3 30 -16 1 48 60 63 60 7 0 6 -6
-2 -17 -13 -15 -12 -15 9 -4 41 22 76 10 89 -29 l12 -35 0 33 c1 40 -36 82
-72 82 -14 0 -50 -20 -83 -45 -31 -25 -61 -45 -66 -45 -4 0 -8 10 -8 22 0 13
19 40 47 67 26 24 38 41 28 36 -11 -4 -37 -10 -57 -13 -29 -3 -42 1 -61 20
-13 13 -29 22 -35 20 -22 -7 -12 41 13 64 28 26 37 66 10 44 -13 -10 -15 -9
-15 8 0 28 28 41 94 46 60 4 76 -5 96 -58 13 -34 25 -28 16 8 -3 14 -30 44
-59 67 -28 23 -52 46 -52 52 0 11 19 23 79 49 16 7 32 19 34 27 4 11 -1 10
-19 -2 -29 -21 -73 -22 -89 -3 -6 8 -19 12 -27 9 -13 -5 -15 0 -9 33 4 21 14
49 22 62 14 21 20 22 62 16 26 -3 51 -10 56 -15 20 -19 26 -8 9 16 -15 20 -27
24 -64 25 -53 0 -109 -17 -109 -33 0 -30 -23 -90 -41 -108 -32 -32 -49 -24
-49 22 0 41 30 123 38 101 6 -20 32 -13 55 13 18 21 35 27 98 34 42 5 85 14
95 20 17 11 16 12 -6 6 -80 -19 -83 -19 -130 29 l-44 46 34 35 c25 26 30 35
17 35 -47 0 8 47 66 57 42 6 90 -18 106 -54 6 -13 11 -42 11 -63 0 -29 8 -48
30 -74 26 -29 29 -38 20 -61 -5 -14 -10 -52 -11 -83 0 -45 -2 -52 -9 -32 -5
14 -11 46 -15 71 -3 26 -12 55 -21 65 -14 18 -14 18 -10 -6 23 -119 29 -142
40 -153 8 -7 17 -50 21 -95 4 -45 10 -82 14 -82 13 0 39 33 51 65 17 45 15
176 -5 235 -9 28 -35 72 -56 97 -33 38 -39 51 -37 84 1 32 6 39 22 39 29 0 41
10 61 50 44 85 57 202 30 266 -8 20 -33 59 -55 87 -26 32 -38 56 -34 66 14 35
15 46 4 29 -6 -10 -16 -18 -21 -18 -12 0 -8 26 28 172 21 82 31 108 46 112 25
6 30 -12 25 -99 -2 -50 0 -71 7 -64 11 11 11 62 1 279 l-7 145 56 215 c66 256
120 485 130 557 l7 52 -36 18 c-36 17 -39 30 -17 69 15 28 82 94 90 90 14 -9
24 199 11 238 -15 45 -30 57 -77 59 -37 1 -39 2 -35 31 4 25 2 28 -14 22 -89
-37 -167 -24 -223 35 -25 27 -35 63 -15 55 9 -4 14 2 14 16 0 19 4 20 58 14
158 -16 197 -18 187 -8 -12 12 -145 52 -198 59 -37 5 -38 5 -22 29 8 13 11 24
6 24 -5 0 -13 -4 -16 -10 -10 -16 -25 -12 -18 5 3 9 24 25 46 36 31 16 37 23
26 30 -25 17 125 -2 155 -20 59 -33 93 -112 75 -174 -11 -39 -3 -48 13 -13 9
21 9 40 0 85 -16 78 -15 95 9 142 11 22 29 81 40 131 33 151 56 179 131 152
41 -14 44 -14 56 5 13 19 16 19 38 5 31 -21 64 -12 103 27 24 23 31 39 31 69
l0 38 -92 -1 c-85 -1 -153 10 -185 31 -10 6 -10 23 2 78 8 38 20 121 26 184 9
95 17 127 44 185 63 132 68 241 19 395 -61 194 -241 388 -430 465 -31 12 -65
20 -76 17 -18 -4 -16 -8 16 -41 20 -20 36 -47 36 -59 0 -12 5 -22 10 -22 6 0
10 11 10 24 0 52 26 39 135 -64 33 -31 77 -67 97 -79 46 -27 56 -55 32 -83
-43 -47 -64 -43 -89 15 -15 36 -15 38 7 46 l22 8 -23 12 c-16 9 -47 11 -106 6
l-84 -7 -3 33 c-2 28 -7 34 -29 36 -14 1 -47 15 -75 32 -57 35 -176 84 -266
108 -94 27 -491 26 -634 -1 -109 -20 -174 -16 -174 10 0 8 7 17 16 21 14 5 12
8 -7 19 -31 17 -40 17 -33 0 4 -10 -9 -15 -48 -19 -29 -3 -57 -1 -62 4 -16 14
-26 10 -26 -10 0 -11 12 -23 30 -31 17 -7 30 -16 30 -21 0 -25 -311 -54 -485
-45 -228 11 -366 41 -435 93 -44 34 -105 65 -305 158 -54 25 -124 64 -154 87
-42 32 -87 52 -190 85 -135 44 -495 143 -515 143 -6 -1 -31 -13 -56 -28z
m2260 -5094 c-4 -18 -13 -53 -20 -77 -6 -25 -9 -57 -6 -73 5 -23 -73 -352 -86
-363 -2 -1 -14 -6 -27 -10 -22 -7 -23 -5 -16 27 16 72 46 158 56 158 7 0 9
-10 4 -27 -4 -16 -3 -24 1 -20 8 8 43 132 44 155 0 7 -8 12 -17 10 -15 -3 -17
6 -14 72 3 84 23 143 54 165 31 22 36 19 27 -17z"/>
<path d="M3954 12331 c3 -5 16 -11 28 -14 22 -6 22 -5 4 8 -22 17 -40 20 -32
6z"/>
<path d="M4110 12136 c0 -10 9 -16 21 -16 24 0 21 23 -4 28 -10 2 -17 -3 -17
-12z"/>
<path d="M3263 11983 c15 -2 39 -2 55 0 15 2 2 4 -28 4 -30 0 -43 -2 -27 -4z"/>
<path d="M3766 11857 c71 -52 84 -60 84 -53 0 9 -121 96 -132 96 -6 0 16 -19
48 -43z"/>
<path d="M3979 11542 c5 -34 6 -35 9 -8 2 16 0 32 -5 37 -5 5 -7 -7 -4 -29z"/>
<path d="M3902 7058 c-30 -38 -31 -42 -15 -53 15 -11 20 -8 40 24 22 36 30 71
16 70 -5 0 -23 -18 -41 -41z"/>
<path d="M3945 7020 c-4 -12 -5 -24 -2 -27 3 -2 8 5 12 17 4 12 5 24 2 27 -3
2 -8 -5 -12 -17z"/>
<path d="M2354 6402 c-19 -12 -27 -52 -14 -67 17 -20 90 -20 90 -1 0 8 3 22 6
30 4 12 -4 20 -30 31 -41 17 -38 17 -52 7z"/>
<path d="M2279 5951 c-23 -24 -29 -38 -29 -73 0 -41 13 -68 33 -68 4 0 5 5 1
11 -4 8 6 9 37 5 43 -5 43 -5 9 5 -19 6 -41 18 -47 27 -33 42 2 106 62 115
l30 4 -33 2 c-25 1 -41 -7 -63 -28z"/>
</g>
</svg>
