<?xml version="1.0" standalone="no"?>
<!DOCTYPE svg PUBLIC "-//W3C//DTD SVG 20010904//EN"
 "http://www.w3.org/TR/2001/REC-SVG-20010904/DTD/svg10.dtd">
<svg version="1.0" xmlns="http://www.w3.org/2000/svg"
 width="1280.000000pt" height="960.000000pt" viewBox="0 0 1280.000000 960.000000"
 preserveAspectRatio="xMidYMid meet">
<metadata>
Created by potrace 1.15, written by Peter Selinger 2001-2017
</metadata>
<g transform="translate(0.000000,960.000000) scale(0.100000,-0.100000)"
fill="#000000" stroke="none">
<path d="M3450 9186 c0 -56 -12 -106 -26 -106 -7 0 -22 -12 -34 -27 -21 -27
-21 -27 -17 -667 3 -617 4 -644 25 -735 28 -121 28 -129 -5 -142 -44 -17 -285
-66 -423 -86 -179 -25 -683 -25 -855 0 -148 22 -313 58 -468 103 -65 19 -120
34 -123 34 -2 0 -4 -15 -4 -34 0 -53 -11 -96 -26 -96 -7 0 -22 -12 -34 -27
l-21 -27 4 -641 c4 -686 3 -677 58 -836 92 -269 309 -506 643 -703 230 -135
225 -132 248 -183 21 -47 21 -49 4 -148 -20 -120 -20 -188 -1 -275 19 -85 19
-179 0 -277 -19 -99 -19 -190 0 -290 19 -99 19 -177 0 -276 -8 -43 -15 -109
-15 -147 0 -38 7 -104 15 -147 8 -43 15 -105 15 -138 0 -33 -7 -95 -15 -138
-8 -43 -15 -110 -15 -148 0 -70 31 -233 53 -278 16 -33 37 -38 38 -9 0 13 3
17 6 11 2 -7 -3 -47 -11 -89 -18 -84 -20 -161 -7 -183 12 -19 45 -9 111 34 49
32 70 40 93 36 10 -1 9 4 -14 119 -24 117 -22 162 11 313 l24 108 -28 124
c-32 143 -31 182 4 333 24 103 24 103 7 185 -46 213 -46 201 0 414 l17 81 -27
124 c-34 151 -34 171 -1 311 28 122 28 149 -7 291 -30 127 -35 117 94 179 402
195 709 524 816 872 47 151 51 210 51 695 0 252 3 471 6 489 l6 31 38 -48 c78
-97 278 -250 469 -358 154 -87 176 -105 197 -160 17 -44 17 -51 1 -133 -21
-106 -21 -194 -2 -281 19 -85 19 -176 0 -275 -12 -58 -15 -129 -13 -260 l3
-180 -33 -95 c-42 -121 -48 -190 -28 -312 20 -123 20 -163 -1 -312 -15 -114
-15 -128 2 -251 18 -133 17 -201 -5 -355 -13 -91 -2 -172 40 -303 30 -95 65
-145 93 -134 11 4 13 -5 9 -44 l-4 -48 29 8 c16 5 51 20 79 35 27 14 54 26 60
26 8 0 11 37 10 118 0 64 4 125 9 134 7 11 10 -54 11 -210 1 -246 20 -395 70
-571 170 -592 624 -1071 1406 -1487 130 -69 167 -93 168 -109 0 -11 12 -67 26
-125 17 -69 28 -144 31 -220 4 -103 1 -132 -28 -270 -44 -212 -44 -313 -1
-516 42 -196 43 -288 6 -461 l-4 -23 155 0 c117 0 155 3 155 13 0 6 -7 46 -16
87 -22 105 -14 222 30 400 48 195 48 265 0 460 -24 98 -37 178 -40 245 -5 91
-2 114 34 258 l38 157 150 74 c574 281 1024 703 1273 1195 157 311 220 572
222 929 1 99 4 157 9 142 4 -14 8 -51 9 -83 l1 -59 43 25 c23 14 51 27 62 29
16 2 24 21 43 103 46 201 46 219 7 365 -21 77 -19 158 6 253 27 104 27 190 0
294 -26 102 -26 166 0 273 12 47 21 112 21 145 0 33 -9 98 -21 145 -11 47 -21
110 -21 140 0 30 10 93 21 140 12 47 21 112 21 145 0 33 -9 98 -21 145 -11 47
-21 110 -21 140 0 30 10 93 21 140 12 47 21 112 21 145 0 33 -9 98 -21 145
-23 93 -27 150 -10 150 21 0 236 113 318 167 115 77 190 140 296 249 76 78 90
89 93 71 1 -12 6 -276 10 -587 l8 -565 26 -95 c55 -199 146 -351 307 -510 123
-121 214 -188 408 -301 223 -130 232 -146 200 -333 -18 -105 -18 -114 -2 -205
28 -159 28 -182 5 -328 -23 -138 -23 -141 -5 -239 28 -162 29 -185 5 -331 -23
-138 -23 -141 -5 -239 26 -150 29 -202 12 -290 -29 -147 -30 -174 -6 -315 20
-120 21 -144 11 -239 -6 -58 -7 -121 -3 -141 10 -45 30 -81 41 -74 4 3 18 -26
29 -64 l21 -70 67 40 c42 24 70 35 74 28 9 -16 39 101 39 157 0 27 -9 86 -20
132 -25 105 -25 196 0 292 25 95 25 174 0 278 -25 105 -25 196 0 292 25 96 25
168 0 272 -11 46 -20 112 -20 148 0 36 9 102 20 148 25 104 25 176 0 272 -25
96 -25 194 0 295 25 101 25 180 0 275 -11 41 -20 93 -19 115 l0 40 97 45 c200
93 354 203 508 361 181 188 290 379 347 609 20 81 21 116 24 774 l4 689 -23
-6 c-13 -2 -94 -23 -181 -45 -306 -80 -562 -112 -876 -112 -223 0 -327 8 -521
41 -132 22 -389 84 -402 97 -5 5 3 42 17 83 60 172 58 146 62 901 l4 698 -28
-11 c-57 -21 -352 -90 -488 -113 -222 -38 -381 -49 -638 -43 -312 7 -558 46
-844 133 -46 14 -87 24 -89 21 -2 -2 -7 -34 -11 -70 -4 -42 -10 -64 -17 -61
-6 2 -16 0 -22 -4 -31 -20 -34 -54 -34 -366 0 -202 -4 -332 -12 -364 -11 -50
-11 -50 -68 -66 -31 -9 -121 -27 -201 -40 -440 -74 -885 -59 -1294 42 l-110
27 -3 457 -2 457 -28 -10 c-60 -23 -353 -91 -486 -114 -227 -38 -384 -48 -640
-42 -160 4 -274 12 -371 27 -151 23 -376 74 -492 113 l-73 23 0 -30z m520
-559 c8 3 -9 -10 -38 -28 -30 -17 -80 -56 -113 -86 -32 -31 -59 -52 -59 -48 0
4 -7 2 -15 -5 -9 -8 -15 -8 -15 -2 0 40 57 115 124 163 35 26 41 27 70 15 17
-7 38 -11 46 -9z m3860 0 c8 3 -12 -11 -45 -32 -33 -20 -84 -59 -112 -88 -29
-28 -53 -47 -53 -42 -1 6 -10 -1 -21 -14 l-20 -25 7 30 c15 64 69 133 136 174
26 16 34 16 62 5 17 -7 38 -10 46 -8z m-1955 -858 c3 -4 13 -6 23 -2 9 3 -10
-11 -43 -31 -33 -21 -84 -60 -112 -89 -29 -28 -53 -47 -53 -42 -1 6 -10 -1
-21 -14 l-20 -25 7 30 c15 63 58 122 120 162 42 28 86 33 99 11z m-1035 -189
c-13 -8 -13 -10 1 -10 12 0 18 -11 21 -36 4 -37 4 -37 -66 -70 -103 -48 -216
-68 -346 -61 -120 6 -198 25 -285 68 -61 30 -148 97 -110 84 118 -40 175 -48
331 -49 102 -1 170 3 185 10 13 7 61 19 106 28 45 9 99 23 120 31 45 16 64 18
43 5z m3855 0 c-3 -5 0 -10 8 -10 9 0 16 -13 19 -35 4 -35 3 -36 -66 -70 -100
-49 -214 -69 -346 -62 -165 9 -295 53 -385 131 l-40 35 53 -19 c95 -36 225
-53 359 -47 66 3 129 10 140 16 10 6 54 17 99 26 45 8 99 21 120 29 49 18 46
18 39 6z m-3407 -332 c1 -7 6 -94 11 -193 11 -194 30 -291 79 -413 113 -277
336 -495 727 -715 56 -30 108 -64 118 -74 33 -37 49 -92 41 -149 l-6 -54 -67
0 c-37 0 -128 5 -202 10 -450 35 -838 110 -1276 246 l-111 34 -21 89 c-26 111
-26 155 0 261 28 110 28 194 1 301 -35 138 -35 139 50 174 91 38 259 138 357
212 42 32 126 108 186 170 61 62 110 112 111 113 0 0 1 -6 2 -12z m2363 -203
c108 -91 196 -150 359 -244 181 -104 204 -140 176 -278 -20 -97 -20 -201 0
-299 12 -58 15 -100 9 -159 -4 -44 -8 -93 -9 -108 -1 -26 -7 -30 -92 -57 -379
-121 -961 -221 -1431 -246 l-131 -7 -11 39 c-20 78 -31 130 -31 159 0 28 6 33
75 64 543 244 905 729 905 1212 0 42 3 79 7 83 5 4 25 -13 47 -39 21 -25 78
-79 127 -120z m-5685 -54 c-3 -5 6 -8 20 -8 50 0 46 -19 -13 -56 -32 -19 -76
-54 -98 -76 -21 -23 -43 -41 -48 -41 -6 0 -16 -8 -23 -17 -12 -16 -12 -14 -5
13 14 49 37 87 78 125 51 48 103 83 89 60z m7757 -13 l36 -1 -57 -34 c-31 -19
-81 -57 -109 -86 -29 -28 -53 -47 -53 -42 -1 6 -10 -1 -20 -14 -28 -33 -25 -6
6 58 30 60 116 135 144 126 10 -3 33 -6 53 -7z m-2931 -306 c4 -31 2 -34 -56
-62 -103 -50 -176 -65 -321 -64 -148 0 -219 15 -324 69 -36 18 -79 48 -96 66
-16 18 -23 28 -15 22 55 -41 335 -75 455 -54 78 13 228 46 285 64 52 15 65 8
72 -41z m-3875 -738 c-3 -4 0 -13 8 -20 7 -8 12 -26 11 -40 -3 -31 -41 -55
-144 -92 -71 -24 -89 -26 -232 -26 -142 0 -162 2 -237 27 -44 15 -109 46 -142
68 -63 42 -90 68 -55 55 98 -39 173 -50 343 -50 131 -1 175 2 179 12 2 6 16
12 30 12 22 1 93 18 241 59 2 0 2 -2 -2 -5z m7699 -3 c-3 -5 0 -11 8 -14 7 -3
15 -19 18 -36 2 -16 1 -28 -4 -25 -4 3 -8 0 -8 -6 0 -18 -119 -68 -202 -84
-98 -20 -227 -20 -326 -1 -93 19 -226 82 -267 126 -16 18 -23 28 -15 22 9 -7
54 -22 100 -35 72 -19 109 -23 246 -23 100 0 170 4 185 11 13 7 61 19 106 28
45 9 99 23 120 31 47 17 45 17 39 6z m-6027 -338 c0 -110 -3 -142 -10 -123
-17 42 -22 152 -10 213 7 31 14 57 17 57 2 0 4 -66 3 -147z m-4 -567 c0 -131
-15 -150 -18 -23 -2 60 8 147 16 147 1 0 2 -56 2 -124z m2607 -185 c142 -69
250 -95 403 -94 114 0 186 13 270 49 19 8 19 7 -2 -27 -27 -45 -101 -95 -172
-116 -84 -26 -253 -23 -355 5 -201 57 -351 175 -391 306 -26 87 -19 87 64 5
65 -64 97 -86 183 -128z m-1286 134 c-10 -53 -79 -147 -143 -194 -69 -52 -174
-103 -263 -127 -89 -24 -265 -25 -341 -1 -69 21 -144 71 -170 113 l-19 30 67
-22 c249 -84 612 6 806 199 64 64 74 64 63 2z m-1317 -527 c0 -105 -3 -128
-11 -108 -19 44 -13 240 7 240 3 0 5 -60 4 -132z m2006 -1179 c389 -47 694
-249 750 -494 l7 -30 -24 21 c-39 37 -165 114 -242 149 -99 45 -211 79 -347
107 -149 29 -461 32 -606 5 -237 -45 -448 -131 -597 -244 l-49 -37 6 34 c13
63 65 155 123 214 207 212 597 322 979 275z"/>
</g>
</svg>
