<?xml version="1.0" standalone="no"?>
<!DOCTYPE svg PUBLIC "-//W3C//DTD SVG 20010904//EN"
 "http://www.w3.org/TR/2001/REC-SVG-20010904/DTD/svg10.dtd">
<svg version="1.0" xmlns="http://www.w3.org/2000/svg"
 width="1280.000000pt" height="790.000000pt" viewBox="0 0 1280.000000 790.000000"
 preserveAspectRatio="xMidYMid meet">
<metadata>
Created by potrace 1.15, written by Peter Selinger 2001-2017
</metadata>
<g transform="translate(0.000000,790.000000) scale(0.100000,-0.100000)"
fill="#000000" stroke="none">
<path d="M4 7554 c25 -1284 157 -2446 402 -3539 273 -1221 686 -2267 1170
-2965 305 -440 603 -723 939 -890 243 -121 380 -155 625 -154 142 0 181 4 277
27 128 29 263 80 373 140 556 301 1071 978 1483 1947 603 1420 958 3348 994
5403 l6 377 -3138 0 -3138 0 7 -346z m791 -1479 c103 -13 313 -58 440 -95 346
-101 621 -250 813 -439 351 -346 532 -744 456 -1002 -89 -299 -450 -347 -846
-112 -209 125 -455 352 -571 529 -164 247 -288 587 -352 961 -30 173 -30 176
-7 170 9 -3 40 -8 67 -12z m4745 -149 c-69 -410 -212 -782 -399 -1034 -104
-140 -310 -328 -476 -435 -269 -172 -534 -225 -710 -141 -70 32 -147 116 -176
192 -32 81 -33 234 -1 347 33 118 129 304 223 430 107 144 307 343 424 420
251 166 598 294 960 354 166 28 170 28 173 12 2 -7 -6 -73 -18 -145z m-3714
-3005 c168 -308 493 -549 884 -655 195 -52 495 -66 695 -32 416 71 766 279
974 581 60 86 126 215 143 279 7 25 15 46 18 46 12 0 31 -125 37 -235 9 -176
-25 -332 -109 -502 -170 -347 -526 -611 -956 -709 -642 -144 -1322 100 -1640
589 -137 212 -201 462 -174 685 6 53 17 115 23 137 l11 40 29 -79 c16 -43 45
-108 65 -145z"/>
<path d="M6533 7523 c45 -2551 580 -4881 1444 -6281 258 -419 576 -773 871
-970 183 -122 345 -195 535 -239 96 -23 135 -27 277 -27 245 -1 382 33 625
154 486 242 928 760 1324 1550 720 1438 1141 3511 1187 5844 l7 346 -3138 0
-3138 0 6 -377z m2278 -1062 c140 -53 261 -174 398 -401 44 -71 48 -84 41
-115 -4 -20 -16 -48 -26 -63 -130 -198 -673 -550 -1575 -1021 -86 -44 -159
-81 -162 -81 -7 0 -5 17 30 190 118 589 343 1065 613 1295 109 94 280 182 405
211 81 18 205 12 276 -15z m2025 -6 c166 -55 339 -171 449 -301 192 -225 354
-580 459 -999 34 -135 80 -365 74 -371 -5 -4 -335 164 -498 253 -848 465
-1270 772 -1270 924 0 52 141 263 244 364 128 127 226 168 377 161 57 -3 113
-14 165 -31z m-1042 -2936 c422 -37 785 -208 1048 -494 52 -57 147 -194 182
-263 79 -156 122 -360 113 -536 -6 -111 -25 -236 -37 -236 -3 0 -11 21 -18 47
-16 60 -88 204 -139 279 -509 744 -1729 852 -2399 212 -151 -145 -244 -282
-310 -457 l-32 -85 -11 40 c-6 21 -16 87 -23 146 -22 194 13 380 107 573 225
465 747 766 1355 784 25 0 99 -4 164 -10z"/>
</g>
</svg>
