<?xml version="1.0" standalone="no"?>
<!DOCTYPE svg PUBLIC "-//W3C//DTD SVG 20010904//EN"
 "http://www.w3.org/TR/2001/REC-SVG-20010904/DTD/svg10.dtd">
<svg version="1.0" xmlns="http://www.w3.org/2000/svg"
 width="1280.000000pt" height="839.000000pt" viewBox="0 0 1280.000000 839.000000"
 preserveAspectRatio="xMidYMid meet">
<metadata>
Created by potrace 1.15, written by Peter Selinger 2001-2017
</metadata>
<g transform="translate(0.000000,839.000000) scale(0.100000,-0.100000)"
fill="#000000" stroke="none">
<path d="M11192 8374 c-98 -36 -190 -158 -243 -319 -20 -63 -23 -94 -27 -315
-3 -211 -6 -248 -20 -264 -10 -10 -69 -60 -132 -111 -505 -404 -1340 -912
-1873 -1139 -396 -169 -1415 -521 -2827 -976 -190 -62 -453 -147 -585 -190
-132 -43 -292 -95 -355 -116 -638 -205 -1641 -566 -2062 -743 -676 -284 -1228
-589 -1475 -815 -173 -158 -318 -441 -379 -736 -10 -47 -18 -86 -20 -88 -1 -2
-100 -29 -220 -61 l-219 -58 -30 19 c-16 10 -40 18 -53 18 -28 0 -84 -27 -95
-46 -12 -21 -224 -19 -294 3 -78 25 -133 9 -193 -55 -99 -106 -117 -329 -45
-543 62 -181 159 -279 278 -279 60 0 132 37 155 81 8 13 58 49 114 81 97 56
103 57 139 47 51 -16 106 11 134 65 20 39 22 40 155 77 74 21 141 38 148 39 7
0 12 -14 12 -37 0 -94 52 -340 107 -506 35 -106 145 -327 220 -442 248 -379
658 -726 998 -845 121 -42 300 -87 426 -106 134 -21 363 -14 499 15 52 11 286
56 520 101 2578 491 3999 812 5540 1251 452 129 591 181 783 290 241 137 390
285 500 498 141 270 194 544 184 944 -10 423 -85 774 -220 1042 -138 274 -306
438 -592 577 l-110 53 80 8 c156 15 562 11 755 -7 198 -18 578 -64 751 -92
l107 -16 57 -69 c88 -106 262 -269 347 -326 116 -77 174 -97 288 -98 85 0 101
3 153 28 162 80 223 317 221 867 -1 471 -86 1004 -229 1435 -119 358 -393 973
-556 1247 -189 319 -391 528 -576 598 -76 29 -184 35 -241 14z m-2742 -3839
c0 -2 -26 -22 -57 -43 -53 -36 -122 -77 -425 -251 -59 -34 -144 -77 -190 -97
-95 -41 -775 -213 -1788 -454 -118 -28 -298 -71 -400 -95 -338 -80 -1027 -242
-1725 -404 -379 -88 -924 -214 -1209 -281 -286 -66 -521 -118 -524 -116 -11
12 191 199 270 250 207 134 526 272 837 360 615 176 2104 508 3841 857 437 88
919 186 1070 218 288 62 300 64 300 56z m1095 -305 c282 -32 452 -140 555
-355 51 -105 132 -350 155 -470 49 -252 14 -646 -74 -830 -106 -221 -285 -355
-621 -464 -180 -58 -1029 -275 -1565 -400 -241 -56 -551 -126 -847 -192 l-327
-72 -50 46 c-27 26 -47 48 -43 51 4 2 23 7 42 11 65 13 673 155 905 211 511
124 1273 323 1412 370 144 48 291 151 360 252 54 79 73 144 73 248 0 101 -25
188 -78 270 -48 74 -96 115 -187 159 -96 47 -171 65 -300 72 -102 5 -160 -2
-785 -92 -725 -104 -839 -116 -865 -95 -29 24 -46 70 -61 163 -8 51 -24 121
-35 156 -11 35 -17 67 -12 71 4 4 123 38 263 75 700 186 913 262 1125 400 91
59 250 183 311 241 83 81 271 155 439 173 114 12 111 12 210 1z m-3247 -1532
c47 -211 52 -241 42 -278 -22 -83 -74 -102 -135 -49 -38 34 -39 37 -90 248
l-35 144 30 37 c37 47 80 137 80 170 l1 25 27 -30 c23 -26 35 -64 80 -267z
m607 95 c14 -65 31 -134 37 -153 34 -111 107 -197 194 -230 105 -39 150 -33
954 120 510 98 746 139 771 135 50 -9 95 -39 103 -69 9 -36 -18 -83 -57 -102
-26 -13 -2097 -465 -2104 -460 -1 1 4 20 12 41 8 22 14 59 15 83 0 34 -65 542
-85 667 -4 26 0 33 27 50 18 11 42 23 53 27 50 16 52 14 80 -109z m-1317 -58
c16 -13 34 -37 40 -52 10 -26 113 -517 128 -609 5 -36 2 -47 -25 -84 -31 -43
-71 -137 -71 -168 0 -30 -14 -40 -61 -47 l-45 -7 -12 44 c-86 331 -182 749
-179 778 5 44 80 153 110 162 47 13 85 8 115 -17z m-1018 -35 c29 -56 75 -106
139 -150 l56 -38 84 -428 c46 -236 86 -434 88 -440 2 -6 -37 -20 -95 -33 -218
-48 -313 -141 -299 -292 10 -110 78 -176 207 -199 75 -14 107 -10 298 36 79
19 148 34 153 34 5 0 17 -17 28 -38 l19 -38 -456 -98 c-251 -54 -638 -138
-859 -187 -484 -107 -555 -119 -703 -119 -261 1 -429 77 -651 299 -331 331
-562 767 -581 1095 l-3 60 150 38 c250 63 929 222 1295 302 573 127 1074 234
1092 235 11 1 25 -14 38 -39z m1755 -1300 c22 -43 23 -51 10 -55 -8 -3 -22 -7
-30 -10 -13 -4 -83 60 -93 85 -1 4 17 12 40 17 24 6 44 11 45 12 2 0 14 -22
28 -49z m-512 -112 c14 -24 22 -46 19 -49 -4 -4 -27 -10 -52 -13 -43 -6 -47
-5 -83 32 l-39 39 59 16 c32 8 61 15 64 16 4 1 18 -18 32 -41z"/>
</g>
</svg>
