<?xml version="1.0" standalone="no"?>
<!DOCTYPE svg PUBLIC "-//W3C//DTD SVG 20010904//EN"
 "http://www.w3.org/TR/2001/REC-SVG-20010904/DTD/svg10.dtd">
<svg version="1.0" xmlns="http://www.w3.org/2000/svg"
 width="1247.000000pt" height="1280.000000pt" viewBox="0 0 1247.000000 1280.000000"
 preserveAspectRatio="xMidYMid meet">
<metadata>
Created by potrace 1.15, written by Peter Selinger 2001-2017
</metadata>
<g transform="translate(0.000000,1280.000000) scale(0.100000,-0.100000)"
fill="#000000" stroke="none">
<path d="M9390 12789 c-1964 -24 -2600 -30 -3660 -35 -680 -3 -1216 -9 -1272
-15 -261 -27 -696 -235 -1263 -603 -831 -540 -1554 -1184 -1629 -1454 -13 -45
-22 -216 -46 -852 -5 -140 -13 -577 -16 -970 l-7 -716 -36 18 c-38 19 -181 41
-204 32 -8 -3 -27 0 -42 6 -16 6 -84 15 -150 20 -365 25 -582 -78 -670 -321
l-23 -64 -93 -3 c-148 -4 -159 -16 -159 -182 0 -102 2 -110 26 -139 l26 -31
209 0 c210 0 210 0 234 25 24 23 25 30 25 145 0 67 -5 130 -10 140 -8 15 -4
33 20 81 63 124 153 190 285 208 38 6 71 9 73 7 1 -2 -8 -20 -22 -41 -14 -20
-35 -62 -48 -93 -23 -56 -23 -65 -23 -421 l0 -363 -83 -24 c-103 -30 -202 -78
-238 -116 l-28 -28 3 -348 c2 -298 5 -351 19 -372 31 -49 85 -79 197 -111 44
-12 82 -24 84 -25 2 -2 -15 -25 -38 -52 -81 -96 -192 -258 -236 -347 -45 -90
-45 -91 -45 -196 0 -58 4 -175 9 -260 13 -200 29 -560 41 -876 9 -243 4 -362
-20 -508 -5 -33 -17 -105 -25 -160 -9 -55 -22 -131 -30 -170 -7 -38 -23 -122
-35 -185 -29 -153 -46 -236 -70 -350 -12 -52 -25 -115 -30 -140 -5 -25 -28
-128 -51 -230 -46 -208 -52 -232 -69 -310 -7 -30 -16 -71 -20 -90 -4 -19 -24
-109 -44 -200 -45 -202 -52 -233 -65 -290 -18 -77 -60 -309 -80 -440 -11 -69
-27 -165 -36 -215 -24 -131 -26 -473 -3 -575 29 -125 48 -181 90 -262 71 -138
192 -231 348 -269 46 -12 959 -14 5595 -14 5280 0 5543 1 5613 18 434 105 694
370 778 794 20 105 29 364 15 493 -16 159 -48 368 -65 433 -28 102 -156 549
-186 647 -45 150 -119 396 -150 500 -30 101 -103 344 -150 500 -52 170 -127
442 -160 575 -31 124 -32 136 -26 265 3 74 10 185 16 245 51 594 76 989 67
1099 -4 44 -15 88 -31 120 -29 59 -149 240 -246 371 -36 50 -69 95 -73 102 -5
8 10 15 46 23 63 13 172 62 205 92 22 21 22 25 22 264 l0 242 89 4 c145 5 131
-64 131 639 l0 598 -22 15 c-18 13 -56 16 -205 16 -170 0 -184 -1 -203 -20
-19 -19 -20 -33 -20 -240 l0 -220 -135 0 -135 0 0 118 c0 64 -5 146 -10 181
-20 118 -106 248 -195 293 -33 17 -59 21 -150 21 -123 1 -171 -11 -227 -54
-27 -21 -48 -29 -77 -29 l-41 0 0 2345 0 2345 -262 -2 c-145 -1 -540 -5 -878
-9z m-7890 -4969 l0 -70 -100 0 -100 0 0 33 c0 17 3 49 6 70 l7 37 93 0 94 0
0 -70z m9334 39 c3 -17 6 -49 6 -70 l0 -39 -155 0 -155 0 0 70 0 70 149 0 149
0 6 -31z m666 -660 c0 -51 -3 -60 -15 -55 -9 3 -72 18 -140 33 -124 27 -125
27 -125 55 l0 28 140 0 140 0 0 -61z"/>
</g>
</svg>
