<?xml version="1.0" standalone="no"?>
<!DOCTYPE svg PUBLIC "-//W3C//DTD SVG 20010904//EN"
 "http://www.w3.org/TR/2001/REC-SVG-20010904/DTD/svg10.dtd">
<svg version="1.0" xmlns="http://www.w3.org/2000/svg"
 width="650.000000pt" height="1280.000000pt" viewBox="0 0 650.000000 1280.000000"
 preserveAspectRatio="xMidYMid meet">
<metadata>
Created by potrace 1.15, written by Peter Selinger 2001-2017
</metadata>
<g transform="translate(0.000000,1280.000000) scale(0.100000,-0.100000)"
fill="#000000" stroke="none">
<path d="M4402 12783 c-5 -10 -24 -62 -41 -115 l-33 -98 -36 0 c-33 0 -40 -5
-65 -44 -27 -43 -28 -44 -65 -35 -53 12 -100 11 -108 -3 -4 -6 -13 -37 -20
-67 -13 -54 -12 -57 11 -91 14 -20 25 -41 25 -47 0 -6 26 -14 58 -18 85 -10
89 -14 68 -69 -23 -61 -16 -79 29 -74 20 2 35 0 35 -7 0 -5 -11 -50 -24 -100
l-23 -90 -47 3 c-61 4 -86 -16 -86 -67 0 -50 11 -62 59 -68 29 -4 41 -10 37
-19 -3 -7 -8 -29 -12 -48 -3 -20 -9 -36 -13 -36 -3 0 -64 10 -136 22 -102 17
-133 26 -147 42 -14 18 -20 19 -37 9 -34 -21 -42 -16 -36 21 10 51 -1 73 -50
102 -106 62 -253 13 -306 -101 -24 -52 -23 -99 2 -155 44 -97 107 -135 216
-128 83 6 103 18 103 62 0 17 4 37 9 45 7 11 11 9 20 -8 13 -23 32 -27 59 -10
12 7 50 5 140 -9 67 -10 124 -21 127 -24 2 -2 1 -17 -4 -34 -7 -27 -11 -29
-58 -29 -70 0 -85 -15 -81 -84 l3 -56 43 -3 c47 -3 49 -10 31 -74 -5 -21 -15
-38 -21 -38 -7 0 -55 8 -107 17 -68 12 -101 23 -112 36 -13 16 -19 18 -37 8
-30 -16 -31 -15 -21 31 9 37 7 44 -17 69 -83 87 -234 70 -317 -34 -76 -93 -29
-255 88 -308 46 -21 84 -23 154 -8 49 10 50 11 57 55 6 45 17 56 28 29 6 -17
37 -20 53 -4 7 7 39 6 109 -6 55 -10 100 -18 101 -19 1 0 -7 -48 -18 -105 -17
-94 -17 -106 -3 -130 14 -24 8 -60 -90 -566 -58 -297 -163 -839 -233 -1203
l-128 -664 -44 6 c-24 3 -98 6 -165 6 l-121 1 -154 387 c-503 1264 -945 2181
-1415 2936 -129 207 -135 212 -251 203 -71 -5 -194 -32 -208 -46 -4 -4 -3 -21
3 -37 7 -16 15 -49 19 -74 5 -25 302 -801 661 -1725 359 -924 663 -1708 676
-1742 l24 -62 -48 -28 c-349 -201 -607 -619 -663 -1076 -18 -149 -7 -448 24
-632 14 -82 27 -166 30 -185 6 -47 -19 -111 -78 -199 -43 -64 -48 -78 -47
-122 0 -28 8 -62 17 -76 21 -31 71 -52 111 -46 57 9 143 -16 184 -53 48 -44
105 -152 126 -240 24 -103 14 -342 -20 -489 -51 -216 -148 -474 -235 -623 -81
-140 -197 -264 -291 -312 -82 -43 -171 -43 -295 0 -32 11 -69 20 -82 20 -40 0
-79 -27 -98 -66 -17 -35 -17 -40 -1 -91 29 -91 30 -141 6 -213 -21 -62 -43
-113 -228 -507 -144 -306 -223 -546 -258 -785 -24 -164 -15 -397 20 -533 14
-55 26 -111 26 -126 0 -93 159 -383 317 -579 157 -194 482 -401 784 -501 139
-45 417 -117 644 -165 88 -19 135 -32 104 -29 -56 6 -332 -16 -427 -35 -175
-33 -89 -66 246 -95 779 -66 2410 -31 2495 54 15 15 9 18 -59 35 -103 26 -435
53 -720 58 l-122 2 81 28 c425 147 833 494 1007 856 19 39 37 72 40 72 3 0 34
-77 69 -170 35 -94 67 -170 71 -170 3 0 55 -122 115 -270 60 -149 114 -270
120 -270 6 0 78 27 160 60 82 33 150 60 151 60 2 0 24 -65 51 -145 26 -80 50
-145 54 -145 8 0 194 140 197 149 3 10 -628 1759 -926 2564 l-70 188 40 46
c68 79 73 130 15 179 -28 24 -37 26 -87 21 l-56 -6 -233 618 -232 618 16 79
c37 176 106 346 172 424 65 76 139 98 246 73 65 -16 71 -16 102 1 53 29 70 93
40 146 -20 35 -18 107 4 171 10 30 52 133 93 229 170 397 212 561 212 825 0
168 -14 253 -70 424 -140 428 -420 736 -823 905 -95 40 -290 104 -364 120 -25
6 -27 9 -22 44 6 41 265 2383 265 2396 0 4 9 4 20 1 15 -5 20 -2 21 12 1 39
28 271 37 315 5 26 6 51 2 55 -3 4 -5 32 -2 61 3 39 8 52 17 48 8 -3 41 -8 74
-12 39 -4 62 -12 66 -21 4 -11 14 -14 35 -10 l30 6 -6 -43 c-6 -40 -4 -45 27
-69 106 -81 244 -60 317 47 26 40 32 58 32 103 0 91 -61 177 -149 208 -55 19
-81 19 -131 -1 -35 -14 -42 -22 -52 -62 -11 -44 -12 -45 -26 -24 -17 26 -35
28 -52 7 -7 -8 -22 -13 -34 -10 -11 2 -46 9 -76 15 l-56 11 9 62 c4 34 10 102
12 151 2 48 6 90 8 92 10 10 153 -19 160 -32 10 -17 39 -18 55 -2 18 18 22 6
12 -37 -8 -35 -7 -42 13 -57 105 -84 234 -76 316 18 40 44 51 73 51 126 0 121
-132 234 -247 213 -58 -10 -80 -29 -88 -75 -7 -41 -13 -48 -32 -29 -5 5 -52
12 -104 14 -125 4 -127 5 -122 63 11 130 11 131 46 134 32 3 32 4 35 61 l3 59
50 -7 c39 -5 49 -4 49 7 0 10 9 13 29 10 28 -4 28 -4 44 80 15 80 15 84 -4
100 -18 15 -19 22 -9 59 6 23 8 45 3 49 -4 4 -41 12 -82 19 -41 6 -78 14 -83
17 -4 3 -8 58 -8 123 0 113 -1 118 -23 128 -13 6 -35 9 -48 6 -16 -3 -30 1
-38 11 -16 19 -34 20 -62 4 -17 -11 -22 -10 -30 5 -6 9 -21 17 -34 17 -13 0
-28 -8 -33 -17z m-2861 -1112 c22 -23 196 -347 338 -631 286 -574 608 -1304
1024 -2325 l114 -280 -101 -21 c-100 -21 -236 -64 -287 -90 l-26 -13 -81 207
c-383 984 -1195 3080 -1199 3093 -3 11 14 22 64 42 37 14 77 28 88 30 22 5 56
-1 66 -12z m3145 -7551 c63 -173 114 -319 114 -325 -1 -5 -24 15 -51 45 -106
116 -185 335 -194 540 -7 128 -16 146 131 -260z m929 -2629 c4 -15 3 -21 -3
-17 -8 5 -72 -11 -72 -18 0 -1 16 -41 35 -89 19 -48 35 -99 35 -114 0 -39 -34
-91 -65 -99 -67 -17 -114 24 -159 136 -22 54 -40 84 -48 81 -7 -2 -19 -4 -26
-5 -9 -1 -37 58 -76 160 -61 157 -62 162 -49 200 55 156 77 344 71 602 l-5
205 177 -509 c97 -280 180 -520 185 -533z m71 -439 c83 -67 39 -195 -66 -195
-96 0 -143 105 -79 178 27 31 37 35 78 35 28 0 54 -7 67 -18z"/>
</g>
</svg>
