<?xml version="1.0" standalone="no"?>
<!DOCTYPE svg PUBLIC "-//W3C//DTD SVG 20010904//EN"
 "http://www.w3.org/TR/2001/REC-SVG-20010904/DTD/svg10.dtd">
<svg version="1.0" xmlns="http://www.w3.org/2000/svg"
 width="1280.000000pt" height="988.000000pt" viewBox="0 0 1280.000000 988.000000"
 preserveAspectRatio="xMidYMid meet">
<metadata>
Created by potrace 1.15, written by Peter Selinger 2001-2017
</metadata>
<g transform="translate(0.000000,988.000000) scale(0.100000,-0.100000)"
fill="#000000" stroke="none">
<path d="M3470 9854 c0 -98 -86 -489 -166 -751 -129 -425 -384 -966 -651
-1376 l-65 -100 -376 376 c-420 420 -393 401 -488 351 -65 -34 -169 -137 -199
-198 -48 -96 -67 -69 345 -481 203 -203 370 -375 370 -382 0 -27 -413 -269
-705 -413 -463 -227 -895 -369 -1385 -455 -47 -8 -97 -15 -112 -15 -15 0 -29
-4 -32 -8 -4 -7 83 -218 204 -492 53 -122 204 -420 271 -537 357 -623 723
-892 1851 -1361 l95 -40 12 122 c74 732 322 1383 765 2005 44 63 84 119 88
125 5 7 567 -548 1388 -1369 l1380 -1380 -242 -242 c-200 -201 -245 -240 -259
-232 -29 15 -47 11 -81 -19 -22 -20 -31 -38 -31 -59 0 -26 -4 -30 -30 -30 -40
0 -91 -54 -84 -89 4 -21 1 -24 -28 -24 -41 0 -89 -51 -82 -87 4 -20 0 -23 -28
-23 -39 0 -85 -47 -85 -86 0 -19 -5 -24 -26 -24 -34 0 -84 -50 -84 -84 0 -21
-5 -26 -24 -26 -39 0 -86 -46 -86 -85 0 -28 -3 -32 -23 -28 -36 7 -87 -41 -87
-82 0 -28 -3 -32 -23 -28 -36 7 -87 -41 -87 -81 0 -30 -3 -33 -31 -33 -40 0
-81 -41 -83 -82 -1 -28 -4 -31 -33 -31 -39 0 -87 -51 -80 -87 4 -20 0 -23 -28
-23 -39 0 -85 -47 -85 -86 0 -19 -5 -24 -26 -24 -34 0 -84 -50 -84 -84 0 -21
-5 -26 -26 -26 -36 0 -84 -50 -84 -88 0 -25 -3 -29 -23 -25 -36 7 -87 -41 -87
-82 0 -28 -3 -32 -23 -28 -36 7 -87 -41 -87 -81 0 -30 -3 -33 -31 -33 -41 0
-82 -41 -82 -82 0 -28 -3 -31 -33 -31 -40 0 -88 -51 -81 -87 4 -20 0 -23 -28
-23 -39 0 -85 -47 -85 -86 0 -19 -5 -24 -26 -24 -34 0 -84 -50 -84 -84 0 -21
-5 -26 -26 -26 -36 0 -84 -50 -84 -88 0 -26 -3 -29 -25 -25 -34 7 -85 -44 -85
-85 0 -25 -3 -29 -23 -25 -36 7 -87 -41 -87 -81 0 -30 -3 -33 -30 -33 -52 0
-98 -60 -81 -105 7 -19 1 -31 -36 -71 -40 -42 -44 -51 -37 -80 20 -94 125
-221 224 -270 77 -39 102 -36 160 19 28 26 51 41 55 35 24 -40 121 26 113 77
-4 26 -1 28 30 28 42 0 82 41 82 84 0 21 4 28 14 24 19 -7 73 21 86 45 5 11
10 31 10 45 0 22 4 26 30 26 41 0 80 39 80 80 0 27 3 30 30 30 49 0 87 47 81
97 -1 8 9 13 24 13 15 0 35 5 46 10 24 13 52 67 45 86 -4 10 2 14 20 14 14 0
34 5 45 10 25 14 52 66 44 89 -4 15 0 17 23 13 43 -6 85 34 86 81 1 30 4 36
18 31 22 -7 74 20 88 45 5 11 10 31 10 45 0 18 4 24 14 20 19 -7 73 21 86 45
5 11 10 31 10 45 0 22 4 26 30 26 41 0 80 39 80 80 0 27 3 30 30 30 41 0 80
39 80 80 0 26 4 30 26 30 14 0 34 5 46 11 22 12 52 74 43 89 -4 6 6 10 20 10
15 0 35 5 46 10 25 14 52 66 44 89 -4 15 0 17 23 13 43 -6 85 34 86 81 1 30 4
36 18 31 22 -7 74 20 88 45 5 11 10 31 10 45 0 18 4 24 14 20 19 -7 73 21 86
45 5 11 10 31 10 46 0 15 5 25 13 24 50 -6 97 32 97 81 0 27 3 30 30 30 41 0
80 39 80 80 0 27 3 30 30 30 49 0 87 47 81 98 -1 7 9 12 24 12 15 0 35 5 46
10 25 14 51 66 44 89 -4 15 -1 17 19 14 13 -3 33 0 45 6 26 14 54 67 48 91 -3
13 0 16 13 13 24 -6 77 22 91 48 6 12 8 35 5 53 -6 30 4 41 234 271 l240 240
240 -240 c230 -230 240 -241 234 -271 -3 -18 -1 -41 5 -53 14 -26 67 -54 91
-48 13 3 16 0 13 -13 -6 -24 22 -77 48 -91 12 -6 32 -9 45 -6 20 3 23 1 19
-14 -7 -23 19 -75 44 -89 11 -5 31 -10 46 -10 15 0 25 -5 24 -13 -6 -50 32
-97 81 -97 27 0 30 -3 30 -30 0 -41 39 -80 80 -80 27 0 30 -3 30 -30 0 -49 47
-87 98 -81 7 1 12 -9 12 -24 0 -15 5 -35 10 -46 14 -25 66 -51 89 -44 15 4 17
1 14 -19 -3 -13 0 -33 6 -45 14 -26 67 -54 89 -47 14 5 17 -1 18 -31 1 -47 43
-87 86 -81 23 4 27 2 23 -13 -8 -23 19 -75 44 -89 11 -5 31 -10 46 -10 14 0
24 -4 20 -10 -9 -15 21 -77 43 -89 12 -6 32 -11 46 -11 22 0 26 -4 26 -30 0
-41 39 -80 80 -80 27 0 30 -3 30 -30 0 -41 39 -80 80 -80 26 0 30 -4 30 -26 0
-14 5 -34 10 -45 13 -24 67 -52 86 -45 10 4 14 -3 14 -24 0 -43 40 -84 81 -84
32 0 34 -2 35 -35 1 -45 44 -85 86 -79 23 4 27 2 23 -13 -8 -23 19 -75 44 -89
11 -5 31 -10 45 -10 18 0 24 -4 20 -14 -7 -19 21 -73 45 -86 11 -5 31 -10 45
-10 22 0 26 -4 26 -30 0 -41 39 -80 80 -80 27 0 30 -3 30 -30 0 -41 39 -80 80
-80 26 0 30 -4 30 -26 0 -14 5 -34 10 -45 13 -24 67 -52 86 -45 10 4 14 -3 14
-24 0 -43 40 -84 82 -84 31 0 34 -2 30 -28 -3 -21 4 -35 27 -59 28 -27 37 -31
68 -26 32 6 41 2 80 -33 51 -48 78 -50 153 -13 99 49 204 176 224 270 7 29 3
38 -37 80 -37 40 -43 52 -36 71 17 45 -29 105 -81 105 -27 0 -30 3 -30 33 0
40 -51 88 -87 81 -20 -4 -23 0 -23 28 0 41 -51 89 -87 82 -20 -4 -23 0 -23 25
0 38 -48 88 -84 88 -21 0 -26 5 -26 26 0 34 -50 84 -84 84 -21 0 -26 5 -26 24
0 39 -46 86 -85 86 -28 0 -32 3 -28 23 7 36 -41 87 -80 87 -29 0 -32 3 -33 31
-2 41 -43 82 -83 82 -28 0 -31 3 -31 33 0 40 -51 88 -87 81 -20 -4 -23 0 -23
28 0 41 -51 89 -87 82 -20 -4 -23 0 -23 25 0 38 -48 88 -84 88 -21 0 -26 5
-26 26 0 34 -50 84 -84 84 -21 0 -26 5 -26 24 0 39 -46 86 -85 86 -28 0 -32 3
-28 23 7 36 -41 87 -82 87 -29 0 -32 3 -28 24 7 35 -44 89 -85 89 -29 0 -32 3
-32 33 0 40 -51 88 -87 81 -20 -4 -23 0 -23 28 0 41 -51 89 -87 82 -20 -4 -23
0 -23 28 0 39 -47 85 -86 85 -19 0 -24 5 -24 26 0 34 -50 84 -84 84 -21 0 -26
5 -26 24 0 39 -46 86 -85 86 -28 0 -32 3 -28 23 7 36 -41 87 -82 87 -29 0 -32
3 -28 24 7 35 -44 89 -84 89 -26 0 -30 4 -30 30 0 21 -9 39 -31 59 -34 30 -52
34 -81 19 -14 -8 -59 31 -259 232 l-242 242 1380 1380 c821 821 1383 1376
1388 1369 4 -6 44 -62 88 -125 357 -502 592 -1036 708 -1609 20 -97 42 -255
57 -401 l12 -117 95 40 c1128 469 1494 738 1851 1361 67 117 218 415 271 537
121 274 208 485 204 492 -3 4 -17 8 -32 8 -15 0 -65 7 -112 15 -484 85 -914
225 -1375 450 -281 136 -715 391 -715 418 0 7 167 179 370 382 412 412 393
385 345 481 -30 61 -134 164 -199 198 -95 50 -68 69 -488 -351 l-376 -376 -65
99 c-316 488 -573 1061 -710 1584 -48 183 -107 483 -107 544 0 14 -3 26 -7 26
-19 0 -491 -209 -693 -307 -864 -420 -1142 -735 -1619 -1843 l-118 -275 111
-13 c602 -68 1047 -204 1546 -473 207 -111 599 -369 600 -394 0 -6 -619 -629
-1375 -1385 l-1375 -1375 -1375 1375 c-756 756 -1375 1379 -1375 1385 1 25
394 283 600 394 498 269 944 405 1546 473 l111 13 -118 275 c-477 1108 -754
1423 -1619 1843 -202 98 -674 307 -693 307 -4 0 -7 -12 -7 -26z"/>
</g>
</svg>
