<?xml version="1.0" standalone="no"?>
<!DOCTYPE svg PUBLIC "-//W3C//DTD SVG 20010904//EN"
 "http://www.w3.org/TR/2001/REC-SVG-20010904/DTD/svg10.dtd">
<svg version="1.0" xmlns="http://www.w3.org/2000/svg"
 width="1220.000000pt" height="1280.000000pt" viewBox="0 0 1220.000000 1280.000000"
 preserveAspectRatio="xMidYMid meet">
<metadata>
Created by potrace 1.15, written by Peter Selinger 2001-2017
</metadata>
<g transform="translate(0.000000,1280.000000) scale(0.100000,-0.100000)"
fill="#000000" stroke="none">
<path d="M7865 12782 c-48 -32 -254 -227 -382 -362 -169 -180 -379 -421 -662
-760 -493 -591 -653 -777 -878 -1018 -131 -139 -136 -149 -109 -214 40 -95
261 -321 611 -623 44 -38 80 -71 80 -75 0 -8 -48 -67 -663 -800 -414 -494
-1166 -1424 -2924 -3620 -2103 -2627 -2395 -2988 -2632 -3250 -146 -162 -273
-311 -282 -330 -42 -86 -24 -184 56 -303 92 -138 253 -285 625 -572 99 -76
232 -183 295 -238 168 -145 365 -296 530 -406 317 -210 445 -249 554 -170 140
100 358 483 405 710 11 50 6 103 -48 520 -33 255 -61 478 -62 494 -2 25 84
157 472 725 l473 695 605 760 c539 676 683 849 1316 1580 391 451 1124 1313
1629 1915 505 602 921 1098 925 1102 3 4 184 -164 401 -373 l395 -380 83 -217
c45 -119 132 -346 192 -503 60 -158 154 -427 209 -598 l100 -311 16 -202 c9
-112 20 -212 23 -224 7 -20 11 -20 317 41 556 112 657 139 815 221 140 72 365
237 865 633 284 225 418 394 604 760 271 536 376 973 375 1566 -1 239 -25 581
-42 596 -4 3 -59 14 -122 24 -63 10 -244 39 -401 65 l-285 47 -233 119 -232
119 -259 223 c-237 204 -293 259 -660 649 l-402 425 34 37 c18 20 94 98 168
173 157 160 181 199 188 301 11 173 -94 388 -291 594 -197 205 -391 315 -562
317 -118 1 -150 -17 -371 -218 l-186 -169 -75 84 c-133 148 -379 383 -436 417
-71 43 -121 50 -162 24z m3625 -3292 c-6 -11 -13 -20 -15 -20 -3 0 -5 9 -5 20
0 11 7 20 15 20 13 0 14 -4 5 -20z m-2315 -2750 c-3 -5 -10 -10 -16 -10 -5 0
-9 5 -9 10 0 6 7 10 16 10 8 0 12 -4 9 -10z"/>
</g>
</svg>
