<?xml version="1.0" standalone="no"?>
<!DOCTYPE svg PUBLIC "-//W3C//DTD SVG 20010904//EN"
 "http://www.w3.org/TR/2001/REC-SVG-20010904/DTD/svg10.dtd">
<svg version="1.0" xmlns="http://www.w3.org/2000/svg"
 width="979.000000pt" height="1280.000000pt" viewBox="0 0 979.000000 1280.000000"
 preserveAspectRatio="xMidYMid meet">
<metadata>
Created by potrace 1.15, written by Peter Selinger 2001-2017
</metadata>
<g transform="translate(0.000000,1280.000000) scale(0.100000,-0.100000)"
fill="#000000" stroke="none">
<path d="M3341 12785 c-85 -19 -152 -53 -236 -119 -62 -47 -191 -194 -221
-251 -6 -11 -40 -72 -76 -135 -36 -63 -82 -148 -103 -189 -20 -41 -55 -102
-78 -137 l-42 -64 -170 0 c-406 0 -741 -82 -1070 -262 -164 -90 -299 -191
-444 -332 -182 -178 -295 -328 -418 -556 -72 -134 -161 -388 -192 -550 -105
-550 2 -1114 297 -1565 95 -146 177 -247 291 -360 55 -55 101 -105 101 -111 0
-28 -128 -351 -410 -1029 -211 -509 -296 -722 -372 -930 l-40 -110 -23 -445
c-27 -501 -50 -1016 -65 -1445 -6 -159 -15 -407 -20 -550 -28 -757 -50 -1459
-45 -1464 4 -3 9 -1 13 5 10 14 196 162 274 217 22 15 48 36 59 46 44 41 68
206 104 731 14 206 35 467 45 580 11 113 36 390 55 615 19 226 48 561 64 745
16 184 32 380 36 435 22 364 26 376 529 1385 401 804 422 843 450 837 11 -2
70 -19 130 -37 249 -73 485 -99 744 -80 92 6 185 15 207 20 92 21 90 13 -12
-66 -579 -451 -1022 -1014 -1297 -1647 -111 -254 -214 -575 -276 -860 -16 -76
-30 -140 -30 -144 0 -3 303 -4 673 -3 369 2 1966 3 3547 2 1581 -1 3161 1
3511 4 l635 7 -22 101 c-93 420 -188 700 -353 1036 -116 238 -267 487 -405
669 -23 29 -50 66 -61 81 -158 213 -542 592 -780 770 -129 96 -379 257 -520
336 -201 111 -334 171 -605 274 l-125 47 -3 445 -2 445 45 81 c25 44 50 104
57 134 8 38 12 364 13 1153 1 605 2 1135 3 1178 l2 77 53 0 c120 0 328 44 412
87 88 46 140 114 154 204 11 66 -6 121 -55 178 -70 82 -168 121 -386 155
l-148 23 -67 55 c-38 30 -111 99 -163 152 -52 53 -108 106 -125 116 -29 18
-71 18 -930 19 -495 0 -1159 3 -1475 6 -484 4 -585 3 -639 -10z m-885 -1242
c-14 -32 -41 -98 -61 -148 -20 -49 -47 -115 -60 -145 -13 -30 -58 -138 -100
-240 -79 -190 -167 -394 -333 -770 -152 -344 -602 -1394 -641 -1495 -29 -74
-115 -241 -142 -275 l-19 -25 -73 75 c-90 93 -197 243 -275 386 -215 393 -272
882 -156 1328 51 196 138 386 253 557 141 210 282 349 506 501 302 204 622
303 997 307 l127 1 -23 -57z m484 -1968 c267 -28 477 -84 840 -222 80 -31 181
-69 225 -85 112 -41 112 -41 86 -127 -27 -89 -124 -282 -195 -388 -128 -191
-312 -378 -498 -504 -93 -64 -316 -175 -428 -214 -301 -105 -664 -129 -970
-64 -109 23 -290 80 -290 91 0 4 18 49 41 100 23 51 58 134 79 183 21 50 58
135 83 190 25 55 116 260 203 455 131 295 165 364 205 410 96 112 265 184 439
189 25 0 106 -6 180 -14z"/>
<path d="M983 4539 c-67 -26 -144 -96 -174 -156 -32 -67 -33 -197 -3 -264 32
-69 86 -123 156 -155 l63 -29 4225 -3 c3090 -2 4241 0 4285 8 105 20 184 82
228 179 29 65 29 188 0 252 -30 66 -86 124 -151 156 l-57 28 -4260 2 c-4239 2
-4260 2 -4312 -18z"/>
<path d="M1100 3545 c0 -29 61 -304 95 -430 174 -642 525 -1269 985 -1760 99
-107 313 -307 429 -402 106 -87 308 -233 391 -283 25 -15 74 -46 110 -68 162
-103 493 -262 695 -334 525 -187 952 -262 1490 -261 700 1 1404 178 1995 502
496 272 897 601 1255 1030 465 557 764 1193 903 1924 l19 97 -4184 0 c-3656 0
-4183 -2 -4183 -15z"/>
</g>
</svg>
