<?xml version="1.0" standalone="no"?>
<!DOCTYPE svg PUBLIC "-//W3C//DTD SVG 20010904//EN"
 "http://www.w3.org/TR/2001/REC-SVG-20010904/DTD/svg10.dtd">
<svg version="1.0" xmlns="http://www.w3.org/2000/svg"
 width="1280.000000pt" height="640.000000pt" viewBox="0 0 1280.000000 640.000000"
 preserveAspectRatio="xMidYMid meet">
<metadata>
Created by potrace 1.15, written by Peter Selinger 2001-2017
</metadata>
<g transform="translate(0.000000,640.000000) scale(0.100000,-0.100000)"
fill="#000000" stroke="none">
<path d="M1570 5464 c0 -5 34 -119 76 -254 41 -135 118 -389 170 -565 52 -176
97 -328 100 -339 16 -50 312 -341 703 -689 124 -110 278 -248 341 -306 163
-149 518 -501 511 -505 -20 -13 -355 -28 -512 -23 -195 5 -229 11 -330 62 -78
40 -124 73 -252 183 -260 225 -313 244 -787 273 -207 13 -401 9 -990 -21 -526
-27 -593 -32 -597 -47 -3 -7 6 -17 19 -22 13 -5 190 -17 393 -26 885 -38 1435
-84 1478 -122 20 -19 22 -56 3 -72 -30 -25 -517 -45 -1381 -57 -264 -3 -488
-10 -497 -15 -18 -10 -24 -34 -10 -42 4 -3 178 -10 387 -16 768 -22 1120 -39
1365 -62 112 -11 140 -24 140 -65 0 -52 19 -50 -964 -88 -566 -22 -923 -39
-930 -46 -6 -6 -6 -13 -1 -19 14 -13 246 -29 690 -46 215 -8 437 -17 495 -20
294 -16 642 -50 672 -66 21 -11 24 -61 5 -77 -27 -23 -459 -43 -1342 -62 -264
-6 -490 -13 -502 -15 -23 -5 -31 -29 -13 -40 23 -14 784 -60 1260 -76 676 -23
792 1 1090 221 164 122 289 183 385 188 133 7 899 -97 1005 -136 20 -7 50 -74
82 -182 18 -62 45 -105 105 -167 62 -64 118 -98 198 -119 67 -18 323 -18 600
1 204 14 281 21 676 60 80 8 291 18 470 21 l324 7 150 -103 c83 -57 215 -149
295 -205 468 -329 904 -602 1131 -709 207 -97 449 -155 449 -106 0 13 -29 34
-700 495 -366 252 -677 469 -692 483 -16 14 -28 36 -28 49 0 13 -10 34 -23 47
l-24 24 60 6 c33 3 90 6 126 6 l66 -1 36 -58 c46 -73 93 -100 137 -77 32 17
80 68 108 115 17 28 23 31 69 31 l50 0 35 -61 c67 -118 129 -140 198 -71 20
20 51 58 67 84 28 45 33 48 72 48 41 0 43 -1 77 -63 97 -172 169 -170 282 9
65 101 79 101 135 -8 49 -94 105 -158 138 -158 33 0 81 31 86 55 2 11 7 61 12
110 l8 90 105 7 c61 5 143 3 197 -3 123 -14 191 -13 208 1 8 7 15 27 15 45 0
18 7 38 15 45 18 15 17 15 35 -28 15 -38 63 -82 90 -82 13 0 29 -19 50 -62 90
-176 190 -264 221 -194 7 14 9 40 5 59 -7 35 -83 194 -112 234 -10 14 -12 23
-5 23 15 0 15 105 0 133 -7 12 -29 43 -50 68 -47 56 -50 85 -11 93 326 66 750
126 887 126 199 0 269 -35 406 -200 146 -177 241 -253 403 -323 158 -68 250
-88 431 -94 247 -8 426 28 714 143 228 92 373 179 486 292 163 164 216 319
165 484 -39 127 -154 266 -300 363 -164 109 -481 235 -680 270 -350 61 -687
-1 -938 -172 -110 -76 -167 -131 -277 -268 -197 -246 -283 -283 -639 -271
-249 8 -386 17 -386 26 0 4 156 158 348 342 635 613 840 835 945 1020 154 271
166 611 32 883 -58 117 -93 160 -124 150 -35 -11 -51 -63 -51 -169 0 -52 -9
-159 -21 -238 -46 -322 -84 -430 -202 -570 -50 -60 -96 -82 -152 -75 -71 10
-93 26 -120 85 -40 88 -34 122 36 199 48 52 49 77 7 103 -65 40 -138 20 -209
-57 -70 -76 -97 -152 -115 -316 -18 -179 -29 -241 -61 -342 -49 -156 -121
-269 -226 -357 -48 -40 -65 -48 -98 -48 -52 0 -95 23 -119 63 -23 37 -24 60
-8 138 14 69 3 89 -49 89 -93 0 -136 -41 -288 -277 -167 -260 -159 -252 -221
-242 -72 12 -314 11 -314 -1 0 -5 -9 -10 -20 -10 -12 0 -20 7 -20 17 0 15 -79
16 -1097 9 -1058 -7 -1526 -18 -2038 -50 -148 -9 -234 -10 -242 -4 -8 6 -85 6
-215 -1 -112 -6 -270 -13 -353 -16 -218 -8 -275 -15 -275 -31 0 -16 -21 -19
-36 -5 -5 5 -30 6 -57 2 l-48 -8 -43 61 c-24 34 -76 115 -116 181 -39 66 -79
126 -88 133 -11 8 -35 10 -78 6 l-62 -7 -20 39 c-11 22 -66 79 -125 132 -122
108 -341 331 -657 667 -607 647 -820 848 -1080 1017 -119 78 -310 159 -310
132z m7724 -3200 c4 -11 2 -12 -14 -4 -49 26 -99 -3 -101 -60 0 -25 0 -25 -11
-3 -15 31 6 79 41 91 30 10 77 -2 85 -24z m-17 -40 l28 -25 -27 16 c-38 23
-56 13 -61 -32 l-4 -38 -1 41 c-2 37 11 64 29 64 5 0 21 -12 36 -26z m-7 -39
c10 -12 10 -19 1 -28 -9 -9 -14 -9 -21 3 -22 34 -4 54 20 25z m98 -134 c25
-44 35 -77 38 -117 l3 -55 -38 48 c-21 26 -52 73 -69 104 l-32 57 22 15 c13 9
27 15 32 13 6 -1 25 -30 44 -65z m-902 32 c-4 -9 -11 -37 -17 -61 -5 -25 -13
-50 -16 -55 -5 -9 -71 105 -73 126 0 4 25 7 56 7 48 0 55 -2 50 -17z m-416
-10 c0 -3 -12 -27 -27 -52 -17 -30 -28 -40 -31 -31 -3 8 -13 32 -24 53 l-18
37 50 0 c27 0 50 -3 50 -7z m1220 -37 c0 -12 -5 -7 -19 24 -11 24 -11 24 3 6
9 -11 16 -24 16 -30z m-1660 27 c0 -5 -8 -20 -18 -35 l-18 -28 -17 35 -17 35
35 0 c19 0 35 -3 35 -7z m-446 -18 c-4 -8 -7 -15 -9 -15 -2 0 -5 7 -9 15 -3 9
0 15 9 15 9 0 12 -6 9 -15z m2261 -197 c14 -2 16 -6 8 -11 -8 -5 -25 5 -46 25
-18 18 -21 23 -7 11 14 -11 34 -23 45 -25z"/>
</g>
</svg>
