<?xml version="1.0" standalone="no"?>
<!DOCTYPE svg PUBLIC "-//W3C//DTD SVG 20010904//EN"
 "http://www.w3.org/TR/2001/REC-SVG-20010904/DTD/svg10.dtd">
<svg version="1.0" xmlns="http://www.w3.org/2000/svg"
 width="1280.000000pt" height="1044.000000pt" viewBox="0 0 1280.000000 1044.000000"
 preserveAspectRatio="xMidYMid meet">
<metadata>
Created by potrace 1.15, written by Peter Selinger 2001-2017
</metadata>
<g transform="translate(0.000000,1044.000000) scale(0.100000,-0.100000)"
fill="#000000" stroke="none">
<path d="M7325 10406 c-117 -38 -183 -70 -280 -136 -38 -26 -189 -107 -335
-180 -404 -202 -530 -283 -572 -369 -19 -39 -23 -67 -26 -178 -4 -114 -1 -142
17 -203 29 -95 83 -153 159 -169 29 -6 65 -11 80 -11 15 0 43 -5 63 -10 31 -9
43 -23 108 -135 68 -117 73 -129 68 -171 -8 -77 -60 -163 -182 -305 -259 -300
-387 -540 -640 -1204 -198 -519 -293 -723 -440 -945 -102 -155 -211 -272 -419
-449 -419 -356 -571 -463 -1066 -748 -876 -503 -2295 -1194 -3640 -1773 -118
-51 -217 -94 -219 -96 -4 -4 520 -2904 526 -2913 2 -2 170 75 375 172 5460
2573 6298 2966 6373 2990 129 41 219 57 475 83 191 19 353 46 445 75 39 11
207 82 375 156 168 74 315 139 327 144 20 8 27 0 76 -94 603 -1137 974 -1797
1225 -2176 240 -363 556 -674 995 -980 387 -268 920 -541 1429 -730 152 -57
178 -61 178 -31 0 15 -1649 3267 -2536 5002 -14 26 -13 27 112 139 148 133
205 206 265 337 40 89 44 104 44 177 0 63 -5 89 -22 120 -31 58 -145 189 -196
223 -23 17 -57 45 -75 63 -63 64 -37 135 98 268 146 144 173 207 151 354 -15
108 -116 263 -189 294 -18 7 -70 18 -115 24 -76 9 -187 44 -187 59 0 10 47 50
133 114 107 81 211 194 231 253 27 79 20 170 -25 333 -23 84 -11 71 -263 274
-143 114 -161 126 -281 170 -124 47 -154 64 -162 95 -11 43 5 264 22 313 21
59 69 103 166 154 155 81 341 324 356 466 16 159 -91 252 -350 304 -59 12
-165 18 -372 23 l-290 7 -110 43 c-269 106 -333 125 -430 124 -88 0 -96 -2
-409 -112 -176 -61 -325 -111 -331 -111 -7 0 -51 82 -99 181 -69 142 -94 207
-117 298 -40 163 -81 242 -172 328 -74 70 -137 103 -196 103 -14 -1 -71 -16
-126 -34z"/>
</g>
</svg>
