<?xml version="1.0" standalone="no"?>
<!DOCTYPE svg PUBLIC "-//W3C//DTD SVG 20010904//EN"
 "http://www.w3.org/TR/2001/REC-SVG-20010904/DTD/svg10.dtd">
<svg version="1.0" xmlns="http://www.w3.org/2000/svg"
 width="1280.000000pt" height="1233.000000pt" viewBox="0 0 1280.000000 1233.000000"
 preserveAspectRatio="xMidYMid meet">
<metadata>
Created by potrace 1.15, written by Peter Selinger 2001-2017
</metadata>
<g transform="translate(0.000000,1233.000000) scale(0.100000,-0.100000)"
fill="#000000" stroke="none">
<path d="M11314 12321 c-17 -4 -44 -14 -60 -22 -36 -19 -673 -485 -695 -510
-10 -10 -21 -55 -28 -111 -13 -91 -31 -137 -68 -170 -16 -14 -31 -15 -114 -6
l-96 10 -381 -288 c-210 -159 -383 -294 -386 -300 -2 -7 1 -44 7 -84 l11 -73
-53 -49 c-39 -36 -60 -48 -75 -44 -12 2 -46 8 -76 11 l-56 6 -359 -349 c-197
-193 -364 -348 -370 -345 -7 2 -17 -10 -24 -28 -10 -29 -9 -35 13 -58 13 -14
26 -39 29 -56 5 -26 -1 -35 -39 -69 l-45 -39 -56 12 -56 11 -48 -43 c-27 -23
-186 -170 -353 -327 l-305 -285 0 -116 -1 -117 -46 -37 c-44 -36 -49 -38 -111
-36 -57 2 -67 -1 -80 -19 -8 -12 -115 -144 -237 -293 -122 -150 -252 -309
-289 -355 l-67 -83 0 -102 c0 -100 -1 -104 -27 -129 -38 -36 -85 -60 -97 -48
-6 6 -20 1 -37 -11 -16 -11 -44 -25 -63 -32 -25 -9 -97 -80 -273 -272 -267
-291 -243 -274 -438 -316 -115 -24 -151 -24 -283 3 l-107 22 -147 133 -146
134 -94 -3 -93 -3 -62 -90 c-34 -49 -62 -96 -63 -104 0 -8 24 -38 53 -66 45
-44 68 -57 152 -86 115 -40 131 -56 143 -147 l9 -64 101 -101 102 -102 -197
-197 -196 -196 2 -72 2 -72 -48 4 -48 3 4 -42 3 -43 -66 0 -66 0 0 -45 0 -45
-46 0 -46 0 7 -65 7 -65 -71 0 -71 0 0 -40 0 -40 -40 0 -40 0 0 -68 0 -67 -45
3 -45 4 0 -46 0 -46 -45 0 -45 0 0 -45 0 -45 -45 0 -45 0 0 -59 0 -59 -57 -8
-58 -9 -9 -47 -8 -48 -45 0 -46 0 6 -34 5 -34 -64 -7 c-61 -6 -64 -8 -64 -33
0 -15 -3 -44 -6 -65 -5 -29 -11 -37 -28 -37 -53 0 -66 -10 -66 -53 l0 -40 -60
6 -60 5 0 -50 0 -50 -45 4 -45 3 0 -62 c0 -59 -2 -63 -22 -63 -55 0 -68 -10
-68 -51 l0 -39 -45 0 -44 0 -3 -67 -3 -68 -50 -3 c-52 -4 -65 -13 -65 -48 0
-17 -9 -23 -42 -30 l-43 -9 -9 -57 -9 -58 -45 0 -45 0 6 -50 6 -50 -68 0 -68
0 1 -42 1 -43 -43 -3 -42 -3 0 -60 0 -59 -45 0 -45 0 0 -50 0 -50 -67 2 -68 3
4 -54 c3 -60 -5 -71 -56 -71 -32 0 -33 -1 -33 -45 l0 -45 -44 0 -44 0 6 -45 5
-45 -70 0 -71 0 -6 -31 c-3 -17 -6 -49 -6 -71 0 -39 0 -39 -34 -33 l-33 7 -7
-50 -6 -49 -45 7 -45 7 -83 -91 c-46 -50 -256 -287 -467 -526 -211 -239 -392
-444 -402 -456 -11 -12 -23 -49 -29 -85 -59 -388 -243 -794 -592 -1307 -62
-92 -191 -277 -286 -411 -95 -135 -209 -298 -252 -363 l-79 -118 97 0 c630 1
1265 223 2091 731 l153 93 506 516 c279 283 782 794 1117 1135 336 341 888
901 1226 1245 1101 1120 999 1020 1034 1013 17 -3 40 -12 51 -20 11 -7 23 -13
27 -13 4 0 107 90 228 200 120 110 223 200 227 200 4 0 37 25 73 55 l65 54
155 -153 c170 -168 209 -198 337 -258 110 -52 222 -73 313 -58 151 23 190 49
190 125 0 85 -24 113 -165 194 -264 152 -379 251 -443 380 -42 84 -47 144 -24
279 25 148 64 194 408 474 l281 228 -8 43 c-15 77 -11 89 41 135 l50 44 72
-28 c57 -22 75 -25 89 -15 11 6 182 142 381 302 l363 292 10 83 c15 118 22
124 163 132 l110 7 343 315 c188 173 348 321 355 328 10 10 14 41 14 107 l0
93 34 25 c30 23 45 27 127 29 l93 3 277 350 277 350 7 65 c11 116 13 124 51
154 21 16 64 39 97 50 l60 21 184 260 c102 143 230 325 285 403 l101 144 -13
70 -12 70 45 46 c44 44 46 45 106 43 34 0 61 3 61 8 0 17 183 202 224 226 93
54 326 79 395 42 52 -29 113 -98 145 -164 21 -45 37 -65 63 -77 76 -36 176
-10 230 61 25 32 28 45 28 107 -1 90 -8 103 -205 400 -487 735 -928 1292
-1074 1357 -53 23 -151 33 -202 20z"/>
</g>
</svg>
