<?xml version="1.0" standalone="no"?>
<!DOCTYPE svg PUBLIC "-//W3C//DTD SVG 20010904//EN"
 "http://www.w3.org/TR/2001/REC-SVG-20010904/DTD/svg10.dtd">
<svg version="1.0" xmlns="http://www.w3.org/2000/svg"
 width="989.000000pt" height="1280.000000pt" viewBox="0 0 989.000000 1280.000000"
 preserveAspectRatio="xMidYMid meet">
<metadata>
Created by potrace 1.15, written by Peter Selinger 2001-2017
</metadata>
<g transform="translate(0.000000,1280.000000) scale(0.100000,-0.100000)"
fill="#000000" stroke="none">
<path d="M6615 12673 c-27 -8 -63 -20 -80 -28 -16 -7 -50 -18 -75 -25 -25 -6
-58 -18 -73 -26 -16 -8 -39 -14 -52 -14 -12 0 -28 -7 -35 -15 -7 -8 -25 -15
-41 -15 -15 0 -31 -4 -34 -10 -3 -5 -16 -10 -28 -10 -13 0 -31 -6 -42 -13 -11
-7 -45 -19 -75 -26 -30 -7 -65 -19 -77 -27 -12 -8 -31 -14 -42 -14 -11 0 -23
-4 -26 -10 -3 -5 -16 -10 -28 -10 -13 0 -31 -6 -42 -14 -11 -7 -40 -16 -65
-20 -25 -4 -59 -15 -76 -25 -17 -10 -51 -22 -75 -26 -24 -4 -53 -14 -64 -21
-11 -8 -27 -14 -35 -14 -9 0 -34 -9 -56 -19 -22 -11 -57 -23 -79 -27 -22 -4
-54 -15 -71 -25 -18 -10 -53 -21 -78 -24 -25 -4 -48 -11 -51 -15 -3 -5 -31
-16 -63 -25 -31 -9 -72 -23 -90 -31 -18 -8 -41 -14 -52 -14 -10 0 -22 -4 -25
-10 -3 -5 -16 -10 -29 -10 -12 0 -31 -7 -42 -15 -10 -8 -30 -15 -44 -15 -14 0
-34 -7 -44 -15 -11 -8 -30 -15 -42 -15 -13 0 -26 -4 -29 -10 -3 -5 -16 -10
-29 -10 -12 0 -31 -7 -42 -15 -10 -8 -31 -15 -46 -15 -16 0 -28 -4 -28 -10 0
-5 -9 -10 -21 -10 -12 0 -35 -6 -52 -13 -52 -22 -158 -57 -214 -71 -29 -7 -63
-20 -75 -28 -13 -8 -39 -18 -58 -22 -35 -6 -117 -35 -175 -62 -16 -7 -48 -16
-70 -20 -22 -3 -49 -12 -60 -19 -11 -6 -45 -18 -75 -26 -30 -7 -64 -18 -75
-24 -11 -7 -40 -17 -65 -24 -25 -7 -52 -16 -60 -20 -8 -4 -42 -16 -75 -25 -33
-10 -72 -24 -87 -32 -14 -8 -33 -14 -41 -14 -8 0 -28 -7 -43 -15 -16 -8 -37
-15 -47 -15 -9 0 -25 -4 -35 -9 -24 -13 -88 -36 -147 -54 -72 -22 -117 -38
-137 -48 -10 -5 -26 -9 -36 -9 -9 0 -26 -6 -37 -14 -11 -7 -40 -17 -65 -21
-25 -4 -60 -15 -78 -26 -18 -10 -42 -19 -54 -19 -11 0 -46 -11 -77 -24 -69
-28 -113 -44 -171 -60 -25 -7 -58 -20 -75 -28 -16 -8 -48 -19 -70 -22 -21 -4
-55 -16 -75 -26 -20 -10 -53 -22 -75 -26 -21 -4 -50 -13 -64 -20 -14 -8 -36
-14 -47 -14 -21 0 -22 5 -28 168 -4 92 -12 248 -19 347 -11 167 -13 180 -33
190 -12 6 -29 17 -38 24 -11 9 -20 10 -28 3 -7 -5 -33 -13 -58 -17 -25 -4 -49
-11 -55 -15 -5 -4 -33 -15 -61 -23 -28 -8 -60 -19 -70 -25 -11 -5 -32 -14 -49
-19 -25 -7 -31 -14 -33 -42 -2 -19 3 -48 11 -65 8 -17 20 -44 27 -61 7 -16 18
-43 26 -60 7 -16 21 -54 30 -83 9 -29 20 -55 25 -58 5 -3 9 -16 9 -29 0 -13 4
-26 9 -29 5 -3 11 -23 14 -43 2 -21 9 -53 16 -70 28 -82 34 -101 42 -148 5
-27 5 -53 1 -57 -5 -5 -33 -12 -63 -17 -30 -5 -60 -11 -67 -13 -8 -1 -19 6
-25 16 -7 11 -25 32 -42 47 -55 52 -123 32 -164 -48 -10 -20 -18 -22 -81 -20
-53 2 -73 -2 -86 -15 -16 -15 -20 -15 -46 -2 -27 14 -32 14 -47 0 -10 -9 -23
-16 -29 -16 -6 0 -19 -11 -28 -25 -12 -19 -25 -25 -52 -25 -50 0 -100 -20
-135 -54 -28 -29 -29 -31 -22 -100 9 -87 18 -106 51 -106 31 0 94 28 111 50 7
8 13 39 13 68 0 57 22 122 41 122 7 0 9 -8 4 -22 -5 -13 -10 -60 -12 -105 -4
-75 -3 -82 17 -93 12 -6 34 -8 50 -5 37 8 50 45 50 146 0 82 6 112 21 103 13
-8 11 -100 -3 -146 -11 -37 -10 -40 19 -71 17 -18 33 -40 36 -49 10 -27 43
-21 66 11 18 25 21 44 22 143 0 123 13 123 25 0 7 -72 21 -105 55 -123 19 -10
26 -6 61 29 37 39 39 43 30 79 -6 21 -13 57 -16 79 -9 62 15 74 141 73 115 -2
153 -8 163 -29 29 -61 40 -90 50 -125 6 -22 17 -49 25 -59 17 -22 19 -36 6
-36 -5 0 -17 20 -28 45 -10 25 -21 45 -25 45 -4 0 -14 15 -22 34 -30 72 -38
76 -163 76 l-113 0 0 -55 c0 -61 13 -75 72 -75 42 0 50 -6 71 -52 10 -20 22
-40 27 -43 22 -13 10 -54 -22 -76 -18 -12 -42 -32 -53 -43 -11 -12 -36 -32
-55 -45 -19 -14 -41 -33 -48 -43 -7 -10 -18 -18 -23 -18 -6 0 -31 -16 -55 -36
l-44 -36 -1 -97 -1 -96 -17 80 c-9 44 -20 86 -24 93 -7 10 -40 12 -155 7 -121
-6 -152 -10 -174 -26 -51 -36 -65 -18 -22 28 26 28 27 28 172 32 163 4 133 -7
261 96 24 20 52 40 62 46 10 5 31 21 46 35 15 14 40 33 55 42 31 18 35 40 13
81 -27 53 -70 55 -111 5 -41 -50 -59 -58 -86 -39 -33 22 -41 19 -68 -25 -30
-48 -64 -53 -114 -15 -18 14 -37 25 -42 25 -5 0 -24 -16 -43 -35 -41 -42 -56
-43 -93 -8 l-29 27 -171 -2 -172 -2 -32 -31 c-41 -39 -58 -108 -51 -196 6 -77
38 -124 108 -160 54 -27 108 -29 175 -4 l51 18 19 -22 c23 -27 42 -55 51 -75
4 -8 11 -18 17 -22 13 -9 9 -179 -5 -192 -23 -25 -1 -35 96 -46 39 -5 106 -14
151 -20 81 -12 90 -11 289 20 74 12 124 26 142 42 22 18 43 71 43 107 0 30 16
67 40 94 8 9 26 32 40 52 14 20 37 52 52 72 16 20 28 40 28 45 0 5 10 23 23
39 l22 31 6 -234 c4 -128 10 -261 14 -295 l7 -63 50 0 c27 0 65 7 85 15 19 8
46 15 59 15 21 0 67 16 116 41 10 5 26 9 37 9 10 0 24 7 31 15 7 8 21 15 31
15 10 0 21 5 24 10 3 6 15 10 25 10 10 0 21 4 24 9 7 11 -21 81 -32 81 -4 0
-18 19 -31 43 -45 85 -59 109 -74 125 -9 9 -20 28 -26 42 -11 25 -32 61 -41
70 -5 5 -21 35 -57 105 -30 58 -33 65 -33 82 0 10 -7 27 -15 37 -8 11 -15 41
-15 67 0 48 0 48 38 55 20 4 48 14 62 24 14 9 39 20 55 24 17 4 53 18 82 32
28 13 60 24 70 24 10 0 27 6 38 13 11 7 38 18 60 25 51 17 115 41 139 54 10 5
44 18 75 28 85 28 173 60 206 75 35 15 140 51 205 69 25 7 59 20 75 28 17 8
47 18 67 22 21 4 55 15 75 25 44 21 89 37 153 55 25 7 59 20 75 28 17 8 47 18
67 22 20 4 56 15 80 26 24 10 61 22 83 26 22 4 49 12 60 19 11 7 43 18 70 25
28 7 64 18 82 26 17 8 40 14 50 14 10 0 23 4 29 9 13 11 108 41 133 41 11 0
22 4 26 9 6 11 104 41 133 41 11 0 25 7 32 15 7 8 22 15 33 15 20 0 59 11 127
35 19 7 55 18 80 25 25 7 60 18 78 26 18 8 44 14 57 14 13 0 27 5 30 10 3 6
16 10 28 10 12 0 35 7 51 15 15 8 38 15 50 15 12 0 31 7 42 15 10 8 28 15 38
15 20 0 65 13 126 36 19 7 60 18 90 24 30 6 64 17 75 24 11 7 44 17 73 21 29
4 69 15 90 25 20 10 60 21 87 25 28 4 59 14 70 21 11 8 29 14 41 14 12 0 43 9
67 19 25 11 67 23 94 27 26 4 58 14 71 22 12 8 50 20 85 28 34 7 87 20 117 29
30 10 69 20 85 22 17 3 35 9 40 14 11 8 74 26 130 36 17 3 39 12 50 19 11 8
31 14 44 14 26 0 76 14 129 36 18 8 43 14 55 14 13 0 32 7 43 15 10 8 33 15
51 15 17 0 35 5 38 10 3 6 18 10 32 10 36 0 93 29 131 66 17 18 32 36 32 39 0
4 12 19 28 34 57 56 152 163 152 172 0 5 7 9 15 9 8 0 15 4 15 8 0 5 8 17 18
28 44 46 142 163 142 168 0 4 -33 6 -73 6 -41 0 -120 4 -178 9 -57 6 -201 12
-319 15 -172 3 -225 1 -265 -11z"/>
<path d="M4859 11415 c-3 -2 -43 -9 -90 -14 -86 -10 -212 -53 -247 -84 -10
-10 -23 -17 -29 -17 -5 0 -29 -18 -52 -39 -24 -22 -49 -42 -57 -45 -8 -3 -14
-10 -14 -16 0 -6 -16 -28 -36 -48 -20 -20 -43 -50 -50 -67 -8 -16 -19 -37 -24
-45 -21 -33 -59 -128 -68 -170 -6 -25 -17 -69 -25 -97 -8 -29 -18 -76 -22
-104 l-7 -51 68 5 c38 2 110 12 159 20 50 9 146 19 215 22 69 4 139 11 155 16
31 9 167 24 357 39 59 4 112 11 118 15 6 4 61 11 123 16 62 5 131 12 155 15
39 6 42 5 42 -18 0 -24 -4 -25 -147 -47 -82 -13 -194 -28 -250 -34 l-103 -11
0 -75 c1 -42 7 -94 15 -116 8 -22 15 -53 15 -70 0 -16 7 -41 15 -55 8 -14 14
-37 15 -52 0 -15 5 -30 10 -33 6 -3 10 -15 10 -25 0 -10 8 -33 17 -52 30 -60
33 -68 33 -82 0 -7 6 -19 14 -25 8 -7 18 -25 21 -41 4 -16 14 -39 24 -52 10
-13 22 -34 26 -48 4 -14 15 -34 25 -45 9 -11 23 -35 30 -52 7 -18 16 -33 21
-33 5 0 9 -6 9 -14 0 -8 8 -21 19 -28 10 -7 21 -22 25 -34 3 -11 14 -29 24
-40 9 -10 30 -39 46 -64 44 -67 77 -100 100 -100 12 0 47 12 79 27 55 27 58
29 52 58 -3 17 -9 76 -12 131 -5 96 -4 104 22 149 26 47 26 50 16 134 -17 134
-15 148 17 164 15 8 42 17 61 21 42 8 61 23 61 48 0 21 -26 110 -41 140 -5 10
-9 25 -9 34 0 9 -6 28 -14 42 -7 15 -19 41 -26 57 -7 17 -16 37 -21 45 -5 8
-16 31 -25 50 -9 19 -22 46 -29 60 -7 14 -21 54 -30 90 -9 36 -20 70 -25 75
-4 6 -10 26 -14 46 -8 42 -90 211 -111 229 -8 7 -15 18 -15 24 0 13 -145 156
-158 156 -5 0 -17 9 -26 19 -10 11 -32 23 -49 27 -17 3 -39 15 -50 25 -12 11
-42 20 -76 24 -31 3 -75 10 -98 15 -43 10 -156 14 -164 5z"/>
<path d="M7512 10755 c-68 -22 -193 -85 -247 -125 -27 -21 -81 -69 -120 -108
-76 -78 -79 -81 -115 -132 -13 -19 -32 -44 -42 -54 -10 -11 -18 -24 -18 -29 0
-4 -10 -23 -23 -40 -30 -43 -43 -65 -67 -112 -20 -39 -29 -55 -50 -92 -6 -10
-13 -25 -16 -33 -21 -55 -53 -128 -65 -152 -5 -10 -9 -23 -9 -29 0 -6 -6 -25
-14 -42 -7 -18 -19 -52 -26 -77 -6 -25 -18 -58 -25 -75 -7 -16 -16 -50 -19
-74 -4 -24 -15 -69 -25 -100 -11 -31 -22 -83 -26 -116 -3 -33 -11 -79 -18
-102 -10 -39 -14 -43 -44 -43 -17 0 -44 5 -60 11 -15 6 -50 15 -78 20 -98 18
-144 28 -162 37 -67 34 -93 37 -345 40 -216 2 -263 0 -287 -13 -17 -8 -39 -15
-50 -15 -11 0 -32 -6 -48 -14 -15 -8 -48 -20 -73 -26 -25 -7 -54 -17 -65 -23
-20 -10 -59 -20 -147 -37 -26 -5 -56 -13 -67 -19 -11 -6 -36 -11 -57 -11 -36
0 -57 -3 -264 -36 -78 -12 -175 -17 -375 -18 -238 -1 -274 1 -302 17 -18 9
-45 17 -62 17 -16 0 -33 5 -37 11 -5 9 17 10 87 3 211 -20 656 -5 732 25 16 6
41 11 58 11 28 0 73 8 159 30 25 6 70 16 100 21 54 9 162 39 230 64 19 7 61
19 93 26 75 16 85 29 56 68 l-23 31 -122 0 c-97 0 -131 4 -166 18 -24 11 -59
22 -78 26 -26 4 -53 24 -100 71 -71 72 -59 89 20 29 8 -7 29 -15 47 -19 18 -3
50 -15 72 -26 22 -10 45 -19 52 -19 6 0 25 -6 42 -14 65 -27 117 -35 133 -19
17 18 21 11 -78 125 -37 42 -74 91 -83 107 -8 17 -19 31 -23 31 -4 0 -15 17
-25 38 -9 20 -27 53 -39 72 -40 67 -97 185 -114 238 -9 29 -20 55 -25 58 -5 3
-9 14 -9 24 0 11 -6 34 -14 52 -8 18 -19 53 -26 78 -6 25 -17 65 -25 90 -7 25
-16 63 -20 85 -4 22 -11 62 -17 88 l-10 49 -97 -7 c-53 -4 -103 -11 -111 -15
-23 -12 -222 -31 -415 -39 -94 -4 -176 -11 -183 -15 -7 -4 -12 -33 -12 -76 0
-38 -9 -108 -20 -155 -11 -47 -20 -100 -20 -118 -1 -18 -7 -43 -15 -57 -8 -14
-14 -44 -15 -67 0 -23 -4 -44 -8 -47 -5 -3 -17 -42 -27 -88 -11 -46 -25 -89
-32 -96 -7 -7 -13 -19 -13 -26 0 -7 -11 -36 -25 -64 -14 -29 -25 -56 -25 -62
0 -10 -11 -33 -32 -70 -4 -8 -11 -22 -14 -30 -16 -42 -32 -70 -66 -116 -21
-28 -38 -56 -38 -63 0 -6 -7 -14 -15 -17 -8 -4 -15 -12 -15 -19 0 -11 -17 -36
-81 -118 -12 -16 -42 -38 -65 -50 -24 -11 -44 -24 -44 -29 0 -10 97 -55 140
-63 19 -4 51 -15 70 -25 19 -10 60 -21 90 -25 29 -4 74 -16 98 -26 24 -11 62
-19 85 -19 23 -1 60 -7 81 -15 53 -19 392 -29 566 -17 74 5 139 6 143 2 4 -4
3 -18 -2 -32 -8 -23 -17 -26 -73 -31 -35 -3 -85 -10 -113 -16 -66 -13 -437
-13 -495 0 -25 6 -76 15 -115 20 -38 5 -90 18 -115 28 -25 11 -63 23 -85 27
-22 4 -53 15 -70 26 -16 10 -37 18 -46 18 -9 0 -22 6 -28 14 -7 8 -28 17 -48
21 -20 3 -46 13 -58 21 -46 30 -85 34 -162 18 -41 -8 -82 -12 -93 -9 -10 3
-36 -3 -57 -15 -29 -16 -56 -20 -123 -20 -47 0 -90 -4 -95 -9 -6 -5 -35 -16
-65 -26 -30 -10 -59 -21 -65 -25 -5 -4 -26 -11 -45 -15 -19 -4 -46 -15 -60
-25 -14 -10 -41 -21 -60 -25 -19 -4 -44 -14 -55 -21 -20 -13 -79 -35 -185 -69
-25 -8 -66 -15 -92 -15 -44 0 -48 -2 -48 -24 0 -14 4 -27 9 -30 4 -3 18 -33
30 -66 12 -33 26 -60 32 -60 5 0 9 -10 9 -22 0 -12 9 -42 21 -67 11 -25 25
-57 31 -71 6 -14 17 -37 24 -52 8 -14 14 -33 14 -42 0 -9 4 -16 9 -16 4 0 16
-21 26 -47 9 -27 28 -73 42 -103 14 -30 33 -71 41 -90 8 -19 19 -43 23 -52 5
-10 9 -24 9 -32 0 -7 6 -19 14 -25 10 -8 16 -44 19 -119 8 -158 26 -391 35
-437 l8 -40 64 4 c36 2 74 8 84 13 10 6 46 14 80 19 125 18 175 27 208 37 44
14 141 33 203 41 37 4 52 11 60 27 6 12 16 28 22 35 9 12 14 28 29 84 1 6 9
30 17 55 45 132 61 391 33 526 -9 42 -16 97 -16 123 0 53 -28 107 -63 120 -13
5 -29 16 -36 24 -7 9 -28 21 -47 27 -19 6 -34 16 -34 21 0 5 -8 9 -17 10 -10
0 -31 9 -48 20 -16 10 -37 22 -45 26 -8 3 -33 18 -55 33 -103 69 -159 106
-180 118 -13 7 -45 32 -72 56 -42 38 -46 45 -34 60 19 23 48 20 75 -9 13 -14
26 -25 30 -25 4 0 41 -26 83 -57 41 -32 87 -66 101 -75 46 -30 188 -113 212
-124 8 -4 31 -17 50 -29 19 -12 52 -27 72 -34 20 -7 42 -19 48 -27 7 -7 19
-14 27 -14 8 0 29 -6 46 -14 18 -7 52 -19 77 -25 25 -7 59 -17 75 -23 17 -5
50 -14 75 -19 25 -5 74 -15 110 -24 118 -28 380 -54 538 -55 162 0 384 21 467
45 28 7 70 19 95 25 25 7 59 18 75 25 17 7 46 18 65 25 44 16 106 45 145 70
17 10 37 19 46 19 9 1 19 8 23 16 3 8 10 15 17 15 32 0 107 73 174 170 40 58
80 112 89 119 9 7 16 19 16 26 0 7 7 15 15 19 8 3 15 12 15 20 0 8 8 21 18 28
10 7 36 36 57 63 20 28 48 62 61 78 23 27 48 35 58 18 6 -10 -25 -71 -36 -71
-3 0 -23 -24 -44 -52 -21 -29 -55 -73 -76 -97 -21 -24 -38 -50 -38 -57 0 -7
-5 -14 -11 -16 -6 -2 -21 -20 -33 -39 -48 -79 -68 -109 -75 -109 -3 0 -13 -15
-20 -32 -25 -56 -54 -88 -98 -108 -24 -10 -43 -24 -43 -29 0 -6 -8 -11 -18
-11 -10 0 -23 -5 -29 -11 -13 -13 -110 -55 -163 -71 -19 -6 -53 -18 -75 -28
-55 -25 -253 -70 -350 -81 -44 -5 -102 -13 -130 -18 -64 -12 -423 -12 -495 0
-30 5 -93 14 -140 19 -47 5 -112 17 -145 25 -33 9 -87 22 -120 29 -58 13 -172
50 -207 68 -10 4 -20 8 -23 8 -10 0 -5 -96 9 -175 33 -188 29 -461 -8 -534 -8
-14 -17 -42 -21 -61 -4 -19 -23 -59 -41 -88 l-34 -52 19 -43 c34 -77 50 -122
57 -157 3 -19 15 -53 24 -75 10 -22 21 -54 25 -72 3 -18 15 -49 25 -70 10 -21
21 -56 25 -78 4 -22 11 -45 16 -51 5 -6 18 -37 28 -70 31 -92 47 -133 54 -140
4 -4 7 -17 7 -29 0 -12 7 -30 15 -41 8 -10 15 -26 15 -34 0 -8 11 -37 25 -64
14 -27 25 -56 25 -64 0 -7 7 -28 16 -45 28 -53 31 -61 39 -95 3 -18 11 -32 16
-32 5 0 9 -7 9 -15 0 -18 25 -29 105 -45 33 -6 75 -18 93 -26 18 -8 42 -14 54
-14 12 0 35 -4 52 -9 42 -12 112 -30 161 -41 22 -5 60 -14 85 -20 25 -7 63
-16 85 -22 22 -5 61 -16 86 -23 26 -8 57 -15 70 -15 13 0 56 -10 94 -20 39
-11 107 -27 153 -36 46 -8 95 -20 110 -25 15 -6 61 -17 102 -24 41 -8 120 -26
175 -40 55 -15 120 -30 145 -35 52 -11 548 -32 560 -25 5 3 13 28 19 55 6 28
17 65 25 84 7 18 17 57 21 87 4 30 14 67 22 82 8 16 21 61 28 100 8 40 23 106
34 147 12 41 21 87 21 102 0 15 5 39 12 55 12 30 20 75 37 213 6 47 16 100 22
119 17 50 16 565 0 614 -7 21 -17 61 -22 90 -15 93 -26 141 -37 167 -5 14 -18
51 -27 82 -9 32 -20 60 -25 63 -4 3 -11 24 -14 49 -4 24 -15 60 -25 80 -10 20
-22 53 -26 73 -4 21 -18 71 -31 112 -13 40 -24 87 -24 103 0 16 -5 38 -11 49
-15 30 -39 241 -38 344 0 49 6 135 12 190 12 99 12 100 40 103 l28 3 -8 -48
c-13 -76 -7 -330 10 -408 9 -38 18 -101 22 -140 4 -38 11 -74 15 -80 7 -9 20
-59 37 -135 2 -14 11 -39 19 -57 8 -17 14 -37 14 -45 0 -21 26 -88 38 -100 7
-7 12 -18 12 -25 0 -21 24 -93 31 -93 4 0 23 7 42 15 20 8 51 15 69 15 69 1
68 -2 58 276 -11 299 -12 548 -4 672 l7 92 34 0 35 0 -6 -52 c-3 -29 -8 -179
-12 -333 -7 -294 4 -563 32 -745 8 -52 19 -140 24 -195 6 -55 19 -140 30 -190
11 -49 25 -119 30 -155 5 -36 16 -94 25 -130 9 -36 19 -83 22 -105 3 -22 10
-45 15 -52 5 -6 13 -35 19 -65 5 -29 13 -66 16 -83 3 -16 12 -39 19 -50 8 -11
14 -32 14 -47 0 -15 5 -30 10 -33 6 -3 10 -19 10 -34 0 -16 7 -34 15 -41 8 -7
15 -19 15 -26 0 -14 97 -218 122 -259 7 -11 25 -39 41 -63 15 -24 27 -46 27
-50 0 -4 9 -13 20 -20 11 -7 20 -17 20 -24 0 -13 183 -198 197 -198 5 0 19 -9
30 -19 21 -20 45 -33 153 -86 120 -58 381 -57 492 2 28 16 67 36 87 47 20 10
38 22 41 25 3 4 25 21 50 38 45 31 117 104 155 158 22 31 69 93 85 113 6 7 17
27 25 46 8 18 21 38 29 46 9 7 16 17 16 23 0 9 39 94 77 169 7 14 13 33 13 42
0 9 4 24 9 34 23 46 41 95 41 112 0 10 5 22 10 25 6 3 10 18 10 32 0 14 6 39
14 56 8 18 17 46 19 62 3 17 11 50 17 75 40 151 62 260 80 392 5 37 13 75 18
85 5 10 12 54 16 98 3 44 14 132 23 195 24 168 25 886 0 1045 -9 61 -20 139
-23 175 -3 36 -10 77 -16 91 -5 15 -14 53 -19 85 -17 104 -26 148 -37 179 -6
17 -16 57 -23 90 -7 33 -18 70 -25 82 -8 12 -14 33 -14 45 0 13 -7 32 -15 42
-8 11 -15 32 -15 47 0 15 -4 31 -10 34 -5 3 -10 17 -10 30 0 13 -4 26 -9 29
-5 4 -17 32 -27 64 -9 31 -23 64 -31 73 -7 8 -13 25 -13 36 0 11 -11 37 -25
57 -14 20 -25 42 -25 49 0 7 -10 28 -22 47 -12 19 -35 60 -51 90 -16 30 -35
58 -42 62 -7 4 -18 21 -25 38 -7 16 -16 30 -20 30 -4 0 -22 21 -38 48 -85 131
-260 257 -433 311 -48 15 -244 12 -297 -4z m457 -366 c20 -6 43 -15 51 -20 8
-5 31 -18 50 -29 61 -35 72 -44 120 -95 96 -102 120 -129 120 -139 0 -5 15
-28 34 -51 19 -23 38 -55 42 -71 4 -16 12 -36 18 -44 19 -26 36 -59 36 -72 0
-6 6 -19 13 -27 7 -9 19 -34 26 -56 11 -36 30 -82 52 -127 5 -10 9 -28 9 -41
0 -12 6 -31 14 -42 7 -11 16 -36 19 -55 11 -72 27 -134 37 -144 6 -6 10 -27
10 -49 0 -21 5 -48 12 -60 10 -20 16 -56 37 -227 5 -41 15 -102 22 -135 18
-85 17 -869 -1 -940 -7 -27 -16 -84 -21 -125 -16 -144 -26 -206 -37 -227 -7
-12 -12 -34 -12 -49 0 -14 -7 -49 -16 -78 -28 -90 -34 -112 -34 -132 0 -11 -4
-24 -9 -30 -9 -8 -26 -65 -38 -126 -3 -15 -11 -33 -19 -39 -8 -6 -14 -20 -14
-30 0 -11 -4 -27 -9 -37 -6 -9 -21 -44 -36 -77 -14 -33 -30 -67 -35 -75 -5 -8
-16 -30 -25 -48 -8 -19 -28 -51 -45 -72 -16 -21 -30 -41 -30 -44 0 -28 -154
-189 -207 -217 -15 -7 -30 -17 -33 -20 -3 -3 -25 -15 -50 -27 -120 -57 -251
-44 -390 39 -19 12 -41 30 -48 40 -7 10 -20 19 -28 19 -8 0 -14 4 -14 8 0 4
-25 35 -55 67 -30 33 -55 65 -55 71 0 6 -7 17 -16 25 -8 7 -24 29 -35 48 -11
20 -28 50 -39 66 -11 17 -22 37 -25 45 -3 8 -17 38 -30 65 -13 28 -32 70 -41
95 -9 25 -20 50 -24 55 -4 6 -11 28 -15 50 -4 22 -10 45 -15 50 -10 14 -40
118 -40 143 0 11 -7 33 -15 48 -8 16 -15 40 -15 54 0 14 -9 49 -19 78 -11 28
-22 91 -26 139 -4 49 -11 102 -16 118 -38 126 -52 734 -23 1035 8 90 19 171
23 179 5 9 11 57 15 106 4 50 15 115 26 145 10 30 21 74 25 97 4 24 11 45 16
49 5 3 9 20 9 39 0 19 4 36 9 39 5 3 11 20 14 38 14 88 114 331 180 438 12 19
29 47 37 61 59 105 192 245 265 280 22 11 47 23 55 28 52 30 192 41 259 20z"/>
<path d="M7801 10340 c-24 -5 -51 -15 -60 -23 -9 -7 -33 -22 -54 -32 -50 -26
-154 -125 -206 -197 -22 -31 -41 -60 -41 -64 0 -4 -10 -21 -23 -38 -12 -17
-28 -42 -34 -56 -46 -102 -56 -121 -64 -126 -5 -3 -9 -14 -9 -25 0 -10 -4 -27
-9 -37 -21 -42 -41 -94 -41 -107 0 -9 -4 -23 -9 -33 -23 -46 -88 -319 -97
-407 -3 -33 -12 -87 -19 -120 -8 -33 -19 -118 -25 -190 -6 -71 -15 -163 -20
-203 -13 -95 -13 -337 0 -432 5 -41 17 -146 25 -234 9 -87 19 -166 24 -175 5
-9 11 -50 14 -93 4 -42 18 -120 32 -173 14 -54 25 -108 25 -121 0 -12 4 -25 8
-28 5 -3 17 -36 26 -73 10 -37 24 -81 31 -98 14 -32 23 -56 48 -120 25 -64 26
-68 57 -120 16 -27 38 -69 50 -92 11 -24 25 -43 30 -43 5 0 11 -8 15 -19 6
-19 27 -45 94 -116 54 -57 84 -80 143 -112 48 -26 59 -28 174 -28 99 0 125 3
140 17 11 9 36 23 57 31 20 9 37 21 37 26 0 6 5 11 10 11 10 0 120 108 120
117 0 3 10 18 23 33 12 15 31 43 42 61 11 18 28 45 37 59 10 14 21 32 24 40 3
8 17 38 30 65 47 103 84 194 84 212 1 10 7 29 15 43 29 51 20 74 -55 141 -38
35 -70 69 -70 76 0 7 -6 13 -13 13 -7 0 -35 22 -62 50 l-49 49 -13 -37 c-17
-48 -43 -186 -43 -234 0 -20 -4 -39 -9 -42 -5 -3 -12 -27 -15 -53 -13 -96 -28
-179 -38 -212 -6 -19 -14 -60 -19 -90 -16 -115 -40 -191 -59 -191 -14 0 -19
10 -23 43 -13 99 -27 179 -33 188 -6 10 -10 31 -33 192 -6 37 -13 73 -17 78
-6 10 -10 33 -34 193 -12 86 -29 107 -59 77 -12 -12 -21 -25 -21 -31 0 -5 -7
-10 -15 -10 -8 0 -15 -5 -15 -11 0 -6 -13 -28 -30 -48 -16 -20 -40 -49 -52
-64 -13 -16 -34 -41 -48 -56 -14 -16 -54 -64 -90 -109 -39 -48 -73 -81 -84
-82 -17 0 -18 6 -13 61 3 34 10 66 16 72 6 6 11 32 11 58 0 26 5 51 10 54 6 3
10 23 10 44 0 21 6 61 14 87 8 27 19 78 25 114 6 36 14 83 17 104 7 38 6 39
-17 32 -13 -3 -67 -13 -119 -21 -52 -8 -107 -18 -122 -21 -16 -4 -28 -2 -28 3
0 13 37 83 53 102 8 9 18 30 21 47 4 18 16 40 27 50 10 9 19 23 19 31 0 8 28
71 61 140 l62 126 -39 33 c-22 18 -42 33 -46 34 -4 0 -13 6 -20 13 -27 25 -87
67 -97 67 -5 0 -25 14 -43 30 -18 17 -37 30 -43 30 -5 0 -20 11 -32 24 -25 26
-20 35 27 55 14 6 32 15 40 20 22 12 89 47 130 66 19 9 42 21 50 26 17 9 67
34 90 43 8 3 22 10 30 15 8 5 23 12 34 15 14 5 17 13 13 39 -7 44 -28 118 -38
139 -10 19 -28 87 -36 133 -2 17 -11 44 -19 62 -8 17 -14 42 -14 56 0 14 -4
29 -10 32 -5 3 -10 20 -10 36 0 17 -5 40 -12 52 -6 12 -15 39 -20 60 -4 20
-12 54 -16 75 -5 20 -14 47 -21 60 -13 24 0 30 18 8 11 -13 99 -74 171 -118
14 -9 38 -27 53 -42 15 -14 40 -32 55 -40 15 -8 37 -24 49 -35 12 -12 25 -21
28 -21 3 0 24 -12 46 -26 23 -14 42 -24 43 -22 12 14 26 79 26 117 0 25 5 62
11 81 5 19 14 71 20 115 22 184 27 221 34 250 8 33 23 55 35 55 11 0 26 -52
34 -110 4 -25 15 -72 25 -105 27 -85 42 -144 48 -188 3 -20 9 -40 14 -43 5 -3
9 -19 9 -35 0 -16 7 -46 15 -66 8 -19 15 -51 15 -69 0 -23 5 -34 15 -34 8 0
61 46 117 102 l103 101 5 -384 5 -385 35 -32 c19 -17 47 -37 63 -44 15 -7 27
-16 27 -20 0 -4 16 -15 36 -24 20 -9 38 -23 40 -29 3 -7 -44 -63 -103 -124
l-108 -112 3 -82 c2 -45 7 -95 13 -112 9 -30 24 -145 39 -310 5 -49 13 -110
19 -135 6 -25 10 -62 11 -82 0 -47 16 -50 23 -5 3 17 11 52 17 77 30 115 50
214 58 290 4 36 11 71 16 78 42 67 39 1091 -4 1171 -5 11 -10 40 -10 65 0 24
-5 57 -11 73 -6 15 -15 53 -20 83 -11 75 -25 139 -37 175 -22 64 -32 102 -32
121 0 11 -6 28 -13 39 -8 11 -17 35 -20 53 -4 18 -18 56 -32 86 -14 29 -25 57
-25 62 0 13 -76 160 -100 194 -11 15 -20 31 -20 34 0 11 -92 126 -101 126 -5
0 -9 5 -9 10 0 13 -43 53 -90 82 -19 12 -37 24 -40 27 -3 4 -25 16 -50 28 -52
25 -155 36 -219 23z"/>
<path d="M8020 9582 c0 -31 -5 -73 -10 -92 -13 -43 -31 -170 -37 -267 l-5 -71
84 -4 c46 -2 91 -7 101 -12 13 -6 17 -4 17 12 0 12 -4 24 -10 27 -5 3 -10 19
-10 34 0 16 -7 45 -15 64 -8 20 -15 48 -15 63 0 14 -7 49 -16 78 -29 91 -34
112 -34 134 0 25 -30 92 -42 92 -4 0 -8 -26 -8 -58z"/>
<path d="M7523 9340 c2 -25 12 -70 21 -100 9 -30 21 -75 26 -100 9 -40 33
-119 62 -205 5 -16 14 -50 19 -75 14 -70 17 -74 34 -60 8 7 15 20 15 29 0 22
46 110 88 168 12 17 22 35 22 40 1 4 19 21 41 36 22 15 39 33 36 40 -2 7 -19
22 -38 34 -19 12 -41 29 -50 38 -9 8 -21 15 -27 15 -7 0 -12 5 -12 10 0 6 -5
10 -11 10 -6 0 -24 10 -39 23 -52 41 -148 107 -155 107 -4 0 -14 8 -22 18 -12
15 -13 12 -10 -28z"/>
<path d="M8370 9209 c-19 -21 -40 -38 -46 -39 -6 0 -17 -11 -24 -25 -7 -13
-21 -27 -32 -31 -24 -7 -24 -58 0 -82 10 -10 26 -33 35 -52 21 -41 36 -66 59
-98 10 -14 21 -46 24 -73 4 -27 13 -54 20 -60 12 -10 14 14 13 147 -1 88 -4
202 -8 255 l-6 96 -35 -38z"/>
<path d="M8000 9099 c-13 -5 -27 -13 -30 -17 -3 -4 -18 -12 -35 -17 -16 -6
-39 -25 -50 -42 -11 -18 -24 -33 -30 -33 -11 -1 -65 -82 -65 -98 0 -5 -7 -15
-15 -22 -8 -7 -17 -28 -21 -49 -4 -20 -14 -49 -24 -66 -10 -16 -23 -66 -29
-110 -6 -44 -15 -102 -20 -130 -12 -64 -13 -216 0 -280 5 -27 14 -81 20 -120
6 -38 19 -88 29 -110 10 -22 22 -51 25 -64 16 -56 99 -159 164 -203 38 -25 53
-29 112 -29 57 0 75 5 112 28 45 29 117 103 117 120 0 6 9 18 19 27 11 10 22
29 26 44 3 14 15 38 26 53 10 15 19 34 19 42 0 8 7 30 15 50 14 35 26 101 45
270 11 88 8 135 -20 327 -19 133 -86 274 -171 362 -57 59 -162 91 -219 67z"/>
<path d="M7595 8649 c-16 -10 -37 -22 -45 -25 -28 -11 -75 -34 -90 -44 -8 -5
-31 -16 -50 -25 -19 -8 -43 -19 -52 -25 -10 -5 -26 -15 -35 -20 -10 -6 -26
-13 -36 -17 -17 -5 -16 -7 4 -29 12 -13 26 -24 31 -24 11 0 98 -60 128 -88 13
-12 29 -22 34 -22 6 -1 33 -20 60 -44 49 -43 49 -44 36 -77 -7 -19 -19 -41
-25 -49 -6 -8 -18 -31 -25 -50 -7 -19 -19 -42 -27 -51 -7 -8 -13 -21 -13 -27
0 -6 -27 -64 -59 -129 -33 -64 -58 -120 -56 -123 5 -8 90 6 161 26 28 8 65 14
83 14 32 0 33 -1 28 -32 -6 -35 -17 -85 -47 -208 -10 -41 -21 -100 -25 -130
-4 -30 -13 -77 -21 -104 -16 -58 -18 -106 -4 -106 6 0 26 23 46 50 20 28 40
50 45 50 5 0 9 6 9 14 0 8 9 21 19 28 11 8 41 43 67 78 26 36 68 88 93 115 25
28 52 61 60 75 13 22 12 25 -10 40 -31 20 -107 98 -122 125 -11 19 -32 62 -72
145 -6 14 -17 52 -24 85 -7 33 -19 83 -27 111 -20 72 -20 372 1 440 24 81 17
90 -40 53z"/>
<path d="M8440 8381 c0 -60 -4 -121 -10 -135 -5 -14 -6 -26 -1 -26 15 0 161
156 161 172 0 10 -25 38 -34 38 -4 0 -25 14 -48 30 -66 48 -68 45 -68 -79z"/>
<path d="M8392 8057 c-7 -16 -12 -37 -12 -47 0 -10 -4 -21 -8 -24 -4 -3 -21
-31 -37 -63 -40 -79 -100 -167 -135 -197 -16 -13 -55 -37 -85 -52 -50 -24 -63
-26 -127 -21 -69 6 -70 6 -63 -16 3 -12 10 -52 14 -88 5 -37 12 -72 16 -79 7
-11 11 -31 34 -193 6 -37 13 -72 17 -78 3 -6 10 -38 14 -72 14 -97 30 -190 37
-200 10 -16 22 15 29 73 4 30 12 71 19 90 8 19 16 62 19 94 2 32 10 64 15 69
6 6 11 35 11 63 0 29 5 56 10 59 6 3 10 25 10 48 1 23 7 60 15 82 8 22 15 53
15 70 0 41 23 135 33 135 9 0 92 -76 178 -164 57 -58 58 -58 64 -33 4 14 -2
72 -13 129 -11 56 -23 148 -27 203 -4 55 -13 132 -19 170 -12 67 -13 69 -24
42z"/>
<path d="M1095 9786 c-4 -20 -5 -42 -2 -49 6 -16 107 -34 229 -42 48 -3 111
-10 139 -16 71 -15 304 8 337 34 6 5 12 27 12 48 l0 39 -96 0 c-60 0 -113 -6
-144 -16 -58 -19 -326 -17 -338 2 -4 6 -25 14 -47 17 -22 2 -50 8 -62 12 -19
6 -23 2 -28 -29z"/>
<path d="M1137 9684 c-4 -4 -7 -18 -7 -31 0 -14 -12 -40 -26 -59 -26 -34 -26
-34 -20 -176 15 -338 22 -454 29 -466 5 -7 13 -74 18 -150 19 -275 27 -359 37
-393 6 -19 13 -79 17 -134 3 -55 13 -131 21 -170 8 -38 19 -108 25 -155 6 -47
19 -111 30 -142 10 -32 19 -64 19 -72 0 -15 27 -29 41 -20 5 3 9 12 9 20 0 8
4 14 8 14 5 0 16 16 25 35 9 19 21 35 26 35 5 0 18 15 29 33 12 17 39 58 61
91 23 32 41 60 41 63 0 2 6 10 12 17 23 24 59 71 79 101 22 36 41 65 51 79 4
6 21 27 38 47 16 20 30 41 30 47 0 5 11 20 25 33 13 13 25 30 25 37 0 6 5 12
10 12 6 0 14 8 17 18 4 9 21 35 40 56 18 22 33 46 33 53 0 7 7 13 15 13 17 0
20 -16 6 -24 -12 -8 -85 -116 -94 -138 -3 -10 -11 -18 -17 -18 -5 0 -10 -7
-10 -15 0 -9 -7 -18 -15 -21 -8 -4 -15 -11 -15 -16 0 -6 -22 -41 -50 -79 -27
-38 -50 -71 -50 -74 0 -3 -34 -54 -75 -115 -41 -61 -75 -114 -75 -119 0 -5 -3
-11 -7 -13 -10 -4 -83 -111 -83 -121 0 -4 -9 -16 -20 -27 -34 -34 -25 -42 38
-35 54 5 105 17 162 36 14 4 59 11 100 14 105 9 136 20 155 57 8 17 15 41 15
54 0 13 4 26 10 29 5 3 10 16 10 28 0 12 7 35 15 51 8 15 15 35 15 44 0 18 17
73 36 120 8 18 17 51 20 75 4 23 11 47 15 53 5 6 18 44 29 85 10 41 31 106 45
144 30 80 58 195 50 204 -4 3 -26 -2 -51 -11 -42 -15 -44 -15 -44 2 0 44 -18
60 -43 40 -21 -17 -116 -80 -122 -80 -3 0 -13 -8 -24 -17 -10 -10 -42 -31 -70
-48 -28 -16 -68 -45 -89 -62 -20 -18 -41 -33 -46 -33 -5 0 -24 -11 -42 -25
-18 -14 -34 -25 -37 -25 -2 0 -54 -33 -116 -74 -109 -72 -142 -83 -140 -47 0
13 110 94 198 146 9 6 47 31 83 58 37 26 71 47 77 47 6 0 11 4 11 10 0 5 18
19 40 30 22 11 40 24 40 28 0 4 18 16 40 26 22 11 40 22 40 26 0 4 14 13 30
20 17 7 30 16 30 21 0 4 15 15 34 24 68 33 72 43 52 148 -10 50 -24 130 -32
177 -9 47 -20 100 -25 118 -10 31 -20 86 -38 207 -5 28 -13 63 -19 78 -7 16
-12 45 -12 66 0 20 -6 49 -12 64 l-13 26 -120 -5 c-85 -4 -159 -1 -255 11
-197 25 -243 32 -265 39 -11 4 -24 4 -28 0z"/>
<path d="M2320 8753 c-8 -2 -29 -11 -47 -19 -17 -8 -38 -14 -46 -14 -9 0 -19
-4 -22 -10 -3 -5 -16 -10 -29 -10 -22 0 -46 -33 -46 -63 0 -7 -6 -24 -14 -38
-7 -14 -17 -48 -20 -74 -4 -26 -16 -66 -26 -89 -24 -56 -40 -104 -50 -146 -4
-19 -17 -63 -28 -96 -12 -34 -24 -81 -28 -105 -4 -24 -14 -57 -22 -74 -8 -16
-21 -55 -28 -85 -7 -30 -18 -69 -25 -87 -7 -18 -10 -35 -6 -39 6 -7 183 15
307 37 72 13 239 61 315 90 11 4 29 10 40 13 29 7 87 30 107 41 16 10 16 14
-3 70 -10 32 -26 69 -34 82 -8 12 -15 28 -15 36 0 7 -11 35 -24 63 -13 27 -34
76 -46 109 -12 33 -33 83 -46 110 -13 28 -24 60 -24 71 0 12 -7 27 -15 34 -8
7 -20 31 -26 54 -10 36 -26 77 -49 126 -8 16 -27 22 -50 13z"/>
<path d="M3340 7454 c-25 -7 -61 -14 -80 -14 -54 0 -192 -29 -216 -45 -12 -8
-25 -30 -29 -51 -3 -21 -15 -49 -26 -62 -10 -14 -19 -29 -19 -35 0 -21 -111
-243 -129 -257 -14 -11 -61 -79 -61 -88 0 -5 -6 -15 -14 -21 -8 -7 -21 -26
-30 -44 -9 -18 -21 -39 -25 -47 -5 -8 -24 -46 -41 -83 -26 -55 -41 -73 -76
-93 -24 -14 -44 -31 -44 -37 0 -6 -6 -18 -13 -26 -7 -9 -19 -34 -26 -56 -7
-22 -19 -47 -26 -55 -7 -8 -16 -31 -20 -50 -10 -47 -46 -97 -163 -229 -32 -34
-63 -74 -70 -87 -7 -13 -17 -24 -22 -24 -6 0 -10 -6 -10 -13 0 -8 -37 -69 -82
-136 -110 -162 -116 -173 -117 -191 -1 -8 -7 -27 -15 -41 -7 -14 -16 -43 -20
-64 -4 -22 -16 -55 -25 -75 -10 -19 -21 -48 -25 -65 -4 -16 -29 -75 -56 -130
-26 -55 -51 -107 -54 -115 -4 -8 -17 -35 -31 -59 -14 -24 -25 -45 -25 -46 0
-2 12 -5 28 -8 61 -12 118 -29 127 -38 5 -5 19 -9 31 -9 35 0 84 -21 84 -36 0
-8 7 -14 15 -14 8 0 15 -4 15 -9 0 -18 94 -72 120 -69 24 3 25 7 30 74 5 66 7
72 43 103 20 18 37 41 37 51 0 10 7 23 15 30 8 7 15 19 15 26 0 8 4 22 9 32
28 53 91 191 91 198 0 5 13 36 29 69 65 135 81 171 81 182 0 6 15 31 34 56 19
24 39 54 45 66 7 11 16 21 21 21 6 0 18 8 29 18 37 35 87 76 122 99 20 13 50
43 67 66 17 23 50 63 74 89 39 42 79 109 107 178 6 14 22 43 36 65 14 22 28
47 31 55 4 8 31 67 61 130 51 109 59 126 83 168 5 9 14 28 20 42 5 14 14 32
19 40 5 8 17 31 26 50 9 19 25 49 36 65 10 17 28 48 40 70 11 22 34 63 50 90
16 28 37 67 46 87 10 21 23 38 30 38 20 0 27 -84 10 -117 -9 -15 -23 -44 -31
-63 -9 -19 -20 -42 -25 -50 -5 -8 -28 -53 -51 -100 -23 -47 -46 -92 -51 -100
-5 -8 -12 -22 -15 -30 -3 -8 -9 -22 -14 -30 -5 -8 -17 -31 -26 -50 -9 -19 -24
-51 -34 -70 -10 -19 -21 -46 -25 -60 -4 -14 -13 -32 -20 -40 -6 -8 -18 -31
-25 -50 -7 -19 -19 -42 -25 -50 -7 -8 -15 -28 -19 -44 -4 -17 -16 -42 -27 -57
-10 -15 -19 -33 -19 -41 0 -36 -70 -125 -189 -240 -72 -69 -131 -132 -131
-139 0 -15 -49 -69 -63 -69 -17 0 -117 -80 -117 -94 0 -7 -11 -35 -25 -62 -14
-27 -25 -54 -25 -60 0 -6 -7 -17 -15 -24 -8 -7 -15 -20 -15 -30 0 -9 -11 -38
-24 -64 -13 -27 -27 -60 -31 -74 -3 -14 -15 -37 -26 -50 -10 -14 -19 -29 -19
-34 0 -9 -134 -292 -150 -318 -10 -15 -17 -29 -39 -80 -6 -14 -15 -32 -20 -40
-8 -13 -22 -43 -75 -160 -9 -19 -21 -42 -26 -50 -9 -16 -23 -50 -24 -62 -1 -3
-4 -10 -9 -14 -11 -11 -117 -232 -117 -244 0 -5 7 -10 15 -10 9 0 32 -8 53
-19 20 -10 53 -22 72 -26 19 -4 69 -23 110 -42 84 -39 130 -45 158 -20 10 9
34 17 54 17 30 0 39 6 61 38 14 20 28 53 32 72 4 19 14 44 21 55 8 11 14 26
14 35 0 8 9 26 20 40 11 14 20 32 20 41 0 8 11 37 24 63 13 27 27 60 31 75 3
14 12 40 19 56 8 17 19 44 26 60 7 17 19 42 26 57 8 14 14 33 14 41 0 9 3 17
8 19 4 2 35 37 70 78 35 41 82 97 105 124 63 73 76 107 101 259 10 63 14 71
51 98 22 16 50 33 62 38 23 11 73 77 73 98 0 7 11 29 25 49 14 20 25 43 25 50
0 8 5 14 11 14 6 0 30 19 55 43 40 39 44 46 44 93 0 47 4 55 49 104 28 30 55
66 62 80 6 14 16 33 21 43 5 10 18 47 29 82 11 35 24 67 29 70 6 3 10 15 10
25 0 10 6 31 14 47 22 44 66 157 66 170 0 6 10 19 21 27 24 16 50 55 91 134
25 48 26 56 14 85 -20 48 -56 156 -71 212 -15 57 -49 125 -68 140 -8 6 -17 28
-20 50 -16 97 -24 131 -34 150 -6 11 -24 52 -38 90 -52 133 -54 135 -105 134
-25 0 -65 -7 -90 -15z"/>
<path d="M3825 6458 c-11 -24 -20 -29 -84 -50 -41 -13 -45 -17 -66 -79 -45
-130 -66 -195 -80 -244 -18 -65 -33 -111 -56 -161 -11 -23 -19 -46 -19 -52 0
-11 -31 -48 -157 -187 -29 -33 -56 -71 -59 -85 -3 -14 -10 -35 -15 -48 -5 -13
-9 -33 -9 -45 0 -24 -51 -87 -70 -87 -6 0 -26 -11 -44 -25 -18 -14 -38 -25
-44 -25 -6 0 -16 -17 -22 -37 -7 -21 -20 -47 -30 -58 -9 -11 -27 -40 -40 -65
-12 -25 -27 -52 -31 -60 -5 -8 -19 -33 -30 -55 -11 -22 -23 -47 -28 -55 -5 -8
-18 -35 -31 -60 -50 -102 -133 -266 -141 -280 -5 -8 -12 -22 -15 -30 -15 -39
-24 -59 -49 -115 -15 -33 -31 -67 -36 -75 -10 -17 -10 -15 -56 -135 -34 -90
-46 -118 -76 -185 -9 -19 -23 -57 -32 -85 -9 -27 -20 -54 -25 -60 -4 -5 -11
-31 -15 -58 -4 -26 -12 -50 -17 -53 -10 -7 19 -44 35 -44 6 0 18 -7 28 -16 19
-17 210 -32 272 -20 38 7 44 14 88 109 13 26 26 47 31 47 4 0 8 6 8 13 0 18
131 273 180 352 10 17 19 38 19 48 1 9 5 17 10 17 5 0 15 15 21 34 6 19 19 45
29 58 10 13 21 36 25 51 4 16 15 38 26 49 10 11 22 34 25 49 4 16 11 31 16 34
7 5 21 33 43 85 3 8 15 29 26 45 31 49 50 87 50 102 0 7 3 13 8 13 4 0 15 15
23 33 34 68 79 155 122 237 49 91 133 255 155 299 7 14 17 33 23 41 8 13 17
31 43 90 3 8 15 29 25 45 11 17 20 38 20 48 1 9 4 17 9 17 4 0 16 15 26 34 15
29 17 40 7 67 -6 18 -11 59 -11 93 -1 34 -5 81 -10 106 -9 47 -3 93 30 240 11
47 20 101 21 120 4 69 -25 105 -46 58z"/>
<path d="M3967 6283 c-4 -3 -7 -17 -7 -30 0 -13 -7 -38 -16 -54 -8 -17 -14
-32 -12 -33 2 -2 29 -11 60 -20 32 -10 60 -21 63 -26 2 -4 23 -10 46 -14 22
-4 57 -15 77 -25 21 -10 53 -22 72 -26 19 -3 73 -21 120 -40 47 -18 132 -47
190 -65 58 -17 116 -37 130 -44 14 -7 48 -19 75 -26 28 -7 64 -18 82 -26 17
-8 36 -14 42 -14 6 0 19 -4 29 -9 20 -10 67 -26 137 -47 28 -9 64 -21 80 -28
87 -37 118 -44 275 -65 41 -6 85 -13 98 -17 27 -8 27 -6 7 130 -8 55 -20 105
-27 112 -14 13 -101 39 -182 54 -45 8 -129 31 -246 65 -25 8 -72 19 -105 25
-33 7 -76 18 -95 25 -19 7 -60 16 -90 20 -30 3 -68 12 -85 20 -16 7 -59 19
-95 26 -36 6 -90 20 -121 30 -31 10 -80 21 -110 25 -30 4 -66 13 -81 20 -15 8
-38 14 -51 14 -13 0 -37 7 -54 15 -53 26 -189 45 -206 28z"/>
<path d="M3890 6109 c-7 -13 -11 -77 -9 -177 3 -176 1 -183 -76 -297 -34 -51
-44 -69 -60 -105 -8 -19 -19 -42 -25 -50 -5 -8 -18 -33 -30 -55 -11 -22 -33
-62 -50 -90 -29 -48 -42 -73 -54 -105 -4 -8 -15 -28 -26 -45 -11 -16 -29 -48
-40 -70 -12 -22 -25 -47 -29 -55 -5 -8 -37 -73 -71 -145 -34 -71 -66 -137 -71
-145 -5 -8 -12 -22 -15 -30 -3 -8 -10 -22 -15 -30 -5 -8 -14 -26 -20 -40 -22
-51 -29 -65 -39 -80 -5 -8 -21 -42 -35 -75 -14 -33 -37 -82 -50 -110 -14 -27
-27 -64 -31 -82 -3 -18 -15 -40 -25 -49 -11 -9 -19 -24 -19 -32 0 -17 -59
-144 -71 -152 -3 -3 -9 -19 -13 -36 -4 -16 -18 -52 -31 -79 -14 -26 -25 -56
-25 -65 0 -10 -7 -23 -15 -30 -8 -7 -15 -21 -15 -31 0 -10 -4 -21 -10 -24 -5
-3 -10 -13 -10 -22 0 -9 -6 -24 -13 -32 -14 -17 -52 -120 -46 -125 2 -1 69 1
149 5 80 5 267 13 415 18 149 6 304 15 345 20 41 6 109 10 151 11 42 0 89 4
105 10 16 5 81 14 144 20 110 10 291 40 375 61 22 5 83 17 135 25 52 9 118 22
145 29 69 17 166 35 196 35 13 0 42 7 64 15 22 8 59 14 82 15 23 0 45 5 48 10
3 6 24 10 45 10 21 0 51 5 67 11 15 6 53 15 83 19 30 5 67 12 83 16 19 4 27 2
27 -6 0 -7 11 -28 25 -46 14 -18 25 -37 25 -42 0 -5 7 -15 16 -23 9 -7 23 -27
32 -45 22 -40 58 -102 80 -135 9 -14 30 -46 46 -70 16 -24 33 -47 39 -50 5 -4
19 -23 31 -42 11 -20 42 -66 69 -102 26 -36 47 -69 47 -73 1 -4 14 -23 30 -42
17 -19 30 -40 30 -47 0 -6 6 -16 13 -20 7 -4 24 -24 37 -43 33 -47 71 -91 160
-181 88 -89 83 -88 320 -99 279 -13 457 -31 585 -60 94 -22 100 -20 103 26 2
27 -2 45 -13 54 -16 13 -20 30 -7 30 4 0 25 -17 48 -38 23 -20 48 -41 56 -47
55 -37 108 -80 108 -87 0 -4 6 -8 13 -8 7 0 30 -18 52 -40 22 -21 45 -39 52
-40 6 0 13 -3 15 -7 5 -13 105 -93 115 -93 5 0 19 -10 30 -22 22 -24 100 -88
168 -139 63 -46 95 -72 130 -101 18 -16 38 -28 44 -28 6 0 11 -6 11 -14 0 -8
8 -17 18 -20 9 -3 34 -22 55 -41 21 -19 40 -35 43 -35 6 0 85 -62 116 -90 9
-8 33 -26 54 -40 20 -14 49 -37 65 -52 15 -16 31 -28 36 -28 5 0 27 -18 48
-40 21 -22 44 -40 50 -40 5 0 29 -18 53 -40 46 -43 62 -49 62 -25 0 8 6 15 13
15 7 0 21 14 30 30 10 17 22 30 28 30 5 0 9 6 9 14 0 7 15 29 33 49 17 20 41
48 52 62 27 36 84 102 118 137 15 16 27 34 27 39 0 15 27 10 34 -7 4 -10 -11
-38 -39 -75 -25 -33 -45 -63 -45 -67 -1 -4 -19 -25 -40 -47 -22 -22 -40 -43
-40 -48 0 -9 -35 -56 -65 -87 -20 -22 -65 -89 -65 -98 0 -4 18 -15 40 -25 22
-9 40 -21 40 -26 0 -5 8 -11 18 -15 9 -3 25 -11 34 -18 15 -10 27 -10 67 5 27
9 62 17 77 17 16 0 47 7 69 15 22 8 55 14 73 15 18 0 51 6 73 13 32 10 39 16
36 32 -14 68 -27 152 -37 238 l-10 98 -98 94 c-111 108 -130 125 -138 125 -4
0 -21 12 -40 28 -18 15 -64 51 -103 81 -39 30 -71 58 -71 62 0 5 -4 9 -10 9
-11 0 -105 66 -132 92 -10 10 -37 29 -60 44 -24 15 -61 44 -83 66 -22 21 -44
38 -48 38 -5 0 -19 9 -31 20 -28 26 -144 112 -167 125 -11 5 -19 15 -19 21 0
7 -10 14 -22 18 -13 3 -42 22 -66 43 -23 21 -64 54 -90 73 -26 19 -49 38 -52
41 -3 3 -32 24 -65 47 -33 22 -73 54 -89 71 -17 17 -33 31 -38 31 -7 0 -97 66
-108 79 -3 3 -12 11 -21 16 -9 6 -51 37 -94 70 -42 33 -85 64 -96 70 -10 5
-19 15 -19 22 0 7 -5 13 -11 13 -14 0 -149 100 -178 133 -8 9 -20 17 -25 17
-5 0 -33 20 -62 45 -28 25 -55 45 -59 45 -4 0 -28 17 -54 39 -61 51 -140 111
-146 111 -3 0 -13 8 -24 18 -10 9 -42 35 -70 57 -29 22 -69 55 -90 73 -21 17
-42 32 -46 32 -5 0 -15 7 -24 15 -23 21 -80 66 -120 94 -35 25 -52 38 -95 77
-15 13 -31 24 -36 24 -5 0 -23 14 -40 30 -17 17 -39 30 -49 30 -18 0 -51 -29
-51 -45 0 -4 -11 -22 -24 -39 -13 -17 -27 -42 -31 -56 -4 -14 -13 -32 -20 -40
-8 -8 -37 -52 -67 -97 -114 -176 -115 -180 -72 -210 28 -20 126 -97 218 -171
55 -45 69 -56 113 -92 10 -9 40 -31 66 -48 26 -18 58 -43 71 -55 53 -48 77
-67 86 -67 6 0 10 -4 10 -8 0 -5 21 -24 48 -42 26 -19 49 -38 50 -42 2 -4 10
-8 18 -8 8 0 14 -4 14 -9 0 -5 21 -24 46 -42 25 -19 55 -42 65 -52 11 -10 39
-33 63 -51 24 -18 50 -38 57 -45 8 -6 32 -25 54 -41 58 -43 67 -51 61 -57 -7
-7 -65 30 -101 63 -25 23 -34 25 -73 20 -25 -3 -53 -13 -62 -21 -9 -8 -22 -15
-28 -15 -12 0 -18 -2 -77 -32 -16 -9 -48 -21 -70 -28 -22 -7 -62 -25 -90 -39
-27 -15 -70 -33 -95 -41 -25 -7 -50 -18 -57 -22 -6 -5 -14 -5 -18 2 -3 5 -18
10 -33 11 l-27 1 30 10 c17 6 37 17 46 24 8 8 20 14 25 14 5 0 27 9 49 20 22
11 46 20 55 20 8 0 26 9 40 20 14 11 32 20 41 20 8 0 38 11 65 25 27 14 53 25
58 25 5 0 28 8 50 19 23 10 49 21 59 25 16 5 14 9 -13 36 -17 16 -34 30 -38
30 -4 0 -23 14 -42 31 -32 30 -35 31 -64 17 -17 -8 -69 -32 -116 -55 -47 -22
-99 -46 -117 -53 -18 -7 -38 -18 -44 -26 -6 -8 -18 -14 -25 -14 -7 0 -42 -13
-76 -29 -89 -40 -102 -43 -123 -27 -25 18 -8 41 37 50 17 3 39 12 47 20 9 8
37 21 62 29 26 9 64 26 85 38 69 39 89 49 101 49 6 0 26 8 45 17 60 30 68 33
82 33 8 0 16 7 20 15 3 8 0 15 -5 15 -6 0 -28 14 -48 31 -75 63 -83 69 -90 69
-4 0 -26 18 -50 40 -23 22 -45 40 -47 40 -7 0 -107 74 -134 99 -14 12 -44 34
-67 48 -24 14 -43 28 -43 32 0 3 -30 29 -66 56 -36 28 -80 62 -99 78 -18 15
-36 27 -40 27 -7 0 -22 13 -76 63 -10 9 -23 17 -28 17 -4 0 -33 22 -62 50 -30
27 -59 50 -64 50 -6 0 -30 18 -54 40 -24 22 -47 40 -52 40 -5 0 -9 4 -9 8 0 5
-10 13 -22 19 -13 6 -61 42 -108 80 -47 38 -107 84 -134 103 -51 37 -67 49
-127 99 -20 17 -39 31 -42 31 -4 0 -25 18 -49 40 -24 22 -46 40 -50 40 -6 0
-14 6 -89 69 -20 17 -42 31 -48 31 -13 0 -15 36 -3 44 5 3 31 42 58 87 27 45
57 94 66 108 9 14 27 45 39 69 13 23 25 42 28 42 4 0 13 15 20 32 14 31 41 75
77 126 l16 24 21 -23 c15 -16 17 -24 9 -27 -7 -2 -22 -20 -33 -40 -11 -21 -31
-55 -44 -77 -13 -22 -33 -56 -45 -75 -26 -45 -41 -68 -65 -105 -54 -80 -86
-146 -80 -163 3 -10 33 -36 68 -60 l62 -42 35 42 c38 45 56 73 66 101 3 9 10
17 15 17 5 0 9 4 9 10 0 5 19 36 43 70 23 33 52 74 65 92 12 18 31 44 42 56
28 32 25 58 -7 79 -16 10 -37 26 -48 35 -11 9 -31 26 -45 37 -14 11 -20 20
-13 21 6 0 18 -7 27 -15 8 -8 19 -15 24 -15 4 0 19 -11 32 -25 13 -14 28 -25
35 -25 6 0 26 -14 45 -30 19 -17 40 -34 45 -38 6 -4 27 -19 47 -34 41 -31 58
-35 58 -14 0 8 9 30 19 48 10 18 22 49 26 68 4 19 11 40 16 45 4 6 15 33 24
60 9 28 22 64 30 80 7 17 18 44 25 60 6 17 18 43 26 58 8 16 14 35 14 43 0 14
3 22 33 82 9 19 17 40 17 47 0 7 6 26 14 42 8 15 19 42 26 58 7 17 18 43 26
58 l14 28 -38 -6 c-65 -11 -92 -26 -92 -49 0 -36 -31 -118 -57 -153 -21 -29
-30 -33 -69 -33 -39 0 -46 3 -55 28 -7 15 -15 36 -20 47 -4 11 -9 29 -11 40
-3 18 -11 20 -93 20 -50 0 -95 3 -102 8 -6 4 -35 12 -65 18 -116 24 -223 56
-281 85 -16 8 -34 14 -42 14 -7 0 -26 7 -41 15 -16 8 -37 15 -46 15 -9 0 -20
5 -23 10 -3 6 -16 10 -29 10 -12 0 -31 7 -42 15 -10 8 -29 15 -41 15 -12 0
-25 5 -28 10 -3 6 -16 10 -29 10 -12 0 -31 7 -42 15 -10 8 -29 15 -41 15 -12
0 -25 5 -28 10 -3 6 -13 10 -22 10 -8 0 -29 6 -46 14 -18 8 -57 22 -87 31 -30
10 -59 21 -65 25 -5 4 -25 10 -42 13 -18 4 -52 16 -75 27 -23 11 -49 20 -58
20 -8 0 -24 6 -35 13 -11 7 -48 22 -83 32 -35 10 -65 22 -68 26 -2 4 -25 11
-49 15 -25 3 -48 10 -51 15 -9 15 -23 10 -34 -12z"/>
<path d="M6008 5904 c-3 -3 -101 -9 -217 -13 -115 -4 -212 -9 -215 -12 -3 -3
-1 -21 4 -40 5 -19 16 -86 24 -148 20 -152 52 -198 105 -152 17 15 27 40 37
98 7 43 14 90 14 104 0 25 3 26 68 32 37 4 87 10 111 13 l44 7 -7 -42 c-3 -23
-13 -52 -20 -64 -8 -12 -20 -42 -27 -67 -7 -25 -19 -54 -26 -65 -7 -11 -13
-28 -13 -37 0 -10 -4 -26 -9 -36 -5 -9 -16 -33 -24 -52 -9 -19 -25 -55 -36
-80 -11 -25 -23 -58 -27 -75 -4 -16 -13 -39 -20 -50 -8 -11 -14 -29 -14 -42 0
-12 -4 -25 -10 -28 -5 -3 -10 -14 -10 -24 0 -9 -5 -22 -12 -29 -13 -13 -38
-79 -38 -103 0 -9 -6 -22 -14 -28 -25 -21 -29 -91 -4 -91 5 0 46 -24 91 -54
103 -66 124 -74 142 -49 8 10 14 27 15 38 0 19 24 105 75 265 13 41 28 98 34
125 11 56 37 136 57 177 8 14 14 37 14 50 0 32 15 52 34 45 21 -8 20 -46 -4
-106 -10 -27 -22 -73 -26 -103 -4 -29 -10 -58 -15 -63 -4 -6 -13 -33 -20 -60
-6 -28 -17 -61 -24 -75 -7 -14 -15 -49 -19 -77 -4 -29 -16 -74 -26 -99 -11
-25 -20 -56 -20 -68 0 -12 -6 -46 -14 -76 -13 -49 -13 -57 1 -72 9 -10 21 -18
28 -18 7 0 20 -9 31 -21 10 -12 32 -28 49 -36 16 -9 34 -22 38 -29 4 -8 14
-14 20 -14 7 0 39 -22 72 -50 33 -27 65 -50 72 -50 7 0 13 -4 13 -10 0 -5 18
-19 40 -30 22 -11 40 -24 40 -28 0 -4 15 -16 32 -27 52 -32 78 -51 178 -127
27 -21 52 -38 55 -38 6 0 140 -100 168 -124 9 -9 22 -16 27 -16 14 0 13 46 -2
73 -6 12 -15 38 -19 57 -18 81 -31 126 -40 135 -5 5 -9 19 -9 31 0 13 -4 26
-10 29 -5 3 -10 16 -10 29 0 12 -7 31 -15 42 -8 10 -15 28 -15 40 0 11 -11 43
-25 70 -14 27 -28 63 -31 81 -3 17 -15 39 -25 49 -10 9 -19 24 -19 33 0 17
-22 61 -108 221 -28 52 -61 113 -72 135 -12 22 -41 76 -65 120 -24 44 -53 98
-65 120 -11 22 -25 47 -30 55 -6 8 -17 31 -25 50 -9 19 -20 42 -25 50 -5 8
-17 31 -25 50 -20 45 -43 91 -56 110 -5 8 -16 31 -24 50 -9 19 -20 43 -25 52
-6 10 -10 52 -10 93 l0 75 -33 0 c-19 0 -36 -3 -39 -6z"/>
<path d="M5471 4937 c-36 -56 -55 -82 -76 -104 -11 -11 -38 -46 -60 -78 -22
-31 -52 -71 -67 -89 -16 -19 -28 -39 -28 -45 0 -6 -4 -11 -8 -11 -5 0 -17 -16
-28 -36 l-19 -35 45 -40 c60 -52 70 -61 103 -82 16 -10 37 -26 47 -35 10 -9
31 -26 45 -37 15 -11 39 -30 53 -43 123 -103 171 -130 186 -99 8 15 28 47 84
127 23 34 42 64 42 67 0 5 49 72 67 90 6 7 17 26 25 43 7 16 16 30 20 30 4 0
15 14 24 32 l16 32 -47 43 c-27 24 -52 43 -56 43 -4 0 -27 17 -52 38 -24 20
-58 48 -77 62 -18 14 -56 43 -84 65 -47 37 -93 70 -123 88 -6 4 -20 -6 -32
-26z"/>
<path d="M5935 4524 c-22 -37 -47 -78 -55 -93 -14 -23 -94 -147 -156 -242 -13
-19 -24 -42 -24 -50 0 -8 26 -33 58 -56 31 -23 72 -56 90 -73 42 -38 66 -38
82 -1 6 16 18 32 26 35 8 3 14 12 14 19 0 8 14 31 30 52 17 21 30 42 30 48 0
6 7 17 15 26 39 43 51 60 69 94 11 20 23 37 28 37 4 0 8 7 8 15 0 8 9 24 19
34 47 47 46 57 -15 103 -31 24 -73 54 -93 68 -20 14 -40 31 -44 37 -17 28 -43
11 -82 -53z"/>
<path d="M3680 3599 c-157 -5 -346 -13 -420 -20 -74 -6 -199 -13 -278 -16
l-144 -6 -26 -35 c-15 -19 -35 -43 -44 -53 -10 -11 -18 -22 -18 -25 0 -4 -14
-23 -31 -43 -16 -20 -40 -47 -51 -61 -71 -84 -88 -121 -88 -185 0 -85 19 -163
47 -200 13 -16 27 -34 31 -40 4 -5 18 -27 30 -47 13 -20 26 -38 30 -40 12 -5
57 -72 76 -110 9 -21 21 -38 25 -38 5 0 11 -8 15 -17 3 -10 19 -40 36 -68 16
-27 37 -66 47 -85 10 -19 20 -37 23 -40 3 -3 19 -27 35 -54 17 -27 38 -60 47
-75 10 -14 20 -33 23 -41 4 -8 14 -33 25 -55 10 -22 26 -63 35 -92 29 -91 43
-84 100 47 8 19 19 42 24 50 5 8 24 47 41 85 17 39 36 77 41 85 4 8 22 44 40
80 17 36 35 72 40 80 5 8 15 31 24 50 8 19 19 42 25 50 14 21 28 54 32 76 3
16 -3 19 -36 17 -22 -2 -51 -10 -64 -19 -14 -9 -40 -20 -56 -25 -30 -7 -78
-23 -121 -40 -49 -19 -146 -49 -159 -49 -8 0 -28 -8 -46 -17 -30 -17 -32 -17
-45 1 -20 27 -19 56 2 56 9 0 30 4 47 9 17 5 58 17 91 26 33 10 76 23 95 30
19 8 60 19 90 26 30 6 71 17 90 25 19 7 60 18 90 25 30 6 69 18 87 25 17 8 37
14 45 14 10 0 13 19 13 79 0 44 -3 71 -7 61 -4 -11 -19 -22 -34 -26 -23 -6
-875 4 -881 10 -2 1 -4 25 -5 52 l-3 49 60 -2 c120 -3 745 -33 802 -39 l58 -5
28 41 c15 23 25 45 22 50 -3 5 -22 12 -42 16 -20 4 -51 15 -67 25 -17 9 -45
20 -63 24 -18 3 -50 15 -72 26 -22 10 -51 19 -64 19 -14 0 -42 6 -63 14 -22 7
-65 16 -97 20 -32 4 -84 16 -115 26 -32 10 -86 22 -122 26 -36 3 -69 10 -75
14 -5 4 -25 11 -42 15 -37 8 -44 32 -15 58 18 16 34 15 145 -14 23 -6 62 -13
87 -16 25 -3 49 -9 55 -14 5 -5 25 -9 45 -9 19 0 55 -6 80 -14 25 -8 79 -20
120 -27 69 -11 173 -49 184 -68 3 -5 39 -25 80 -47 l75 -38 38 44 c21 24 50
58 66 74 15 17 27 34 27 38 0 5 7 8 15 8 8 0 15 7 15 15 0 8 5 15 11 15 6 0
29 15 50 33 20 17 52 43 70 57 52 39 149 142 143 152 -3 4 -35 7 -72 6 -37 -1
-195 -5 -352 -9z"/>
<path d="M6302 2810 c-22 -129 -6 -407 27 -469 6 -11 11 -30 11 -43 0 -13 4
-28 9 -34 5 -5 16 -36 26 -69 9 -33 22 -69 29 -80 8 -11 17 -35 20 -52 4 -18
15 -42 25 -55 10 -13 24 -40 30 -60 7 -21 17 -40 22 -44 5 -3 16 -21 24 -41 8
-19 27 -51 43 -71 15 -21 33 -49 40 -64 6 -16 18 -28 26 -28 7 0 137 123 288
273 l275 273 -38 32 c-21 18 -42 32 -48 32 -6 0 -11 5 -11 10 0 6 -7 10 -15
10 -8 0 -15 4 -15 9 0 5 -17 20 -37 32 -21 13 -43 28 -50 34 -6 5 -28 21 -48
35 -21 14 -46 33 -56 43 -11 10 -43 33 -72 52 -80 54 -102 69 -105 77 -2 4
-34 28 -71 52 -36 25 -79 56 -94 70 -16 14 -40 32 -55 40 -15 8 -36 23 -46 35
-11 12 -23 21 -28 21 -5 0 -24 11 -42 25 -18 14 -37 25 -42 25 -6 0 -15 -32
-22 -70z"/>
<path d="M6488 2844 c-7 -7 35 -41 87 -70 17 -9 34 -23 38 -30 4 -8 15 -14 22
-14 8 0 15 -5 15 -10 0 -6 10 -15 23 -20 12 -5 60 -37 107 -70 47 -34 96 -68
110 -77 14 -10 43 -32 66 -50 23 -18 45 -33 49 -33 4 0 23 -13 42 -30 18 -16
38 -30 43 -30 5 0 21 -11 36 -25 15 -14 32 -25 39 -25 6 0 22 -11 35 -25 13
-14 28 -25 33 -25 13 0 3 265 -14 385 l-12 85 -66 0 c-36 0 -82 5 -101 10 -33
10 -126 20 -385 39 -60 5 -121 12 -135 16 -14 3 -29 3 -32 -1z"/>
<path d="M3574 2786 c-47 -50 -50 -54 -117 -192 -27 -54 -53 -106 -58 -114 -5
-8 -15 -31 -24 -50 -8 -19 -19 -42 -24 -50 -10 -15 -39 -75 -104 -210 l-36
-74 47 -22 c26 -12 72 -25 102 -29 30 -4 72 -15 93 -25 21 -11 63 -22 94 -26
31 -4 68 -13 82 -20 14 -8 32 -14 39 -14 7 0 31 -9 53 -20 23 -10 62 -22 87
-26 26 -3 54 -12 62 -19 8 -7 40 -19 70 -26 62 -15 127 -49 112 -58 -5 -3 -17
-31 -27 -61 -10 -30 -24 -70 -31 -88 -8 -18 -14 -41 -14 -52 0 -10 -4 -21 -9
-24 -5 -3 -11 -16 -14 -28 -5 -23 -50 -146 -66 -183 -5 -11 -25 -54 -44 -95
-19 -41 -43 -95 -53 -120 -9 -25 -21 -49 -25 -55 -4 -5 -16 -33 -27 -62 -22
-58 -14 -71 34 -53 14 6 38 10 53 10 15 0 41 6 57 14 16 8 61 19 99 26 39 7
87 19 108 26 20 8 46 14 57 14 11 0 38 5 59 12 37 12 39 15 34 43 -3 16 -11
41 -18 55 -7 14 -18 50 -25 80 -7 30 -18 66 -24 80 -7 14 -18 52 -25 85 -7 33
-17 74 -22 90 -6 17 -17 66 -26 110 -8 44 -21 110 -29 146 -8 37 -14 79 -14
94 0 14 -5 35 -11 46 -6 11 -14 41 -19 67 -15 77 -27 125 -38 152 -5 14 -15
45 -22 70 -7 25 -18 57 -26 72 -8 14 -14 31 -14 38 0 6 -11 35 -24 63 -13 29
-29 68 -37 87 -7 19 -27 56 -44 83 -16 26 -43 68 -59 95 -68 112 -123 182
-143 182 -4 0 -25 -20 -49 -44z"/>
<path d="M7179 2142 c-20 -20 -56 -53 -80 -72 -24 -19 -52 -45 -62 -57 -10
-13 -25 -23 -33 -23 -8 0 -14 -6 -14 -14 0 -7 -24 -32 -52 -54 -29 -22 -77
-63 -107 -91 -30 -28 -56 -51 -59 -51 -9 0 -92 -86 -92 -95 0 -12 61 -71 145
-140 33 -27 89 -76 126 -110 110 -101 137 -125 143 -125 5 0 85 -72 154 -137
12 -13 26 -23 30 -23 4 0 19 -12 33 -27 14 -16 37 -37 51 -48 40 -33 141 -121
193 -169 27 -24 52 -43 56 -41 3 3 -4 26 -17 52 -13 27 -24 55 -24 64 0 8 -7
24 -15 35 -8 10 -15 28 -15 40 0 11 -3 24 -7 28 -8 7 -27 60 -49 131 -9 28
-22 63 -30 78 -8 16 -14 37 -14 48 0 11 -9 45 -21 77 -11 31 -27 89 -36 127
-8 39 -21 83 -29 99 -8 16 -14 43 -14 60 0 17 -6 43 -13 57 -8 14 -17 54 -21
90 -3 35 -14 96 -23 134 -8 39 -19 97 -22 130 -5 50 -9 60 -26 62 -11 1 -35
-14 -56 -35z"/>
<path d="M3160 2016 c0 -3 4 -14 10 -24 9 -16 49 -106 72 -162 6 -14 14 -32
19 -40 5 -8 12 -22 15 -30 17 -44 25 -62 63 -139 23 -46 41 -89 41 -96 0 -7 7
-18 15 -25 8 -7 15 -19 15 -27 0 -14 24 -70 81 -188 16 -33 29 -65 29 -72 0
-6 15 -38 34 -71 19 -33 37 -74 41 -90 3 -16 16 -44 29 -61 l23 -31 28 62 c25
58 57 129 90 203 8 17 36 78 64 136 28 58 51 110 51 115 0 5 12 34 26 64 14
30 32 69 39 85 7 17 27 62 46 100 18 39 32 72 31 74 -2 8 -77 31 -102 31 -14
0 -36 7 -50 15 -14 8 -36 14 -49 15 -14 0 -38 4 -55 9 -91 27 -249 68 -353 91
-23 5 -50 13 -60 19 -10 5 -47 14 -83 20 -36 6 -75 14 -87 17 -13 4 -23 3 -23
0z"/>
<path d="M6686 1554 c3 -21 10 -43 14 -49 4 -5 10 -21 13 -35 8 -35 50 -151
65 -177 7 -12 12 -31 12 -42 0 -11 5 -23 10 -26 6 -3 10 -19 10 -34 0 -15 7
-36 15 -47 8 -10 15 -35 15 -55 0 -19 4 -39 10 -45 5 -5 14 -46 20 -89 6 -43
13 -82 18 -86 9 -8 109 -27 307 -59 33 -5 89 -16 125 -24 36 -9 95 -19 133
-22 37 -4 67 -11 67 -17 0 -6 -19 -7 -52 -3 -57 8 -620 25 -628 19 -2 -2 3
-18 12 -36 8 -18 21 -52 28 -77 7 -25 19 -65 26 -89 10 -32 14 -102 14 -239
l0 -195 161 6 c145 5 163 7 183 26 12 12 26 21 31 21 11 0 89 52 93 63 2 4 19
14 38 22 18 7 39 19 46 25 17 15 108 73 181 115 53 31 50 9 -4 -28 -102 -69
-178 -124 -228 -162 -14 -12 -38 -29 -53 -38 -57 -36 -37 -39 215 -35 264 3
238 -2 310 63 84 76 198 175 227 197 19 14 59 48 88 76 l53 50 -32 11 c-18 6
-47 11 -64 11 -18 0 -49 7 -68 15 -20 8 -56 15 -80 15 -36 0 -46 4 -54 23 -6
12 -23 29 -39 37 -16 8 -33 21 -37 27 -4 7 -14 13 -21 13 -8 0 -51 18 -97 41
-46 23 -95 46 -109 52 -14 7 -60 39 -104 72 -43 33 -85 65 -94 70 -8 6 -31 25
-51 42 -20 18 -67 58 -106 89 -72 58 -172 146 -252 222 -25 23 -49 42 -54 42
-4 0 -14 9 -21 19 -8 11 -47 48 -88 82 -41 34 -91 77 -110 95 -19 19 -50 45
-68 60 l-33 27 7 -39z"/>
<path d="M4355 1061 c-3 -6 -21 -11 -40 -11 -19 0 -37 -4 -40 -10 -3 -5 -21
-10 -39 -10 -17 0 -36 -4 -42 -10 -5 -5 -42 -16 -82 -25 -40 -8 -86 -22 -102
-30 -16 -8 -38 -15 -50 -15 -12 0 -35 -8 -53 -17 -24 -12 -62 -17 -146 -19
-94 -2 -117 -5 -127 -19 -7 -9 -27 -27 -45 -40 l-32 -24 29 -13 c16 -6 31 -13
33 -15 2 -1 -24 -30 -58 -63 -49 -47 -69 -60 -94 -61 -18 0 -50 -8 -71 -18
l-39 -17 29 -19 c26 -17 142 -79 249 -134 22 -12 54 -30 70 -41 17 -11 46 -29
65 -40 19 -11 44 -26 55 -32 77 -47 194 -116 217 -127 21 -11 59 -12 165 -7
76 4 153 10 171 13 l32 5 -1 262 c-1 143 -4 324 -8 401 -5 119 -8 140 -23 143
-9 2 -19 -2 -23 -7z"/>
<path d="M3210 618 c-25 -11 -57 -18 -157 -37 -28 -5 -61 -14 -72 -20 -11 -6
-31 -11 -45 -11 -14 0 -28 -5 -32 -12 -8 -12 -5 -15 110 -98 42 -30 78 -61 81
-67 2 -7 9 -13 15 -13 6 0 28 -16 48 -36 20 -20 60 -51 87 -70 28 -18 60 -41
73 -50 25 -18 19 -19 541 25 79 6 79 8 11 45 -19 11 -37 22 -40 25 -3 3 -21
14 -40 24 -19 9 -57 31 -85 47 -27 17 -63 37 -80 45 -16 9 -42 23 -57 33 -14
9 -57 35 -95 57 -37 22 -77 45 -88 52 -11 6 -39 21 -62 32 -23 12 -45 25 -48
31 -8 13 -33 12 -65 -2z"/>
<path d="M2759 523 c-19 -8 -63 -19 -99 -25 -125 -18 -185 -55 -127 -77 12 -5
33 -21 46 -35 14 -14 30 -26 36 -26 16 0 60 -49 80 -90 10 -19 21 -37 24 -40
3 -3 15 -23 26 -45 l21 -40 79 -3 c80 -2 311 19 374 35 l34 8 -63 45 c-34 25
-69 51 -77 59 -9 8 -28 22 -44 30 -27 15 -66 47 -168 139 -27 23 -53 42 -60
42 -6 0 -11 6 -11 14 0 21 -33 25 -71 9z"/>
<path d="M8300 500 c-11 -11 -20 -27 -20 -35 0 -8 -4 -15 -10 -15 -5 0 -10 -6
-10 -13 0 -13 -60 -77 -73 -77 -3 0 -17 -10 -30 -22 -13 -13 -58 -52 -100 -88
l-75 -65 35 -3 c20 -2 47 -11 61 -20 21 -14 50 -17 144 -17 110 1 119 2 143
25 14 13 25 29 25 36 0 7 6 17 13 21 6 4 29 31 49 58 45 60 78 102 98 125 29
32 42 62 32 72 -5 5 -61 13 -125 17 -63 5 -119 11 -125 15 -6 4 -20 -2 -32
-14z"/>
<path d="M8650 466 c0 -9 -5 -16 -10 -16 -6 0 -15 -11 -20 -25 -5 -14 -13 -25
-18 -25 -4 0 -16 -15 -27 -32 -16 -29 -39 -61 -75 -105 -6 -7 -10 -16 -10 -21
0 -5 -11 -21 -26 -37 -14 -15 -24 -28 -22 -30 2 -1 32 1 68 6 36 4 106 6 155
2 67 -4 105 -2 145 10 34 9 123 18 228 23 95 3 175 10 178 15 8 14 -57 88 -96
108 -19 10 -55 22 -80 26 -25 3 -63 15 -85 25 -23 10 -63 21 -89 25 -27 4 -61
14 -75 21 -14 8 -37 14 -51 14 -15 0 -30 4 -35 9 -6 5 -20 12 -32 16 -17 5
-23 2 -23 -9z"/>
<path d="M2416 431 c-3 -4 -34 -11 -68 -14 -35 -4 -88 -13 -118 -22 -30 -8
-93 -22 -140 -29 -47 -8 -112 -21 -145 -29 -33 -9 -73 -18 -88 -21 -22 -5 -28
-12 -25 -29 2 -16 12 -24 38 -29 19 -4 60 -12 90 -19 30 -6 76 -17 101 -24 25
-7 81 -18 125 -25 43 -6 111 -20 149 -30 100 -27 233 -42 301 -34 111 13 112
9 -47 170 -135 136 -161 156 -173 135z"/>
</g>
</svg>
