<?xml version="1.0" standalone="no"?>
<!DOCTYPE svg PUBLIC "-//W3C//DTD SVG 20010904//EN"
 "http://www.w3.org/TR/2001/REC-SVG-20010904/DTD/svg10.dtd">
<svg version="1.0" xmlns="http://www.w3.org/2000/svg"
 width="776.000000pt" height="1280.000000pt" viewBox="0 0 776.000000 1280.000000"
 preserveAspectRatio="xMidYMid meet">
<metadata>
Created by potrace 1.15, written by Peter Selinger 2001-2017
</metadata>
<g transform="translate(0.000000,1280.000000) scale(0.100000,-0.100000)"
fill="#000000" stroke="none">
<path d="M7428 12736 c-2 -36 -7 -68 -10 -72 -4 -3 -53 -8 -110 -10 -743 -28
-1277 -62 -1873 -119 -2519 -241 -4348 -728 -5345 -1426 -100 -70 -113 -67
178 -39 1675 159 3707 280 4702 280 974 0 1785 -119 2260 -331 l69 -31 -4 -42
c-3 -22 -14 -162 -25 -311 -23 -310 -87 -1166 -130 -1745 -16 -217 -48 -638
-70 -935 -22 -297 -54 -718 -70 -935 -16 -217 -48 -638 -70 -935 -22 -297 -54
-718 -70 -935 -16 -217 -61 -818 -100 -1335 -39 -517 -102 -1361 -140 -1875
-39 -514 -86 -1146 -105 -1405 -19 -259 -36 -485 -38 -502 l-3 -33 246 0 246
0 12 203 c11 180 125 2010 402 6452 49 792 148 2381 220 3530 71 1150 137
2195 145 2324 9 129 12 238 8 241 -5 4 -64 15 -133 24 -69 9 -139 19 -156 22
l-32 6 -4 -66z"/>
</g>
</svg>
