<?xml version="1.0" standalone="no"?>
<!DOCTYPE svg PUBLIC "-//W3C//DTD SVG 20010904//EN"
 "http://www.w3.org/TR/2001/REC-SVG-20010904/DTD/svg10.dtd">
<svg version="1.0" xmlns="http://www.w3.org/2000/svg"
 width="640.000000pt" height="1280.000000pt" viewBox="0 0 640.000000 1280.000000"
 preserveAspectRatio="xMidYMid meet">
<metadata>
Created by potrace 1.15, written by Peter Selinger 2001-2017
</metadata>
<g transform="translate(0.000000,1280.000000) scale(0.100000,-0.100000)"
fill="#000000" stroke="none">
<path d="M2909 12653 c-851 -861 -1435 -1946 -1634 -3038 -61 -333 -69 -444
-69 -915 0 -593 34 -1039 150 -1965 50 -401 188 -1328 264 -1770 71 -415 97
-565 150 -859 59 -327 60 -330 41 -360 -10 -17 -213 -346 -452 -731 l-434
-700 -6 -700 c-4 -385 -7 -894 -8 -1131 l-1 -431 133 -1 c72 -1 294 -5 492 -8
l360 -7 289 312 289 311 269 0 268 0 0 -285 0 -285 150 0 151 0 -3 285 -3 285
251 0 250 0 10 37 9 36 340 -367 340 -367 310 6 c171 3 392 8 493 11 l182 6
-1 432 c-1 237 -4 744 -8 1126 l-6 695 -503 812 c-276 447 -502 820 -502 828
0 8 20 127 45 263 115 636 236 1381 324 1997 219 1524 280 2531 195 3200 -146
1148 -744 2329 -1643 3247 l-174 178 -81 0 -81 0 -146 -147z"/>
</g>
</svg>
