<?xml version="1.0" standalone="no"?>
<!DOCTYPE svg PUBLIC "-//W3C//DTD SVG 20010904//EN"
 "http://www.w3.org/TR/2001/REC-SVG-20010904/DTD/svg10.dtd">
<svg version="1.0" xmlns="http://www.w3.org/2000/svg"
 width="640.000000pt" height="1280.000000pt" viewBox="0 0 640.000000 1280.000000"
 preserveAspectRatio="xMidYMid meet">
<metadata>
Created by potrace 1.15, written by Peter Selinger 2001-2017
</metadata>
<g transform="translate(0.000000,1280.000000) scale(0.100000,-0.100000)"
fill="#000000" stroke="none">
<path d="M3180 12790 c-52 -12 -70 -41 -70 -111 0 -33 -7 -75 -15 -95 -12 -29
-19 -34 -42 -32 -26 3 -28 1 -24 -27 12 -86 7 -97 -51 -110 -36 -7 -35 -15 2
-40 17 -11 39 -38 50 -60 109 -228 -41 -1091 -217 -1245 -28 -25 -42 -30 -85
-30 -67 0 -132 -31 -164 -79 -41 -63 -62 -141 -84 -313 -21 -170 -45 -269 -99
-418 -39 -107 -39 -152 -1 -275 38 -124 39 -150 3 -167 -72 -34 -82 -159 -23
-265 69 -122 91 -168 88 -188 -3 -20 -7 -21 -70 -8 -23 4 -28 1 -34 -23 -11
-48 -34 -86 -93 -153 -31 -36 -46 -59 -34 -53 12 7 33 12 48 12 21 0 30 -8 48
-47 20 -43 22 -63 21 -198 -1 -120 -5 -166 -22 -229 -31 -112 -64 -178 -116
-234 -25 -27 -43 -52 -39 -55 3 -4 30 -7 59 -7 66 0 103 25 85 58 -17 32 3 27
32 -8 29 -34 41 -91 32 -146 -10 -60 -36 -134 -46 -134 -5 0 -21 25 -34 57
-14 31 -27 54 -30 51 -3 -3 4 -49 16 -104 31 -146 34 -281 14 -497 -18 -189
-15 -259 10 -293 22 -29 18 -110 -10 -197 -29 -90 -32 -155 -9 -203 30 -63
184 -214 218 -214 4 0 11 12 17 27 l10 27 20 -31 c11 -17 25 -56 31 -87 10
-47 10 -66 -5 -120 -10 -39 -17 -101 -17 -160 0 -111 -21 -180 -74 -242 -39
-46 -71 -104 -56 -104 20 0 10 -45 -26 -113 -54 -104 -65 -142 -73 -255 -7
-91 -10 -105 -34 -130 -56 -58 -157 -328 -163 -435 -4 -66 -12 -80 -126 -206
-149 -164 -209 -279 -268 -521 -33 -133 -70 -238 -111 -314 -21 -39 -72 -156
-114 -260 -82 -203 -99 -236 -121 -236 -8 0 -24 16 -36 35 -11 20 -22 34 -25
32 -2 -3 1 -33 7 -68 11 -74 13 -179 2 -195 -4 -6 -17 -16 -29 -23 -28 -15
-54 -64 -83 -161 -39 -132 -104 -236 -214 -343 -38 -37 -67 -70 -64 -73 3 -2
43 14 89 36 157 76 175 50 120 -170 -44 -176 -54 -296 -48 -551 6 -256 16
-321 82 -516 25 -72 51 -172 59 -222 26 -160 44 -183 422 -576 188 -195 304
-303 357 -332 12 -7 38 -14 57 -17 23 -4 64 -29 116 -70 86 -69 191 -127 264
-144 65 -16 450 -78 630 -102 180 -23 253 -41 292 -70 35 -26 51 -19 36 15
-16 35 7 57 96 94 104 43 210 70 313 80 81 7 100 13 178 55 113 61 551 344
633 408 34 28 69 59 76 70 18 26 36 15 36 -22 0 -34 26 -53 53 -39 19 11 51
-3 80 -35 18 -21 18 -19 12 86 -9 174 12 228 152 378 94 102 115 134 100 149
-9 10 -4 19 26 43 62 50 89 123 132 358 12 62 30 118 52 161 33 62 34 72 44
225 15 247 26 331 48 375 27 51 19 91 -49 246 -62 142 -88 231 -101 338 -11
100 -55 236 -139 435 -66 154 -222 471 -297 604 -66 116 -90 173 -108 262 -18
90 -41 125 -115 179 -64 47 -97 103 -109 187 -13 90 -31 120 -131 218 -79 78
-89 91 -109 155 -12 39 -47 112 -78 162 -78 131 -96 195 -89 308 l6 90 -22
-37 c-29 -50 -52 -48 -105 8 -107 116 -233 461 -233 641 0 65 1 67 43 108 48
46 115 71 169 62 18 -3 42 -7 53 -9 17 -3 20 2 19 37 0 22 -4 61 -8 88 -9 54
1 60 55 31 17 -8 33 -14 35 -11 2 2 -9 21 -24 43 -16 21 -36 51 -45 65 l-17
26 42 -1 c42 -1 44 1 67 48 17 35 26 71 29 126 4 77 4 78 -27 101 -41 30 -40
58 3 202 58 190 78 387 40 387 -26 0 -37 -39 -24 -82 6 -22 10 -42 7 -44 -2
-2 -16 5 -30 17 -42 32 -36 72 28 194 71 136 71 153 4 299 -69 149 -70 176 -6
276 58 90 58 112 2 210 -47 82 -55 146 -29 221 17 48 19 86 18 359 0 331 -14
472 -54 550 -21 40 -14 51 19 31 37 -24 61 30 61 140 0 82 24 223 52 309 12
36 45 114 75 174 69 142 69 157 -2 237 -31 34 -54 67 -52 73 2 6 45 14 98 18
121 9 165 20 272 70 100 46 112 45 180 -8 37 -29 57 -37 92 -38 58 -1 92 25
130 99 27 55 30 68 30 160 -1 119 -18 195 -54 238 -20 23 -26 42 -26 76 0 41
-2 45 -30 53 -67 19 -211 -10 -374 -76 -147 -60 -199 -71 -326 -70 -137 0
-206 23 -276 93 -40 39 -51 59 -74 136 -37 121 -66 175 -126 236 -40 41 -50
56 -46 76 5 25 4 25 -55 18 l-59 -7 -38 39 c-77 82 -104 248 -56 351 65 140
88 298 66 453 -29 200 -95 335 -185 378 -45 22 -164 28 -236 11z m25 -6366
c26 -28 50 -88 41 -103 -4 -6 -18 -5 -36 2 -38 15 -45 6 -32 -43 12 -50 1 -97
-28 -117 -27 -19 -16 -33 26 -33 45 0 94 -45 94 -87 0 -54 31 -157 79 -267 62
-140 86 -212 117 -350 14 -61 34 -130 44 -153 16 -37 23 -43 49 -43 30 0 32
-2 46 -65 11 -48 57 -133 129 -235 64 -90 71 -114 27 -91 -31 17 -34 -3 -10
-59 22 -51 26 -54 67 -50 35 3 91 -38 137 -102 55 -73 69 -116 61 -178 -7 -50
-7 -50 42 -88 19 -14 25 -32 33 -97 11 -88 18 -102 45 -87 55 31 174 -79 174
-160 0 -36 54 -142 129 -252 92 -136 145 -244 182 -373 35 -120 51 -158 73
-166 25 -10 54 -127 86 -344 17 -114 37 -244 45 -291 27 -152 20 -181 -37
-151 -11 6 -22 9 -24 6 -2 -2 12 -34 31 -71 48 -92 47 -132 -2 -188 -21 -22
-33 -43 -28 -45 67 -24 80 -60 63 -182 -19 -144 -49 -219 -169 -417 -140 -234
-224 -326 -328 -364 -73 -27 -105 -61 -97 -102 7 -35 -33 -83 -113 -137 -102
-70 -175 -100 -304 -126 -16 -3 -59 -35 -97 -70 -38 -36 -71 -65 -74 -65 -18
0 -60 25 -115 69 -65 53 -88 63 -77 35 10 -27 -14 -55 -72 -82 -46 -21 -71
-26 -132 -26 -41 0 -87 4 -103 8 -24 8 -28 5 -38 -23 -20 -57 -116 -64 -311
-20 -129 28 -252 81 -338 145 -73 55 -99 69 -170 95 -49 18 -257 229 -358 364
-45 61 -100 144 -121 185 -78 150 -139 361 -147 510 -6 95 6 133 44 138 29 4
28 16 -3 40 -56 44 -75 167 -56 372 27 290 108 570 195 669 42 47 52 73 72
178 31 169 78 253 139 253 40 0 40 1 55 125 12 102 40 224 68 305 11 30 81
179 155 330 142 289 244 518 272 610 35 114 61 180 141 356 104 226 118 263
143 362 26 103 68 195 136 296 50 75 55 89 69 176 8 52 18 131 21 175 10 120
40 153 90 99z"/>
</g>
</svg>
