<?xml version="1.0" standalone="no"?>
<!DOCTYPE svg PUBLIC "-//W3C//DTD SVG 20010904//EN"
 "http://www.w3.org/TR/2001/REC-SVG-20010904/DTD/svg10.dtd">
<svg version="1.0" xmlns="http://www.w3.org/2000/svg"
 width="702.000000pt" height="1280.000000pt" viewBox="0 0 702.000000 1280.000000"
 preserveAspectRatio="xMidYMid meet">
<metadata>
Created by potrace 1.15, written by Peter Selinger 2001-2017
</metadata>
<g transform="translate(0.000000,1280.000000) scale(0.100000,-0.100000)"
fill="#000000" stroke="none">
<path d="M3045 12788 c-54 -29 -125 -128 -125 -173 0 -10 -19 -24 -47 -36
-214 -90 -298 -150 -327 -234 -20 -61 -21 -256 -2 -400 l14 -100 -29 -30 c-33
-36 -59 -93 -59 -132 1 -38 31 -102 69 -145 23 -26 34 -52 41 -91 27 -170 114
-364 209 -466 l41 -44 0 -166 c0 -93 -4 -161 -9 -155 -4 5 -21 43 -36 84 -15
41 -31 79 -36 84 -4 5 -98 -30 -209 -78 -261 -111 -445 -178 -495 -179 -22 -1
-79 4 -128 11 -325 42 -588 -121 -750 -467 -37 -79 -41 -97 -53 -221 -19 -208
-43 -293 -156 -555 -118 -273 -226 -471 -308 -566 -163 -189 -270 -400 -324
-639 -8 -36 -26 -171 -40 -300 -14 -129 -47 -408 -72 -619 l-46 -384 -84 -305
c-46 -167 -84 -309 -84 -314 0 -5 41 -83 91 -174 l92 -165 234 3 235 3 28 31
c30 34 50 105 50 180 0 42 2 46 46 72 117 68 107 54 124 185 9 65 14 121 10
125 -3 4 -81 77 -175 161 -93 85 -176 160 -184 166 -11 11 21 69 182 336 209
347 386 665 439 788 l33 76 -2 160 -3 160 33 -52 c17 -29 34 -53 37 -53 3 0
22 33 43 73 21 40 88 142 148 227 113 158 197 294 311 500 60 110 65 116 118
142 92 45 92 46 106 -53 23 -154 78 -284 164 -388 61 -74 102 -89 195 -74 33
6 62 9 63 7 10 -8 -64 -35 -124 -44 -38 -6 -70 -13 -72 -15 -5 -5 8 -180 55
-767 l37 -467 -47 -418 c-38 -339 -56 -457 -92 -623 -165 -751 -226 -1047
-234 -1135 -35 -365 -39 -926 -7 -1035 43 -150 -9 -395 -145 -679 -51 -107
-63 -142 -84 -255 -49 -267 -81 -671 -72 -894 6 -124 10 -154 37 -230 40 -114
53 -245 45 -437 -12 -269 -20 -325 -54 -393 -26 -52 -31 -73 -31 -135 0 -53
-14 -135 -51 -292 l-50 -219 -109 -200 c-84 -153 -107 -203 -98 -213 21 -26
154 -102 218 -124 50 -18 87 -23 161 -24 90 0 99 2 170 37 40 20 91 52 111 71
32 29 38 41 38 76 0 23 7 184 16 359 l15 317 44 110 c54 137 72 225 80 387 9
209 75 531 146 721 74 195 91 247 124 376 87 348 149 693 165 914 14 196 43
305 180 667 34 91 124 347 200 570 156 458 233 674 278 773 l31 68 -74 130
c-41 71 -75 132 -75 135 0 4 52 -42 115 -101 l116 -108 76 36 c42 20 79 34 81
32 3 -2 -14 -30 -38 -61 l-42 -56 43 -102 c23 -55 107 -228 185 -383 165 -326
258 -523 315 -664 49 -126 75 -176 213 -424 61 -110 118 -222 128 -250 14 -41
17 -87 18 -261 0 -368 49 -537 215 -754 208 -271 255 -337 297 -417 94 -179
127 -312 137 -549 l7 -161 51 -70 c93 -128 87 -101 94 -438 6 -337 11 -366 80
-435 38 -39 70 -50 196 -69 100 -15 173 -45 236 -97 95 -78 281 -128 477 -129
107 0 130 3 159 20 66 39 66 41 -60 182 -122 136 -410 471 -572 664 -85 102
-98 123 -107 170 -22 113 -71 463 -95 671 -35 296 -98 609 -226 1108 -95 368
-91 346 -79 481 17 180 0 255 -109 481 -28 60 -55 108 -59 108 -5 0 -23 -20
-41 -45 -18 -25 -34 -45 -36 -45 -2 0 3 21 11 48 43 137 47 178 48 492 0 241
-3 331 -17 430 -38 268 -93 461 -174 610 -88 160 -113 215 -148 322 -67 207
-107 454 -126 793 l-13 210 -40 75 c-131 239 -225 530 -271 836 -20 137 -37
339 -33 404 3 50 7 37 42 -135 50 -244 116 -515 155 -632 83 -253 228 -471
462 -698 229 -222 490 -390 804 -518 168 -69 456 -157 513 -157 26 0 231 211
319 330 162 216 337 541 427 791 94 262 131 455 130 679 0 184 -12 264 -90
620 -119 538 -483 1891 -515 1910 -44 28 -528 129 -719 151 -140 15 -427 15
-520 -1 -261 -44 -646 -250 -965 -517 -39 -32 -79 -65 -90 -73 -40 -31 87 109
196 215 119 116 191 175 298 244 l64 41 -105 0 -105 0 -376 155 c-206 85 -381
155 -389 155 -8 0 -23 -31 -38 -77 -22 -72 -24 -76 -31 -48 -4 17 -12 90 -19
163 l-11 133 61 81 c74 98 125 195 160 307 23 73 31 87 65 110 119 80 138 259
35 326 l-31 20 8 115 c26 370 2 435 -183 504 -160 60 -357 166 -486 262 -98
73 -138 87 -183 62z"/>
</g>
</svg>
