<?xml version="1.0" standalone="no"?>
<!DOCTYPE svg PUBLIC "-//W3C//DTD SVG 20010904//EN"
 "http://www.w3.org/TR/2001/REC-SVG-20010904/DTD/svg10.dtd">
<svg version="1.0" xmlns="http://www.w3.org/2000/svg"
 width="640.000000pt" height="1280.000000pt" viewBox="0 0 640.000000 1280.000000"
 preserveAspectRatio="xMidYMid meet">
<metadata>
Created by potrace 1.15, written by Peter Selinger 2001-2017
</metadata>
<g transform="translate(0.000000,1280.000000) scale(0.100000,-0.100000)"
fill="#000000" stroke="none">
<path d="M3098 12562 l-87 -227 -11 -660 c-6 -363 -15 -894 -20 -1180 -5 -286
-14 -776 -20 -1090 -5 -313 -15 -817 -20 -1120 -5 -302 -14 -804 -20 -1115 -6
-311 -15 -810 -20 -1110 -5 -300 -14 -804 -20 -1120 -6 -316 -15 -807 -20
-1090 -5 -283 -12 -687 -16 -897 l-7 -383 -334 0 -335 0 9 32 c18 74 -5 166
-54 210 -28 26 -104 58 -139 58 -74 0 -152 -47 -186 -113 -50 -98 -15 -219 80
-274 l47 -28 473 -3 472 -3 0 -25 c0 -15 12 -38 28 -53 l27 -28 -29 -48 c-22
-35 -31 -65 -34 -106 -4 -53 -2 -60 23 -83 l27 -25 -22 -47 c-43 -88 -35 -172
18 -188 18 -6 18 -9 -5 -55 -14 -27 -27 -67 -30 -89 -5 -34 -1 -45 21 -66 14
-15 39 -29 56 -32 16 -4 30 -8 30 -10 0 -1 -14 -25 -31 -52 -60 -97 -58 -175
6 -196 17 -6 31 -11 33 -12 1 0 -9 -25 -23 -55 -14 -30 -25 -64 -25 -75 0 -32
35 -71 70 -77 l30 -7 -30 -53 c-16 -30 -30 -67 -30 -84 0 -28 25 -63 46 -63 5
0 15 -4 22 -9 11 -6 9 -15 -7 -42 -35 -57 -24 -119 21 -119 22 0 22 1 3 -44
-11 -25 -12 -42 -6 -54 8 -15 3 -22 -26 -37 -53 -29 -119 -109 -143 -173 -59
-156 20 -336 180 -411 80 -37 184 -36 258 2 76 40 127 90 161 158 41 83 48
136 26 216 -24 88 -72 152 -156 208 -29 19 -36 29 -32 48 4 19 -1 28 -16 37
l-22 11 27 32 c15 18 33 47 41 65 12 30 12 37 -2 58 -15 23 -14 26 11 59 16
21 28 53 31 80 5 40 3 45 -20 56 l-26 12 25 30 c36 43 64 102 64 135 0 29 -26
62 -48 62 -18 0 -16 4 33 75 67 98 71 169 10 197 -22 10 -23 13 -11 27 27 30
66 119 66 150 0 34 -37 81 -65 81 -21 0 -19 7 12 44 37 44 83 145 83 183 0 19
-10 43 -24 60 l-25 29 30 60 c40 80 41 135 4 174 -23 24 -25 30 -14 48 13 21
20 21 494 24 l480 3 45 25 c126 71 146 238 40 334 -62 56 -143 70 -215 37 -48
-22 -87 -60 -109 -105 -18 -38 -21 -127 -6 -157 10 -19 4 -19 -324 -19 l-335
0 -5 52 c-3 29 -8 242 -11 473 -3 231 -10 654 -15 940 -5 286 -14 777 -20
1090 -5 314 -15 818 -20 1120 -5 303 -14 804 -20 1115 -24 1363 -31 1707 -40
2225 -5 303 -14 804 -20 1115 -6 311 -15 808 -20 1105 l-10 540 -87 223 c-47
122 -91 222 -97 222 -6 0 -50 -103 -98 -228z"/>
</g>
</svg>
