<?xml version="1.0" standalone="no"?>
<!DOCTYPE svg PUBLIC "-//W3C//DTD SVG 20010904//EN"
 "http://www.w3.org/TR/2001/REC-SVG-20010904/DTD/svg10.dtd">
<svg version="1.0" xmlns="http://www.w3.org/2000/svg"
 width="1280.000000pt" height="818.000000pt" viewBox="0 0 1280.000000 818.000000"
 preserveAspectRatio="xMidYMid meet">
<metadata>
Created by potrace 1.15, written by Peter Selinger 2001-2017
</metadata>
<g transform="translate(0.000000,818.000000) scale(0.100000,-0.100000)"
fill="#000000" stroke="none">
<path d="M2652 8167 c-12 -7 -29 -22 -37 -33 -8 -12 -100 -214 -205 -450 -106
-236 -202 -448 -216 -470 -27 -47 -47 -59 -75 -43 -11 5 -137 157 -282 336
-144 179 -269 334 -277 345 -44 54 -129 36 -159 -34 -10 -24 -60 -268 -111
-543 -51 -275 -95 -505 -97 -512 -12 -31 -31 -11 -205 222 -172 229 -187 245
-241 245 -68 0 -136 -56 -167 -135 -7 -17 -22 -187 -35 -380 -13 -192 -28
-366 -35 -385 -7 -21 -15 -141 -19 -291 -4 -140 -11 -261 -15 -267 -8 -14 6
-330 30 -692 24 -353 24 -354 97 -494 303 -580 824 -1229 1597 -1990 157 -154
269 -267 250 -251 -22 19 -74 42 -140 64 -58 18 -114 37 -125 41 -22 10 -300
95 -355 110 -96 25 -142 32 -214 32 -67 0 -81 -4 -102 -23 -33 -31 -31 -78 7
-149 36 -69 154 -191 259 -269 41 -31 77 -58 80 -62 3 -3 32 -23 65 -44 33
-21 79 -51 102 -66 23 -16 43 -29 46 -29 3 0 35 -18 72 -41 187 -113 554 -281
840 -384 249 -89 388 -147 550 -227 1154 -571 2069 -789 3635 -869 529 -27
1390 -27 1755 0 1819 134 3053 579 3373 1216 70 141 101 318 83 481 -13 121
-51 285 -64 277 -7 -4 -7 152 -3 434 8 487 9 478 -54 523 -41 29 -71 23 -92
-18 l-16 -34 -6 54 c-3 29 -10 110 -16 179 -21 276 -40 329 -112 329 -53 0
-122 -51 -306 -227 -94 -90 -174 -163 -179 -163 -16 0 -50 42 -76 95 -39 80
-146 379 -183 514 -19 69 -41 135 -50 148 -34 53 -124 80 -174 53 -25 -13
-111 -138 -210 -305 -114 -193 -202 -325 -215 -325 -23 0 -65 57 -103 140 -39
85 -85 206 -183 483 -57 161 -82 196 -156 216 -54 15 -82 13 -130 -9 -34 -15
-46 -28 -60 -62 -59 -150 -268 -523 -338 -603 -15 -16 -24 -25 -21 -18 7 12
-47 29 -63 19 -8 -6 -96 197 -216 504 -67 170 -84 190 -156 190 -63 0 -110
-20 -136 -56 -11 -16 -80 -143 -152 -283 -126 -241 -180 -337 -167 -298 5 15
-2 17 -57 17 -34 0 -73 3 -86 7 -20 5 -23 3 -18 -10 13 -35 -3 -14 -73 96
-276 426 -287 440 -359 452 -29 5 -51 1 -83 -13 -41 -18 -46 -25 -130 -193
-48 -96 -109 -209 -135 -252 l-49 -78 -131 -1 c-115 -1 -131 -3 -127 -17 13
-44 -127 243 -146 299 -25 77 -61 132 -113 174 l-39 31 -276 8 c-153 5 -287
12 -299 17 -13 6 -23 18 -23 30 0 11 68 155 151 320 149 297 168 344 155 395
-13 53 -32 54 -473 42 -422 -11 -453 -9 -453 31 0 10 61 181 135 380 74 199
135 377 135 395 0 38 -34 77 -67 77 -11 0 -181 -43 -379 -95 -197 -52 -371
-95 -386 -95 -38 0 -68 32 -68 72 0 21 63 167 181 417 146 312 179 389 174
412 -7 30 -57 79 -81 79 -8 0 -171 -64 -362 -142 -205 -83 -361 -142 -381
-142 -52 0 -73 32 -66 103 3 31 14 223 25 426 11 204 22 394 24 423 4 45 1 56
-20 82 -32 37 -94 58 -128 42 -13 -5 -163 -119 -334 -251 -328 -254 -347 -265
-387 -221 -13 15 -32 115 -82 446 -36 244 -71 442 -80 462 -20 42 -72 70 -104
56 -14 -6 -113 -166 -278 -449 -141 -241 -264 -443 -273 -449 -13 -8 -22 -6
-37 8 -11 10 -93 200 -182 424 -89 224 -169 417 -177 430 -17 26 -62 52 -89
52 -10 -1 -28 -6 -41 -13z m593 -1592 c172 -20 409 -69 508 -105 358 -131 763
-500 1261 -1148 210 -273 411 -554 497 -694 45 -73 121 -194 169 -268 48 -74
99 -155 114 -180 23 -39 24 -41 4 -19 -18 21 -66 41 -208 87 -176 58 -487 147
-595 171 -309 67 -525 61 -525 -14 0 -34 65 -111 145 -170 22 -16 42 -33 45
-36 13 -15 219 -142 370 -228 82 -46 459 -231 473 -231 27 -1 -78 -45 -693
-291 -594 -238 -647 -257 -665 -243 -39 29 -126 64 -179 72 -143 23 -256 -17
-512 -180 -174 -111 -263 -158 -299 -158 -42 0 -85 50 -85 99 0 63 -109 1012
-120 1047 -21 62 -101 112 -157 98 -13 -4 -112 -76 -220 -160 -200 -157 -235
-176 -246 -131 -3 12 -18 135 -32 272 -66 635 -73 695 -92 727 -34 58 -114 84
-171 54 -15 -8 -124 -89 -242 -180 -213 -164 -259 -191 -286 -165 -12 13 -26
189 -60 784 l-7 120 -36 37 c-39 38 -91 55 -135 44 -13 -3 -86 -58 -162 -121
-114 -94 -145 -115 -171 -115 -27 0 -34 5 -39 26 -13 53 85 251 203 408 314
418 878 715 1501 791 152 18 489 18 647 0z m9052 -3281 c-3 -3 -12 -4 -19 -1
-8 3 -5 6 6 6 11 1 17 -2 13 -5z m-6731 -40 c-26 -14 -66 -38 -87 -53 -30 -22
-35 -31 -26 -41 7 -7 -1 -5 -16 5 -15 10 -26 22 -24 28 3 9 172 85 192 86 6 0
-12 -11 -39 -25z m3359 -104 c1056 -56 1761 -208 2213 -477 l63 -37 -6 -39
c-10 -54 -190 -756 -204 -790 -13 -33 -35 -43 -64 -30 -12 6 -122 155 -245
331 -122 177 -234 330 -248 341 -14 11 -40 25 -59 31 -44 14 -93 -5 -128 -51
-13 -19 -108 -209 -211 -423 -102 -214 -195 -400 -207 -412 -28 -30 -59 -30
-87 -1 -11 12 -125 166 -252 342 -242 336 -270 366 -321 346 -36 -13 -46 -27
-323 -411 -256 -354 -286 -388 -321 -365 -25 17 -260 416 -237 401 18 -11 130
53 163 93 76 93 94 220 44 325 -27 56 -93 126 -113 119 -9 -3 7 11 36 31 91
64 132 151 132 282 0 177 -95 289 -290 343 -128 36 -285 42 -810 31 -578 -12
-803 -31 -1194 -105 -90 -17 -115 -13 -34 5 29 6 69 20 88 30 43 23 133 46
227 60 80 11 386 22 618 22 83 1 154 3 159 6 4 2 115 7 245 9 130 3 238 7 241
10 8 8 916 -6 1125 -17z m-4115 -219 c0 -6 26 -38 58 -73 31 -35 49 -57 40
-49 -16 12 -27 8 -90 -32 -74 -45 -354 -210 -485 -286 -51 -29 -73 -48 -75
-64 -2 -12 -15 20 -30 76 l-26 97 38 57 38 57 259 112 c142 62 261 113 266
113 4 1 7 -3 7 -8z m582 -590 c30 -10 108 -49 174 -85 66 -37 127 -65 137 -62
20 5 8 -10 -232 -289 -101 -118 -175 -195 -194 -203 -29 -13 -33 -12 -53 11
-12 14 -69 137 -127 274 -103 244 -127 305 -112 291 4 -4 25 2 45 12 132 67
262 86 362 51z m628 -250 c66 -10 462 -48 556 -52 27 -2 56 1 64 6 18 11 -7
-30 -180 -290 -81 -121 -154 -226 -163 -234 -26 -21 -66 -16 -93 10 -20 21
-249 513 -269 579 -6 22 -5 23 6 9 8 -10 42 -22 79 -28z m1184 -106 c99 -9
258 -27 355 -40 140 -20 177 -22 190 -12 18 15 29 35 -120 -227 -147 -259
-176 -296 -226 -296 -30 0 -44 8 -77 43 -33 34 -255 405 -320 535 -16 31 -16
32 1 23 10 -5 99 -17 197 -26z"/>
</g>
</svg>
