<?xml version="1.0" standalone="no"?>
<!DOCTYPE svg PUBLIC "-//W3C//DTD SVG 20010904//EN"
 "http://www.w3.org/TR/2001/REC-SVG-20010904/DTD/svg10.dtd">
<svg version="1.0" xmlns="http://www.w3.org/2000/svg"
 width="536.000000pt" height="1280.000000pt" viewBox="0 0 536.000000 1280.000000"
 preserveAspectRatio="xMidYMid meet">
<metadata>
Created by potrace 1.15, written by Peter Selinger 2001-2017
</metadata>
<g transform="translate(0.000000,1280.000000) scale(0.100000,-0.100000)"
fill="#000000" stroke="none">
<path d="M2700 12570 c0 -5 -17 -10 -38 -10 -85 0 -235 -64 -298 -127 -69 -69
-105 -185 -120 -389 -7 -95 7 -205 32 -255 7 -15 11 -29 7 -32 -9 -10 45 -173
62 -187 11 -9 15 -33 15 -89 0 -68 3 -83 29 -123 16 -25 50 -60 75 -78 53 -38
77 -91 57 -128 -6 -11 -8 -27 -5 -35 3 -9 1 -24 -4 -34 -7 -13 -7 -25 1 -38
21 -36 15 -98 -11 -119 -17 -14 -22 -25 -18 -42 6 -21 3 -24 -21 -24 -38 0
-134 -66 -188 -129 -25 -29 -45 -56 -45 -59 0 -4 -4 -13 -9 -20 -6 -11 -15
-10 -43 4 -35 16 -36 16 -79 -13 l-44 -30 -50 17 c-27 9 -77 30 -110 46 -97
46 -276 45 -283 -3 -2 -14 10 -28 43 -50 l47 -30 -48 -12 c-59 -15 -113 -43
-139 -71 -17 -19 -20 -42 -26 -193 -8 -198 -20 -293 -55 -456 -14 -64 -50
-233 -79 -376 -84 -405 -138 -582 -231 -767 -50 -98 -56 -135 -33 -206 9 -28
8 -37 -7 -53 -12 -13 -17 -32 -15 -54 2 -26 -18 -78 -82 -212 -110 -232 -165
-371 -226 -573 -53 -179 -122 -371 -177 -491 -41 -91 -44 -125 -11 -133 12 -3
-6 -3 -40 0 -34 3 -64 1 -67 -5 -3 -5 -14 -7 -24 -4 -12 3 -51 -24 -117 -81
-54 -47 -104 -86 -112 -86 -7 0 -18 -10 -24 -22 -7 -13 -41 -60 -76 -105 -34
-46 -63 -87 -63 -93 0 -15 16 -12 30 5 7 8 18 15 24 15 6 1 26 21 44 45 18 25
56 63 84 85 28 23 59 52 70 66 33 42 127 96 155 89 l24 -6 -36 -67 c-19 -37
-64 -103 -100 -147 -35 -44 -64 -85 -65 -91 0 -6 -7 -17 -15 -24 -8 -7 -15
-21 -15 -31 0 -17 -36 -103 -110 -264 -38 -83 -45 -108 -30 -103 7 2 29 34 49
71 20 36 70 123 111 192 41 69 80 134 85 143 6 10 38 62 72 117 65 104 100
151 108 143 9 -9 -18 -85 -65 -183 -51 -106 -73 -167 -110 -305 -13 -47 -38
-134 -57 -194 -36 -119 -37 -126 -24 -126 5 0 18 19 29 43 11 23 34 74 52 112
18 39 35 85 37 104 2 19 19 67 37 107 19 40 32 75 29 77 -2 3 5 15 16 26 12
12 21 32 21 45 0 30 43 152 78 221 22 44 26 47 33 29 7 -22 -11 -146 -36 -245
-8 -31 -15 -68 -15 -82 0 -14 -4 -28 -9 -31 -4 -3 -11 -35 -14 -70 -3 -36 -11
-73 -16 -83 -15 -29 -42 -266 -31 -277 6 -6 12 -2 16 10 3 10 11 33 17 49 7
17 11 33 9 37 -1 4 9 42 23 84 14 42 25 87 25 100 0 13 9 47 20 75 10 29 17
55 15 59 -2 3 3 78 11 165 16 160 35 238 54 219 6 -6 13 -109 16 -245 6 -288
16 -430 29 -427 15 4 9 671 -5 699 -10 17 -8 23 7 34 14 11 16 16 6 26 -18 18
-16 27 5 33 10 4 22 24 29 48 49 180 273 883 321 1003 65 166 131 300 172 347
22 26 36 50 30 53 -5 3 -10 11 -10 17 0 7 4 7 13 -1 15 -12 37 3 37 26 0 7 8
13 18 13 9 0 28 9 41 19 l24 19 -12 118 c-35 360 -36 324 9 526 23 100 56 254
75 342 18 89 50 229 70 311 20 83 54 230 75 328 38 170 66 245 105 277 11 9
19 6 40 -16 21 -23 25 -36 25 -90 0 -38 7 -79 18 -106 18 -42 18 -45 -1 -113
-11 -38 -21 -107 -23 -152 -1 -45 -7 -91 -13 -102 -13 -24 -14 -85 -2 -127 5
-18 4 -67 -2 -122 -10 -86 -9 -96 11 -145 12 -29 22 -61 22 -72 0 -10 16 -87
35 -170 102 -432 99 -425 144 -451 28 -16 31 -23 30 -64 0 -25 -4 -67 -8 -94
-7 -44 -6 -52 13 -67 14 -12 26 -14 38 -8 23 12 28 11 28 -7 0 -33 18 -2 22
40 3 24 15 57 26 73 11 16 28 49 38 74 35 91 161 232 271 303 93 60 109 56
115 -27 6 -74 1 -95 -17 -71 -10 15 -31 -2 -168 -139 -142 -142 -182 -195
-163 -214 3 -4 21 7 39 24 17 16 48 40 67 53 19 13 38 29 42 34 24 35 136 137
159 145 16 5 29 9 30 8 0 -1 2 -21 4 -44 2 -23 6 -51 10 -62 5 -17 0 -21 -32
-26 -58 -10 -65 -13 -61 -32 2 -13 15 -19 46 -21 l42 -3 -6 -62 c-3 -34 -8
-65 -11 -69 -2 -5 -19 -8 -36 -8 -41 0 -60 -13 -55 -36 2 -15 13 -20 47 -22
42 -3 43 -4 37 -34 -3 -17 -6 -48 -6 -69 0 -36 -2 -39 -29 -39 -28 0 -41 -14
-41 -45 0 -7 19 -20 43 -28 46 -15 46 -16 25 -94 -11 -43 -11 -43 -58 -43 -26
0 -49 -3 -52 -6 -17 -16 10 -45 63 -69 32 -14 59 -29 59 -32 0 -3 -11 -14 -24
-24 -14 -11 -26 -32 -28 -47 -3 -24 -8 -27 -43 -30 -72 -6 -74 -41 -5 -84 41
-25 50 -36 50 -59 0 -29 -13 -38 -25 -19 -3 5 -27 16 -53 23 l-47 14 -10 64
c-13 82 -45 125 -135 178 l-68 41 -114 0 -113 -1 -70 -43 c-61 -37 -74 -50
-99 -102 -16 -32 -34 -80 -41 -107 -12 -44 -11 -52 11 -109 13 -34 30 -68 38
-77 7 -9 35 -55 60 -103 28 -52 61 -97 82 -113 19 -14 43 -44 54 -65 19 -38
19 -39 1 -45 -21 -6 -40 -33 -82 -110 -14 -27 -31 -51 -37 -53 -6 -2 -28 15
-49 37 -45 49 -74 52 -102 12 -27 -37 -45 -159 -30 -198 20 -53 59 -234 74
-341 28 -210 113 -1025 160 -1532 32 -358 33 -369 19 -508 -10 -95 -23 -168
-40 -219 -31 -92 -41 -207 -22 -242 14 -26 25 -34 73 -53 30 -12 29 -12 -25
-18 l-55 -5 -2 -90 c-2 -64 3 -110 17 -160 18 -66 19 -108 18 -820 -1 -749 -1
-750 26 -983 24 -214 25 -246 15 -375 -5 -78 -16 -164 -24 -192 -23 -84 -24
-128 -6 -164 l17 -33 26 34 c14 18 28 47 32 64 l7 30 104 -16 c57 -9 110 -22
119 -29 8 -7 20 -10 26 -6 17 10 12 55 -24 196 -56 223 -60 291 -60 919 0 539
13 964 35 1143 5 47 31 148 60 236 29 88 49 167 47 185 -3 27 -8 33 -51 46
-46 15 -48 16 -30 32 13 12 23 14 35 7 23 -13 85 17 92 45 3 12 6 66 6 121 l0
100 -83 80 -82 80 -23 140 c-40 254 -72 517 -87 730 -9 116 -24 305 -35 420
-11 116 -27 344 -36 508 -16 278 -16 300 -1 333 19 38 23 119 7 129 -12 7 -12
96 -1 174 10 67 42 102 71 76 9 -9 24 -13 32 -10 12 5 17 -5 22 -44 9 -69 68
-192 117 -245 117 -128 199 -125 402 12 16 11 37 17 47 15 16 -4 19 -19 22
-131 3 -126 3 -127 41 -189 29 -48 37 -72 37 -110 0 -26 14 -133 30 -238 87
-554 92 -619 88 -1300 l-2 -540 26 -110 c15 -60 29 -130 33 -155 7 -59 -10
-283 -37 -485 -32 -235 -32 -615 1 -800 30 -177 69 -521 83 -749 12 -179 11
-195 -10 -320 -12 -72 -22 -153 -22 -181 0 -27 -7 -82 -16 -121 -16 -69 -16
-72 5 -140 34 -106 46 -323 27 -483 -10 -89 -12 -139 -5 -171 9 -42 13 -65 25
-148 3 -19 21 -50 41 -73 29 -32 42 -39 72 -39 54 0 75 19 68 61 -3 19 -8 42
-12 51 -4 10 -3 18 3 18 6 0 13 -19 17 -43 4 -23 11 -50 17 -59 12 -25 55 -23
68 2 8 15 17 19 30 15 14 -4 27 2 44 19 13 14 33 26 46 26 15 0 25 9 32 28 6
16 20 33 32 38 11 5 24 25 29 44 12 47 2 177 -22 275 -10 44 -24 112 -30 150
-5 39 -21 111 -35 160 -38 142 -52 280 -36 366 11 55 11 85 2 147 -18 116 -15
168 18 325 98 457 147 710 198 1022 l57 350 -1 280 c-1 154 -6 321 -12 370
-16 134 15 536 88 1165 52 446 64 538 106 815 68 448 76 611 49 960 -55 710
-131 1071 -286 1375 -63 123 -79 185 -79 310 0 76 49 448 84 642 13 73 30 166
37 206 7 39 15 72 19 72 3 0 30 -66 59 -147 136 -382 184 -534 211 -673 16
-80 37 -170 48 -200 26 -71 78 -195 102 -242 11 -21 46 -113 79 -205 33 -93
77 -215 99 -273 21 -58 56 -150 76 -205 21 -55 60 -161 88 -235 l51 -135 7
-190 c7 -176 25 -305 51 -373 7 -17 8 -85 4 -187 -7 -174 -1 -215 35 -215 28
0 35 23 50 170 22 211 38 220 70 40 28 -155 67 -300 87 -322 9 -11 26 -18 37
-16 19 3 21 10 20 63 0 33 -10 136 -23 228 -13 93 -21 171 -17 174 10 10 31
-14 43 -49 110 -327 146 -402 187 -396 17 2 22 11 24 43 4 41 1 54 -68 293
-23 79 -39 146 -36 150 12 12 45 -34 111 -156 78 -142 116 -187 146 -171 16 8
19 16 13 47 -9 51 -43 138 -102 264 -52 111 -72 180 -72 250 0 40 1 41 19 24
10 -9 31 -36 45 -59 35 -55 92 -95 142 -99 35 -3 39 -1 42 22 2 18 -14 45 -54
95 -31 39 -68 93 -81 120 -33 65 -135 150 -235 195 -65 29 -80 40 -92 70 -55
125 -149 443 -180 605 -9 44 -25 163 -36 265 -45 401 -78 527 -225 835 -31 66
-68 148 -80 182 -45 116 -131 471 -166 683 -6 36 -14 189 -18 340 -7 273 -7
276 -38 362 -62 176 -166 314 -275 363 -56 25 -78 29 -213 35 -130 7 -161 11
-235 37 -171 60 -245 115 -298 223 -25 52 -27 63 -26 190 0 115 3 142 21 182
19 41 47 146 55 203 2 12 12 21 26 23 28 4 68 56 93 121 24 65 36 180 20 209
-16 30 -47 28 -64 -4 -13 -24 -14 -13 -20 112 -12 266 -78 400 -233 479 -87
44 -224 72 -224 45z m-190 -999 c0 -5 -7 -11 -15 -15 -9 -3 -15 0 -15 9 0 8 7
15 15 15 8 0 15 -4 15 -9z m23 -812 c5 -19 3 -20 -29 -14 -20 3 -50 2 -67 -4
-65 -19 -89 -22 -82 -10 13 20 89 49 131 49 34 0 43 -4 47 -21z m-14 -89 c21
-10 41 -27 45 -37 3 -10 9 -24 12 -31 5 -10 -2 -9 -26 3 -21 11 -44 15 -68 11
-21 -4 -43 -2 -51 3 -10 7 -22 4 -39 -10 -37 -29 -58 -24 -66 13 -3 17 -5 32
-4 33 47 38 139 45 197 15z m-664 -50 c8 -13 -5 -13 -25 0 -13 8 -13 10 2 10
9 0 20 -4 23 -10z m721 -131 c20 -39 7 -58 -29 -42 -13 6 -35 9 -49 6 -26 -5
-126 32 -116 43 4 3 32 1 64 -5 77 -15 82 -14 89 9 9 28 22 25 41 -11z m-247
-48 l24 -19 -23 -7 c-23 -7 -40 6 -40 33 0 17 11 15 39 -7z m174 -68 c9 -3 17
-11 17 -18 0 -6 9 -20 20 -30 16 -14 17 -20 8 -27 -18 -11 -113 -8 -178 5 -45
10 -56 16 -58 34 -4 24 3 27 93 42 28 5 57 6 65 4 8 -3 23 -8 33 -10z m-8
-168 c11 -2 27 -4 36 -4 22 -1 46 -22 53 -46 5 -19 3 -21 -31 -17 -20 3 -67
-1 -104 -8 -55 -11 -76 -11 -113 0 -41 11 -46 16 -46 41 0 23 6 30 33 38 28 9
112 7 172 -4z m-18 -160 c76 -7 96 -19 108 -65 6 -25 6 -25 -72 -27 -43 -2
-118 -9 -166 -16 -49 -7 -90 -10 -93 -5 -3 4 1 26 8 49 10 34 19 45 52 60 23
10 52 17 66 14 14 -2 57 -7 97 -10z m-623 -124 c3 -4 -3 -16 -14 -26 -20 -18
-25 -11 -14 19 7 18 20 21 28 7z m131 -63 c19 -19 19 -20 1 -31 -10 -7 -34
-22 -53 -35 -32 -21 -36 -21 -64 -7 l-30 16 21 29 c44 62 82 70 125 28z m568
-52 l15 -33 -66 -27 c-165 -65 -322 -73 -493 -25 l-44 12 54 25 c48 22 57 23
91 12 35 -11 42 -10 74 9 20 13 36 29 36 37 0 7 10 16 23 19 24 6 265 12 283
7 6 -2 18 -18 27 -36z m-715 -95 c-7 -11 -16 -21 -20 -21 -10 0 -10 32 -2 55
6 14 9 15 21 2 12 -12 13 -18 1 -36z m104 -40 c18 -11 56 -25 83 -31 28 -7 56
-14 63 -16 15 -4 -130 -84 -153 -84 -17 0 -85 68 -85 85 0 15 38 65 50 65 5 0
24 -9 42 -19z m572 -41 c14 -5 26 -13 26 -18 0 -14 -193 -101 -247 -111 -79
-15 -243 -17 -243 -2 0 10 144 77 210 98 49 16 172 41 207 42 12 1 33 -3 47
-9z m-634 -160 c0 -3 -11 -18 -23 -34 l-23 -29 -22 46 c-18 38 -20 52 -11 74
l10 28 34 -40 c19 -22 34 -42 35 -45z m597 -77 c-11 -10 -27 8 -27 30 l0 21
16 -22 c9 -13 14 -26 11 -29z m-506 13 c19 -7 56 -17 82 -20 l48 -7 -38 -28
c-21 -16 -50 -40 -65 -55 l-27 -28 -36 28 c-52 39 -57 54 -33 92 23 37 24 37
69 18z m385 -22 c11 -16 10 -26 -5 -60 -22 -50 -60 -67 -193 -90 -151 -26
-137 2 52 110 63 36 119 65 124 63 5 -2 15 -12 22 -23z m204 -37 c0 -15 -30
-44 -72 -70 -40 -25 -34 -9 14 40 44 45 58 52 58 30z m-659 -128 c18 -25 18
-31 5 -61 l-14 -33 -21 45 c-11 25 -21 58 -21 74 0 25 2 27 15 16 9 -7 25 -26
36 -41z m640 -52 c17 -6 38 -102 25 -114 -3 -4 -6 3 -6 15 0 32 -15 34 -41 6
-13 -14 -55 -44 -94 -67 -81 -47 -141 -93 -197 -151 l-39 -41 52 100 c43 83
68 117 147 197 95 96 96 97 117 79 11 -10 27 -21 36 -24z m-204 17 c3 -9 -9
-17 -59 -42 -19 -9 -6 28 14 42 24 17 39 17 45 0z m-302 -48 c24 -10 40 -10
84 0 31 7 56 12 58 10 2 -1 5 -16 8 -32 5 -26 1 -32 -46 -64 -102 -69 -91 -66
-139 -39 -61 34 -68 49 -45 98 19 44 32 48 80 27z m-19 -227 c12 -5 5 -139 -7
-139 -33 0 -89 127 -89 200 0 21 4 19 43 -17 24 -22 48 -42 53 -44z m154 5
c-14 -37 -63 -99 -68 -85 -4 13 56 111 69 111 5 0 4 -12 -1 -26z m-43 -208
c-3 -12 -17 -52 -31 -91 -18 -51 -30 -70 -43 -70 -15 0 -17 7 -15 40 5 67 22
119 45 136 27 21 50 13 44 -15z m-1212 -1027 c-30 -101 -82 -274 -114 -384
-32 -110 -67 -218 -77 -240 l-18 -40 -4 33 c-2 18 1 56 7 83 14 64 254 755
258 742 2 -5 -21 -92 -52 -194z m1385 -268 c0 -4 13 -25 30 -46 16 -21 38 -62
47 -92 21 -65 36 -77 126 -93 60 -11 71 -17 98 -51 28 -36 29 -39 10 -39 -30
0 -35 -18 -10 -39 15 -12 22 -29 22 -51 0 -19 8 -41 19 -52 10 -10 18 -27 18
-38 0 -11 9 -25 20 -32 17 -11 30 -68 16 -68 -2 0 -11 -3 -19 -6 -9 -3 -17 1
-19 11 -2 11 -29 25 -78 41 -70 22 -83 32 -196 137 -146 134 -174 167 -179
206 -2 16 -9 48 -15 70 -14 52 6 94 50 109 17 6 33 18 36 27 6 16 24 21 24 6z
m266 -80 c-9 -13 -16 -14 -35 -2 -12 8 -13 12 -1 26 12 14 15 14 28 1 8 -8 11
-19 8 -25z m-14 -93 c-6 -6 -15 -8 -19 -4 -4 4 -1 11 7 16 19 12 27 3 12 -12z
m-280 -247 c24 -10 68 -44 98 -75 54 -55 54 -57 58 -125 5 -86 -13 -121 -62
-121 -45 0 -69 29 -104 130 -31 88 -55 210 -41 210 4 0 27 -9 51 -19z m-1596
-11 c9 0 14 -11 13 -32 -1 -24 -3 -27 -6 -11 -5 26 -46 41 -66 25 -10 -8 -13
-6 -13 9 0 17 5 20 29 15 16 -3 36 -6 43 -6z m-96 -54 c0 -14 -4 -27 -9 -30
-4 -3 -8 8 -7 24 1 36 16 41 16 6z m1440 -2916 c0 -5 -15 -10 -32 -9 -31 1
-32 1 -8 9 35 11 40 11 40 0z m-56 -1005 c2 -352 10 -730 16 -840 15 -239 16
-608 2 -650 -8 -24 -10 -6 -11 85 -1 63 -8 210 -16 325 -34 508 -39 721 -27
1138 12 400 21 591 28 584 2 -1 5 -291 8 -642z"/>
<path d="M2005 1247 c-32 -18 -40 -28 -40 -52 -1 -17 -13 -51 -28 -77 -27 -45
-28 -49 -21 -151 6 -98 5 -106 -15 -128 -11 -12 -21 -28 -21 -35 0 -6 -25 -87
-56 -180 -60 -179 -64 -207 -38 -266 21 -46 35 -40 33 15 0 23 7 74 17 112 28
116 55 207 59 203 5 -4 -6 -82 -27 -193 -16 -88 -15 -215 2 -215 11 0 19 27
24 80 2 19 6 42 9 50 3 8 8 62 10 120 5 99 26 193 49 215 7 7 8 -12 4 -60 -3
-38 -6 -120 -8 -182 -1 -62 -7 -146 -13 -188 -7 -41 -9 -78 -4 -80 11 -7 15 2
34 75 9 36 18 72 21 80 3 8 6 91 8 185 1 111 7 184 16 210 l14 40 7 -40 c10
-50 13 -301 4 -336 -15 -60 -32 -225 -24 -234 15 -15 30 9 36 56 3 24 10 49
15 55 4 6 6 19 2 28 -4 9 -1 16 6 16 10 0 12 47 6 225 -5 174 -4 229 6 245 19
31 28 24 28 -22 0 -22 9 -90 21 -150 14 -75 19 -127 15 -166 -7 -66 -9 -109
-7 -137 2 -11 0 -48 -3 -82 -5 -58 -3 -63 15 -63 11 0 23 10 28 23 5 13 16 29
25 36 10 8 15 27 14 52 -1 21 4 45 11 52 9 11 9 27 1 61 -13 60 -32 468 -24
524 5 33 2 47 -11 62 -17 19 -17 25 -3 89 14 65 14 72 -2 99 -15 25 -26 30
-73 35 -30 4 -61 9 -69 12 -7 3 -31 -5 -53 -18z"/>
</g>
</svg>
