<?xml version="1.0" standalone="no"?>
<!DOCTYPE svg PUBLIC "-//W3C//DTD SVG 20010904//EN"
 "http://www.w3.org/TR/2001/REC-SVG-20010904/DTD/svg10.dtd">
<svg version="1.0" xmlns="http://www.w3.org/2000/svg"
 width="1117.000000pt" height="1280.000000pt" viewBox="0 0 1117.000000 1280.000000"
 preserveAspectRatio="xMidYMid meet">
<metadata>
Created by potrace 1.15, written by Peter Selinger 2001-2017
</metadata>
<g transform="translate(0.000000,1280.000000) scale(0.100000,-0.100000)"
fill="#000000" stroke="none">
<path d="M5160 12786 c-176 -17 -268 -32 -420 -66 -160 -36 -231 -63 -276
-105 -40 -38 -40 -40 -15 -165 7 -30 23 -116 37 -190 24 -128 99 -476 110
-512 4 -13 -16 -27 -98 -66 -208 -99 -308 -208 -308 -337 0 -124 123 -247 327
-327 l83 -33 0 -740 0 -740 -2290 -3759 c-2183 -3583 -2290 -3761 -2301 -3824
-60 -345 185 -721 666 -1023 650 -409 1923 -737 3305 -853 465 -39 529 -41
1400 -41 855 0 1098 6 1625 41 1724 111 2936 429 3638 952 242 181 397 359
472 544 51 126 68 288 42 404 -10 40 -506 849 -2324 3791 l-2313 3740 0 745 0
744 108 42 c227 88 352 207 352 337 0 145 -122 262 -385 371 -79 33 -80 34
-77 66 2 18 25 196 53 395 27 198 49 368 49 376 0 24 -48 76 -89 97 -89 45
-317 97 -556 126 -178 21 -639 27 -815 10z m-178 -1910 l36 -7 1 -458 1 -459
-25 -44 c-70 -126 -95 -252 -76 -378 7 -41 16 -124 21 -185 l9 -110 -76 -138
c-73 -132 -81 -142 -176 -224 -217 -189 -359 -399 -412 -608 -27 -102 -49
-141 -134 -230 -154 -161 -198 -252 -237 -495 -8 -47 -14 -103 -14 -124 0 -66
-113 -250 -225 -367 -163 -171 -242 -312 -295 -524 -26 -106 -35 -126 -190
-401 -90 -159 -167 -295 -173 -301 -6 -9 -15 -10 -27 -3 -16 9 -146 -191
-1093 -1682 -1043 -1641 -1075 -1692 -1060 -1715 8 -12 20 -23 27 -23 6 -1 41
-29 79 -64 l67 -63 -282 -497 -283 -498 -49 53 c-162 180 -226 324 -226 510 1
166 34 250 164 413 63 79 606 956 2245 3626 1189 1937 2166 3533 2172 3546 5
15 9 321 9 763 l0 738 93 -22 c50 -13 109 -26 129 -29z m1378 -707 c0 -534 3
-746 11 -762 7 -12 999 -1613 2206 -3557 1443 -2325 2218 -3564 2263 -3620
118 -144 160 -245 160 -385 0 -211 -108 -421 -305 -595 -39 -35 -43 -37 -18
-9 l33 35 -666 1174 c-367 646 -670 1177 -674 1180 -4 3 -13 41 -20 85 -23
156 -97 336 -189 457 -22 29 -86 109 -142 178 -220 271 -363 519 -463 800
-126 353 -177 462 -310 665 -145 221 -293 384 -460 510 -42 32 -76 59 -76 62
0 6 54 -33 118 -85 28 -23 52 -39 52 -34 0 4 -4 12 -9 17 -5 6 -210 366 -456
800 -246 435 -550 970 -675 1190 -385 677 -567 999 -583 1030 l-15 30 -6 -25
c-13 -61 -26 -147 -26 -179 0 -32 13 -48 129 -166 71 -71 138 -148 149 -171
37 -74 61 -167 76 -304 9 -74 20 -150 26 -169 6 -23 55 -80 152 -180 192 -195
293 -331 386 -516 39 -79 102 -246 101 -268 0 -7 -17 36 -38 94 -91 256 -253
494 -490 722 -57 54 -109 113 -117 132 -8 19 -21 97 -29 172 -17 150 -43 253
-82 323 -14 25 -82 100 -151 168 l-125 122 7 78 c4 42 18 129 31 192 71 326
77 371 79 525 1 169 -10 220 -67 297 -17 24 -32 46 -32 50 0 3 -4 10 -9 15 -5
5 -6 2 -1 -7 7 -13 5 -13 -9 1 -32 30 -40 129 -26 340 7 108 9 215 5 238 -7
40 -6 41 22 42 15 0 75 11 133 24 58 12 111 23 118 24 9 1 12 -153 12 -740z
m787 -2881 c-3 -8 -6 -5 -6 6 -1 11 2 17 5 13 3 -3 4 -12 1 -19z m27 -88 c4
-24 3 -29 -3 -15 -4 11 -11 36 -15 55 -4 24 -3 29 3 15 4 -11 11 -36 15 -55z
m24 -105 c0 -16 -2 -15 -8 5 -4 14 -8 34 -8 45 0 16 2 15 8 -5 4 -14 8 -34 8
-45z m40 -180 c0 -11 -8 14 -19 55 -10 41 -18 82 -17 90 1 21 36 -121 36 -145z
m46 -173 c27 -51 107 -131 194 -194 86 -61 122 -89 92 -73 -61 34 -178 126
-226 177 -64 70 -90 120 -98 193 -5 48 -5 47 9 -12 8 -35 21 -75 29 -91z m352
-303 c3 -6 -5 -3 -20 6 -14 10 -26 19 -26 22 0 7 39 -17 46 -28z m60 -40 c3
-6 -5 -3 -20 6 -14 10 -26 19 -26 22 0 7 39 -17 46 -28z m1671 -3001 c-2 -13
-4 -3 -4 22 0 25 2 35 4 23 2 -13 2 -33 0 -45z m-20 -140 c-3 -8 -6 -5 -6 6
-1 11 2 17 5 13 3 -3 4 -12 1 -19z m-36 -135 c-12 -20 -14 -14 -5 12 4 9 9 14
11 11 3 -2 0 -13 -6 -23z m-20 -60 c-12 -20 -14 -14 -5 12 4 9 9 14 11 11 3
-2 0 -13 -6 -23z m-8226 -843 c21 -22 37 -40 34 -40 -3 0 -23 18 -44 40 -21
22 -37 40 -34 40 3 0 23 -18 44 -40z m8182 -72 c-3 -8 -6 -5 -6 6 -1 11 2 17
5 13 3 -3 4 -12 1 -19z m-8007 -95 c0 -8 -9 0 -50 45 l-45 47 48 -45 c26 -24
47 -45 47 -47z m8007 45 c-3 -8 -6 -5 -6 6 -1 11 2 17 5 13 3 -3 4 -12 1 -19z
m-7922 -118 c21 -22 37 -40 34 -40 -3 0 -23 18 -44 40 -21 22 -37 40 -34 40 3
0 23 -18 44 -40z m7845 -23 c0 -2 -12 -14 -27 -28 l-28 -24 24 28 c23 25 31
32 31 24z m-7735 -77 c10 -11 16 -20 13 -20 -3 0 -13 9 -23 20 -10 11 -16 20
-13 20 3 0 13 -9 23 -20z m-242 -257 c-7 -2 -21 -2 -30 0 -10 3 -4 5 12 5 17
0 24 -2 18 -5z m7081 -213 c-69 -133 -122 -194 -244 -283 -14 -10 -20 -16 -15
-13 20 8 461 129 525 143 251 55 558 70 700 34 166 -42 291 -125 326 -217 38
-100 -21 -265 -148 -412 -16 -18 -26 -38 -22 -43 3 -5 2 -9 -3 -8 -4 1 -21 -3
-38 -10 -16 -7 -97 -30 -180 -51 -308 -79 -704 -156 -1071 -209 -188 -27 -285
-39 -549 -71 -71 -8 -421 -41 -595 -55 -203 -17 -593 -36 -935 -46 -432 -13
-1378 -7 -1645 10 -674 44 -1279 123 -1860 242 -202 42 -549 125 -558 133 -2
3 23 77 57 165 33 88 61 164 61 170 0 14 -4 15 108 -14 214 -54 482 -103 707
-131 169 -20 595 -31 595 -15 0 6 -7 11 -16 11 -39 0 -1227 406 -1275 436 -6
3 -6 11 -1 17 5 7 30 71 57 142 27 72 49 131 50 132 0 1 50 -14 110 -33 396
-126 895 -220 1450 -275 148 -14 604 -39 725 -39 86 0 118 -5 180 -26 124 -42
238 -64 375 -70 163 -8 249 3 520 66 151 35 249 52 350 60 334 27 670 70 1005
129 82 14 364 72 370 76 4 2 51 6 105 10 350 22 618 63 770 119 22 8 43 15 47
15 4 1 -13 -39 -38 -89z m-6877 43 c-3 -10 -5 -4 -5 12 0 17 2 24 5 18 2 -7 2
-21 0 -30z m-326 0 c13 -16 12 -17 -3 -4 -17 13 -22 21 -14 21 2 0 10 -8 17
-17z m49 -58 c13 -14 21 -25 18 -25 -2 0 -15 11 -28 25 -13 14 -21 25 -18 25
2 0 15 -11 28 -25z m55 -43 c-3 -3 -11 0 -18 7 -9 10 -8 11 6 5 10 -3 15 -9
12 -12z m140 8 c-3 -5 -12 -10 -18 -10 -7 0 -6 4 3 10 19 12 23 12 15 0z m472
-46 c-3 -3 -12 -4 -19 -1 -8 3 -5 6 6 6 11 1 17 -2 13 -5z m90 0 c-3 -3 -12
-4 -19 -1 -8 3 -5 6 6 6 11 1 17 -2 13 -5z m-1347 -99 c13 -14 21 -25 18 -25
-2 0 -15 11 -28 25 -13 14 -21 25 -18 25 2 0 15 -11 28 -25z m1130 21 c0 -2
-8 -10 -17 -17 -16 -13 -17 -12 -4 4 13 16 21 21 21 13z m8980 -30 c0 -2 -8
-10 -17 -17 -16 -13 -17 -12 -4 4 13 16 21 21 21 13z m-9013 -53 c-3 -10 -5
-4 -5 12 0 17 2 24 5 18 2 -7 2 -21 0 -30z m-1032 7 c10 -11 16 -20 13 -20 -3
0 -13 9 -23 20 -10 11 -16 20 -13 20 3 0 13 -9 23 -20z m10005 17 c0 -2 -10
-12 -22 -23 l-23 -19 19 23 c18 21 26 27 26 19z m-80 -61 c0 -2 -8 -10 -17
-17 -16 -13 -17 -12 -4 4 13 16 21 21 21 13z m-70 -51 c0 -2 -10 -9 -22 -15
-22 -11 -22 -10 -4 4 21 17 26 19 26 11z m-80 -50 c0 -2 -10 -9 -22 -15 -22
-11 -22 -10 -4 4 21 17 26 19 26 11z m-9385 -103 c-3 -3 -11 0 -18 7 -9 10 -8
11 6 5 10 -3 15 -9 12 -12z m8955 -112 c-8 -5 -19 -10 -25 -10 -5 0 -3 5 5 10
8 5 20 10 25 10 6 0 3 -5 -5 -10z m-50 -20 c-8 -5 -19 -10 -25 -10 -5 0 -3 5
5 10 8 5 20 10 25 10 6 0 3 -5 -5 -10z m-50 -20 c-8 -5 -19 -10 -25 -10 -5 0
-3 5 5 10 8 5 20 10 25 10 6 0 3 -5 -5 -10z m-110 -40 c-8 -5 -19 -10 -25 -10
-5 0 -3 5 5 10 8 5 20 10 25 10 6 0 3 -5 -5 -10z m-223 -76 c-3 -3 -12 -4 -19
-1 -8 3 -5 6 6 6 11 1 17 -2 13 -5z m-70 -20 c-3 -3 -12 -4 -19 -1 -8 3 -5 6
6 6 11 1 17 -2 13 -5z"/>
<path d="M6108 10843 c7 -3 16 -2 19 1 4 3 -2 6 -13 5 -11 0 -14 -3 -6 -6z"/>
<path d="M6093 10760 c0 -36 2 -50 4 -32 2 17 2 47 0 65 -2 17 -4 3 -4 -33z"/>
<path d="M6091 10674 c0 -11 3 -14 6 -6 3 7 2 16 -1 19 -3 4 -6 -2 -5 -13z"/>
<path d="M6083 10575 c0 -27 2 -38 4 -22 2 15 2 37 0 50 -2 12 -4 0 -4 -28z"/>
<path d="M6073 10425 c0 -44 2 -61 4 -37 2 23 2 59 0 80 -2 20 -4 1 -4 -43z"/>
<path d="M6082 10310 c0 -14 2 -19 5 -12 2 6 2 18 0 25 -3 6 -5 1 -5 -13z"/>
</g>
</svg>
