<?xml version="1.0" standalone="no"?>
<!DOCTYPE svg PUBLIC "-//W3C//DTD SVG 20010904//EN"
 "http://www.w3.org/TR/2001/REC-SVG-20010904/DTD/svg10.dtd">
<svg version="1.0" xmlns="http://www.w3.org/2000/svg"
 width="983.000000pt" height="1280.000000pt" viewBox="0 0 983.000000 1280.000000"
 preserveAspectRatio="xMidYMid meet">
<metadata>
Created by potrace 1.15, written by Peter Selinger 2001-2017
</metadata>
<g transform="translate(0.000000,1280.000000) scale(0.100000,-0.100000)"
fill="#000000" stroke="none">
<path d="M2020 12790 c-517 -49 -877 -189 -1130 -439 -332 -329 -656 -997
-794 -1637 -69 -324 -90 -518 -90 -854 0 -328 25 -606 109 -1218 177 -1285
443 -2398 696 -2903 115 -231 323 -449 678 -713 307 -228 800 -512 1217 -703
108 -50 174 -108 221 -198 42 -80 80 -214 93 -328 32 -278 42 -313 112 -384
88 -90 218 -119 571 -129 l217 -6 0 -52 c0 -28 -3 -67 -6 -87 l-6 -36 -132
-12 c-72 -7 -160 -17 -196 -22 -136 -20 -405 -81 -457 -105 -113 -50 -175
-120 -219 -250 -26 -78 -27 -86 -36 -439 -5 -198 -16 -628 -25 -955 -22 -783
-22 -774 6 -833 47 -97 161 -171 371 -241 451 -149 1114 -246 1695 -246 581 0
1244 97 1695 246 210 70 324 144 371 241 28 59 28 52 6 823 -9 322 -21 749
-26 950 -9 385 -14 422 -63 527 -31 67 -107 139 -181 173 -35 16 -136 44 -232
64 -199 42 -256 51 -430 67 -71 6 -133 14 -136 18 -4 3 -10 43 -13 87 l-7 82
228 6 c356 10 483 39 571 129 70 71 80 106 112 384 13 114 51 248 93 328 47
90 113 148 221 198 489 223 985 520 1354 808 134 105 396 365 446 442 219 338
416 973 611 1966 127 647 250 1542 286 2076 59 879 -225 1884 -722 2553 -262
352 -612 535 -1164 609 -200 26 -623 24 -860 -6 -99 -12 -430 -53 -735 -91
-931 -115 -1258 -150 -1425 -150 -165 0 -500 35 -1390 146 -921 115 -922 115
-1175 119 -129 2 -278 0 -330 -5z m-587 -2791 c247 -49 494 -141 997 -374 146
-67 333 -151 415 -185 713 -297 1108 -660 1229 -1131 44 -171 45 -167 -22
-251 -127 -159 -258 -246 -481 -318 -188 -60 -468 -193 -695 -330 -324 -195
-651 -457 -712 -570 -66 -125 -199 -206 -295 -180 -74 20 -123 83 -221 280
-280 567 -675 1561 -717 1805 -67 391 47 896 270 1202 68 94 45 88 232 52z
m7196 -51 c228 -313 341 -833 266 -1224 -47 -245 -446 -1244 -713 -1784 -98
-197 -148 -260 -221 -280 -96 -26 -229 55 -295 180 -61 113 -389 376 -712 570
-227 136 -510 271 -695 330 -187 60 -296 124 -409 239 -85 86 -180 221 -180
256 0 44 52 201 96 292 181 369 556 667 1146 912 81 33 268 117 416 185 317
146 409 186 595 255 222 83 480 147 609 150 35 1 40 -3 97 -81z"/>
</g>
</svg>
