<?xml version="1.0" standalone="no"?>
<!DOCTYPE svg PUBLIC "-//W3C//DTD SVG 20010904//EN"
 "http://www.w3.org/TR/2001/REC-SVG-20010904/DTD/svg10.dtd">
<svg version="1.0" xmlns="http://www.w3.org/2000/svg"
 width="914.000000pt" height="1280.000000pt" viewBox="0 0 914.000000 1280.000000"
 preserveAspectRatio="xMidYMid meet">
<metadata>
Created by potrace 1.15, written by Peter Selinger 2001-2017
</metadata>
<g transform="translate(0.000000,1280.000000) scale(0.100000,-0.100000)"
fill="#000000" stroke="none">
<path d="M2900 11010 c-25 -4 -63 -6 -86 -3 -57 7 -179 -14 -243 -43 -30 -14
-86 -29 -124 -34 -83 -12 -186 -51 -247 -95 -25 -17 -84 -50 -133 -73 -58 -27
-103 -58 -137 -91 -27 -27 -87 -75 -134 -106 -87 -57 -158 -128 -204 -200 -28
-44 -148 -173 -318 -340 -79 -77 -116 -121 -124 -146 -6 -21 -41 -70 -82 -114
-66 -73 -107 -140 -108 -176 0 -27 -90 -260 -109 -286 -33 -41 -79 -164 -94
-253 -9 -47 -23 -118 -32 -158 -8 -40 -13 -78 -9 -84 4 -5 10 -83 15 -172 8
-149 11 -165 37 -216 16 -30 41 -97 56 -149 27 -95 67 -184 86 -196 6 -4 31
-39 57 -78 55 -86 124 -189 158 -236 22 -30 25 -44 25 -121 0 -139 -22 -214
-98 -336 -36 -58 -78 -116 -94 -129 l-28 -24 -73 34 c-39 19 -101 59 -137 90
-40 35 -120 85 -210 131 -139 72 -150 81 -265 194 -130 128 -170 154 -192 123
-19 -25 -7 -121 28 -215 25 -71 91 -180 197 -324 210 -289 292 -362 478 -426
154 -53 262 -48 441 22 121 46 213 107 318 208 101 97 134 147 194 284 37 85
37 102 11 328 -17 157 -70 401 -96 453 -8 15 -23 60 -34 100 -10 39 -27 95
-38 123 -15 41 -19 74 -18 160 1 105 3 112 38 179 21 39 60 92 88 120 27 27
50 53 50 57 0 4 15 31 33 60 18 29 41 69 50 88 29 63 204 214 328 283 37 20
85 52 108 71 23 19 72 50 109 69 37 19 91 51 121 71 60 41 203 112 242 121 24
6 28 2 48 -47 12 -29 46 -80 77 -113 40 -44 53 -65 49 -80 -3 -11 -17 -87 -32
-170 -20 -117 -41 -193 -95 -345 -105 -294 -118 -341 -124 -460 -5 -91 -2
-118 20 -203 14 -54 43 -135 66 -181 36 -76 40 -90 40 -162 0 -44 7 -173 15
-288 11 -155 13 -237 5 -315 -23 -263 -33 -516 -22 -609 22 -183 149 -489 329
-792 167 -281 253 -461 232 -486 -27 -33 29 -244 119 -450 31 -71 40 -106 45
-169 7 -112 34 -185 142 -380 51 -93 132 -242 180 -330 137 -249 241 -419 295
-478 61 -67 176 -147 278 -194 148 -69 261 -56 445 53 170 102 236 188 487
644 57 102 131 235 166 296 97 170 123 232 140 347 12 75 28 130 61 205 52
121 107 278 123 356 10 48 9 60 -6 85 -17 29 -17 29 44 152 33 68 107 201 162
294 182 304 310 582 345 751 20 95 22 307 4 599 -10 171 -10 231 4 405 9 113
19 248 22 300 6 84 11 103 45 170 101 196 114 407 39 620 -124 351 -151 440
-174 568 -14 75 -27 148 -30 162 -5 20 3 35 36 70 61 66 84 100 98 146 l13 41
67 -25 c36 -14 104 -49 151 -78 47 -29 119 -71 160 -93 41 -22 102 -60 135
-85 33 -25 83 -58 110 -72 48 -26 195 -139 262 -202 17 -16 41 -49 53 -73 47
-93 95 -166 141 -214 26 -27 64 -81 83 -120 34 -67 36 -75 36 -172 0 -84 -4
-114 -24 -167 -14 -35 -27 -81 -30 -100 -3 -20 -17 -64 -31 -99 -39 -94 -86
-299 -99 -422 -2 -27 -10 -99 -16 -159 -7 -59 -9 -122 -6 -138 3 -17 30 -80
60 -142 51 -106 59 -116 167 -221 127 -123 203 -169 369 -226 82 -29 108 -33
195 -33 86 0 112 4 188 31 166 59 266 139 406 328 41 55 86 116 100 135 78
104 145 217 170 287 35 95 47 191 28 216 -22 31 -62 5 -192 -123 -115 -113
-126 -122 -265 -194 -90 -46 -170 -96 -210 -131 -36 -31 -97 -71 -137 -90
l-72 -34 -34 32 c-19 18 -61 75 -94 128 -72 115 -98 213 -92 345 4 75 7 84 40
125 19 24 61 87 94 139 32 52 78 119 102 149 35 44 51 78 84 185 23 72 50 144
61 159 23 32 37 124 38 240 0 43 5 99 12 124 9 39 7 63 -16 177 -36 171 -62
262 -92 311 -50 84 -116 248 -144 361 -7 30 -34 68 -91 133 -47 53 -85 106
-90 126 -6 22 -31 54 -66 87 -152 142 -316 315 -384 408 -74 100 -99 123 -197
187 -46 30 -105 77 -132 104 -32 32 -81 65 -138 92 -48 24 -109 58 -135 76
-62 42 -161 79 -248 91 -38 6 -88 19 -110 31 -74 37 -183 51 -415 51 -34 0
-74 -10 -123 -31 -40 -17 -88 -31 -107 -31 -45 0 -130 -39 -228 -104 -95 -63
-218 -121 -275 -131 -96 -16 -290 -141 -451 -290 -41 -39 -104 -91 -140 -117
-61 -43 -71 -46 -163 -57 -72 -8 -122 -8 -195 0 -91 11 -101 14 -162 57 -36
26 -99 78 -140 117 -161 149 -355 274 -451 290 -56 10 -193 74 -270 128 -97
67 -163 98 -227 106 -31 4 -84 19 -117 33 -70 31 -132 39 -195 28z m-166
-2850 l-7 -35 -14 50 c-14 50 -12 164 4 188 11 17 26 -160 17 -203z m3682 144
c7 -57 -11 -174 -27 -174 -11 0 -11 45 -2 157 3 45 9 80 14 78 4 -3 11 -30 15
-61z m-2088 -788 c-8 -138 -55 -277 -178 -521 -135 -268 -237 -422 -253 -382
-7 18 26 290 49 401 38 188 121 359 244 501 55 64 120 116 132 109 7 -5 9 -43
6 -108z m562 37 c203 -208 298 -460 327 -871 5 -74 4 -82 -11 -76 -52 20 -302
482 -372 689 -33 95 -38 125 -42 223 -3 88 -1 112 9 112 7 0 47 -35 89 -77z
m-1750 -231 c25 -37 73 -100 108 -140 38 -44 78 -103 99 -150 20 -42 47 -101
61 -130 24 -51 25 -59 19 -175 -4 -67 -13 -160 -22 -207 -8 -47 -14 -122 -14
-165 1 -44 -2 -100 -7 -124 l-9 -44 -22 39 c-33 60 -61 137 -98 268 -18 67
-49 174 -69 239 -23 75 -43 173 -57 275 -19 144 -52 341 -65 385 -11 35 29 -2
76 -71z m2905 56 c-20 -87 -49 -248 -71 -391 -18 -119 -39 -214 -74 -325 -26
-86 -60 -197 -75 -246 -15 -49 -38 -114 -52 -145 l-25 -56 -17 50 c-14 39 -16
59 -8 94 7 32 5 72 -7 145 -33 209 -38 283 -21 349 9 34 22 68 29 77 8 8 17
26 21 40 14 54 71 148 122 205 30 33 80 97 111 143 56 83 77 101 67 60z
m-1596 -397 c16 -17 35 -55 44 -85 14 -50 14 -66 1 -154 -29 -198 -49 -265
-106 -349 -29 -43 -95 -96 -109 -88 -4 3 -15 37 -25 77 -23 91 -23 245 0 342
30 125 118 286 157 286 6 0 23 -13 38 -29z m294 1 c38 -39 104 -187 122 -271
17 -83 19 -225 4 -291 -28 -123 -27 -122 -57 -106 -63 33 -125 126 -156 236
-8 30 -23 108 -32 173 -17 111 -17 121 0 172 17 56 58 115 80 115 7 0 24 -12
39 -28z m-599 -1502 c70 26 74 18 101 -200 19 -156 33 -228 45 -235 19 -12 41
47 70 179 20 93 39 154 58 188 l29 49 112 0 113 0 28 -53 c17 -33 38 -103 55
-182 26 -127 46 -186 65 -186 5 0 11 8 14 18 7 22 31 181 46 295 6 48 15 100
21 114 8 23 13 25 42 18 17 -4 43 -8 56 -7 44 0 103 -92 132 -208 l20 -80 -30
-37 c-44 -55 -61 -113 -72 -248 -10 -117 -53 -286 -92 -361 -20 -38 -90 -103
-203 -186 -147 -109 -200 -125 -283 -88 -47 22 -211 141 -279 204 -55 50 -64
69 -113 221 -28 89 -39 140 -39 186 0 98 -16 178 -49 241 l-29 58 19 84 c24
99 101 235 124 216 9 -7 21 -7 39 0z"/>
</g>
</svg>
