<?xml version="1.0" standalone="no"?>
<!DOCTYPE svg PUBLIC "-//W3C//DTD SVG 20010904//EN"
 "http://www.w3.org/TR/2001/REC-SVG-20010904/DTD/svg10.dtd">
<svg version="1.0" xmlns="http://www.w3.org/2000/svg"
 width="1280.000000pt" height="1229.000000pt" viewBox="0 0 1280.000000 1229.000000"
 preserveAspectRatio="xMidYMid meet">
<metadata>
Created by potrace 1.15, written by Peter Selinger 2001-2017
</metadata>
<g transform="translate(0.000000,1229.000000) scale(0.100000,-0.100000)"
fill="#000000" stroke="none">
<path d="M6215 12279 c-240 -35 -501 -169 -662 -342 -296 -318 -383 -779 -223
-1180 l40 -98 -1361 -2357 c-749 -1296 -1370 -2372 -1382 -2391 l-20 -33 -786
786 -786 786 -518 -518 c-432 -432 -517 -522 -517 -545 0 -15 6 -27 13 -27 6
0 420 -408 919 -908 l907 -907 -780 -1350 c-429 -742 -791 -1369 -805 -1392
l-24 -42 32 -22 32 -23 79 84 c286 306 482 541 830 999 267 349 362 464 446
533 115 96 216 103 342 26 25 -15 50 -28 55 -28 5 1 22 20 38 43 97 137 242
356 296 447 35 58 65 107 67 110 2 2 889 -881 1971 -1963 1082 -1082 1974
-1967 1982 -1967 8 0 900 885 1982 1967 1082 1082 1969 1965 1971 1963 2 -3
32 -52 67 -110 54 -91 199 -310 296 -447 16 -23 34 -42 39 -43 6 0 27 11 48
26 86 58 190 70 265 31 109 -57 193 -150 500 -552 381 -500 567 -725 859
-1034 l79 -85 32 23 c20 14 29 27 25 34 -4 7 -366 633 -805 1392 l-797 1380
919 920 c506 506 920 927 920 935 0 8 -232 247 -515 530 l-515 515 -788 -787
-787 -787 -1401 2426 -1401 2426 19 49 c137 362 78 768 -158 1079 -238 313
-652 484 -1039 428z m723 -3613 l532 -923 78 -6 c352 -27 718 -288 1088 -780
268 -355 454 -666 898 -1502 l85 -160 -1607 -1608 -1607 -1607 -1607 1607
c-885 885 -1608 1611 -1608 1615 0 11 259 501 381 721 228 411 463 776 655
1017 136 170 351 385 474 472 185 132 382 212 552 225 l77 6 533 923 c293 508
535 924 538 924 3 0 245 -416 538 -924z"/>
</g>
</svg>
