<?xml version="1.0" standalone="no"?>
<!DOCTYPE svg PUBLIC "-//W3C//DTD SVG 20010904//EN"
 "http://www.w3.org/TR/2001/REC-SVG-20010904/DTD/svg10.dtd">
<svg version="1.0" xmlns="http://www.w3.org/2000/svg"
 width="1280.000000pt" height="923.000000pt" viewBox="0 0 1280.000000 923.000000"
 preserveAspectRatio="xMidYMid meet">
<metadata>
Created by potrace 1.15, written by Peter Selinger 2001-2017
</metadata>
<g transform="translate(0.000000,923.000000) scale(0.100000,-0.100000)"
fill="#000000" stroke="none">
<path d="M5900 9224 c-195 -8 -594 -46 -788 -74 -892 -131 -1571 -326 -2422
-695 -46 -20 -179 -83 -295 -141 -531 -263 -957 -524 -1404 -859 -95 -71 -186
-139 -200 -150 -41 -30 -121 -95 -167 -135 -22 -19 -80 -69 -129 -110 -193
-163 -495 -447 -495 -464 0 -6 164 -175 364 -375 l364 -364 184 169 c209 192
374 336 474 414 260 201 557 413 710 507 10 7 61 38 113 70 52 32 113 69 135
81 23 13 62 37 89 53 26 16 49 29 51 29 2 0 33 16 68 36 65 38 473 244 481
244 3 0 44 18 91 40 47 22 88 40 91 40 3 0 24 9 48 19 177 81 534 210 802 291
205 61 314 89 620 160 58 14 176 36 285 55 52 8 118 20 145 25 87 15 323 45
480 60 269 25 389 30 750 30 360 0 465 -4 755 -30 664 -60 1321 -210 1995
-454 55 -20 109 -40 120 -46 11 -5 56 -23 100 -40 44 -17 94 -37 110 -44 472
-211 810 -386 1100 -571 542 -346 940 -660 1370 -1079 l170 -166 370 371 370
371 -195 190 c-294 287 -698 631 -930 793 -15 11 -73 52 -127 91 -604 435
-1292 805 -2013 1080 -325 125 -813 277 -1075 335 -22 5 -78 18 -125 29 -87
20 -287 61 -395 81 -33 6 -69 12 -80 15 -23 5 -330 49 -445 63 -41 6 -124 15
-185 20 -60 6 -159 15 -220 22 -103 10 -951 20 -1115 13z"/>
<path d="M5950 7424 c-301 -11 -738 -65 -1060 -131 -69 -14 -145 -29 -170 -34
-273 -55 -864 -237 -1087 -335 -17 -8 -34 -14 -38 -14 -3 0 -31 -11 -61 -25
-30 -14 -57 -25 -59 -25 -3 0 -39 -16 -81 -35 -41 -19 -78 -35 -82 -35 -3 0
-103 -48 -221 -107 -542 -269 -997 -565 -1456 -947 -124 -103 -404 -356 -464
-419 l-34 -36 31 -38 c17 -21 186 -193 376 -383 l345 -344 108 104 c310 301
708 607 1086 837 1285 780 2793 1067 4267 813 47 -8 185 -36 345 -71 154 -32
488 -129 645 -186 539 -195 955 -404 1395 -700 182 -122 198 -134 289 -203 32
-25 71 -54 85 -65 159 -121 392 -326 579 -509 l112 -111 377 377 377 377 -60
63 c-193 206 -551 520 -850 745 -151 114 -506 354 -549 372 -5 2 -21 12 -35
21 -14 10 -41 27 -60 38 -19 10 -75 43 -125 72 -100 59 -480 253 -565 289 -30
13 -83 37 -118 52 -34 16 -65 29 -67 29 -2 0 -29 11 -59 25 -30 14 -58 25 -61
25 -4 0 -21 6 -38 14 -108 48 -514 187 -662 227 -284 78 -584 145 -787 178
-256 41 -327 50 -643 81 -108 11 -759 21 -925 14z"/>
<path d="M6005 5620 c-273 -14 -515 -44 -773 -96 -868 -174 -1700 -567 -2377
-1123 -124 -102 -303 -262 -377 -338 l-68 -68 360 -360 359 -359 98 94 c424
410 941 738 1503 955 143 55 433 146 517 161 12 2 34 9 48 14 14 5 25 8 25 5
0 -2 14 0 32 5 17 5 49 12 72 16 22 3 43 7 46 9 4 2 29 7 56 11 27 3 52 8 55
10 3 1 32 6 65 9 32 4 62 9 66 11 3 2 42 7 85 10 43 3 84 7 90 9 16 6 317 20
413 20 93 0 412 -15 419 -20 3 -2 42 -6 85 -10 44 -3 82 -8 85 -9 3 -2 33 -7
66 -11 32 -3 62 -8 65 -10 3 -1 27 -6 54 -9 27 -4 76 -13 110 -21 34 -8 72
-16 86 -18 14 -3 54 -13 90 -22 36 -9 70 -18 75 -20 47 -11 90 -23 225 -66
384 -123 740 -295 1085 -524 266 -176 421 -303 655 -532 l155 -152 358 356
c196 197 357 360 357 363 0 22 -443 430 -575 530 -18 14 -77 59 -131 100 -623
477 -1405 825 -2206 985 -409 81 -917 117 -1353 95z"/>
<path d="M5935 3759 c-676 -82 -1205 -284 -1735 -663 -137 -97 -348 -276 -440
-370 l-45 -46 315 -315 c173 -173 320 -315 325 -315 6 0 35 25 65 56 173 176
456 374 710 495 137 66 167 79 175 79 4 0 21 6 38 14 112 51 369 118 552 145
178 26 237 31 397 31 208 0 339 -13 553 -56 133 -26 336 -85 412 -120 17 -8
34 -14 38 -14 14 0 222 -99 310 -148 217 -120 482 -324 643 -497 l72 -77 323
321 322 320 -85 87 c-270 274 -632 539 -970 709 -190 96 -489 208 -705 265
-156 41 -342 74 -564 100 -100 12 -606 11 -706 -1z"/>
<path d="M6110 2375 c-151 -19 -277 -54 -404 -113 -157 -74 -300 -182 -397
-300 -67 -81 -147 -206 -168 -263 -7 -19 -17 -43 -21 -54 -50 -125 -70 -245
-70 -416 0 -143 5 -186 36 -314 47 -198 167 -406 326 -563 161 -159 337 -257
572 -320 93 -24 117 -26 291 -26 164 0 202 3 280 22 287 72 520 220 689 437
258 331 334 757 204 1140 -56 165 -133 289 -261 417 -129 131 -295 233 -477
294 -96 33 -138 41 -285 59 -139 17 -173 17 -315 0z"/>
</g>
</svg>
