<?xml version="1.0" standalone="no"?>
<!DOCTYPE svg PUBLIC "-//W3C//DTD SVG 20010904//EN"
 "http://www.w3.org/TR/2001/REC-SVG-20010904/DTD/svg10.dtd">
<svg version="1.0" xmlns="http://www.w3.org/2000/svg"
 width="1280.000000pt" height="891.000000pt" viewBox="0 0 1280.000000 891.000000"
 preserveAspectRatio="xMidYMid meet">
<metadata>
Created by potrace 1.15, written by Peter Selinger 2001-2017
</metadata>
<g transform="translate(0.000000,891.000000) scale(0.100000,-0.100000)"
fill="#000000" stroke="none">
<path d="M9795 8899 c-422 -39 -799 -163 -1140 -374 -56 -34 -824 -485 -1706
-1000 -2810 -1643 -4850 -2841 -4901 -2878 -39 -29 -86 -99 -110 -164 -20 -53
-22 -85 -27 -347 l-6 -290 -150 -86 c-82 -48 -375 -216 -650 -375 -673 -388
-992 -577 -1026 -609 -15 -15 -38 -52 -50 -84 -22 -56 -22 -64 -23 -597 -1
-568 5 -663 43 -711 39 -49 130 -114 266 -189 77 -43 145 -81 150 -85 16 -12
1410 -816 1675 -965 206 -117 253 -139 295 -143 69 -6 169 29 275 97 47 29
475 277 951 552 l866 498 113 -64 c223 -127 354 -168 540 -169 114 0 133 3
217 32 120 41 159 60 393 199 107 64 839 491 1625 950 2833 1654 4905 2873
4997 2939 139 102 263 286 329 487 58 178 60 220 54 1077 -7 853 -7 854 -70
1008 -145 357 -459 657 -949 908 -389 199 -782 314 -1261 370 -158 18 -583 26
-720 13z"/>
</g>
</svg>
