<?xml version="1.0" standalone="no"?>
<!DOCTYPE svg PUBLIC "-//W3C//DTD SVG 20010904//EN"
 "http://www.w3.org/TR/2001/REC-SVG-20010904/DTD/svg10.dtd">
<svg version="1.0" xmlns="http://www.w3.org/2000/svg"
 width="1280.000000pt" height="1280.000000pt" viewBox="0 0 1280.000000 1280.000000"
 preserveAspectRatio="xMidYMid meet">
<metadata>
Created by potrace 1.15, written by Peter Selinger 2001-2017
</metadata>
<g transform="translate(0.000000,1280.000000) scale(0.100000,-0.100000)"
fill="#000000" stroke="none">
<path d="M7975 12299 c-492 -50 -1047 -304 -1581 -723 l-122 -95 -141 94
c-543 359 -1054 531 -1526 512 -228 -9 -399 -51 -595 -143 -576 -272 -974
-944 -1109 -1874 l-17 -115 -65 -8 c-480 -62 -856 -163 -1174 -316 -542 -261
-855 -625 -967 -1122 -20 -91 -23 -130 -23 -309 1 -169 5 -226 23 -322 82
-432 314 -900 677 -1365 l95 -123 -24 -38 c-44 -70 -153 -295 -199 -412 -53
-134 -89 -257 -118 -396 -28 -141 -37 -435 -15 -564 86 -525 417 -930 991
-1210 242 -119 514 -209 811 -270 l111 -23 12 -96 c18 -141 76 -428 116 -571
193 -686 535 -1164 1000 -1394 114 -56 245 -102 375 -131 117 -26 426 -32 570
-11 358 52 728 197 1102 432 65 41 121 74 124 74 3 0 48 -31 99 -70 355 -265
737 -466 1095 -574 358 -108 734 -114 1055 -16 179 55 412 194 569 341 368
342 631 937 730 1650 l7 46 107 22 c383 81 747 228 1020 411 137 91 320 260
406 374 434 577 383 1349 -145 2192 l-90 144 117 127 c494 540 794 1068 906
1593 19 90 22 137 23 325 0 246 -9 307 -71 495 -221 664 -945 1121 -2028 1280
-77 11 -140 21 -141 23 -1 1 -10 54 -19 117 -107 721 -386 1323 -766 1658
-337 296 -753 427 -1205 381z m403 -287 c326 -71 613 -245 829 -505 253 -304
432 -708 532 -1202 16 -77 28 -141 26 -143 -1 -1 -78 2 -171 8 -93 5 -188 10
-211 10 -38 0 -43 3 -43 23 0 38 -55 140 -100 185 -24 23 -68 54 -99 70 -50
24 -67 27 -156 27 -87 0 -107 -3 -156 -26 -103 -49 -187 -144 -219 -248 l-18
-56 -78 -7 c-174 -17 -439 -51 -612 -79 -101 -16 -185 -29 -187 -29 -2 0 -64
75 -138 168 -332 414 -670 762 -1019 1050 -71 58 -128 108 -128 112 0 9 198
151 310 222 394 251 736 383 1145 442 17 2 113 3 215 1 138 -3 209 -9 278 -23z
m-3328 -207 c129 -23 316 -76 430 -120 197 -76 641 -313 632 -337 -1 -4 -61
-62 -132 -129 l-130 -121 -48 19 c-60 23 -170 23 -237 0 -99 -34 -191 -132
-222 -237 -23 -77 -20 -181 7 -253 l22 -57 -94 -118 c-118 -146 -249 -322
-357 -475 -61 -86 -87 -116 -99 -113 -37 11 -379 57 -562 75 -317 33 -583 44
-897 39 -243 -5 -293 -3 -293 8 0 8 14 80 31 161 197 934 666 1513 1335 1652
143 30 142 29 339 26 115 -2 214 -9 275 -20z m1345 -650 c350 -272 688 -602
1011 -988 68 -81 124 -150 124 -155 0 -4 -73 -22 -163 -41 -354 -74 -784 -190
-1149 -310 l-206 -69 -104 30 c-167 47 -571 144 -743 179 -88 17 -162 33 -163
34 -13 11 462 620 476 613 101 -54 129 -62 212 -63 77 0 92 3 152 33 187 92
260 321 163 513 l-27 54 69 65 c104 99 212 190 226 190 7 0 62 -38 122 -85z
m3280 -1166 c61 -6 113 -14 116 -17 9 -10 28 -211 40 -442 23 -433 -19 -1025
-111 -1562 -15 -94 -31 -172 -34 -175 -2 -3 -84 52 -182 123 -203 145 -457
314 -655 433 l-137 83 -52 101 c-218 419 -530 930 -774 1267 l-76 105 43 8
c83 15 424 56 547 67 69 6 141 12 161 15 35 5 36 4 58 -50 33 -78 99 -148 179
-187 60 -30 75 -33 152 -32 63 0 100 6 143 23 80 32 175 121 213 202 l29 61
115 -6 c63 -4 165 -12 225 -17z m436 -59 c384 -69 771 -204 1042 -363 294
-174 545 -435 661 -688 269 -592 105 -1313 -473 -2073 -100 -132 -281 -346
-292 -346 -4 0 -38 39 -75 87 -109 139 -249 298 -393 446 l-134 137 18 38 c26
54 32 176 11 240 -22 65 -93 145 -160 180 -46 24 -62 27 -151 27 -89 0 -107
-3 -151 -26 l-50 -26 -72 56 c-67 52 -72 58 -66 86 109 581 150 903 175 1375
11 215 6 589 -10 788 -3 45 -4 82 0 82 3 0 57 -9 120 -20z m-2369 -192 c148
-203 259 -367 385 -568 135 -214 343 -575 343 -595 0 -3 -37 15 -82 41 -138
76 -663 335 -827 408 -379 167 -692 289 -1060 413 -155 53 -248 89 -240 94 30
16 478 144 704 200 132 33 337 80 455 104 118 24 216 44 217 44 1 1 48 -63
105 -141z m-3542 38 c174 -16 475 -52 517 -61 20 -5 14 -18 -86 -178 -99 -157
-254 -425 -377 -651 l-49 -88 -195 -112 c-301 -172 -689 -422 -901 -579 -16
-11 -31 -19 -33 -16 -2 2 -14 92 -25 199 -12 107 -23 214 -26 236 l-4 42 46
11 c171 44 284 220 252 395 -26 143 -124 255 -265 301 l-51 16 4 92 c5 112 30
387 35 392 2 2 68 8 148 13 204 14 797 7 1010 -12z m-1343 -98 c-4 -40 -10
-146 -13 -235 l-7 -162 -53 -26 c-124 -61 -204 -203 -191 -342 12 -130 101
-254 222 -309 l54 -25 6 -57 c8 -76 53 -435 61 -493 l6 -45 -123 -99 c-232
-186 -404 -339 -605 -540 -261 -260 -429 -458 -631 -743 l-31 -43 -77 105
c-226 310 -409 672 -489 968 -83 304 -93 567 -30 827 139 583 657 1009 1469
1212 137 34 360 76 409 78 l29 1 -6 -72z m2296 -39 c224 -44 587 -130 587
-139 0 -3 -17 -12 -37 -19 -246 -87 -769 -314 -1065 -462 -109 -55 -201 -99
-204 -99 -19 0 391 681 452 751 17 18 -1 21 267 -32z m1062 -270 c738 -228
1542 -574 2205 -948 l194 -109 88 -184 c165 -345 306 -679 433 -1023 78 -212
205 -598 205 -624 0 -30 -113 -341 -225 -621 -135 -338 -239 -567 -410 -905
l-141 -280 -89 -44 c-715 -351 -1613 -665 -2435 -850 l-174 -39 -155 55 c-357
126 -820 320 -1172 490 l-176 85 -111 206 c-289 538 -538 1111 -741 1705 l-71
208 46 157 c132 460 346 1038 555 1500 76 168 254 529 271 549 17 20 584 301
801 396 252 111 822 338 868 346 3 1 108 -31 234 -70z m-2125 -803 c0 -1 -33
-72 -74 -157 -216 -451 -442 -1026 -588 -1497 -29 -94 -56 -172 -59 -172 -3 0
-10 19 -16 43 -6 23 -38 148 -71 277 -67 259 -117 487 -157 713 -25 143 -26
149 -8 163 189 145 539 380 813 546 132 80 160 95 160 84z m5024 -573 c212
-142 536 -380 536 -394 0 -21 -85 -372 -130 -534 -71 -259 -96 -340 -102 -329
-3 5 -18 47 -33 94 -110 337 -327 879 -489 1223 l-55 118 37 -22 c20 -13 126
-83 236 -156z m-6119 -293 c48 -270 156 -708 257 -1043 l50 -168 -41 -157
c-82 -319 -187 -847 -216 -1094 -4 -32 -11 -58 -16 -58 -10 0 -219 155 -371
276 l-117 93 32 58 c30 54 32 64 32 158 0 87 -3 107 -27 157 -51 110 -155 186
-288 210 -77 15 -162 0 -245 -42 l-60 -30 -68 72 c-38 40 -109 119 -158 176
l-89 102 56 88 c278 431 659 841 1189 1279 33 27 52 37 56 30 4 -7 14 -55 24
-107z m6855 -263 c0 -5 -7 -34 -16 -65 -55 -187 85 -378 292 -398 54 -5 84 0
180 31 18 6 43 -18 162 -147 77 -84 168 -187 203 -228 77 -93 239 -308 239
-319 0 -9 -295 -285 -410 -383 -221 -190 -696 -548 -727 -548 -4 0 -23 75 -42
168 -43 212 -117 514 -183 750 l-51 183 67 217 c91 301 156 539 210 775 l6 27
35 -27 c19 -16 35 -32 35 -36z m-8119 -1357 l147 -156 -17 -29 c-12 -23 -16
-57 -16 -135 0 -101 1 -108 34 -168 55 -102 146 -167 266 -192 71 -15 138 -8
221 21 l62 22 73 -60 c78 -63 340 -259 448 -333 l64 -45 -7 -85 c-4 -47 -11
-130 -17 -185 -14 -150 -22 -782 -12 -925 5 -69 8 -127 6 -129 -6 -8 -224 51
-353 94 -478 162 -811 379 -1034 675 -122 162 -194 312 -244 507 -25 101 -27
121 -27 328 0 176 4 237 18 305 26 118 61 244 96 336 40 110 133 315 140 312
3 -2 72 -73 152 -158z m1708 7 c161 -453 382 -961 624 -1434 46 -90 82 -163
79 -163 -25 0 -564 318 -806 476 l-167 109 6 60 c10 99 55 401 80 540 33 177
118 565 125 565 3 0 29 -69 59 -153z m6041 -101 c41 -167 117 -529 143 -679 4
-26 -2 -33 -77 -81 -198 -128 -734 -436 -758 -436 -4 0 43 102 105 228 163
329 325 702 451 1038 72 193 67 182 76 158 5 -12 31 -115 60 -228z m1611 47
c436 -754 462 -1446 73 -1963 -234 -311 -619 -547 -1127 -690 -82 -23 -150
-40 -153 -38 -2 2 1 53 6 114 5 60 12 209 16 330 l7 221 56 24 c108 45 189
156 199 275 12 155 -95 313 -247 361 -29 10 -55 22 -56 28 -2 5 -15 102 -29
215 -15 113 -29 224 -33 246 l-5 42 108 73 c346 232 697 506 979 766 117 108
131 118 142 102 7 -9 36 -57 64 -106z m-1431 -947 c0 -8 9 -88 20 -178 11 -90
22 -179 24 -199 4 -35 2 -37 -46 -60 -56 -26 -132 -103 -154 -155 -74 -176 4
-375 179 -457 l57 -28 0 -57 c-1 -168 -36 -620 -50 -642 -9 -15 -197 -45 -413
-67 -212 -21 -804 -24 -1032 -5 -180 15 -396 40 -402 46 -2 2 41 65 96 140
203 277 418 608 603 930 l108 189 218 114 c241 127 487 265 662 372 63 39 118
71 123 71 4 0 7 -6 7 -14z m-6282 -319 c215 -134 447 -268 700 -402 l192 -102
129 -214 c70 -118 164 -270 209 -339 90 -138 90 -137 1 -139 -35 -1 -37 0 -58
58 -25 69 -85 137 -152 173 -38 20 -58 23 -144 23 -92 0 -104 -2 -153 -30 -68
-37 -135 -111 -158 -173 -9 -26 -20 -50 -23 -54 -18 -22 -738 53 -761 79 -11
12 -29 253 -36 488 -6 190 6 582 23 723 l6 52 26 -17 c14 -9 104 -66 199 -126z
m4947 -499 c-146 -244 -346 -542 -514 -765 l-149 -200 -149 24 c-339 54 -773
152 -1147 259 -180 52 -205 60 -195 67 2 1 74 20 159 41 552 138 1194 355
1743 590 135 58 267 116 294 129 26 14 50 23 52 21 2 -2 -40 -77 -94 -166z
m-3762 -144 c161 -82 711 -313 951 -399 68 -25 76 -30 55 -36 -78 -25 -708
-104 -720 -91 -30 34 -349 532 -349 545 0 11 7 9 63 -19z m1555 -603 c453
-139 851 -237 1261 -311 90 -17 167 -32 169 -35 3 -3 -3 -15 -14 -28 -11 -12
-48 -54 -82 -94 l-63 -71 -57 20 c-74 26 -177 21 -242 -11 -61 -31 -126 -96
-158 -156 -36 -70 -43 -197 -14 -271 l19 -52 -99 -88 c-186 -165 -509 -414
-536 -414 -14 0 -214 170 -377 320 -291 269 -661 691 -935 1067 l-31 42 33 5
c18 3 118 17 222 31 179 25 524 83 611 104 22 5 46 9 53 10 8 1 116 -30 240
-68z m-2738 -96 c139 -15 435 -35 512 -35 35 0 39 -4 62 -48 29 -58 92 -117
155 -145 35 -16 66 -22 126 -22 71 0 88 4 147 33 72 35 124 87 158 158 l21 42
120 7 c66 4 121 6 123 4 1 -2 49 -69 107 -149 347 -483 792 -974 1203 -1328
21 -18 37 -34 35 -36 -24 -18 -217 -121 -321 -170 -213 -102 -416 -169 -628
-208 -154 -28 -440 -31 -580 -5 -640 119 -1113 635 -1339 1461 -34 123 -65
264 -96 439 -4 27 -3 28 23 23 15 -3 92 -12 172 -21z m4605 -304 c350 -39 475
-46 865 -45 367 0 482 7 759 41 l54 6 -7 -49 c-4 -27 -25 -121 -46 -209 -216
-896 -697 -1439 -1375 -1550 -120 -20 -370 -19 -499 1 -306 47 -622 166 -941
352 -96 56 -335 214 -335 221 1 3 38 34 83 68 111 83 257 206 391 328 l111
101 55 -25 c45 -21 70 -26 135 -26 96 0 158 24 223 88 108 104 136 272 68 407
l-23 46 35 39 c19 22 70 84 114 139 80 97 81 98 117 92 20 -3 117 -14 216 -25z"/>
</g>
</svg>
