<?xml version="1.0" standalone="no"?>
<!DOCTYPE svg PUBLIC "-//W3C//DTD SVG 20010904//EN"
 "http://www.w3.org/TR/2001/REC-SVG-20010904/DTD/svg10.dtd">
<svg version="1.0" xmlns="http://www.w3.org/2000/svg"
 width="1120.000000pt" height="1280.000000pt" viewBox="0 0 1120.000000 1280.000000"
 preserveAspectRatio="xMidYMid meet">
<metadata>
Created by potrace 1.15, written by Peter Selinger 2001-2017
</metadata>
<g transform="translate(0.000000,1280.000000) scale(0.100000,-0.100000)"
fill="#000000" stroke="none">
<path d="M5940 12793 c-19 -2 -107 -14 -195 -27 -88 -14 -198 -27 -245 -31
-47 -3 -132 -14 -190 -25 -58 -10 -130 -22 -160 -26 -84 -10 -262 -58 -388
-103 -63 -23 -158 -52 -212 -65 -54 -14 -129 -40 -167 -59 -37 -19 -86 -40
-108 -47 -65 -21 -319 -145 -334 -163 -7 -10 -32 -26 -55 -37 -22 -11 -55 -30
-72 -43 -18 -12 -47 -31 -65 -42 -170 -102 -181 -109 -354 -238 -39 -29 -96
-65 -127 -81 -31 -16 -69 -42 -84 -57 -15 -16 -32 -29 -36 -29 -12 0 -198
-145 -274 -213 -139 -123 -260 -279 -334 -431 -56 -114 -78 -204 -110 -452
-10 -83 -27 -170 -36 -193 -19 -47 -45 -64 -159 -101 -70 -23 -86 -36 -139
-110 -22 -30 -27 -56 -41 -190 -16 -153 -40 -292 -54 -319 -5 -7 -65 -33 -135
-57 -86 -29 -180 -72 -288 -131 -139 -76 -174 -100 -257 -179 -103 -98 -163
-177 -241 -315 -67 -120 -82 -168 -88 -286 -4 -87 -2 -110 16 -155 34 -89 35
-94 10 -118 -13 -12 -120 -86 -239 -165 -144 -96 -229 -146 -255 -151 -22 -3
-45 -11 -53 -17 -7 -6 -23 -16 -35 -22 -43 -21 -180 -267 -230 -411 -19 -54
-46 -128 -61 -164 -30 -70 -106 -363 -130 -500 -27 -156 -16 -497 21 -630 20
-72 88 -223 124 -275 16 -23 60 -75 99 -117 l71 -76 0 -318 c0 -176 -5 -384
-11 -464 -10 -125 -10 -161 5 -265 22 -155 35 -200 103 -348 63 -137 92 -184
173 -277 31 -36 67 -79 79 -97 26 -35 26 -51 -7 -202 -26 -115 -40 -441 -44
-966 -2 -317 -1 -369 15 -435 10 -41 25 -113 33 -160 18 -101 51 -217 64 -225
6 -3 10 -13 10 -22 0 -40 51 -114 152 -220 86 -89 108 -117 101 -131 -11 -23
-5 -358 8 -451 6 -41 23 -109 39 -150 15 -42 31 -96 35 -120 4 -24 20 -72 35
-105 15 -34 42 -106 60 -161 18 -55 43 -114 56 -132 13 -17 37 -55 52 -85 47
-87 100 -170 130 -201 50 -53 257 -203 358 -260 121 -68 193 -92 336 -112 60
-8 119 -20 129 -26 29 -15 157 -5 264 20 92 21 184 63 244 110 19 14 53 40 76
56 52 36 159 151 205 220 18 28 48 67 66 88 18 21 35 51 39 65 3 15 19 45 35
68 17 24 57 124 98 245 68 200 101 281 122 294 6 4 26 37 45 75 19 38 39 71
45 75 6 3 20 25 31 48 12 23 41 65 65 93 55 66 87 129 114 227 30 110 52 138
141 187 42 23 100 61 130 86 30 24 59 44 64 44 13 0 119 108 179 183 58 73 96
147 135 266 16 51 42 108 56 127 26 33 65 131 65 163 1 21 61 84 131 138 73
56 232 244 292 346 52 87 174 350 200 432 9 28 24 84 32 125 8 41 31 122 50
180 19 58 46 164 60 235 90 450 217 729 463 1015 29 34 56 76 59 92 3 17 23
48 44 70 37 39 40 40 86 33 200 -29 1773 -417 1928 -476 121 -45 231 -79 257
-79 18 0 200 97 289 154 31 20 105 58 166 85 60 27 132 64 159 84 27 19 81 48
119 63 39 15 85 38 103 51 17 13 56 32 86 43 64 22 116 46 256 122 58 31 137
66 175 76 39 11 99 34 135 51 36 17 103 40 149 51 47 12 97 28 113 36 65 34
339 125 421 140 84 15 89 18 111 53 31 48 43 57 96 71 25 6 64 18 88 26 23 8
66 14 95 14 80 0 440 103 465 133 6 7 22 80 37 162 14 83 32 184 40 225 12 61
14 136 9 395 -4 224 -2 342 7 395 6 41 13 100 16 130 l4 55 -64 66 c-35 36
-97 113 -137 170 -40 57 -101 140 -135 184 -34 44 -65 89 -68 100 -4 11 -27
45 -53 75 -25 30 -63 89 -84 130 -21 41 -70 115 -109 163 -39 49 -83 112 -97
140 -15 29 -46 73 -70 99 -24 26 -44 54 -44 61 0 8 -24 41 -52 73 -94 105
-124 147 -188 259 -34 61 -75 124 -90 140 -15 17 -40 54 -55 83 -14 30 -44 73
-65 96 -22 24 -60 80 -86 127 -25 46 -61 102 -79 124 -18 22 -45 65 -60 95
-15 30 -40 69 -55 85 -60 65 -139 171 -145 195 -3 14 -19 44 -36 67 -42 60
-63 123 -47 139 7 7 65 26 128 42 l115 29 27 79 c14 43 36 131 48 194 11 63
27 144 35 180 18 80 19 187 3 337 l-12 115 -115 110 c-63 60 -185 163 -271
228 -85 65 -167 131 -181 146 -34 37 -99 136 -99 149 0 6 -14 24 -31 41 -17
16 -39 45 -49 64 -27 51 -300 316 -407 394 -99 72 -350 216 -423 242 -25 9
-74 30 -110 47 -50 23 -85 31 -152 36 -75 5 -91 10 -115 32 -40 38 -66 49
-115 49 -59 0 -304 36 -377 55 -33 8 -127 20 -208 25 -82 6 -177 14 -213 20
-36 5 -96 10 -135 10 -38 0 -101 7 -140 15 -53 11 -134 15 -340 13 -148 0
-286 -3 -305 -5z m969 -978 c225 -18 293 -27 451 -62 118 -26 229 -73 264
-112 20 -22 20 -22 -13 -99 -18 -42 -39 -98 -47 -123 -13 -41 -20 -49 -62 -67
-78 -33 -265 -89 -390 -117 -64 -15 -169 -39 -232 -55 -63 -16 -153 -36 -200
-44 -111 -21 -467 -63 -595 -71 -55 -3 -176 -13 -270 -21 l-170 -16 -125 26
c-69 14 -165 36 -215 49 l-90 23 -17 52 c-10 28 -21 69 -24 91 l-6 39 83 62
c46 33 109 81 140 106 51 41 278 156 374 189 22 7 89 32 149 54 115 43 337 90
435 92 31 1 67 5 81 9 42 13 274 11 479 -5z m-4689 -2510 c26 -14 168 -157
211 -213 20 -25 43 -38 109 -60 65 -21 88 -33 97 -52 9 -18 13 -89 13 -245 l0
-219 -37 -38 -37 -38 28 -29 28 -29 -11 -153 c-24 -364 -126 -1006 -196 -1236
-50 -163 -62 -253 -44 -318 12 -40 19 -51 39 -53 13 -2 33 -10 44 -17 12 -7
48 -19 81 -25 33 -7 103 -30 155 -51 52 -21 123 -42 157 -48 35 -5 86 -21 114
-35 28 -15 81 -32 117 -40 63 -13 142 -46 557 -236 94 -43 195 -83 225 -90 62
-14 106 -34 135 -61 11 -10 56 -32 101 -49 45 -17 92 -42 104 -55 17 -18 34
-25 59 -25 43 0 128 -38 158 -71 24 -26 107 -196 119 -242 8 -33 63 -89 119
-122 123 -72 302 -43 506 81 69 42 69 42 199 -18 83 -38 90 -43 90 -70 0 -16
-15 -66 -33 -111 -19 -45 -39 -102 -46 -126 -7 -25 -19 -54 -26 -65 -7 -12
-43 -77 -80 -146 -37 -69 -84 -146 -106 -172 -21 -25 -44 -58 -50 -72 -7 -14
-15 -26 -19 -26 -3 0 -33 35 -65 77 -112 146 -122 151 -295 160 -122 6 -169
-6 -287 -76 -125 -73 -199 -165 -262 -330 -22 -59 -25 -80 -24 -196 1 -143 15
-222 60 -327 30 -72 106 -168 157 -199 59 -36 279 -21 414 27 98 35 106 31 98
-52 -9 -86 -33 -147 -88 -225 -25 -35 -77 -119 -115 -187 -61 -110 -159 -251
-174 -252 -3 0 -15 63 -26 140 -20 136 -21 141 -63 195 -23 30 -68 72 -100 94
-32 21 -73 55 -90 75 l-32 36 -102 0 c-155 0 -227 -31 -332 -142 -95 -100
-128 -203 -122 -378 3 -97 6 -109 37 -165 40 -72 101 -153 158 -211 48 -49
152 -109 205 -118 41 -7 50 -22 41 -69 -14 -77 -76 -160 -150 -204 -57 -33
-60 -29 -106 107 -53 157 -117 285 -182 363 -16 19 -43 54 -60 77 -128 179
-400 302 -574 260 -118 -28 -170 -104 -217 -315 -24 -113 -26 -132 -21 -321
l4 -202 44 -118 c56 -150 100 -202 227 -267 110 -56 190 -83 317 -105 l100
-17 3 -32 c2 -24 -3 -37 -19 -50 -13 -10 -42 -37 -66 -60 -23 -24 -46 -43 -51
-43 -20 0 -62 -50 -62 -75 0 -25 -8 -31 -65 -49 -15 -4 -45 10 -103 48 -150
97 -361 149 -518 127 -111 -15 -145 -26 -201 -66 -26 -19 -61 -43 -78 -52 -68
-41 -139 -126 -180 -218 -38 -86 -40 -95 -40 -190 0 -121 19 -184 75 -248 50
-57 146 -119 235 -152 39 -15 105 -42 148 -62 79 -35 125 -40 182 -19 21 8 -4
-15 -130 -120 -54 -45 -95 -69 -152 -90 -73 -27 -87 -29 -218 -28 -185 2 -229
16 -369 119 -139 102 -318 290 -404 423 -43 67 -58 116 -68 232 -3 41 -12 82
-19 90 -9 11 -10 32 -3 85 17 126 8 115 92 115 169 0 322 38 456 113 134 75
361 321 400 434 6 17 17 34 24 36 7 3 23 37 36 76 41 128 19 307 -46 376 -11
11 -38 47 -60 80 -56 82 -171 161 -250 171 -168 21 -503 -112 -642 -256 -79
-81 -174 -206 -209 -273 l-25 -51 -19 36 c-36 70 -68 185 -85 303 -22 158 -15
391 16 515 12 47 24 132 27 190 7 132 -12 384 -38 515 -11 55 -21 125 -22 155
l-2 55 170 1 c189 1 190 1 345 79 154 77 358 264 382 349 6 23 22 75 36 116
21 66 24 87 19 166 -9 126 -34 191 -106 264 -52 53 -65 60 -152 88 -137 44
-216 56 -338 49 -125 -6 -192 -27 -288 -90 -118 -76 -172 -138 -235 -267 -31
-63 -64 -133 -73 -155 l-16 -40 -16 30 c-9 16 -27 38 -39 48 -13 10 -24 23
-24 30 0 6 -9 20 -20 32 -31 32 -71 152 -81 241 -7 68 -5 103 11 201 22 125
70 526 70 579 0 38 12 44 83 44 81 1 201 26 259 54 29 14 78 36 108 50 110 51
197 109 273 184 148 146 206 265 227 463 17 169 -6 259 -86 328 -54 48 -88 61
-223 86 -111 21 -139 22 -230 15 -158 -14 -283 -50 -428 -124 -77 -39 -150
-117 -204 -220 -18 -34 -36 -63 -41 -64 -5 -2 -15 -19 -23 -38 -19 -46 -40
-43 -58 9 -89 249 -118 380 -119 532 -1 73 5 111 31 200 18 61 41 129 51 151
35 80 123 219 178 282 123 140 338 280 495 322 67 18 93 31 178 96 114 86 104
85 218 16 41 -25 84 -46 95 -48 12 -2 57 -11 101 -20 68 -14 91 -15 155 -5 93
14 192 59 216 98 10 15 28 39 40 53 27 31 44 89 44 154 0 42 -5 55 -37 93
-104 121 -137 145 -249 178 -66 20 -119 29 -206 32 -65 3 -118 7 -118 9 0 17
136 398 153 428 18 31 45 52 141 106 65 38 124 66 131 64 6 -3 38 5 71 17 32
13 77 26 99 30 55 10 194 0 225 -16z m-1036 -2615 c24 -23 51 -56 61 -75 9
-19 29 -42 45 -50 62 -32 65 -84 13 -186 -44 -86 -110 -144 -237 -211 -80 -43
-82 -43 -186 -43 -108 0 -193 19 -225 52 -19 18 -20 82 -2 108 7 11 19 40 26
65 19 67 50 116 149 230 88 103 89 104 163 126 114 34 141 32 193 -16z m3619
-2052 c10 -5 25 -24 34 -41 8 -18 21 -44 29 -60 35 -63 -14 -170 -131 -289
l-56 -58 -74 0 c-92 0 -103 4 -111 44 -8 45 11 173 37 240 23 64 116 172 152
178 31 5 98 -3 120 -14z m-639 -1300 c27 -96 58 -250 53 -270 -9 -35 -52 -78
-78 -78 -29 0 -116 65 -134 101 -34 65 -8 205 46 243 28 19 108 22 113 4z
m-925 -569 c106 -79 131 -109 192 -233 l59 -119 0 -105 0 -105 -49 6 c-75 9
-198 65 -253 117 -43 41 -50 53 -69 129 -20 81 -21 85 -4 185 18 110 37 166
56 166 7 0 37 -19 68 -41z m-1404 -343 c67 -31 141 -99 155 -140 22 -68 -14
-160 -109 -278 -107 -132 -177 -173 -296 -173 -90 0 -122 14 -155 67 -18 29
-18 32 1 97 10 36 34 111 54 166 19 55 35 108 35 117 0 47 39 82 159 145 56
29 93 29 156 -1z m999 -986 c44 -21 84 -74 113 -148 22 -58 13 -71 -73 -101
-79 -28 -229 -36 -256 -13 -10 8 -18 40 -23 93 -6 75 -5 83 16 105 12 13 43
30 68 39 25 9 55 22 65 30 26 20 42 19 90 -5z"/>
</g>
</svg>
