<?xml version="1.0" standalone="no"?>
<!DOCTYPE svg PUBLIC "-//W3C//DTD SVG 20010904//EN"
 "http://www.w3.org/TR/2001/REC-SVG-20010904/DTD/svg10.dtd">
<svg version="1.0" xmlns="http://www.w3.org/2000/svg"
 width="1065.000000pt" height="1280.000000pt" viewBox="0 0 1065.000000 1280.000000"
 preserveAspectRatio="xMidYMid meet">
<metadata>
Created by potrace 1.15, written by Peter Selinger 2001-2017
</metadata>
<g transform="translate(0.000000,1280.000000) scale(0.100000,-0.100000)"
fill="#000000" stroke="none">
<path d="M4960 12613 c-1129 -49 -2200 -249 -3321 -619 -158 -52 -291 -100
-296 -107 -19 -24 -162 -535 -262 -932 -532 -2121 -745 -4016 -605 -5385 92
-903 328 -1586 714 -2069 232 -290 961 -916 2090 -1796 568 -442 1402 -1075
1965 -1490 149 -109 275 -202 281 -207 7 -5 139 87 350 243 2173 1612 3660
2817 4003 3244 692 860 912 2405 655 4585 -128 1085 -395 2399 -718 3529 l-82
285 -39 12 c-22 7 -137 41 -255 77 -1224 369 -2362 575 -3470 627 -190 9 -835
11 -1010 3z"/>
</g>
</svg>
