<?xml version="1.0" standalone="no"?>
<!DOCTYPE svg PUBLIC "-//W3C//DTD SVG 20010904//EN"
 "http://www.w3.org/TR/2001/REC-SVG-20010904/DTD/svg10.dtd">
<svg version="1.0" xmlns="http://www.w3.org/2000/svg"
 width="985.000000pt" height="1280.000000pt" viewBox="0 0 985.000000 1280.000000"
 preserveAspectRatio="xMidYMid meet">
<metadata>
Created by potrace 1.15, written by Peter Selinger 2001-2017
</metadata>
<g transform="translate(0.000000,1280.000000) scale(0.100000,-0.100000)"
fill="#000000" stroke="none">
<path d="M12 12788 c-15 -15 -17 -7368 -2 -7633 66 -1138 401 -1882 1100
-2444 221 -178 416 -305 950 -618 206 -121 456 -270 555 -331 108 -67 324
-185 540 -293 415 -209 539 -278 722 -400 381 -254 683 -556 952 -949 42 -63
85 -116 93 -118 11 -2 45 40 103 123 274 398 569 691 948 944 183 122 307 191
722 400 216 108 432 226 540 293 99 61 349 210 555 331 535 314 728 440 950
618 633 509 968 1173 1074 2129 36 316 37 485 34 4239 -3 3444 -4 3705 -20
3714 -13 9 -33 -5 -110 -78 -399 -380 -1019 -627 -1808 -721 -286 -33 -815
-33 -1105 1 -347 41 -655 120 -935 240 -272 116 -577 296 -845 498 -48 37 -93
67 -100 67 -7 0 -52 -30 -100 -67 -681 -513 -1310 -737 -2145 -761 -269 -8
-555 0 -740 22 -787 93 -1409 341 -1806 719 -51 48 -96 87 -101 87 -5 0 -14
-5 -21 -12z"/>
</g>
</svg>
