<?xml version="1.0" standalone="no"?>
<!DOCTYPE svg PUBLIC "-//W3C//DTD SVG 20010904//EN"
 "http://www.w3.org/TR/2001/REC-SVG-20010904/DTD/svg10.dtd">
<svg version="1.0" xmlns="http://www.w3.org/2000/svg"
 width="991.000000pt" height="1280.000000pt" viewBox="0 0 991.000000 1280.000000"
 preserveAspectRatio="xMidYMid meet">
<metadata>
Created by potrace 1.15, written by Peter Selinger 2001-2017
</metadata>
<g transform="translate(0.000000,1280.000000) scale(0.100000,-0.100000)"
fill="#000000" stroke="none">
<path d="M4615 12720 c-323 -78 -831 -200 -1190 -285 -99 -24 -322 -77 -495
-119 -173 -41 -524 -125 -780 -186 -256 -61 -661 -158 -900 -215 -239 -57
-615 -147 -835 -200 -219 -52 -403 -95 -407 -95 -5 0 -7 -1259 -5 -2797 3
-3053 -1 -2838 58 -3218 157 -1019 642 -2057 1400 -3000 212 -264 353 -419
619 -686 491 -492 979 -886 1540 -1242 410 -260 922 -522 1285 -658 l53 -20
139 54 c694 271 1328 642 1972 1154 449 358 941 846 1308 1300 798 983 1326
2111 1478 3153 51 351 48 159 52 3163 2 1538 0 2797 -5 2797 -4 0 -188 43
-407 95 -220 53 -596 143 -835 200 -239 57 -644 154 -900 215 -256 61 -607
145 -780 186 -173 42 -398 95 -500 120 -102 24 -250 60 -330 79 -80 19 -370
88 -645 153 -275 66 -513 122 -530 125 -19 4 -146 -22 -360 -73z"/>
</g>
</svg>
