<?xml version="1.0" standalone="no"?>
<!DOCTYPE svg PUBLIC "-//W3C//DTD SVG 20010904//EN"
 "http://www.w3.org/TR/2001/REC-SVG-20010904/DTD/svg10.dtd">
<svg version="1.0" xmlns="http://www.w3.org/2000/svg"
 width="1086.000000pt" height="1280.000000pt" viewBox="0 0 1086.000000 1280.000000"
 preserveAspectRatio="xMidYMid meet">
<metadata>
Created by potrace 1.15, written by Peter Selinger 2001-2017
</metadata>
<g transform="translate(0.000000,1280.000000) scale(0.100000,-0.100000)"
fill="#000000" stroke="none">
<path d="M4104 12789 c-34 -5 -157 -38 -274 -74 -769 -236 -1362 -345 -1868
-345 l-135 0 -48 45 c-26 25 -53 45 -59 45 -21 0 -76 -28 -109 -55 l-33 -29
-137 12 c-75 7 -158 15 -186 18 l-50 6 -220 -284 c-327 -421 -820 -1061 -828
-1075 -4 -6 13 -65 37 -130 210 -567 340 -1102 401 -1653 22 -198 30 -664 16
-865 -50 -676 -239 -1318 -550 -1870 l-63 -110 7 -205 c48 -1577 201 -2275
871 -3973 l106 -267 320 0 319 0 97 -88 c134 -120 337 -286 527 -428 1026
-770 2156 -1300 3088 -1449 105 -16 137 -14 352 30 667 135 1403 439 2142 886
474 287 983 659 1319 966 l92 83 320 0 321 0 101 258 c674 1707 827 2403 875
3982 l7 205 -63 110 c-313 554 -500 1191 -550 1870 -14 201 -6 667 16 865 61
551 191 1086 401 1653 24 65 41 124 37 130 -11 18 -615 801 -842 1092 -234
300 -182 269 -411 244 -177 -19 -767 -19 -935 -1 -464 51 -901 147 -1455 317
-113 35 -232 69 -265 76 -91 20 -316 17 -390 -5 -104 -30 -126 -34 -310 -55
-489 -55 -872 -55 -1355 -1 -96 11 -200 29 -231 40 -112 38 -263 49 -405 29z"/>
</g>
</svg>
