<?xml version="1.0" standalone="no"?>
<!DOCTYPE svg PUBLIC "-//W3C//DTD SVG 20010904//EN"
 "http://www.w3.org/TR/2001/REC-SVG-20010904/DTD/svg10.dtd">
<svg version="1.0" xmlns="http://www.w3.org/2000/svg"
 width="1040.000000pt" height="1280.000000pt" viewBox="0 0 1040.000000 1280.000000"
 preserveAspectRatio="xMidYMid meet">
<metadata>
Created by potrace 1.15, written by Peter Selinger 2001-2017
</metadata>
<g transform="translate(0.000000,1280.000000) scale(0.100000,-0.100000)"
fill="#000000" stroke="none">
<path d="M0 9378 c0 -3429 2 -3604 36 -3958 131 -1366 617 -2631 1378 -3585
274 -344 647 -703 976 -940 706 -510 1493 -799 2380 -876 187 -17 673 -17 860
0 884 76 1673 366 2370 869 343 247 708 598 986 947 761 954 1247 2219 1378
3585 34 354 36 529 36 3958 l0 3422 -5200 0 -5200 0 0 -3422z"/>
</g>
</svg>
