<?xml version="1.0" standalone="no"?>
<!DOCTYPE svg PUBLIC "-//W3C//DTD SVG 20010904//EN"
 "http://www.w3.org/TR/2001/REC-SVG-20010904/DTD/svg10.dtd">
<svg version="1.0" xmlns="http://www.w3.org/2000/svg"
 width="1177.000000pt" height="1280.000000pt" viewBox="0 0 1177.000000 1280.000000"
 preserveAspectRatio="xMidYMid meet">
<metadata>
Created by potrace 1.15, written by Peter Selinger 2001-2017
</metadata>
<g transform="translate(0.000000,1280.000000) scale(0.100000,-0.100000)"
fill="#000000" stroke="none">
<path d="M5550 12793 c-298 -21 -494 -46 -730 -93 -311 -62 -668 -172 -965
-295 -307 -128 -455 -175 -697 -219 -298 -55 -619 -79 -993 -74 l-250 2 -641
-759 -640 -759 19 -80 c29 -125 81 -291 158 -505 152 -421 198 -591 230 -851
17 -138 14 -460 -5 -621 -41 -344 -143 -783 -292 -1264 -61 -194 -105 -324
-356 -1035 -77 -219 -133 -388 -193 -580 -30 -94 -84 -310 -109 -430 -52 -257
-73 -461 -82 -820 -29 -1056 258 -1813 983 -2595 192 -207 315 -314 523 -452
337 -224 780 -427 1325 -609 449 -149 760 -231 1370 -359 463 -98 740 -162
1296 -300 l387 -96 398 100 c508 127 738 180 1209 281 458 97 753 169 1048
255 905 261 1574 575 1988 933 133 114 339 333 486 516 548 685 775 1387 749
2326 -9 359 -30 563 -82 820 -25 120 -79 336 -109 430 -60 192 -116 361 -193
580 -251 711 -295 841 -356 1035 -149 481 -251 920 -292 1264 -21 177 -21 494
1 656 32 238 72 385 211 778 100 281 136 395 168 528 l23 96 -641 759 -641
758 -250 -2 c-374 -5 -695 19 -993 74 -251 46 -429 102 -658 207 -525 242
-1060 360 -1793 397 -187 9 -502 11 -611 3z"/>
</g>
</svg>
