<?xml version="1.0" standalone="no"?>
<!DOCTYPE svg PUBLIC "-//W3C//DTD SVG 20010904//EN"
 "http://www.w3.org/TR/2001/REC-SVG-20010904/DTD/svg10.dtd">
<svg version="1.0" xmlns="http://www.w3.org/2000/svg"
 width="1035.000000pt" height="1280.000000pt" viewBox="0 0 1035.000000 1280.000000"
 preserveAspectRatio="xMidYMid meet">
<metadata>
Created by potrace 1.15, written by Peter Selinger 2001-2017
</metadata>
<g transform="translate(0.000000,1280.000000) scale(0.100000,-0.100000)"
fill="#000000" stroke="none">
<path d="M39 12793 c0 -5 -2 -17 -5 -28 -8 -36 -14 -1436 -25 -5255 -7 -2725
-7 -3775 1 -3855 48 -480 272 -874 630 -1109 92 -61 4518 -2546 4534 -2546 13
0 4394 2456 4506 2526 374 233 610 635 660 1124 11 107 -3 7680 -16 8688 l-6
462 -5139 0 c-2827 0 -5139 -3 -5140 -7z"/>
</g>
</svg>
