<?xml version="1.0" standalone="no"?>
<!DOCTYPE svg PUBLIC "-//W3C//DTD SVG 20010904//EN"
 "http://www.w3.org/TR/2001/REC-SVG-20010904/DTD/svg10.dtd">
<svg version="1.0" xmlns="http://www.w3.org/2000/svg"
 width="1055.000000pt" height="1280.000000pt" viewBox="0 0 1055.000000 1280.000000"
 preserveAspectRatio="xMidYMid meet">
<metadata>
Created by potrace 1.15, written by Peter Selinger 2001-2017
</metadata>
<g transform="translate(0.000000,1280.000000) scale(0.100000,-0.100000)"
fill="#000000" stroke="none">
<path d="M1204 12791 c-16 -7 -24 -25 -33 -73 -15 -79 -143 -644 -261 -1158
-50 -215 -90 -396 -90 -404 0 -8 55 -59 123 -112 230 -183 337 -316 399 -494
46 -135 62 -381 34 -550 -34 -207 -129 -576 -321 -1246 -147 -513 -109 -382
-845 -2844 -126 -420 -160 -605 -189 -1005 -21 -284 -23 -386 -12 -655 20
-484 37 -613 108 -785 252 -615 592 -1046 1138 -1447 353 -259 940 -571 1500
-798 817 -332 1088 -456 1625 -742 129 -69 385 -205 569 -302 l334 -176 146
76 c80 43 353 187 606 322 715 382 896 465 1860 857 574 234 1190 579 1570
881 165 131 443 414 557 567 163 220 312 486 422 754 52 127 62 182 71 398 3
83 13 276 21 431 14 266 13 295 -6 546 -30 399 -44 522 -80 699 -40 193 -34
172 -470 1629 -573 1913 -749 2548 -796 2875 -15 104 -16 139 -6 260 29 354
128 506 540 825 l32 25 -90 390 c-105 454 -185 807 -241 1059 -21 99 -44 185
-50 190 -6 6 -48 10 -97 10 -147 -3 -237 -19 -982 -173 -273 -57 -457 -87
-700 -116 -209 -25 -274 -36 -323 -54 -169 -65 -1971 -108 -2957 -72 -649 23
-875 40 -1026 77 -56 13 -179 33 -275 44 -299 35 -534 76 -964 168 -495 107
-782 149 -841 123z m876 -10787 c0 -2 -13 2 -30 11 -16 9 -30 18 -30 21 0 2
14 -2 30 -11 17 -9 30 -18 30 -21z"/>
</g>
</svg>
