<?xml version="1.0" standalone="no"?>
<!DOCTYPE svg PUBLIC "-//W3C//DTD SVG 20010904//EN"
 "http://www.w3.org/TR/2001/REC-SVG-20010904/DTD/svg10.dtd">
<svg version="1.0" xmlns="http://www.w3.org/2000/svg"
 width="1062.000000pt" height="1280.000000pt" viewBox="0 0 1062.000000 1280.000000"
 preserveAspectRatio="xMidYMid meet">
<metadata>
Created by potrace 1.15, written by Peter Selinger 2001-2017
</metadata>
<g transform="translate(0.000000,1280.000000) scale(0.100000,-0.100000)"
fill="#000000" stroke="none">
<path d="M8694 12757 c-346 -310 -757 -503 -1219 -573 -180 -28 -549 -25 -745
5 -254 39 -500 105 -740 198 -149 58 -424 193 -567 278 l-113 67 -112 -67
c-241 -142 -571 -290 -813 -364 -150 -46 -333 -87 -495 -112 -194 -30 -565
-33 -740 -6 -261 40 -461 102 -685 212 -172 84 -286 157 -433 274 -83 66 -102
86 -97 101 6 19 1 20 -66 20 -71 0 -72 0 -55 -19 11 -12 15 -25 10 -33 -4 -7
-218 -274 -474 -593 -1070 -1332 -1240 -1544 -1240 -1551 0 -4 44 -52 98 -108
438 -455 729 -1136 782 -1831 18 -230 -4 -718 -45 -1042 -66 -516 -164 -879
-490 -1818 -246 -712 -361 -1188 -432 -1800 -24 -208 -24 -586 0 -750 94 -636
375 -1171 863 -1645 429 -417 908 -692 1433 -824 335 -84 598 -113 1296 -141
761 -31 957 -58 1150 -158 136 -71 247 -164 458 -383 l87 -91 87 91 c210 219
321 311 458 383 193 100 389 127 1150 158 698 28 961 57 1296 141 525 132
1004 407 1433 824 488 474 768 1009 863 1645 26 180 24 551 -6 795 -75 621
-179 1039 -469 1880 -209 606 -252 746 -326 1050 -104 427 -155 824 -171 1335
-7 222 5 434 36 615 105 617 374 1177 756 1571 51 53 93 99 93 103 0 4 -174
224 -387 489 -213 265 -607 757 -877 1092 -269 336 -492 614 -496 618 -4 4
-29 -12 -56 -36z"/>
</g>
</svg>
