<?xml version="1.0" standalone="no"?>
<!DOCTYPE svg PUBLIC "-//W3C//DTD SVG 20010904//EN"
 "http://www.w3.org/TR/2001/REC-SVG-20010904/DTD/svg10.dtd">
<svg version="1.0" xmlns="http://www.w3.org/2000/svg"
 width="1093.000000pt" height="1280.000000pt" viewBox="0 0 1093.000000 1280.000000"
 preserveAspectRatio="xMidYMid meet">
<metadata>
Created by potrace 1.15, written by Peter Selinger 2001-2017
</metadata>
<g transform="translate(0.000000,1280.000000) scale(0.100000,-0.100000)"
fill="#000000" stroke="none">
<path d="M0 11440 l0 -1360 339 0 339 0 76 -71 c91 -85 158 -183 237 -344 191
-394 318 -862 336 -1240 10 -213 -26 -480 -108 -794 -58 -226 -121 -411 -314
-931 -198 -530 -245 -666 -315 -899 -190 -636 -243 -1154 -175 -1708 92 -749
369 -1492 741 -1988 373 -498 940 -898 1589 -1122 315 -108 531 -146 1075
-188 431 -33 584 -54 772 -105 166 -46 254 -77 367 -131 198 -94 296 -184 401
-371 94 -167 102 -180 111 -171 4 4 38 62 75 128 36 66 81 141 100 166 120
164 329 279 692 379 188 51 341 72 772 105 544 42 759 80 1076 189 606 208
1161 586 1525 1038 463 575 786 1499 828 2373 24 489 -60 999 -272 1635 -35
107 -143 407 -240 665 -96 259 -198 540 -226 626 -142 435 -211 822 -198 1104
19 379 145 845 336 1240 79 161 146 259 237 344 l76 71 339 0 339 0 0 1360 0
1360 -1085 0 -1085 0 0 -405 0 -405 -1105 0 -1105 0 0 405 0 405 -1085 0
-1085 0 0 -405 0 -405 -1105 0 -1105 0 0 405 0 405 -1085 0 -1085 0 0 -1360z"/>
</g>
</svg>
