<?xml version="1.0" standalone="no"?>
<!DOCTYPE svg PUBLIC "-//W3C//DTD SVG 20010904//EN"
 "http://www.w3.org/TR/2001/REC-SVG-20010904/DTD/svg10.dtd">
<svg version="1.0" xmlns="http://www.w3.org/2000/svg"
 width="997.000000pt" height="1280.000000pt" viewBox="0 0 997.000000 1280.000000"
 preserveAspectRatio="xMidYMid meet">
<metadata>
Created by potrace 1.15, written by Peter Selinger 2001-2017
</metadata>
<g transform="translate(0.000000,1280.000000) scale(0.100000,-0.100000)"
fill="#000000" stroke="none">
<path d="M8150 12791 c-101 -15 -184 -41 -278 -87 -168 -82 -278 -221 -318
-401 -14 -62 -16 -104 -11 -218 9 -181 31 -332 111 -728 91 -459 100 -515 116
-759 14 -214 -3 -492 -45 -763 -3 -16 -14 -91 -26 -165 -47 -309 -134 -739
-239 -1185 -67 -284 -366 -1484 -371 -1490 -2 -2 -53 90 -113 203 -60 114
-198 374 -306 577 -109 204 -241 452 -294 553 -126 239 -406 800 -486 975
l-63 137 28 73 c41 106 137 295 210 413 81 130 156 235 370 514 226 295 320
430 404 580 81 147 107 219 116 320 17 190 -84 406 -254 546 -173 143 -386
230 -591 240 -196 11 -346 -43 -472 -169 -82 -81 -133 -180 -214 -410 -34 -97
-53 -141 -54 -122 -1 67 -21 325 -31 400 -23 178 -59 328 -100 412 -111 231
-372 356 -671 323 -306 -34 -547 -160 -677 -355 -74 -111 -96 -185 -96 -325 0
-106 3 -124 38 -235 60 -185 105 -291 297 -685 303 -623 369 -823 419 -1276
30 -273 34 -241 -33 -339 -198 -291 -561 -756 -1209 -1547 -785 -959 -1070
-1330 -1372 -1788 -562 -851 -888 -1583 -1379 -3095 -187 -573 -358 -1079
-454 -1340 -116 -317 -111 -296 -82 -353 50 -97 306 -330 555 -506 349 -247
689 -392 1140 -484 223 -46 465 -62 530 -34 24 10 55 54 153 216 128 212 393
630 648 1021 684 1047 941 1473 1187 1965 182 364 290 621 413 980 35 102 63
181 63 176 5 -72 84 -476 137 -695 138 -568 308 -1055 798 -2284 286 -719 402
-1017 498 -1287 61 -169 64 -175 102 -196 148 -83 727 -84 1148 -3 l107 21 93
-21 c278 -63 467 -85 713 -85 218 0 310 8 531 49 336 61 653 172 705 245 14
19 23 74 39 230 28 271 86 738 165 1315 68 500 98 730 115 872 5 48 15 126 20
173 63 529 84 853 84 1320 1 632 -32 946 -168 1617 -118 583 -191 887 -436
1823 -260 989 -372 1468 -439 1868 -12 68 -30 174 -40 235 -48 278 -65 447
-65 667 0 277 19 423 114 860 110 505 132 646 133 860 1 127 -2 153 -22 210
-32 90 -80 166 -148 233 -100 98 -192 148 -344 187 -92 24 -301 35 -399 21z"/>
</g>
</svg>
