<?xml version="1.0" standalone="no"?>
<!DOCTYPE svg PUBLIC "-//W3C//DTD SVG 20010904//EN"
 "http://www.w3.org/TR/2001/REC-SVG-20010904/DTD/svg10.dtd">
<svg version="1.0" xmlns="http://www.w3.org/2000/svg"
 width="1280.000000pt" height="993.000000pt" viewBox="0 0 1280.000000 993.000000"
 preserveAspectRatio="xMidYMid meet">
<metadata>
Created by potrace 1.15, written by Peter Selinger 2001-2017
</metadata>
<g transform="translate(0.000000,993.000000) scale(0.100000,-0.100000)"
fill="#000000" stroke="none">
<path d="M7320 9924 c-25 -2 -108 -8 -185 -14 -1017 -79 -1980 -475 -2771
-1140 -393 -330 -805 -793 -1103 -1237 -34 -51 -64 -93 -66 -93 -3 0 -48 21
-100 47 -73 37 -98 45 -104 35 -4 -7 -13 -12 -20 -10 -31 7 -596 -938 -641
-1072 -28 -83 -26 -154 6 -218 44 -88 126 -139 274 -170 l79 -16 6 -46 c32
-245 126 -404 288 -485 38 -19 75 -35 81 -35 14 0 91 -38 141 -71 22 -14 73
-43 113 -64 39 -20 72 -41 72 -45 0 -11 -640 -1554 -648 -1562 -12 -12 -182
-45 -322 -64 -198 -25 -672 -20 -915 10 -71 9 -213 30 -315 48 -239 40 -394
44 -456 11 -65 -35 -117 -103 -169 -221 -248 -564 -403 -1220 -504 -2139 -50
-449 -65 -661 -52 -711 15 -55 62 -108 109 -123 20 -6 44 -18 52 -25 28 -24
203 -101 300 -133 116 -37 235 -66 400 -96 69 -12 153 -35 188 -49 57 -25 73
-27 180 -25 72 1 180 -6 282 -19 638 -82 1303 -44 1808 103 180 52 299 98 467
180 250 122 418 240 616 432 l125 122 52 -19 c80 -31 275 -77 392 -94 167 -24
326 -35 611 -42 l266 -7 19 -36 c52 -97 171 -238 274 -325 185 -156 405 -269
719 -370 430 -139 869 -171 1316 -95 489 82 1035 305 1583 647 l83 52 107 -62
c262 -151 557 -256 857 -305 164 -26 466 -24 598 4 174 38 288 106 342 204 29
53 30 57 30 199 0 143 0 146 31 205 48 92 174 371 204 455 52 142 84 341 105
659 7 94 12 114 52 205 232 522 434 1163 528 1680 69 379 89 597 89 1006 0
361 -12 532 -60 825 -131 800 -439 1525 -917 2159 -584 775 -1406 1361 -2327
1661 -386 125 -890 226 -1350 270 -153 15 -715 28 -820 19z m-3496 -4993 c60
-116 106 -310 106 -452 l0 -57 -97 -89 c-131 -120 -248 -212 -363 -287 -120
-79 -210 -130 -210 -119 0 4 107 262 237 572 l237 563 28 -33 c15 -18 43 -62
62 -98z m71 -1158 c-14 -122 -55 -429 -61 -452 -5 -23 -6 -24 -92 -17 -102 8
-422 41 -570 59 l-104 12 214 107 c233 117 421 222 532 298 39 27 75 49 79 49
5 1 5 -25 2 -56z m-2634 -474 l287 -62 -35 -81 c-57 -131 -158 -393 -193 -500
l-32 -98 -67 6 c-117 12 -394 46 -469 57 -67 11 -72 14 -67 33 65 229 255 706
282 706 4 0 137 -28 294 -61z m958 -154 c139 -24 256 -46 258 -49 3 -3 -46
-128 -108 -279 l-113 -274 -105 -7 c-57 -3 -180 -6 -274 -6 l-170 0 7 39 c12
74 75 278 121 386 47 114 111 235 123 235 4 0 121 -20 261 -45z m821 -140 c63
-9 255 -33 425 -54 l310 -37 -3 -79 c-2 -44 -6 -83 -10 -86 -19 -18 -998 -173
-1048 -167 -20 3 -16 16 67 213 49 116 91 216 94 224 3 8 14 11 28 8 12 -3 74
-13 137 -22z m714 -667 c3 -13 7 -70 11 -128 3 -58 10 -133 16 -168 6 -35 9
-65 6 -68 -3 -3 -155 18 -338 46 -184 28 -453 68 -599 90 -146 22 -282 43
-302 46 -36 5 -48 17 -30 28 4 2 86 12 182 20 215 20 527 65 805 116 256 46
244 45 249 18z m-3028 -246 c88 -22 214 -50 281 -63 75 -15 123 -29 123 -36 0
-6 -7 -42 -16 -79 -38 -168 -94 -517 -109 -684 -3 -41 -9 -83 -11 -92 -4 -12
-43 -30 -127 -57 -110 -36 -383 -111 -402 -111 -9 0 1 360 16 535 19 240 71
625 84 625 1 0 74 -17 161 -38z m1034 -172 c95 -16 174 -31 176 -33 2 -2 -26
-47 -62 -100 -114 -167 -240 -300 -397 -417 -32 -23 -59 -41 -61 -39 -13 13
62 399 105 547 19 62 25 72 44 72 13 0 101 -13 195 -30z m1273 -221 c381 -66
739 -127 797 -135 58 -8 106 -18 108 -23 13 -37 121 -180 187 -247 l82 -83
-56 -54 c-521 -506 -1577 -766 -2545 -626 -77 11 -161 25 -188 30 l-48 11 1
101 c1 170 -3 163 127 250 199 134 304 218 433 347 138 137 239 267 339 438
36 61 66 111 68 111 2 1 314 -53 695 -120z m-2066 -1015 c-3 -3 -12 -4 -19 -1
-8 3 -5 6 6 6 11 1 17 -2 13 -5z"/>
</g>
</svg>
