<?xml version="1.0" standalone="no"?>
<!DOCTYPE svg PUBLIC "-//W3C//DTD SVG 20010904//EN"
 "http://www.w3.org/TR/2001/REC-SVG-20010904/DTD/svg10.dtd">
<svg version="1.0" xmlns="http://www.w3.org/2000/svg"
 width="640.000000pt" height="1280.000000pt" viewBox="0 0 640.000000 1280.000000"
 preserveAspectRatio="xMidYMid meet">
<metadata>
Created by potrace 1.15, written by Peter Selinger 2001-2017
</metadata>
<g transform="translate(0.000000,1280.000000) scale(0.100000,-0.100000)"
fill="#000000" stroke="none">
<path d="M1971 12638 c-138 -522 -350 -996 -676 -1508 -115 -181 -169 -289
-302 -599 -57 -135 -130 -300 -161 -366 l-57 -120 1 -95 c2 -159 78 -363 211
-565 91 -138 177 -207 398 -318 72 -36 140 -75 152 -86 56 -53 72 -118 83
-339 22 -440 97 -663 502 -1497 195 -402 234 -494 371 -875 197 -550 291 -862
422 -1393 46 -188 117 -454 158 -592 163 -546 177 -617 184 -936 6 -279 -5
-428 -42 -576 -58 -230 -168 -371 -370 -471 -80 -40 -369 -158 -605 -247 -359
-136 -541 -226 -784 -383 -285 -186 -453 -276 -570 -306 -31 -8 -111 -20 -179
-26 -214 -19 -302 -45 -501 -148 -173 -89 -213 -164 -166 -314 40 -131 130
-243 361 -448 87 -78 167 -156 178 -173 28 -46 87 -98 156 -139 94 -56 114
-64 215 -89 81 -20 120 -23 265 -23 243 1 400 38 727 170 252 102 297 112 650
149 271 28 311 34 445 70 248 68 409 140 598 270 265 181 371 221 800 301
l200 38 455 1 c505 1 525 3 719 74 328 122 492 290 547 561 24 122 15 522 -16
664 -23 106 -67 213 -121 293 -18 26 -184 201 -370 388 -186 187 -356 363
-377 391 -53 71 -124 211 -160 319 -45 132 -168 597 -202 764 -16 80 -35 191
-41 245 -16 137 -6 386 25 641 19 153 28 300 36 545 6 184 15 405 20 490 16
234 29 1135 19 1316 -13 252 -46 450 -116 694 -79 277 -176 476 -331 680 -66
86 -89 129 -136 256 -35 95 -83 139 -227 213 -62 32 -114 61 -114 63 0 3 28
27 62 55 84 67 135 131 187 235 24 48 145 230 268 405 427 604 576 845 637
1025 28 81 28 118 1 118 -21 0 -167 56 -960 370 -423 167 -756 299 -1490 588
-195 77 -476 188 -624 246 -147 59 -281 109 -296 112 -27 6 -27 6 -59 -118z"/>
</g>
</svg>
