<?xml version="1.0" standalone="no"?>
<!DOCTYPE svg PUBLIC "-//W3C//DTD SVG 20010904//EN"
 "http://www.w3.org/TR/2001/REC-SVG-20010904/DTD/svg10.dtd">
<svg version="1.0" xmlns="http://www.w3.org/2000/svg"
 width="1280.000000pt" height="879.000000pt" viewBox="0 0 1280.000000 879.000000"
 preserveAspectRatio="xMidYMid meet">
<metadata>
Created by potrace 1.15, written by Peter Selinger 2001-2017
</metadata>
<g transform="translate(0.000000,879.000000) scale(0.100000,-0.100000)"
fill="#000000" stroke="none">
<path d="M5200 8783 c-36 -1 -186 -7 -335 -13 -1325 -53 -2431 -146 -3275
-276 -222 -34 -204 -25 -196 -93 40 -355 35 -804 -14 -1238 -38 -343 -67 -508
-225 -1303 -228 -1143 -272 -1496 -262 -2075 6 -369 32 -597 102 -911 23 -102
24 -114 11 -152 -8 -23 -16 -82 -17 -132 l-2 -91 44 -57 c38 -47 200 -184 233
-195 13 -4 -48 -112 -121 -214 -96 -134 -225 -273 -416 -449 -474 -436 -644
-639 -708 -848 -59 -188 33 -331 271 -424 151 -59 300 -86 795 -142 193 -21
447 -50 565 -64 342 -40 565 -51 1640 -77 598 -14 5590 -30 5837 -19 110 6
299 17 420 25 120 8 378 19 573 25 1316 39 1615 71 2028 220 401 143 652 295
652 393 0 35 -53 151 -131 288 -42 75 -132 241 -200 370 -67 129 -225 426
-350 661 -219 410 -228 428 -228 482 0 148 -22 206 -78 206 -49 0 -51 6 -51
160 0 122 -4 160 -26 243 -34 132 -85 225 -171 313 -185 188 -446 274 -832
274 -88 0 -143 4 -143 10 0 16 -78 68 -136 90 -31 11 -137 30 -250 45 -170 22
-207 30 -282 62 -117 49 -158 48 -280 -6 -135 -60 -192 -66 -391 -47 -91 9
-166 18 -167 19 -2 1 1 20 6 42 10 46 -8 100 -37 108 -10 3 -73 11 -139 18
-97 9 -135 9 -188 -1 -59 -11 -69 -11 -85 4 -10 9 -24 16 -32 16 -8 0 -25 7
-37 16 -18 13 -22 25 -22 74 l0 59 -47 28 c-25 15 -108 48 -182 73 -207 71
-261 100 -261 143 0 61 -49 136 -116 178 -17 10 -90 43 -161 72 -71 29 -150
65 -176 80 -61 36 -99 93 -105 157 -4 49 -5 50 -73 90 -75 44 -139 70 -174 70
-37 0 -105 79 -165 192 -35 66 -75 123 -110 159 -50 51 -60 57 -107 62 -66 8
-127 34 -225 99 -67 43 -77 54 -72 73 10 41 -14 102 -54 135 -20 16 -88 52
-151 78 -69 28 -129 61 -153 82 -21 19 -71 85 -111 145 -89 136 -125 164 -226
175 -90 10 -121 29 -121 73 0 92 -69 236 -151 317 l-57 56 -20 140 c-47 313
-64 533 -92 1149 -11 248 -25 513 -30 590 -5 77 -10 152 -10 168 0 30 7 29
-200 20z m-654 -6503 c489 -28 1001 -99 1819 -250 508 -94 1213 -210 1274
-210 12 0 13 -54 8 -357 -8 -451 -30 -677 -66 -687 -27 -8 -188 -25 -330 -36
-163 -12 -885 -12 -1136 0 -99 5 -589 14 -1090 19 -849 10 -1010 15 -1432 48
l-83 6 -10 36 c-41 154 -65 464 -55 721 6 176 30 540 41 637 l6 52 52 6 c208
24 714 31 1002 15z m-2086 -99 l125 -17 29 -74 c37 -97 72 -258 86 -389 19
-195 7 -570 -24 -751 -3 -14 -7 -42 -11 -62 l-6 -38 -177 0 c-274 0 -994 42
-1304 76 l-57 6 16 32 c55 109 186 248 408 432 214 178 298 270 365 404 42 82
57 136 70 240 6 46 16 90 22 98 19 22 88 53 137 62 55 10 153 5 321 -19z
m8857 -204 c72 -112 171 -273 219 -358 140 -246 307 -610 288 -628 -5 -5 -49
-18 -99 -29 -283 -65 -557 -90 -1210 -112 -298 -10 -587 -28 -1120 -70 -379
-30 -572 -40 -771 -40 l-182 0 -11 44 c-27 108 -33 247 -26 626 l6 385 112 7
c708 46 1139 94 1697 189 177 30 768 147 870 173 96 24 82 35 227 -187z"/>
</g>
</svg>
