<?xml version="1.0" standalone="no"?>
<!DOCTYPE svg PUBLIC "-//W3C//DTD SVG 20010904//EN"
 "http://www.w3.org/TR/2001/REC-SVG-20010904/DTD/svg10.dtd">
<svg version="1.0" xmlns="http://www.w3.org/2000/svg"
 width="1280.000000pt" height="640.000000pt" viewBox="0 0 1280.000000 640.000000"
 preserveAspectRatio="xMidYMid meet">
<metadata>
Created by potrace 1.15, written by Peter Selinger 2001-2017
</metadata>
<g transform="translate(0.000000,640.000000) scale(0.100000,-0.100000)"
fill="#000000" stroke="none">
<path d="M3370 6218 c-347 -57 -518 -96 -677 -154 -305 -110 -511 -258 -644
-461 -59 -91 -81 -149 -125 -328 -60 -248 -80 -525 -53 -721 35 -251 154 -478
314 -601 217 -166 500 -246 949 -269 l138 -7 -5 -34 c-3 -18 -19 -50 -36 -71
-30 -37 -217 -223 -303 -299 -43 -39 -46 -44 -41 -81 5 -36 1 -44 -55 -108
-32 -38 -113 -126 -179 -196 l-120 -128 -6 -97 c-4 -54 -7 -179 -7 -279 l0
-181 107 -6 c58 -4 221 -7 362 -8 241 0 255 -1 231 -16 -14 -9 -50 -42 -82
-74 -104 -104 -158 -252 -212 -581 -31 -184 -38 -208 -63 -202 -10 2 -128 10
-263 19 -506 32 -745 57 -951 101 -236 49 -468 138 -581 222 -243 179 -342
508 -298 987 30 327 52 440 102 539 137 269 443 474 739 495 123 8 161 25 193
85 28 56 31 131 11 334 -12 127 -14 193 -7 235 l9 57 -27 0 c-14 0 -75 -7
-136 -15 -856 -114 -1417 -505 -1565 -1091 -152 -602 -108 -1185 126 -1669
130 -270 301 -440 569 -565 247 -116 475 -162 879 -180 122 -5 465 -25 762
-44 1118 -73 1680 -109 3075 -196 1801 -112 1897 -118 2900 -185 1702 -114
3374 -239 3476 -260 78 -16 108 -12 141 18 26 24 23 52 -17 142 -15 33 -52
141 -83 240 -60 194 -92 274 -110 280 -7 2 -111 8 -232 14 -121 6 -398 20
-615 31 -217 11 -710 36 -1094 55 -384 19 -700 36 -701 37 -2 2 4 37 13 78 24
118 22 409 -5 526 -44 188 -123 341 -235 452 l-53 53 490 -5 c270 -4 560 -9
646 -12 l155 -5 123 180 c116 172 159 249 175 316 4 17 56 111 116 210 79 132
116 203 136 268 20 63 33 87 45 87 20 0 741 -57 1385 -109 336 -27 490 -43
510 -54 52 -26 84 -29 111 -11 23 15 25 21 20 64 -3 26 -20 79 -37 116 -18 38
-52 121 -76 184 -90 233 -94 239 -128 244 -17 3 -141 12 -276 21 -483 31
-1136 75 -1173 79 -21 2 -41 7 -44 9 -3 3 13 32 34 64 90 133 113 182 139 285
29 113 36 129 95 221 l40 62 -3 301 -3 301 -3483 8 -3482 7 -83 -79 c-45 -44
-122 -117 -170 -164 -105 -100 -115 -114 -93 -138 9 -10 16 -24 16 -32 0 -20
-182 -198 -285 -278 l-79 -63 -76 6 c-41 4 -181 13 -310 22 -129 8 -262 21
-296 29 -259 60 -434 209 -489 416 -18 68 -40 298 -38 405 3 251 156 484 393
600 116 57 193 76 325 81 131 5 166 13 208 52 44 40 57 104 57 278 l0 153 -27
-1 c-16 -1 -53 -5 -83 -11z m1305 -4053 c668 -6 2583 -32 3045 -40 248 -4 336
-9 339 -18 2 -7 63 -72 136 -145 141 -140 185 -205 185 -271 0 -20 25 -108 55
-197 93 -269 95 -374 9 -410 -32 -13 -50 -14 -113 -5 -42 6 -227 18 -411 26
-184 8 -681 31 -1105 50 -423 19 -970 44 -1215 55 -1185 53 -2016 92 -2029 96
-11 4 -12 22 -7 92 19 233 111 427 284 599 100 99 219 183 252 178 14 -2 273
-7 575 -10z"/>
</g>
</svg>
