<?xml version="1.0" standalone="no"?>
<!DOCTYPE svg PUBLIC "-//W3C//DTD SVG 20010904//EN"
 "http://www.w3.org/TR/2001/REC-SVG-20010904/DTD/svg10.dtd">
<svg version="1.0" xmlns="http://www.w3.org/2000/svg"
 width="1280.000000pt" height="921.000000pt" viewBox="0 0 1280.000000 921.000000"
 preserveAspectRatio="xMidYMid meet">
<metadata>
Created by potrace 1.15, written by Peter Selinger 2001-2017
</metadata>
<g transform="translate(0.000000,921.000000) scale(0.100000,-0.100000)"
fill="#000000" stroke="none">
<path d="M3580 9204 c-631 -55 -972 -140 -1416 -354 -862 -414 -1541 -1139
-1883 -2010 -114 -289 -226 -751 -263 -1085 -17 -155 -17 -584 0 -740 87 -790
394 -1513 899 -2118 612 -732 1374 -1270 2444 -1725 695 -296 1171 -415 1720
-429 l216 -6 33 -66 c172 -351 507 -599 887 -656 675 -102 1300 391 1352 1066
21 263 -40 515 -175 727 -19 29 -34 56 -34 60 0 12 196 158 345 257 157 104
397 225 520 262 80 24 106 27 235 26 l145 0 1029 -477 c1968 -912 2366 -1096
2375 -1096 11 0 186 238 298 405 166 250 239 391 322 630 42 119 174 566 169
570 -2 1 -794 321 -1762 710 l-1759 709 -48 60 c-95 119 -173 300 -234 543
-56 226 -107 605 -125 938 -5 105 -12 221 -14 258 -4 54 -1 78 16 115 17 40
19 60 14 139 -26 414 -244 904 -584 1313 -281 338 -714 706 -1139 967 -1015
625 -2207 991 -3288 1007 -137 2 -270 2 -295 0z"/>
</g>
</svg>
