<?xml version="1.0" standalone="no"?>
<!DOCTYPE svg PUBLIC "-//W3C//DTD SVG 20010904//EN"
 "http://www.w3.org/TR/2001/REC-SVG-20010904/DTD/svg10.dtd">
<svg version="1.0" xmlns="http://www.w3.org/2000/svg"
 width="1057.000000pt" height="1280.000000pt" viewBox="0 0 1057.000000 1280.000000"
 preserveAspectRatio="xMidYMid meet">
<metadata>
Created by potrace 1.15, written by Peter Selinger 2001-2017
</metadata>
<g transform="translate(0.000000,1280.000000) scale(0.100000,-0.100000)"
fill="#000000" stroke="none">
<path d="M5375 12376 c-200 -29 -401 -77 -569 -139 -80 -29 -98 -40 -162 -103
-126 -123 -209 -273 -257 -461 -20 -78 -22 -111 -21 -298 1 -186 4 -225 27
-335 52 -247 138 -504 252 -750 32 -69 68 -156 81 -194 139 -407 33 -908 -248
-1172 -157 -148 -314 -208 -580 -224 -307 -19 -468 -57 -686 -160 -155 -74
-265 -151 -373 -259 -122 -122 -173 -216 -175 -321 -1 -61 -6 -74 -53 -154
-238 -403 -353 -837 -406 -1536 -30 -401 -33 -422 -64 -525 -53 -171 -75 -305
-76 -450 0 -143 12 -195 64 -277 60 -95 200 -130 359 -90 230 59 443 195 662
426 133 141 267 230 392 262 179 46 330 -69 394 -301 24 -88 30 -318 11 -427
-12 -68 -13 -104 -5 -165 12 -96 4 -318 -17 -438 -39 -221 -97 -404 -277 -858
-118 -298 -123 -309 -157 -326 -111 -56 -249 -78 -564 -91 -139 -5 -304 -15
-367 -21 -253 -23 -445 -80 -578 -171 -30 -21 -63 -32 -110 -39 -335 -46 -728
-265 -876 -488 -64 -96 -89 -177 -84 -273 7 -114 46 -189 160 -300 69 -69 93
-100 108 -142 43 -114 139 -240 243 -320 303 -231 768 -263 1471 -101 83 19
180 39 216 45 183 32 448 108 844 244 441 151 675 218 900 256 149 25 195 44
1066 440 741 336 961 431 1005 434 l30 1 0 -75 c-1 -66 -6 -86 -36 -150 -62
-130 -165 -231 -296 -291 -34 -16 -142 -56 -240 -89 -403 -138 -899 -327
-1025 -391 -58 -30 -175 -146 -203 -202 -88 -177 47 -277 373 -277 65 0 162 5
217 10 497 49 1076 61 2350 48 1312 -14 1243 -14 1352 10 349 79 573 306 573
583 0 70 -27 192 -59 269 -42 100 -175 318 -237 388 -241 270 -770 503 -1582
698 -120 29 -161 34 -260 34 -227 0 -422 39 -576 114 -340 166 -465 532 -481
1411 -3 182 -11 434 -17 560 -15 323 -15 390 1 409 19 23 48 20 143 -13 51
-18 114 -31 164 -34 159 -12 326 -82 659 -277 228 -134 371 -206 480 -242 93
-30 281 -33 362 -5 59 21 187 101 219 138 l21 24 -22 130 c-64 372 -170 694
-457 1385 -74 179 -161 392 -193 474 -48 126 -83 193 -222 425 -246 412 -338
539 -501 692 -107 100 -219 170 -339 211 -82 28 -102 31 -288 38 -120 5 -231
14 -278 24 -249 54 -500 191 -647 354 -221 245 -210 530 29 757 280 266 334
333 429 520 201 397 243 907 123 1503 -11 53 -25 129 -31 169 -36 222 -198
379 -466 450 -90 23 -119 26 -314 29 -137 2 -248 -2 -305 -10z"/>
</g>
</svg>
