<?xml version="1.0" standalone="no"?>
<!DOCTYPE svg PUBLIC "-//W3C//DTD SVG 20010904//EN"
 "http://www.w3.org/TR/2001/REC-SVG-20010904/DTD/svg10.dtd">
<svg version="1.0" xmlns="http://www.w3.org/2000/svg"
 width="1280.000000pt" height="1202.000000pt" viewBox="0 0 1280.000000 1202.000000"
 preserveAspectRatio="xMidYMid meet">
<metadata>
Created by potrace 1.15, written by Peter Selinger 2001-2017
</metadata>
<g transform="translate(0.000000,1202.000000) scale(0.100000,-0.100000)"
fill="#000000" stroke="none">
<path d="M10720 11993 c-38 -18 -82 -25 -236 -38 -224 -18 -324 -31 -419 -52
-107 -24 -372 -150 -434 -206 -13 -12 -40 -47 -59 -77 -52 -81 -114 -151 -191
-215 -38 -31 -78 -74 -90 -96 -20 -34 -27 -39 -59 -39 l-37 -1 29 -23 c23 -19
27 -29 22 -49 -12 -51 -102 -91 -281 -127 -60 -12 -147 -33 -192 -46 -92 -27
-458 -185 -633 -274 -63 -32 -164 -82 -224 -111 -74 -35 -125 -68 -159 -100
-48 -47 -50 -49 -43 -91 10 -60 56 -139 96 -163 18 -11 65 -52 104 -92 42 -42
90 -80 117 -92 101 -45 418 -72 512 -44 20 6 37 9 37 6 0 -9 -71 -96 -94 -116
-35 -30 -87 -54 -186 -86 -104 -33 -178 -35 -209 -7 -17 16 -41 22 -41 11 0
-4 7 -19 15 -35 14 -26 14 -33 1 -57 -8 -16 -26 -39 -41 -53 -37 -34 -65 -93
-67 -137 -2 -53 27 -73 108 -73 56 0 64 -2 64 -19 0 -24 35 -68 69 -85 37 -20
213 -39 275 -31 28 4 80 18 116 32 168 63 207 74 283 84 81 10 434 74 471 86
18 5 19 0 13 -123 -16 -310 -118 -606 -257 -744 -160 -161 -415 -217 -860
-192 -202 12 -247 10 -390 -18 -95 -19 -323 -14 -552 11 -201 21 -224 22 -356
10 -84 -8 -177 -11 -229 -7 -137 11 -417 53 -658 99 -219 42 -221 42 -455 42
-155 1 -257 6 -300 14 -105 22 -186 0 -505 -135 -123 -52 -173 -51 -317 4
-270 105 -319 122 -400 146 -47 14 -115 30 -150 36 -62 11 -193 53 -393 124
-55 19 -138 41 -185 49 -47 7 -95 19 -108 26 -13 7 -60 46 -105 88 -57 52
-107 88 -162 115 -49 23 -117 70 -175 119 -53 45 -133 100 -180 124 -103 54
-250 182 -395 345 -147 164 -170 202 -179 289 -3 39 -13 90 -22 114 -38 100
-39 112 -21 204 9 48 19 107 23 130 3 26 28 79 62 135 48 80 56 100 58 148 2
51 5 58 47 95 24 22 83 63 130 90 48 28 126 72 173 100 94 54 174 119 174 140
0 40 -240 68 -393 45 -100 -14 -257 -63 -289 -90 l-23 -19 65 -2 c36 -1 79 -4
95 -8 27 -6 21 -10 -60 -35 -348 -106 -371 -115 -345 -131 6 -3 53 -1 106 5
53 6 98 10 100 7 2 -2 -40 -21 -94 -42 -126 -49 -171 -72 -202 -101 -14 -13
-86 -50 -159 -83 -131 -59 -160 -75 -150 -85 3 -3 52 10 109 28 168 54 172 51
36 -24 -148 -81 -238 -139 -244 -158 -4 -14 37 1 186 68 51 23 96 39 99 36 4
-3 -59 -72 -139 -154 -136 -138 -188 -204 -170 -216 4 -2 32 11 62 30 60 38
81 42 100 19 11 -14 6 -23 -33 -63 -38 -39 -107 -160 -107 -188 0 -4 23 -4 50
0 28 4 50 4 50 1 0 -12 -19 -42 -94 -148 -69 -99 -117 -200 -102 -215 4 -3 55
42 114 100 108 107 146 136 156 119 4 -5 -35 -63 -86 -128 -109 -140 -132
-178 -124 -199 6 -16 16 -16 90 2 37 9 46 -6 46 -78 0 -75 11 -75 96 2 42 38
75 60 90 60 13 0 24 -2 24 -4 0 -2 -18 -43 -39 -92 -22 -49 -45 -117 -52 -152
-16 -83 -9 -90 67 -74 31 6 61 9 66 5 25 -15 -13 -176 -66 -280 -50 -99 -33
-97 81 7 48 44 93 80 99 80 15 0 -7 -69 -93 -285 -69 -171 -77 -201 -62 -210
14 -9 48 24 126 123 99 127 118 90 37 -75 -52 -107 -81 -211 -89 -320 l-6 -78
23 30 c13 17 45 52 73 80 36 36 51 45 53 34 2 -9 -29 -106 -68 -215 -69 -196
-79 -234 -60 -234 5 0 55 53 112 119 57 65 104 116 105 112 1 -3 4 -23 8 -44
5 -30 12 -40 40 -52 40 -16 40 -17 19 -97 -25 -98 -13 -93 89 35 41 51 82 99
92 107 17 14 18 12 11 -40 -29 -237 -29 -347 -1 -370 17 -14 29 -1 90 106 47
83 137 194 156 194 14 0 11 -38 -12 -149 -42 -207 -11 -210 91 -6 41 82 81
151 87 153 18 5 33 -41 33 -104 0 -30 4 -54 9 -54 4 0 20 9 35 21 l26 20 0
-71 c0 -63 2 -71 16 -66 18 7 54 -19 54 -38 0 -6 9 -31 20 -55 17 -36 23 -41
35 -31 8 6 23 35 34 63 10 29 24 64 30 79 l10 28 36 -24 c45 -31 107 -42 145
-26 23 9 36 28 59 85 17 41 31 78 31 82 0 5 6 18 14 29 13 16 13 10 1 -46 -19
-85 -19 -201 -2 -225 17 -22 18 -19 47 70 26 82 43 117 66 140 28 27 34 0 27
-114 -4 -74 -3 -102 5 -97 6 3 38 55 72 115 66 116 150 213 150 174 0 -11 -6
-39 -14 -61 -8 -22 -12 -43 -9 -46 3 -3 37 23 74 59 108 101 201 145 247 116
9 -6 -15 -28 -82 -76 -198 -140 -353 -313 -441 -490 -46 -94 -166 -427 -341
-950 -58 -170 -112 -321 -121 -335 -10 -14 -20 -50 -24 -80 -3 -30 -27 -135
-53 -232 -91 -351 -91 -354 -88 -844 2 -350 0 -452 -13 -535 -22 -150 -60
-275 -121 -396 -30 -59 -51 -109 -49 -112 3 -2 28 19 55 49 27 30 52 51 55 48
9 -9 -23 -96 -81 -218 -91 -189 -336 -644 -356 -658 -23 -17 -48 -65 -48 -93
0 -36 -62 -140 -122 -205 -62 -66 -144 -115 -223 -135 -89 -21 -162 -67 -211
-131 -25 -33 -61 -73 -80 -91 -20 -17 -64 -65 -98 -108 -78 -97 -107 -122
-191 -159 -87 -39 -129 -73 -208 -168 -136 -164 -296 -419 -430 -688 -101
-202 -141 -304 -203 -524 -90 -320 -156 -474 -236 -552 -27 -26 -46 -52 -43
-58 10 -16 71 -12 125 9 27 11 50 18 50 16 0 -1 -7 -19 -15 -39 -13 -32 -14
-37 -1 -42 17 -7 47 8 99 48 36 29 37 29 29 6 -41 -109 -9 -105 105 14 111
117 185 188 195 188 14 0 -11 -50 -77 -152 -36 -56 -65 -105 -65 -110 0 -41
121 52 172 131 l28 45 0 -33 c0 -18 -5 -53 -11 -78 -14 -53 -5 -64 45 -53 67
15 165 84 283 198 29 28 53 48 53 45 0 -3 -16 -53 -35 -110 -35 -104 -43 -153
-26 -153 13 0 27 20 81 116 l50 89 0 -70 c0 -80 7 -115 24 -115 6 0 30 22 54
50 25 29 48 47 56 44 18 -7 58 46 95 127 l30 64 1 -95 c0 -94 10 -135 28 -115
5 6 19 37 32 70 13 33 29 67 37 75 13 13 17 11 35 -15 47 -66 216 -205 249
-205 5 0 21 18 35 40 31 46 58 58 83 36 27 -25 53 -19 83 16 l26 33 56 -53
c69 -66 92 -68 108 -8 l12 45 43 -40 c54 -49 91 -53 99 -9 6 29 7 29 35 15 34
-18 52 -12 102 32 20 18 44 33 52 33 9 0 35 -20 59 -45 54 -55 88 -60 113 -16
l17 29 37 -30 c45 -36 72 -34 79 7 4 20 11 29 21 26 8 -2 33 -6 56 -8 39 -5
42 -4 49 22 10 40 -24 150 -63 203 -18 26 -41 61 -51 77 -25 45 -124 140 -168
164 l-39 20 32 1 c49 0 91 51 108 128 9 41 17 33 40 -38 37 -114 67 -129 86
-45 7 31 16 58 21 61 4 3 21 -11 38 -30 62 -70 112 -17 144 157 l19 97 27 -43
c33 -52 81 -94 138 -119 87 -39 114 -7 133 159 6 54 13 109 15 122 5 23 5 23
25 5 32 -29 42 -52 59 -137 8 -43 20 -79 25 -80 17 -3 45 68 74 185 l28 113
18 -34 c9 -19 20 -60 22 -93 16 -173 109 -53 199 256 25 88 57 185 71 215 l25
56 24 -65 c47 -127 67 -176 93 -220 l26 -45 6 180 c6 177 21 255 48 255 11 0
26 -44 41 -125 18 -98 20 -106 30 -100 4 3 16 29 26 58 9 28 59 149 110 267
127 297 199 521 205 640 3 55 17 -84 18 -181 0 -48 8 -105 16 -129 52 -146
-16 -318 -263 -670 -21 -30 -45 -92 -72 -185 -23 -77 -59 -196 -82 -265 -49
-154 -50 -187 -3 -366 37 -142 43 -209 24 -263 -6 -18 -9 -34 -6 -37 11 -11
104 95 136 155 18 34 35 60 37 58 6 -6 -12 -146 -21 -169 -13 -32 13 -19 47
24 18 23 44 62 58 87 16 29 38 52 60 63 19 10 42 27 52 38 9 11 18 20 21 20 5
0 -9 -86 -22 -129 -6 -19 -8 -37 -6 -40 3 -2 21 11 40 29 l35 34 0 -32 c0 -42
12 -40 51 8 48 59 59 53 59 -29 0 -86 6 -101 37 -101 31 0 68 26 154 106 36
34 76 67 89 74 22 12 23 11 16 -21 -16 -75 -19 -136 -6 -144 17 -11 64 38 128
135 l57 85 5 -65 c5 -68 13 -90 33 -90 7 0 43 23 81 50 73 53 106 63 106 30 0
-30 22 -70 38 -70 8 0 32 18 52 40 20 22 41 40 47 40 5 0 23 -20 41 -45 61
-86 123 -79 191 23 l36 53 10 -31 c21 -62 59 -58 97 10 13 22 26 40 29 40 16
0 19 -53 5 -75 -8 -12 -12 -25 -9 -29 23 -22 147 15 226 68 l52 35 3 -28 3
-28 113 -2 c112 -2 114 -1 120 22 13 52 -56 235 -122 323 -45 62 -96 96 -186
125 -69 23 -81 30 -87 54 -10 36 3 66 42 99 l33 28 23 -28 c13 -16 37 -55 53
-86 17 -32 35 -58 39 -58 5 0 10 62 13 138 7 185 28 226 69 132 12 -27 27 -54
35 -61 16 -13 20 0 33 115 11 94 32 129 80 134 26 3 34 -1 38 -17 3 -12 9 -21
13 -21 15 0 20 32 14 79 -5 36 -2 50 10 60 9 7 16 10 16 7 0 -4 9 -2 20 4 28
15 38 44 65 190 39 213 80 360 104 374 5 3 14 -7 21 -23 13 -32 47 -68 56 -59
3 4 -5 47 -17 97 l-22 91 26 50 c21 40 24 56 17 76 -19 49 -4 243 20 267 11
12 72 -18 105 -53 64 -66 73 -16 20 105 -19 44 -35 81 -35 82 0 12 28 -7 95
-64 85 -73 89 -70 46 35 l-21 52 25 -6 c34 -8 33 10 -6 71 -50 79 -69 175 -76
380 -6 184 11 569 27 609 5 11 9 16 9 9 1 -7 32 -21 70 -33 l70 -21 3 -41 c3
-35 8 -45 36 -61 56 -33 172 -67 249 -74 40 -3 73 -8 73 -10 0 -3 -10 -13 -22
-23 -18 -14 -20 -21 -11 -30 9 -9 31 -10 95 -1 160 21 166 19 99 -30 -76 -55
-39 -71 79 -34 45 15 84 24 88 21 3 -4 -7 -19 -21 -34 -15 -16 -27 -32 -27
-36 0 -5 39 -6 88 -2 48 4 100 8 116 9 27 2 31 -2 37 -33 12 -56 50 -460 45
-469 -10 -16 22 -137 51 -196 43 -85 49 -110 77 -302 14 -95 32 -186 40 -202
21 -40 20 -70 -9 -271 -29 -202 -30 -240 -9 -386 21 -147 22 -455 0 -589 -40
-256 -116 -444 -242 -605 -24 -30 -39 -57 -33 -58 24 -9 161 99 210 164 18 24
34 42 37 40 7 -8 -108 -220 -148 -274 -22 -28 -35 -54 -29 -57 22 -14 119 70
202 175 l27 35 -6 -30 c-3 -16 -23 -66 -44 -109 -22 -44 -38 -81 -37 -83 6 -5
89 53 146 102 72 61 180 104 212 84 15 -9 20 -2 -95 -133 -94 -109 -110 -132
-101 -146 9 -15 58 13 140 79 38 31 79 64 91 73 21 17 21 15 -7 -72 -31 -95
-35 -125 -19 -135 13 -8 81 28 174 92 69 49 78 53 73 32 -51 -188 -20 -217 85
-80 29 38 58 76 63 86 7 12 8 -7 1 -64 -12 -99 -1 -155 30 -159 28 -4 56 34
82 112 21 64 22 64 46 -10 20 -61 79 -134 95 -119 7 7 5 34 -9 90 -11 44 -20
85 -20 90 1 16 36 -34 85 -117 62 -106 70 -108 62 -16 -4 41 -10 83 -13 93 -4
10 16 -1 50 -29 76 -62 86 -61 86 12 1 31 7 71 14 87 12 30 13 30 24 8 7 -12
24 -54 38 -95 14 -40 30 -77 35 -83 17 -17 29 16 29 80 l1 60 54 -57 c30 -32
57 -58 61 -58 3 0 4 16 2 35 -5 40 0 42 44 19 31 -16 31 -16 24 8 -19 67 -36
151 -32 155 2 3 14 -13 25 -36 23 -44 136 -169 145 -161 3 3 -3 33 -13 65 -43
140 -43 140 55 39 84 -87 172 -154 201 -154 29 0 10 59 -58 176 -39 67 -69
130 -67 140 3 19 49 -10 228 -148 98 -75 130 -92 130 -65 0 6 -38 57 -85 111
-46 54 -82 103 -79 107 5 9 102 -23 229 -76 129 -55 173 -67 196 -55 10 6 37
35 60 65 25 33 49 55 60 55 31 0 60 -57 58 -115 -1 -72 -1 -73 21 -85 39 -21
89 7 189 104 91 89 94 90 87 56 -16 -83 -19 -160 -6 -175 12 -14 15 -14 35 5
12 11 33 44 46 72 l24 52 5 -55 c4 -46 8 -54 25 -54 15 0 34 27 80 115 36 68
67 116 77 118 33 6 64 -103 69 -240 1 -32 6 -58 10 -58 11 0 38 89 47 155 l7
59 38 -61 c38 -62 109 -133 166 -166 37 -22 39 -12 7 51 -22 44 -59 153 -53
158 1 1 47 -34 102 -77 55 -44 104 -77 110 -76 15 6 8 31 -46 160 -53 127 -82
231 -77 281 3 31 3 31 47 -33 24 -35 67 -86 95 -113 67 -64 323 -263 339 -263
26 0 18 56 -30 215 -2 8 35 -25 82 -75 l87 -90 -6 49 c-3 27 -12 62 -20 77 -8
16 -13 29 -11 29 3 0 39 -23 81 -50 42 -28 83 -50 90 -50 8 0 -12 35 -46 81
-33 45 -75 107 -93 138 -36 62 -80 161 -75 167 6 5 288 -334 300 -362 30 -64
31 15 2 98 l-13 37 48 -34 c27 -19 63 -38 81 -42 33 -6 33 -6 -41 83 -113 136
-211 274 -195 274 2 0 36 -18 75 -41 38 -22 87 -42 108 -45 l38 -6 -30 27
c-16 15 -45 40 -62 55 -35 30 -42 57 -18 66 8 4 45 1 81 -5 37 -7 69 -9 72 -6
3 3 -46 58 -109 123 -122 123 -159 170 -159 196 0 14 5 14 40 -4 41 -21 70
-26 70 -12 0 5 -27 40 -60 78 -81 92 -154 201 -178 266 -21 55 -67 348 -56
348 2 0 29 -42 60 -93 52 -84 106 -159 151 -213 23 -27 72 -59 79 -51 3 3 -14
42 -39 86 -55 97 -92 187 -112 272 -16 69 -20 129 -7 129 4 0 22 -25 40 -55
18 -30 38 -55 43 -55 16 0 5 64 -65 370 -35 151 -62 277 -60 279 2 2 20 -11
40 -28 59 -52 60 -26 3 105 -49 115 -99 281 -99 331 l0 24 26 -20 c52 -41 64
-22 43 69 -6 25 -14 65 -19 90 -5 25 -15 72 -24 105 -23 89 -20 92 29 31 45
-55 154 -151 162 -142 2 2 -30 70 -71 150 -84 164 -126 282 -126 357 0 46 2
50 23 47 35 -5 33 48 -9 207 -55 210 -73 297 -95 440 -21 145 -37 465 -23 465
5 0 17 -14 27 -31 9 -17 23 -29 29 -27 22 8 27 70 18 208 -13 187 -15 177 16
140 15 -17 30 -28 35 -23 4 4 1 86 -7 181 -8 96 -14 178 -12 183 2 4 31 -47
65 -114 73 -142 75 -139 42 85 -29 204 -63 365 -114 540 -25 84 -45 172 -45
196 0 24 -6 55 -14 70 -13 27 -40 191 -32 200 7 6 70 -131 116 -249 l41 -104
-5 82 c-11 179 -97 475 -206 713 -67 145 -104 273 -115 391 l-7 74 53 -77 c30
-42 79 -103 109 -135 60 -64 160 -147 167 -139 3 3 -9 31 -27 63 -69 127 -124
286 -150 437 -15 88 -14 89 36 51 66 -51 120 -81 196 -109 77 -29 226 -68 240
-64 6 2 -25 30 -68 63 -217 162 -393 397 -475 632 l-18 53 79 -64 c81 -66 248
-171 257 -162 3 3 -8 21 -25 40 -69 79 -144 212 -183 323 -31 92 -25 98 39 31
89 -95 278 -228 323 -228 6 0 -11 26 -38 58 -115 135 -218 293 -319 487 -116
224 -181 414 -199 575 l-7 65 68 -113 c72 -120 191 -283 211 -289 8 -3 6 13
-7 49 -10 30 -22 79 -26 109 l-6 54 80 -85 c68 -73 142 -133 142 -116 0 3 -17
33 -37 68 -62 106 -253 514 -253 541 0 5 19 -8 43 -30 47 -43 135 -99 143 -90
3 3 -14 32 -38 65 -25 32 -63 95 -85 138 -43 84 -107 254 -95 254 4 0 26 -26
49 -58 91 -126 239 -262 272 -250 6 1 -17 48 -51 103 -184 303 -267 547 -348
1026 -61 358 -89 443 -158 478 -37 19 -39 21 -60 120 -51 238 -161 421 -335
561 -31 24 -55 45 -54 46 1 1 26 -2 55 -7 31 -6 64 -7 79 -2 23 8 18 13 -68
52 -128 58 -230 123 -311 197 -105 96 -140 107 -372 108 -177 2 -191 1 -236
-21z"/>
</g>
</svg>
