<?xml version="1.0" standalone="no"?>
<!DOCTYPE svg PUBLIC "-//W3C//DTD SVG 20010904//EN"
 "http://www.w3.org/TR/2001/REC-SVG-20010904/DTD/svg10.dtd">
<svg version="1.0" xmlns="http://www.w3.org/2000/svg"
 width="905.000000pt" height="1280.000000pt" viewBox="0 0 905.000000 1280.000000"
 preserveAspectRatio="xMidYMid meet">
<metadata>
Created by potrace 1.15, written by Peter Selinger 2001-2017
</metadata>
<g transform="translate(0.000000,1280.000000) scale(0.100000,-0.100000)"
fill="#000000" stroke="none">
<path d="M547 12719 c-142 -142 -185 -296 -141 -507 43 -211 176 -456 462
-854 226 -316 345 -502 421 -662 41 -85 114 -287 106 -294 -11 -11 -132 135
-315 378 -317 420 -590 603 -939 629 l-94 7 -18 -30 c-82 -135 19 -504 198
-725 37 -46 85 -105 106 -132 43 -55 93 -88 210 -133 210 -83 275 -145 357
-340 58 -140 100 -200 165 -237 48 -27 50 -31 63 -91 7 -35 13 -70 15 -78 1
-9 -18 -21 -56 -35 -32 -12 -55 -24 -51 -28 11 -10 54 -8 94 6 l35 12 53 -85
c30 -47 82 -124 117 -171 l62 -86 8 -99 c12 -179 62 -422 131 -652 l25 -83
-32 -50 c-32 -50 -32 -51 -16 -85 10 -19 17 -44 17 -55 0 -28 17 -58 55 -99
32 -35 33 -36 44 -185 21 -295 24 -476 10 -705 -8 -124 -14 -263 -13 -310 l0
-85 98 -185 c146 -274 218 -362 348 -418 76 -33 290 -250 581 -590 93 -108
135 -142 228 -184 26 -11 27 -15 33 -122 12 -196 26 -345 61 -631 67 -551 74
-722 38 -975 -18 -122 -19 -165 -12 -435 12 -435 11 -1008 -1 -1143 -32 -349
-86 -573 -213 -882 -68 -168 -94 -255 -108 -361 -18 -145 -66 -204 -329 -409
-221 -171 -265 -220 -290 -320 -18 -71 -4 -95 67 -115 43 -13 62 -14 75 -6 12
7 99 11 249 11 l231 0 79 80 c43 44 95 104 113 133 41 62 70 157 62 199 -5 24
0 38 22 67 77 99 242 399 270 491 53 173 67 299 87 780 17 415 23 470 70 705
62 308 99 565 111 780 9 152 86 502 173 780 13 42 21 105 25 205 3 80 19 291
35 470 17 179 33 387 37 462 l7 138 31 5 c17 3 86 14 153 25 67 11 223 41 345
66 144 29 234 43 256 39 70 -13 123 -84 183 -248 17 -45 41 -101 55 -124 17
-30 24 -57 24 -95 1 -125 32 -294 130 -698 96 -394 100 -424 103 -661 3 -173
6 -213 23 -264 28 -81 122 -245 336 -584 263 -415 358 -586 434 -776 15 -38
55 -130 89 -204 l63 -134 -31 -51 c-16 -28 -69 -132 -118 -231 -122 -250 -158
-294 -496 -597 -180 -162 -296 -316 -323 -428 -19 -78 -10 -95 58 -117 45 -14
89 -18 212 -17 139 0 164 3 243 27 48 15 103 27 123 27 76 0 135 105 195 349
l33 134 56 35 c146 93 128 66 177 256 41 159 49 186 56 175 1 -2 24 -69 50
-149 27 -80 73 -196 103 -257 32 -68 54 -126 54 -146 0 -50 -35 -148 -101
-284 -74 -153 -87 -198 -71 -250 36 -113 140 -186 284 -198 107 -9 163 5 259
61 67 39 79 51 98 93 65 152 62 342 -10 589 -47 163 -234 693 -267 759 -17 32
-60 110 -97 173 -37 63 -68 120 -68 125 0 6 48 81 106 167 122 180 216 361
312 603 96 241 143 330 402 770 356 603 432 784 460 1094 4 47 0 62 -33 129
-55 113 -140 191 -379 351 -231 155 -352 266 -400 365 -94 194 12 710 180 877
l46 47 137 21 c167 26 306 41 390 41 l62 0 0 -32 c0 -54 35 -183 99 -367 66
-187 91 -281 91 -339 0 -26 9 -48 29 -72 74 -90 117 -194 216 -518 40 -130 93
-297 119 -371 102 -297 166 -610 196 -965 9 -108 9 -132 -3 -143 -25 -25 6
-126 57 -187 62 -73 72 -98 92 -226 14 -92 18 -178 18 -435 1 -478 -21 -670
-140 -1225 -60 -278 -80 -360 -126 -493 -27 -78 -36 -94 -90 -145 -128 -122
-254 -354 -293 -538 -17 -83 -14 -87 84 -133 92 -42 212 -73 291 -73 80 -1
217 33 330 81 l85 36 0 40 c-1 22 -6 101 -13 175 -22 236 5 329 131 446 119
110 131 143 72 204 l-34 35 -11 651 c-18 1004 6 1476 96 1963 61 328 62 340
44 490 -17 134 -62 288 -170 586 -167 460 -210 637 -210 866 0 168 16 246 145
717 170 621 210 855 202 1167 -4 159 -9 206 -30 290 -47 185 -120 324 -237
448 -102 109 -203 182 -369 266 -168 85 -212 123 -390 336 -218 261 -263 298
-449 374 -959 394 -2153 383 -3118 -29 -238 -102 -518 -273 -854 -522 -467
-345 -551 -406 -672 -488 -72 -50 -135 -90 -139 -90 -23 0 -129 375 -129 456
0 28 14 72 45 137 54 116 100 265 166 537 61 249 110 432 118 442 4 4 33 -3
66 -17 61 -25 119 -32 129 -16 3 5 -13 14 -37 19 -46 12 -137 66 -137 81 0 39
48 127 102 187 59 67 118 174 132 239 5 24 23 41 83 80 232 151 428 316 468
394 27 53 100 484 111 658 9 131 -7 206 -51 250 -41 41 -73 42 -151 8 -86 -38
-178 -109 -294 -225 -243 -243 -466 -574 -565 -840 -29 -77 -50 -108 -96 -140
l-26 -19 18 53 c10 29 34 138 54 241 76 400 124 574 228 825 114 274 167 480
181 710 7 108 -6 266 -29 355 -38 149 -127 265 -230 304 -74 28 -80 27 -57
-11 85 -137 124 -260 128 -403 2 -60 6 -131 10 -156 4 -30 0 -65 -10 -99 -13
-45 -14 -64 -5 -113 10 -49 9 -68 -6 -122 -15 -56 -24 -71 -66 -105 -48 -41
-48 -41 -42 -90 l6 -50 -47 -19 -46 -20 0 -58 c0 -70 -3 -74 -58 -102 l-43
-22 3 -56 c3 -47 0 -58 -17 -67 -49 -28 -75 -64 -75 -105 0 -34 -5 -44 -34
-66 -35 -27 -56 -69 -56 -113 0 -17 -15 -38 -45 -65 -42 -37 -45 -44 -45 -89
0 -41 -5 -53 -35 -85 -31 -33 -35 -43 -35 -90 0 -47 -4 -58 -36 -93 -37 -41
-40 -58 -19 -112 6 -16 2 -15 -41 4 -94 42 -328 32 -424 -17 l-30 -16 0 69 c0
66 -2 71 -40 114 -47 54 -60 85 -60 144 0 41 -4 49 -60 102 -51 50 -60 64 -60
94 0 54 -7 65 -71 109 -49 33 -60 46 -70 82 -13 52 -32 74 -85 98 -32 15 -46
31 -65 72 -20 43 -33 57 -75 79 -37 20 -55 37 -63 60 -26 70 -37 83 -88 108
-54 26 -67 43 -78 103 -8 41 -26 60 -78 82 -41 17 -61 49 -72 113 -7 42 -21
60 -88 115 -21 16 -31 36 -38 71 -6 35 -20 61 -49 92 -33 36 -40 51 -40 86 -1
27 -12 65 -30 103 -26 51 -30 71 -30 140 0 94 19 176 61 259 16 33 27 61 24
64 -2 3 -38 -28 -78 -69z m4806 -6866 c3 -10 8 -34 11 -54 4 -20 20 -55 36
-78 17 -22 30 -53 30 -68 1 -41 30 -98 98 -190 68 -91 92 -133 92 -161 0 -12
21 -33 58 -57 76 -51 244 -220 321 -325 35 -46 80 -118 101 -160 75 -148 136
-213 395 -411 158 -121 254 -220 294 -301 47 -96 51 -188 17 -416 -14 -96 -26
-186 -26 -201 0 -16 -17 -49 -41 -81 -65 -87 -201 -374 -249 -525 -7 -22 -54
-141 -105 -265 -51 -124 -106 -260 -121 -302 -16 -43 -31 -78 -34 -78 -9 1
-219 325 -248 385 -115 233 -226 602 -312 1031 -22 111 -74 406 -115 656 -41
250 -87 513 -101 584 -34 175 -51 356 -59 629 l-6 230 -50 57 c-27 31 -49 60
-49 64 0 10 41 54 51 54 4 0 10 -8 12 -17z m-3168 -5713 c7 0 15 -11 17 -25 5
-23 2 -25 -34 -25 -33 0 -39 3 -34 16 3 9 6 22 6 31 0 10 6 13 16 9 9 -3 21
-6 29 -6z"/>
</g>
</svg>
