<?xml version="1.0" standalone="no"?>
<!DOCTYPE svg PUBLIC "-//W3C//DTD SVG 20010904//EN"
 "http://www.w3.org/TR/2001/REC-SVG-20010904/DTD/svg10.dtd">
<svg version="1.0" xmlns="http://www.w3.org/2000/svg"
 width="1280.000000pt" height="668.000000pt" viewBox="0 0 1280.000000 668.000000"
 preserveAspectRatio="xMidYMid meet">
<metadata>
Created by potrace 1.15, written by Peter Selinger 2001-2017
</metadata>
<g transform="translate(0.000000,668.000000) scale(0.100000,-0.100000)"
fill="#000000" stroke="none">
<path d="M2654 6666 c-38 -17 -49 -33 -46 -66 2 -15 -9 -44 -27 -70 -28 -41
-40 -88 -25 -103 9 -8 123 114 130 141 7 27 30 28 79 5 50 -24 100 -124 92
-184 -5 -35 -19 -54 -119 -152 -62 -62 -147 -159 -188 -216 -41 -57 -114 -155
-161 -220 -47 -64 -98 -142 -113 -174 -37 -78 -337 -382 -486 -493 -317 -235
-544 -463 -997 -1000 -220 -262 -221 -262 -324 -455 -56 -106 -124 -240 -150
-298 -26 -58 -68 -142 -93 -186 -25 -44 -51 -96 -57 -115 -7 -19 -23 -49 -36
-66 -59 -78 -96 -215 -112 -419 -21 -249 -22 -275 -13 -275 5 0 19 30 32 67
37 115 97 228 149 285 39 43 64 60 113 78 35 12 142 62 238 110 279 139 408
169 593 137 131 -24 191 -60 317 -191 58 -61 136 -142 174 -180 65 -66 70 -75
72 -118 2 -49 29 -119 64 -168 l21 -30 30 55 c16 30 29 65 29 77 0 20 33 39
255 146 360 173 550 232 749 232 71 0 87 -4 132 -29 117 -68 200 -195 295
-451 47 -129 109 -262 138 -300 19 -23 20 -24 39 -7 13 12 21 36 25 73 7 66
42 130 91 168 20 15 93 54 163 87 70 33 144 72 163 87 34 26 40 27 155 27 95
-1 137 -6 203 -24 l84 -24 208 -206 c233 -232 315 -334 397 -499 l56 -113 31
53 c25 44 30 63 29 111 -1 53 1 59 24 68 13 5 40 9 59 9 20 0 45 6 57 12 13 8
91 15 192 20 94 4 224 10 290 14 130 6 243 -8 366 -46 l67 -20 217 -290 c120
-160 240 -311 268 -335 27 -25 114 -88 194 -140 79 -53 171 -122 204 -153 l59
-58 0 -74 c0 -152 50 -281 123 -325 53 -31 87 -33 87 -6 0 12 -15 28 -39 42
-22 12 -47 36 -56 54 -20 36 -15 51 38 119 28 35 33 38 70 33 43 -6 87 -40 87
-69 0 -12 7 -18 24 -18 35 0 40 14 21 65 -21 54 -15 72 28 90 40 16 70 11 113
-22 36 -27 71 -29 140 -8 108 33 114 30 301 -122 297 -241 531 -446 656 -574
45 -46 60 -48 83 -14 16 25 16 30 -10 113 -58 190 -76 345 -76 643 0 196 0
197 -24 212 -15 10 -34 44 -51 87 -15 39 -35 75 -46 80 -21 12 -25 50 -9 80
11 21 67 40 116 40 23 0 39 -10 67 -41 29 -32 41 -39 59 -34 20 6 78 62 77 75
0 3 -31 28 -69 55 -76 55 -84 74 -49 119 16 20 29 26 59 26 33 0 49 -8 101
-55 l62 -55 77 0 c72 0 80 2 109 29 17 16 31 34 31 39 0 18 -85 52 -129 52
-45 0 -121 43 -141 80 -15 29 -12 65 8 83 26 23 33 22 87 -19 l47 -37 24 29
c38 46 39 63 8 95 -44 46 -108 72 -182 74 -61 1 -69 4 -110 40 -46 40 -72 86
-72 130 0 41 48 124 104 180 68 68 157 117 302 164 132 43 164 68 164 125 0
70 154 169 314 201 44 9 177 20 305 25 124 5 264 12 311 16 142 10 279 -34
383 -126 l47 -42 20 24 c28 33 36 69 18 82 -21 15 -40 54 -33 66 4 6 8 42 10
82 5 80 9 87 95 181 74 80 148 127 203 127 26 0 52 10 80 28 59 41 91 49 226
62 106 11 123 10 143 -4 14 -10 43 -16 78 -16 34 0 64 -6 78 -16 42 -29 55 0
21 48 -16 22 -19 32 -10 41 8 8 5 16 -13 32 l-25 20 10 175 c5 96 14 205 20
242 14 90 59 163 123 203 l49 30 176 3 c196 4 418 -10 561 -34 79 -13 266 -68
333 -98 12 -6 17 -4 17 8 0 9 -22 27 -52 42 -36 18 -93 66 -178 153 -69 69
-170 163 -225 207 -119 97 -242 211 -567 523 -272 262 -440 407 -597 513 -58
40 -136 97 -172 128 -86 72 -201 154 -319 228 -88 55 -190 113 -590 335 -245
136 -481 292 -610 405 l-35 31 64 58 c43 39 76 60 100 65 20 3 52 9 73 13 32
7 38 4 54 -20 18 -27 17 -29 -4 -68 -27 -49 -23 -56 13 -25 17 15 32 43 41 78
12 47 12 57 -2 77 -22 35 -75 57 -116 49 -19 -3 -79 -33 -134 -66 -54 -33
-116 -65 -136 -70 -57 -16 -90 -51 -143 -151 -32 -60 -60 -99 -81 -112 -24
-16 -36 -36 -54 -90 -12 -38 -72 -171 -134 -296 -62 -124 -118 -242 -126 -261
-7 -19 -23 -46 -35 -60 -13 -14 -32 -43 -43 -65 -40 -77 -308 -292 -654 -523
-156 -104 -165 -107 -264 -64 -56 23 -64 30 -59 48 4 18 -2 25 -35 38 -22 9
-54 16 -70 16 -23 0 -30 5 -30 19 0 10 -9 29 -19 42 -18 22 -26 24 -120 24
-101 0 -101 0 -132 32 -40 44 -63 48 -133 23 -62 -21 -115 -26 -131 -11 -6 4
-32 14 -60 22 -54 14 -115 68 -229 204 -92 110 -99 131 -107 333 -7 167 -8
175 -38 237 -30 59 -35 65 -64 65 -25 0 -42 11 -87 59 -37 39 -78 70 -125 93
-39 20 -129 71 -200 114 -140 84 -258 139 -281 130 -11 -4 -14 -27 -14 -94 0
-166 41 -266 221 -538 65 -99 119 -185 119 -191 0 -14 -61 -23 -82 -11 -12 6
-28 4 -48 -7 -16 -8 -62 -27 -101 -41 -57 -21 -77 -24 -95 -15 -22 10 -24 17
-24 79 0 75 -7 89 -79 165 -96 101 -202 159 -486 263 -226 83 -220 82 -239 52
-14 -22 -14 -31 9 -117 47 -173 123 -337 216 -462 62 -84 187 -203 264 -253
l60 -39 -3 -106 c-4 -138 -18 -208 -45 -229 -12 -10 -37 -32 -55 -50 -33 -31
-34 -36 -29 -81 3 -27 18 -77 32 -112 35 -84 43 -174 21 -218 -19 -36 -67 -61
-116 -61 -17 0 -40 -5 -52 -11 -34 -18 -79 -2 -153 54 -39 29 -131 83 -205
120 -233 115 -414 262 -692 565 -229 248 -477 500 -560 568 -45 37 -79 57
-105 61 -28 5 -58 24 -113 72 -41 36 -140 115 -220 176 -320 242 -434 407
-429 620 l2 79 -44 34 c-59 46 -157 92 -194 92 -16 -1 -44 -7 -61 -14z"/>
</g>
</svg>
