<?xml version="1.0" standalone="no"?>
<!DOCTYPE svg PUBLIC "-//W3C//DTD SVG 20010904//EN"
 "http://www.w3.org/TR/2001/REC-SVG-20010904/DTD/svg10.dtd">
<svg version="1.0" xmlns="http://www.w3.org/2000/svg"
 width="1090.000000pt" height="1280.000000pt" viewBox="0 0 1090.000000 1280.000000"
 preserveAspectRatio="xMidYMid meet">
<metadata>
Created by potrace 1.15, written by Peter Selinger 2001-2017
</metadata>
<g transform="translate(0.000000,1280.000000) scale(0.100000,-0.100000)"
fill="#000000" stroke="none">
<path d="M3937 12703 c-25 -54 -80 -181 -123 -283 -42 -102 -80 -188 -83 -192
-3 -4 -5 75 -3 175 2 100 -1 214 -5 252 -7 65 -10 70 -34 73 -23 3 -28 -5 -63
-85 -141 -325 -377 -578 -586 -628 -36 -8 -173 -33 -305 -55 -275 -46 -416
-79 -530 -123 -107 -40 -261 -115 -365 -177 -47 -28 -128 -64 -180 -81 -82
-26 -281 -65 -417 -82 -42 -5 -43 -5 -37 21 4 15 24 65 45 111 22 46 38 86 36
87 -2 2 -41 -19 -88 -47 -87 -52 -170 -125 -194 -170 -13 -25 -20 -27 -102
-31 l-88 -5 -97 91 c-139 129 -132 128 -125 10 15 -248 121 -488 281 -642 88
-85 166 -119 214 -93 13 7 39 -2 99 -31 68 -34 95 -42 157 -46 104 -6 133 1
221 60 l77 51 67 -20 c36 -11 92 -30 124 -42 34 -13 89 -23 135 -25 57 -3 99
-12 162 -36 74 -29 94 -42 155 -104 50 -51 83 -97 116 -161 47 -91 85 -192 76
-201 -3 -3 -88 0 -188 7 -101 6 -269 9 -372 7 l-188 -5 -50 61 c-67 82 -111
173 -139 287 l-24 94 -28 -90 c-39 -125 -49 -169 -57 -253 l-6 -73 -41 53
c-49 62 -173 202 -183 206 -19 7 40 -381 76 -495 9 -29 14 -55 12 -58 -3 -2
-32 -7 -65 -11 -113 -12 -178 -62 -152 -119 21 -46 120 -95 298 -149 182 -54
404 -83 709 -93 l205 -6 77 -63 c133 -107 267 -157 533 -197 l149 -22 32 -100
c29 -88 37 -104 79 -142 53 -48 170 -120 295 -183 l84 -42 -6 -121 c-11 -195
9 -454 50 -645 8 -40 13 -75 11 -78 -3 -2 -194 52 -424 121 -458 138 -649 190
-734 200 -97 11 -275 -20 -800 -140 -213 -48 -413 -83 -555 -95 -332 -30 -668
-113 -857 -212 -128 -67 -135 -128 -33 -262 20 -26 33 -51 30 -56 -3 -5 -44
-24 -90 -41 -154 -58 -160 -95 -36 -219 126 -127 233 -173 401 -173 120 -1
174 16 273 82 83 55 209 181 288 286 59 80 72 92 120 110 29 11 58 22 63 24 5
2 7 -37 3 -98 -3 -55 -2 -101 3 -101 4 0 117 39 251 86 323 114 446 154 495
160 33 5 53 0 110 -28 141 -71 183 -83 274 -83 61 0 94 5 119 18 42 21 51 21
51 2 0 -31 41 -96 95 -150 60 -60 193 -153 323 -226 l84 -47 -39 -6 c-21 -3
-100 -13 -176 -22 -77 -9 -164 -24 -195 -35 -105 -36 -255 -122 -709 -403
-198 -122 -385 -226 -493 -275 -347 -156 -662 -353 -827 -517 -54 -53 -63 -67
-63 -98 0 -44 40 -93 105 -127 25 -13 45 -26 45 -29 0 -4 -37 -28 -82 -55
-176 -104 -194 -154 -84 -233 64 -46 108 -63 211 -78 115 -18 187 -17 305 1
194 29 286 73 372 180 77 94 162 293 199 464 10 45 12 47 105 99 53 30 97 52
100 49 2 -2 11 -41 19 -87 8 -46 16 -84 18 -86 2 -2 50 24 107 57 118 68 244
160 393 287 56 48 142 121 190 161 l88 74 65 -22 c141 -50 270 -45 394 17 l75
37 160 0 c165 -1 157 0 371 -59 68 -19 298 -43 524 -56 389 -22 537 -31 585
-36 l51 -5 117 -134 c259 -297 741 -705 1138 -964 81 -53 155 -101 165 -107
17 -10 15 -15 -33 -59 -66 -58 -146 -178 -212 -315 -69 -142 -85 -209 -84
-350 0 -250 86 -463 337 -845 135 -203 165 -256 205 -355 87 -219 48 -407
-124 -588 -91 -97 -136 -131 -440 -337 -289 -195 -471 -331 -574 -430 -59 -57
-130 -145 -245 -305 -88 -124 -182 -260 -208 -303 -48 -80 -96 -203 -83 -215
4 -4 58 -9 121 -10 63 -2 114 -5 114 -7 0 -1 -20 -32 -45 -69 -92 -138 -68
-204 73 -198 131 5 336 68 479 148 89 49 177 134 210 202 26 53 28 65 28 177
-1 97 -5 130 -21 171 l-21 51 66 76 c36 41 69 76 72 76 4 1 9 -16 13 -37 9
-57 45 -92 96 -92 39 0 48 8 358 303 749 716 1084 1017 1189 1071 71 36 87 57
85 117 -1 37 -13 76 -46 147 -24 53 -49 115 -55 137 -12 43 -35 304 -29 331 2
11 20 -6 58 -52 129 -160 526 -613 744 -848 144 -155 195 -229 225 -319 63
-193 19 -372 -149 -597 -39 -52 -99 -135 -133 -184 -65 -95 -93 -119 -333
-296 -152 -111 -274 -225 -350 -327 -82 -108 -278 -415 -328 -513 -53 -103
-81 -199 -61 -206 8 -3 70 -4 139 -2 l125 3 -31 -55 c-80 -140 -98 -177 -98
-211 0 -74 65 -92 230 -64 225 37 322 79 418 179 108 112 148 223 161 447 8
125 13 153 34 195 27 52 104 154 116 154 5 0 18 -35 31 -77 12 -43 29 -86 38
-95 52 -61 163 36 212 185 18 56 135 245 447 717 347 527 450 691 530 849 104
204 95 237 -127 466 -281 291 -284 358 -35 795 48 85 119 217 156 293 132 271
229 645 265 1026 9 92 18 168 20 170 2 2 12 -2 21 -10 68 -56 227 -79 410 -60
117 12 186 35 272 91 165 107 293 285 357 495 24 78 28 107 28 220 0 113 -4
140 -26 208 -60 179 -189 333 -340 406 -103 49 -183 65 -294 58 -148 -9 -261
-84 -322 -215 -37 -78 -38 -211 -4 -288 27 -59 89 -126 96 -103 85 274 131
331 274 331 126 0 236 -65 294 -173 20 -38 23 -58 23 -144 0 -201 -90 -363
-239 -431 -76 -35 -191 -49 -278 -35 -221 36 -328 192 -399 581 -38 209 -74
319 -163 495 -160 313 -357 588 -801 1114 -24 28 -26 33 -10 27 30 -12 219
-54 224 -50 8 7 -80 111 -146 175 -83 80 -173 144 -281 202 l-83 44 83 6 c46
4 105 7 132 7 l49 0 -89 91 c-100 102 -166 156 -269 218 l-70 41 45 -6 c25 -4
100 -22 168 -39 68 -18 121 -28 119 -22 -1 5 -29 42 -62 81 -99 120 -223 216
-370 286 l-60 29 118 1 118 0 -38 45 c-67 81 -209 165 -398 236 l-89 34 92 3
92 3 -73 62 c-110 96 -210 161 -334 216 l-68 30 86 1 c75 0 149 -8 229 -26 18
-4 3 15 -60 75 -90 86 -169 133 -293 174 l-68 23 121 18 c195 29 193 23 29 95
-324 142 -399 172 -514 203 l-120 33 135 6 c74 4 158 7 185 8 l50 1 -25 20
c-53 40 -279 150 -378 183 -57 19 -105 37 -108 39 -2 3 71 11 163 18 93 7 176
15 185 19 11 4 -30 28 -127 74 -156 74 -268 115 -390 144 -78 18 -78 18 -39
25 21 4 74 7 116 7 79 1 113 16 106 48 -8 39 -645 263 -747 263 -16 0 -22 3
-15 10 5 5 93 12 196 16 170 6 188 9 193 25 9 28 1 35 -73 63 -101 39 -235 70
-452 106 -183 31 -258 49 -203 50 13 0 83 11 155 25 261 50 238 43 238 75 0
27 -3 29 -87 49 -120 29 -292 56 -450 72 -73 7 -131 14 -129 16 5 5 288 80
329 88 34 5 38 9 35 33 l-3 27 -255 40 c-140 22 -248 41 -240 42 14 2 421 78
483 89 22 5 27 11 27 34 0 27 -2 28 -77 39 -180 25 -328 33 -536 29 l-218 -4
94 95 c143 147 212 225 257 291 l41 60 -43 -5 c-24 -4 -54 -8 -67 -11 -20 -4
-18 2 23 48 51 58 101 152 111 210 l6 36 -56 7 c-80 10 -253 -17 -381 -60
-118 -39 -285 -121 -400 -196 -42 -28 -78 -49 -79 -47 -2 2 -7 79 -12 173 l-8
169 -200 -231 c-110 -128 -200 -231 -201 -230 0 1 2 36 6 77 7 77 0 203 -21
368 -11 85 -13 92 -34 92 -18 0 -30 -17 -68 -97z"/>
</g>
</svg>
