<?xml version="1.0" standalone="no"?>
<!DOCTYPE svg PUBLIC "-//W3C//DTD SVG 20010904//EN"
 "http://www.w3.org/TR/2001/REC-SVG-20010904/DTD/svg10.dtd">
<svg version="1.0" xmlns="http://www.w3.org/2000/svg"
 width="960.000000pt" height="1280.000000pt" viewBox="0 0 960.000000 1280.000000"
 preserveAspectRatio="xMidYMid meet">
<metadata>
Created by potrace 1.15, written by Peter Selinger 2001-2017
</metadata>
<g transform="translate(0.000000,1280.000000) scale(0.100000,-0.100000)"
fill="#000000" stroke="none">
<path d="M4602 12789 c-40 -12 -64 -48 -96 -149 -38 -117 -47 -174 -53 -331
-6 -157 5 -303 38 -491 l21 -118 -40 -47 c-35 -42 -72 -102 -72 -117 0 -3 16
2 35 10 19 7 52 14 74 14 l39 0 51 -122 c29 -68 73 -156 98 -197 46 -73 148
-184 230 -252 l43 -34 -46 -60 c-48 -63 -104 -153 -104 -170 0 -5 17 7 38 26
46 45 92 72 162 98 71 26 123 35 156 27 26 -7 25 -9 -58 -94 -126 -129 -183
-228 -213 -367 -5 -27 1 -23 58 40 36 39 68 67 71 64 4 -3 -5 -53 -19 -110
-14 -57 -25 -117 -24 -134 0 -27 1 -28 12 -11 48 77 121 128 205 141 51 8 53
-2 18 -86 -48 -119 -175 -274 -341 -418 l-60 -52 45 6 c25 4 96 24 158 45 61
21 112 36 112 33 0 -3 -26 -35 -58 -72 -182 -208 -314 -408 -402 -611 -36 -82
-93 -245 -105 -299 l-7 -34 33 39 c47 53 66 70 124 104 56 33 115 39 135 15
15 -18 20 -10 -136 -187 -116 -130 -162 -188 -223 -283 -75 -114 -92 -168 -90
-284 2 -90 0 -102 -26 -150 -17 -31 -37 -53 -49 -56 -414 -88 -743 -233 -1090
-478 -404 -286 -735 -631 -1219 -1271 -116 -154 -238 -309 -271 -344 l-60 -64
76 7 c46 4 78 3 82 -3 3 -5 -74 -81 -172 -168 -205 -183 -624 -598 -737 -729
-196 -227 -371 -486 -480 -710 -63 -128 -74 -160 -134 -383 -38 -139 -86 -241
-146 -309 -25 -28 -45 -54 -45 -56 0 -14 68 -26 103 -18 20 5 37 5 37 1 0 -17
-52 -184 -110 -355 -111 -327 -156 -535 -167 -765 -18 -403 109 -822 372
-1225 l52 -81 -10 -74 c-7 -53 -7 -101 1 -165 42 -334 219 -529 557 -612 71
-17 244 -22 595 -15 153 3 231 -12 440 -86 315 -112 453 -136 770 -136 129 0
288 5 353 11 135 13 239 6 507 -32 499 -71 648 -72 867 -4 55 17 162 38 252
49 267 35 355 72 483 202 l76 78 101 0 c74 0 177 -13 393 -49 389 -66 475 -75
643 -68 161 6 249 29 333 89 44 32 54 35 119 35 97 0 172 36 214 101 16 25 29
52 29 59 0 20 8 16 57 -27 97 -85 191 -72 280 38 95 119 233 245 249 229 3 -3
9 -64 13 -136 7 -117 11 -135 35 -171 60 -91 231 -130 581 -130 137 0 213 -9
445 -50 182 -33 349 -41 575 -29 110 5 201 12 203 13 10 11 -20 42 -91 94
-102 75 -143 118 -200 208 -80 126 -132 151 -347 164 -158 9 -195 17 -250 54
-48 32 -210 242 -260 337 -57 110 -68 172 -80 450 -21 492 -68 891 -167 1414
-39 206 -41 247 -33 635 3 129 0 226 -8 286 -12 81 -11 100 3 160 28 115 85
209 243 397 119 143 167 213 211 309 50 107 62 161 66 280 l3 98 113 118 c165
171 248 326 300 557 12 55 23 101 24 103 1 1 16 -5 33 -13 53 -27 192 -45 192
-25 0 6 -5 10 -12 10 -29 0 -79 55 -112 123 -46 93 -61 169 -86 430 -23 236
-42 355 -70 436 -16 44 -17 60 -8 95 10 40 7 63 -27 181 -4 15 5 36 33 70 82
104 112 197 112 350 0 121 -22 221 -86 391 l-45 122 20 40 c48 95 144 160 222
149 47 -6 89 -32 96 -58 8 -31 20 -22 47 36 57 119 91 339 83 525 -10 206 -57
348 -148 441 -28 29 -49 60 -49 72 0 71 -43 142 -120 199 l-55 41 44 -7 c85
-13 147 -67 212 -187 l40 -74 -6 49 c-20 149 -89 321 -167 415 -42 51 -44 56
-37 95 30 164 18 347 -36 588 -43 187 -44 230 -10 264 20 20 29 23 45 14 22
-12 50 -60 50 -87 0 -10 3 -13 9 -7 14 15 31 147 31 241 0 161 -14 200 -172
508 -26 50 -50 110 -53 134 l-7 44 27 -21 c15 -12 36 -22 47 -22 36 0 85 -28
128 -74 49 -53 70 -57 99 -20 60 77 96 261 88 454 -9 196 -43 312 -118 403
-58 70 -91 80 -289 87 -201 7 -202 7 -383 118 -107 64 -114 67 -174 66 -52 0
-76 -7 -145 -41 -102 -51 -176 -107 -368 -277 -82 -73 -161 -138 -174 -146
-21 -11 -32 -10 -78 7 -29 12 -72 26 -95 32 -42 12 -53 27 -33 47 15 15 -133
24 -370 24 -464 0 -827 -85 -1071 -250 l-55 -37 -24 41 c-104 183 -424 488
-645 616 -39 22 -39 22 12 -24 46 -41 135 -146 158 -186 5 -8 -30 21 -77 64
-169 154 -374 280 -547 335 -141 46 -309 63 -389 40z"/>
</g>
</svg>
