<?xml version="1.0" standalone="no"?>
<!DOCTYPE svg PUBLIC "-//W3C//DTD SVG 20010904//EN"
 "http://www.w3.org/TR/2001/REC-SVG-20010904/DTD/svg10.dtd">
<svg version="1.0" xmlns="http://www.w3.org/2000/svg"
 width="1280.000000pt" height="1146.000000pt" viewBox="0 0 1280.000000 1146.000000"
 preserveAspectRatio="xMidYMid meet">
<metadata>
Created by potrace 1.15, written by Peter Selinger 2001-2017
</metadata>
<g transform="translate(0.000000,1146.000000) scale(0.100000,-0.100000)"
fill="#000000" stroke="none">
<path d="M10745 11445 c-21 -9 -66 -33 -100 -54 -80 -52 -147 -65 -256 -51
-168 21 -326 7 -432 -39 -66 -28 -140 -101 -167 -164 -28 -64 -37 -175 -21
-257 l12 -60 -33 -27 c-60 -48 -481 -475 -634 -643 -400 -440 -819 -934 -1012
-1191 l-72 -96 -108 -28 c-134 -35 -382 -108 -622 -185 -883 -281 -1264 -383
-1635 -436 -173 -24 -417 -24 -575 1 -109 17 -172 20 -490 19 -253 0 -422 -6
-550 -17 -197 -18 -605 -52 -731 -62 l-76 -6 -84 102 c-296 361 -365 431 -485
490 -77 38 -158 48 -203 24 -65 -33 -95 -162 -68 -292 21 -95 62 -187 159
-351 44 -76 89 -155 100 -177 l19 -40 -96 -99 c-173 -178 -309 -372 -365 -519
-64 -172 -65 -173 -231 -337 l-156 -155 -66 -130 c-101 -203 -150 -358 -201
-640 -25 -138 -32 -187 -81 -561 -25 -191 -25 -193 -98 -380 -41 -104 -113
-297 -161 -429 -139 -381 -231 -607 -326 -800 -152 -312 -265 -480 -430 -645
-111 -112 -208 -179 -333 -231 -65 -27 -94 -44 -104 -63 -20 -38 -35 -263 -28
-421 3 -77 14 -241 23 -365 21 -279 20 -570 -2 -750 -40 -326 -33 -427 36
-493 94 -90 249 -139 438 -139 141 0 245 22 333 69 l52 28 3 60 c6 111 3 116
-109 191 -56 37 -110 81 -120 98 -101 163 -130 701 -59 1094 26 142 44 199 79
253 55 82 292 342 484 529 104 102 316 312 471 467 229 230 310 304 436 399
213 161 291 227 388 328 71 74 202 253 202 276 0 12 305 445 391 555 43 55
100 122 127 149 l50 48 31 -82 c91 -235 134 -495 134 -800 -1 -302 -24 -400
-127 -537 -55 -72 -110 -124 -287 -268 -72 -59 -139 -120 -149 -137 -10 -17
-24 -59 -30 -94 -18 -93 0 -195 71 -404 33 -96 73 -227 90 -290 40 -151 64
-218 157 -437 64 -154 89 -200 155 -290 115 -158 131 -172 206 -187 68 -13
150 -49 184 -81 l35 -33 148 -7 c170 -9 403 -1 484 16 80 16 190 68 190 89 0
28 -103 153 -178 216 -119 102 -231 140 -382 131 -75 -4 -89 -2 -125 18 -103
59 -199 249 -271 537 -55 222 -45 368 40 536 67 133 185 267 331 378 86 65
203 195 286 318 34 50 86 120 114 156 201 250 310 502 401 933 67 313 85 434
87 579 2 115 4 138 17 138 33 0 180 -69 260 -121 47 -31 148 -103 225 -160
279 -209 308 -224 635 -335 245 -82 365 -136 428 -189 36 -31 46 -35 99 -35
90 0 296 -27 470 -61 253 -49 320 -59 456 -66 l128 -6 35 -42 c71 -87 131
-258 168 -480 18 -109 62 -451 71 -555 3 -41 24 -221 46 -400 56 -470 69 -621
69 -824 0 -188 -14 -304 -46 -386 -24 -62 -22 -115 8 -260 34 -162 72 -393 99
-600 23 -182 22 -229 -13 -461 -28 -194 -31 -443 -5 -511 31 -80 112 -139 238
-174 95 -27 335 -25 442 4 151 41 217 93 217 171 0 42 -14 57 -134 145 -134
99 -164 131 -185 200 -37 119 -44 229 -37 524 4 152 11 309 16 347 5 39 13
210 19 380 18 559 90 1155 187 1540 30 118 81 255 96 255 7 0 8 -62 4 -187 -3
-104 -8 -336 -12 -518 -7 -425 -17 -573 -48 -717 -31 -140 -33 -222 -8 -260
10 -15 39 -43 64 -63 35 -26 49 -44 54 -71 8 -44 -1 -172 -28 -384 -22 -178
-20 -288 6 -351 58 -138 368 -233 606 -185 78 16 197 64 244 99 15 11 19 28
20 84 1 63 -2 74 -24 98 -14 15 -52 40 -85 57 -69 34 -100 60 -122 103 -25 47
-8 281 77 1090 16 154 34 341 40 415 16 200 37 417 75 780 44 424 64 665 74
935 10 250 22 310 95 481 64 150 134 270 352 596 106 159 200 308 208 331 34
90 78 395 83 575 6 186 -2 280 -42 467 -47 222 -125 850 -125 1010 0 52 13
141 35 253 28 140 43 189 76 255 119 240 338 504 480 581 l53 29 35 -44 c68
-85 154 -160 228 -196 61 -30 87 -37 154 -41 104 -6 166 8 310 69 l116 49 59
-29 c130 -65 280 -59 441 18 111 53 191 109 286 200 141 134 193 223 183 312
-3 28 -31 99 -75 188 -39 79 -71 154 -71 168 0 13 16 45 35 70 65 85 58 119
-44 215 -79 75 -164 122 -245 137 -67 12 -95 33 -121 92 -18 39 -18 41 3 92
47 117 39 158 -52 255 -60 64 -65 74 -126 237 -109 296 -146 354 -259 410 -29
15 -92 34 -140 42 -104 19 -255 7 -438 -32 l-115 -25 -59 54 c-118 107 -246
148 -344 111z"/>
</g>
</svg>
