<?xml version="1.0" standalone="no"?>
<!DOCTYPE svg PUBLIC "-//W3C//DTD SVG 20010904//EN"
 "http://www.w3.org/TR/2001/REC-SVG-20010904/DTD/svg10.dtd">
<svg version="1.0" xmlns="http://www.w3.org/2000/svg"
 width="1280.000000pt" height="1032.000000pt" viewBox="0 0 1280.000000 1032.000000"
 preserveAspectRatio="xMidYMid meet">
<metadata>
Created by potrace 1.15, written by Peter Selinger 2001-2017
</metadata>
<g transform="translate(0.000000,1032.000000) scale(0.100000,-0.100000)"
fill="#000000" stroke="none">
<path d="M5535 10306 c-61 -27 -118 -115 -166 -256 l-33 -95 -7 -330 c-4 -181
-12 -466 -19 -632 -10 -270 -10 -318 6 -444 21 -182 12 -284 -30 -311 -20 -14
-60 -8 -111 16 -38 17 -76 52 -161 147 -141 157 -184 197 -288 264 -46 29
-175 127 -287 216 -112 90 -262 205 -334 257 -149 109 -203 152 -485 388 -263
219 -382 343 -567 587 -54 72 -78 87 -143 90 -50 2 -54 0 -84 -37 -30 -37 -31
-41 -30 -130 1 -70 8 -112 32 -186 55 -176 239 -695 300 -846 334 -832 404
-1002 429 -1043 78 -125 65 -160 -120 -315 -56 -47 -107 -94 -114 -105 -7 -10
-63 -57 -125 -104 -123 -92 -163 -131 -228 -221 -24 -33 -72 -91 -108 -130
-43 -46 -77 -97 -100 -145 -27 -58 -55 -95 -136 -180 -57 -58 -108 -115 -114
-127 -6 -11 -16 -58 -21 -104 -6 -46 -20 -102 -31 -124 -19 -39 -97 -124 -188
-204 -35 -30 -44 -46 -52 -89 -13 -75 10 -251 43 -323 14 -30 33 -101 43 -158
15 -85 16 -113 6 -164 -14 -74 -70 -197 -118 -254 -47 -59 -202 -187 -304
-252 -47 -31 -107 -72 -135 -93 -27 -21 -79 -51 -115 -67 -36 -16 -93 -52
-128 -80 -34 -28 -107 -73 -160 -101 -62 -31 -144 -87 -223 -150 -122 -98
-233 -168 -496 -310 -72 -39 -184 -109 -250 -154 -65 -46 -139 -96 -165 -111
-27 -15 -48 -32 -48 -37 0 -6 -39 -49 -86 -96 -85 -85 -86 -86 -81 -128 2 -24
26 -87 52 -141 26 -53 69 -170 96 -258 47 -152 92 -262 121 -297 7 -8 35 -30
62 -48 35 -25 54 -47 71 -85 13 -28 35 -62 50 -76 42 -39 56 -72 45 -109 -12
-43 13 -160 48 -226 15 -27 66 -91 114 -141 83 -85 95 -94 225 -158 179 -88
249 -110 413 -131 148 -18 383 -51 645 -89 286 -42 371 -48 625 -49 321 0 560
25 801 84 69 16 96 29 135 61 95 78 173 105 376 129 129 15 166 7 234 -52 25
-22 64 -49 86 -60 53 -27 157 -49 238 -49 83 -1 127 -21 249 -114 132 -100
439 -302 505 -331 29 -13 141 -51 248 -84 307 -95 510 -188 843 -385 227 -134
350 -195 491 -240 72 -24 135 -53 180 -82 38 -25 103 -63 144 -85 92 -47 272
-193 437 -351 68 -65 127 -118 133 -118 5 0 79 -33 163 -72 l152 -73 185 1
c102 1 255 9 340 18 970 101 1835 467 2595 1097 129 107 467 445 574 574 707
853 1086 1852 1118 2945 5 170 3 213 -10 250 -8 25 -23 131 -32 235 -18 206
-41 338 -74 426 -43 112 -145 245 -253 327 -28 20 -71 67 -98 103 -35 48 -61
72 -94 87 -25 12 -50 22 -55 22 -6 0 -31 18 -56 40 -26 22 -61 48 -78 57 -18
9 -78 47 -134 85 -132 89 -167 104 -475 199 -396 122 -467 154 -674 302 -244
175 -309 194 -762 227 -264 19 -326 39 -632 202 -233 124 -306 147 -750 244
-290 62 -435 121 -570 228 -46 38 -118 85 -160 106 -50 26 -95 59 -135 100
-33 34 -100 90 -150 125 -112 78 -133 101 -181 195 -31 62 -66 104 -204 245
-200 205 -187 189 -490 600 -134 182 -292 389 -352 460 -102 121 -133 164
-247 344 -61 96 -369 408 -435 440 -60 29 -121 36 -161 17z"/>
</g>
</svg>
