<?xml version="1.0" standalone="no"?>
<!DOCTYPE svg PUBLIC "-//W3C//DTD SVG 20010904//EN"
 "http://www.w3.org/TR/2001/REC-SVG-20010904/DTD/svg10.dtd">
<svg version="1.0" xmlns="http://www.w3.org/2000/svg"
 width="1280.000000pt" height="640.000000pt" viewBox="0 0 1280.000000 640.000000"
 preserveAspectRatio="xMidYMid meet">
<metadata>
Created by potrace 1.15, written by Peter Selinger 2001-2017
</metadata>
<g transform="translate(0.000000,640.000000) scale(0.100000,-0.100000)"
fill="#000000" stroke="none">
<path d="M10692 6033 c-18 -15 -24 -39 -37 -158 -31 -276 -52 -573 -44 -622
11 -68 10 -357 -2 -493 -6 -63 -11 -128 -11 -144 -1 -20 -13 -39 -45 -69 -39
-36 -42 -41 -28 -57 29 -32 19 -50 -27 -50 -70 -1 -121 -17 -147 -46 -21 -25
-30 -28 -91 -28 -55 -1 -73 -5 -92 -22 -13 -13 -42 -24 -68 -26 -74 -8 -190
-47 -190 -63 0 -8 -4 -15 -9 -15 -5 0 -43 -24 -83 -54 -40 -30 -84 -62 -97
-72 -18 -13 -20 -18 -10 -25 8 -5 24 -9 35 -9 28 0 217 -185 267 -260 20 -30
39 -71 42 -90 l6 -35 -26 30 c-14 17 -40 56 -57 88 -36 66 -127 155 -212 206
-75 45 -142 48 -184 8 -32 -31 -48 -33 -98 -12 -33 14 -40 13 -80 -4 -41 -19
-49 -28 -45 -58 1 -9 -6 -10 -29 -1 -53 18 -135 5 -183 -28 -25 -18 -69 -36
-107 -44 -83 -17 -121 -33 -195 -80 -33 -21 -75 -41 -92 -45 -18 -4 -33 -9
-33 -12 0 -2 21 -31 46 -64 86 -112 154 -231 180 -315 42 -133 26 -145 -25
-19 -96 239 -179 358 -285 410 l-54 26 -159 -11 c-127 -9 -168 -16 -209 -34
-28 -13 -95 -33 -150 -45 -162 -37 -179 -44 -177 -75 1 -15 32 -78 69 -139 36
-62 68 -115 71 -119 2 -5 -5 -8 -16 -8 -15 0 -33 24 -72 96 -63 117 -112 170
-163 176 -20 2 -35 2 -34 -1 2 -4 38 -59 81 -123 75 -112 107 -181 121 -258
l7 -35 -22 40 c-66 126 -141 238 -226 342 -11 13 -42 28 -77 38 -54 13 -69 13
-150 -1 -225 -39 -279 -55 -333 -96 -29 -21 -53 -43 -53 -49 0 -5 -12 -1 -27
10 -43 30 -66 33 -107 12 -34 -18 -41 -18 -78 -5 -84 29 -128 10 -94 -41 27
-41 18 -40 -28 3 -70 65 -166 79 -201 29 -12 -17 -18 -19 -38 -10 -71 33 -202
19 -267 -27 -16 -11 -44 -20 -65 -20 -36 0 -94 -23 -107 -44 -4 -6 -6 -17 -3
-25 4 -9 0 -11 -12 -6 -10 3 -20 7 -23 7 -25 2 -43 -6 -69 -32 -26 -27 -41
-32 -113 -40 -45 -5 -105 -7 -133 -4 -36 4 -88 -3 -190 -26 -142 -32 -175 -43
-175 -60 0 -6 -13 -10 -29 -10 -45 0 -92 -20 -147 -62 -57 -43 -98 -58 -159
-58 -22 0 -49 -6 -60 -14 -11 -7 -44 -17 -72 -21 -29 -4 -63 -15 -76 -25 -13
-10 -37 -22 -53 -26 -44 -11 -207 -75 -222 -87 -9 -7 -12 -22 -8 -39 5 -26 4
-27 -14 -18 -24 13 -33 -2 -15 -26 26 -34 16 -37 -19 -6 -45 39 -89 49 -121
28 -14 -9 -25 -20 -25 -24 0 -4 -4 -13 -8 -20 -7 -10 -20 -8 -65 9 -53 20 -58
21 -82 5 -14 -9 -25 -21 -25 -26 0 -6 -20 -10 -44 -10 -28 0 -54 -8 -77 -23
-30 -20 -34 -29 -34 -65 l0 -41 -26 24 c-46 45 -73 30 -71 -40 0 -39 -1 -41
-26 -38 -18 3 -60 -13 -124 -46 -55 -29 -100 -46 -103 -41 -9 15 -83 12 -113
-4 -15 -8 -47 -21 -72 -28 -37 -11 -49 -20 -65 -53 -11 -22 -21 -42 -22 -44
-4 -7 -199 127 -303 208 -58 45 -226 164 -375 264 -281 189 -309 208 -465 303
-52 31 -189 119 -305 194 -249 162 -305 194 -450 255 -273 116 -466 165 -705
180 -129 8 -200 -2 -440 -60 -304 -74 -313 -77 -330 -108 -24 -43 -5 -63 56
-59 68 5 255 45 402 87 159 46 216 51 323 31 47 -9 99 -16 116 -16 46 0 217
-36 306 -65 244 -77 414 -170 787 -430 540 -375 733 -519 1007 -748 150 -125
150 -126 138 -253 -6 -69 -8 -74 -27 -68 -14 4 -29 -3 -52 -24 -38 -37 -92
-61 -82 -37 18 47 -88 -15 -121 -72 -15 -25 -29 -41 -31 -35 -6 19 -29 14 -45
-9 -13 -17 -19 -19 -36 -10 -38 21 -81 -18 -81 -73 0 -23 -2 -25 -19 -14 -15
9 -24 8 -45 -5 -39 -26 -41 -55 -8 -148 16 -46 32 -102 36 -123 l8 -39 -57 51
c-31 29 -61 50 -66 47 -4 -3 -13 -24 -19 -45 -9 -34 -7 -50 15 -112 70 -194
70 -220 -1 -269 -59 -40 -214 -112 -323 -151 -174 -60 -357 -163 -551 -307
-115 -86 -306 -183 -415 -211 -44 -11 -115 -23 -157 -27 -66 -5 -77 -9 -82
-26 -15 -57 63 -105 149 -91 135 21 355 123 584 272 182 118 307 195 372 227
47 24 376 125 407 125 8 0 27 11 44 25 38 32 51 31 81 -5 26 -30 47 -39 47
-20 0 6 24 -7 53 -29 92 -70 167 -98 332 -124 82 -13 161 -21 175 -17 14 3 40
26 58 51 40 51 67 68 85 50 9 -9 8 -18 -5 -42 -23 -39 -10 -44 78 -35 78 8 97
-1 113 -53 12 -42 34 -61 69 -61 23 0 34 21 21 41 -13 21 -11 29 6 22 9 -3 29
-32 45 -64 16 -31 39 -64 51 -73 16 -11 20 -21 15 -40 -8 -33 -4 -33 49 4 62
43 97 96 130 199 25 80 32 92 54 97 76 15 131 69 131 128 0 24 2 27 15 16 20
-16 56 -6 94 26 30 25 31 25 31 4 0 -39 30 -79 102 -137 40 -32 83 -65 96 -74
13 -9 32 -30 43 -47 24 -40 63 -51 102 -28 35 19 33 20 61 -39 l22 -46 27 21
27 21 -28 24 -27 24 28 26 c32 30 33 43 10 133 l-16 66 70 66 c85 78 139 148
148 190 5 24 11 30 23 25 39 -16 51 -16 71 4 12 12 23 21 26 21 2 0 16 -24 30
-54 14 -30 32 -56 40 -59 7 -3 34 10 59 29 l46 35 -7 -32 -6 -31 29 15 c16 9
51 32 79 51 36 26 60 36 87 36 24 0 45 8 62 23 29 26 126 208 126 237 0 61 74
-44 84 -119 4 -30 12 -63 17 -73 11 -20 49 -24 67 -6 10 10 16 7 28 -10 8 -12
23 -22 32 -22 27 1 93 34 145 74 37 28 53 35 73 30 l26 -7 -31 -24 c-17 -14
-29 -28 -26 -33 2 -4 26 -13 51 -19 28 -7 58 -24 73 -40 l26 -28 40 35 c77 67
114 71 177 20 19 -15 54 -26 110 -34 46 -6 103 -15 128 -19 57 -9 96 6 118 45
9 16 25 30 34 30 9 0 30 12 47 26 23 19 31 34 31 58 0 35 15 56 40 56 9 0 45
14 79 31 77 39 178 138 210 207 14 29 28 52 32 52 4 0 16 -11 27 -25 15 -19
19 -35 15 -64 l-5 -38 103 -7 c66 -4 108 -12 114 -20 25 -32 49 -35 166 -20
117 15 188 40 251 87 18 13 46 28 62 31 29 7 84 58 119 109 9 14 33 38 53 53
l35 27 55 -17 c96 -30 205 -21 257 23 23 19 32 9 15 -18 -18 -30 2 -48 39 -35
18 6 41 6 64 0 26 -7 51 -5 95 7 80 21 240 79 290 105 38 20 152 143 197 212
l18 28 30 -30 c23 -23 35 -28 52 -23 12 4 70 6 128 5 117 -2 169 8 222 44 l36
25 11 -33 c17 -52 108 -126 155 -126 8 0 15 -9 15 -20 0 -22 20 -26 52 -9 15
8 36 8 79 -1 70 -15 97 -3 128 58 11 20 31 50 44 66 21 26 23 34 15 80 -5 28
-21 76 -35 107 l-25 57 66 96 c36 53 77 118 90 145 l25 48 70 5 c39 3 81 12
93 20 16 11 39 14 73 11 42 -4 68 2 159 37 90 35 111 48 125 73 9 17 36 49 59
72 24 23 74 90 111 151 48 77 74 110 89 112 17 3 22 -2 22 -17 0 -47 87 -2
151 80 19 23 48 57 65 76 l32 33 105 -6 c103 -7 105 -6 120 17 8 13 21 50 28
82 15 70 -3 167 -33 175 -16 4 -16 7 -3 32 8 15 27 33 43 39 26 11 30 18 35
64 3 38 11 56 30 73 l25 22 -30 36 c-42 51 -67 45 -69 -17 -1 -51 -18 19 -18
80 -1 52 2 64 18 73 44 23 240 62 460 90 257 34 344 50 441 82 100 33 242 101
282 137 32 28 56 76 45 88 -3 2 -36 -11 -73 -30 -181 -91 -444 -156 -759 -186
-60 -6 -175 -18 -255 -26 l-145 -14 -110 109 c-76 76 -117 110 -133 110 -13 0
-71 33 -130 74 -117 80 -174 105 -197 86 -11 -9 -28 -5 -77 15 -35 15 -70 29
-79 31 -19 7 -73 93 -94 152 -21 62 -33 214 -41 522 -6 223 -4 278 9 345 18
90 34 225 39 330 3 64 1 70 -18 73 -11 2 -30 -5 -42 -15z"/>
</g>
</svg>
