<?xml version="1.0" standalone="no"?>
<!DOCTYPE svg PUBLIC "-//W3C//DTD SVG 20010904//EN"
 "http://www.w3.org/TR/2001/REC-SVG-20010904/DTD/svg10.dtd">
<svg version="1.0" xmlns="http://www.w3.org/2000/svg"
 width="1280.000000pt" height="942.000000pt" viewBox="0 0 1280.000000 942.000000"
 preserveAspectRatio="xMidYMid meet">
<metadata>
Created by potrace 1.15, written by Peter Selinger 2001-2017
</metadata>
<g transform="translate(0.000000,942.000000) scale(0.100000,-0.100000)"
fill="#000000" stroke="none">
<path d="M331 9379 c-48 -66 -103 -251 -171 -574 -17 -82 -44 -204 -60 -270
-126 -521 -132 -1343 -14 -1925 36 -179 77 -318 159 -535 168 -444 333 -760
526 -1008 l47 -61 -34 -41 c-265 -312 -457 -588 -521 -748 -13 -34 -31 -78
-40 -97 -36 -76 -12 -390 53 -710 55 -270 147 -574 227 -750 44 -97 110 -204
169 -273 30 -35 33 -45 32 -100 0 -46 -9 -83 -33 -142 -60 -145 -92 -246 -102
-325 -24 -178 38 -351 188 -526 102 -118 139 -165 157 -201 26 -51 44 -146 61
-318 19 -195 34 -254 90 -371 72 -148 157 -223 305 -269 92 -28 318 -31 571
-6 119 12 246 21 282 21 45 0 67 4 67 12 0 31 -75 363 -97 432 -50 151 -137
249 -231 261 -67 9 -96 22 -119 53 -82 111 -133 323 -133 553 0 260 72 373
384 594 124 89 276 224 276 247 0 28 50 2 500 -263 499 -293 670 -382 860
-447 93 -32 116 -37 206 -37 92 0 104 2 141 27 47 31 71 77 86 164 l11 64 61
0 c82 0 306 -34 467 -71 180 -40 304 -74 703 -191 895 -262 1139 -304 1837
-315 l367 -6 5 -23 c11 -44 106 -172 181 -242 41 -40 80 -72 85 -72 6 0 10
-33 10 -79 0 -167 46 -424 93 -521 29 -59 78 -83 307 -150 190 -57 274 -91
293 -121 15 -25 38 -24 71 2 32 25 56 69 56 104 l0 25 311 0 312 0 -6 73 c-6
81 -14 104 -57 162 -16 22 -29 48 -30 57 0 10 -34 40 -83 73 -255 169 -382
320 -436 515 -43 153 -48 336 -19 593 l11 98 106 63 c58 35 187 110 286 166
447 256 637 422 726 634 12 30 30 57 39 59 10 3 21 19 25 36 9 42 127 216 180
266 89 83 158 281 154 445 -5 214 -3 297 10 340 13 42 19 47 91 83 104 51 191
130 230 211 l32 64 -10 138 c-12 182 -7 212 41 254 21 18 69 80 108 138 39 59
81 111 92 117 12 6 27 21 33 33 6 13 21 33 32 45 28 29 78 150 97 231 8 36 24
131 35 213 27 202 58 301 109 347 18 17 31 18 108 12 49 -3 109 -9 135 -12 47
-6 47 -6 111 54 89 86 133 103 288 113 191 11 269 29 384 86 91 45 151 90 217
161 115 125 203 292 257 490 11 41 47 122 79 180 62 111 92 185 92 227 0 56
-252 212 -460 285 -113 39 -187 59 -467 125 -284 67 -474 124 -507 153 -18 16
-97 170 -144 279 -29 67 -99 115 -265 179 -67 26 -142 60 -167 75 -208 127
-477 130 -1013 14 -65 -14 -188 -37 -275 -51 -102 -17 -168 -33 -189 -45 -46
-28 -133 -127 -205 -233 -72 -105 -149 -198 -391 -476 -230 -263 -228 -260
-458 -620 -232 -363 -333 -529 -394 -649 l-44 -89 -114 -60 c-63 -33 -145 -80
-183 -106 -75 -50 -102 -56 -128 -27 -27 30 -65 34 -127 13 -137 -48 -190 -96
-209 -189 -29 -149 -38 -156 -128 -114 -72 33 -137 40 -164 19 -8 -7 -29 -34
-47 -60 -40 -59 -77 -73 -157 -59 -108 20 -110 20 -200 -74 -91 -96 -110 -102
-193 -65 -56 26 -58 26 -127 -11 l-59 -32 -255 6 c-364 9 -611 38 -1020 122
-245 49 -542 101 -690 120 -734 91 -1190 141 -1520 167 -205 16 -798 15 -935
-1 l-100 -12 -136 138 c-518 528 -740 939 -779 1443 -9 124 -3 294 26 750 23
354 24 911 1 1081 -30 225 -85 398 -151 477 -37 43 -60 41 -95 -9z"/>
</g>
</svg>
