<?xml version="1.0" standalone="no"?>
<!DOCTYPE svg PUBLIC "-//W3C//DTD SVG 20010904//EN"
 "http://www.w3.org/TR/2001/REC-SVG-20010904/DTD/svg10.dtd">
<svg version="1.0" xmlns="http://www.w3.org/2000/svg"
 width="764.000000pt" height="1280.000000pt" viewBox="0 0 764.000000 1280.000000"
 preserveAspectRatio="xMidYMid meet">
<metadata>
Created by potrace 1.15, written by Peter Selinger 2001-2017
</metadata>
<g transform="translate(0.000000,1280.000000) scale(0.100000,-0.100000)"
fill="#000000" stroke="none">
<path d="M659 12753 c-63 -72 -102 -183 -158 -449 -39 -185 -55 -230 -100
-284 -87 -104 -129 -203 -139 -325 l-7 -80 -43 108 c-100 250 -132 501 -102
797 6 56 9 104 8 106 -2 2 -17 -29 -32 -69 -164 -419 -93 -832 230 -1348 l54
-86 0 -94 c0 -220 60 -603 125 -810 6 -19 5 -20 -14 -9 -12 6 -37 26 -55 45
-91 91 -136 223 -206 600 -38 203 -42 215 -66 160 -14 -30 -19 -74 -22 -183
-6 -216 26 -410 96 -587 44 -112 99 -169 264 -277 62 -41 158 -104 213 -141
162 -106 265 -206 329 -317 l28 -51 -26 -58 c-32 -73 -33 -108 -1 -175 24 -51
25 -56 13 -129 -15 -101 -5 -131 76 -231 36 -44 70 -93 76 -110 20 -54 25 -60
95 -113 43 -33 107 -68 170 -93 55 -22 105 -44 112 -48 9 -5 3 -45 -23 -152
-56 -237 -149 -714 -203 -1040 -65 -395 -141 -896 -141 -933 0 -15 11 -44 25
-64 23 -34 24 -42 18 -127 -12 -188 29 -424 143 -826 41 -146 82 -289 90 -317
l14 -53 21 21 c11 11 25 19 31 17 6 -2 29 -33 50 -68 21 -34 70 -102 108 -150
l70 -88 0 -79 c0 -46 8 -113 20 -159 25 -103 123 -296 204 -404 80 -106 217
-239 290 -280 51 -29 56 -35 71 -88 68 -241 207 -493 468 -852 82 -112 127
-183 127 -199 0 -14 -14 -69 -32 -123 l-32 -97 12 -138 c15 -170 16 -384 1
-529 -38 -384 -168 -828 -365 -1242 -93 -195 -118 -343 -74 -439 23 -51 48
-60 109 -38 62 22 71 20 71 -15 0 -44 34 -49 101 -14 254 128 409 362 370 559
-8 43 -7 53 9 70 27 29 42 74 34 108 -3 16 -22 62 -41 102 l-34 73 30 168 c41
228 74 392 111 554 30 136 90 361 97 369 10 12 27 -32 91 -230 89 -275 106
-355 106 -494 -1 -131 -22 -204 -89 -305 -39 -59 -136 -272 -164 -360 -12 -39
-14 -74 -9 -169 3 -55 7 -67 31 -87 33 -28 64 -30 159 -10 188 40 345 188 393
371 8 33 15 78 15 102 0 29 6 46 18 55 51 36 69 113 48 201 l-13 57 26 6 c127
26 361 177 389 251 6 16 13 70 15 120 2 51 10 99 17 107 6 8 28 16 48 18 34 3
38 7 73 78 20 41 48 86 63 99 17 16 26 35 26 55 0 55 29 154 64 224 77 152
188 269 476 498 203 162 302 256 373 352 l46 63 -53 104 c-73 141 -91 217 -90
380 1 154 16 234 103 541 56 195 81 297 96 386 4 28 19 49 63 89 31 29 70 58
86 64 28 12 33 10 90 -35 34 -26 124 -87 201 -135 265 -166 354 -251 440 -417
51 -98 84 -130 213 -209 124 -76 176 -133 243 -264 97 -188 161 -372 208 -595
72 -339 80 -752 20 -1081 -26 -144 -52 -226 -112 -344 -84 -167 -187 -416
-187 -452 0 -43 26 -83 54 -83 11 0 34 7 50 15 36 19 60 19 76 0 19 -23 136
-20 204 6 62 23 137 86 192 161 80 108 204 314 211 348 3 19 1 69 -5 110 -29
190 -40 231 -75 289 -48 77 -56 147 -65 548 -7 314 -6 328 20 520 39 293 51
456 46 623 l-5 150 -49 42 c-171 147 -268 300 -389 613 -91 236 -153 381 -210
495 -124 244 -139 406 -79 815 30 206 37 431 15 530 -86 395 -281 789 -466
937 -127 103 -457 217 -807 280 -97 18 -161 23 -303 23 l-180 0 -90 -39 c-134
-57 -232 -89 -533 -172 -302 -83 -432 -127 -531 -179 -36 -19 -79 -35 -96 -35
-16 0 -75 21 -130 46 -199 91 -258 101 -419 69 -93 -18 -138 -10 -179 33 -28
29 -86 153 -87 184 0 10 23 32 55 53 42 27 57 42 62 66 4 21 18 38 43 54 49
31 94 87 109 134 13 46 15 128 2 136 -6 3 -7 35 -4 74 5 66 4 72 -54 207 l-59
140 23 89 c28 111 28 131 3 177 l-20 38 21 39 c15 29 18 49 13 75 -6 33 -4 36
12 29 17 -6 17 -5 5 11 -8 10 -15 43 -16 79 0 34 -4 69 -8 77 -5 11 7 21 48
39 66 28 128 87 162 155 21 42 24 60 21 121 l-3 72 49 34 c222 152 343 360
371 639 5 50 9 58 43 80 235 159 492 521 492 695 0 29 -5 25 -128 -95 -226
-222 -367 -310 -512 -318 l-78 -4 -17 73 c-44 186 -26 421 45 611 17 45 31 64
70 92 196 141 376 391 431 602 31 117 28 265 -5 364 -23 68 -108 210 -126 210
-4 0 -10 -73 -13 -162 -9 -254 -45 -415 -119 -531 -31 -49 -94 -105 -105 -94
-6 6 -12 100 -33 477 -17 317 -57 460 -153 546 -52 46 -74 56 -62 27 13 -33
44 -197 55 -288 23 -201 7 -548 -33 -698 l-12 -47 -53 46 c-195 171 -312 471
-329 847 -10 228 -48 151 -83 -168 -36 -340 -56 -393 -147 -382 -54 6 -117 47
-227 149 -87 79 -92 73 -30 -38 77 -141 178 -235 358 -334 90 -50 117 -70 143
-108 18 -26 84 -103 147 -172 64 -69 114 -130 112 -136 -5 -13 -19 -217 -36
-508 -19 -323 -65 -499 -179 -694 -130 -222 -430 -512 -529 -512 -44 0 -80
-23 -117 -74 -38 -52 -89 -77 -168 -83 -52 -5 -204 11 -214 21 -2 2 31 39 72
82 242 253 364 576 300 792 -15 48 -35 71 -35 39 0 -27 -43 -144 -85 -234 -56
-118 -104 -191 -184 -275 -116 -124 -250 -196 -457 -248 l-114 -28 -84 33
c-657 258 -1096 901 -1096 1605 0 139 16 192 82 270 41 50 62 89 110 213 65
169 98 288 98 360 0 46 3 51 84 137 102 107 160 184 203 270 31 60 43 120 26
120 -5 0 -66 -60 -138 -135 -71 -74 -137 -135 -146 -135 -13 0 -17 19 -23 113
-8 118 -23 207 -35 207 -4 0 -19 -70 -34 -156 -31 -183 -33 -188 -66 -171 -94
47 -99 231 -16 585 8 32 -8 27 -46 -15z m18 -885 c-3 -7 -21 -52 -40 -99 -60
-152 -125 -239 -178 -239 -17 0 -7 117 15 161 25 54 81 115 140 155 54 36 72
42 63 22z m3088 -1968 c-39 -112 -146 -246 -251 -315 -57 -38 -173 -90 -181
-81 -3 2 10 32 28 66 36 68 168 214 252 278 52 41 158 104 164 98 2 -2 -4 -22
-12 -46z m713 -5904 c7 -21 17 -96 23 -165 16 -205 57 -323 125 -363 98 -58
202 -247 234 -424 12 -68 12 -71 -15 -124 -65 -129 -154 -237 -424 -515 -394
-406 -507 -583 -543 -847 -12 -88 -28 -118 -28 -54 0 18 -16 68 -36 110 -66
144 -87 263 -104 586 -16 307 -32 400 -91 531 l-30 66 45 154 c73 249 125 470
187 784 l29 149 62 60 63 59 151 9 c84 4 169 12 191 17 21 5 63 9 93 8 55 -2
55 -2 68 -41z"/>
</g>
</svg>
