<?xml version="1.0" standalone="no"?>
<!DOCTYPE svg PUBLIC "-//W3C//DTD SVG 20010904//EN"
 "http://www.w3.org/TR/2001/REC-SVG-20010904/DTD/svg10.dtd">
<svg version="1.0" xmlns="http://www.w3.org/2000/svg"
 width="1280.000000pt" height="1280.000000pt" viewBox="0 0 1280.000000 1280.000000"
 preserveAspectRatio="xMidYMid meet">
<metadata>
Created by potrace 1.15, written by Peter Selinger 2001-2017
</metadata>
<g transform="translate(0.000000,1280.000000) scale(0.100000,-0.100000)"
fill="#000000" stroke="none">
<path d="M8825 11511 c-16 -10 -40 -28 -52 -39 -29 -29 -153 -209 -260 -382
-88 -140 -127 -209 -286 -502 -41 -76 -77 -134 -81 -131 -4 4 -11 1 -17 -7 -7
-12 -10 -11 -15 8 -8 29 -20 28 -28 -3 -4 -14 -10 -24 -14 -24 -20 3 -31 -3
-37 -21 -8 -26 -25 -26 -25 0 0 34 -29 11 -60 -49 -16 -31 -29 -49 -30 -41 0
13 -1 13 -10 0 -8 -13 -10 -12 -10 4 0 26 -11 13 -33 -37 -16 -38 -17 -20 -1
30 3 10 -9 -10 -27 -45 -17 -34 -35 -60 -38 -57 -3 3 -15 -13 -28 -37 l-22
-43 6 38 c9 59 -3 43 -28 -35 -19 -62 -23 -69 -29 -48 l-7 25 -8 -27 c-4 -16
-11 -25 -16 -23 -5 3 -12 -7 -16 -22 l-7 -28 -7 25 c-6 22 -7 22 -8 4 -1 -12
-14 -38 -31 -59 -16 -21 -30 -42 -30 -47 0 -6 -6 -8 -14 -5 -8 3 -18 -5 -25
-20 -7 -14 -14 -23 -17 -20 -7 7 -54 -41 -54 -56 0 -8 -4 -7 -9 2 -8 12 -11 9
-17 -13 -4 -16 -10 -23 -13 -17 -4 6 -19 -9 -36 -35 -16 -25 -31 -41 -33 -35
-2 6 -26 -12 -54 -40 -35 -34 -54 -46 -59 -38 -5 8 -14 1 -28 -22 -12 -19 -21
-38 -22 -44 0 -5 -4 -1 -9 10 -7 18 -10 16 -24 -18 -9 -21 -21 -35 -26 -32 -6
3 -10 1 -10 -5 0 -6 -4 -8 -10 -5 -5 3 -15 -6 -22 -20 -6 -14 -17 -24 -24 -21
-7 3 -15 -5 -18 -17 -3 -12 -8 -18 -12 -14 -4 4 -14 -2 -21 -13 -8 -11 -18
-18 -23 -15 -4 3 -11 -7 -15 -22 -4 -19 -9 -23 -14 -14 -6 9 -12 4 -19 -18 -6
-17 -13 -31 -16 -31 -3 0 -3 7 0 15 10 26 -12 16 -24 -11 -7 -14 -16 -23 -21
-20 -5 3 -14 -8 -21 -24 -7 -16 -16 -27 -20 -25 -5 3 -12 -5 -16 -17 -6 -21
-8 -21 -14 -4 -5 16 -8 15 -25 -10 -10 -16 -28 -39 -39 -50 -49 -50 -65 -72
-94 -136 -18 -36 -35 -80 -38 -97 -4 -17 -13 -36 -20 -42 -8 -6 -14 -20 -14
-31 0 -92 -162 -165 -449 -202 -212 -28 -218 -27 -494 75 -267 99 -363 122
-507 121 -90 0 -130 -5 -185 -22 -95 -30 -350 -140 -449 -194 -261 -142 -465
-354 -596 -616 -89 -177 -152 -392 -170 -580 -16 -168 -13 -473 6 -609 19
-128 20 -125 -56 -135 -25 -3 -55 -12 -65 -19 -15 -12 -8 -13 49 -6 37 5 71
11 76 14 6 4 10 1 10 -5 0 -6 -10 -15 -22 -20 -132 -53 -211 -81 -288 -100
-52 -14 -87 -27 -82 -32 5 -5 29 -4 57 2 26 6 49 9 52 7 7 -7 -47 -38 -90 -52
-83 -27 -118 -42 -115 -49 4 -10 -82 -36 -227 -71 -80 -19 -133 -39 -192 -72
-46 -26 -81 -48 -79 -50 2 -2 20 6 40 18 20 12 49 21 64 21 15 0 47 11 72 23
26 13 73 26 108 29 35 3 68 8 75 11 7 4 3 -1 -7 -9 -11 -9 -24 -16 -29 -16 -4
0 -5 -5 -1 -12 4 -7 3 -8 -5 -4 -6 4 -18 2 -26 -4 -8 -6 -18 -9 -23 -6 -9 6
-174 -71 -242 -112 l-34 -21 92 2 c51 1 92 0 92 -3 0 -3 -16 -14 -35 -24 -19
-11 -35 -24 -35 -30 -1 -18 -71 -66 -99 -67 -24 -1 -23 -2 7 -10 18 -5 31 -13
28 -17 -6 -11 227 -8 244 3 35 22 110 41 148 37 55 -5 53 -19 -3 -28 -57 -8
-59 -20 -3 -17 35 2 38 1 18 -6 -14 -5 -38 -10 -55 -10 -20 -1 -26 -4 -17 -10
10 -6 7 -12 -12 -25 -55 -35 -22 -32 52 6 54 27 97 42 145 48 37 4 84 17 105
28 21 11 53 23 72 27 34 7 34 6 15 -10 -12 -9 -2 -7 23 7 24 12 48 31 53 40
12 23 7 23 -42 -3 -79 -40 -62 -12 21 35 76 42 81 47 46 41 -40 -7 -130 -58
-155 -88 -7 -10 -20 -17 -28 -17 -11 0 -11 4 -3 21 17 31 7 33 -40 9 -23 -12
-46 -20 -52 -18 -6 2 24 21 66 41 43 20 75 40 73 45 -3 4 8 7 24 8 15 1 26 -2
24 -7 -7 -10 37 1 53 14 7 5 41 11 75 12 44 2 82 12 131 34 38 17 74 30 80 27
6 -2 3 -5 -6 -5 -9 -1 -20 -6 -23 -11 -4 -7 2 -9 17 -5 24 6 26 2 52 -97 36
-139 135 -634 192 -958 128 -739 125 -714 118 -846 -7 -132 1 -173 57 -285 45
-91 65 -161 118 -424 65 -323 103 -614 99 -760 -2 -99 1 -117 24 -175 15 -36
34 -100 42 -143 16 -75 16 -80 -4 -124 -11 -25 -20 -67 -20 -94 0 -27 -11
-101 -25 -165 -28 -128 -30 -161 -14 -218 24 -85 168 -186 297 -206 54 -9 69
-8 105 8 56 25 103 80 122 144 19 63 19 84 0 223 -9 61 -20 146 -26 190 -7 55
-20 97 -41 137 l-31 58 1 177 0 177 -43 122 c-49 138 -105 399 -131 609 -17
138 -24 470 -14 710 3 84 0 116 -22 200 -43 163 -50 220 -49 421 1 231 22 496
57 694 17 104 64 302 73 312 4 4 51 -26 106 -68 87 -65 286 -175 388 -213 24
-9 27 -16 27 -54 0 -79 -21 -208 -45 -280 -13 -40 -45 -130 -70 -202 -43 -120
-46 -136 -42 -205 2 -41 12 -109 21 -150 15 -63 18 -135 18 -435 1 -358 -1
-387 -39 -603 l-18 -102 24 -113 c41 -190 41 -196 20 -260 -17 -49 -19 -82
-17 -231 3 -169 4 -175 27 -200 28 -30 122 -62 225 -77 38 -5 72 -11 74 -14
10 -9 -31 -144 -65 -215 -21 -44 -36 -93 -38 -118 -1 -36 -6 -46 -31 -61 -48
-29 -189 -237 -204 -299 -43 -184 117 -446 291 -476 81 -14 179 64 240 192 30
63 62 210 57 263 -2 20 11 41 50 83 30 33 56 73 62 95 5 21 10 101 9 177 0
247 48 436 171 664 124 229 156 365 131 551 -25 192 -11 360 64 749 47 243 70
377 100 580 39 270 67 359 127 401 l29 21 162 -20 c137 -18 174 -19 237 -10
115 17 130 16 151 -12 31 -40 67 -161 90 -298 12 -70 38 -210 59 -312 22 -102
59 -283 84 -402 73 -352 86 -457 86 -691 0 -286 17 -374 124 -628 92 -220 144
-532 155 -934 l8 -270 37 -115 c41 -126 40 -148 -4 -259 -11 -29 -20 -75 -20
-104 0 -29 -4 -57 -10 -63 -13 -13 -34 -238 -27 -297 4 -27 13 -60 22 -73 47
-72 344 -155 509 -142 75 6 140 38 161 78 30 58 14 173 -50 360 -14 41 -32
101 -40 133 -9 33 -33 89 -54 125 -69 117 -76 153 -62 311 l12 136 -50 151
c-87 261 -123 539 -126 984 -3 332 -15 450 -62 608 -62 208 -64 226 -64 424 0
248 17 570 43 798 28 253 33 406 19 584 -7 83 -12 210 -13 281 0 141 8 181 92
475 60 211 122 515 136 673 3 42 9 77 13 77 3 0 29 -13 57 -30 101 -58 183
-183 209 -320 23 -127 130 -472 171 -553 64 -126 227 -267 352 -303 65 -19
152 -15 201 10 26 14 38 15 74 5 55 -15 118 -5 167 26 68 43 194 205 235 304
44 102 88 271 105 396 6 50 23 132 37 184 36 133 31 164 -51 325 l-67 131 -14
205 c-7 113 -28 294 -44 402 -35 224 -39 348 -15 483 13 75 23 101 59 156 64
97 110 213 125 311 17 116 -33 222 -189 398 -138 156 -210 256 -244 340 -31
76 -52 148 -46 155 3 2 63 11 134 21 216 27 359 78 608 215 411 225 671 450
776 672 100 211 112 299 42 305 -38 4 -56 -7 -220 -130 -180 -136 -431 -267
-691 -361 -292 -105 -604 -187 -908 -237 -59 -10 -152 7 -152 27 0 7 -6 10
-14 7 -10 -4 -15 9 -20 46 -5 34 -11 48 -18 44 -7 -5 -9 0 -6 14 4 12 3 20 -2
17 -4 -3 -10 2 -14 10 -3 8 11 43 31 76 130 223 179 378 208 668 28 285 16
500 -32 553 -21 24 -80 23 -118 -1z m-5225 -4875 c0 -2 -7 -7 -16 -10 -8 -3
-12 -2 -9 4 6 10 25 14 25 6z m-235 -156 c-3 -5 -12 -10 -18 -10 -7 0 -6 4 3
10 19 12 23 12 15 0z m437 -97 c-54 -33 -63 -27 -18 13 28 24 42 31 47 22 5
-8 -6 -20 -29 -35z m-587 17 c-3 -5 -12 -10 -18 -10 -7 0 -6 4 3 10 19 12 23
12 15 0z m610 -56 c-16 -13 -36 -24 -44 -24 -8 0 3 13 25 29 46 35 63 30 19
-5z m-240 6 c-3 -5 -11 -10 -16 -10 -6 0 -7 5 -4 10 3 6 11 10 16 10 6 0 7 -4
4 -10z m155 -70 c0 -5 -1 -10 -3 -10 -1 0 -17 -4 -35 -9 -36 -11 -35 4 2 19
29 12 36 12 36 0z m-835 -21 c-52 -24 -80 -24 -35 1 19 11 44 19 55 19 13 0 7
-7 -20 -20z m755 16 c0 -7 -81 -27 -87 -21 -3 3 10 9 28 15 39 11 59 13 59 6z
m-250 -20 c0 -6 -56 -35 -67 -35 -4 0 6 9 22 20 29 19 45 25 45 15z m45 -15
c-4 -6 -33 -24 -65 -40 -32 -16 -65 -39 -74 -51 -11 -16 -29 -23 -67 -27 -37
-3 -50 -2 -45 6 11 19 92 63 169 92 82 32 91 34 82 20z m-219 -48 c-11 -19
-97 -63 -114 -60 -11 2 6 17 48 40 62 36 79 40 66 20z m-276 -81 c0 -12 -27
-22 -68 -28 -22 -2 -31 0 -27 7 3 5 16 10 28 10 12 0 29 5 37 10 19 12 30 13
30 1z m345 -26 c-22 -14 -47 -25 -55 -25 -27 0 56 48 85 49 6 0 -8 -11 -30
-24z m95 6 c0 -10 -36 -21 -65 -20 -16 0 -13 4 10 14 35 16 55 19 55 6z m2171
-1754 c16 -130 23 -250 23 -372 1 -162 -2 -191 -26 -290 -15 -60 -33 -161 -40
-223 -17 -154 -29 -116 -32 103 -2 115 -8 193 -19 240 -30 124 -20 484 19 753
8 57 18 111 22 120 8 21 22 -68 53 -331z"/>
<path d="M3255 6560 c-8 -13 5 -13 25 0 13 8 13 10 -2 10 -9 0 -20 -4 -23 -10z"/>
<path d="M3795 6263 c-11 -3 -24 -9 -29 -14 -16 -15 26 -10 54 6 25 14 14 17
-25 8z"/>
<path d="M3465 6080 c-3 -6 1 -7 9 -4 18 7 21 14 7 14 -6 0 -13 -4 -16 -10z"/>
<path d="M3346 6043 c-10 -3 -24 -9 -30 -14 -6 -5 -22 -18 -36 -29 -17 -15 -5
-11 40 11 36 17 67 33 69 35 5 5 -18 3 -43 -3z"/>
</g>
</svg>
