<?xml version="1.0" standalone="no"?>
<!DOCTYPE svg PUBLIC "-//W3C//DTD SVG 20010904//EN"
 "http://www.w3.org/TR/2001/REC-SVG-20010904/DTD/svg10.dtd">
<svg version="1.0" xmlns="http://www.w3.org/2000/svg"
 width="1280.000000pt" height="779.000000pt" viewBox="0 0 1280.000000 779.000000"
 preserveAspectRatio="xMidYMid meet">
<metadata>
Created by potrace 1.15, written by Peter Selinger 2001-2017
</metadata>
<g transform="translate(0.000000,779.000000) scale(0.100000,-0.100000)"
fill="#000000" stroke="none">
<path d="M114 7784 c-44 -10 -56 -38 -61 -136 -6 -113 12 -169 89 -278 211
-301 568 -531 1303 -840 399 -167 434 -179 709 -230 155 -28 181 -36 300 -91
375 -174 612 -254 966 -329 58 -12 110 -27 117 -32 10 -8 153 -27 206 -28 9 0
17 -4 17 -10 0 -5 -9 -10 -21 -10 -11 0 -91 -11 -177 -25 -86 -14 -213 -35
-282 -46 -781 -124 -1021 -165 -1370 -235 -524 -105 -909 -214 -1245 -356
-148 -62 -447 -212 -535 -268 -101 -65 -152 -120 -121 -132 5 -1 17 -21 27
-43 13 -26 31 -46 54 -57 109 -53 445 -72 1040 -58 631 15 1239 39 1285 51 22
6 85 26 140 46 108 37 116 37 239 4 130 -35 361 -47 610 -32 301 18 561 46
786 86 107 19 335 57 505 85 718 117 955 172 1150 265 96 46 167 100 189 144
11 22 11 43 1 131 -16 131 -22 153 -52 214 -28 56 -24 75 30 139 l32 38 42
-64 c24 -36 67 -87 97 -114 l54 -49 -15 -35 c-26 -61 -52 -176 -64 -285 -15
-147 0 -431 87 -1609 60 -816 64 -923 47 -1146 -20 -265 -30 -1720 -14 -1934
21 -265 49 -500 59 -491 2 3 13 61 23 128 19 133 33 184 42 158 7 -18 21 -98
38 -208 7 -45 16 -79 20 -75 9 10 32 220 59 524 14 161 13 1037 -2 1461 -24
666 -17 973 37 1598 9 108 68 961 86 1245 17 278 -3 499 -57 634 -15 39 -16
45 -2 55 36 26 96 85 132 129 l39 48 33 -47 c19 -26 34 -55 34 -65 0 -10 -12
-40 -26 -69 -35 -70 -63 -283 -44 -330 27 -66 192 -160 385 -219 175 -54 433
-104 1020 -201 204 -33 418 -69 476 -80 261 -49 827 -96 1039 -85 157 7 307
27 369 49 62 23 88 20 198 -18 54 -19 116 -39 138 -45 47 -12 792 -40 1296
-49 554 -11 893 6 1005 49 40 15 72 47 79 78 3 15 15 33 25 41 11 8 20 19 20
25 0 63 -481 320 -850 455 -451 165 -1043 297 -2040 454 -85 13 -301 48 -480
77 -179 29 -349 53 -378 53 -79 0 -30 15 88 27 52 6 99 14 105 19 6 5 76 23
156 40 325 69 554 147 883 302 154 72 201 86 476 138 143 26 200 46 530 182
335 138 727 331 889 438 256 168 431 342 518 515 33 64 36 77 35 150 -1 44 -4
99 -8 122 -6 40 -9 44 -46 54 -23 6 -64 8 -92 4 -179 -22 -1004 -169 -1245
-221 -162 -35 -639 -155 -891 -225 -530 -147 -1092 -258 -1775 -349 -593 -79
-933 -133 -1221 -195 -91 -20 -168 -34 -170 -32 -3 2 -7 28 -11 56 -3 28 -9
54 -14 56 -4 3 -65 -47 -136 -111 -84 -76 -147 -125 -181 -141 l-54 -24 -35
32 c-20 17 -54 39 -77 49 -53 22 -164 50 -201 50 l-29 0 34 29 c35 29 36 29
195 33 147 3 164 6 205 28 181 100 70 450 -167 530 -37 13 -84 36 -103 51 -73
59 -229 94 -357 79 -97 -11 -140 -24 -208 -66 -33 -20 -88 -45 -122 -55 -68
-21 -167 -89 -208 -143 -51 -67 -74 -142 -72 -231 3 -95 23 -137 79 -166 48
-25 147 -39 276 -39 56 0 102 -4 102 -8 0 -5 15 -15 32 -24 l33 -15 -50 -7
c-28 -4 -78 -16 -112 -27 -62 -20 -153 -74 -153 -90 0 -32 -60 10 -222 157
l-183 167 -13 -84 c-7 -46 -14 -85 -16 -87 -2 -1 -39 6 -82 17 -239 60 -670
130 -1354 221 -360 48 -478 67 -785 125 -421 81 -710 147 -980 225 -142 41
-665 174 -825 209 -314 70 -1155 217 -1285 225 -38 2 -80 2 -91 0z m6292 -931
c-11 -11 -17 4 -9 23 7 18 8 18 11 1 2 -10 1 -21 -2 -24z m-684 -116 c59 -53
106 -97 103 -97 -3 0 -58 22 -123 49 -64 27 -127 52 -138 55 -14 4 -21 13 -18
24 1 9 6 39 9 66 l7 48 26 -24 c15 -13 75 -68 134 -121z m1530 52 c3 -31 0
-42 -12 -46 -8 -3 -49 -18 -90 -33 -41 -16 -75 -28 -76 -27 -3 4 159 147 167
147 4 0 9 -19 11 -41z m-4759 -1256 c-7 -2 -19 -2 -25 0 -7 3 -2 5 12 5 14 0
19 -2 13 -5z m7714 1 c-3 -3 -12 -4 -19 -1 -8 3 -5 6 6 6 11 1 17 -2 13 -5z
m-7758 -8 c-7 -6 -330 -58 -335 -54 -2 3 60 16 138 30 134 24 207 33 197 24z
m7824 -3 c-7 -2 -21 -2 -30 0 -10 3 -4 5 12 5 17 0 24 -2 18 -5z m227 -33
c201 -35 224 -39 218 -45 -4 -4 -375 57 -418 69 -54 14 52 1 200 -24z"/>
</g>
</svg>
