<?xml version="1.0" standalone="no"?>
<!DOCTYPE svg PUBLIC "-//W3C//DTD SVG 20010904//EN"
 "http://www.w3.org/TR/2001/REC-SVG-20010904/DTD/svg10.dtd">
<svg version="1.0" xmlns="http://www.w3.org/2000/svg"
 width="1094.000000pt" height="1280.000000pt" viewBox="0 0 1094.000000 1280.000000"
 preserveAspectRatio="xMidYMid meet">
<metadata>
Created by potrace 1.15, written by Peter Selinger 2001-2017
</metadata>
<g transform="translate(0.000000,1280.000000) scale(0.100000,-0.100000)"
fill="#000000" stroke="none">
<path d="M9321 12789 c-162 -27 -339 -109 -693 -323 -309 -185 -387 -219 -508
-220 -73 0 -97 5 -165 32 -118 47 -151 42 -178 -26 -22 -54 -32 -197 -18 -248
11 -41 13 -42 104 -77 161 -62 238 -78 394 -84 135 -5 147 -4 230 21 128 40
226 79 433 173 234 107 308 137 392 156 62 14 68 14 95 -4 15 -11 44 -24 63
-29 22 -6 57 -32 93 -68 53 -53 60 -66 78 -138 44 -174 -12 -326 -185 -499
-89 -89 -248 -215 -271 -215 -6 0 -26 -11 -45 -25 -31 -23 -42 -25 -146 -25
l-113 0 -98 63 c-174 113 -385 234 -523 301 -311 150 -495 162 -772 50 l-113
-46 -90 21 c-193 44 -323 55 -650 55 -254 1 -327 -2 -402 -16 -125 -24 -192
-51 -247 -100 -59 -51 -78 -89 -116 -229 -17 -61 -36 -121 -42 -133 -25 -49
-77 -103 -216 -224 -189 -167 -340 -324 -422 -440 -165 -234 -309 -551 -356
-782 -24 -122 -16 -268 19 -336 46 -90 146 -155 264 -171 24 -3 46 -10 49 -15
11 -17 -156 -274 -255 -392 -79 -95 -165 -166 -246 -206 -33 -16 -71 -36 -85
-44 -14 -7 -56 -28 -95 -46 -38 -17 -83 -38 -100 -47 -16 -8 -54 -19 -83 -23
-29 -5 -68 -16 -85 -25 -18 -9 -61 -24 -97 -35 -62 -18 -85 -25 -230 -75 -77
-27 -136 -47 -205 -70 -27 -9 -75 -27 -105 -41 -30 -13 -100 -35 -155 -50
-199 -52 -726 -250 -1002 -377 -370 -171 -617 -363 -779 -607 -71 -106 -188
-328 -237 -450 -15 -36 -78 -272 -141 -525 -136 -545 -140 -577 -140 -1085 0
-420 25 -615 134 -1055 70 -280 83 -320 103 -319 21 2 21 0 2 -64 -13 -44 -34
-71 -128 -170 -157 -165 -274 -301 -304 -353 -13 -24 -40 -62 -58 -85 -19 -23
-42 -61 -51 -85 -10 -24 -25 -55 -33 -69 -13 -20 -16 -57 -16 -200 0 -164 2
-180 28 -258 15 -46 27 -97 27 -115 0 -18 12 -63 25 -102 14 -38 25 -83 25
-98 0 -15 7 -56 16 -91 15 -61 15 -68 -5 -147 -20 -78 -25 -88 -84 -147 -34
-36 -80 -77 -101 -93 -39 -29 -40 -29 -178 -29 -129 0 -143 -2 -191 -26 -29
-14 -59 -31 -68 -37 -15 -12 -54 -83 -98 -177 -22 -49 -55 -74 -112 -84 -40
-7 -62 -25 -51 -42 15 -21 69 -52 112 -64 25 -6 65 -18 90 -26 94 -32 196 -12
360 69 72 36 103 60 206 162 73 71 133 140 148 170 15 28 46 82 68 120 40 67
42 74 46 170 3 83 0 109 -16 151 -12 28 -26 80 -32 115 -6 35 -18 76 -26 91
-8 15 -23 72 -34 127 -11 54 -27 118 -35 141 -17 47 -19 187 -5 260 14 72 47
155 93 231 49 83 272 306 339 340 55 28 247 215 254 248 4 14 18 44 32 65 25
36 27 47 27 145 0 95 -3 112 -28 165 -26 57 -27 63 -27 236 0 212 4 240 35
240 29 0 47 -22 75 -95 31 -78 111 -216 159 -274 21 -25 51 -66 68 -91 44 -64
117 -131 193 -177 117 -72 244 -140 282 -153 21 -6 40 -15 43 -20 3 -5 31 -16
62 -25 32 -9 78 -28 103 -42 58 -32 188 -159 248 -243 26 -36 71 -96 100 -135
29 -38 71 -108 93 -155 23 -47 81 -166 131 -265 l90 -179 -4 -161 c-6 -216
-19 -261 -168 -570 -29 -60 -59 -121 -67 -135 -7 -14 -25 -47 -38 -75 -14 -27
-40 -77 -59 -110 -68 -119 -95 -185 -105 -261 -6 -41 -15 -84 -21 -94 -5 -10
-17 -49 -26 -86 -8 -37 -24 -84 -35 -105 -15 -30 -19 -59 -19 -139 0 -56 5
-111 11 -123 22 -43 65 -79 129 -109 59 -26 80 -30 219 -39 86 -5 192 -18 239
-29 46 -11 92 -20 101 -20 32 0 51 -34 60 -107 11 -85 26 -117 85 -171 85 -78
275 -149 441 -163 55 -5 127 -18 160 -29 54 -19 83 -20 423 -20 l365 0 51 39
c28 21 69 48 92 59 46 23 94 86 94 123 0 13 -9 51 -19 84 -10 33 -22 84 -26
113 -6 49 -14 62 -90 147 -94 106 -149 187 -177 259 -11 27 -26 59 -34 70 -10
14 -14 50 -15 121 -1 211 -16 388 -38 452 -19 56 -21 87 -23 335 l-2 273 27
52 c15 29 27 58 27 64 0 11 12 39 80 184 60 129 80 175 80 187 0 7 12 40 25
73 19 46 27 91 35 195 6 79 18 158 29 190 11 34 21 102 25 175 4 66 14 168 22
227 14 100 13 115 -5 225 -11 65 -23 149 -27 186 l-7 69 64 62 c68 65 175 127
244 140 21 4 56 17 78 27 21 11 62 23 90 26 29 4 72 17 96 30 24 12 56 23 70
23 21 0 319 136 371 170 8 5 41 23 72 40 31 16 72 43 90 58 18 16 60 46 92 66
85 54 253 222 354 353 115 150 207 286 239 352 19 40 70 98 204 232 98 99 184
179 190 179 7 0 37 -20 67 -45 30 -25 60 -45 67 -45 6 0 31 -14 53 -30 23 -17
46 -30 52 -30 6 0 34 -13 63 -30 30 -17 59 -30 66 -30 7 0 26 -9 42 -21 43
-30 194 -51 283 -38 l70 9 105 103 c113 109 192 159 271 172 25 4 59 15 75 25
17 10 55 21 85 25 30 4 71 15 90 25 19 9 55 20 80 24 24 4 58 16 76 26 17 11
67 26 111 34 44 8 93 21 109 29 16 8 49 18 74 22 39 6 50 3 85 -22 71 -51 133
-83 160 -83 31 0 70 -38 100 -96 11 -21 30 -52 41 -69 12 -16 25 -41 29 -55 4
-14 16 -38 27 -53 14 -19 22 -54 27 -111 6 -62 14 -91 29 -111 11 -14 26 -41
32 -59 14 -42 78 -80 123 -73 116 18 264 92 364 181 26 24 68 55 92 71 59 37
136 110 163 154 12 20 44 62 70 95 27 32 60 79 75 105 14 25 36 62 49 82 26
39 30 66 13 102 -19 41 -53 49 -239 57 -152 6 -180 10 -215 28 -21 12 -51 22
-66 22 -35 0 -108 58 -108 86 -2 52 42 61 348 74 201 9 250 14 280 29 20 10
48 21 63 25 15 3 44 17 64 31 25 17 50 25 80 25 54 0 70 16 79 81 l7 51 -166
168 c-100 100 -166 175 -166 187 0 10 -11 34 -24 52 -18 24 -26 51 -31 104 -4
40 -16 90 -26 111 -11 21 -25 77 -30 123 -5 47 -18 102 -29 123 -13 25 -20 59
-20 95 0 52 -4 62 -44 113 -93 119 -324 321 -428 375 l-73 37 -154 0 c-141 0
-157 -2 -189 -22 -20 -12 -62 -25 -94 -29 -38 -4 -73 -16 -98 -33 -22 -14 -50
-26 -63 -26 -14 0 -36 -9 -50 -20 -14 -11 -28 -20 -32 -20 -7 0 -85 -34 -220
-95 -61 -27 -184 -37 -334 -26 -80 6 -105 11 -113 24 -5 9 -34 29 -64 44 -65
32 -219 186 -259 259 -14 27 -32 60 -40 74 -40 73 -66 136 -71 174 -6 47 -57
157 -91 199 -13 16 -23 35 -23 42 0 8 -22 42 -50 76 l-50 62 0 198 0 199 28 6
c229 51 482 128 573 175 60 30 139 107 161 157 21 47 4 45 163 21 93 -14 113
-12 129 14 13 19 12 39 -9 172 -13 83 -25 163 -27 178 -3 26 9 35 209 160
l213 133 87 -9 c119 -12 381 -2 473 18 155 34 288 93 448 199 92 61 108 79 96
110 -15 38 -38 37 -206 -3 -226 -56 -324 -71 -447 -71 -171 0 -169 -10 -26
155 427 494 581 826 562 1214 -23 467 -305 947 -645 1098 -110 48 -241 63
-371 42z m-3236 -1335 c-36 -28 -61 -36 -30 -10 17 14 35 26 40 26 6 -1 1 -8
-10 -16z"/>
</g>
</svg>
