<?xml version="1.0" standalone="no"?>
<!DOCTYPE svg PUBLIC "-//W3C//DTD SVG 20010904//EN"
 "http://www.w3.org/TR/2001/REC-SVG-20010904/DTD/svg10.dtd">
<svg version="1.0" xmlns="http://www.w3.org/2000/svg"
 width="1030.000000pt" height="1280.000000pt" viewBox="0 0 1030.000000 1280.000000"
 preserveAspectRatio="xMidYMid meet">
<metadata>
Created by potrace 1.15, written by Peter Selinger 2001-2017
</metadata>
<g transform="translate(0.000000,1280.000000) scale(0.100000,-0.100000)"
fill="#000000" stroke="none">
<path d="M3834 12770 c-81 -40 -204 -167 -229 -235 -53 -146 -143 -206 -421
-279 -72 -19 -157 -45 -188 -58 -66 -27 -363 -246 -452 -333 -79 -77 -139
-171 -166 -258 -17 -56 -20 -86 -16 -156 7 -118 20 -139 115 -192 70 -38 89
-43 186 -54 125 -14 149 -28 151 -90 l1 -38 -110 -42 c-60 -23 -191 -72 -290
-110 -441 -167 -761 -378 -1096 -721 -517 -532 -844 -1250 -934 -2054 -13
-113 -15 -190 -10 -350 10 -288 -5 -359 -160 -765 -46 -122 -77 -219 -85 -270
-6 -44 -29 -168 -50 -276 -64 -328 -74 -407 -74 -609 0 -143 5 -219 22 -335
192 -1267 567 -2271 1209 -3238 69 -103 134 -211 145 -240 38 -98 35 -196 -11
-424 -61 -301 -56 -366 43 -518 73 -111 161 -199 246 -245 62 -33 70 -34 175
-35 125 -2 162 -11 343 -84 149 -60 215 -75 297 -66 49 5 64 3 74 -9 9 -11 31
-16 65 -17 28 0 60 -4 71 -8 13 -5 30 -2 50 11 16 10 34 18 40 18 5 0 41 -34
81 -75 77 -81 92 -86 151 -58 48 22 77 72 108 183 15 52 29 98 32 103 3 5 15
0 27 -11 53 -49 156 -82 259 -82 48 0 67 -4 67 -13 0 -19 50 -117 60 -117 5 0
36 25 69 56 90 83 160 204 191 332 9 35 15 42 28 37 68 -27 206 -27 275 0 12
5 17 2 17 -9 0 -28 29 -74 51 -81 28 -9 74 12 87 39 6 13 13 45 17 72 10 77
26 116 57 147 69 69 89 158 83 370 -5 168 -17 200 -114 298 -88 88 -208 148
-383 191 l-127 32 164 160 c226 222 285 323 285 486 0 64 -2 71 -39 117 -21
26 -71 79 -110 118 -70 69 -71 70 -71 122 0 48 40 176 59 187 3 2 46 -6 94
-19 190 -51 327 -61 1097 -75 660 -13 940 -9 1060 14 111 22 211 52 282 83 55
24 59 25 83 9 36 -24 51 -52 74 -138 12 -43 21 -80 21 -84 0 -3 -33 -38 -74
-78 -86 -82 -101 -119 -94 -231 6 -85 31 -144 89 -212 24 -28 69 -79 99 -114
30 -35 95 -100 144 -144 304 -273 322 -296 369 -488 l35 -137 -27 -19 c-35
-25 -138 -76 -181 -90 -108 -35 -183 -42 -507 -50 l-332 -9 -55 -37 c-113 -75
-192 -192 -203 -299 -5 -49 -3 -60 15 -79 12 -12 28 -39 37 -60 21 -50 11 -83
-56 -193 -41 -67 -53 -96 -57 -138 -4 -45 -1 -56 23 -84 42 -50 78 -44 168 31
26 22 63 47 82 57 33 17 35 17 92 -11 32 -16 63 -29 69 -29 5 0 23 -13 38 -29
23 -24 28 -36 23 -59 -5 -22 -1 -34 14 -48 33 -30 41 -51 55 -161 15 -117 41
-176 87 -199 41 -22 59 -10 89 56 29 64 72 100 120 100 14 0 73 -16 129 -35
116 -39 185 -44 249 -19 40 16 42 16 65 -6 29 -27 41 -62 50 -144 6 -50 13
-66 40 -93 56 -56 101 -39 149 56 38 75 47 79 111 47 84 -41 193 -54 293 -34
134 27 277 104 324 176 62 92 208 212 345 281 64 32 113 86 113 126 0 13 18
31 49 52 26 17 62 53 80 79 56 85 63 125 71 394 6 217 9 251 28 300 32 81 98
193 194 327 159 224 381 609 508 883 123 264 202 474 274 726 84 296 120 481
135 696 14 183 36 298 107 558 32 113 60 235 65 271 44 382 58 1162 26 1462
-24 218 -60 424 -103 586 -20 75 -40 159 -46 186 -11 63 -2 282 23 535 32 322
35 502 10 752 -23 236 -39 341 -76 493 -165 694 -596 1310 -1178 1690 -62 40
-87 62 -83 72 3 8 6 16 6 17 0 2 27 24 59 51 37 29 68 64 80 90 11 23 27 45
35 48 25 10 66 92 107 213 43 127 48 193 28 354 -21 170 -66 287 -145 377 -41
48 -46 50 -103 56 -120 10 -241 90 -323 214 -25 37 -78 131 -118 208 -139 264
-229 365 -369 411 -64 21 -114 16 -233 -23 -85 -27 -89 -30 -143 -98 -74 -92
-145 -207 -275 -446 -59 -108 -133 -234 -164 -280 -89 -132 -72 -121 -162
-108 -44 7 -133 12 -199 12 -199 0 -292 -32 -445 -153 -172 -135 -305 -210
-457 -257 -161 -49 -375 -34 -508 35 -16 8 -85 67 -153 131 -167 157 -186 166
-332 165 -105 0 -127 -4 -259 -43 -79 -23 -149 -45 -156 -47 -16 -6 -62 104
-99 235 -15 51 -42 130 -60 175 -19 44 -50 133 -71 196 -60 183 -124 308 -201
389 -77 82 -163 131 -229 131 -26 0 -64 -11 -101 -30z"/>
</g>
</svg>
