<?xml version="1.0" encoding="iso-8859-1"?>
<!-- Generator: Adobe Illustrator 16.0.4, SVG Export Plug-In . SVG Version: 6.00 Build 0)  -->
<!DOCTYPE svg PUBLIC "-//W3C//DTD SVG 1.1//EN" "http://www.w3.org/Graphics/SVG/1.1/DTD/svg11.dtd">
<svg version="1.1" id="fox_xA0_Image_1_" xmlns="http://www.w3.org/2000/svg" xmlns:xlink="http://www.w3.org/1999/xlink" x="0px"
	 y="0px" width="255.84px" height="99.84px" viewBox="0 0 255.84 99.84" style="enable-background:new 0 0 255.84 99.84;"
	 xml:space="preserve">
<g>
	<path style="fill:none;" d="M128.279,100.08c-42.319,0-84.639-0.004-126.959,0.022c-0.9,0-1.103-0.203-1.103-1.103
		c0.027-32.561,0.027-65.12,0-97.68c0-0.899,0.203-1.103,1.103-1.102c84.64,0.024,169.28,0.024,253.919,0
		c0.9,0,1.104,0.203,1.103,1.102c-0.026,32.56-0.026,65.12,0,97.68c0.001,0.899-0.202,1.103-1.103,1.103
		C212.92,100.076,170.6,100.08,128.279,100.08z M19.319,84.5c-0.166-0.255-0.24-0.345-0.29-0.447
		c-0.446-0.917-1.355-1.162-2.114-0.891c-0.825,0.295-0.617,1.199-0.334,1.886c0.486,1.182,1.294,2.268,2.058,3.174
		c0.9,1.067,2.419,1.661,4.029,1.836c1.871,0.203,3.724,0.237,5.59,0.172c0.842-0.029,1.657-0.141,2.425-0.562
		c2.882-1.583,5.484-3.484,7.721-5.941c3.085-3.389,6.09-6.844,9.103-10.296c1.648-1.888,3.89-3.088,6.546-2.926
		c2.784,0.171,5.479,0.717,8.096,1.803c3.018,1.254,5.96,2.677,8.98,3.903c1.917,0.779,4.056,1.69,6.142,0.827
		c2.285-0.946,4.36-0.136,6.316,0.56c1.928,0.686,3.743,0.433,5.605,0.32c0.804-0.048,1.619-0.47,2.267-1.02
		c2.391-2.029,3.545-4.931,4.614-7.667c0.787-2.016,1.462-4.12,2.424-6.062c1.17-2.363,2.353-4.718,5.432-5.403
		c3.217-0.716,6.261-1.117,9.419,0.306c1.863,0.839,3.542,1.96,5.348,2.869c1.434,0.723,2.51,1.921,3.771,2.828
		c2.834,2.041,6.184,3.205,9.378,4.614c1.125,0.497,2.307,0.738,3.497,1.023c1.646,0.394,3.182,1.226,4.785,1.811
		c3.027,1.104,6.078,2.143,9.099,3.262c0.762,0.283,1.651,0.163,2.287,0.904c0.845,0.984,2.034,1.164,3.282,1.059
		c0.339-0.028,0.792-0.265,0.999,0.124c0.535,1.001,1.445,0.593,2.223,0.665c0.311,0.029,0.792-0.177,0.918-0.032
		c0.906,1.032,1.811,0.371,2.721,0.083c0.461-0.146,0.927-0.231,1.415-0.209c0.56,0.026,0.898,0.257,0.591,0.817
		c-0.794,1.451,0.081,2.646,0.52,3.915c0.359,1.042,1.14,1.573,2.148,1.899c1.318,0.428,2.688,0.334,4.032,0.474
		c2.308,0.237,4.655,0.287,6.909-0.183c4.019-0.839,8.109-1.229,12.103-2.277c3.223-0.846,6.559-1.315,9.793-2.155
		c1.893-0.491,3.82-0.634,5.726-0.972c0.533-0.094,1.145-0.093,1.408,0.601c0.511,1.34,1.369,2.619,1.418,4.044
		c0.059,1.739,1.174,2.745,2.139,3.874c0.449,0.525,1.138,1.076,1.883,0.537c0.768-0.556,2.022-0.768,1.683-2.262
		c-0.264-1.161-0.185-2.387-0.52-3.552c-0.096-0.333-0.192-0.748,0.221-0.961c0.377-0.193,0.698,0.021,0.965,0.283
		c0.464,0.456,0.998,0.805,1.61,1.014c1.495,0.511,2.645,1.37,3.392,2.828c0.448,0.874,1.228,1.491,2.348,0.964
		c0.367-0.173,0.617,0.001,0.857,0.217c0.941,0.845,2.062,0.774,3.183,0.601c0.72-0.113,1.25-0.497,1.382-1.292
		c0.432-2.604-0.914-5.483-3.158-6.758c-1.391-0.79-2.658-1.753-3.906-2.748c-3.704-2.955-7.878-4.417-12.659-3.99
		c-1.192,0.105-2.333,0.03-3.462-0.634c-1.291-0.76-2.657-1.515-4.233-1.546c-1.678-0.033-3.356-0.036-5.034-0.003
		c-1.994,0.04-4.016-0.308-5.976,0.199c-1.337,0.346-2.698,0.293-4.039,0.494c-0.347,0.052-0.784,0.055-0.936-0.351
		c-0.138-0.366,0.059-0.839,0.349-0.952c1.333-0.518,2.279-1.642,3.659-2.142c1.062-0.385,2.265-0.738,2.866-2.064
		c0.268-0.59,0.672-1.664,1.71-1.556c1.585,0.166,3.148,0.567,4.697-0.233c0.387-0.199,1.032,0.057,1.197-0.557
		c0.14-0.517,0.042-1.089-0.371-1.437c-0.848-0.715-0.199-1.014,0.328-1.292c0.703-0.37,1.584-0.509,2.15-1.014
		c1.874-1.67,3.975-2.376,6.475-2.112c0.729,0.076,1.553-0.162,1.922-0.971c0.875-1.916,2.241-3.322,4.185-4.151
		c0.606-0.258,1.324-0.59,1.268-1.282c-0.145-1.761,0.916-2.73,2.129-3.616c1.8-1.313,3.607-2.619,5.421-3.911
		c2.809-2.001,5.546-4.13,9.051-4.97c0.981-0.235,1.951-0.118,2.855-0.367c3.599-0.988,4.901-4.234,6.647-7.023
		c0.091-0.145,0.034-0.391,0.022-0.588c-0.077-1.276-0.8-1.898-2.361-2.284c-4.483-1.107-9.112-1.079-13.645-1.802
		c-1.352-0.216-2.741-0.339-3.692-1.464c-1.43-1.69-2.891-3.305-5.116-3.967c-0.615-0.183-0.922-0.607-0.683-1.291
		c0.604-1.726-0.229-3.402-0.255-5.115c-0.019-1.16-0.063-2.482-0.763-3.582c-0.793-1.246-1.518-2.52-2.027-3.923
		c-0.37-1.016-1.641-1.136-2.17-0.206c-0.403,0.71-0.798,1.446-0.991,2.284c-0.312,1.353-0.741,2.685-1.658,3.846
		c-0.367-2.107-1.288-3.969-2.013-5.897c-0.294-0.783-0.779-1.577-1.618-1.592c-0.865-0.015-1.308,0.809-1.531,1.607
		c-0.264,0.94-0.82,1.726-1.25,2.58c-1.153,2.293-2.592,4.46-2.686,7.187c-0.077,2.264-0.323,2.424-2.527,2.912
		c-0.351,0.078-0.71,0.115-1.066,0.17c-1.625,0.252-3.182,0.698-4.706,1.345c-2.231,0.949-4.475,1.954-6.944,2.101
		c-2.669,0.159-5.3-0.1-7.972-0.417c-6.716-0.796-13.431-0.583-20.086,0.965c-2.825,0.657-5.632,1.47-8.549,1.75
		c-1.13,0.109-2.206-0.221-3.318-0.12c-2.146,0.194-4.304,0.279-6.408-0.284c-2.897-0.774-5.665-1.905-8.417-3.096
		c-3.432-1.485-7.102-2.281-10.652-3.424c-5.25-1.69-10.669-2.378-16.162-2.348c-3.818,0.021-7.622,0.189-11.376,1.19
		c-3.113,0.83-6.285,1.46-9.341,2.496c-1.031,0.35-1.968,0.421-3.033,0.205c-2.232-0.453-4.167-1.877-6.524-1.909
		c-0.627-0.009-1.275-0.152-1.873-0.354c-5.387-1.823-10.75-0.98-16.057,0.269c-3.557,0.837-6.39,3.146-9.292,5.241
		c-0.806,0.582-1.633,1.082-2.542,1.517c-1.889,0.905-3.724,1.963-5.303,3.361c-2.75,2.435-5.473,4.888-8.968,6.248
		c-3.206,1.248-6.448,0.842-9.606-0.027c-1.563-0.43-3.137-1.067-4.434-2.224c-0.562-0.502-1.433-0.684-2.188-0.938
		c-0.476-0.161-1.234-0.059-1.016,0.52c0.265,0.703,0.631,1.244,0.065,1.927c-0.04,0.048,0.03,0.275,0.104,0.314
		c0.58,0.305,0.333,0.526-0.007,0.853c-0.284,0.272-0.21,0.695-0.041,1.017c0.228,0.431,0.234,0.845,0.048,1.264
		c-0.319,0.718-0.183,1.422,0.085,2.096c0.614,1.549,1.12,3.138,2.234,4.464c0.466,0.555,1.304,1.069,1.255,1.81
		c-0.144,2.174,1.78,2.892,2.916,3.951c1.015,0.947,2.747,1.128,4.33,1.025c1.117-0.072,2.332-0.251,3.215,0.8
		c0.224,0.267,0.594,0.259,0.903,0.18c0.841-0.216,1.642-0.229,2.365,0.35c-0.1,0.202-0.543,0.181-0.47,0.556
		c0.037,0.186,0.209,0.207,0.378,0.217c1.367,0.082,2.729,0.355,4.041-0.412c0.552-0.323,1.169-0.458,1.778,0.28
		c0.319,0.387,1.045,0.668,1.845,0.418c0.641-0.2,1.236-0.565,1.902-0.653c1.548-0.204,3.033-0.528,4.348-1.46
		c0.68-0.481,1.416-0.981,2.202-1.201c4.713-1.312,8.551-4.121,12.077-7.302c1.995-1.799,4.138-3.425,6.055-5.308
		c0.81-0.795,1.627-0.702,2.427,0.047c0.545,0.51,1.284,3.642,0.903,4.367c-0.733,1.396-0.055,3.08-0.978,4.428
		c-0.099,0.145,0.07,0.458,0.082,0.695c0.039,0.771,0.32,1.668,0.023,2.283c-0.353,0.732-0.167,1.187,0.111,1.764
		c0.253,0.526,0.831,0.959,0.697,1.601c-0.349,1.669,0.674,2.792,1.515,3.98c0.515,0.729,1.607,1.017,0.733,2.44
		c-0.492,0.801-0.879,1.378-1.708,1.623c-1.148,0.339-2.306,0.709-3.486,0.862c-2.223,0.288-4.472,0.297-6.623-0.434
		c-1.829-0.621-3.59-1.304-5.057,0.653c-0.285,0.38-0.606,0.732-0.898,1.106c-1.011,1.294-1.641,1.471-3.113,0.705
		c-0.971-0.504-1.94-0.901-3.053-0.963c-1.366-0.075-2.512-0.646-3.504-1.617c-0.905-0.888-2.024-1.417-3.333-1.393
		c-0.908,0.018-1.165,0.438-0.758,1.235c0.162,0.317,0.383,0.606,0.6,0.893c0.103,0.136,0.33,0.404,0.415,0.09
		c0.145-0.535,0.447-0.535,0.792-0.33c0.358,0.214,0.176,0.581,0.08,0.87c-0.139,0.418-0.395,0.462-0.842,0.339
		c-0.966-0.265-1.416,0.172-1.133,1.093c0.231,0.752,0.527,1.473,1.129,2.074c1.826,1.828,4.293,2.224,6.562,3.062
		c0.8,0.295,1.581,0.3,2.212-0.589c0.316,0.975,0.115,1.705-0.431,2.253c-1.25,1.251-2.593,2.408-3.849,3.651
		c-0.758,0.752-1.631,1.495-2.079,2.423c-0.485,1.005-1.272,1.793-1.964,2.469c-1.897,1.855-4.218,3.162-6.781,4.049
		c-0.858,0.297-2.304,0.28-2.199,1.902c0.023,0.355-0.414,0.229-0.676,0.28c-2.182,0.423-3.624-1.287-5.441-1.906
		c-0.385-0.131-0.888-0.397-1.079-0.892c-0.279-0.721-0.914-1.143-1.477-0.681c-0.501,0.412-0.435,1.283,0.064,1.836
		C19.089,83.323,19.484,83.68,19.319,84.5z"/>
	<path style="fill-rule:evenodd;clip-rule:evenodd;" d="M19.319,84.5c0.166-0.82-0.229-1.177-0.615-1.604
		c-0.499-0.553-0.565-1.424-0.064-1.836c0.563-0.462,1.198-0.04,1.477,0.681c0.191,0.494,0.694,0.761,1.079,0.892
		c1.818,0.619,3.259,2.329,5.441,1.906c0.262-0.051,0.699,0.075,0.676-0.28c-0.105-1.622,1.341-1.605,2.199-1.902
		c2.563-0.887,4.884-2.193,6.781-4.049c0.691-0.676,1.479-1.464,1.964-2.469c0.447-0.928,1.32-1.671,2.079-2.423
		c1.256-1.243,2.6-2.4,3.849-3.651c0.546-0.548,0.748-1.278,0.431-2.253c-0.631,0.889-1.413,0.884-2.212,0.589
		c-2.27-0.838-4.736-1.233-6.562-3.062c-0.602-0.602-0.898-1.322-1.129-2.074c-0.283-0.921,0.167-1.357,1.133-1.093
		c0.447,0.123,0.703,0.079,0.842-0.339c0.097-0.289,0.279-0.656-0.08-0.87c-0.344-0.205-0.647-0.205-0.792,0.33
		c-0.085,0.314-0.312,0.046-0.415-0.09c-0.216-0.286-0.438-0.575-0.6-0.893c-0.407-0.797-0.149-1.218,0.758-1.235
		c1.309-0.024,2.428,0.505,3.333,1.393c0.992,0.972,2.138,1.542,3.504,1.617c1.112,0.062,2.082,0.459,3.053,0.963
		c1.473,0.766,2.103,0.589,3.113-0.705c0.292-0.374,0.614-0.727,0.898-1.106c1.467-1.957,3.228-1.274,5.057-0.653
		c2.15,0.73,4.4,0.722,6.623,0.434c1.18-0.153,2.337-0.523,3.486-0.862c0.829-0.245,1.216-0.822,1.708-1.623
		c0.874-1.424-0.218-1.712-0.733-2.44c-0.84-1.188-1.863-2.312-1.515-3.98c0.134-0.642-0.444-1.074-0.697-1.601
		c-0.278-0.578-0.463-1.032-0.111-1.764c0.297-0.615,0.015-1.512-0.023-2.283c-0.012-0.237-0.18-0.55-0.082-0.695
		c0.923-1.348,0.245-3.033,0.978-4.428c0.381-0.725-0.358-3.857-0.903-4.367c-0.8-0.749-1.617-0.842-2.427-0.047
		c-1.917,1.882-4.061,3.509-6.055,5.308c-3.526,3.181-7.364,5.99-12.077,7.302c-0.787,0.219-1.522,0.719-2.202,1.201
		c-1.314,0.932-2.8,1.256-4.348,1.46c-0.666,0.088-1.261,0.453-1.902,0.653c-0.8,0.25-1.526-0.031-1.845-0.418
		c-0.609-0.738-1.227-0.604-1.778-0.28c-1.312,0.768-2.674,0.494-4.041,0.412c-0.169-0.01-0.341-0.031-0.378-0.217
		c-0.074-0.375,0.37-0.354,0.47-0.556c-0.723-0.578-1.523-0.565-2.365-0.35c-0.31,0.079-0.679,0.087-0.903-0.18
		c-0.883-1.051-2.098-0.872-3.215-0.8c-1.583,0.103-3.315-0.078-4.33-1.025c-1.135-1.059-3.059-1.776-2.916-3.951
		c0.049-0.74-0.789-1.254-1.255-1.81c-1.114-1.326-1.62-2.915-2.234-4.464c-0.268-0.674-0.404-1.377-0.085-2.096
		c0.186-0.419,0.18-0.833-0.048-1.264c-0.169-0.321-0.243-0.745,0.041-1.017c0.34-0.326,0.587-0.548,0.007-0.853
		c-0.074-0.039-0.144-0.266-0.104-0.314c0.566-0.683,0.2-1.225-0.065-1.927c-0.218-0.579,0.54-0.68,1.016-0.52
		c0.755,0.254,1.625,0.436,2.188,0.938c1.297,1.157,2.871,1.794,4.434,2.224c3.159,0.869,6.4,1.275,9.606,0.027
		c3.495-1.36,6.219-3.813,8.968-6.248c1.58-1.398,3.415-2.457,5.303-3.361c0.908-0.435,1.736-0.935,2.542-1.517
		c2.902-2.095,5.735-4.404,9.292-5.241c5.308-1.249,10.67-2.092,16.057-0.269c0.598,0.202,1.246,0.346,1.873,0.354
		c2.357,0.032,4.292,1.456,6.524,1.909c1.065,0.217,2.002,0.145,3.033-0.205c3.056-1.036,6.228-1.667,9.341-2.496
		c3.754-1.001,7.558-1.169,11.376-1.19c5.493-0.031,10.913,0.658,16.162,2.348c3.551,1.143,7.22,1.939,10.652,3.424
		c2.752,1.19,5.52,2.322,8.417,3.096c2.104,0.562,4.262,0.478,6.408,0.284c1.112-0.101,2.188,0.229,3.318,0.12
		c2.917-0.28,5.724-1.093,8.549-1.75c6.655-1.548,13.37-1.761,20.086-0.965c2.672,0.316,5.303,0.575,7.972,0.417
		c2.47-0.147,4.713-1.152,6.944-2.101c1.524-0.647,3.081-1.093,4.706-1.345c0.356-0.055,0.716-0.093,1.066-0.17
		c2.204-0.488,2.45-0.648,2.527-2.912c0.094-2.727,1.532-4.894,2.686-7.187c0.43-0.854,0.986-1.64,1.25-2.58
		c0.224-0.798,0.666-1.622,1.531-1.607c0.839,0.015,1.324,0.809,1.618,1.592c0.725,1.929,1.646,3.791,2.013,5.897
		c0.917-1.162,1.346-2.493,1.658-3.846c0.193-0.838,0.588-1.574,0.991-2.284c0.529-0.93,1.8-0.81,2.17,0.206
		c0.51,1.403,1.234,2.677,2.027,3.923c0.699,1.099,0.744,2.421,0.763,3.582c0.026,1.713,0.858,3.389,0.255,5.115
		c-0.239,0.684,0.067,1.108,0.683,1.291c2.226,0.663,3.687,2.277,5.116,3.967c0.951,1.125,2.341,1.249,3.692,1.464
		c4.532,0.723,9.161,0.694,13.645,1.802c1.562,0.386,2.284,1.008,2.361,2.284c0.012,0.198,0.068,0.444-0.022,0.588
		c-1.746,2.789-3.049,6.036-6.647,7.023c-0.904,0.249-1.874,0.132-2.855,0.367c-3.505,0.84-6.242,2.969-9.051,4.97
		c-1.813,1.292-3.621,2.598-5.421,3.911c-1.213,0.886-2.273,1.854-2.129,3.616c0.057,0.692-0.661,1.024-1.268,1.282
		c-1.943,0.829-3.31,2.235-4.185,4.151c-0.369,0.809-1.192,1.047-1.922,0.971c-2.5-0.264-4.601,0.442-6.475,2.112
		c-0.566,0.505-1.447,0.644-2.15,1.014c-0.527,0.278-1.176,0.577-0.328,1.292c0.413,0.348,0.511,0.92,0.371,1.437
		c-0.165,0.613-0.811,0.357-1.197,0.557c-1.549,0.801-3.112,0.399-4.697,0.233c-1.038-0.108-1.442,0.966-1.71,1.556
		c-0.602,1.326-1.804,1.68-2.866,2.064c-1.38,0.5-2.326,1.624-3.659,2.142c-0.29,0.113-0.486,0.586-0.349,0.952
		c0.151,0.405,0.589,0.402,0.936,0.351c1.341-0.201,2.702-0.148,4.039-0.494c1.96-0.507,3.981-0.159,5.976-0.199
		c1.678-0.033,3.356-0.03,5.034,0.003c1.576,0.031,2.942,0.786,4.233,1.546c1.129,0.664,2.27,0.739,3.462,0.634
		c4.781-0.427,8.955,1.035,12.659,3.99c1.248,0.995,2.516,1.958,3.906,2.748c2.244,1.274,3.59,4.153,3.158,6.758
		c-0.132,0.795-0.662,1.179-1.382,1.292c-1.12,0.174-2.241,0.244-3.183-0.601c-0.24-0.216-0.49-0.39-0.857-0.217
		c-1.12,0.527-1.899-0.09-2.348-0.964c-0.747-1.458-1.896-2.317-3.392-2.828c-0.612-0.209-1.146-0.558-1.61-1.014
		c-0.267-0.262-0.588-0.477-0.965-0.283c-0.413,0.213-0.316,0.628-0.221,0.961c0.335,1.165,0.256,2.391,0.52,3.552
		c0.34,1.494-0.915,1.706-1.683,2.262c-0.745,0.539-1.434-0.012-1.883-0.537c-0.965-1.129-2.08-2.135-2.139-3.874
		c-0.049-1.425-0.907-2.704-1.418-4.044c-0.264-0.693-0.875-0.694-1.408-0.601c-1.905,0.338-3.833,0.48-5.726,0.972
		c-3.234,0.84-6.57,1.31-9.793,2.155c-3.993,1.049-8.084,1.438-12.103,2.277c-2.254,0.47-4.602,0.42-6.909,0.183
		c-1.345-0.14-2.714-0.046-4.032-0.474c-1.009-0.326-1.789-0.857-2.148-1.899c-0.438-1.269-1.313-2.464-0.52-3.915
		c0.308-0.561-0.031-0.791-0.591-0.817c-0.488-0.022-0.954,0.062-1.415,0.209c-0.91,0.288-1.814,0.949-2.721-0.083
		c-0.126-0.145-0.607,0.062-0.918,0.032c-0.777-0.072-1.688,0.336-2.223-0.665c-0.207-0.389-0.66-0.152-0.999-0.124
		c-1.248,0.105-2.438-0.074-3.282-1.059c-0.636-0.741-1.525-0.621-2.287-0.904c-3.021-1.119-6.071-2.158-9.099-3.262
		c-1.604-0.585-3.14-1.417-4.785-1.811c-1.19-0.285-2.372-0.526-3.497-1.023c-3.194-1.409-6.544-2.573-9.378-4.614
		c-1.26-0.907-2.336-2.105-3.771-2.828c-1.806-0.909-3.485-2.03-5.348-2.869c-3.158-1.423-6.202-1.021-9.419-0.306
		c-3.079,0.686-4.262,3.04-5.432,5.403c-0.962,1.942-1.637,4.047-2.424,6.062c-1.069,2.736-2.224,5.638-4.614,7.667
		c-0.648,0.55-1.463,0.972-2.267,1.02c-1.862,0.112-3.677,0.365-5.605-0.32c-1.956-0.695-4.031-1.506-6.316-0.56
		c-2.086,0.863-4.225-0.048-6.142-0.827c-3.02-1.227-5.962-2.649-8.98-3.903c-2.617-1.086-5.312-1.632-8.096-1.803
		c-2.656-0.162-4.898,1.038-6.546,2.926c-3.013,3.452-6.018,6.907-9.103,10.296c-2.237,2.457-4.839,4.358-7.721,5.941
		c-0.768,0.421-1.583,0.532-2.425,0.562c-1.866,0.065-3.719,0.031-5.59-0.172c-1.61-0.175-3.129-0.769-4.029-1.836
		c-0.764-0.906-1.572-1.992-2.058-3.174c-0.283-0.687-0.491-1.591,0.334-1.886c0.759-0.271,1.668-0.026,2.114,0.891
		C19.079,84.155,19.153,84.245,19.319,84.5z"/>
</g>
</svg>
