<?xml version="1.0" standalone="no"?>
<!DOCTYPE svg PUBLIC "-//W3C//DTD SVG 20010904//EN"
 "http://www.w3.org/TR/2001/REC-SVG-20010904/DTD/svg10.dtd">
<svg version="1.0" xmlns="http://www.w3.org/2000/svg"
 width="1280.000000pt" height="1208.000000pt" viewBox="0 0 1280.000000 1208.000000"
 preserveAspectRatio="xMidYMid meet">
<metadata>
Created by potrace 1.15, written by Peter Selinger 2001-2017
</metadata>
<g transform="translate(0.000000,1208.000000) scale(0.100000,-0.100000)"
fill="#000000" stroke="none">
<path d="M3593 12063 c-29 -8 -70 -31 -93 -50 -34 -29 -40 -41 -40 -73 0 -20
6 -43 14 -49 8 -7 17 -24 21 -38 3 -15 21 -44 39 -64 34 -37 102 -196 127
-299 10 -40 14 -130 13 -336 0 -258 -2 -288 -24 -375 -12 -52 -27 -111 -32
-131 -15 -63 -48 -82 -94 -55 -28 16 -230 212 -369 360 -66 70 -125 123 -148
133 -39 18 -40 18 -85 -6 -57 -30 -99 -90 -107 -151 -6 -44 -5 -47 37 -90 26
-27 61 -50 87 -59 55 -18 202 -138 272 -222 28 -34 96 -128 150 -210 55 -81
128 -178 162 -215 35 -38 94 -104 131 -148 37 -44 112 -123 166 -175 l98 -95
11 -70 c10 -66 32 -317 46 -540 13 -198 49 -434 101 -653 13 -56 31 -148 39
-205 35 -226 66 -274 218 -333 128 -50 157 -81 302 -319 147 -241 436 -673
493 -735 57 -63 123 -103 200 -119 77 -16 109 -36 133 -83 20 -39 21 -54 16
-158 -6 -133 -14 -158 -86 -256 -45 -62 -74 -122 -151 -314 -34 -85 -89 -397
-90 -507 0 -28 -7 -95 -16 -148 -14 -84 -15 -125 -6 -314 10 -185 16 -234 41
-332 60 -233 136 -396 237 -508 27 -31 94 -110 147 -176 53 -66 118 -144 143
-174 54 -65 86 -125 82 -154 -6 -42 -52 -56 -223 -66 -135 -9 -194 -18 -375
-61 -444 -104 -963 -251 -1127 -319 -135 -56 -296 -177 -357 -270 -118 -177
-146 -255 -146 -403 0 -113 18 -217 61 -347 49 -148 196 -459 333 -704 36 -65
66 -120 66 -122 0 -3 35 -78 79 -169 74 -155 144 -277 233 -408 59 -88 59 -89
-4 -73 -113 30 -504 87 -843 125 -213 24 -297 40 -356 70 -58 30 -64 50 -51
172 6 57 14 162 18 233 10 216 21 294 65 431 47 148 62 181 96 207 55 44 71
141 31 192 -22 29 -121 78 -193 96 -55 14 -107 -7 -130 -51 -14 -27 -16 -51
-10 -144 8 -134 -14 -260 -70 -400 -20 -48 -52 -143 -71 -210 -19 -66 -42
-132 -53 -146 -37 -51 -94 -32 -126 41 -10 24 -42 97 -71 161 -82 181 -132
378 -155 623 -13 133 -13 135 -3 256 8 101 -1 124 -54 146 -27 11 -55 13 -112
8 -148 -12 -230 -50 -230 -104 0 -37 49 -180 76 -221 27 -41 72 -177 114 -345
40 -162 59 -275 66 -403 6 -119 -7 -163 -57 -191 -46 -25 -71 -8 -206 141
-160 177 -209 237 -284 350 -32 49 -77 110 -98 136 -58 69 -97 163 -103 249
-9 123 -59 179 -158 177 -48 -1 -76 -10 -153 -47 -78 -38 -97 -52 -111 -81 -9
-19 -16 -43 -16 -54 0 -32 41 -83 118 -145 78 -63 95 -87 272 -377 155 -254
330 -572 330 -599 0 -19 -71 -17 -220 5 -85 13 -189 30 -230 39 -97 20 -420
127 -531 176 -47 20 -117 47 -156 58 -89 27 -228 110 -273 163 -19 23 -61 59
-94 80 -47 30 -69 38 -106 38 -43 0 -51 -4 -82 -38 -80 -88 -117 -223 -81
-292 27 -52 96 -83 202 -91 65 -4 99 -12 138 -32 29 -15 56 -27 60 -27 5 0 48
-22 96 -50 98 -54 210 -99 332 -131 218 -57 345 -105 575 -217 96 -46 199 -95
228 -109 37 -16 52 -28 50 -40 -7 -35 -32 -37 -149 -11 -63 15 -151 31 -196
37 -44 5 -135 28 -201 50 -67 23 -136 41 -155 41 -128 0 -177 -250 -63 -322
27 -17 40 -18 111 -12 162 16 261 10 415 -25 80 -18 192 -48 250 -66 58 -18
141 -39 185 -46 126 -20 366 -16 535 11 193 29 318 21 570 -39 140 -33 309
-49 775 -71 116 -6 316 -19 445 -30 349 -29 662 -23 775 15 168 58 257 184
256 365 0 214 -171 848 -326 1210 -149 348 -245 623 -245 701 0 36 2 39 28 39
15 0 65 -7 112 -15 105 -18 706 -65 829 -65 195 0 397 31 636 99 273 77 329
78 472 12 158 -72 260 -75 498 -16 106 27 154 33 555 65 338 28 542 59 683
106 27 9 50 14 53 12 2 -3 -51 -79 -117 -169 -201 -271 -296 -426 -345 -564
-26 -76 -25 -208 3 -261 45 -84 154 -155 271 -175 122 -22 261 21 527 161 94
50 288 148 433 219 310 153 406 206 568 317 205 138 230 150 442 204 122 32
258 84 624 239 337 143 454 181 592 192 127 11 170 28 198 79 39 75 15 210
-48 259 -48 38 -94 26 -216 -56 -73 -48 -127 -76 -179 -92 -41 -12 -117 -36
-169 -54 -68 -22 -114 -31 -162 -32 -60 0 -70 3 -95 27 -34 34 -37 27 123 270
186 283 252 368 415 528 103 102 163 171 204 233 31 49 80 116 107 150 27 34
53 67 56 73 4 6 27 21 52 34 52 25 115 83 136 122 34 65 10 141 -65 212 -94
87 -181 110 -239 61 -33 -28 -89 -136 -100 -192 -14 -72 -80 -181 -161 -266
-42 -45 -96 -107 -120 -137 -99 -128 -595 -627 -666 -671 -41 -25 -75 -25 -75
1 0 73 190 841 247 1000 9 25 29 61 44 81 39 49 79 137 79 172 0 76 -86 122
-230 122 -68 0 -92 -4 -120 -21 -75 -44 -98 -121 -66 -225 19 -61 6 -167 -30
-252 -14 -34 -38 -102 -53 -152 -27 -89 -54 -165 -85 -237 l-16 -37 -78 78
c-91 91 -179 140 -316 173 l-88 22 7 110 c4 61 8 153 9 204 l1 94 -33 29 c-38
34 -81 37 -191 14 -143 -30 -176 -57 -176 -144 1 -44 7 -68 31 -111 28 -50 61
-177 49 -189 -3 -2 -150 -22 -327 -42 -176 -21 -369 -45 -428 -54 -99 -15
-290 -55 -335 -70 -11 -4 21 33 71 81 51 49 108 114 127 144 36 56 128 287
146 370 21 93 60 369 66 465 4 55 13 147 21 205 22 155 10 416 -23 530 -25 87
-45 191 -38 199 2 2 81 -50 174 -115 94 -66 233 -159 308 -208 116 -75 160
-112 273 -226 156 -157 215 -195 310 -195 73 0 121 29 247 148 54 50 160 136
235 190 195 141 298 226 476 390 295 271 412 366 532 427 25 13 110 44 190 70
154 50 372 151 480 220 36 24 131 109 215 194 165 167 311 275 402 297 82 20
153 75 153 118 0 51 -21 101 -63 146 -36 40 -49 48 -88 52 -44 5 -49 3 -103
-46 -31 -28 -61 -51 -67 -51 -6 0 -45 -33 -87 -73 -42 -40 -102 -90 -132 -112
-30 -22 -83 -63 -116 -91 -105 -88 -139 -84 -104 12 12 32 30 91 39 131 13 50
44 119 103 225 47 84 104 190 126 235 73 144 221 292 364 362 63 31 76 42 95
81 19 38 21 51 13 81 -25 88 -144 173 -236 167 -43 -3 -51 -7 -81 -46 -18 -24
-37 -62 -44 -85 -6 -23 -19 -51 -28 -62 -10 -11 -38 -49 -62 -85 -24 -36 -80
-110 -124 -165 -45 -55 -116 -146 -159 -202 -139 -183 -203 -223 -351 -222
-85 0 -170 10 -181 22 -12 11 12 65 61 136 28 42 66 103 84 136 18 33 83 139
143 235 82 130 124 187 164 220 86 73 98 130 40 184 -59 56 -195 78 -253 41
-52 -33 -63 -54 -63 -132 0 -107 -7 -120 -216 -413 -26 -36 -88 -108 -138
-160 -62 -64 -115 -133 -163 -210 -93 -150 -131 -193 -199 -225 -113 -54 -231
-52 -452 5 -227 59 -309 89 -379 137 -149 103 -214 90 -289 -58 -34 -68 -33
-128 4 -167 32 -34 99 -56 142 -47 28 6 162 -24 303 -69 42 -14 104 -30 138
-36 97 -18 181 -47 232 -81 45 -30 97 -99 97 -130 0 -21 -121 -135 -240 -227
-117 -89 -189 -152 -406 -355 -110 -103 -165 -146 -217 -172 -94 -47 -131 -46
-227 6 -93 50 -117 73 -243 229 -136 168 -259 294 -322 330 -28 16 -84 56
-123 87 -39 32 -106 78 -149 102 -43 25 -106 66 -140 93 -66 52 -65 49 -79
183 -3 33 -12 89 -19 125 -7 36 -17 106 -20 156 -7 88 -6 93 26 165 22 50 34
95 37 137 5 76 -14 289 -35 391 -20 98 -14 133 49 287 47 116 52 137 52 205 1
67 -3 82 -29 125 -17 27 -53 65 -80 86 -27 20 -60 55 -73 77 -14 23 -35 44
-53 50 -16 5 -29 15 -29 20 0 6 -13 25 -30 44 -37 42 -153 249 -266 474 -80
160 -90 175 -144 217 -228 179 -481 213 -745 100 -85 -36 -89 -40 -218 -180
-137 -150 -327 -326 -412 -383 -27 -18 -52 -36 -55 -40 -3 -5 -18 -11 -34 -15
-17 -4 -46 -20 -65 -35 -20 -16 -58 -40 -86 -54 -61 -31 -108 -79 -131 -132
-20 -47 -29 -252 -14 -325 5 -25 13 -85 17 -135 l8 -90 -52 -116 c-79 -176
-104 -260 -114 -378 -7 -92 -13 -114 -47 -185 -22 -45 -82 -142 -134 -216 -52
-74 -100 -145 -107 -157 -16 -32 -37 -29 -87 12 -29 24 -58 63 -85 115 -32 62
-70 110 -181 227 -78 81 -175 182 -217 223 -54 53 -114 131 -206 270 -202 305
-271 495 -300 830 -8 96 -19 200 -25 230 -5 30 -14 87 -21 125 -6 39 -27 133
-46 210 -19 77 -40 190 -46 252 l-11 111 26 40 c15 22 61 102 103 178 116 210
168 277 268 347 25 18 94 76 153 130 72 64 133 109 180 132 101 50 151 110
139 165 -23 104 -216 197 -267 129 -9 -13 -25 -31 -34 -39 -27 -24 -42 -41
-85 -97 -22 -29 -81 -87 -132 -128 -50 -41 -143 -120 -206 -175 -63 -55 -115
-99 -117 -97 -2 2 1 19 6 38 6 19 21 124 35 234 62 491 124 685 245 770 76 53
86 128 28 199 -29 36 -122 91 -163 97 -38 6 -95 -12 -105 -32 -6 -11 -12 -66
-14 -122 -2 -96 -6 -111 -56 -242 -29 -77 -79 -198 -112 -270 -32 -71 -69
-152 -81 -180 -26 -59 -71 -113 -105 -126 -49 -19 -201 42 -258 103 -64 67
-83 130 -134 458 -12 74 -28 162 -36 195 -16 63 -47 240 -46 265 7 167 6 170
-59 209 -56 35 -95 38 -176 14z"/>
</g>
</svg>
