<?xml version="1.0" standalone="no"?>
<!DOCTYPE svg PUBLIC "-//W3C//DTD SVG 20010904//EN"
 "http://www.w3.org/TR/2001/REC-SVG-20010904/DTD/svg10.dtd">
<svg version="1.0" xmlns="http://www.w3.org/2000/svg"
 width="640.000000pt" height="1280.000000pt" viewBox="0 0 640.000000 1280.000000"
 preserveAspectRatio="xMidYMid meet">
<metadata>
Created by potrace 1.15, written by Peter Selinger 2001-2017
</metadata>
<g transform="translate(0.000000,1280.000000) scale(0.100000,-0.100000)"
fill="#000000" stroke="none">
<path d="M1364 12790 c-37 -15 -62 -58 -79 -138 -26 -124 -43 -166 -80 -202
-33 -32 -36 -33 -53 -17 -24 25 -20 86 12 176 30 87 33 122 9 143 -38 34 -155
40 -204 11 -58 -34 -79 -100 -93 -293 -8 -112 -17 -175 -26 -183 -10 -9 -13
-9 -17 0 -18 49 -85 90 -193 120 -91 25 -299 25 -354 0 -37 -16 -38 -18 -32
-54 20 -115 143 -280 272 -365 l62 -41 -39 -50 c-22 -27 -38 -54 -36 -60 1 -5
18 -15 36 -21 31 -10 35 -17 51 -79 l17 -68 -51 -77 c-29 -42 -105 -144 -169
-227 -65 -82 -133 -181 -152 -219 -60 -119 -42 -203 55 -253 50 -25 191 -50
230 -40 15 4 43 31 72 71 38 53 57 69 110 95 90 43 212 62 435 68 l191 6 15
-29 c8 -16 44 -112 80 -214 36 -102 75 -209 86 -239 12 -29 20 -59 18 -65 -2
-6 6 -35 19 -64 13 -29 49 -132 79 -230 85 -267 300 -917 360 -1087 175 -497
370 -950 498 -1154 59 -94 57 -122 -31 -391 -137 -419 -141 -436 -152 -735 -5
-132 -18 -319 -30 -415 -45 -391 -52 -479 -52 -700 0 -232 12 -347 52 -515 24
-102 36 -140 121 -361 38 -100 76 -208 84 -240 68 -253 71 -534 10 -964 -43
-297 -50 -451 -36 -750 10 -225 9 -293 -4 -450 -39 -477 -89 -820 -151 -1038
-14 -49 -61 -162 -109 -257 -93 -188 -121 -275 -131 -418 -5 -64 -12 -98 -23
-112 -84 -99 -242 -378 -257 -454 -5 -25 -2 -30 36 -45 24 -10 101 -21 189
-28 127 -10 161 -9 252 5 57 9 121 21 141 27 l36 11 4 182 c3 182 3 182 34
242 69 132 87 236 89 535 1 203 6 266 34 465 70 504 130 808 205 1041 82 253
107 440 106 769 -1 180 2 242 19 340 61 361 72 494 70 828 -3 302 3 366 57
597 31 135 84 323 93 333 20 20 190 -122 263 -221 102 -138 166 -362 243 -857
80 -517 103 -918 61 -1073 -34 -125 -28 -292 14 -450 31 -114 71 -183 141
-244 94 -82 99 -96 115 -342 8 -116 20 -268 28 -337 20 -184 -3 -390 -79 -705
-30 -124 -122 -416 -160 -508 -26 -61 -57 -248 -50 -303 l6 -51 52 -8 c84 -12
235 -6 295 12 31 8 75 29 98 45 24 16 45 29 48 29 9 0 7 -46 -4 -93 -5 -23
-11 -117 -13 -209 l-3 -167 45 -11 c117 -30 315 -21 432 19 65 21 68 31 44
139 -18 81 -107 331 -131 367 -7 12 -16 57 -18 101 -8 129 -44 267 -132 499
-31 83 -63 192 -78 266 -51 250 -72 631 -41 761 33 144 197 1370 225 1684 15
166 6 218 -85 474 -132 369 -160 495 -144 637 12 110 47 242 106 398 50 133
162 375 173 375 8 0 165 -363 234 -542 38 -100 44 -122 35 -150 -25 -89 -61
-306 -74 -456 -8 -92 -19 -203 -25 -247 -15 -124 1 -235 55 -372 25 -63 48
-132 51 -154 4 -21 1 -97 -6 -169 -7 -72 -10 -134 -6 -137 10 -10 58 107 64
154 5 47 21 68 23 31 5 -68 -5 -106 -37 -160 -19 -31 -34 -63 -34 -72 0 -37
113 -265 131 -266 4 0 -4 35 -18 78 -14 43 -27 114 -30 162 -5 83 -5 87 32
165 l38 79 -13 64 c-14 71 -9 86 15 48 18 -28 21 -78 10 -212 -7 -81 -1 -144
15 -144 12 0 18 47 35 260 23 296 20 397 -14 569 -17 80 -37 197 -46 259 -10
69 -32 157 -56 228 -22 64 -39 125 -37 137 3 25 102 -278 148 -453 72 -277 85
-406 65 -648 -22 -253 -10 -319 95 -519 45 -87 55 -118 86 -268 85 -418 217
-1184 251 -1463 14 -112 16 -163 9 -234 -9 -81 -7 -104 19 -234 l28 -145 -12
-167 c-7 -92 -18 -204 -25 -250 l-12 -83 25 -14 c53 -27 137 -45 211 -45 119
0 217 41 315 131 l43 39 -65 153 c-86 202 -124 315 -183 536 -126 469 -230
1096 -295 1776 -19 200 -19 287 0 445 25 207 21 355 -12 485 l-28 110 1 345
c0 247 7 437 23 670 28 403 38 933 22 1164 -27 401 -76 637 -201 971 -121 326
-251 550 -409 705 -110 109 -181 158 -480 331 -118 68 -282 169 -365 224
l-150 100 -64 125 c-300 586 -563 887 -948 1084 -96 49 -128 79 -235 221 -115
152 -316 468 -384 605 -91 181 -190 412 -206 477 -14 57 -32 93 -138 283 -44
80 -88 167 -97 195 -24 72 -57 135 -136 258 -63 97 -68 110 -55 125 30 34 60
108 68 166 4 34 17 94 28 134 27 98 43 230 33 266 -10 38 -48 49 -119 36 -64
-11 -100 -29 -134 -67 -39 -41 -49 -66 -49 -120 0 -26 -3 -58 -6 -70 l-6 -22
-40 20 c-48 24 -73 75 -64 128 3 20 22 85 41 146 54 170 46 212 -47 240 -57
17 -92 18 -124 5z"/>
</g>
</svg>
