<?xml version="1.0" standalone="no"?>
<!DOCTYPE svg PUBLIC "-//W3C//DTD SVG 20010904//EN"
 "http://www.w3.org/TR/2001/REC-SVG-20010904/DTD/svg10.dtd">
<svg version="1.0" xmlns="http://www.w3.org/2000/svg"
 width="1280.000000pt" height="794.000000pt" viewBox="0 0 1280.000000 794.000000"
 preserveAspectRatio="xMidYMid meet">
<metadata>
Created by potrace 1.15, written by Peter Selinger 2001-2017
</metadata>
<g transform="translate(0.000000,794.000000) scale(0.100000,-0.100000)"
fill="#000000" stroke="none">
<path d="M4957 7262 c-9 -10 -23 -36 -30 -57 -9 -27 -25 -46 -49 -60 -49 -28
-88 -61 -88 -74 0 -6 -34 -40 -76 -76 -80 -67 -133 -137 -154 -200 -7 -20 -19
-39 -27 -42 -8 -3 -34 9 -58 26 -24 17 -55 31 -69 31 -13 0 -27 4 -31 9 -3 6
-17 4 -33 -5 -15 -7 -38 -14 -52 -14 -30 0 -75 -47 -97 -102 -13 -34 -26 -43
-109 -84 -52 -26 -94 -50 -94 -54 0 -4 -22 -21 -49 -37 -36 -23 -55 -44 -77
-88 -16 -31 -62 -95 -101 -141 -74 -86 -113 -149 -113 -181 0 -10 -36 -66 -79
-124 -82 -110 -121 -176 -121 -205 0 -17 -45 -74 -154 -192 -34 -37 -93 -121
-133 -187 -80 -134 -85 -145 -110 -233 -17 -60 -22 -66 -96 -125 -48 -37 -87
-76 -99 -101 -23 -45 -58 -79 -146 -142 l-62 -45 -76 10 c-41 6 -116 11 -165
11 -81 0 -96 -3 -150 -31 -69 -36 -79 -51 -54 -79 21 -24 71 -26 99 -5 12 9
42 15 72 15 46 0 61 -6 116 -43 75 -52 81 -71 45 -167 -14 -36 -30 -90 -36
-121 -12 -55 -14 -58 -74 -93 -102 -61 -114 -72 -100 -95 7 -12 13 -36 13 -55
0 -29 -7 -39 -47 -69 -27 -19 -66 -42 -88 -51 -22 -9 -56 -28 -75 -41 -74 -51
-283 -72 -468 -45 -104 15 -190 9 -277 -17 -58 -18 -60 -20 -80 -73 -27 -71
-49 -83 -143 -76 -77 5 -92 -4 -92 -52 0 -17 10 -20 73 -26 39 -4 102 -17 139
-28 65 -21 68 -21 88 -3 21 19 40 73 40 116 0 22 7 28 42 38 60 18 211 24 298
12 41 -6 136 -18 210 -26 74 -8 142 -18 150 -20 30 -9 88 -75 94 -106 15 -76
9 -96 -38 -129 -58 -39 -82 -74 -108 -156 -23 -75 -19 -84 39 -75 31 5 41 14
66 56 38 67 72 101 123 125 52 26 215 183 284 275 29 39 74 92 99 118 25 26
63 76 84 110 21 34 46 69 57 77 10 8 40 56 66 105 26 50 55 106 65 125 11 20
28 60 38 90 21 61 96 160 120 160 9 0 45 -18 81 -40 36 -22 75 -40 87 -40 25
0 53 -34 53 -65 0 -12 -24 -44 -55 -75 -56 -55 -111 -127 -104 -134 2 -2 41
15 87 37 66 34 103 62 180 138 53 52 111 104 127 114 17 11 41 31 55 45 14 14
34 32 45 40 19 14 41 43 75 101 36 61 46 70 71 60 34 -13 66 -51 74 -88 3 -18
10 -33 14 -33 4 0 23 -21 41 -47 19 -27 38 -49 42 -51 4 -2 8 -8 8 -14 0 -6
18 -32 41 -57 22 -25 61 -71 86 -101 122 -147 250 -264 388 -355 33 -22 87
-65 121 -96 81 -76 162 -128 324 -205 74 -35 193 -94 263 -130 70 -36 158 -76
194 -90 37 -14 106 -51 154 -83 48 -32 109 -64 135 -71 27 -7 87 -27 134 -45
134 -52 188 -65 267 -65 65 0 222 -30 364 -70 58 -16 103 -12 161 15 70 33
112 33 134 0 24 -37 10 -91 -87 -330 -11 -27 -34 -87 -50 -131 -24 -65 -42
-94 -87 -142 -69 -72 -108 -93 -232 -122 -224 -54 -349 -123 -401 -222 -6 -12
-20 -31 -30 -40 -25 -24 -53 -119 -45 -152 8 -33 53 -56 110 -56 56 0 66 15
66 100 0 33 6 73 14 88 39 74 134 125 236 126 58 1 71 5 110 34 25 18 75 42
113 53 43 13 82 32 105 53 20 18 49 36 63 39 41 10 67 44 105 137 50 118 121
312 129 352 10 46 39 101 76 143 24 27 39 35 66 35 19 0 55 9 81 20 38 17 55
19 92 11 187 -37 257 -53 273 -62 10 -5 49 -19 85 -31 76 -23 102 -36 332
-158 189 -101 342 -159 445 -167 59 -4 80 -11 130 -44 33 -21 91 -50 128 -64
106 -39 163 -71 188 -106 50 -66 78 -86 151 -108 100 -30 132 -47 167 -91 22
-28 40 -39 70 -44 46 -7 91 -42 122 -94 12 -20 53 -66 91 -102 l68 -65 0 -97
c0 -53 -7 -130 -15 -170 -9 -40 -20 -134 -26 -208 -5 -74 -12 -158 -15 -186
-5 -44 -2 -55 18 -79 19 -22 37 -30 82 -36 65 -8 143 -56 231 -140 28 -26 77
-61 110 -78 83 -42 95 -54 95 -88 0 -45 19 -91 41 -98 15 -5 19 -16 19 -50 0
-49 27 -92 53 -82 8 3 24 31 33 62 25 77 51 84 105 25 33 -35 41 -40 54 -30 8
7 15 27 15 44 0 38 -54 94 -145 151 -33 21 -82 57 -110 80 -27 22 -75 56 -105
74 -30 19 -77 53 -105 76 -27 24 -78 57 -112 74 -34 17 -67 40 -73 50 -6 12
-10 117 -10 273 0 244 -8 375 -31 486 -8 41 -22 65 -61 110 -27 31 -65 87 -84
123 -18 37 -49 83 -69 104 -19 21 -35 42 -35 47 0 49 124 189 263 297 82 65
132 128 151 192 20 67 33 87 69 109 44 27 73 25 102 -6 29 -32 69 -156 61
-190 -3 -12 -2 -25 3 -28 5 -3 7 -24 4 -46 -3 -22 -2 -40 3 -40 11 0 30 -44
38 -89 3 -18 19 -61 35 -95 37 -77 68 -170 141 -416 17 -58 38 -119 45 -136 8
-17 24 -69 35 -115 11 -46 26 -89 34 -94 7 -6 36 -55 64 -110 27 -55 63 -112
79 -127 28 -26 98 -52 115 -42 23 15 -2 108 -43 160 -35 43 -55 86 -104 219
-18 50 -53 135 -78 190 -25 55 -51 123 -57 150 -5 28 -17 66 -24 85 -26 64
-84 264 -92 315 -13 90 -69 174 -88 133 -3 -7 -3 3 1 22 4 19 7 51 7 70 -1 42
8 50 61 50 61 0 142 -56 189 -130 20 -31 33 -81 78 -290 6 -30 20 -71 30 -90
9 -19 23 -70 30 -112 8 -43 20 -86 28 -95 9 -10 22 -36 30 -58 12 -31 30 -50
78 -82 34 -23 70 -49 78 -58 17 -17 44 -18 118 -6 27 5 66 4 88 -1 23 -5 46
-5 56 1 12 6 26 5 42 -5 14 -7 34 -13 44 -14 11 0 27 -7 37 -16 10 -9 39 -20
64 -25 96 -18 124 -51 103 -126 -7 -25 -6 -43 1 -60 19 -42 51 -24 51 30 1 50
16 51 64 7 50 -46 70 -47 79 -5 7 41 -10 92 -41 114 -36 27 -39 30 -65 71 -34
52 -81 80 -137 80 -30 0 -69 10 -103 25 -68 31 -165 53 -277 61 -47 4 -90 11
-97 16 -6 5 -15 28 -18 51 -4 23 -13 57 -21 75 -7 19 -21 75 -29 125 -26 148
-114 393 -185 516 -8 14 -34 45 -57 68 -24 23 -43 46 -43 51 0 5 -18 30 -40
55 -31 35 -71 61 -181 116 -97 49 -152 71 -177 71 -50 0 -64 11 -60 46 3 32
10 33 95 19 27 -5 48 -4 56 4 8 6 70 15 138 21 68 6 140 16 159 22 19 6 50 11
68 9 18 -1 38 2 45 6 7 4 53 16 102 25 50 9 135 27 190 38 55 12 116 24 135
27 19 3 41 10 49 17 8 6 48 11 90 12 42 1 105 6 141 12 163 28 203 32 325 32
72 0 160 3 198 7 61 5 67 8 67 29 0 17 -9 26 -35 35 -19 7 -35 16 -35 20 0 4
-24 10 -52 14 -29 3 -91 13 -138 22 -93 17 -215 12 -330 -12 -36 -8 -105 -19
-154 -24 -53 -6 -96 -17 -106 -26 -10 -9 -36 -15 -68 -15 -28 0 -54 -5 -57
-10 -3 -5 -21 -10 -38 -10 -18 0 -75 -11 -127 -24 -52 -13 -126 -26 -165 -29
-39 -3 -115 -21 -170 -40 -55 -18 -132 -42 -172 -52 -123 -32 -148 -2 -120
139 10 45 19 92 21 106 2 14 9 58 15 99 12 80 7 108 -31 185 -22 44 -130 153
-173 176 -16 8 -42 27 -59 43 -17 15 -35 27 -41 27 -17 0 -80 61 -115 112 -21
29 -50 56 -75 68 -32 15 -44 28 -48 49 -7 34 -72 99 -107 107 -32 7 -151 55
-167 67 -7 5 -17 6 -22 3 -6 -4 -28 5 -50 19 -23 14 -45 25 -50 25 -5 0 -14 6
-20 14 -6 7 -24 16 -40 19 -16 3 -36 13 -44 22 -9 9 -41 29 -71 45 -31 16 -67
40 -82 53 -15 14 -38 27 -53 30 -14 3 -35 20 -46 36 -11 17 -36 38 -55 47 -19
9 -48 26 -65 38 -17 12 -47 21 -74 22 -33 1 -49 8 -62 25 -10 13 -19 30 -19
37 0 34 -58 130 -112 188 -65 69 -113 91 -171 78 -71 -15 -148 -44 -169 -64
-12 -11 -26 -20 -30 -20 -5 0 -21 -9 -36 -20 -15 -11 -36 -22 -47 -25 -110
-26 -118 -27 -142 -16 -13 6 -34 11 -46 11 -12 0 -31 7 -41 15 -11 8 -29 15
-40 15 -12 0 -34 7 -51 16 -26 13 -166 49 -230 58 -11 1 -33 8 -50 15 -44 19
-172 52 -236 62 -32 5 -77 13 -100 20 -24 6 -67 14 -94 18 -61 8 -113 39 -151
89 -16 20 -39 45 -51 55 -13 10 -23 25 -23 32 0 8 -8 20 -17 27 -10 7 -24 24
-32 38 -17 29 -78 104 -141 171 -25 26 -54 64 -65 85 -11 20 -51 64 -90 97
-128 109 -575 551 -575 568 0 10 -135 196 -160 220 -9 9 -35 49 -59 90 -24 41
-52 86 -62 101 -11 15 -19 32 -19 38 0 23 -41 89 -71 115 -18 14 -47 46 -65
70 -18 23 -55 59 -82 79 -47 34 -54 36 -124 36 -60 0 -78 -4 -91 -18z m-48
-368 c6 -14 16 -45 21 -69 16 -73 105 -200 208 -297 38 -36 82 -89 98 -117 15
-29 39 -63 52 -75 13 -11 41 -55 62 -96 21 -41 48 -88 59 -105 12 -16 21 -38
21 -47 0 -10 9 -27 21 -39 11 -11 28 -37 36 -57 21 -52 93 -171 108 -180 7 -4
22 -36 35 -72 12 -36 29 -72 36 -81 8 -8 14 -22 14 -29 0 -7 7 -21 15 -30 14
-15 14 -18 0 -30 -12 -10 -31 -10 -86 -2 l-71 11 -127 128 c-158 161 -205 203
-261 238 -25 15 -120 104 -211 197 -133 136 -169 178 -178 211 -7 23 -22 65
-33 92 -24 60 -28 121 -11 155 7 14 13 31 13 38 0 8 6 26 14 40 8 15 18 36 22
47 4 11 15 40 24 65 10 25 25 63 33 84 22 59 64 69 86 20z m-758 -561 c20 -39
52 -90 71 -113 52 -59 53 -75 11 -116 -30 -29 -38 -44 -42 -75 -1 -4 -14 -9
-30 -12 -32 -7 -51 -41 -32 -60 17 -17 14 -26 -24 -60 -23 -21 -43 -55 -60
-100 -13 -37 -33 -80 -45 -94 -11 -14 -20 -38 -20 -54 0 -30 -40 -69 -70 -69
-10 0 -35 -20 -56 -45 -35 -41 -45 -47 -102 -56 -65 -12 -95 -8 -125 15 -16
13 -16 16 8 67 28 58 39 79 67 121 10 15 18 32 18 39 0 6 9 24 20 40 24 33 70
155 70 184 0 11 11 37 25 57 14 21 28 52 32 70 7 40 20 67 67 138 20 30 36 60
36 67 0 7 4 13 8 13 5 0 15 16 22 36 17 43 67 85 95 82 14 -2 31 -26 56 -75z
m391 -474 c32 -33 58 -65 58 -71 0 -6 21 -31 47 -55 40 -36 46 -46 37 -61 -7
-11 -22 -16 -40 -15 -16 1 -93 3 -171 5 -78 2 -144 6 -147 9 -8 8 54 153 70
162 8 4 14 17 14 28 0 35 19 59 48 59 19 0 42 -16 84 -61z m-928 -435 c9 -3
16 -18 16 -33 0 -14 9 -41 20 -58 20 -34 19 -37 -15 -23 -15 6 -26 1 -47 -21
-37 -40 -45 -90 -23 -139 22 -50 14 -71 -40 -106 -32 -20 -45 -35 -45 -51 0
-20 5 -23 40 -23 l41 0 -15 -27 c-21 -41 -66 -79 -108 -93 -46 -14 -73 -47
-82 -98 -7 -44 -24 -62 -82 -85 -35 -13 -45 -14 -59 -3 -13 9 -15 15 -7 20 7
4 12 13 12 21 0 7 22 49 49 93 54 86 151 276 211 411 106 239 99 228 134 215z"/>
</g>
</svg>
