<?xml version="1.0" standalone="no"?>
<!DOCTYPE svg PUBLIC "-//W3C//DTD SVG 20010904//EN"
 "http://www.w3.org/TR/2001/REC-SVG-20010904/DTD/svg10.dtd">
<svg version="1.0" xmlns="http://www.w3.org/2000/svg"
 width="1280.000000pt" height="868.000000pt" viewBox="0 0 1280.000000 868.000000"
 preserveAspectRatio="xMidYMid meet">
<metadata>
Created by potrace 1.15, written by Peter Selinger 2001-2017
</metadata>
<g transform="translate(0.000000,868.000000) scale(0.100000,-0.100000)"
fill="#000000" stroke="none">
<path d="M11020 8671 c-50 -16 -89 -41 -128 -87 l-41 -46 -58 35 c-112 68
-169 66 -238 -6 -44 -46 -90 -75 -156 -96 -30 -10 -40 -20 -53 -55 -20 -53
-46 -170 -46 -213 0 -37 -3 -40 -370 -334 -618 -495 -899 -744 -1210 -1075
-149 -158 -209 -174 -450 -121 -174 38 -295 50 -515 49 -261 0 -476 -23 -694
-73 -200 -46 -528 -67 -1261 -79 -666 -11 -1242 -34 -1430 -56 -351 -41 -624
-113 -870 -230 -356 -170 -582 -377 -863 -792 -123 -180 -182 -314 -211 -474
-48 -265 -26 -458 109 -967 62 -237 63 -240 54 -324 -11 -111 -25 -149 -120
-329 -129 -245 -223 -359 -410 -498 -228 -169 -351 -214 -664 -241 -235 -20
-410 -1 -619 66 -238 78 -474 214 -632 367 -50 48 -97 88 -105 88 -22 0 -39
-21 -39 -46 0 -63 255 -344 395 -436 140 -92 365 -179 567 -220 96 -19 143
-23 318 -22 184 0 218 3 335 27 166 36 361 101 523 175 l127 59 -226 -226
c-261 -262 -480 -512 -516 -590 -39 -82 -41 -185 -8 -406 66 -444 88 -643 105
-935 17 -296 38 -342 167 -356 142 -15 372 18 441 63 17 10 43 14 85 11 l62
-3 3 37 c4 46 -56 176 -98 211 -33 29 -142 57 -218 57 -34 0 -54 6 -69 20 -60
55 -105 576 -70 805 19 124 57 246 95 306 20 31 79 84 187 168 86 67 158 121
160 119 10 -13 46 -356 76 -723 25 -325 50 -420 118 -459 39 -23 97 -24 331
-6 80 6 183 13 230 15 47 3 90 7 96 9 28 10 -19 156 -65 203 -45 46 -88 63
-175 70 -110 8 -131 17 -149 66 -51 137 -70 334 -71 727 -1 417 3 446 77 517
29 27 84 68 122 90 162 94 330 229 535 429 74 73 151 145 170 161 19 15 47 42
62 58 28 30 108 177 108 199 0 6 26 39 58 72 68 73 110 141 163 264 55 128 74
202 119 479 103 625 152 722 396 786 118 31 260 18 614 -54 107 -21 251 -49
320 -61 254 -45 408 -130 825 -454 346 -270 377 -289 577 -364 219 -83 405
-132 618 -163 125 -18 173 -21 340 -16 107 4 210 9 228 13 42 8 42 -4 1 -103
-41 -97 -38 -130 35 -344 99 -293 117 -416 156 -1017 21 -331 32 -451 56 -599
15 -98 11 -177 -21 -418 -35 -262 -19 -321 192 -713 135 -250 173 -335 173
-390 0 -64 12 -78 87 -102 57 -19 78 -33 128 -85 57 -58 65 -63 129 -75 122
-23 301 9 420 76 29 16 53 23 66 19 42 -13 17 66 -37 117 -27 25 -146 88 -168
88 -6 0 -40 16 -75 35 l-65 34 70 -6 c67 -5 73 -3 139 32 38 20 75 34 82 31
18 -7 18 27 0 62 -35 67 -121 109 -310 149 -34 7 -43 16 -77 72 -107 177 -151
398 -169 847 -6 142 -18 379 -27 526 -26 423 -18 513 87 1033 60 299 90 494
90 590 0 48 3 53 65 118 224 238 490 776 848 1717 45 117 120 253 276 499 65
103 141 228 167 277 26 49 60 100 76 112 36 30 54 64 63 122 5 30 18 56 40 80
52 56 89 117 195 322 56 106 112 204 125 217 l24 24 57 -18 c49 -15 78 -17
213 -11 86 3 186 9 222 12 66 6 67 6 106 -29 60 -55 79 -59 248 -52 111 5 183
3 277 -9 159 -20 220 -20 289 0 72 21 191 85 252 137 28 23 73 51 101 62 58
23 90 63 100 127 6 37 4 45 -16 62 -30 25 -127 69 -208 94 -148 46 -484 200
-578 264 -75 51 -157 141 -187 205 -34 73 -84 134 -139 173 -24 16 -107 61
-185 101 -91 46 -156 86 -182 113 -47 46 -84 120 -94 188 -6 41 -10 47 -37 52
-40 8 -117 6 -148 -3z"/>
</g>
</svg>
