<?xml version="1.0" standalone="no"?>
<!DOCTYPE svg PUBLIC "-//W3C//DTD SVG 20010904//EN"
 "http://www.w3.org/TR/2001/REC-SVG-20010904/DTD/svg10.dtd">
<svg version="1.0" xmlns="http://www.w3.org/2000/svg"
 width="1280.000000pt" height="688.000000pt" viewBox="0 0 1280.000000 688.000000"
 preserveAspectRatio="xMidYMid meet">
<metadata>
Created by potrace 1.15, written by Peter Selinger 2001-2017
</metadata>
<g transform="translate(0.000000,688.000000) scale(0.100000,-0.100000)"
fill="#000000" stroke="none">
<path d="M5237 6863 c-2 -4 -19 -171 -38 -370 -18 -200 -37 -363 -40 -363 -4
0 -18 28 -32 63 -24 61 -24 64 -11 157 7 52 13 104 13 115 0 40 -16 -8 -29
-83 -7 -41 -15 -70 -20 -65 -4 4 -24 51 -44 103 -21 52 -42 100 -48 105 -8 7
-9 5 -6 -5 3 -8 25 -74 48 -146 l43 -131 -13 -76 c-7 -43 -16 -77 -19 -77 -3
0 -21 75 -40 168 -19 92 -40 172 -47 177 -6 6 -19 72 -29 150 -9 77 -21 145
-27 150 -6 7 -8 -2 -4 -25 3 -19 8 -80 11 -135 4 -55 17 -246 31 -425 26 -360
26 -353 14 -324 -4 12 -27 174 -50 360 -23 186 -44 345 -46 353 -12 38 -12
-13 1 -198 14 -194 13 -207 -6 -299 -10 -52 -21 -97 -23 -100 -2 -2 -7 9 -10
25 -34 179 -46 180 -22 1 14 -108 14 -120 -4 -208 -11 -51 -20 -95 -20 -97 0
-1 -7 -3 -16 -3 -15 0 -16 39 -11 463 3 264 2 443 -3 417 -4 -25 -19 -188 -31
-362 -13 -175 -26 -315 -29 -310 -4 4 -18 75 -33 157 -24 139 -25 156 -13 233
7 45 9 82 5 82 -4 0 -11 -20 -15 -45 -3 -25 -10 -45 -14 -45 -4 0 -13 35 -19
78 -14 86 -67 368 -80 422 -19 78 -10 -28 29 -347 l41 -326 -21 -100 c-11 -55
-22 -102 -24 -104 -3 -3 -39 216 -92 562 -15 99 -32 185 -37 190 -6 6 -7 -6
-3 -35 3 -25 8 -81 11 -125 4 -67 -1 -49 -31 110 -20 105 -40 195 -46 200 -7
7 -9 4 -5 -10 3 -11 8 -45 11 -75 10 -93 76 -633 82 -670 11 -68 -15 -15 -87
175 -39 105 -75 197 -80 205 -21 36 -5 -24 67 -253 68 -217 75 -247 69 -294
-4 -29 -10 -53 -14 -53 -4 0 -13 35 -21 78 -13 73 -14 75 -19 37 -5 -32 -25
51 -95 390 -49 237 -93 437 -97 445 -14 27 1 -169 31 -409 16 -129 28 -236 26
-238 -8 -8 -140 382 -158 467 -11 52 -22 97 -25 100 -10 10 6 -136 66 -600 33
-261 61 -476 61 -477 0 -2 -5 -3 -11 -3 -6 0 -8 7 -5 16 4 9 2 22 -3 28 -6 7
-43 191 -83 409 -40 218 -75 397 -79 397 -3 0 -4 -12 -2 -27 1 -16 19 -158 38
-317 20 -159 34 -290 33 -292 -2 -2 -27 134 -56 302 -29 167 -57 312 -62 322
-5 9 -21 82 -35 162 -15 79 -28 147 -31 149 -8 8 -4 -41 22 -246 21 -176 24
-216 14 -276 -6 -39 -12 -73 -14 -75 -3 -3 -29 128 -57 293 -13 75 -34 118
-24 50 17 -123 56 -466 57 -500 0 -23 -3 -64 -7 -93 -6 -43 -10 -51 -21 -42
-7 7 -16 33 -20 58 -8 60 -17 74 -24 39 l-5 -29 -24 32 c-18 25 -30 67 -48
174 -27 153 -31 171 -38 164 -2 -2 2 -55 9 -118 7 -63 12 -116 11 -118 -2 -2
-13 11 -25 29 -19 26 -24 50 -30 143 -4 61 -8 93 -8 70 -1 -23 -5 -62 -8 -87
l-7 -46 -31 42 c-18 23 -90 124 -160 224 -124 178 -177 242 -124 152 14 -24
92 -150 172 -279 136 -219 161 -272 139 -294 -4 -3 -26 13 -50 36 -56 55 -55
41 2 -29 38 -46 45 -62 45 -99 0 -24 -4 -44 -8 -44 -20 0 -137 151 -173 222
-43 86 -63 101 -29 23 27 -62 18 -71 -12 -11 -12 25 -26 46 -31 46 -4 0 -5 -4
-2 -10 3 -5 2 -10 -4 -10 -18 0 -31 37 -41 116 -13 98 -23 110 -18 21 1 -37 0
-67 -3 -67 -3 0 -14 9 -24 20 -10 11 -22 17 -27 14 -4 -3 -20 21 -35 53 -14
32 -27 53 -29 48 -2 -6 28 -84 66 -175 54 -123 70 -173 68 -200 -3 -36 -11
-25 -238 297 -129 184 -242 340 -250 346 -19 16 -14 7 257 -428 126 -203 235
-379 240 -390 12 -24 25 -212 14 -199 -8 9 -353 497 -485 686 -37 54 -72 100
-78 104 -13 8 -4 -9 62 -117 l50 -82 0 -115 0 -115 -27 24 -27 24 23 -39 c12
-21 19 -41 16 -44 -3 -3 -5 0 -5 6 0 7 -5 12 -11 12 -6 0 -1 -15 10 -34 14
-22 21 -50 21 -82 l-1 -49 -55 60 c-30 33 -73 94 -95 135 -34 64 -46 66 -22 4
6 -16 -29 19 -187 189 -104 112 -60 46 91 -137 148 -179 156 -191 212 -318 34
-77 57 -142 55 -157 -3 -25 -5 -24 -38 21 -19 26 -41 45 -48 43 -8 -3 -12 2
-10 13 2 9 -2 16 -9 15 -7 -2 -85 81 -174 182 -89 102 -164 183 -167 181 -2
-3 90 -125 204 -272 l209 -267 -1 -49 c-1 -27 -5 -52 -8 -56 -11 -10 -110 105
-198 231 -45 64 -86 117 -91 117 -4 0 -5 -6 -1 -12 5 -9 2 -9 -9 1 -22 18 -21
10 4 -33 40 -68 12 -36 -65 74 -109 155 -128 162 -31 10 90 -142 92 -149 14
-65 -106 115 -192 202 -183 185 4 -8 99 -129 212 -268 209 -259 302 -392 302
-427 -1 -49 -15 -47 -103 16 l-86 61 -212 319 c-116 175 -213 319 -215 319
-12 0 10 -40 151 -280 85 -145 155 -265 155 -267 0 -24 -80 70 -282 332 -133
173 -244 313 -246 310 -2 -2 28 -53 68 -112 40 -59 66 -101 58 -93 -12 12
-149 180 -325 399 -1 2 -5 2 -8 0 -2 -3 19 -39 49 -80 29 -41 164 -229 300
-418 136 -189 245 -345 243 -347 -2 -2 -41 22 -88 54 l-84 57 -213 318 c-118
176 -216 317 -218 314 -3 -2 63 -121 147 -263 83 -143 154 -265 157 -273 3 -7
-36 14 -87 49 -51 34 -95 59 -97 57 -3 -3 48 -46 114 -96 l119 -91 82 -136
c45 -75 80 -138 78 -140 -1 -2 -131 105 -287 236 -157 132 -289 240 -294 240
-11 0 70 -86 291 -311 142 -144 172 -180 141 -164 -7 3 5 -9 27 -27 22 -18 87
-79 145 -135 l105 -103 -47 0 c-46 0 -47 1 -97 70 -55 75 -76 93 -42 35 11
-19 19 -35 16 -35 -17 0 -137 125 -325 340 -391 447 -399 450 -65 20 135 -172
245 -315 245 -317 0 -3 -55 42 -122 99 l-121 103 -215 322 c-118 178 -217 321
-220 318 -2 -2 61 -116 142 -254 138 -235 162 -281 134 -253 -7 7 -17 12 -22
12 -6 0 13 -24 41 -52 28 -29 62 -71 75 -93 51 -85 79 -135 74 -135 -3 0 -49
54 -102 120 -53 67 -99 119 -101 116 -3 -3 56 -89 130 -193 l135 -188 -60 -3
c-71 -4 -80 3 -160 111 -55 74 -78 85 -31 15 44 -65 50 -75 32 -62 -76 58
-291 205 -295 201 -3 -2 39 -40 93 -83 54 -43 124 -100 156 -126 l58 -48 -39
0 c-35 0 -54 13 -206 140 -92 77 -171 140 -174 139 -4 0 56 -61 133 -134 139
-134 140 -135 105 -135 -31 0 -56 19 -220 164 -102 91 -187 162 -190 159 -3
-3 188 -196 424 -429 236 -233 426 -424 422 -424 -5 0 -70 32 -145 70 -131 68
-142 75 -288 215 -84 80 -155 145 -158 145 -11 0 33 -55 85 -105 28 -27 65
-67 82 -88 30 -38 27 -37 -200 77 -128 64 -238 116 -246 116 -7 0 -19 7 -26
15 -7 8 -17 15 -24 15 -6 0 88 -99 209 -220 121 -121 216 -220 212 -220 -4 0
-97 45 -207 100 -185 92 -207 107 -310 197 -62 54 -117 100 -123 102 -7 2 20
-29 58 -69 39 -40 66 -70 60 -68 -5 2 -27 12 -49 22 -66 30 -49 11 32 -34 97
-55 273 -221 245 -231 -14 -5 -11 -8 13 -13 19 -4 56 -33 100 -77 l69 -70
-160 76 c-88 42 -153 70 -145 61 8 -8 99 -61 202 -119 138 -77 207 -123 263
-173 42 -38 82 -79 91 -91 14 -22 14 -22 -13 -11 -16 7 -97 48 -181 91 -83 43
-157 77 -162 75 -6 -2 39 -32 100 -67 60 -35 110 -65 110 -67 0 -11 -215 88
-472 217 -131 66 -238 116 -238 111 0 -5 16 -17 35 -27 63 -35 29 -26 -73 19
-56 25 -102 42 -102 38 0 -4 156 -87 348 -185 191 -98 337 -176 325 -174 -13
3 -23 2 -23 -2 0 -4 28 -16 62 -25 63 -17 208 -93 208 -108 0 -4 -35 -8 -79
-8 -74 0 -82 2 -130 35 -51 35 -65 37 -35 4 15 -17 12 -17 -53 -2 -139 32
-161 44 -487 276 -176 125 -321 225 -324 222 -3 -3 2 -11 11 -18 75 -57 566
-452 564 -454 -2 -1 -79 16 -172 38 -94 22 -183 42 -200 44 -16 2 -91 18 -165
34 -74 17 -136 28 -139 26 -5 -6 -6 -6 218 -69 189 -54 249 -80 296 -130 11
-12 66 -48 123 -80 56 -32 101 -60 99 -62 -1 -2 -52 15 -112 37 -60 21 -114
38 -119 36 -5 -2 63 -34 150 -72 l159 -70 -75 -3 c-63 -2 -129 10 -425 77
-306 70 -372 82 -354 68 2 -2 223 -66 491 -142 364 -104 485 -142 481 -152 -7
-18 -17 -17 -175 22 -198 50 -198 37 0 -21 51 -15 90 -29 88 -31 -2 -2 -66 12
-142 31 -76 19 -141 33 -146 30 -4 -3 -60 9 -123 26 -212 57 -144 24 148 -70
164 -54 283 -98 278 -103 -20 -20 -78 -4 -289 78 -222 86 -306 108 -156 40
213 -96 263 -119 260 -123 -2 -1 -73 15 -158 36 -144 36 -169 46 -328 131 -95
50 -174 91 -177 91 -14 0 16 -23 79 -60 40 -24 102 -62 138 -85 36 -23 106
-66 157 -95 51 -30 91 -56 89 -58 -2 -2 -50 20 -105 49 -56 28 -104 49 -107
47 -2 -3 45 -34 106 -69 111 -63 120 -76 58 -81 -19 -1 -402 197 -645 334 -29
16 -53 26 -53 21 0 -5 186 -124 414 -263 228 -140 414 -256 412 -257 -2 -2
-395 100 -644 167 -17 4 -32 5 -32 1 0 -4 144 -54 319 -112 176 -57 318 -106
316 -108 -2 -2 -86 18 -185 44 -100 25 -184 44 -187 41 -3 -3 0 -8 8 -10 31
-11 559 -176 563 -176 5 0 -1 -52 -10 -96 -4 -21 -20 -15 -311 97 -169 65
-309 116 -312 114 -4 -5 83 -46 412 -195 131 -60 202 -97 194 -102 -7 -4 -55
-10 -106 -14 -50 -4 -94 -11 -97 -16 -4 -6 39 -7 111 -2 83 5 116 4 111 -4 -3
-6 -75 -33 -159 -61 l-152 -51 -138 34 c-75 18 -137 30 -137 27 0 -4 71 -29
158 -56 86 -26 161 -51 165 -55 4 -4 -47 -19 -115 -34 -196 -43 -173 -49 51
-12 l144 24 102 -31 103 -31 22 -80 c12 -45 24 -88 27 -96 3 -13 -4 -15 -39
-13 -42 3 -42 2 -15 -10 27 -13 23 -15 -135 -80 -264 -109 -258 -118 13 -22
101 36 187 65 191 65 7 0 35 -73 40 -103 2 -15 -13 -25 -77 -48 -43 -16 -84
-34 -90 -40 -7 -7 -5 -9 5 -5 63 21 154 46 157 42 4 -4 -54 -123 -71 -145 -6
-7 -11 -19 -11 -25 0 -6 -17 -62 -38 -123 -71 -214 -237 -848 -303 -1158 -23
-107 -28 -156 -28 -277 -1 -134 1 -149 20 -175 28 -37 58 -40 95 -9 17 14 37
26 44 26 7 0 34 -29 60 -65 86 -121 186 -171 362 -182 82 -5 95 -3 127 17 32
19 41 21 87 11 27 -6 89 -11 136 -11 l86 0 34 37 35 36 67 -17 c73 -19 162
-18 169 1 5 18 -116 143 -153 158 -16 7 -52 16 -80 21 -39 5 -61 17 -100 51
-27 24 -79 57 -115 74 -36 17 -84 40 -107 51 -97 47 -96 152 5 448 22 63 50
167 62 230 28 147 46 189 116 256 50 48 62 54 98 54 55 0 137 -40 169 -81 13
-19 41 -86 61 -149 20 -63 52 -144 72 -179 45 -78 147 -188 231 -248 77 -55
97 -78 151 -178 116 -217 188 -277 398 -333 200 -54 219 -55 804 -53 391 2
552 6 569 14 35 17 46 57 27 101 -18 44 -75 73 -176 90 -51 8 -75 19 -102 42
-57 50 -124 67 -268 69 -262 4 -399 64 -601 265 -47 47 -114 110 -148 141 -44
39 -62 62 -59 75 8 39 73 19 283 -86 263 -131 265 -131 519 -86 111 20 160 20
272 1 121 -22 231 -60 409 -143 265 -124 423 -157 750 -156 225 1 341 14 690
75 153 26 194 38 275 75 53 24 120 48 150 55 101 22 259 -5 386 -67 92 -43
189 -145 259 -270 85 -153 200 -255 386 -343 126 -60 181 -74 372 -96 179 -21
283 -17 351 13 27 12 87 26 133 32 98 11 131 25 153 64 16 31 22 35 82 61 97
43 66 166 -58 224 -88 42 -153 53 -324 58 -91 2 -177 9 -193 15 -39 15 -217
205 -247 264 -28 55 -34 150 -11 177 43 53 491 8 634 -64 26 -13 158 -137 354
-332 l312 -310 68 6 c37 3 92 15 121 28 48 20 59 21 115 11 34 -6 85 -8 112
-5 47 4 56 1 135 -47 175 -106 200 -111 274 -55 26 19 56 35 69 35 46 0 92 21
132 60 23 23 57 49 76 58 43 21 57 59 39 102 -15 37 -47 55 -129 74 -45 11
-73 25 -107 55 -51 45 -127 73 -242 91 -176 28 -287 95 -493 300 -77 76 -104
111 -134 172 -45 92 -43 131 7 173 54 46 151 71 209 55 19 -5 78 -48 134 -95
171 -147 290 -218 499 -300 290 -114 569 -175 1083 -240 168 -21 216 -31 290
-60 153 -58 271 -78 483 -79 102 -1 264 1 361 4 l175 5 170 -85 c168 -84 170
-85 245 -85 69 0 83 4 161 42 100 50 141 91 163 165 17 60 20 174 4 215 -5 15
-24 43 -42 61 -28 29 -32 41 -37 105 -6 68 -16 92 -152 372 -152 312 -240 525
-352 854 -146 426 -196 705 -196 1088 0 106 -4 192 -10 203 -6 11 -30 35 -55
53 l-45 35 83 39 c45 21 220 104 390 183 169 80 307 148 307 151 0 6 -237 -86
-655 -255 l-190 -77 -28 33 c-15 18 -26 37 -24 42 2 7 565 225 856 331 8 3 11
8 8 11 -3 3 -206 -58 -451 -135 -245 -78 -451 -141 -459 -141 -7 0 -23 13 -35
29 -34 47 -38 44 318 179 146 55 278 105 294 111 16 7 27 14 24 16 -3 3 -106
-26 -229 -64 -122 -39 -224 -69 -226 -67 -2 1 110 85 248 185 137 101 248 185
246 188 -3 2 -101 -58 -218 -133 -118 -76 -238 -153 -268 -172 -65 -41 -63
-38 61 111 54 65 98 121 98 125 0 4 -40 -33 -88 -83 -60 -61 -101 -95 -131
-107 -25 -10 -46 -16 -49 -14 -2 2 16 42 39 87 37 76 61 103 230 275 104 105
189 195 189 199 0 11 -20 -6 -155 -129 -66 -61 -130 -119 -143 -130 -14 -13
23 74 108 248 72 148 129 270 127 273 -3 2 -32 -45 -66 -105 -47 -84 -69 -113
-98 -130 -21 -12 -49 -30 -63 -40 -19 -13 -14 -3 18 37 43 54 60 98 19 50 -89
-105 -139 -156 -191 -193 -131 -92 -376 -257 -376 -253 0 3 83 110 186 238
177 224 211 269 200 269 -3 0 -123 -133 -267 -295 -144 -163 -264 -293 -266
-291 -3 3 131 156 297 341 166 185 300 338 299 340 -2 1 -150 -140 -329 -315
-246 -241 -328 -316 -338 -308 -10 9 -10 14 1 27 100 115 507 604 507 608 0 3
-7 -1 -17 -8 -12 -11 -292 -305 -524 -553 -10 -11 -21 -17 -25 -13 -4 3 91
123 211 267 120 144 215 263 213 265 -2 3 -101 -98 -219 -224 -118 -126 -215
-228 -217 -226 -1 1 45 98 102 216 70 141 122 235 156 276 54 67 65 91 25 53
-14 -13 -25 -20 -25 -17 0 4 43 93 96 198 52 105 93 193 90 196 -2 2 -15 -15
-29 -39 -14 -24 -80 -140 -147 -258 -135 -237 -169 -294 -176 -287 -8 8 36
134 56 160 22 27 26 42 10 32 -14 -8 -15 -15 34 133 25 73 41 132 38 132 -4 0
-36 -73 -71 -162 -57 -144 -108 -238 -130 -238 -4 0 -2 37 6 83 17 104 21 147
12 147 -4 0 -10 -16 -13 -35 -5 -25 -41 -76 -123 -175 -64 -77 -118 -138 -120
-136 -2 2 3 16 12 32 68 130 254 516 242 504 -9 -8 -109 -179 -222 -380 -114
-201 -211 -369 -215 -373 -12 -14 -42 4 -35 21 9 24 385 655 401 673 8 8 14
20 14 25 0 5 -42 -32 -92 -82 -85 -83 -365 -329 -396 -348 -9 -5 -6 6 6 30 14
27 98 106 271 254 138 118 251 219 251 223 0 10 -11 1 -249 -181 -89 -67 -161
-120 -161 -116 0 3 25 33 55 67 30 33 53 63 50 66 -3 2 -28 -17 -56 -45 l-51
-49 22 45 c12 25 40 68 61 97 39 52 48 70 29 58 -17 -10 -12 1 45 115 30 61
52 110 48 110 -5 0 -35 -47 -67 -104 -33 -58 -64 -102 -70 -100 -7 3 -59 -43
-116 -101 -58 -58 -124 -122 -147 -141 l-43 -35 29 63 c15 35 58 130 96 211
69 150 85 215 22 91 -19 -38 -50 -85 -68 -104 -19 -20 -74 -85 -123 -145 -49
-60 -92 -103 -94 -97 -2 7 12 32 32 57 44 53 46 63 6 35 l-30 -21 0 82 0 82
143 191 c79 105 147 198 151 206 12 24 -74 -70 -184 -202 l-103 -122 5 147 c3
81 2 147 -2 147 -4 0 -13 -64 -19 -142 -7 -79 -16 -157 -21 -174 -4 -18 -43
-73 -85 -123 -93 -109 -115 -124 -47 -32 19 26 22 33 9 28 -9 -3 -17 -3 -17 1
0 7 83 295 95 330 2 6 1 12 -3 12 -4 0 -29 -62 -56 -137 -55 -157 -72 -185
-61 -103 20 147 31 170 153 305 62 69 110 125 105 125 -4 0 -85 -78 -180 -172
-95 -95 -173 -168 -173 -162 0 7 7 28 15 48 73 174 61 174 -25 0 l-58 -119 -1
95 c-1 99 12 241 25 274 6 15 4 17 -6 11 -11 -7 -12 9 -7 83 9 147 -8 106 -22
-50 -15 -164 -40 -259 -85 -325 -31 -45 -60 -68 -52 -41 9 27 15 453 6 433 -4
-11 -18 -130 -30 -265 -25 -281 -3 -228 -179 -443 -57 -70 -106 -126 -108
-123 -9 8 27 129 62 210 28 64 47 92 93 134 31 29 47 48 35 42 -12 -5 -25 -15
-28 -20 -3 -6 -11 -10 -16 -10 -6 0 10 26 35 57 25 32 43 60 40 63 -3 3 -17
-8 -30 -25 -13 -16 -24 -26 -24 -22 0 9 35 93 84 200 20 42 32 77 28 77 -4 0
-31 -46 -60 -103 -29 -56 -67 -118 -83 -137 -32 -38 -40 -65 91 308 11 28 17
52 14 52 -3 0 -16 -24 -29 -52 -28 -60 -31 -55 -11 20 8 28 11 52 7 52 -4 0
-33 -82 -65 -182 -83 -261 -128 -366 -186 -430 -26 -29 -50 -50 -54 -47 -10 9
14 131 36 182 12 27 41 74 65 105 44 57 51 89 8 37 -24 -28 -25 -29 -16 -5 5
14 41 104 81 200 105 256 113 277 97 260 -7 -8 -58 -108 -112 -222 -54 -114
-100 -206 -102 -204 -2 2 19 65 47 140 27 76 50 141 50 144 0 15 -65 -71 -122
-162 -34 -55 -63 -95 -65 -89 -2 6 10 63 27 127 17 64 30 122 28 127 -2 6 -34
-83 -72 -198 -39 -120 -81 -229 -100 -258 l-31 -50 -3 79 c-2 60 1 84 14 104
13 20 14 24 2 19 -13 -4 -16 15 -22 115 -3 67 -6 207 -7 312 -1 225 -13 211
-23 -25 -6 -154 -9 -176 -45 -294 -34 -114 -39 -125 -44 -95 -12 58 -8 164 8
194 8 15 13 31 11 35 -3 4 10 67 29 141 19 74 32 136 30 139 -6 5 -16 -22 -55
-151 -18 -59 -36 -105 -40 -103 -4 2 -13 90 -20 195 -7 105 -17 193 -22 196
-4 3 -8 -15 -8 -41 0 -25 -5 -53 -11 -63 -5 -9 -30 -78 -53 -152 -43 -135 -43
-135 -50 -90 -3 25 -11 108 -17 185 -6 77 -13 142 -15 144 -3 3 -4 -111 -4
-251 1 -307 -2 -323 -74 -378 -28 -22 -52 -38 -53 -36 -1 1 4 27 12 57 39 142
105 399 105 405 0 29 -25 -37 -80 -208 -57 -178 -68 -203 -109 -253 -25 -30
-47 -50 -49 -45 -2 5 6 40 17 78 23 76 25 91 12 76 -5 -5 -25 -59 -45 -121
-45 -135 -66 -161 -66 -83 0 35 20 122 60 259 34 113 63 215 67 226 3 13 2 17
-5 10 -5 -5 -29 -64 -52 -130 -24 -66 -47 -124 -51 -129 -5 -6 -9 40 -9 106
l0 116 34 45 c59 78 73 107 27 58 -23 -24 -41 -40 -41 -36 0 4 14 51 30 103
34 106 35 150 1 57 -37 -104 -40 -106 -41 -40 -2 83 -15 44 -24 -68 -7 -100
-16 -122 -80 -192 l-45 -50 -1 75 c0 41 -3 140 -7 220 -6 116 -9 135 -14 95
-4 -27 -8 -108 -9 -180 -1 -71 -6 -141 -10 -155 -4 -14 -8 -18 -9 -9 -1 8 -8
24 -16 35 -12 16 -12 11 1 -31 30 -94 30 -96 -23 -159 l-48 -59 -6 144 c-5
122 -3 155 13 213 21 75 18 98 -6 45 l-14 -34 0 63 c1 69 -7 90 -18 46 -6 -27
-48 -73 -67 -74 -5 0 -6 12 -3 28 27 122 52 272 45 272 -4 0 -16 -36 -26 -79
-9 -44 -22 -79 -27 -78 -5 1 -24 -46 -42 -104 -29 -92 -39 -110 -70 -134 -19
-15 -37 -25 -40 -22 -3 2 0 26 7 51 17 68 3 69 -16 1 -30 -101 -25 -53 11 104
55 247 43 229 -68 -102 -49 -146 -50 -147 -101 -186 -28 -22 -53 -38 -55 -36
-2 1 11 52 29 112 20 69 64 171 120 286 49 97 86 177 82 177 -5 0 -21 -24 -37
-53 -16 -28 -48 -83 -71 -122 -23 -38 -79 -136 -125 -217 -46 -82 -87 -148
-90 -148 -10 0 -20 38 -20 76 0 24 55 267 76 337 3 9 1 17 -3 17 -5 0 -26 -58
-47 -128 -46 -156 -52 -167 -60 -116 -5 31 2 65 38 169 25 71 43 131 41 134
-7 7 -8 4 -55 -114 l-44 -110 -9 38 c-14 56 -25 44 -14 -15 9 -51 7 -59 -53
-211 -34 -87 -64 -157 -66 -154 -2 2 -8 45 -13 95 -10 92 -9 94 34 250 24 86
60 192 79 234 40 85 45 105 17 69 l-19 -25 5 27 c10 50 -5 28 -27 -40 -30 -91
-101 -233 -117 -233 -7 0 -13 -9 -13 -20 0 -12 -12 -44 -27 -73 l-28 -52 -3
87 -3 87 81 160 c44 89 80 163 80 166 0 18 -24 -14 -60 -80 -23 -41 -43 -75
-45 -75 -3 0 -2 14 2 30 9 49 -5 34 -23 -25 -18 -56 -35 -76 -26 -30 2 14 0
25 -5 25 -6 0 -13 -29 -15 -64 -5 -54 -14 -79 -62 -163 -86 -152 -88 -154 -82
-58 4 80 5 81 126 309 66 125 119 230 117 233 -3 2 -44 -60 -92 -139 -48 -79
-100 -163 -116 -188 l-29 -45 0 84 c0 46 -3 82 -6 79 -3 -4 -10 -55 -15 -114
-9 -104 -11 -111 -55 -181 -25 -40 -47 -73 -48 -73 -3 0 21 248 29 310 4 25 3
41 -2 37 -4 -5 -24 -107 -44 -227 -27 -166 -41 -227 -59 -255 -27 -44 -40 -33
-40 38 0 37 10 68 46 138 49 98 45 112 -8 24 -18 -30 -36 -55 -40 -55 -4 0 -9
24 -11 53 -3 44 -4 41 -5 -22 -2 -65 -6 -80 -39 -135 -20 -33 -37 -62 -38 -64
-5 -7 -55 22 -55 32 0 6 68 154 151 329 83 175 149 320 146 323 -2 3 -78 -129
-167 -293 -146 -269 -194 -351 -177 -302 18 53 167 663 164 673 -2 6 -25 -56
-51 -139 -26 -82 -60 -188 -77 -235 l-29 -85 5 122 5 122 76 143 c42 79 80
151 85 161 6 9 6 17 2 17 -5 0 -36 -46 -70 -102 -34 -57 -69 -112 -78 -123
-16 -19 -16 -18 -11 23 4 23 2 42 -3 42 -4 0 -11 -31 -15 -69 -5 -52 -11 -69
-20 -65 -9 3 -17 -9 -25 -38 -6 -24 -39 -88 -73 -143 -61 -98 -62 -99 -70 -70
-13 46 -11 94 5 160 26 104 28 117 19 111 -5 -3 -18 -37 -28 -76 -10 -39 -21
-65 -25 -58 -3 7 -21 74 -38 148 -36 154 -40 165 -46 158 -3 -2 11 -92 31
-199 l35 -194 -27 -93 c-15 -51 -31 -95 -34 -97 -4 -2 -33 65 -65 151 -66 177
-66 180 -4 285 23 38 39 72 36 76 -4 3 -16 -11 -28 -31 -12 -20 -24 -35 -26
-32 -3 2 5 39 17 81 38 136 16 113 -29 -30 l-44 -140 -24 65 -24 64 47 168
c26 93 44 171 41 174 -3 3 -24 -52 -47 -122 -28 -83 -45 -122 -51 -113 -10 16
-7 21 -49 -114 -31 -103 -49 -145 -50 -116 0 8 -7 24 -16 35 -15 18 -15 18 -9
-3 5 -16 -19 -76 -81 -208 -47 -102 -89 -185 -92 -185 -3 0 -2 77 2 172 6 145
10 177 26 204 25 40 25 52 1 30 -19 -17 -19 -14 -15 131 3 166 -5 140 -29 -94
-13 -118 -18 -137 -42 -169 -15 -19 -29 -33 -32 -30 -3 2 1 46 7 96 15 104 7
132 -11 40 -6 -33 -15 -58 -19 -53 -5 4 -22 50 -40 102 l-32 95 7 230 c4 127
5 229 2 226 -4 -4 -37 -304 -37 -341 0 -26 -18 7 -40 74 -12 37 -24 67 -26 67
-3 0 -3 -19 0 -42 4 -27 -3 -84 -18 -153 -22 -107 -24 -109 -36 -80 -7 17 -14
49 -14 71 -1 24 -5 40 -11 38 -6 -3 -16 10 -23 28 -18 48 -24 27 -6 -23 10
-30 13 -60 9 -94 -10 -81 -20 -85 -45 -19 -18 49 -21 72 -17 139 5 72 4 76 -5
35 -14 -56 -15 -58 -33 -34 -17 23 -19 17 -4 -25 12 -34 3 -150 -10 -135 -15
17 -71 185 -71 213 0 16 -6 31 -14 34 -7 3 -16 17 -20 31 -13 51 -68 197 -73
192 -3 -3 14 -69 37 -148 49 -164 48 -138 20 -518 -27 -364 -28 -380 -46 -380
-10 0 -14 15 -15 63 -1 46 -3 56 -9 37 -4 -14 -8 -42 -9 -63 -1 -49 -21 -39
-21 11 0 20 14 141 30 267 30 229 35 283 25 273 -3 -2 -25 -114 -50 -248 -41
-220 -55 -282 -55 -238 0 8 20 153 45 321 25 169 45 314 45 324 0 49 -18 -21
-60 -232 -25 -129 -49 -237 -51 -240 -3 -3 -16 64 -28 148 -22 146 -23 163
-13 432 6 154 9 281 7 283 -1 2 -5 0 -8 -5z m591 -620 c-6 -73 -14 -133 -18
-133 -3 0 -15 29 -27 63 -19 60 -19 70 -7 158 8 52 17 110 20 129 l7 35 19
-60 c17 -55 17 -71 6 -192z m-871 125 c-3 -7 -5 -2 -5 12 0 14 2 19 5 13 2 -7
2 -19 0 -25z m579 -104 c17 -71 17 -72 -11 -215 -15 -79 -32 -151 -37 -159 -6
-10 -8 -4 -4 19 3 18 6 135 7 260 1 199 2 222 14 196 8 -16 22 -62 31 -101z
m97 6 c18 -64 20 -103 8 -135 -13 -32 -48 89 -43 148 2 26 7 47 11 47 4 0 15
-27 24 -60z m91 -47 c0 -59 -7 -83 -19 -71 -12 11 -17 79 -10 125 6 41 8 45
18 28 6 -11 11 -48 11 -82z m641 -133 c-41 -67 -55 -75 -55 -30 0 28 36 175
48 195 3 5 14 -17 25 -48 l19 -57 -37 -60z m-455 -65 c-16 -96 -21 -115 -30
-115 -17 0 -21 57 -14 193 l8 142 23 -75 c22 -69 23 -81 13 -145z m-2620 108
c0 -13 -2 -23 -5 -23 -6 0 -55 96 -55 107 1 19 59 -64 60 -84z m646 -125 c13
-100 24 -199 23 -218 l-1 -35 -9 40 c-5 22 -13 49 -19 60 -22 46 -39 185 -33
265 3 44 8 78 10 76 3 -2 15 -87 29 -188z m1311 -83 c-2 -27 -3 -25 -18 20
-11 37 -14 75 -10 145 l5 95 13 -115 c7 -63 12 -128 10 -145z m-117 154 c23
-77 23 -78 8 -230 -8 -85 -17 -147 -20 -139 -14 37 -48 212 -48 246 0 61 22
216 30 207 3 -4 17 -42 30 -84z m1089 -74 c-22 -73 -47 -133 -57 -141 -9 -7
-18 -11 -19 -10 -5 5 49 180 75 243 44 107 45 49 1 -92z m-3284 68 l46 -76
-17 -71 c-9 -39 -19 -75 -22 -79 -8 -16 -41 47 -46 88 -8 69 -16 215 -12 215
3 0 25 -34 51 -77z m2864 -108 c1 -60 -9 -49 -40 43 -16 47 -19 73 -13 105 l7
42 23 -70 c13 -38 23 -92 23 -120z m-107 67 c-2 -17 -8 -32 -12 -32 -14 0 -21
48 -14 92 l7 42 12 -34 c7 -19 10 -50 7 -68z m-2202 -212 c54 -118 96 -217 94
-219 -3 -3 -25 17 -49 45 -64 69 -204 348 -211 418 l-5 51 37 -40 c25 -27 67
-108 134 -255z m2111 226 c10 -46 9 -66 -10 -152 -12 -54 -24 -100 -26 -103
-7 -7 -6 187 1 257 4 34 10 59 15 57 4 -3 13 -29 20 -59z m1218 -126 c-22
-205 -37 -275 -59 -275 -16 0 -19 41 -6 105 l6 35 -14 -30 c-23 -46 -19 -12
15 135 28 118 65 227 75 218 2 -2 -6 -87 -17 -188z m-796 95 l-6 -60 -14 33
c-11 28 -11 37 3 63 8 17 17 29 19 27 2 -2 1 -31 -2 -63z m452 -107 c25 -81
47 -153 50 -160 4 -9 -10 -21 -38 -35 l-43 -21 -36 96 -35 96 19 75 c23 92 27
105 33 99 2 -2 25 -70 50 -150z m-1589 -117 c-6 -100 -20 -109 -35 -21 -11 67
-5 160 16 240 10 38 25 -131 19 -219z m1470 198 c-8 -21 -15 -27 -15 -16 -1
17 20 59 27 53 1 -2 -4 -19 -12 -37z m-2704 -14 c2 -19 0 -35 -4 -35 -4 0 -8
16 -8 35 0 19 2 35 4 35 2 0 6 -16 8 -35z m2639 2 c-8 -8 -11 -7 -11 4 0 9 3
19 7 23 4 4 9 2 11 -4 3 -7 -1 -17 -7 -23z m-3179 -189 c143 -228 138 -220 95
-179 -55 52 -44 25 19 -49 61 -72 123 -182 105 -188 -7 -2 -6 -13 5 -33 8 -17
14 -42 12 -57 -3 -25 -4 -25 -30 16 -16 23 -28 55 -28 71 0 32 -20 55 -20 24
-1 -25 -12 -11 -174 220 l-134 192 15 83 c8 45 17 82 18 82 2 0 55 -82 117
-182z m2651 65 c14 -47 21 -85 16 -89 -5 -3 -9 4 -9 15 0 12 -5 20 -11 19 -17
-4 -37 60 -38 117 0 62 8 49 42 -62z m-1148 -38 c19 -152 19 -155 -4 -155 -39
0 -51 11 -51 47 0 56 30 255 36 238 2 -5 10 -64 19 -130z m1365 66 c11 -37 20
-80 20 -95 0 -27 -9 -28 -66 -11 -8 2 -8 26 2 87 8 46 14 84 14 86 0 1 2 2 5
2 2 0 13 -31 25 -69z m-2275 22 c3 -13 2 -23 -3 -23 -11 0 -22 24 -22 48 0 21
15 5 25 -25z m2604 -70 c-23 -75 -40 -93 -84 -93 -19 0 -7 32 47 128 34 59 44
69 51 56 7 -12 2 -40 -14 -91z m316 8 c-17 -34 -29 -41 -21 -13 3 9 11 37 18
62 12 44 12 45 16 13 2 -17 -4 -46 -13 -62z m100 33 c-16 -54 -25 -66 -25 -35
0 21 26 81 35 81 2 0 -2 -21 -10 -46z m2335 -139 c-19 -159 -34 -215 -60 -215
-6 0 -10 12 -10 26 0 28 81 366 87 361 2 -2 -6 -79 -17 -172z m-5400 109 c0
-28 -4 -43 -10 -39 -5 3 -10 26 -10 51 0 28 4 43 10 39 6 -3 10 -26 10 -51z
m4613 -189 c-21 -58 -41 -105 -45 -105 -5 0 -8 16 -8 35 0 19 -5 43 -11 53 -9
14 -7 38 5 97 14 71 20 84 53 113 l38 34 3 -61 c2 -50 -4 -79 -35 -166z
m-3926 193 c-3 -8 -6 -5 -6 6 -1 11 2 17 5 13 3 -3 4 -12 1 -19z m1298 -43
c-7 -57 -25 -76 -25 -26 0 32 20 95 27 87 3 -3 2 -30 -2 -61z m509 -11 c-20
-58 -34 -77 -34 -45 0 22 40 105 47 98 2 -2 -4 -26 -13 -53z m-2564 5 c6 -10
7 -19 2 -19 -5 0 -14 12 -20 26 -14 29 2 24 18 -7z m129 -29 c-1 -32 -2 -33
-9 -10 -4 14 -8 36 -9 50 -1 20 1 22 9 10 5 -8 9 -31 9 -50z m729 -12 c30
-104 38 -168 21 -168 -8 0 -24 -3 -35 -6 -20 -5 -22 -1 -29 54 -7 64 2 192 15
192 4 0 17 -33 28 -72z m781 0 c1 -34 -13 -58 -26 -44 -3 3 -2 31 2 63 6 44 9
53 16 38 4 -11 8 -37 8 -57z m2017 -18 c-7 -74 -38 -158 -66 -175 -16 -10 -40
8 -40 31 0 22 97 224 108 224 2 0 1 -36 -2 -80z m-4329 3 c-3 -10 -5 -2 -5 17
0 19 2 27 5 18 2 -10 2 -26 0 -35z m4487 0 c-5 -43 -43 -148 -51 -140 -2 3 23
101 43 170 10 32 14 17 8 -30z m72 -50 c-31 -92 -46 -119 -46 -85 0 25 60 175
68 168 2 -3 -8 -40 -22 -83z m-806 44 c0 -37 -24 -77 -46 -77 -20 0 -17 26 8
71 27 48 38 49 38 6z m1008 -157 c-33 -113 -46 -131 -75 -112 -10 6 -2 39 31
138 62 182 59 177 69 129 7 -34 3 -61 -25 -155z m-3872 102 c4 -20 3 -32 -4
-32 -15 0 -19 9 -27 55 -7 36 -6 39 9 25 8 -8 18 -30 22 -48z m173 8 c1 -13 0
-13 -9 0 -5 8 -9 24 -9 35 l0 20 9 -20 c5 -11 9 -27 9 -35z m-980 -35 l43 -70
-51 50 c-47 46 -61 72 -44 88 3 4 7 6 8 5 1 -2 21 -34 44 -73z m658 38 c-3
-10 -5 -4 -5 12 0 17 2 24 5 18 2 -7 2 -21 0 -30z m3654 -54 c-23 -66 -30 -77
-30 -52 -1 28 47 148 56 139 1 -1 -10 -40 -26 -87z m-285 -35 c-4 -12 -10 -12
-26 -4 -20 11 -20 11 2 53 l23 42 3 -39 c2 -21 1 -45 -2 -52z m1023 -75 c-18
-43 -34 -77 -36 -75 -4 4 44 202 55 226 4 9 8 -3 10 -29 2 -32 -5 -64 -29
-122z m-4609 51 c47 -73 55 -93 58 -145 3 -39 1 -57 -6 -50 -5 6 -30 33 -55
62 -40 46 -46 58 -51 115 -4 34 -10 77 -13 93 -7 39 1 30 67 -75z m4860 -57
c-1 -103 -3 -121 -21 -142 -11 -13 -21 -22 -23 -20 -2 2 5 51 15 109 10 58 18
120 19 138 0 17 2 32 5 32 3 0 5 -53 5 -117z m224 60 c-22 -61 -30 -70 -39
-44 -4 15 2 33 22 60 15 22 30 38 32 36 2 -2 -5 -25 -15 -52z m-4614 -27 c0
-18 -2 -18 -25 4 -14 14 -25 34 -25 49 l1 26 24 -30 c14 -16 25 -39 25 -49z
m4299 -13 c1 -30 -8 -77 -20 -110 -12 -32 -26 -69 -31 -82 -22 -59 -18 0 8
134 29 147 42 165 43 58z m-701 -37 c-5 -6 -12 -6 -19 1 -8 8 -8 25 2 65 l14
53 5 -55 c3 -30 2 -59 -2 -64z m2046 77 c-9 -21 -38 -87 -63 -148 -40 -96 -46
-106 -49 -77 -2 24 12 61 58 147 61 114 86 150 54 78z m-6445 -182 c89 -106
160 -195 159 -196 -2 -1 -22 -5 -44 -9 l-42 -6 -60 93 c-33 50 -71 116 -86
145 -14 28 -31 52 -36 52 -16 0 -83 108 -75 120 9 14 -9 33 184 -199z m5468
134 c-7 -76 -19 -115 -37 -115 -6 0 -10 10 -10 23 0 25 40 167 48 167 3 0 2
-34 -1 -75z m-851 -12 c-23 -48 -29 -37 -15 28 11 49 13 52 22 31 8 -17 6 -31
-7 -59z m193 -34 c-24 -84 -31 -94 -54 -86 -13 6 -9 19 25 88 23 45 44 79 46
76 3 -3 -5 -38 -17 -78z m-64 -19 c-27 -53 -52 -70 -34 -22 9 24 46 72 56 72
2 0 -8 -22 -22 -50z m1375 -40 c0 -87 -1 -91 -31 -122 -17 -18 -29 -26 -27
-18 3 8 15 63 29 122 13 60 25 108 27 108 1 0 2 -40 2 -90z m-795 -7 c-8 -103
-14 -133 -27 -133 -10 0 -5 49 9 88 4 12 3 14 -4 7 -6 -5 -18 -34 -28 -62 -18
-57 -29 -66 -39 -30 -14 53 -6 83 40 145 25 34 48 62 51 62 3 0 2 -35 -2 -77z
m-4505 -37 c-1 -6 -10 0 -20 13 -11 13 -20 28 -20 35 1 6 10 0 20 -13 11 -13
20 -28 20 -35z m-373 -69 c-6 -17 -37 48 -36 75 1 18 5 14 20 -20 11 -24 18
-49 16 -55z m5297 -56 c-32 -104 -40 -121 -58 -121 -44 0 -48 11 -29 85 15 58
26 77 67 117 26 27 50 47 53 45 2 -3 -12 -60 -33 -126z m256 60 c0 -35 -6 -55
-21 -72 l-20 -24 5 34 c9 50 26 111 31 111 3 0 5 -22 5 -49z m-573 -69 c-7
-21 -16 -32 -26 -30 -24 5 -27 73 -5 106 l17 26 12 -34 c8 -25 9 -44 2 -68z
m862 -31 c-19 -45 -49 -85 -49 -66 0 21 34 133 48 160 l17 30 3 -37 c2 -22 -6
-57 -19 -87z m781 75 c-6 -20 -46 -98 -88 -173 l-77 -138 -3 59 c-3 56 -1 61
42 117 26 33 46 65 46 73 0 15 80 109 87 102 3 -3 0 -21 -7 -40z m-7120 4 c6
-11 8 -20 6 -20 -3 0 -10 9 -16 20 -6 11 -8 20 -6 20 3 0 10 -9 16 -20z m6143
-199 l-18 -26 -9 76 c-8 72 -7 79 15 109 l24 32 3 -82 c2 -66 -1 -87 -15 -109z
m-6205 97 c23 -37 42 -71 42 -75 0 -4 -22 15 -50 42 -41 40 -50 56 -50 84 0
41 3 38 58 -51z m6904 0 l-27 -81 -3 47 c-3 39 2 54 23 82 14 19 28 34 30 34
2 0 -9 -37 -23 -82z m-7298 -259 c17 -16 27 -31 23 -35 -8 -8 -169 133 -220
194 -99 118 -90 117 34 -2 74 -71 147 -142 163 -157z m8190 204 c-49 -85 -164
-233 -164 -211 0 4 13 35 29 68 27 55 135 189 154 190 4 0 -4 -21 -19 -47z
m-228 -20 c-14 -27 -45 -70 -71 -98 l-47 -50 32 45 c18 25 48 69 67 98 20 28
38 52 40 52 2 0 -8 -21 -21 -47z m-750 -56 c-7 -50 -12 -58 -80 -126 -46 -45
-80 -72 -90 -69 -14 2 2 31 74 131 51 71 94 126 97 123 3 -3 2 -29 -1 -59z
m519 -36 l-7 -80 -110 -121 c-61 -66 -114 -120 -118 -120 -9 0 16 104 33 135
18 34 200 275 205 270 2 -2 1 -40 -3 -84z m256 -118 c-36 -72 -171 -243 -191
-243 -5 0 5 30 22 67 21 47 56 95 116 160 47 51 87 93 89 93 2 0 -14 -35 -36
-77z m322 -35 c-42 -62 -87 -128 -100 -145 -24 -33 -119 -105 -112 -85 5 14
277 342 284 342 3 0 -30 -51 -72 -112z m-9330 26 c26 -20 47 -42 47 -50 0 -7
41 -51 92 -98 51 -47 89 -86 85 -86 -9 0 -317 259 -317 266 0 2 11 4 23 4 13
0 45 -16 70 -36z m174 -30 c42 -48 42 -61 -1 -35 -19 12 -38 20 -43 19 -5 -2
-27 12 -48 31 l-39 34 49 -6 c42 -4 55 -11 82 -43z m135 17 c17 -4 42 -26 68
-60 43 -59 47 -66 28 -55 -29 17 -168 116 -168 120 0 5 39 3 72 -5z m9241 -81
c-15 -73 -18 -78 -98 -165 -145 -159 -193 -205 -209 -205 -17 0 10 40 213 313
57 76 104 137 106 135 2 -2 -4 -37 -12 -78z m-9743 -150 c135 -78 253 -149
263 -158 35 -31 6 -23 -78 23 -142 77 -117 46 32 -40 128 -74 233 -154 233
-178 0 -11 -31 -6 -143 24 l-78 21 -270 240 c-148 131 -269 241 -269 244 0 3
15 -3 33 -14 17 -11 142 -84 277 -162z m1039 169 c37 -13 41 -29 7 -29 -27 0
-82 39 -55 40 9 0 30 -5 48 -11z m-599 -66 c0 -7 -35 16 -65 42 -23 20 -18 19
18 -6 26 -18 47 -34 47 -36z m420 -135 c0 -4 -9 -8 -20 -8 -12 0 -33 20 -58
58 -60 89 -59 91 12 22 36 -35 66 -68 66 -72z m180 79 c0 -6 -9 -2 -20 8 -11
10 -20 23 -20 28 0 6 9 2 20 -8 11 -10 20 -23 20 -28z m9547 -149 c-187 -330
-176 -314 -282 -412 -195 -180 -177 -167 -208 -147 l-27 17 91 116 c62 80 108
128 146 153 30 20 52 39 49 42 -3 3 -17 -2 -31 -11 -14 -9 -25 -14 -25 -12 0
3 38 53 85 113 52 66 115 132 163 170 42 34 80 62 84 63 4 0 -17 -42 -45 -92z
m-887 39 c-7 -34 -45 -86 -124 -171 -56 -59 -35 -13 44 99 45 64 84 115 86
113 1 -2 -1 -20 -6 -41z m-9864 -117 l39 -45 -50 42 c-27 22 -59 51 -70 63
l-20 22 31 -18 c16 -11 48 -39 70 -64z m82 -24 c28 -16 50 -31 48 -33 -9 -9
-54 11 -86 39 -40 35 -35 34 38 -6z m10361 -107 c-35 -39 -74 -84 -87 -100
-30 -38 -220 -152 -240 -144 -14 5 -14 7 1 22 27 27 371 292 381 292 4 1 -21
-31 -55 -70z m-10221 11 c72 -23 138 -59 171 -94 l23 -25 -56 15 c-31 8 -61
12 -66 9 -6 -3 -41 21 -80 54 -39 34 -67 61 -63 61 5 0 36 -9 71 -20z m164
-130 c35 -10 72 -26 83 -34 20 -15 20 -15 -2 -37 -19 -20 -25 -21 -45 -10 -34
18 -125 101 -112 101 7 0 41 -9 76 -20z m10172 -225 c-38 -41 -70 -73 -72 -71
-2 2 8 27 23 56 20 40 35 56 68 71 23 10 43 19 45 19 2 0 -27 -34 -64 -75z
m-10844 -55 c126 -36 174 -56 165 -70 -3 -6 7 -15 22 -22 42 -17 177 -122 164
-126 -10 -3 -442 219 -481 248 -13 10 -13 10 0 7 8 -3 67 -19 130 -37z m10710
33 c0 -5 -11 -25 -24 -46 -22 -36 -23 -36 -39 -19 -23 25 -22 27 16 51 34 22
47 26 47 14z m-10314 -144 c44 -11 56 -25 30 -35 -8 -3 -32 6 -53 20 -42 29
-40 31 23 15z m-144 -146 c24 -9 47 -20 52 -24 11 -9 -123 20 -144 32 -28 16
48 10 92 -8z m-137 -304 c25 -6 42 -15 40 -19 -6 -9 -53 2 -82 19 -23 14 -12
14 42 0z m-36 -34 c15 -16 -41 -1 -60 15 l-24 21 39 -16 c22 -9 42 -18 45 -20z
m-99 -61 c63 -37 117 -68 119 -70 2 -2 0 -12 -5 -23 -8 -17 -21 -12 -156 62
-81 44 -145 84 -142 88 15 24 74 6 184 -57z m155 35 c4 -6 5 -12 2 -15 -7 -7
-37 7 -37 17 0 13 27 11 35 -2z m-99 -606 c-23 -23 -238 -35 -251 -13 -2 4 53
22 123 41 l127 34 3 -28 c2 -16 1 -31 -2 -34z"/>
</g>
</svg>
