<?xml version="1.0" encoding="utf-8"?>

<!DOCTYPE svg PUBLIC "-//W3C//DTD SVG 1.1//EN" "http://www.w3.org/Graphics/SVG/1.1/DTD/svg11.dtd">
<svg version="1.1" id="Layer_1" xmlns="http://www.w3.org/2000/svg" xmlns:xlink="http://www.w3.org/1999/xlink" x="0px" y="0px"
	 viewBox="-29.1428 181.4295 1422.6975 1505.2311" enable-background="new -29.1428 181.4295 1422.6975 1505.2311"
	 xml:space="preserve">
<path d="M700.76,234.46c8.6,6.03,17.46,12.01,27.52,15.34c10.1899,3.65,21.06,4.64,31.77,5.58c8.32,0.61,16.62,1.58,24.97,1.85
	c25.48,0.86,51.27,3.92,75.1,13.45c6.25,2.69,13.19,4.51,18.16,9.44l-2.2,0.66c5.44,3.66,11.93,5.25,17.63,8.38
	c6.12,5,12.21,10.61,15.57,17.91c2.18,4.52,1.54,10.4-2.3,13.84c-3.24,2.85-2.91,7.93-6.33,10.63c-4.08,3.2-9.7401,2.8-14.6,2.3
	c11.81,12.67,20.54,27.96,26.42,44.21c0.94,4.26-0.29,8.65,0.14,12.97c0.66,21.11,8.7,41.14,19.06,59.26
	c7.2,12.19,12.23,26.28,23.51,35.5c4.87,4.05,10.41,9.37,9.62,16.32c-0.07,3.77-2.62,6.73-4.12,9.97
	c-0.94,13.64-1.44,27.86-7.38,40.45c-4.32,9.33-12.32,16.4-21.12,21.43c-3.62,2.08-7.86,2.41-11.94,2.53
	c-2.38,4.3-7.03,7.96-12.21,6.83c-7.64-1.59-13.04-7.7-18.3701-12.9c-6.42-1.9-13.6299-3-18.58-8.02
	c5.78,9.43,10.92,19.26,17.07,28.47c17.39,27.07,34.23,55.59,40.23,87.63c4.36,2.11,8.79,4.38,12.17,7.94
	c4.85,4.93,7.14,11.62,10.03,17.75c3.9-5.53,7.73-11.14,12.34-16.12c20.45-22.42,48.82-35.51,69.83-57.32
	c5.1-5.28,9.42-11.24,13.59-17.26c6.55-7.4,14.88-13.88,24.74-15.95c9.87-2.16,20.01,1.65,27.9301,7.45
	c10.05,7.38,19.4299,17.26,21.75,29.95c0.17,3.27,3.16,5.01,5.0699,7.29c2.4401,2.29,4.2301,5.66,7.75,6.4301
	c33.6001,11.4,67.2201,22.87,99.9301,36.65c11.86,3.98,24.52,5.24,36.12,10.06c4.84,2.11,9.41,5.1,12.6899,9.3
	c4.1801,5.21,6.3,11.75,7.4,18.26c0.29,1.33,0.3401,2.88,1.3301,3.96c3.38,4.29,6.83,8.53,10.24,12.8
	c1.4199,2.26,4.2799,2.4,6.46,3.6c7.76,3.77,13.61,10.49,18.46,17.46c5.23,7.31,8.5901,15.7,12.27,23.85
	c2.5,6.5,5.5801,13.2599,4.84,20.4c-0.3899,4.53-4.5099,7.65-8.74,8.41c-10.39,2.08-21.0699-0.13-31.1-2.94
	c-6.77-1.88-13.58-5.33-17.29-11.54c-4.8999-7.92-6.09-17.41-7.5199-26.44c-3.2201-1.06-6.38-2.84-7.9701-5.95
	c-3.9199-7.3-3.38-15.88-3.51-23.89c-6.2899,0.92-12.87,2.56-19.0699,0.38c-6.38-2.48-10.66-8.12-14.87-13.23
	c-4.84-5.88-11.85-9.32-18.66-12.38c-16.6-6.89-34.21-10.83-51.58-15.23c19.08,30.06,37.65,60.72,50.66,93.98
	c1.58,3.53,2.51,7.36,4.47,10.71c5.66,7.66,11.3199,16.29,11.38,26.17c0.14,6.73-3.87,12.71-8.98,16.75
	c-2.27,9.93-3.92,20.19-8.39,29.44c-1.87,3.92-5.4501,7.69-10.14,7.41c-5.83-0.4-10.88-3.73-15.6-6.9
	c-3.7101-2.65-7.49-5.26-10.73-8.48c-5.64-6.35-8.8201-14.83-9.0901-23.29c-0.3199-6.9,2.5601-14.09,8.38-18.06
	c-0.98-3.93-3.1-8.02-1.6-12.1c0.9-2.97,2.76-5.53,4.33-8.18c-4.5199-8.03-8.6-16.45-10.35-25.56c-1.08-4.75-1.39-9.63-2.1799-14.43
	c-12.9801-27.45-34.17-50.08-57.51-69.12c-30.8301,23.58-56.98,52.44-84.2501,79.87c-10.93,11.08-22.52,21.52-33.1299,32.91
	c-5.38,7.82-10.61,16.17-18.69,21.53c-12.19,8.19-27.73,7.06-41.6801,5.99c-15.4,39.37-35.59,77.06-61.55,110.51
	c-23.37,29.99-51.71,56.46-84.76,75.48c-37.72,21.9399-81.42,33.33-125.04,32.8899c-1.66,12.1001-2.58,24.29-4.37,36.37
	c-1.66,10.79-4.64,21.8101-11.61,30.4701c-8.82,11.0399-21.48,18.0599-33.93,24.24c-1,11.49-1.2,23.6-6.64,34.0599
	c-5.63,9.9301-15.02,16.8401-23.47,24.2001c-0.2599,9.02,0.4,18.34-2.59,27.02c-3.12,8.83-10.21,15.4199-17.21,21.2899
	c-1.57,7.86-3.67,15.74-7.7,22.75c-5.55,10.01-15.15,16.88-24.91,22.42c-4.63,2.9399-9.95,4.83-13.95,8.71
	c-14.49,12.23-27.27,26.4-38.15,41.9301c-0.71,1.3099-2.69,2.65-1.39,4.23c18.24,33.1899,35.6,66.97,56.75,98.46
	c13,19.16,27.35,37.63,44.55,53.24c8.19,4.48,17.91,6.63,24.78,13.3201c5.9301,5.9399,6.73,14.83,7.22,22.76
	c-0.04,1.3199,1.22,1.97,2.15,2.6499c9.22,6.3,17.33,14.13,24.56,22.63c4.47,5.3601,9.05,10.92,11.41,17.6101
	c-4.13,3.71-10.01,4.1-15.23,5.0699c-11.22,1.13-22.78,1.33-33.77-1.5699c-3.44-1.02-7.08-2.3-9.51-5.05
	c-4.52-7.03-7.71-14.9401-9.03-23.2c-7.61,0.25-15.71-1.26-21.68-6.28c-7.92-6.41-11.66-16.39-13.9301-26.01
	c-0.64-2.28-0.59-4.87-2.1299-6.77c-28.9-39.14-57.38-78.59-86.71-117.41c-1.51,10.6801-2.3,21.55-0.94,32.29
	c1.33,12.8099,5.28,25.15,9.26,37.34c4.04,12.5,8.54,24.86,12.79,37.3c4.94,14.41,11.37,28.8099,22.29,39.73
	c6.6,7.2,15.74,11.76,21.26,20c3.32,5.04,3.71,11.26,4.07,17.12c5.79,4.34,11.11,9.47,14.92,15.6801
	c4.52,7.12,6.52,15.74,5.85,24.13c-8.47,3.1499-17.67,3.1899-26.59,3.2c-8.08-0.05-16.24-0.61-24.05-2.75
	c-2.4-0.79-5.54-1.74-6.04-4.59c-2.26-8.23-3.63-16.7201-3.81-25.25c-5.81-1.52-11.4-4.37-15.39-8.9501
	c-5.16-5.75-7.52-13.46-8.19-21.02c-0.29-2.61-0.02-5.2899-0.81-7.7999c-10.39-30.47-22.15-60.47-31.52-91.29
	c-0.87-3.21-2.83-5.9399-4.45-8.78c-10.97-19.12-21.45-38.59-29.79-59.0199c-1.8-4.2201-2.91-8.77-5.61-12.55
	c-4.89-8.24-10.61-17.65-7.97-27.63c2.56-8.59,8.71-15.46,14.23-22.3c-5.44-7.73-10.57-17.08-8.33-26.86
	c2.35-10.61,10.77-18.1599,17.6-26.01c15.72-29.34,30.7-59.1699,49.01-87.0199c0.63-0.89,1.32-2.0801,0.56-3.1101
	c-3.08-6.22-8.03-11.21-12.4-16.51c-6.94-8.1799-14.5-16.6899-16.6-27.5499c-9.23-15.34-18.82-30.54-26.22-46.88
	c-2.14-4.54-3.58-9.41-6.37-13.62c-6.12-9.96-8.25-21.66-9.88-33.0601c-3.99,10.1001-7.44,20.8301-6.79,31.8301
	c0.69,10.33,4.94,20.0299,9.87,28.99c-7.18-5.9601-13.36-13.4301-16.55-22.3c-3.38-9.35-3.61-19.4-4.28-29.2
	c-1.12,2.25-2.65,4.58-2,7.23c3.42,29.4301-2.81,60.17-18.95,85.17c9.62,8.36,16.65,19.76,19.31,32.2699
	c2.88,13.62,1.74,27.88-1.8,41.27c9.86,17.28,17.85,36.4401,17.75,56.66c0.25,19.6801-7.78,38.61-19.33,54.24
	c-2.32,3.38-5.4,6.24-7.16,9.99c-0.92,1.35-1.01-1.27-0.48-1.7c2.8-2.8,4.51-6.41,6.55-9.75c5.66-9.6901,10.2-20.42,10.56-31.78
	c0.6-11.29-2.27-22.3199-4.95-33.1801c-1.71,21.3301-5.64,43.26-17.34,61.5801c-9.98,16.09-26.03,27.87-43.84,33.96
	c-22.59,7.78-46.92,9.14-70.61,7.67c19.99-0.5801,40.72-2.8201,58.54-12.61c14.49-7.77,25.35-21.05,32.28-35.78
	c4.88-10.17,8.68-20.9,11.18-31.89c-5.97,16.0601-14.44,31.4399-26.16,44.05c-11.39,12.23-26.44,21.0299-42.78,24.6499
	c-22.11,5.2101-45.15,2.1901-66.98-2.9199c-13.43-3.25-26.6-7.5-39.59-12.1901c-9.53-3.6699-19.22-7.14-29.32-8.9
	c-10.63-1.8899-21.63-1.5199-32.15,0.9c-3.58,0.76-7.03,2.05-10.66,2.63c7.81-4.77,16.32-8.96,25.58-9.6899
	c7.96-0.9,15.89,0.65,23.79,1.4099c-12.55-3.99-25.27-8.6599-38.63-8.36c-6.51,0-13.45,1.78-18.09,6.61
	c-3.52,3.5701-5.13,8.4701-6.21,13.26c-1.53-7.6799-2.02-16.26,2.13-23.24c3.94-6.6699,11.28-10.35,18.51-12.33
	c10.05-2.72,20.53-2.78,30.85-3.3c-14.76-2.1499-29.82-4.3999-44.7-2.0399c-7.68,1.2899-15.89,4.0399-20.67,10.59
	c-3.84,5.12-4.39,11.9-3.45,18.05c0.54,4.5299,2.32,8.7699,3.39,13.1799c-4.51-7.3199-9.15-14.87-10.7-23.47
	c-1.64-7.53-0.11-15.79,4.65-21.92c5.98-7.86,14.87-12.84,23.79-16.6799c-7.72,1.76-15.22,4.5499-22.26,8.1699
	c-6.85,3.5601-13.12,9.26-15.06,17c-2.29,9.4701,0.75,19.14,4.11,27.9601c-3.97-6.4401-6.96-13.4801-8.89-20.79
	c-2.24-8.9401-2.06-18.99,2.9-27.02c5.99-9.98,16.83-15.6799,27.44-19.54c19.77-6.86,40.82-8.61,61.57-9.88
	c-8.87-4.0599-18.11-7.2999-27.38-10.3199c-13.12-4.2-27.75-7.03-41.06-1.98c-14.51,5.38-24.81,17.67-33.9,29.64
	c7.74-14.72,17.54-29.61,32.68-37.55c15.93-8.1799,34.33-7.4,51.71-7.64c-13.2-2.6699-26.78-5.0699-40.27-3.3099
	c-12.75,1.7999-24.15,8.4099-34.41,15.86c12.24-14.4501,30.05-24.4501,49.11-25.6901c23.78-1.5699,46.66,6.53,69.14,13.12
	c4.94-5.13,9.51-10.74,12.64-17.1799c4.04-8.28,6.19-17.3,8.14-26.25c-3.45,5.17-6.42,10.79-11.04,15.0499
	c-4.59,3.9401-10.18,6.4601-15.7,8.79c5.56-5.28,11.62-10.24,15.82-16.73c4.02-6.13,4.91-13.59,5.67-20.71
	c-14.19,3.1499-29,5.4299-41.74,12.84c-11.7,6.85-19.54,18.46-25.65,30.26c2.77-10.8101,6.16-21.97,13.43-30.6801
	c8.41-9.5,20.73-13.83,31.92-19.08c-13.64,2.4301-27.86,5.47-39.1,14.04c-7.52,5.5699-12.74,13.5399-16.97,21.76
	c2.5-12.6901,7.94-25.39,17.97-33.9301c10.16-8.8101,23.56-12.46,36.52-14.74c8.13-1.4301,16.33-2.46,24.55-3.27
	c-1.01-5.5699-2.37-11.14-5-16.1799c-2.92-5.63-6.75-10.6901-10.2-15.9901c-12.81,1.14-25.6,4.25-37.13,10.04
	c-5.83,3.1801-12.06,7.74-13.22,14.74c-0.61,5.8301,3.1,10.8301,6.63,15.0601c-6.32-3.8201-12.97-8.6-15.26-15.98
	c-2.05-6.26,0.81-12.9601,5.03-17.6101c7.77-8.7,18.56-14.09,29.47-17.73c-11.92,0.5701-24.21-0.4399-35.77,3.05
	c-11.15,3.4-17.17,15.15-18.31,26.0599c-1.18-8.74-0.03-18.0299,4.08-25.8999c3.63-6.89,10.86-11.01,18.24-12.7201
	c13.06-3.1899,26.62-2.8199,39.91-4.21c-8.67-23.3199-16.52-47.16-19.73-71.9301c-13.16-2.83-26.65-5.7999-38.28-12.8699
	c-12.29-7.41-21.21-19.02-29.31-30.59c5.68,5.61,10.85,11.88,17.59,16.3c7.51,4.9,16.3,7.45,25.06,8.99
	c-11.8-6.1-23.69-13.49-31.14-24.8c-6.21-9.43-6.92-21.25-5.45-32.15c0.93-8.16,3.39-16.01,5.01-24.02
	c-0.11,11.93-2.88,24.36,1.7,35.87c4.79,12.27,16.91,19.46,28.55,24.21c-4.48-2.98-8.55-6.7-11.51-11.21
	c-4.56-7.54-5.79-16.42-7.98-24.8c4.56,9.36,8.99,19.51,17.65,25.85c9.6,6.79,21.86,7.08,33.14,7.9301
	c4.89-17.14,10.76-34.1801,19.65-49.7c6.97-12.16,16.14-23.64,28.58-30.54c10.99-6.2,24.16-7.74,36.5-5.65
	c19.27,3.19,36.82,12.6,53.1,23c5.11,3.56,10.93,6.42,14.77,11.5c9.46,9.82,20.94,17.44,32.57,24.46
	c15.21,8.88,31.24,16.4901,48.11,21.63c10.63,3.17,21.83,5.41,32.96,3.97c3.36-15.54,8.5-31,17.79-44.06
	c11.42-16.23,27.8-27.95,43.97-39.04c5.27-3.7599,11.05-6.84,15.77-11.3199c10.73-9.05,24.44-13.51,37.94-16.48
	c11.18-2.44,22.58-3.52,33.9-5.06c43.7-28.79,83.0699-64.66,113.5699-107.33c-7.99,1.6899-16.09,4.22-24.34,3.02
	c-7.7-0.88-14.67-4.52-21.44-8.04c7.16,1.09,14.22,3.72,21.57,2.81c9.88-0.98,17.36-8.29,24.09-14.91
	c-8.5,2.8-17.19,5.78-26.26,5.55c-8.5,0.27-16.7599-1.98-25.1-3.16c8.28-0.98,16.79,0.13,24.98-1.9
	c11.64-2.28,21.03-10.1801,29.08-18.45c-8.09,3.5-16.23,7.07-24.91,8.83c-16.25,3.83-33.03,2.8199-49.56,2.73
	c13.37-1.22,26.94-3.13,39.25-8.84c10.91-4.88,21.44-12.94,25.2599-24.72c2.9901-8.61,0.9901-17.9-2.4-26.06
	c1.3,8.84,1.45,18.47-3.37,26.37c-6.61,11.17-19.48,16.62-31.69,19.06c-14.77,2.79-30.16,1.25-44.69,5.52
	c-4.54,1.33-9.21,4.12-10.12,9.15c0.64,4.98,3.38,9.25,6.57,12.99c-5.13-3.5-10.24-7.31-13.92-12.38
	c-1.85-2.5099-3.16-5.96-1.68-8.94c1.88-3.18,5.54-4.68,8.86-5.87c5.99-1.86,12.21-3.02,18.46-3.6c-5.96-1.06-12,0.26-18,0.2
	c-10.98,0.91-22.37,1.55-32.58,6.09c-4.05,1.73-8.42,5.54-7.33,10.44c1.72,7.18,8.04,11.81,13.23,16.54
	c-7.41-4.45-14.68-9.72-19.58-16.96c-3.08-4.48-4.4-10.57-1.89-15.6c3.56-7.33,10.98-11.6,18-15.08
	c16.72-7.67,35.05-11.29,53.3-12.81c-7.37-1.28-15.19-1.58-21.89-5.24c-6.82-3.85-10.95-10.76-15.49-16.86
	c7.53,6.98,16.87,12.3701,27.21,13.53c10.66,1.43,22.91-2.06,28.92-11.53c5.31-8.3799,3.91-19.09,0.15-27.78
	c-2.95-7.65-8.81-13.58-12.62-20.75c-4.86-8.3-8.13-17.7-8.25-27.39c-0.18-14.06,4.23-27.58,6.36-41.35
	c-6.2401,16.27-13.36,32.73-14,50.41c-0.53,12.37,3.43,24.76,10.73,34.73c3.61,5.2,8.1,9.7,12.62,14.11
	c-12.83-8.96-24.75-20.57-29.98-35.67c-5.23-14.74-4.15-30.6299-3.16-45.95c0.94-1.24,1.3-3.06-0.21-4.02
	c-0.75,9.35-3.5601,18.4-4.22,27.77c-1.53,12.3,0.11,25.34,6.51,36.13c5.1,8.8199,12.26,16.22,19.86,22.91
	c-13-7.32-24.36-17.77-32.46-30.32c-10.71-16.7-14.08-37.3-11.91-56.81c0.65-7.83,2.41-15.51,4.16-23.15
	c-0.7-8.3-1.85-17.29,2.2401-24.98c3.87-7.47,11.8-11.61,19.49-14.14c-7.76-0.2-15.59-0.05-23.23,1.3701
	c-5.35,1.04-11.35,3.49-13.35,9.02c-1.67,3.95-0.09,8.09,0.07,12.15c-3.02-6.46-6.31-13.85-3.61-21
	c3.11-7.23,10.85-10.74,17.85-13.19c6.69-2.38,13.66-3.85,20.56-5.51c-11.49-0.2-23.42-1-34.46,2.85
	c-7.85,2.76-13.62,9.38-16.89,16.86c1.72-8.93,5.59-18.6,14.11-23.01c12.04-6,25.92-5.3,38.7-8.63c6.59-1.67,12.04-6.41,15.04-12.46
	c-12.57,6.32-27.08,9.62-41.04,6.66c-12.04-2.38-23.27-9.53-29.53-20.24c5.21,4.54,10.38,9.52,17,11.92
	c7.85,2.93,16.41,2.08,24.59,1.54c-10.68-0.84-22.38-1.86-30.86-9.16c-8.35-7.55-10.71-19.4-11.55-30.14
	c3.16,10.28,8.36,21.46,18.84,25.95c10.28,4.28,21.53,0.38,31.01-4.14c-7.7,1.23-16.11,2.33-23.27-1.59
	c-7.62-4.26-12.44-11.9-17.12-18.99c6.92,7.33,14.48,15.28,24.83,17.27c8.48,1.62,16.72-2.91,22.29-9.01
	c9.1-9.87,14.38-22.57,18.35-35.22c1.84-6.17,3.45-12.43,4.37-18.82c-6.52,7.33-15.06,13.69-18.09,23.41
	c-2.1,6.35-0.11,12.89,0.99,19.2c-4.83-8.98-8.59-19.8-4.69-29.83c4.95-12.35,16.07-20.44,24.94-29.82
	c-12.93,6.86-26.2,13.96-36.15,24.95c-4.4901,5.08-8.3,11.83-6.73,18.84c1.65,7.13,7.65,11.97,13.31,16.02
	c-8.55-3.24-17.69-8.49-20.49-17.82c-3.01-10.44,1.01-21.18,4.7-30.89c-5.37,7.08-11.55,14.49-12.44,23.69
	c-0.67,7.61,3.76,14.24,7.85,20.23c-7.63-6.42-13.3199-15.95-12.78-26.18c0.58-11.49,7.21-21.58,14.66-29.91
	c12.24-13.21,27.15-23.88,43.21-31.94c-7.4,2.13-14.56,5.12-21.34,8.76c-8.74,4.63-16.15,11.27-23.55,17.75
	c9.76-12.13,21.87-22.66,36.11-29.19c13.46-6.26,28.08-9.35,42.5-12.52c3.98-0.77,7.86-2.05,11.91-2.39
	c-6.57-1.18-13.41-1.71-19.44-4.81c-8.79-4.21-14.77-12.23-20.52-19.79c6.24,4.86,11.84,10.91,19.41,13.76
	c6.3,2.55,13.24,2.37,19.89,1.79c-7.91-0.58-16.1299-2.16-22.54-7.14c-6.75-5.28-11.27-12.73-16.12-19.65
	c8.45,6.84,17.32,14.19,28.35,16.15c9.98,2,19.96-0.93,29.55-3.46c-8.67,0.26-17.83,1.68-26.04-1.97
	c-5.48-2.38-10.09-6.35-14.31-10.5c6.76,2.86,13.62,5.77,21.01,6.46c11.74,1.52,23.5-2.58,33.08-9.18
	c11.27-7.91,24.6-12.07,37.89-15.12c-9.85-1.86-20.23-3.8-30.08-0.98c-6.12,1.64-11.38,5.36-16.14,9.4
	c4.98-7.31,12.26-13.63,21.17-15.29c11.37-2.35,22.85,0.75,34.13,2.17c-14.17-4.67-29.09-10.17-44.21-7.26
	c-9.69,1.77-17.62,8.07-24.27,14.99c5.53-8.73,13.03-16.96,23.11-20.26c11.2-3.54,23.22-1.29,34.23,1.88
	c17.96,5.58,36.48,9.72,55.29,10.97c-10.97-2.88-22.04-6.64-31.04-13.76C710.11,243.76,705.12,239.4,700.76,234.46 M867.4,555.83
	c-1.6-6.71-0.71-13.76,0.94-20.37c-6.7401-4.45-13.81-8.41-20.4-13.09C854.27,533.61,860.83,544.73,867.4,555.83z"/>
</svg>
