<?xml version="1.0" standalone="no"?>
<!DOCTYPE svg PUBLIC "-//W3C//DTD SVG 20010904//EN"
 "http://www.w3.org/TR/2001/REC-SVG-20010904/DTD/svg10.dtd">
<svg version="1.0" xmlns="http://www.w3.org/2000/svg"
 width="1280.000000pt" height="650.000000pt" viewBox="0 0 1280.000000 650.000000"
 preserveAspectRatio="xMidYMid meet">
<metadata>
Created by potrace 1.15, written by Peter Selinger 2001-2017
</metadata>
<g transform="translate(0.000000,650.000000) scale(0.100000,-0.100000)"
fill="#000000" stroke="none">
<path d="M3409 6491 l-135 -6 -173 -65 -172 -65 -164 -166 -165 -166 -103 -6
-103 -7 -118 -63 -117 -64 -109 -135 -109 -136 -77 -243 c-42 -134 -80 -251
-85 -260 -4 -9 -61 -38 -125 -65 l-117 -49 -257 -290 -256 -290 -199 -122
c-181 -110 -217 -128 -380 -187 -109 -40 -219 -73 -280 -84 -89 -16 -100 -20
-103 -40 -2 -12 -9 -22 -16 -22 -7 0 -20 -6 -29 -13 -16 -11 -9 -27 83 -182
l100 -170 140 -110 140 -111 135 -23 c126 -22 151 -24 363 -17 l227 7 301
-109 c213 -77 349 -120 468 -148 l167 -38 181 18 c99 10 181 16 182 14 2 -1
35 -56 75 -121 l72 -118 -26 -31 c-15 -17 -101 -109 -192 -204 l-166 -173 -87
-35 -88 -35 -141 15 -140 16 -251 -133 c-137 -74 -249 -138 -247 -143 2 -6 77
-29 168 -53 l164 -44 556 -7 555 -7 -148 -235 c-82 -129 -154 -238 -161 -241
-7 -4 -122 -37 -257 -74 -135 -37 -255 -74 -267 -81 -41 -25 -223 -206 -217
-215 11 -18 519 -10 799 12 l270 21 250 143 c138 79 345 198 462 265 l211 121
139 14 c82 8 335 16 623 19 l485 6 305 61 c177 35 309 66 315 74 9 11 49 -8
197 -93 103 -59 189 -109 191 -112 3 -3 -115 -4 -261 -2 l-267 2 -155 -64
-155 -65 -108 -142 c-63 -82 -105 -145 -100 -150 6 -6 68 -5 149 1 76 5 287
10 468 10 l329 0 341 111 c188 61 424 138 526 172 l185 61 240 7 c371 11 484
29 790 132 l251 84 189 126 190 126 260 29 260 30 683 -69 684 -69 361 -81
c199 -44 482 -111 628 -148 l267 -69 193 -100 c187 -98 197 -104 286 -194 l92
-93 8 -101 8 -101 -40 -91 c-35 -80 -52 -103 -143 -197 l-103 -107 -222 -93
c-221 -93 -223 -93 -392 -119 -93 -15 -327 -53 -520 -86 l-350 -59 -570 -19
-570 -19 -645 89 c-355 49 -908 124 -1229 168 l-583 80 -292 0 -291 0 -265
-50 -265 -50 -587 -196 c-324 -108 -588 -200 -588 -205 0 -5 2 -9 5 -9 8 0
308 49 765 125 336 56 436 69 670 85 502 36 496 36 1278 -84 372 -58 913 -136
1202 -176 289 -39 605 -82 702 -95 159 -22 210 -25 500 -25 187 0 468 9 668
20 298 16 392 26 690 69 327 48 359 54 610 126 l265 76 160 91 c88 51 205 128
261 172 85 68 116 102 195 210 92 127 94 132 141 280 l48 151 -12 154 -12 153
-51 93 c-29 51 -87 135 -130 187 -71 85 -92 103 -244 202 -161 105 -174 112
-401 197 -199 75 -275 98 -495 148 -339 79 -875 171 -1245 215 -272 32 -332
36 -765 46 -455 10 -476 12 -640 41 -93 17 -171 32 -173 33 -1 2 11 153 28
337 25 282 30 380 30 638 l0 305 -46 264 -46 265 -112 261 c-136 317 -203 430
-336 570 -141 147 -379 340 -583 472 l-178 115 -257 50 c-141 27 -302 59 -357
70 -59 12 -183 24 -305 30 -186 9 -237 8 -555 -16 l-350 -26 -254 -85 c-139
-47 -389 -132 -554 -190 -200 -69 -303 -101 -307 -93 -4 6 -12 63 -18 127 -15
158 -64 284 -166 429 -66 94 -84 112 -183 183 l-110 79 -150 26 c-83 14 -179
24 -214 23 -35 -1 -125 -4 -200 -7z"/>
</g>
</svg>
