<?xml version="1.0" standalone="no"?>
<!DOCTYPE svg PUBLIC "-//W3C//DTD SVG 20010904//EN"
 "http://www.w3.org/TR/2001/REC-SVG-20010904/DTD/svg10.dtd">
<svg version="1.0" xmlns="http://www.w3.org/2000/svg"
 width="925.000000pt" height="1280.000000pt" viewBox="0 0 925.000000 1280.000000"
 preserveAspectRatio="xMidYMid meet">
<metadata>
Created by potrace 1.15, written by Peter Selinger 2001-2017
</metadata>
<g transform="translate(0.000000,1280.000000) scale(0.100000,-0.100000)"
fill="#000000" stroke="none">
<path d="M1424 12775 c-28 -28 -26 -54 9 -115 l20 -35 -57 -130 -58 -130 -141
0 c-156 -1 -218 -13 -338 -65 -85 -38 -378 -206 -399 -229 -8 -10 -67 -49
-130 -89 -115 -71 -253 -175 -300 -227 l-25 -28 40 6 c109 17 233 26 355 28
125 1 143 -1 240 -31 58 -18 159 -44 225 -59 l119 -26 17 -56 c100 -328 94
-556 -27 -971 -87 -300 -103 -356 -113 -403 -6 -27 -15 -71 -21 -97 -18 -85
-13 -309 11 -406 22 -93 84 -233 141 -323 24 -38 38 -76 47 -129 37 -213 124
-367 275 -486 74 -58 245 -149 300 -160 29 -5 57 -31 158 -142 169 -189 387
-405 485 -483 56 -44 96 -86 124 -130 56 -86 186 -255 277 -359 41 -47 92
-113 114 -147 22 -35 60 -81 85 -102 42 -38 46 -46 79 -163 18 -68 34 -135 34
-149 0 -14 -33 -101 -73 -195 -40 -93 -93 -218 -118 -278 -24 -60 -48 -110
-54 -112 -102 -34 -132 -51 -188 -104 -52 -49 -108 -120 -94 -120 2 0 28 8 58
19 31 10 80 22 110 26 l54 7 -40 -30 c-22 -16 -58 -46 -80 -66 l-40 -36 53 26
c30 14 56 24 58 21 4 -4 -31 -100 -42 -115 -1 -2 -51 18 -111 44 -139 62 -185
63 -293 13 l-75 -36 85 4 85 3 -50 -13 c-134 -35 -215 -119 -239 -246 l-6 -34
58 55 c137 131 247 141 580 57 221 -56 302 -104 302 -181 0 -19 2 -20 10 -8 5
8 10 41 10 74 0 105 -77 202 -175 220 l-36 7 43 80 c29 54 48 79 60 79 10 0
43 14 73 31 64 36 55 36 295 -18 204 -46 289 -88 291 -142 0 -24 1 -24 9 -6
15 35 10 118 -9 161 -24 52 -90 108 -146 124 -25 7 -45 13 -45 14 0 1 32 63
71 136 39 74 116 224 170 333 55 108 133 260 174 337 41 77 75 145 75 151 0 5
-32 76 -70 156 -70 145 -70 146 -50 165 35 32 36 63 14 250 l-7 56 71 -13
c239 -46 435 -252 600 -630 97 -224 110 -267 147 -492 137 -826 365 -1729 707
-2801 l90 -284 -21 -51 -22 -51 31 29 c16 16 30 27 30 24 0 -12 227 -659 325
-924 179 -489 357 -945 391 -1000 l32 -53 -19 -29 c-26 -39 -24 -51 4 -25 13
12 26 22 28 22 3 0 34 -36 68 -80 77 -97 216 -231 338 -325 l90 -70 13 -82 c6
-45 9 -95 5 -111 -3 -17 -31 -72 -62 -123 -57 -97 -103 -184 -103 -194 0 -4
37 33 82 81 95 100 157 144 205 144 18 0 70 -8 115 -19 46 -10 103 -21 128
-25 l45 -6 -25 19 c-14 11 -76 48 -137 82 -121 67 -144 87 -161 135 -10 30 -6
28 146 -63 85 -51 159 -93 163 -93 9 0 32 -102 32 -142 0 -15 -35 -97 -78
-182 -43 -86 -77 -158 -74 -160 3 -3 25 21 51 52 74 90 150 164 186 179 29 12
50 11 174 -7 77 -11 143 -19 145 -16 6 6 -62 44 -177 101 -110 53 -122 61
-140 94 -10 20 -10 23 1 18 8 -3 68 -30 134 -60 66 -30 155 -67 197 -83 l77
-28 11 -49 c16 -77 14 -87 -59 -233 -85 -174 -96 -204 -50 -149 63 76 164 177
191 191 25 13 78 20 78 10 0 -3 -21 -46 -46 -96 -25 -50 -44 -93 -42 -95 2 -3
41 38 86 90 68 79 86 94 105 90 47 -12 156 -21 151 -13 -3 5 -28 21 -56 37
-44 26 -48 30 -27 33 13 2 78 -5 144 -15 157 -23 173 -20 115 16 l-45 29 35
-6 c46 -7 210 -26 231 -26 11 0 20 -21 32 -72 10 -40 17 -82 17 -92 0 -11 -23
-69 -51 -129 -28 -60 -49 -111 -47 -113 2 -2 21 18 41 44 20 26 55 67 79 90
38 38 46 42 92 41 28 0 81 -3 119 -8 37 -4 67 -5 67 -3 0 2 -43 23 -95 48 -52
24 -95 47 -95 52 0 4 30 41 66 82 61 68 73 77 139 101 l73 25 -33 -65 c-18
-37 -36 -77 -40 -91 -6 -21 -1 -18 26 15 19 22 57 65 86 96 l52 55 88 -12 c48
-6 90 -10 92 -8 1 1 -23 18 -55 36 l-59 33 40 3 c22 2 90 -4 151 -13 62 -10
118 -15 125 -13 7 2 -51 37 -129 77 -78 39 -142 73 -142 76 0 2 7 32 16 67 20
76 14 240 -11 333 -9 33 -72 204 -140 380 -69 176 -214 554 -324 840 -627
1637 -990 2489 -1427 3355 -830 1645 -1683 2741 -2611 3355 -40 26 -75 55 -78
64 -3 10 -29 58 -59 109 -259 437 -669 727 -1211 857 -333 80 -621 97 -1040
63 -134 -10 -142 -10 -180 10 -100 51 -170 147 -200 273 -25 105 -29 301 -12
569 26 408 29 509 18 665 -23 314 -73 488 -180 623 -48 61 -56 54 106 106 73
23 132 36 167 36 63 0 86 16 86 62 0 22 -11 41 -40 71 -39 39 -40 40 -20 54
42 29 15 93 -51 122 -21 10 -48 29 -59 44 -24 30 -80 51 -117 44 -14 -2 -37 2
-52 9 -41 22 -88 17 -117 -11z m139 -136 c5 -17 -18 -51 -99 -150 -58 -71
-107 -129 -109 -129 -8 0 133 243 157 270 31 36 44 38 51 9z m100 -51 c2 -18
3 -36 1 -40 -3 -4 -58 -54 -124 -112 -114 -101 -121 -105 -146 -94 l-26 12
135 133 c74 73 139 133 145 133 5 0 12 -15 15 -32z m59 -81 c-6 -7 -14 -31
-18 -53 l-6 -41 -115 -52 c-106 -48 -155 -60 -143 -36 5 11 112 90 219 162 60
41 87 50 63 20z m1613 -4827 c31 -44 74 -94 95 -112 34 -30 41 -45 68 -143 51
-183 52 -165 -16 -321 -33 -77 -112 -263 -175 -414 -108 -259 -165 -391 -170
-396 -6 -6 -202 55 -200 63 1 4 64 129 141 278 l139 269 -73 151 -72 150 27
28 c30 32 32 68 13 217 -6 47 -13 128 -15 180 l-5 96 91 15 c51 9 93 17 94 17
2 1 28 -34 58 -78z m4403 -7155 c7 -6 -22 -55 -32 -55 -8 0 -65 33 -92 54 -1
1 -5 11 -8 23 l-7 21 68 -20 c37 -11 69 -21 71 -23z m790 -103 c-48 -118 -62
-141 -76 -133 -11 6 -62 110 -62 127 0 2 24 5 53 7 28 2 60 4 70 5 10 1 17 -2
15 -6z"/>
</g>
</svg>
