<?xml version="1.0" standalone="no"?>
<!DOCTYPE svg PUBLIC "-//W3C//DTD SVG 20010904//EN"
 "http://www.w3.org/TR/2001/REC-SVG-20010904/DTD/svg10.dtd">
<svg version="1.0" xmlns="http://www.w3.org/2000/svg"
 width="1280.000000pt" height="1138.000000pt" viewBox="0 0 1280.000000 1138.000000"
 preserveAspectRatio="xMidYMid meet">
<metadata>
Created by potrace 1.15, written by Peter Selinger 2001-2017
</metadata>
<g transform="translate(0.000000,1138.000000) scale(0.100000,-0.100000)"
fill="#000000" stroke="none">
<path d="M8895 11367 c-119 -13 -174 -28 -203 -52 -27 -23 -108 -55 -140 -55
-9 -1 6 -12 34 -25 28 -14 59 -34 70 -46 18 -20 18 -20 -6 -15 -60 12 -303 16
-393 6 -106 -12 -135 -21 -242 -71 -64 -30 -67 -33 -40 -36 93 -9 196 -26 201
-34 3 -5 -6 -9 -20 -9 -114 0 -480 -137 -571 -214 l-30 -25 29 -1 c28 0 28 -1
13 -18 -25 -28 -21 -40 18 -48 19 -3 35 -9 35 -13 0 -4 -20 -17 -45 -29 -44
-21 -56 -37 -34 -44 6 -2 -88 -53 -208 -113 l-218 -110 100 -5 c94 -5 98 -6
70 -19 -87 -38 -85 -35 -25 -39 90 -4 89 -12 -5 -43 -49 -17 -103 -41 -120
-53 -17 -13 -64 -38 -106 -55 -99 -41 -184 -92 -184 -111 0 -12 14 -15 60 -15
33 0 69 -6 80 -12 l20 -12 -20 -1 c-120 -5 -180 -19 -259 -61 l-82 -43 -47 22
c-94 44 -186 63 -337 69 -194 8 -470 -24 -563 -64 -31 -13 -50 -15 -112 -7
-41 5 -75 6 -75 2 0 -4 9 -31 20 -60 11 -29 20 -54 20 -55 0 -2 -21 -3 -47 -3
-70 0 -173 25 -231 54 -59 30 -84 32 -102 11 -10 -12 -9 -26 7 -70 19 -52 20
-55 3 -55 -27 0 -91 29 -123 56 -37 31 -100 48 -127 34 -19 -10 -19 -13 -5
-45 8 -19 22 -51 30 -70 l15 -35 -71 0 c-62 0 -70 -2 -65 -17 5 -17 -8 -18
-192 -18 -267 -1 -322 -19 -322 -104 0 -50 -24 -80 -115 -141 -41 -27 -76 -54
-80 -59 -3 -6 8 -20 25 -32 16 -13 30 -25 30 -28 0 -4 -22 -16 -49 -29 -32
-14 -67 -43 -97 -77 -33 -39 -58 -58 -87 -67 -60 -18 -177 -130 -177 -169 0
-23 -14 -43 -60 -87 -44 -43 -60 -66 -60 -86 0 -14 7 -29 15 -32 32 -13 11
-48 -91 -155 -110 -115 -156 -188 -135 -213 7 -8 25 -16 41 -20 36 -7 37 -14
9 -69 -38 -74 -61 -99 -116 -124 -29 -13 -53 -29 -53 -34 0 -6 13 -30 30 -54
16 -24 30 -48 30 -54 0 -5 -24 -12 -52 -15 -29 -2 -100 -10 -158 -16 -135 -16
-143 -16 -218 -2 -51 9 -72 8 -105 -3 -23 -7 -71 -20 -107 -29 -36 -8 -94 -28
-130 -45 -44 -21 -80 -31 -113 -31 -29 0 -64 -8 -89 -21 -27 -14 -53 -19 -77
-16 -20 2 -48 0 -63 -4 -24 -7 -35 -1 -83 42 -52 49 -112 134 -135 193 -9 24
-8 28 10 33 16 4 20 14 20 44 0 32 8 48 40 83 74 80 90 165 45 232 -30 45 -31
51 -4 59 38 12 59 63 59 145 0 97 -16 155 -75 265 l-47 90 5 80 c8 115 -3 138
-91 201 -52 36 -85 70 -115 115 -47 70 -81 92 -178 115 -35 8 -76 23 -93 33
-49 29 -82 33 -151 16 -58 -15 -67 -15 -86 -1 -16 11 -38 13 -88 9 -36 -3 -83
-1 -105 5 -43 12 -72 3 -135 -43 -23 -17 -47 -25 -75 -25 -36 0 -48 -6 -93
-50 -28 -27 -64 -52 -79 -55 -59 -13 -83 -28 -98 -60 -9 -18 -16 -40 -16 -50
0 -9 -20 -35 -45 -57 -45 -41 -108 -140 -120 -191 -7 -25 -5 -27 24 -27 39 0
39 -8 -1 -64 -21 -30 -31 -57 -31 -78 2 -72 19 -184 32 -206 17 -31 6 -72 -19
-72 -33 0 -32 -19 7 -91 42 -79 111 -149 145 -149 42 0 48 -12 46 -79 -3 -56
0 -65 21 -82 14 -11 39 -19 61 -19 49 0 73 -23 65 -61 -13 -57 56 -129 123
-129 21 0 43 -11 67 -31 31 -28 40 -31 76 -25 48 8 74 -4 94 -44 18 -36 53
-40 80 -10 27 30 43 24 67 -25 37 -75 79 -72 168 11 45 42 53 46 85 40 29 -6
45 -2 81 19 44 26 64 26 64 1 0 -32 77 -162 127 -217 31 -33 54 -61 52 -63 -2
-1 -20 -12 -39 -24 -65 -39 -157 -144 -216 -247 -79 -137 -120 -201 -159 -244
-18 -20 -41 -54 -53 -76 -27 -55 -69 -190 -76 -250 -15 -116 -16 -116 -78
-178 -45 -44 -70 -80 -99 -143 -30 -65 -47 -89 -76 -107 -21 -14 -46 -33 -55
-44 -25 -28 -48 -99 -55 -171 -5 -53 -2 -71 17 -111 l22 -49 -36 -80 c-20 -44
-36 -91 -36 -104 0 -13 11 -58 25 -98 35 -103 33 -161 -11 -294 -36 -107 -36
-110 -20 -141 21 -39 23 -76 6 -142 -11 -41 -11 -60 -2 -91 7 -22 12 -58 12
-80 0 -51 25 -74 161 -142 89 -44 108 -50 163 -50 61 0 95 -13 123 -50 19 -23
16 -75 -6 -94 -17 -16 -20 -16 -52 3 -50 29 -248 40 -303 17 -21 -9 -57 -16
-80 -16 -44 0 -113 -27 -134 -52 -10 -13 -26 -15 -71 -11 -51 5 -67 2 -127
-27 -86 -40 -122 -73 -130 -119 -4 -23 -23 -54 -54 -86 -61 -65 -71 -85 -80
-161 -5 -40 -16 -75 -31 -96 -19 -27 -24 -45 -23 -95 1 -71 18 -104 71 -135
29 -18 34 -25 29 -47 -4 -14 -9 -61 -13 -103 -7 -96 5 -119 82 -153 52 -23 55
-26 55 -60 0 -55 27 -102 79 -137 25 -17 64 -47 86 -67 22 -20 50 -43 62 -51
l22 -15 -27 -39 c-15 -21 -35 -44 -44 -50 -24 -14 -70 3 -83 32 -15 34 -87 57
-180 57 -71 0 -84 -3 -120 -28 -22 -15 -78 -39 -125 -53 -99 -30 -151 -57
-169 -87 -8 -12 -20 -48 -28 -81 -7 -32 -29 -85 -48 -117 -69 -112 -77 -164
-48 -304 17 -83 17 -83 -6 -133 -20 -42 -21 -54 -12 -88 14 -51 14 -100 0
-122 -9 -15 -7 -30 8 -73 11 -30 24 -85 28 -124 9 -85 24 -116 70 -145 39 -24
54 -62 35 -86 -11 -12 -7 -21 25 -54 22 -22 47 -43 58 -46 14 -4 17 -12 12
-34 -5 -22 6 -57 43 -142 28 -62 53 -129 57 -148 13 -69 46 -162 71 -200 31
-46 105 -87 176 -96 40 -6 54 -13 75 -40 18 -24 33 -34 53 -34 37 0 49 18 52
74 1 27 7 50 14 53 7 2 30 -7 52 -21 46 -29 129 -46 226 -46 56 0 74 -4 91
-20 12 -12 35 -22 51 -23 28 -2 29 0 32 48 3 60 19 75 78 75 23 0 61 7 84 15
41 15 44 14 66 -6 12 -11 30 -19 41 -17 15 3 18 13 17 64 0 35 -8 75 -17 94
-10 18 -17 42 -17 52 0 27 -36 93 -74 136 -18 20 -45 56 -59 78 -16 26 -46 53
-79 72 -97 56 -99 58 -42 70 27 6 72 14 99 18 67 8 84 21 133 96 36 55 44 77
56 159 8 52 24 114 35 139 11 25 25 75 31 113 7 37 13 67 15 67 1 0 22 -11 46
-24 53 -29 148 -50 188 -41 26 5 35 -1 93 -66 41 -45 87 -112 124 -181 32 -61
73 -127 90 -147 l32 -36 83 0 c46 0 105 4 131 9 46 8 47 8 87 -33 23 -24 47
-41 54 -38 24 7 38 54 29 95 l-9 40 101 4 c88 3 107 7 147 30 l46 27 36 -26
c20 -14 43 -23 52 -20 17 7 20 43 6 81 -10 24 -9 24 44 24 35 0 64 5 81 17 15
10 35 14 49 11 37 -9 51 16 36 66 -13 43 -58 118 -71 118 -5 0 -31 28 -59 63
-27 34 -72 78 -98 97 -27 19 -55 48 -63 65 -19 39 -67 70 -138 90 -31 8 -74
20 -95 25 -47 14 -48 35 -3 79 33 32 34 35 19 57 -20 31 -11 65 30 112 43 49
55 79 63 154 6 65 -10 266 -26 328 -14 51 -60 109 -124 155 -62 45 -69 67 -39
129 l16 35 25 -20 c32 -25 82 -24 132 1 49 25 60 25 110 -1 52 -27 101 -21
201 27 161 78 287 195 363 342 37 71 53 92 90 115 62 39 155 132 172 173 8 19
14 68 14 114 0 84 17 146 44 156 25 9 50 56 61 113 12 59 29 76 39 38 10 -43
45 -77 78 -77 20 0 39 -9 58 -30 25 -26 35 -30 84 -30 60 0 62 -1 45 -49 -17
-49 -1 -61 87 -61 l75 0 6 -30 c3 -17 9 -33 14 -36 5 -3 55 -12 111 -20 151
-22 278 -71 278 -106 0 -4 -16 -16 -35 -25 -68 -32 -33 -51 118 -63 159 -14
206 -31 271 -99 l30 -31 25 24 c24 22 46 30 78 27 7 0 31 -25 53 -54 65 -83
142 -157 184 -179 l38 -19 22 20 c29 27 43 26 88 -4 42 -28 74 -31 102 -10 32
24 69 18 102 -16 73 -78 154 -106 341 -119 135 -9 244 -30 298 -58 17 -8 50
-32 74 -54 89 -78 216 -122 336 -116 l60 3 22 -66 c12 -36 27 -95 33 -130 14
-81 25 -403 16 -452 -7 -37 -7 -37 -57 -37 -44 0 -54 -5 -93 -40 -24 -22 -63
-47 -87 -55 -24 -9 -53 -24 -64 -35 -11 -10 -38 -22 -60 -26 -90 -16 -130 -56
-141 -141 -4 -31 -19 -91 -34 -132 -37 -100 -44 -150 -30 -201 11 -41 10 -45
-24 -95 -41 -59 -45 -96 -16 -140 28 -42 25 -62 -14 -106 -56 -61 -62 -99 -38
-215 12 -55 28 -121 35 -149 12 -42 12 -57 1 -95 -8 -25 -14 -63 -14 -85 0
-44 28 -112 53 -134 11 -9 17 -29 17 -55 0 -48 10 -59 108 -125 34 -23 88 -68
120 -99 32 -33 87 -73 127 -93 69 -36 183 -79 208 -79 17 0 101 -103 127 -156
11 -22 26 -81 33 -130 8 -49 22 -107 33 -129 39 -82 146 -163 239 -180 29 -5
49 -17 73 -46 58 -68 97 -43 86 54 -8 69 6 79 47 33 65 -74 229 -119 320 -87
32 11 35 10 66 -24 38 -41 60 -45 69 -10 6 23 0 79 -12 110 -5 11 1 12 32 4
43 -12 106 -8 150 11 30 13 34 12 64 -14 26 -22 35 -24 47 -14 23 18 12 100
-24 183 -16 39 -38 92 -47 118 -26 70 -108 152 -214 216 -50 30 -116 75 -147
99 l-56 45 21 22 c12 13 43 28 68 35 26 6 61 19 78 29 30 18 31 18 57 -5 15
-13 59 -33 97 -45 47 -14 91 -37 140 -74 39 -30 88 -60 109 -66 37 -11 180 -8
231 6 20 5 33 0 58 -25 18 -17 39 -30 45 -27 23 7 19 79 -6 129 -20 39 -22 50
-11 59 10 8 23 4 53 -20 54 -43 65 -41 59 13 -6 53 -38 120 -75 161 -40 42
-103 143 -103 163 0 27 -29 62 -77 92 l-44 28 46 22 c54 26 80 60 96 126 6 27
23 69 36 93 21 37 24 51 19 95 -6 45 -3 61 23 115 40 84 47 144 25 201 -22 57
-22 96 0 248 22 159 13 231 -44 340 -32 61 -42 95 -51 162 -12 100 -25 117
-121 164 -53 27 -70 42 -109 100 -26 37 -59 76 -75 87 -34 22 -122 42 -259 60
-55 6 -104 15 -108 19 -5 4 -11 79 -13 167 l-5 160 103 6 c149 8 213 35 246
105 17 37 18 37 77 35 33 -1 114 -5 180 -9 275 -17 336 -8 408 59 16 16 61 37
110 52 93 28 114 30 119 13 8 -23 131 54 205 128 39 40 82 75 95 79 31 9 147
79 180 109 14 13 43 45 63 71 28 38 35 54 30 76 -12 54 72 176 177 255 95 71
126 104 139 143 6 20 29 71 50 115 l39 78 0 134 0 134 49 30 c45 28 81 77 81
110 0 15 119 8 245 -15 96 -17 208 -19 238 -4 12 6 32 20 43 31 19 16 42 20
155 25 136 5 198 21 241 59 12 11 43 17 105 20 198 9 334 87 399 228 40 87 47
153 40 361 -8 248 -24 340 -71 409 -31 46 -33 76 -4 76 20 0 21 4 17 45 -3 24
-22 79 -42 122 -26 54 -40 100 -45 149 -9 79 -19 103 -66 155 -20 23 -39 60
-49 95 -44 160 -84 243 -174 354 -25 30 -47 62 -50 70 -3 8 -24 57 -48 107
-76 166 -156 267 -344 436 l-75 68 48 -6 c39 -5 55 -2 98 22 28 15 69 47 90
72 62 69 55 98 -48 219 l-43 49 47 7 c77 10 348 7 402 -6 73 -17 267 4 496 53
205 45 300 75 352 115 47 36 57 58 42 98 -11 30 -9 42 21 117 37 90 49 104
220 259 108 98 175 184 190 243 6 23 24 77 40 119 42 108 39 180 -12 255 -31
45 -85 69 -198 88 -52 9 -141 27 -198 41 -57 14 -144 30 -195 35 -51 5 -137
20 -192 34 -55 13 -197 38 -315 55 -315 44 -489 96 -574 171 -33 28 -34 32
-21 52 25 39 45 139 45 227 0 160 -38 269 -135 392 -62 79 -107 100 -220 106
-58 3 -116 13 -162 28 -77 26 -154 30 -216 13 -22 -6 -41 -8 -44 -5 -3 3 -12
43 -20 88 -17 100 -55 216 -85 263 -13 19 -25 35 -28 35 -3 0 -4 -31 -2 -68 6
-105 1 -115 -30 -62 -46 79 -124 143 -244 200 -107 51 -111 52 -239 62 -75 6
-141 16 -157 24 -80 43 -107 47 -338 48 -124 0 -256 -3 -295 -7z"/>
</g>
</svg>
