<?xml version="1.0" standalone="no"?>
<!DOCTYPE svg PUBLIC "-//W3C//DTD SVG 20010904//EN"
 "http://www.w3.org/TR/2001/REC-SVG-20010904/DTD/svg10.dtd">
<svg version="1.0" xmlns="http://www.w3.org/2000/svg"
 width="724.000000pt" height="1280.000000pt" viewBox="0 0 724.000000 1280.000000"
 preserveAspectRatio="xMidYMid meet">
<metadata>
Created by potrace 1.15, written by Peter Selinger 2001-2017
</metadata>
<g transform="translate(0.000000,1280.000000) scale(0.100000,-0.100000)"
fill="#000000" stroke="none">
<path d="M4092 12781 c-23 -11 -67 -44 -97 -72 l-56 -52 -82 12 c-369 58 -900
81 -1192 52 -209 -21 -450 -69 -599 -121 -49 -16 -66 -18 -98 -9 -59 15 -195
12 -258 -7 -123 -37 -190 -81 -365 -240 -263 -239 -413 -341 -827 -563 -241
-130 -340 -249 -340 -411 0 -72 28 -136 102 -235 98 -132 157 -263 175 -390
15 -100 40 -99 96 3 76 139 185 295 309 440 l45 54 6 -59 c4 -32 5 -137 2
-233 -6 -179 0 -260 38 -529 15 -106 17 -146 9 -151 -7 -4 -25 -182 -50 -501
-57 -729 -74 -877 -126 -1078 -49 -189 -120 -328 -277 -550 -201 -281 -250
-365 -306 -525 -75 -212 -104 -453 -105 -851 0 -379 17 -538 100 -950 110
-549 114 -661 44 -1165 -46 -332 -53 -429 -47 -620 8 -254 38 -410 172 -911
41 -156 89 -347 104 -424 105 -504 74 -886 -97 -1202 -27 -52 -71 -102 -179
-210 -190 -188 -223 -256 -172 -360 24 -49 62 -82 249 -215 244 -173 353 -236
456 -263 102 -26 146 -2 320 177 145 150 221 251 294 389 52 101 114 273 126
353 7 48 7 49 23 27 17 -22 17 -22 96 -6 47 10 119 35 175 62 82 40 107 59
190 142 77 78 104 112 138 181 52 105 82 220 82 317 0 40 2 73 3 73 2 0 28 -8
58 -19 63 -21 143 -61 292 -143 270 -150 442 -194 728 -186 184 6 288 27 446
93 134 55 127 55 119 9 -49 -283 -71 -581 -62 -878 4 -132 11 -358 15 -501 6
-229 10 -266 28 -312 51 -129 148 -210 263 -220 122 -11 202 50 224 170 l7 39
55 -60 c115 -128 249 -148 369 -56 l36 27 27 -25 c40 -38 65 -48 117 -48 63 0
112 25 148 77 l31 43 30 -21 c46 -30 115 -59 141 -59 20 0 26 8 36 43 19 66
14 182 -11 257 -28 83 -58 136 -194 340 -122 185 -165 269 -195 385 -52 196
-2 465 98 532 62 42 120 26 257 -70 98 -68 151 -95 203 -103 l41 -7 -6 -46
c-21 -158 123 -283 275 -238 l51 15 0 -37 c1 -116 121 -210 232 -180 24 6 57
21 74 35 l32 23 22 -60 c46 -128 166 -190 277 -144 47 20 69 40 103 92 l27 43
19 -21 c37 -42 104 -80 132 -77 32 4 33 6 184 478 249 783 263 832 298 1044
43 262 50 624 16 815 -21 113 -63 260 -150 519 -40 119 -150 452 -245 738
-188 574 -214 643 -356 949 -236 508 -291 704 -396 1399 -54 366 -63 397 -161
553 -135 218 -176 320 -324 811 -186 616 -289 1086 -354 1611 -24 190 -27 276
-15 486 6 118 4 163 -14 283 -27 183 -29 438 -5 527 9 33 22 83 29 110 l12 50
20 -33 c11 -18 30 -77 43 -130 40 -174 51 -204 96 -249 64 -64 158 -72 209
-17 46 50 46 95 -5 424 -46 298 -49 373 -19 472 45 148 2 300 -122 432 -150
161 -392 267 -729 321 -260 41 -323 74 -401 207 -68 116 -145 151 -237 109z
m-3097 -1478 c-20 -42 -28 -50 -45 -46 -11 3 -20 8 -20 11 0 8 83 92 87 89 1
-2 -8 -26 -22 -54z"/>
</g>
</svg>
