<?xml version="1.0" standalone="no"?>
<!DOCTYPE svg PUBLIC "-//W3C//DTD SVG 20010904//EN"
 "http://www.w3.org/TR/2001/REC-SVG-20010904/DTD/svg10.dtd">
<svg version="1.0" xmlns="http://www.w3.org/2000/svg"
 width="1280.000000pt" height="926.000000pt" viewBox="0 0 1280.000000 926.000000"
 preserveAspectRatio="xMidYMid meet">
<metadata>
Created by potrace 1.15, written by Peter Selinger 2001-2017
</metadata>
<g transform="translate(0.000000,926.000000) scale(0.100000,-0.100000)"
fill="#000000" stroke="none">
<path d="M585 9238 c-16 -12 -61 -47 -99 -77 -43 -34 -110 -72 -180 -103 -108
-48 -145 -76 -146 -109 0 -23 89 -237 117 -280 13 -20 26 -51 29 -70 5 -29 0
-40 -30 -72 -34 -37 -34 -38 -13 -46 19 -7 16 -11 -36 -41 -57 -32 -72 -46
-39 -36 9 2 33 8 52 11 l35 7 -38 -40 c-21 -21 -57 -75 -80 -120 -32 -60 -55
-91 -95 -122 -29 -23 -52 -44 -50 -45 2 -1 27 1 56 4 28 4 52 6 52 5 0 -2 -10
-23 -23 -46 -33 -64 -30 -188 7 -333 16 -60 31 -112 32 -114 2 -2 14 4 26 15
18 16 16 9 -10 -37 -18 -31 -32 -59 -32 -63 0 -3 12 -3 26 0 30 8 29 4 -12
-51 -28 -38 -38 -84 -35 -160 2 -54 -3 -71 -45 -158 -38 -79 -48 -110 -52
-167 -4 -63 -1 -78 27 -143 l32 -74 -20 -85 c-27 -110 -27 -117 4 -88 14 13
25 21 25 18 0 -3 -14 -38 -30 -78 -17 -40 -30 -74 -30 -77 0 -2 14 4 31 12 29
16 31 15 25 -2 -18 -63 -38 -211 -32 -249 13 -94 57 -196 120 -279 52 -68 67
-97 99 -193 43 -133 76 -185 156 -246 115 -89 159 -171 168 -317 6 -84 5 -89
-26 -143 -17 -31 -31 -58 -31 -61 0 -3 11 -3 25 1 l24 6 -24 -61 c-14 -33 -25
-63 -25 -65 0 -3 17 -6 37 -8 34 -3 38 -7 58 -56 12 -30 42 -79 66 -110 168
-214 243 -341 318 -537 29 -74 31 -89 31 -207 0 -106 4 -137 21 -185 27 -70
84 -153 140 -201 29 -25 53 -61 80 -119 47 -102 86 -162 154 -233 34 -36 86
-116 151 -230 54 -96 107 -187 119 -203 11 -15 80 -68 153 -118 111 -76 141
-103 186 -163 29 -39 91 -116 137 -171 148 -174 181 -236 242 -465 38 -139 61
-361 61 -585 1 -189 -1 -208 -32 -345 -53 -242 -69 -286 -120 -330 -33 -29
-56 -41 -90 -45 -152 -20 -202 -28 -247 -42 -82 -26 -155 -89 -176 -153 -6
-19 -27 -72 -47 -117 -19 -45 -32 -88 -29 -97 10 -24 86 -59 162 -72 39 -7
110 -27 158 -44 l89 -31 116 11 c195 19 204 20 288 37 68 13 92 23 140 59 66
49 89 87 99 157 7 47 8 49 34 42 52 -14 267 -17 364 -5 125 16 281 61 314 92
40 37 46 57 53 173 6 101 7 108 19 80 14 -35 24 -24 35 38 4 21 16 53 26 72
10 18 22 53 25 79 6 41 9 44 26 35 14 -7 20 -6 24 3 2 7 13 38 25 68 11 30 20
65 20 78 0 12 13 48 29 80 60 119 92 240 117 437 3 27 16 68 27 90 12 22 34
81 49 130 28 90 28 90 22 33 -3 -33 -1 -58 4 -58 5 0 27 13 49 29 34 24 70 71
122 156 11 17 12 16 6 -15 -3 -19 -8 -53 -12 -75 l-6 -40 39 29 c129 95 183
174 228 331 19 66 40 134 47 150 l12 30 7 -30 c21 -87 5 -271 -33 -386 -13
-38 -21 -69 -19 -69 19 0 76 59 102 105 17 30 34 55 37 55 3 0 2 -16 -2 -37
l-6 -36 33 28 c39 33 78 99 102 173 25 76 46 65 46 -24 0 -24 3 -44 8 -44 4 0
25 45 46 100 58 149 69 156 62 45 l-6 -90 18 30 c10 17 47 81 82 143 35 61 67
112 71 112 9 0 39 -64 39 -84 0 -9 3 -16 6 -16 16 0 187 155 278 252 107 114
114 116 115 41 1 -18 4 -33 7 -33 18 0 186 205 217 265 22 43 26 46 27 24 0
-15 3 -41 7 -59 6 -32 6 -32 33 36 l28 69 53 7 c84 11 155 27 282 64 107 30
122 33 168 23 31 -7 64 -23 85 -41 l34 -30 0 92 0 93 48 -5 c26 -3 77 -19 113
-35 61 -28 71 -38 129 -119 l62 -89 -5 58 c-3 31 -4 57 -3 57 1 0 23 -33 49
-73 29 -46 55 -105 72 -162 28 -96 38 -112 102 -157 39 -26 122 -62 129 -55 2
1 -10 29 -26 61 -18 35 -30 74 -29 95 l0 36 14 -30 c8 -16 24 -51 36 -77 11
-26 46 -75 77 -108 45 -48 69 -65 116 -81 56 -19 89 -18 53 2 -25 14 -59 86
-55 117 3 25 6 23 45 -32 126 -175 205 -226 362 -234 86 -4 99 -8 126 -31 57
-50 363 -232 422 -251 32 -10 135 -40 228 -65 94 -26 178 -51 188 -56 10 -6
26 -40 39 -84 19 -64 24 -73 39 -64 10 5 20 9 22 9 2 0 7 -39 10 -87 10 -163
-45 -401 -127 -547 -62 -110 -63 -110 -236 -120 -111 -7 -233 -40 -279 -76
-24 -19 -35 -40 -50 -95 -10 -38 -31 -105 -47 -147 l-29 -77 29 -30 c16 -17
52 -38 80 -47 28 -9 74 -29 101 -44 84 -47 154 -62 299 -64 72 0 176 5 230 11
118 14 143 30 224 144 28 41 82 111 120 157 98 122 107 142 92 213 l-13 58 92
218 c68 162 97 246 115 328 17 82 32 124 58 165 57 91 78 153 67 196 -6 20 -8
38 -5 41 8 9 106 -17 189 -49 77 -30 158 -94 200 -157 21 -32 29 -24 18 17 -5
18 -7 32 -3 32 26 -2 122 -90 168 -154 47 -65 60 -94 90 -197 24 -82 40 -167
50 -266 15 -141 15 -147 -6 -238 -29 -122 -46 -139 -199 -189 -129 -42 -161
-63 -232 -152 -56 -71 -84 -147 -74 -201 8 -42 127 -168 169 -179 14 -3 31
-15 37 -25 9 -17 23 -19 161 -19 168 0 358 29 498 76 95 33 114 58 175 231 49
139 67 260 81 543 6 133 20 202 86 435 15 54 33 199 33 271 0 4 43 7 95 8 53
1 101 6 108 10 7 4 12 19 12 33 l0 25 44 -26 c33 -19 59 -26 97 -26 l53 0 -45
48 c-72 74 -110 145 -46 85 143 -134 374 -149 797 -52 l94 22 -36 18 c-46 24
-60 52 -20 43 15 -4 37 -11 50 -15 34 -13 192 -11 252 3 38 9 60 21 85 50 l35
38 17 -33 16 -32 33 70 c18 39 33 63 34 54 0 -8 6 -23 13 -33 12 -16 16 -13
45 28 64 89 94 265 69 404 l-7 43 29 -16 c17 -8 32 -15 36 -15 12 0 3 109 -16
188 -23 98 -61 160 -120 199 -44 29 -49 40 -18 45 18 2 6 15 -62 67 -159 121
-268 134 -757 88 -305 -29 -597 35 -758 165 -123 99 -439 524 -494 663 l-31
77 7 167 c6 144 4 183 -15 295 -21 122 -25 134 -83 235 -33 58 -80 134 -104
169 -24 34 -40 62 -35 62 4 0 30 -7 56 -15 27 -8 50 -13 52 -12 1 2 -26 39
-60 83 -107 139 -245 247 -438 345 l-60 30 -112 227 c-163 329 -247 463 -346
553 -31 29 -78 77 -106 109 -54 61 -214 206 -298 269 -145 110 -435 261 -592
311 -55 17 -143 47 -195 67 -52 19 -120 41 -150 49 -198 49 -539 78 -770 65
-69 -4 -127 -6 -128 -5 -2 2 11 10 30 20 18 9 28 19 22 21 -14 5 -336 -32
-499 -57 -455 -70 -838 -109 -1165 -117 -268 -6 -364 2 -496 41 -74 22 -77 24
-55 36 l24 12 -33 14 c-31 13 -32 15 -15 28 17 12 13 14 -31 20 -74 11 -174
46 -219 77 -22 15 -78 66 -125 113 l-85 86 38 0 38 0 -38 36 c-107 102 -133
110 -533 155 -130 14 -226 43 -263 77 -16 15 -68 92 -115 172 -110 186 -173
281 -234 352 -27 32 -47 62 -44 67 4 5 -7 20 -22 33 -16 13 -41 41 -57 63 -31
44 -95 98 -254 218 -127 95 -188 127 -340 176 -123 40 -272 110 -296 139 -8 9
-34 45 -59 78 -43 58 -46 66 -46 123 0 55 -4 67 -37 111 -21 28 -44 50 -53 50
-68 2 -433 32 -545 46 -175 21 -200 17 -243 -40 -69 -92 -75 -96 -144 -96 -86
1 -112 12 -295 125 -236 147 -319 173 -388 123z"/>
</g>
</svg>
