<?xml version="1.0" standalone="no"?>
<!DOCTYPE svg PUBLIC "-//W3C//DTD SVG 20010904//EN"
 "http://www.w3.org/TR/2001/REC-SVG-20010904/DTD/svg10.dtd">
<svg version="1.0" xmlns="http://www.w3.org/2000/svg"
 width="780.000000pt" height="1280.000000pt" viewBox="0 0 780.000000 1280.000000"
 preserveAspectRatio="xMidYMid meet">
<metadata>
Created by potrace 1.15, written by Peter Selinger 2001-2017
</metadata>
<g transform="translate(0.000000,1280.000000) scale(0.100000,-0.100000)"
fill="#000000" stroke="none">
<path d="M3310 12788 c-14 -6 -70 -15 -125 -19 -176 -15 -209 -20 -242 -37
-30 -15 -35 -15 -68 1 -47 23 -61 22 -146 -10 -48 -18 -86 -40 -111 -65 l-39
-39 -30 22 -31 22 -26 -33 c-25 -32 -26 -32 -87 -26 -54 5 -65 3 -94 -18 -17
-13 -49 -27 -69 -31 -63 -12 -89 -32 -116 -89 -24 -50 -31 -56 -81 -75 -31
-12 -59 -21 -64 -21 -4 0 -29 -18 -55 -41 -41 -36 -46 -45 -46 -83 0 -23 -7
-65 -15 -93 -14 -46 -18 -51 -50 -57 -20 -4 -44 -5 -53 -2 -9 4 -41 43 -71 87
-63 95 -133 152 -256 209 -130 61 -260 86 -580 110 -214 16 -331 29 -433 47
-120 20 -241 14 -299 -15 -52 -27 -100 -85 -114 -137 -23 -84 11 -178 125
-347 35 -53 94 -145 130 -206 86 -143 147 -198 316 -282 36 -17 81 -47 100
-66 58 -55 215 -105 450 -144 69 -11 144 -20 166 -20 46 0 160 -32 186 -52 15
-12 11 -22 -38 -111 l-55 -97 -2 -143 c-1 -111 2 -151 15 -185 15 -41 15 -46
-3 -85 -23 -51 -25 -107 -4 -107 39 0 53 -109 31 -235 -17 -98 -21 -250 -7
-259 5 -3 16 6 25 19 34 52 50 -12 21 -82 -31 -73 -46 -158 -60 -331 -8 -97
-17 -191 -21 -209 -3 -18 -4 -40 0 -48 5 -14 11 -12 41 11 l35 26 0 -55 c0
-31 -5 -90 -11 -132 -13 -87 -7 -101 35 -80 16 8 30 15 32 15 8 0 4 -129 -6
-183 -6 -31 -26 -90 -45 -131 -47 -100 -72 -214 -84 -371 -8 -95 -17 -150 -36
-205 -25 -70 -26 -83 -20 -190 4 -85 2 -134 -10 -188 -23 -113 -20 -187 15
-295 36 -114 37 -143 5 -207 -30 -60 -31 -78 -4 -130 17 -32 24 -70 31 -172
10 -149 14 -168 58 -292 24 -66 33 -113 37 -183 5 -76 11 -101 29 -129 31 -45
41 -88 54 -223 10 -111 20 -140 60 -191 11 -14 23 -47 26 -75 4 -27 17 -66 29
-85 14 -21 25 -59 29 -95 4 -38 22 -93 51 -156 57 -125 69 -175 55 -247 -14
-79 -12 -124 10 -231 13 -60 20 -133 20 -202 0 -104 10 -157 32 -170 7 -4 10
-35 7 -80 -7 -146 -3 -172 32 -235 l34 -59 6 -215 c6 -214 6 -216 42 -315 27
-78 36 -121 40 -195 3 -52 22 -194 42 -315 47 -282 46 -378 -5 -530 -31 -90
-34 -112 -34 -215 -1 -63 3 -155 8 -205 7 -80 6 -98 -14 -162 l-22 -73 21 -69
c26 -85 26 -141 1 -251 -11 -47 -20 -123 -20 -170 0 -62 -9 -118 -31 -205 -61
-234 -50 -429 34 -603 l42 -87 -3 -140 c-3 -112 -8 -156 -27 -220 -50 -168
-44 -217 36 -289 34 -31 64 -48 100 -56 47 -11 53 -11 79 9 l29 21 25 -25 c17
-17 36 -25 60 -25 39 0 225 62 273 91 39 24 83 75 83 95 0 8 20 57 45 107 55
112 79 203 99 380 16 134 33 198 75 267 31 53 49 111 61 197 6 43 19 107 30
143 13 43 27 144 40 295 11 131 28 260 39 300 12 45 19 104 19 165 0 88 46
357 73 428 14 36 11 90 -7 124 -13 25 -14 42 -5 107 7 55 6 104 -3 178 -14
117 -5 177 36 258 30 60 45 119 58 241 5 50 21 122 35 159 23 61 26 80 24 199
-2 114 1 139 20 196 19 54 22 78 18 140 -5 63 -13 88 -50 161 -25 47 -47 99
-49 115 -3 27 -1 29 32 28 19 0 68 -7 107 -14 56 -11 84 -11 120 -3 218 50
210 49 261 29 106 -43 272 -26 348 35 20 16 40 26 45 23 5 -3 9 -22 9 -42 0
-20 6 -68 14 -107 8 -38 20 -117 26 -175 6 -58 22 -136 35 -175 18 -55 24
-102 30 -220 3 -87 18 -225 36 -329 50 -306 56 -386 36 -459 -143 -514 -172
-712 -127 -875 l20 -73 -25 -37 c-40 -58 -58 -132 -45 -181 19 -72 168 -211
227 -211 13 0 32 9 43 20 20 20 20 20 20 -21 0 -23 -7 -87 -16 -142 -12 -75
-13 -106 -5 -124 16 -34 14 -56 -15 -200 -23 -116 -25 -135 -15 -210 18 -130
72 -266 111 -278 34 -11 40 -37 24 -96 -8 -30 -17 -90 -19 -134 -2 -45 -10
-97 -20 -119 -26 -60 -23 -136 8 -188 32 -55 126 -145 173 -164 32 -14 38 -13
61 1 13 9 35 40 49 68 l24 52 0 -51 c0 -40 5 -55 24 -73 56 -53 139 -31 261
66 68 55 93 109 95 198 0 28 15 113 33 191 28 118 40 153 80 220 67 112 85
178 97 358 6 84 14 186 19 227 10 76 3 139 -22 197 -12 29 -12 40 0 75 22 64
13 219 -15 275 -22 41 -22 44 -7 110 12 51 15 92 9 172 -5 91 -3 118 16 195
19 75 22 107 17 190 -3 60 -12 116 -22 140 -15 35 -16 49 -4 133 11 79 10 103
-2 155 -13 56 -15 124 -12 302 1 77 2 123 1 238 0 50 0 119 -1 152 0 44 12 93
42 184 40 118 41 127 30 172 -12 47 -11 52 58 256 39 114 89 256 112 314 75
197 77 352 6 500 -51 106 -50 108 50 147 90 36 112 55 154 139 20 40 23 42 46
31 29 -13 47 -2 65 42 7 17 18 30 24 30 34 0 84 -91 126 -230 26 -89 50 -138
80 -165 31 -28 45 -60 64 -145 9 -41 39 -149 66 -240 72 -246 106 -427 135
-720 19 -191 27 -567 13 -594 -6 -10 -13 -65 -16 -122 -4 -81 -1 -113 11 -146
9 -24 21 -85 27 -135 18 -164 41 -245 80 -281 20 -19 21 -20 3 -56 -17 -36
-17 -39 0 -68 21 -36 21 -84 2 -118 -8 -14 -14 -52 -14 -85 -1 -82 57 -250 98
-285 16 -14 45 -39 65 -56 l36 -31 0 -91 c0 -68 -5 -100 -20 -133 -23 -52 -26
-119 -6 -157 22 -42 159 -168 191 -176 36 -9 71 15 102 70 l23 39 0 -51 c0
-105 82 -127 217 -58 135 69 166 116 162 246 -1 35 4 77 10 93 7 17 15 73 18
125 4 71 14 123 40 205 l35 110 -12 150 -12 150 35 140 c38 148 63 307 55 347
-2 14 1 87 7 164 10 115 9 150 -2 199 -8 33 -17 105 -20 160 -5 104 -2 125 47
259 33 91 41 192 28 343 -10 113 -10 147 5 245 24 158 23 248 -3 281 -26 33
-25 65 5 160 14 43 25 87 25 97 0 11 -14 64 -32 117 l-31 97 17 285 c19 313
28 407 53 553 15 92 15 101 -1 156 l-18 58 51 154 c59 176 70 255 59 396 -7
76 -5 122 8 197 15 90 15 112 -1 280 -9 100 -25 218 -36 262 -17 65 -20 107
-19 225 2 80 2 150 1 156 0 7 -18 19 -40 27 -46 19 -81 60 -81 95 0 14 15 41
35 64 20 21 33 43 30 49 -4 5 -17 59 -30 120 -13 61 -31 119 -40 129 -28 31
-68 196 -70 290 -1 74 -5 93 -34 149 -38 74 -63 190 -86 406 -13 120 -22 162
-45 210 -20 45 -29 82 -34 149 -8 112 -50 240 -140 430 -85 178 -96 193 -148
203 -39 8 -44 13 -62 59 -28 67 -38 78 -115 124 -52 30 -73 50 -101 95 -56 92
-80 115 -135 129 -47 12 -51 15 -71 65 -25 62 -34 72 -76 85 -25 9 -34 19 -41
46 -11 46 -32 61 -76 54 -45 -6 -59 3 -76 52 -7 21 -25 48 -40 59 -28 21 -88
24 -297 16 -79 -3 -91 -1 -130 23 -104 62 -103 61 -148 41 -40 -18 -41 -18
-63 3 -33 31 -63 27 -124 -15 l-53 -37 -36 17 c-43 21 -74 21 -139 2 -31 -10
-66 -13 -92 -9 -33 5 -50 2 -76 -15 -43 -26 -67 -26 -117 -1 -47 24 -63 19
-91 -27 -22 -35 -22 -35 -78 -28 -46 5 -60 3 -70 -9 -16 -20 -48 -20 -81 -1
-36 21 -55 18 -70 -10 -16 -30 -63 -47 -106 -39 -32 6 -33 7 -39 72 -3 37 -13
108 -22 157 -35 204 -40 236 -34 240 15 9 192 17 436 19 314 4 427 20 503 76
15 10 74 36 132 56 174 60 229 96 316 206 32 40 90 109 129 153 140 157 179
217 191 294 9 56 -32 139 -89 181 -81 60 -107 63 -482 66 -206 2 -375 8 -430
16 -145 21 -315 17 -413 -10 -108 -29 -249 -97 -337 -161 -77 -57 -112 -67
-182 -55 -45 8 -49 12 -71 59 -55 120 -54 119 -121 151 -66 32 -88 53 -131
123 -15 26 -39 49 -66 62 -32 15 -51 34 -72 73 -17 29 -46 67 -66 84 -31 27
-45 32 -86 32 -40 0 -56 6 -82 28 -75 64 -104 73 -158 50z"/>
</g>
</svg>
