<?xml version="1.0" standalone="no"?>
<!DOCTYPE svg PUBLIC "-//W3C//DTD SVG 20010904//EN"
 "http://www.w3.org/TR/2001/REC-SVG-20010904/DTD/svg10.dtd">
<svg version="1.0" xmlns="http://www.w3.org/2000/svg"
 width="1280.000000pt" height="850.000000pt" viewBox="0 0 1280.000000 850.000000"
 preserveAspectRatio="xMidYMid meet">
<metadata>
Created by potrace 1.15, written by Peter Selinger 2001-2017
</metadata>
<g transform="translate(0.000000,850.000000) scale(0.100000,-0.100000)"
fill="#000000" stroke="none">
<path d="M9847 8226 c-105 -35 -208 -119 -180 -147 21 -21 1 -46 -68 -90 -185
-116 -226 -147 -262 -194 -49 -66 -103 -174 -112 -225 -8 -46 -20 -55 -90 -65
-27 -4 -97 -20 -155 -35 -151 -41 -296 -68 -445 -81 -71 -6 -133 -13 -137 -15
-3 -2 -123 -8 -267 -14 -143 -5 -322 -15 -398 -21 -85 -7 -231 -9 -383 -6
-231 5 -252 7 -369 37 l-124 31 -311 -15 c-171 -8 -321 -18 -333 -22 -17 -5
-25 0 -37 24 -9 17 -38 53 -65 80 -64 67 -132 88 -229 74 -66 -9 -67 -9 -101
21 -49 42 -108 67 -164 67 -56 0 -95 -18 -130 -60 -23 -27 -31 -30 -86 -30
-92 0 -179 -38 -221 -97 -20 -27 -33 -58 -33 -76 l0 -30 -106 7 c-58 4 -151
13 -206 21 -55 7 -148 16 -206 20 l-106 7 -7 70 c-9 101 -34 144 -104 176 -54
26 -66 27 -246 30 -180 3 -192 2 -275 -23 -143 -44 -248 -100 -314 -168 -49
-49 -63 -58 -85 -54 -15 3 -52 10 -82 16 -30 6 -76 14 -102 17 -27 3 -48 10
-48 17 0 22 -98 215 -127 252 -68 86 -222 145 -378 145 -116 0 -272 -65 -290
-120 -3 -11 -26 -28 -50 -39 -95 -42 -175 -144 -219 -278 l-18 -53 -66 0 c-37
0 -89 -7 -117 -15 -35 -11 -114 -17 -260 -21 -231 -6 -515 -30 -530 -45 -5 -5
-10 -19 -10 -32 -1 -12 -29 -59 -62 -104 -51 -69 -62 -92 -73 -148 -17 -92 -7
-203 25 -273 14 -30 25 -60 25 -67 0 -20 47 -33 165 -44 262 -25 676 -32 939
-16 l138 8 -7 -34 c-4 -19 -11 -59 -14 -90 -9 -73 -39 -123 -158 -254 -159
-179 -189 -238 -176 -357 6 -66 21 -73 67 -37 15 12 29 19 31 17 3 -2 0 -21
-6 -41 -11 -40 -6 -57 15 -57 14 0 26 -50 26 -109 0 -25 4 -32 15 -27 19 7 19
-3 1 -51 -43 -115 -14 -299 73 -463 5 -8 20 -17 34 -20 28 -5 77 -63 77 -91 0
-9 7 -22 15 -29 9 -7 15 -29 15 -51 0 -30 8 -47 39 -83 22 -25 42 -55 46 -66
4 -12 18 -23 36 -27 l28 -5 -24 -43 c-14 -23 -25 -52 -25 -64 0 -32 -28 -146
-51 -206 -21 -57 -25 -115 -8 -132 9 -9 7 -24 -8 -60 -13 -30 -21 -71 -21
-109 0 -55 -4 -67 -43 -127 -39 -58 -65 -78 -81 -62 -6 6 -222 18 -353 19 -88
1 -111 -3 -198 -33 -54 -18 -117 -47 -139 -65 -48 -36 -126 -145 -135 -187 -3
-19 -12 -29 -27 -31 -12 -2 -22 -11 -24 -24 -3 -18 3 -22 35 -26 21 -3 64 -17
96 -32 l59 -26 -28 -23 c-23 -20 -25 -26 -15 -45 6 -12 26 -29 44 -38 31 -16
31 -17 9 -25 -12 -5 -25 -15 -28 -23 -8 -20 20 -70 50 -89 25 -17 25 -17 8
-47 -14 -24 -15 -33 -5 -49 6 -10 9 -28 7 -39 -6 -22 15 -69 54 -119 l24 -33
-80 0 c-51 0 -84 -4 -88 -12 -4 -6 9 -26 33 -47 52 -46 132 -171 154 -240 10
-29 32 -71 49 -92 l31 -39 -25 -10 c-37 -14 -38 -56 -2 -136 23 -49 23 -51 5
-73 -25 -31 -24 -37 13 -112 21 -41 31 -76 29 -96 -2 -24 8 -48 35 -89 21 -32
39 -69 40 -83 1 -14 2 -32 3 -39 0 -7 18 -31 40 -55 21 -23 42 -57 46 -75 4
-18 17 -45 29 -60 52 -62 68 -122 33 -122 -8 0 -20 -7 -28 -16 -20 -24 13 -75
71 -110 41 -24 48 -33 43 -51 -3 -13 -2 -34 1 -48 9 -36 71 -101 125 -132 25
-15 60 -38 76 -51 17 -14 54 -36 84 -49 29 -13 79 -47 110 -76 31 -29 68 -61
84 -70 66 -42 537 -177 617 -177 14 0 58 -15 97 -34 40 -19 102 -46 140 -60
37 -13 106 -44 153 -67 98 -48 201 -83 314 -105 44 -8 97 -24 118 -35 50 -25
144 -47 262 -59 53 -5 105 -15 115 -22 14 -9 43 -8 122 1 91 11 103 11 111 -3
10 -18 48 -21 98 -6 19 6 73 15 120 20 136 16 308 50 400 81 47 15 114 33 150
39 110 19 159 39 216 91 55 50 64 54 146 63 32 4 94 30 190 80 139 72 146 75
233 81 50 4 136 17 193 31 122 28 134 29 232 8 65 -13 93 -14 206 -3 79 7 214
10 339 7 l208 -5 85 38 c47 20 98 47 113 58 15 12 50 30 76 40 128 51 286 157
399 269 50 48 121 108 159 134 65 43 71 45 77 27 11 -30 34 -33 68 -9 25 17
44 21 110 21 44 0 89 -5 101 -11 35 -20 303 11 458 52 102 26 206 91 284 174
40 44 76 68 162 111 227 114 390 289 450 483 26 84 33 364 11 450 -22 86 -79
203 -154 318 -33 51 -64 101 -67 112 -4 11 -10 20 -14 20 -4 0 -28 27 -54 59
-25 33 -70 77 -99 99 -30 22 -106 87 -170 146 -110 100 -178 145 -222 146 -11
0 -45 24 -76 54 -109 104 -157 117 -444 121 -168 2 -234 6 -276 19 -30 8 -89
16 -131 16 l-76 0 -69 65 c-94 90 -104 108 -104 181 0 63 17 125 65 229 15 33
42 102 61 154 66 186 155 299 322 412 105 71 312 231 382 294 30 28 98 85 150
127 103 83 192 172 310 312 41 49 104 123 139 165 35 42 115 128 176 191 62
63 134 144 161 180 27 36 80 101 119 144 38 43 101 118 138 165 38 47 105 120
150 162 45 42 88 88 96 102 9 17 25 29 45 32 17 3 211 10 431 16 220 6 445 13
501 16 81 3 103 1 113 -11 7 -8 19 -12 27 -9 17 6 106 123 175 228 87 132 84
120 84 311 0 158 2 174 20 194 l20 22 -25 20 c-36 29 -118 69 -175 85 -30 9
-140 18 -280 23 -126 5 -299 12 -382 16 l-153 6 -5 37 c-18 126 -26 147 -81
228 -65 94 -91 117 -209 180 -100 53 -192 72 -335 72 -72 0 -112 -6 -163 -23z
m-1318 -1569 c-2 -2 -49 -33 -104 -69 -133 -87 -170 -132 -335 -409 -60 -100
-132 -179 -300 -326 -58 -51 -166 -152 -240 -224 -157 -154 -204 -189 -297
-219 -37 -13 -92 -40 -120 -61 -29 -22 -101 -65 -160 -96 -120 -63 -257 -155
-318 -213 -22 -20 -75 -62 -117 -93 -54 -40 -92 -78 -129 -129 -61 -88 -173
-313 -166 -338 2 -9 0 -24 -4 -33 -6 -10 -4 -21 7 -32 15 -14 14 -19 -10 -55
-14 -22 -26 -48 -26 -57 0 -10 -10 -37 -22 -60 -19 -36 -20 -45 -9 -66 12 -22
8 -32 -35 -113 -26 -49 -70 -123 -98 -164 -28 -41 -56 -91 -62 -110 l-11 -35
-27 53 c-14 29 -38 88 -52 132 -25 76 -26 89 -21 233 3 123 10 177 35 282 26
109 31 158 37 310 3 99 13 311 21 470 13 239 14 315 4 430 -24 280 -24 317 6
454 17 80 33 132 44 141 9 8 25 48 34 88 10 40 26 96 35 125 l18 52 49 3 c74
4 97 11 90 27 -4 11 3 15 27 15 18 0 91 10 162 22 117 19 186 22 710 28 319 4
643 12 720 19 128 10 654 29 664 24 2 -2 2 -4 0 -6z m-3559 -47 c121 -11 162
-20 157 -34 -41 -107 -69 -213 -81 -305 -16 -116 -29 -149 -70 -176 -40 -26
-76 -108 -100 -227 -14 -68 -39 -151 -64 -208 -22 -52 -61 -150 -86 -218 -25
-68 -51 -133 -57 -144 -6 -12 -18 -65 -25 -118 -7 -54 -23 -119 -34 -145 -25
-58 -50 -175 -50 -234 0 -24 -7 -69 -15 -100 -8 -31 -14 -73 -13 -92 2 -47
-17 -100 -69 -196 -60 -111 -113 -272 -113 -342 0 -42 -10 -79 -38 -146 -21
-49 -44 -101 -51 -114 l-14 -25 -22 45 c-13 24 -48 72 -79 107 l-56 63 0 127
c0 84 9 186 26 302 27 188 52 275 177 610 96 259 101 290 94 555 -7 242 -21
350 -67 500 -38 126 -48 204 -29 216 11 7 10 9 -5 9 -16 0 -18 5 -12 48 4 26
9 86 13 133 l6 86 51 12 c125 30 376 34 626 11z m4008 -3614 c-2 -23 -8 -32
-25 -34 -18 -3 -23 2 -23 18 0 33 18 60 36 53 10 -4 14 -16 12 -37z m-105
-193 c-7 -2 -19 -2 -25 0 -7 3 -2 5 12 5 14 0 19 -2 13 -5z m557 -773 c0 -5
-4 -10 -10 -10 -5 0 -10 5 -10 10 0 6 5 10 10 10 6 0 10 -4 10 -10z m-259 -43
c-5 -14 -15 -28 -20 -32 -10 -6 0 33 15 57 11 18 14 1 5 -25z"/>
</g>
</svg>
