<?xml version="1.0" standalone="no"?>
<!DOCTYPE svg PUBLIC "-//W3C//DTD SVG 20010904//EN"
 "http://www.w3.org/TR/2001/REC-SVG-20010904/DTD/svg10.dtd">
<svg version="1.0" xmlns="http://www.w3.org/2000/svg"
 width="1280.000000pt" height="716.000000pt" viewBox="0 0 1280.000000 716.000000"
 preserveAspectRatio="xMidYMid meet">
<metadata>
Created by potrace 1.15, written by Peter Selinger 2001-2017
</metadata>
<g transform="translate(0.000000,716.000000) scale(0.100000,-0.100000)"
fill="#000000" stroke="none">
<path d="M4489 6285 c-3 -2 -70 -9 -150 -15 -79 -6 -170 -18 -202 -26 -33 -8
-96 -18 -140 -21 -106 -7 -131 -13 -256 -64 -95 -39 -111 -49 -186 -123 -45
-45 -99 -106 -119 -137 -20 -30 -59 -72 -86 -93 -61 -46 -142 -138 -198 -224
-23 -35 -42 -65 -42 -68 0 -2 -11 -21 -23 -42 -26 -40 -59 -128 -81 -213 -14
-53 -59 -145 -148 -304 -25 -44 -60 -120 -78 -170 -17 -49 -43 -106 -56 -126
-34 -50 -58 -248 -51 -424 4 -115 9 -142 41 -239 38 -115 37 -136 -8 -136 -27
0 -144 -25 -216 -45 -30 -9 -82 -23 -115 -31 -33 -8 -69 -18 -80 -23 -68 -29
-315 -111 -334 -111 -8 0 -33 -9 -55 -19 -23 -11 -95 -40 -161 -66 -66 -25
-135 -52 -153 -60 -18 -8 -39 -15 -46 -15 -7 0 -48 -16 -90 -35 -74 -33 -76
-36 -76 -69 0 -45 44 -97 103 -121 24 -10 75 -19 117 -20 41 -2 104 -11 138
-20 69 -17 148 -21 227 -9 28 4 87 6 133 5 67 -1 89 -5 112 -22 19 -15 42 -21
72 -20 93 2 116 1 208 -2 54 -3 114 -11 139 -21 24 -9 58 -16 75 -16 17 0 67
-7 111 -15 44 -9 136 -18 205 -22 119 -5 130 -7 227 -49 56 -24 111 -44 123
-44 12 0 30 -5 41 -10 10 -6 61 -12 112 -15 50 -2 105 -8 120 -14 16 -6 41
-11 57 -11 16 0 55 -7 87 -15 32 -8 96 -19 143 -24 47 -5 117 -15 155 -21 39
-5 85 -12 104 -15 18 -3 36 -7 40 -9 3 -2 58 -12 121 -21 63 -9 196 -37 295
-61 99 -25 243 -57 320 -70 77 -14 176 -38 220 -55 44 -17 104 -37 133 -44 65
-18 129 -50 227 -115 42 -27 100 -60 128 -74 29 -13 77 -36 107 -50 30 -14 98
-48 150 -76 52 -28 128 -64 168 -81 64 -26 103 -47 197 -106 11 -7 36 -20 55
-28 19 -9 66 -42 105 -74 38 -32 81 -64 95 -71 14 -7 82 -69 151 -139 137
-137 158 -151 384 -244 61 -25 124 -52 140 -61 17 -9 35 -16 41 -16 30 0 173
-53 232 -86 37 -21 105 -48 152 -60 58 -16 90 -30 102 -46 28 -36 78 -185 78
-231 0 -65 9 -85 43 -96 67 -24 137 18 123 73 -3 14 -18 38 -32 56 -29 33 -64
134 -64 182 0 33 18 52 120 129 126 96 173 135 236 195 70 69 66 68 224 45 90
-13 319 -109 350 -146 22 -26 70 -47 95 -41 26 7 44 49 36 84 -7 25 -19 34
-131 87 -41 20 -129 65 -195 100 -66 35 -139 74 -163 86 -59 30 -159 129 -166
165 -4 16 -18 64 -32 107 -29 88 -26 118 11 135 33 15 61 11 345 -48 30 -6 89
-18 130 -27 41 -8 102 -23 135 -33 33 -10 89 -26 125 -35 80 -22 143 -40 240
-70 41 -12 116 -35 165 -49 50 -15 117 -36 150 -47 33 -11 87 -27 120 -35 33
-8 64 -19 69 -24 6 -6 20 -10 32 -10 13 0 83 -20 156 -44 73 -25 237 -77 363
-116 230 -70 481 -155 628 -213 57 -22 86 -39 105 -64 74 -94 192 -83 220 20
9 31 2 101 -10 112 -29 25 -83 39 -158 40 -77 2 -94 6 -192 48 -92 41 -181 74
-488 182 -36 13 -90 33 -120 45 -30 12 -89 33 -130 46 -41 14 -86 30 -100 38
-14 7 -104 39 -200 71 -96 31 -200 68 -230 81 -30 13 -100 41 -155 63 -55 21
-167 66 -250 98 -82 33 -211 81 -285 107 -74 26 -169 60 -210 75 -41 16 -102
38 -135 49 -77 26 -298 105 -350 125 -22 9 -52 18 -66 21 -14 3 -36 15 -49 26
-15 13 -37 20 -65 20 -33 0 -54 9 -101 42 -32 22 -70 51 -84 64 -14 12 -36 28
-50 33 -49 21 -134 73 -184 112 -115 91 -193 147 -226 164 -19 10 -57 38 -84
62 -28 25 -66 54 -85 64 -79 44 -129 75 -154 95 -14 12 -53 31 -86 44 -96 35
-111 64 -49 94 26 13 37 68 18 91 -7 8 -11 47 -10 97 11 612 11 759 1 823 -7
39 -16 99 -22 135 -6 36 -24 106 -40 157 -16 50 -29 100 -29 112 0 11 -4 22
-9 25 -9 6 -50 115 -57 154 -16 85 -86 190 -268 402 -59 69 -124 144 -144 168
-122 143 -286 253 -456 307 -41 13 -85 29 -98 36 -13 7 -45 18 -73 25 -67 18
-138 39 -209 63 -32 12 -87 24 -121 27 -41 4 -83 17 -117 35 -29 15 -71 37
-93 48 -56 27 -261 90 -331 101 -33 5 -89 14 -125 20 -66 10 -291 14 -300 5z"/>
</g>
</svg>
