<?xml version="1.0" standalone="no"?>
<!DOCTYPE svg PUBLIC "-//W3C//DTD SVG 20010904//EN"
 "http://www.w3.org/TR/2001/REC-SVG-20010904/DTD/svg10.dtd">
<svg version="1.0" xmlns="http://www.w3.org/2000/svg"
 width="1172.000000pt" height="1280.000000pt" viewBox="0 0 1172.000000 1280.000000"
 preserveAspectRatio="xMidYMid meet">
<metadata>
Created by potrace 1.15, written by Peter Selinger 2001-2017
</metadata>
<g transform="translate(0.000000,1280.000000) scale(0.100000,-0.100000)"
fill="#000000" stroke="none">
<path d="M11100 12780 c-400 -68 -778 -231 -1240 -535 -357 -233 -547 -387
-1470 -1190 -639 -555 -730 -632 -1170 -986 -563 -453 -1123 -886 -1664 -1287
-616 -456 -740 -547 -747 -550 -4 -2 -46 15 -93 38 -137 65 -186 74 -366 67
-85 -4 -190 -11 -232 -17 l-77 -11 -83 88 c-336 352 -682 744 -1019 1153 -173
211 -243 303 -533 698 -325 445 -405 544 -580 717 -229 227 -457 386 -714 497
-343 147 -600 170 -808 72 -87 -41 -125 -82 -175 -189 -77 -164 -115 -320
-125 -505 -8 -151 10 -256 82 -470 128 -383 262 -579 484 -710 l93 -55 -79 -6
c-174 -13 -288 -129 -255 -259 30 -118 213 -319 410 -451 120 -81 180 -112
311 -162 185 -71 386 -105 550 -93 131 10 282 -9 479 -60 97 -25 248 -56 336
-69 204 -30 302 -52 511 -115 329 -100 357 -111 473 -198 55 -42 70 -58 60
-64 -8 -5 -54 -32 -104 -60 -332 -187 -650 -470 -888 -789 l-57 -75 -77 -21
c-43 -12 -103 -24 -133 -26 -111 -10 -211 -77 -406 -273 -66 -67 -83 -80 -96
-70 -16 12 -16 30 4 146 31 182 150 382 311 524 64 56 67 60 51 78 -10 10 -15
20 -13 21 51 40 258 214 298 252 114 106 140 191 80 259 -16 19 -38 37 -47 40
-9 2 -27 7 -39 11 -18 5 -35 -7 -90 -62 -37 -38 -124 -106 -193 -153 -69 -46
-145 -99 -169 -117 -30 -23 -48 -30 -55 -23 -26 26 -59 9 -146 -78 -166 -166
-218 -328 -251 -777 -9 -126 -17 -179 -30 -204 -12 -22 -17 -48 -14 -70 2 -20
12 -96 21 -169 15 -114 16 -147 6 -230 -13 -106 -15 -286 -3 -400 8 -85 21
-76 -134 -92 -85 -9 -103 -14 -122 -34 -12 -14 -37 -27 -55 -31 -115 -25 -226
-150 -346 -390 -78 -157 -85 -175 -71 -207 10 -24 4 -47 -50 -191 -100 -272
-114 -325 -115 -455 l-1 -114 33 -29 c47 -42 116 -37 170 14 40 37 55 78 57
157 3 78 40 243 95 415 27 84 34 95 54 95 20 0 28 12 56 87 53 142 116 279
156 339 32 48 40 55 61 49 14 -3 47 2 76 13 29 11 76 23 104 27 45 6 53 4 53
-9 0 -9 -18 -127 -40 -262 l-40 -246 -100 -200 c-55 -110 -100 -205 -100 -210
0 -6 -16 -28 -35 -49 -70 -78 -131 -236 -159 -414 -8 -55 -20 -183 -26 -285
-6 -101 -14 -188 -16 -192 -9 -14 9 -8 29 10 19 17 20 16 13 -53 -4 -38 -10
-80 -13 -93 -4 -18 -2 -21 13 -15 16 5 17 4 7 -8 -17 -21 -31 -132 -19 -152 7
-11 7 -33 -1 -69 -7 -33 -7 -55 -1 -59 5 -3 -7 -54 -28 -118 -25 -77 -34 -115
-26 -119 7 -5 6 -24 -4 -67 -21 -90 -28 -204 -15 -251 21 -79 89 -109 181 -81
l45 14 -57 16 c-34 10 -63 26 -72 39 -15 22 -15 23 24 34 23 7 48 18 57 26 10
8 35 12 68 10 35 -3 63 2 81 12 29 15 74 51 74 58 0 1 -23 4 -51 5 -95 4 -163
79 -163 179 0 62 20 97 73 124 37 18 40 23 46 75 4 31 5 69 1 86 -3 18 -2 28
4 24 6 -4 11 13 12 42 3 79 3 97 -5 126 -5 19 -4 26 4 25 18 -4 42 158 30 194
-7 18 -6 28 1 30 8 3 7 24 -2 72 -17 91 -8 200 29 366 17 74 34 179 38 234 6
92 9 102 43 155 21 31 70 119 110 196 40 77 86 152 102 167 25 24 28 33 29
100 1 40 4 100 8 133 l7 60 58 -115 c109 -213 166 -287 392 -500 54 -51 94
-100 125 -155 193 -333 203 -349 294 -441 145 -146 259 -190 473 -182 67 3
125 8 129 12 4 4 -36 48 -89 99 -52 51 -103 107 -113 126 l-17 33 32 -18 c17
-11 72 -49 122 -86 49 -38 93 -68 98 -68 9 0 24 36 41 100 13 45 13 85 7 545
-2 167 2 257 16 371 10 84 22 157 26 164 6 10 18 10 59 0 l51 -12 0 -197 c0
-205 10 -317 36 -417 22 -84 65 -176 80 -170 13 5 24 -23 24 -66 0 -14 4 -28
9 -30 5 -2 5 -25 0 -58 -10 -61 -2 -123 14 -113 7 4 8 -14 3 -56 -6 -49 -4
-61 7 -61 17 0 14 -14 -28 -185 -21 -84 -26 -124 -22 -170 7 -76 24 -125 37
-105 6 10 12 3 24 -25 51 -122 172 -197 250 -155 35 18 33 26 -11 34 -60 9
-146 76 -99 76 17 0 58 49 51 60 -3 4 2 13 10 20 24 20 100 6 140 -24 l35 -27
0 26 c0 15 -5 35 -10 46 -10 18 -78 59 -99 59 -6 0 -35 9 -64 20 l-54 20 1 93
c2 92 17 147 41 147 27 0 35 136 11 182 -8 15 -10 28 -5 30 8 3 -16 104 -36
151 -4 10 -3 17 5 17 13 0 4 126 -12 169 -6 17 -5 27 3 32 13 8 8 60 -31 319
-11 74 -20 164 -20 199 0 56 2 62 18 56 155 -67 276 -89 447 -82 95 3 145 10
187 25 169 61 263 171 283 334 8 65 0 61 145 73 104 9 282 42 333 62 51 20
102 52 183 115 42 33 71 48 91 48 l30 0 -19 -67 c-38 -135 -58 -252 -83 -478
-37 -342 -58 -493 -82 -593 -5 -21 -3 -22 21 -16 26 6 27 5 20 -22 -4 -16 -24
-77 -45 -135 -21 -58 -42 -129 -47 -157 -8 -47 -8 -52 9 -52 11 0 19 -2 19 -5
0 -3 -31 -68 -70 -145 -38 -77 -70 -142 -70 -145 0 -3 9 -5 19 -5 11 0 22 -4
25 -9 3 -5 -19 -57 -49 -117 -30 -59 -55 -109 -55 -112 0 -2 9 0 20 3 28 9 25
-3 -17 -71 -20 -32 -58 -95 -84 -139 -26 -44 -62 -102 -78 -130 -17 -27 -31
-60 -31 -73 0 -38 30 -92 61 -107 42 -22 71 -18 120 15 24 16 52 30 62 30 34
0 92 -31 136 -73 l44 -42 -7 47 c-10 81 -68 174 -119 191 -21 7 10 95 71 199
31 54 61 98 65 98 5 0 14 -13 20 -30 6 -17 15 -30 19 -30 9 0 25 60 33 125 12
100 27 175 36 175 5 0 9 -4 9 -8 0 -5 6 -16 13 -26 11 -16 17 9 37 170 13 104
25 191 27 193 1 2 12 -4 23 -14 11 -10 22 -16 25 -13 9 9 10 332 1 376 l-8 44
26 -17 c15 -10 28 -16 30 -14 2 2 -4 58 -12 124 -9 75 -14 219 -15 385 -1 272
9 382 49 571 22 101 2 104 258 -29 49 -26 99 -43 134 -48 46 -6 60 -12 86 -42
58 -66 134 -79 222 -38 61 28 120 95 138 154 l12 45 33 -91 c90 -254 214 -433
314 -457 l27 -7 -5 -92 c-2 -50 -7 -154 -10 -231 -8 -208 -68 -622 -102 -711
-7 -19 -6 -19 21 0 l29 18 -7 -33 c-8 -46 -56 -378 -56 -391 0 -6 11 -3 25 6
13 9 27 16 30 16 3 0 5 -74 5 -165 0 -165 0 -166 21 -155 11 7 22 10 24 8 9
-11 25 -148 25 -223 0 -85 1 -87 18 -72 23 21 32 21 32 1 0 -9 18 -58 39 -108
21 -50 40 -100 42 -111 3 -14 -16 -40 -62 -85 -45 -45 -76 -86 -98 -133 -18
-38 -30 -71 -28 -74 3 -2 32 13 64 35 71 48 157 92 180 92 9 0 27 -10 40 -21
14 -14 40 -24 72 -27 45 -4 52 -1 86 30 63 57 63 140 1 208 -25 28 -47 77 -82
188 -21 67 -21 73 -5 67 16 -5 15 6 -14 102 -18 60 -36 122 -39 140 -7 29 -5
31 15 26 19 -5 21 -3 15 13 -28 71 -104 299 -101 303 3 2 11 -2 20 -9 13 -11
15 -8 15 22 0 39 -34 244 -49 296 -9 30 0 44 14 22 16 -25 27 -8 21 33 -22
150 -42 566 -38 786 l2 95 32 -31 c63 -60 132 -84 395 -143 195 -43 265 -66
382 -125 100 -50 150 -64 179 -52 18 8 33 6 69 -12 145 -70 195 -165 283 -544
72 -304 136 -479 281 -770 95 -191 185 -332 271 -422 56 -60 66 -67 84 -57 17
9 27 6 55 -17 46 -38 195 -215 274 -326 138 -193 339 -562 460 -845 63 -148
95 -195 95 -139 0 18 6 14 33 -22 102 -135 207 -318 207 -361 0 -10 5 -18 10
-18 6 0 10 7 10 15 0 32 18 12 65 -73 81 -148 125 -219 145 -237 19 -17 20
-17 28 6 l9 23 15 -25 c9 -13 43 -71 76 -129 34 -58 73 -120 87 -139 l25 -35
0 35 c0 51 10 81 24 70 18 -15 84 -29 186 -41 207 -25 233 -68 161 -272 -16
-43 -24 -78 -20 -78 16 0 79 74 100 117 12 25 24 64 26 87 l5 43 48 -5 c42 -4
51 -1 81 26 33 30 34 32 34 110 0 73 -3 84 -30 124 -40 57 -88 74 -147 53 -36
-12 -56 -12 -147 0 -172 23 -197 30 -243 66 -62 49 -80 73 -62 79 24 9 -35 86
-120 159 -84 71 -117 111 -91 111 8 0 15 4 15 9 0 12 -135 180 -239 296 -56
62 -80 98 -81 116 0 28 -63 204 -130 364 -57 135 -175 370 -244 483 -113 186
-163 255 -364 502 -19 23 -21 31 -12 52 23 50 -69 225 -235 448 -56 74 -122
169 -147 210 -71 113 -168 324 -243 525 -36 99 -84 215 -105 257 -96 192 -198
288 -327 306 -42 6 -48 10 -53 37 -11 53 -41 98 -114 171 -64 64 -80 75 -166
108 -116 43 -190 88 -386 232 -176 130 -254 184 -310 212 -54 28 -152 52 -207
52 -54 0 -56 2 -186 225 -65 111 -80 143 -71 155 6 8 18 27 28 42 9 16 20 28
24 28 4 0 65 -36 134 -81 177 -112 434 -239 486 -239 11 0 86 -22 167 -50 164
-55 261 -72 336 -59 28 5 55 10 61 11 6 1 44 -13 85 -30 176 -73 410 -132 743
-187 115 -19 211 -36 213 -39 3 -3 16 0 30 5 18 7 42 4 91 -12 37 -11 99 -22
138 -24 68 -3 78 -7 331 -138 143 -74 272 -142 286 -152 14 -9 60 -57 103
-106 42 -50 155 -161 252 -247 250 -223 297 -302 309 -514 l6 -97 76 152 c42
83 136 246 210 362 241 377 313 539 415 937 37 144 47 170 72 191 l29 25 3
144 c8 305 -42 538 -156 738 -54 93 -63 126 -67 245 -4 98 -35 195 -115 360
-107 221 -275 443 -389 516 -46 30 -133 127 -152 169 -52 120 -86 175 -149
239 -115 115 -254 206 -570 369 -102 53 -200 110 -217 127 -30 29 -103 70
-168 95 -25 10 -24 12 77 98 151 129 231 222 282 323 102 203 80 367 -59 445
l-55 31 72 28 c211 82 386 196 613 401 228 205 733 809 937 1119 229 348 420
767 546 1195 39 136 45 167 46 255 1 94 -1 105 -32 167 -38 78 -92 130 -176
169 -113 53 -222 61 -406 29z m-8290 -4111 c133 -48 646 -212 705 -225 17 -4
46 -21 65 -39 19 -18 70 -58 113 -90 43 -32 76 -59 75 -61 -2 -1 -47 -19 -101
-39 l-97 -36 -38 22 c-20 13 -84 58 -142 102 -58 43 -141 95 -185 115 -133 62
-283 140 -420 220 -128 74 -171 103 -130 87 11 -4 81 -29 155 -56z m2881 -291
c-27 -57 -57 -133 -67 -170 l-19 -67 -88 -41 c-123 -57 -167 -68 -282 -71 -89
-2 -104 0 -137 20 -21 13 -38 29 -38 36 0 29 168 136 450 288 47 25 103 59
125 76 25 19 52 31 72 31 l32 0 -48 -102z m-118 -511 l-6 -136 -96 66 c-53 37
-97 67 -99 68 -1 2 2 13 9 26 7 15 44 40 102 70 51 25 93 45 95 44 1 -1 -1
-63 -5 -138z m1186 -1381 c27 -13 127 -86 223 -162 214 -172 258 -205 378
-281 221 -140 693 -375 747 -372 35 3 653 -304 640 -317 -15 -16 -519 98 -750
169 -94 29 -110 37 -127 65 -40 65 -119 100 -308 138 -72 14 -134 32 -150 44
-29 20 -263 111 -557 216 -125 44 -185 71 -197 87 -9 12 -27 35 -39 51 -13 16
-47 40 -77 53 l-55 24 5 63 c4 49 12 74 36 107 41 59 90 105 132 123 45 20 42
20 99 -8z"/>
</g>
</svg>
