<?xml version="1.0" standalone="no"?>
<!DOCTYPE svg PUBLIC "-//W3C//DTD SVG 20010904//EN"
 "http://www.w3.org/TR/2001/REC-SVG-20010904/DTD/svg10.dtd">
<svg version="1.0" xmlns="http://www.w3.org/2000/svg"
 width="511.000000pt" height="1280.000000pt" viewBox="0 0 511.000000 1280.000000"
 preserveAspectRatio="xMidYMid meet">
<metadata>
Created by potrace 1.15, written by Peter Selinger 2001-2017
</metadata>
<g transform="translate(0.000000,1280.000000) scale(0.100000,-0.100000)"
fill="#000000" stroke="none">
<path d="M1895 12645 c-11 -111 2 -421 25 -600 23 -178 24 -256 5 -390 -9 -59
-15 -188 -16 -315 -1 -118 -4 -228 -8 -245 -6 -28 -9 -25 -38 50 -17 44 -48
141 -68 215 -39 140 -50 167 -91 235 -13 22 -24 49 -24 60 0 11 -8 25 -18 31
-10 7 -24 30 -30 52 -11 38 -73 155 -78 149 -1 -1 13 -52 31 -113 35 -116 95
-394 95 -441 0 -40 -137 188 -145 242 -4 22 -13 50 -21 62 -8 12 -14 29 -14
37 0 9 -12 40 -27 71 -23 46 -31 55 -53 54 -24 0 -24 0 -3 -9 20 -8 22 -15 18
-57 -14 -151 -14 -231 0 -275 7 -25 11 -48 9 -51 -3 -2 16 -112 41 -243 67
-346 130 -733 154 -934 27 -236 30 -273 21 -263 -4 4 -96 179 -205 388 -323
620 -275 542 -695 1155 -223 327 -352 506 -419 583 -32 37 -80 105 -106 152
-45 80 -59 101 -50 73 45 -146 69 -205 128 -318 140 -271 252 -468 347 -615
137 -210 264 -434 386 -680 92 -186 158 -342 137 -321 -5 4 -89 120 -188 259
-178 249 -226 301 -212 227 4 -17 2 -41 -4 -52 -9 -18 -8 -18 10 -9 38 21 26
41 143 -229 28 -63 61 -146 74 -185 l24 -70 -52 60 c-244 282 -494 491 -661
553 -69 26 -100 28 -118 6 -12 -15 -11 -16 9 -10 76 24 357 -265 580 -595 17
-26 87 -149 155 -275 290 -537 402 -770 393 -815 -6 -31 48 -229 109 -394 49
-133 49 -135 35 -135 -6 0 -48 28 -92 63 -59 45 -93 81 -125 131 -44 68 -62
82 -44 32 13 -32 7 -32 -44 -3 -72 40 -94 121 -54 199 23 45 59 144 59 162 0
6 -29 -49 -65 -121 -35 -73 -69 -133 -75 -133 -13 0 -30 17 -140 143 -178 204
-397 357 -512 357 -23 0 -43 10 -72 38 -38 36 -39 36 -18 5 12 -17 22 -38 22
-46 0 -7 50 -59 111 -113 165 -148 262 -259 412 -474 40 -58 110 -155 154
-216 183 -254 331 -516 378 -669 23 -74 76 -355 69 -364 -2 -2 -23 13 -46 33
-24 20 -79 64 -122 99 -134 105 -192 164 -367 377 -92 113 -185 217 -206 232
-21 15 -72 56 -113 93 -45 40 -107 83 -157 107 -67 34 -83 46 -88 69 -4 15
-14 34 -23 41 -14 11 -15 10 -8 -7 15 -40 19 -75 7 -75 -22 0 -10 -32 21 -58
114 -95 205 -184 253 -246 30 -39 90 -109 134 -156 58 -62 76 -88 69 -97 -6
-7 -8 -20 -4 -28 3 -9 1 -24 -5 -33 -9 -14 -5 -28 16 -67 l26 -50 -3 45 c-2
25 -7 51 -12 58 -9 14 0 32 17 32 12 0 76 -69 161 -174 116 -144 318 -469 426
-685 70 -140 123 -261 113 -261 -3 0 -31 14 -62 30 -54 29 -60 37 -137 168
-45 75 -92 159 -105 185 -13 27 -41 68 -61 92 -21 24 -38 48 -38 54 0 18 -79
99 -145 149 -33 25 -84 68 -113 94 -30 27 -74 60 -98 74 -56 33 -58 60 -9 103
20 17 33 31 30 31 -15 0 -53 -26 -92 -61 -30 -27 -38 -41 -29 -46 41 -25 169
-185 271 -337 123 -184 148 -239 51 -114 -31 40 -96 105 -143 143 -48 39 -90
77 -94 85 -4 8 -13 29 -19 45 -13 29 -13 29 -19 7 -6 -21 -13 -18 -141 65
-109 69 -144 87 -182 91 -88 9 -106 -6 -128 -105 -9 -39 -8 -50 10 -80 11 -19
20 -48 20 -64 0 -44 15 -66 60 -89 54 -28 60 -25 20 10 -28 23 -32 31 -21 39
17 11 7 104 -16 163 -8 21 -13 43 -11 49 2 7 58 -36 124 -97 65 -60 147 -134
182 -164 42 -37 87 -91 134 -165 67 -103 198 -342 198 -360 0 -5 -23 15 -51
44 -56 57 -104 85 -189 111 -44 14 -56 22 -58 41 -6 49 -25 77 -70 109 l-47
33 38 -39 c38 -41 49 -88 26 -111 -21 -21 21 -84 76 -116 28 -16 69 -45 93
-64 l43 -35 -23 -25 -23 -25 38 18 c36 17 38 17 57 -2 20 -21 84 -306 70 -312
-20 -8 -230 124 -338 211 -28 24 -86 60 -127 82 -72 37 -75 40 -75 74 -1 34
-2 35 -15 17 -26 -34 -19 -72 17 -97 50 -35 230 -183 256 -211 l23 -25 -22
-37 c-29 -50 -19 -99 28 -144 19 -18 37 -31 39 -29 3 2 -9 33 -26 68 -43 91
-40 115 10 98 16 -6 58 -46 96 -92 38 -45 103 -118 144 -162 71 -75 160 -185
160 -198 0 -3 -21 -5 -46 -4 -30 1 -48 -3 -51 -11 -3 -7 1 -10 11 -6 12 5 16
-1 16 -24 0 -44 -16 -52 -80 -40 -30 6 -63 14 -72 19 -10 5 -36 9 -59 9 -52 0
-103 -45 -94 -83 5 -17 2 -26 -10 -31 -14 -5 -13 -10 11 -41 14 -19 34 -35 44
-35 14 0 20 -14 29 -75 6 -41 12 -78 13 -82 2 -7 -52 -106 -93 -173 -27 -44
-40 -84 -34 -111 10 -42 21 -43 17 -1 -5 53 15 74 74 79 72 7 172 -11 320 -58
71 -23 133 -44 138 -47 5 -3 -3 -11 -18 -19 -23 -12 -27 -20 -25 -47 3 -29 -5
-40 -70 -101 -81 -77 -211 -240 -210 -264 0 -10 12 -1 32 23 81 97 81 97 100
82 16 -12 14 -15 -21 -39 -20 -15 -45 -39 -54 -55 -23 -38 -85 -72 -97 -53 -5
7 -14 10 -20 7 -6 -4 -11 -2 -11 3 0 25 -18 8 -24 -21 -18 -87 -19 -111 -2
-123 14 -11 15 -16 2 -53 -8 -22 -26 -57 -40 -79 -13 -21 -28 -51 -32 -68 -4
-16 -18 -45 -32 -64 -16 -21 -27 -52 -30 -82 -3 -37 -11 -54 -38 -80 -19 -18
-37 -30 -41 -26 -3 4 6 33 20 65 19 40 27 72 26 105 -2 64 -24 56 -24 -9 -1
-49 -32 -118 -62 -137 -18 -11 -16 -107 3 -146 22 -43 29 -107 15 -124 -13
-17 -41 -104 -41 -132 0 -11 -14 -29 -31 -40 -33 -22 -59 -63 -59 -94 0 -11
-9 -35 -20 -53 -10 -18 -19 -44 -18 -58 1 -37 30 -142 45 -166 18 -29 -1 -214
-28 -265 -10 -20 -19 -50 -19 -65 0 -21 -7 -32 -22 -39 -18 -8 -24 -20 -26
-53 -2 -24 2 -50 9 -58 7 -8 16 -34 20 -57 4 -23 12 -60 18 -82 21 -80 8 -197
-20 -180 -5 4 -9 23 -9 43 0 47 -10 82 -22 82 -5 0 -6 -34 -2 -85 4 -52 3 -90
-3 -97 -20 -26 6 -374 30 -412 10 -15 12 -37 6 -81 -16 -133 -22 -165 -34
-165 -6 0 -20 -9 -30 -20 -10 -11 -25 -19 -34 -18 -13 2 -17 -9 -19 -54 -2
-47 0 -58 13 -58 20 0 57 -60 51 -83 -2 -9 7 -47 22 -85 22 -58 26 -85 29
-209 4 -175 -12 -191 -47 -51 -7 26 -18 52 -24 57 -19 15 -56 23 -56 12 0 -6
9 -11 21 -11 25 0 47 -49 63 -142 6 -36 19 -75 29 -85 9 -11 17 -29 17 -40 0
-11 6 -26 14 -32 7 -6 16 -33 19 -59 3 -27 19 -79 36 -116 17 -36 31 -72 31
-79 0 -7 20 -44 45 -81 28 -41 44 -74 40 -85 -3 -11 6 -27 24 -45 16 -16 35
-41 41 -57 7 -16 16 -29 21 -29 5 0 14 -11 19 -25 5 -14 31 -40 56 -58 26 -17
57 -43 68 -55 12 -13 42 -35 68 -48 26 -13 58 -38 70 -55 31 -42 103 -89 136
-89 31 -1 55 -17 65 -43 6 -16 17 -18 65 -16 60 2 101 -11 174 -57 35 -22 39
-28 33 -55 -5 -23 -3 -29 10 -29 9 0 33 -9 53 -19 57 -30 116 -45 138 -34 22
10 187 9 289 -2 44 -5 90 -3 122 3 48 11 106 1 123 -19 3 -3 19 -13 36 -22 37
-19 54 -8 54 35 0 30 -6 28 120 49 41 6 96 22 123 35 63 31 138 40 188 24 36
-12 41 -12 62 8 14 13 36 22 56 22 18 0 44 9 58 20 14 11 41 20 59 20 18 0 36
5 39 10 3 6 13 10 21 10 25 0 118 46 138 69 11 11 23 21 28 21 24 0 278 193
278 212 0 7 23 35 153 178 69 75 117 154 117 190 0 12 18 52 40 90 22 38 40
72 40 75 0 14 55 131 78 164 13 21 20 41 16 50 -4 9 -8 36 -9 61 -1 35 4 51
23 72 22 23 24 34 20 83 -3 31 -1 58 3 61 9 5 34 57 44 92 4 14 14 22 29 22
20 0 25 7 30 42 5 33 3 45 -9 54 -17 13 -20 60 -4 70 18 11 56 104 63 156 6
41 4 49 -14 60 -12 7 -30 33 -41 58 -22 48 -21 94 1 200 7 30 13 78 14 107 1
37 7 58 22 75 12 12 31 44 42 70 18 42 19 51 7 74 -8 15 -15 20 -17 13 -3 -10
-7 -11 -19 -1 -8 7 -25 20 -38 30 -21 16 -24 27 -26 103 -2 76 1 89 26 134 26
46 27 54 17 88 -10 32 -9 39 5 50 27 20 49 85 41 121 -4 17 -7 36 -6 42 1 6
-14 24 -34 39 l-36 28 7 74 c6 62 4 77 -10 93 -21 24 -9 70 22 84 20 9 20 12
6 60 -8 28 -20 57 -27 65 -8 11 -8 15 2 18 6 3 12 17 12 33 0 20 6 31 19 35
18 5 19 14 16 73 -4 62 -6 67 -27 67 -13 0 -28 -3 -34 -8 -20 -14 -60 136 -70
268 -4 55 -11 81 -35 127 -5 9 -6 31 -3 47 6 27 2 33 -29 51 -42 25 -50 42
-36 74 10 20 5 34 -30 93 -23 38 -41 74 -41 80 0 5 -22 36 -50 67 -27 31 -50
65 -50 75 0 9 -14 28 -31 40 -29 22 -31 27 -27 72 6 57 3 62 -42 83 -98 46
-150 77 -150 89 0 7 6 21 13 31 12 16 18 16 106 1 98 -17 153 -39 185 -73 21
-24 22 -40 11 -141 -9 -83 8 -96 19 -14 3 27 8 63 12 80 5 25 -1 47 -26 95
-44 86 -55 97 -122 115 l-58 16 3 45 c2 43 0 46 -28 53 -45 11 -146 51 -179
71 l-30 17 65 31 c64 29 239 75 239 61 0 -13 -58 -41 -87 -41 -39 -1 -13 -14
58 -30 48 -11 60 -10 87 4 17 9 36 26 43 37 13 24 4 69 -14 69 -6 1 -41 18
-76 40 l-65 39 30 11 c16 7 49 9 74 6 60 -8 142 29 165 74 20 38 16 44 -40 66
-25 9 -45 20 -45 25 0 4 36 19 79 34 67 22 89 25 143 19 69 -7 104 -22 130
-53 10 -12 22 -21 26 -21 12 0 32 46 32 74 0 30 21 36 122 36 72 0 80 -2 110
-29 29 -26 32 -34 32 -85 -1 -30 3 -53 7 -50 5 3 9 27 9 54 0 41 -5 55 -31 84
-16 19 -40 38 -52 41 -12 4 -42 16 -67 28 -43 20 -60 22 -315 22 l-270 0 -115
-32 c-115 -31 -115 -31 -85 -7 31 24 252 137 293 149 18 5 22 2 22 -15 0 -12
-5 -30 -10 -41 -6 -10 -8 -19 -4 -19 11 0 134 102 144 119 12 24 334 121 400
121 11 0 40 -53 50 -90 5 -19 15 -26 46 -31 60 -10 87 23 98 121 6 58 6 58
-31 -27 -20 -48 -32 -49 -39 -4 -4 22 -12 45 -18 49 -17 14 -147 42 -191 42
-22 0 -78 -7 -125 -15 -116 -20 -112 -21 -105 19 6 28 3 36 -16 50 -13 9 -43
16 -68 16 -57 0 -48 7 69 57 198 85 378 134 495 135 40 1 77 -2 83 -6 6 -3 13
-20 17 -36 4 -17 10 -30 15 -30 10 0 40 -57 40 -77 0 -7 5 -13 10 -13 20 0 9
57 -24 127 l-35 72 -72 22 c-143 43 -333 15 -681 -101 -84 -28 -159 -54 -165
-57 -18 -7 -16 27 3 48 13 14 13 20 2 38 -11 19 -9 24 17 50 38 37 234 128
304 141 103 19 328 7 464 -26 39 -9 90 -31 118 -50 55 -37 62 -28 30 35 -30
57 -192 186 -287 228 -52 22 -169 20 -258 -5 -65 -19 -67 -19 -50 -2 11 10 91
57 179 105 235 127 334 187 341 207 3 9 -2 31 -10 47 -9 17 -16 32 -16 35 0
23 393 175 505 196 46 8 44 9 -31 6 -58 -2 -93 -9 -125 -24 -49 -24 -63 -27
-55 -13 8 12 -94 24 -141 16 -63 -11 -198 -53 -369 -116 -221 -80 -282 -109
-404 -188 -58 -38 -157 -102 -220 -143 -149 -97 -265 -191 -297 -240 -13 -22
-26 -38 -28 -36 -2 2 5 27 14 56 17 50 26 59 164 166 80 63 207 155 284 206
150 100 198 141 246 210 17 25 58 75 92 111 33 36 105 118 159 181 54 64 112
123 128 133 62 36 265 193 296 229 37 42 37 44 16 74 -12 17 -25 22 -59 22
-36 0 -135 -31 -135 -43 0 -2 27 3 60 11 45 11 64 12 72 4 8 -8 6 -13 -8 -18
-30 -11 -391 -172 -479 -214 -186 -89 -466 -262 -680 -420 -44 -32 -81 -57
-82 -56 -2 2 23 53 55 114 33 61 72 141 88 179 26 61 53 93 247 298 217 229
530 535 546 535 5 0 18 -12 29 -27 14 -19 24 -25 30 -18 5 6 26 52 47 103 42
106 42 105 -1 318 -13 67 -24 133 -24 147 0 29 -29 51 -54 41 -20 -8 -20 -5
-1 40 8 20 13 36 11 36 -11 0 -44 -67 -43 -85 1 -11 -4 -20 -13 -20 -8 0 -40
-47 -73 -110 -82 -154 -153 -248 -249 -332 -46 -39 -135 -124 -198 -188 -63
-64 -116 -112 -118 -106 -2 5 6 39 17 75 59 190 68 386 18 386 -7 0 -24 -7
-39 -14 -16 -8 -28 -10 -28 -5 0 20 40 87 97 165 32 43 147 203 256 354 380
531 474 641 780 912 225 200 237 212 224 232 -22 33 -59 30 -139 -10 -166 -83
-494 -284 -620 -380 -35 -26 -118 -104 -185 -173 -67 -69 -123 -120 -123 -112
0 14 82 173 215 416 46 83 98 182 117 220 57 114 163 399 207 560 23 83 87
288 142 457 98 299 123 394 101 373 -6 -5 -56 -106 -112 -223 -55 -118 -132
-269 -169 -335 -103 -184 -141 -264 -225 -472 -100 -247 -164 -376 -252 -505
-39 -58 -94 -144 -123 -192 -29 -49 -57 -88 -62 -88 -26 0 -189 77 -189 89 0
8 17 32 38 55 l38 41 18 280 c14 226 23 297 42 370 74 272 137 530 159 650 38
206 32 434 -14 524 -21 40 -91 129 -91 114 0 -12 27 -52 58 -85 17 -18 23 -34
19 -49 -3 -12 1 -38 9 -57 7 -19 14 -61 14 -93 0 -94 -138 -641 -171 -674 -5
-5 -9 15 -9 55 -1 126 -19 420 -35 549 -22 178 -89 378 -141 422 -15 12 -16
12 -11 -6 35 -111 34 -228 -4 -423 -74 -382 -244 -1157 -259 -1184 -6 -10 -10
-24 -10 -32 0 -7 -6 -19 -14 -25 -8 -6 -16 -26 -19 -44 -4 -30 -84 -227 -144
-359 -41 -90 -50 -71 -22 43 5 20 13 90 19 155 5 65 12 152 16 192 7 68 6 73
-14 78 -16 5 -24 22 -38 77 -9 40 -23 88 -30 107 -7 19 -18 107 -23 195 -10
156 -11 164 -68 333 -31 96 -58 170 -60 165 -1 -4 -7 -71 -12 -148 -11 -150
-16 -175 -36 -175 -17 0 -87 -215 -135 -415 -42 -179 -67 -264 -81 -279 -4 -5
-14 16 -23 45 -76 279 -144 490 -371 1174 -221 663 -297 908 -328 1060 -2 11
-7 -16 -12 -60z m2599 -5361 c9 -3 16 -15 16 -25 0 -15 -7 -19 -39 -19 -21 0
-54 -2 -72 -5 -31 -5 -29 -3 21 24 65 36 55 32 74 25z m-3476 -124 c64 -63 82
-86 82 -108 0 -19 13 -43 40 -73 22 -24 40 -47 40 -51 0 -5 17 -27 38 -50 l37
-41 -30 7 c-54 14 -116 85 -212 243 -50 84 -88 153 -84 153 4 0 44 -36 89 -80z
m9 -373 c34 -27 64 -55 67 -63 3 -8 42 -71 86 -141 74 -115 91 -153 58 -126
-7 6 -46 21 -87 34 l-75 24 -37 80 c-20 44 -46 109 -59 145 -12 36 -28 75 -36
87 -30 46 -21 42 83 -40z m2553 -376 c0 -13 -170 -171 -198 -184 -33 -15 -37
-2 -11 32 24 30 187 161 202 161 4 0 7 -4 7 -9z m-2339 -94 c24 -18 24 -18
-36 -12 -76 7 -105 26 -105 66 l0 30 58 -33 c32 -18 70 -41 83 -51z m2537
-122 c10 -23 9 -25 -16 -31 -144 -32 -221 -64 -315 -131 -27 -19 -51 -32 -53
-30 -9 9 75 76 141 112 63 35 212 105 226 105 3 0 11 -11 17 -25z m-2554 -154
c49 -34 82 -69 55 -59 -9 4 -37 9 -61 13 -65 10 -74 18 -60 49 6 14 14 26 17
26 4 0 25 -13 49 -29z m-181 -242 c-10 -3 -37 -10 -61 -14 -38 -6 -41 -5 -36
12 4 10 14 26 22 35 14 17 17 16 54 -4 32 -18 36 -23 21 -29z m81 -154 c101
-9 186 -49 192 -90 3 -22 -23 -25 -68 -9 -75 27 -242 64 -286 64 -36 0 -43 3
-40 18 3 18 58 31 108 26 14 -2 56 -6 94 -9z m-256 -27 c-2 -6 -23 -17 -47
-24 -37 -11 -42 -10 -39 4 2 8 19 21 38 27 37 13 53 10 48 -7z m2356 -327 c3
-5 -9 -15 -27 -22 -17 -7 -36 -15 -40 -17 -5 -2 -1 7 8 22 17 26 48 35 59 17z
m144 -153 c-4 -28 -45 -38 -55 -13 -7 19 12 35 40 35 13 0 18 -6 15 -22z"/>
</g>
</svg>
