<?xml version="1.0" standalone="no"?>
<!DOCTYPE svg PUBLIC "-//W3C//DTD SVG 20010904//EN"
 "http://www.w3.org/TR/2001/REC-SVG-20010904/DTD/svg10.dtd">
<svg version="1.0" xmlns="http://www.w3.org/2000/svg"
 width="1280.000000pt" height="1082.000000pt" viewBox="0 0 1280.000000 1082.000000"
 preserveAspectRatio="xMidYMid meet">
<metadata>
Created by potrace 1.15, written by Peter Selinger 2001-2017
</metadata>
<g transform="translate(0.000000,1082.000000) scale(0.100000,-0.100000)"
fill="#000000" stroke="none">
<path d="M10542 10809 c-121 -20 -313 -103 -452 -194 -36 -24 -137 -102 -225
-173 -88 -72 -161 -129 -162 -128 -2 1 4 50 12 107 26 186 17 280 -32 319 -34
26 -58 25 -119 -5 -167 -83 -289 -278 -335 -535 -15 -81 -19 -378 -6 -447 l7
-42 -139 6 -140 6 -35 -35 c-54 -54 -69 -122 -64 -287 5 -152 23 -219 77 -294
36 -48 156 -142 283 -219 l87 -53 1 -51 c1 -111 -72 -315 -230 -640 -122 -253
-224 -439 -312 -571 -38 -57 -71 -103 -73 -103 -3 0 -43 29 -91 63 -145 108
-316 183 -504 224 -121 26 -472 25 -615 -1 -379 -69 -814 -241 -1273 -504
-173 -99 -253 -163 -442 -352 -353 -353 -609 -690 -1465 -1930 -192 -278 -389
-559 -439 -625 -233 -311 -568 -708 -920 -1090 -312 -339 -540 -572 -1496
-1525 -995 -992 -1163 -1169 -1308 -1368 -119 -166 -162 -292 -113 -341 26
-26 56 -26 128 -1 88 31 198 101 547 349 384 272 531 372 657 442 52 28 488
251 969 494 1089 550 1658 850 2160 1138 293 168 1104 638 1485 860 1375 803
2174 1322 2605 1694 231 199 437 465 565 728 119 244 150 374 149 615 -1 143
-5 178 -27 261 -31 120 -77 234 -128 322 -21 38 -39 73 -39 78 0 6 31 47 68
92 87 104 152 191 509 682 436 599 417 579 541 602 95 18 181 58 249 117 49
41 58 45 125 51 67 6 226 -7 264 -22 15 -5 16 -22 10 -147 -3 -78 -7 -246 -7
-375 -1 -216 1 -236 19 -260 45 -61 111 -30 252 115 97 100 197 225 329 411
40 57 76 105 80 108 4 2 -7 -85 -26 -193 -36 -215 -41 -327 -18 -412 18 -68
59 -110 109 -110 46 0 159 59 225 117 163 143 326 471 433 873 16 63 33 120
37 126 4 7 50 -13 131 -59 113 -63 131 -70 190 -74 52 -3 71 0 96 15 118 74
122 394 9 582 -61 101 -121 149 -247 202 l-113 47 51 -1 c60 -2 123 30 173 87
65 75 30 138 -100 180 -140 44 -311 59 -674 59 -306 0 -336 -1 -410 -21 -44
-12 -81 -20 -83 -19 -1 2 36 18 83 36 177 68 300 162 326 249 32 107 -84 222
-261 260 -170 37 -376 23 -727 -47 -134 -27 -243 -48 -243 -46 0 2 75 57 168
123 169 120 219 165 266 235 35 52 35 113 1 150 -64 69 -227 101 -383 75z
m633 -1077 c-17 -15 -136 -62 -156 -62 -42 0 -15 16 69 41 48 15 89 27 92 28
2 0 0 -3 -5 -7z m-1425 -1064 c0 -10 -70 -128 -76 -128 -1 0 10 36 24 80 20
62 29 77 39 68 7 -6 13 -15 13 -20z"/>
</g>
</svg>
