<?xml version="1.0" standalone="no"?>
<!DOCTYPE svg PUBLIC "-//W3C//DTD SVG 20010904//EN"
 "http://www.w3.org/TR/2001/REC-SVG-20010904/DTD/svg10.dtd">
<svg version="1.0" xmlns="http://www.w3.org/2000/svg"
 width="1280.000000pt" height="640.000000pt" viewBox="0 0 1280.000000 640.000000"
 preserveAspectRatio="xMidYMid meet">
<metadata>
Created by potrace 1.15, written by Peter Selinger 2001-2017
</metadata>
<g transform="translate(0.000000,640.000000) scale(0.100000,-0.100000)"
fill="#000000" stroke="none">
<path d="M56 6163 c-31 -26 -56 -50 -56 -53 0 -13 447 -448 550 -535 220 -188
628 -506 1150 -897 389 -291 477 -364 656 -542 186 -185 277 -310 386 -528 65
-131 138 -445 138 -598 0 -110 59 -253 162 -392 69 -94 122 -138 272 -226 155
-91 210 -141 369 -331 165 -197 205 -235 418 -391 248 -182 416 -317 524 -420
79 -76 110 -98 250 -172 376 -201 785 -397 1030 -493 425 -167 875 -249 1800
-325 138 -11 354 -30 480 -41 435 -40 745 -10 1269 123 245 61 390 111 551
187 295 140 569 336 871 622 402 382 779 840 1011 1229 221 370 514 1016 698
1539 67 189 77 211 138 293 72 97 86 138 69 197 -15 49 -74 116 -126 144 -63
33 -175 31 -286 -7 -183 -62 -319 -149 -564 -365 -127 -112 -228 -220 -437
-468 -74 -87 -244 -279 -380 -428 -524 -575 -869 -869 -1315 -1121 -327 -184
-606 -281 -908 -314 -281 -30 -914 -36 -1141 -9 -410 47 -901 204 -1365 435
-314 157 -499 272 -1051 655 -291 201 -424 306 -548 429 -111 110 -170 184
-231 292 -141 250 -414 407 -641 369 -247 -41 -288 -45 -343 -34 -87 18 -143
46 -711 351 -625 336 -1192 703 -1754 1136 -162 124 -437 352 -703 583 l-176
153 -56 -47z"/>
</g>
</svg>
