<?xml version="1.0" standalone="no"?>
<!DOCTYPE svg PUBLIC "-//W3C//DTD SVG 20010904//EN"
 "http://www.w3.org/TR/2001/REC-SVG-20010904/DTD/svg10.dtd">
<svg version="1.0" xmlns="http://www.w3.org/2000/svg"
 width="1080.000000pt" height="1280.000000pt" viewBox="0 0 1080.000000 1280.000000"
 preserveAspectRatio="xMidYMid meet">
<metadata>
Created by potrace 1.15, written by Peter Selinger 2001-2017
</metadata>
<g transform="translate(0.000000,1280.000000) scale(0.100000,-0.100000)"
fill="#000000" stroke="none">
<path d="M5251 12780 c-176 -80 -454 -558 -724 -1246 -40 -101 -75 -184 -78
-184 -3 0 -9 29 -13 65 -8 83 -51 334 -77 455 -103 483 -227 743 -371 781 -44
12 -50 11 -104 -17 -39 -19 -72 -47 -98 -81 l-41 -52 -50 7 c-146 20 -225 -4
-263 -78 -56 -108 6 -318 187 -635 67 -117 259 -411 334 -510 25 -33 44 -61
43 -63 -2 -1 -48 28 -102 65 -233 161 -574 368 -763 463 -342 171 -558 225
-671 168 -57 -30 -82 -65 -88 -126 -4 -48 -5 -50 -46 -62 -63 -18 -154 -70
-182 -102 -15 -19 -24 -42 -24 -64 0 -149 530 -333 1464 -509 105 -20 191 -37
193 -39 2 -1 -66 -6 -151 -9 -890 -37 -1699 -137 -1957 -242 -163 -66 -201
-147 -103 -222 l34 -25 -45 -51 c-73 -84 -68 -134 14 -157 82 -23 307 -7 566
41 322 58 916 202 1360 328 76 22 141 39 142 37 2 -2 -22 -14 -54 -26 -216
-86 -882 -390 -1172 -535 -169 -84 -216 -104 -227 -94 -21 17 -59 3 -105 -38
-22 -20 -41 -34 -43 -32 -2 2 -11 19 -20 36 -9 18 -28 40 -42 49 -22 15 -28
15 -51 3 -34 -18 -76 -95 -114 -208 -18 -52 -42 -110 -56 -129 -14 -21 -21
-42 -17 -51 11 -25 9 -35 -34 -236 -47 -217 -78 -386 -121 -665 -17 -107 -34
-220 -39 -250 l-10 -55 -1 75 c-1 81 -27 534 -36 640 -28 309 -72 566 -112
645 -22 42 -53 75 -74 75 -24 0 -72 -53 -99 -109 -21 -45 -25 -48 -59 -47
-205 5 -208 -288 -11 -884 42 -127 156 -429 205 -545 15 -34 -2 -20 -113 95
-260 271 -509 473 -652 530 -147 58 -223 9 -236 -153 -7 -72 -9 -77 -44 -106
-20 -16 -44 -45 -54 -64 -64 -136 61 -265 406 -419 111 -50 481 -178 513 -178
10 0 16 -2 13 -6 -3 -3 -104 -11 -224 -19 -792 -51 -1095 -191 -891 -412 l20
-23 -33 -67 c-117 -242 16 -285 404 -131 126 50 506 237 597 293 65 40 36 15
-186 -162 -405 -323 -677 -589 -736 -718 -10 -22 -19 -57 -19 -78 0 -31 5 -40
32 -57 18 -11 45 -20 60 -20 l27 0 -1 -87 c-3 -110 8 -133 60 -133 25 0 55 11
88 31 64 41 223 202 358 364 111 134 393 505 461 608 44 66 56 70 21 6 -42
-76 -251 -526 -324 -700 -154 -363 -224 -582 -226 -705 -2 -107 33 -135 121
-99 21 9 45 23 55 32 21 19 19 20 47 -32 27 -52 41 -69 69 -84 134 -71 289
375 461 1324 13 74 12 26 -4 -230 -47 -745 -21 -1145 75 -1145 23 0 72 55 110
123 17 31 33 57 35 57 1 0 22 -9 46 -20 169 -76 250 85 220 433 -6 78 -21 197
-31 266 -20 122 -90 461 -110 530 -18 64 -2 43 20 -26 42 -129 153 -398 215
-524 181 -367 298 -408 352 -122 l16 88 69 17 c81 20 120 45 143 94 35 75 -13
205 -137 365 -68 89 -310 340 -428 444 -37 33 -44 42 -20 27 19 -13 72 -46
118 -74 143 -89 326 -301 417 -483 29 -58 56 -134 75 -210 40 -163 50 -186
305 -695 122 -245 257 -524 300 -620 67 -150 205 -491 205 -504 0 -2 -51 25
-112 61 -144 83 -441 235 -583 297 -426 186 -669 219 -891 121 -143 -63 -303
-210 -415 -380 -65 -97 -77 -129 -62 -154 18 -29 43 -23 121 28 162 105 342
170 430 155 20 -3 111 -48 202 -99 390 -221 751 -371 1090 -455 99 -24 311
-60 356 -60 27 0 32 -5 46 -47 9 -27 49 -142 91 -258 88 -249 155 -464 196
-633 33 -135 77 -399 69 -408 -4 -3 -28 11 -55 30 -113 81 -298 144 -381 130
-218 -36 -485 -228 -639 -460 -30 -44 -34 -56 -23 -69 20 -24 37 -18 104 39
213 181 427 205 579 66 29 -27 92 -105 140 -174 48 -69 144 -196 213 -282
l126 -157 19 -296 c32 -491 82 -1108 91 -1117 3 -2 23 -2 45 2 l39 6 -8 81
c-32 332 -94 1195 -86 1203 3 2 38 -33 79 -78 40 -46 154 -165 253 -265 l179
-183 -12 -202 c-15 -235 -54 -764 -76 -1018 -8 -96 -16 -191 -17 -210 -3 -34
-2 -35 38 -38 l42 -3 6 48 c12 103 59 673 76 933 5 85 14 223 20 305 53 789
53 1704 0 1975 -6 30 -20 125 -31 210 -11 85 -40 273 -64 418 -25 144 -45 267
-45 272 0 15 80 12 140 -6 81 -24 131 -64 208 -166 128 -173 355 -528 616
-967 l128 -214 -16 -171 c-8 -94 -25 -274 -36 -401 -44 -499 -199 -2223 -204
-2266 -5 -46 -4 -47 26 -53 63 -12 53 -49 88 339 21 230 32 349 90 995 22 239
53 590 70 780 31 348 55 617 90 1010 10 118 33 379 50 580 16 201 33 389 36
418 l6 54 79 -107 c112 -151 232 -306 316 -409 45 -54 72 -95 69 -105 -3 -9
-30 -137 -61 -286 -112 -535 -240 -1133 -365 -1690 -78 -349 -179 -798 -186
-822 -5 -19 0 -23 36 -33 23 -6 43 -10 45 -8 1 2 16 64 32 138 17 74 85 380
152 680 250 1115 462 2124 591 2805 112 592 156 915 145 1063 l-6 93 54 72
c77 102 103 127 130 127 45 0 125 -77 184 -177 26 -46 65 -59 77 -27 7 18 -48
151 -104 255 l-38 68 89 66 c76 57 270 213 391 314 l37 32 5 -33 c3 -18 7 -73
11 -121 l5 -88 -42 -62 c-75 -111 -208 -339 -263 -452 -88 -180 -106 -284 -59
-332 23 -23 31 -25 82 -20 32 3 85 17 119 31 35 14 64 26 67 26 2 0 13 -15 24
-33 l20 -34 -24 -134 c-166 -930 -627 -2278 -1224 -3574 -51 -110 -103 -224
-116 -252 l-24 -53 39 -19 38 -20 18 37 c204 419 551 1240 735 1738 l52 141
167 110 c248 164 628 426 874 602 356 255 360 258 411 265 134 20 295 -63 482
-249 50 -49 119 -126 154 -170 34 -44 67 -83 73 -87 14 -9 47 9 47 25 0 19
-97 170 -182 286 -218 295 -435 483 -608 527 -170 43 -387 -25 -702 -221 -112
-70 -420 -294 -433 -315 -13 -22 -24 -9 -14 18 16 42 115 390 159 557 61 235
150 648 150 700 0 17 7 20 49 20 64 0 116 36 187 129 134 176 331 660 472
1161 22 77 44 156 51 175 l11 35 -5 -35 c-89 -598 -124 -1180 -82 -1360 28
-123 65 -163 133 -146 26 7 112 87 155 145 l25 34 50 -17 c171 -58 291 -9 340
142 39 118 21 373 -47 662 -32 134 -119 434 -144 493 -34 82 -10 40 83 -144
310 -611 553 -879 692 -763 47 40 77 105 104 227 5 23 11 27 41 27 18 0 66 7
105 15 231 49 257 170 80 367 -112 124 -391 337 -657 501 -72 45 -130 83 -129
85 2 1 50 -20 107 -47 221 -104 567 -235 739 -280 238 -61 404 -50 445 30 20
38 18 113 -3 175 l-18 51 65 49 c111 83 138 150 85 214 -52 61 -168 103 -387
140 -141 23 -411 50 -505 50 -107 0 -66 8 98 20 514 37 823 103 934 201 75 66
73 121 -9 208 l-46 49 37 49 c98 128 91 200 -21 217 -147 24 -612 -118 -1212
-370 -271 -113 -259 -109 -253 -102 3 3 59 36 125 73 312 178 699 427 925 595
140 105 287 246 313 302 48 101 -8 158 -155 158 -32 0 -58 3 -58 8 0 4 7 29
15 56 22 72 20 149 -5 171 -19 17 -69 18 -111 0 -14 -5 -16 3 -15 64 1 80 -10
71 106 86 121 15 190 63 190 131 0 41 -9 61 -59 128 -97 130 -473 388 -921
631 -124 67 -125 67 105 -25 452 -181 872 -295 1015 -275 59 8 107 37 121 72
14 38 -5 109 -46 174 l-33 53 49 44 c189 169 44 294 -419 362 -125 18 -198 25
-457 46 l-90 8 175 12 c597 44 900 136 900 275 0 41 -75 133 -137 168 -15 8
-14 15 11 70 49 110 45 153 -17 191 -93 57 -395 -15 -835 -199 -205 -86 -217
-91 -442 -197 -85 -41 -146 -67 -135 -58 11 8 97 67 190 131 204 140 465 336
595 448 133 115 280 271 314 335 33 60 40 126 16 155 -25 30 -94 55 -175 62
l-76 6 6 48 c8 60 -10 151 -35 174 -31 28 -104 16 -175 -29 -79 -50 -340 -315
-482 -489 -131 -160 -326 -414 -442 -575 -44 -63 -81 -110 -81 -105 0 5 11 47
25 94 117 387 233 873 270 1134 18 126 21 324 6 374 -30 98 -117 107 -214 22
l-36 -32 -18 27 c-9 15 -35 40 -57 55 -146 107 -242 -87 -291 -591 -19 -191
-38 -680 -33 -869 1 -82 0 -147 -3 -143 -3 4 -11 32 -18 62 -54 225 -202 695
-283 900 -194 491 -348 619 -463 386 l-20 -40 -57 3 c-69 3 -138 -24 -164 -64
-23 -36 -23 -130 0 -210 65 -220 374 -692 723 -1107 70 -83 92 -118 56 -86
-10 8 -83 55 -163 105 -442 275 -891 500 -1112 557 l-51 13 81 32 c227 92 242
179 44 242 -32 9 -56 21 -55 26 1 5 18 33 37 62 70 104 35 161 -99 161 -71 0
-249 -33 -408 -76 -146 -39 -609 -191 -756 -248 -52 -20 -96 -35 -98 -33 -2 3
36 21 84 42 149 64 521 247 668 329 237 133 368 231 395 296 10 25 10 34 -4
54 -20 32 -66 44 -187 52 l-97 7 10 35 c21 75 -19 142 -86 142 -99 0 -273 -84
-526 -251 -262 -174 -626 -451 -944 -718 -53 -45 -99 -81 -103 -81 -4 0 33 42
83 93 121 124 257 274 395 437 291 345 438 568 455 692 6 42 4 49 -21 74 -26
26 -30 27 -103 21 -55 -3 -106 -16 -177 -42 -59 -23 -101 -33 -103 -27 -9 27
-66 95 -95 112 -40 25 -80 25 -136 0z m1501 -1656 c5 -7 -91 -14 -308 -23
-316 -12 -610 -31 -810 -51 -59 -6 -108 -9 -111 -7 -2 3 33 10 79 16 119 17
425 68 548 92 202 39 446 90 515 108 l70 17 5 -70 c3 -39 9 -76 12 -82z m278
-444 c189 -70 551 -164 905 -235 l210 -42 -195 -7 c-556 -20 -974 -62 -1210
-122 -127 -32 -177 -53 -224 -94 -30 -27 -36 -39 -36 -71 0 -32 7 -46 39 -78
22 -22 55 -47 73 -57 18 -9 34 -18 36 -19 1 -1 -12 -29 -29 -62 -90 -174 -17
-246 226 -222 50 5 135 20 188 33 54 13 96 21 95 17 -2 -3 -15 -29 -30 -58
-43 -81 -87 -197 -112 -297 -18 -69 -33 -105 -61 -141 -64 -85 -73 -139 -27
-175 l27 -22 1 -266 c1 -235 13 -440 31 -509 4 -19 1 -23 -18 -23 -13 0 -42
-10 -64 -23 -52 -29 -85 -92 -85 -162 0 -46 -12 -75 -31 -75 -4 0 -17 16 -29
36 -12 19 -46 53 -75 75 l-53 40 30 60 c33 66 40 137 17 165 -39 48 -126 55
-278 24 -103 -21 -346 -98 -470 -150 -41 -16 -76 -29 -78 -27 -2 2 -10 36 -17
75 -14 71 -14 71 11 87 51 34 222 182 316 274 131 129 189 213 195 285 4 48 1
58 -21 79 -29 30 -77 45 -169 53 l-68 7 0 79 c0 95 -18 145 -55 154 -74 19
-174 -39 -317 -182 -48 -49 -89 -86 -91 -83 -2 2 -23 54 -46 114 -78 199 -432
902 -513 1018 -25 34 -9 35 23 1 45 -49 223 -200 335 -285 208 -157 355 -229
466 -229 104 0 149 41 173 160 l11 55 108 26 c224 55 316 121 299 212 -8 41
-88 124 -173 180 -151 99 -507 253 -850 368 -96 32 -171 58 -166 59 4 0 54
-11 110 -24 254 -61 741 -149 981 -178 170 -19 436 -17 509 5 104 32 137 88
102 172 -8 19 -13 35 -11 35 2 0 40 -14 85 -30z m-2210 -353 c135 -211 293
-496 434 -782 143 -288 178 -366 232 -512 l33 -92 -43 -48 c-120 -134 -413
-509 -575 -735 -34 -49 -64 -88 -65 -88 -2 0 10 44 26 98 190 637 295 1150
286 1394 -4 126 -19 167 -67 193 -22 11 -34 29 -46 67 -42 127 -207 444 -331
636 -30 45 -54 85 -54 88 0 19 101 -111 170 -219z m-630 48 c-82 -559 -74
-985 23 -1146 62 -103 139 -125 251 -70 l59 29 -7 -82 c-15 -185 -25 -467 -26
-711 l-1 -260 -20 75 c-46 173 -113 403 -170 578 -239 733 -437 984 -569 722
-30 -59 -30 -59 -67 -53 -21 3 -39 6 -40 7 -1 1 38 62 87 136 124 190 252 418
383 681 62 125 113 226 114 225 1 -1 -7 -60 -17 -131z m-736 -217 c-367 -371
-523 -544 -659 -733 -45 -62 -56 -73 -51 -50 14 68 18 182 7 203 -60 112 -316
-176 -783 -878 -105 -157 -191 -286 -192 -287 -1 -1 56 170 126 380 70 210
144 443 166 517 l38 135 75 21 c41 11 99 31 129 44 258 112 741 426 1265 824
105 79 192 144 194 145 3 1 -139 -144 -315 -321z m4656 -72 c0 -2 -26 -19 -57
-36 -95 -53 -388 -236 -548 -343 -151 -100 -409 -289 -420 -307 -3 -6 -10 -10
-15 -10 -21 0 91 259 148 343 17 25 49 39 218 97 247 84 476 172 624 238 53
24 50 23 50 18z m166 -373 c-112 -224 -168 -347 -252 -548 l-63 -150 -51 -6
c-130 -17 -189 -134 -162 -322 17 -117 68 -300 107 -382 18 -38 45 -99 60
-135 53 -127 251 -506 322 -618 l18 -27 -35 26 c-286 212 -422 306 -600 415
-151 92 -367 198 -465 228 -49 15 -99 31 -110 36 -18 7 -22 23 -33 121 -17
146 -27 504 -18 592 7 66 8 67 37 67 29 0 29 -1 29 -55 0 -67 23 -128 57 -151
33 -21 100 -15 164 14 185 85 570 458 962 935 67 81 123 147 124 147 1 0 -40
-84 -91 -187z m404 -76 c0 -83 73 -622 106 -780 l14 -67 -44 -133 c-79 -236
-253 -871 -257 -939 -4 -56 -17 110 -19 232 -1 74 -5 187 -9 249 -7 108 -6
118 16 163 89 184 173 770 173 1206 0 80 4 121 10 117 6 -3 10 -25 10 -48z
m570 -176 c115 -153 122 -165 105 -177 -11 -8 -24 -14 -29 -14 -6 0 -46 65
-89 143 -42 78 -89 162 -104 187 -40 67 -18 41 117 -139z m-5765 -285 c23 -83
135 -297 237 -453 127 -193 393 -547 547 -726 9 -10 -63 30 -159 90 -402 250
-793 456 -1018 534 -30 10 -62 29 -73 43 -10 13 -31 27 -46 30 -36 10 -212
-22 -243 -43 -14 -10 -92 -52 -175 -93 -126 -63 -434 -240 -540 -311 -42 -28
-21 -8 140 133 339 298 595 568 691 728 31 51 40 58 96 78 l62 23 37 -43 c48
-55 84 -70 153 -64 64 5 136 45 211 117 56 53 53 55 80 -43z m6200 -235 c80
-83 203 -186 252 -209 18 -9 32 -19 31 -23 -2 -4 -41 -38 -88 -75 -47 -37
-138 -115 -203 -172 -88 -77 -114 -96 -103 -74 42 82 3 310 -89 518 -22 50
-23 55 -9 101 8 26 19 65 25 86 l10 38 52 -58 c28 -32 83 -91 122 -132z m-255
-631 c38 0 71 5 78 12 6 6 13 10 15 7 3 -2 -49 -53 -115 -114 -66 -60 -226
-218 -356 -350 -210 -214 -233 -234 -204 -183 17 32 82 153 144 270 68 131
126 227 148 250 21 21 50 62 65 91 l28 53 66 -18 c36 -10 95 -18 131 -18z
m-3726 -77 c3 -21 9 -47 12 -58 5 -18 -7 -26 -98 -65 -57 -23 -181 -81 -277
-127 -96 -45 -176 -83 -179 -83 -2 0 54 39 125 87 70 47 189 130 263 184 74
54 138 98 141 98 4 1 9 -16 13 -36z m-2704 -242 c220 -79 631 -183 1000 -253
l75 -15 -165 -7 c-452 -19 -775 -43 -951 -71 -26 -4 -26 -3 -21 46 5 49 4 51
-45 98 -53 52 -111 78 -241 112 -85 22 -273 49 -340 49 -34 0 -43 3 -32 10 8
5 33 10 56 10 80 0 303 36 399 64 69 21 99 16 265 -43z m3614 -235 c42 -78
245 -185 497 -262 56 -17 57 -18 87 -85 l30 -68 -57 -16 c-31 -9 -101 -38
-156 -64 -92 -44 -113 -50 -258 -71 -194 -29 -202 -24 -117 60 63 61 76 90 66
145 -19 100 -255 182 -641 221 -185 19 -185 19 -185 37 0 11 30 17 123 26 217
22 466 67 547 100 39 15 44 13 64 -23z m-824 -106 c0 -12 -27 -12 -90 -1 -44
8 -44 9 23 10 39 0 67 -3 67 -9z m1625 -244 l90 -23 -60 -7 c-33 -3 -76 -9
-96 -12 -34 -5 -36 -3 -51 35 -16 41 -16 41 5 36 12 -4 63 -16 112 -29z
m-3365 -1 c0 -2 -19 -14 -42 -26 -117 -60 -632 -391 -798 -513 -183 -135 -351
-286 -388 -348 -9 -15 -19 -28 -22 -28 -14 0 -91 204 -114 302 -14 59 -32 124
-41 144 -19 46 -19 55 0 48 51 -20 385 50 640 134 212 70 588 212 715 271 50
23 50 23 50 16z m3830 -125 c25 -6 3 -8 -75 -9 -60 -1 -184 -6 -274 -11 -128
-8 -166 -7 -172 2 -4 7 -6 14 -5 16 2 2 57 7 122 11 130 8 348 3 404 -9z
m-5378 -24 l47 -18 -15 -30 c-8 -16 -18 -27 -22 -24 -12 7 -76 99 -66 95 5 -2
30 -12 56 -23z m4768 -6 c0 -5 -15 -10 -32 -9 -31 1 -32 1 -8 9 35 11 40 11
40 0z m-1825 -50 c78 -33 312 -121 381 -145 12 -3 30 -93 21 -102 -3 -2 -65
31 -139 75 -73 43 -162 95 -198 114 -165 90 -185 101 -190 106 -6 6 -3 5 125
-48z m-1214 -127 c-163 -328 -323 -699 -399 -928 -56 -171 -76 -266 -77 -372
0 -102 14 -134 71 -162 36 -18 114 -4 185 33 l47 25 37 -44 c82 -101 181 -125
249 -61 l36 33 0 -171 c0 -94 2 -207 5 -251 l6 -80 -76 -54 c-126 -91 -456
-421 -595 -596 -35 -44 -26 -56 -85 125 -171 531 -307 860 -592 1429 -171 342
-172 343 -141 337 17 -3 43 -6 58 -6 26 0 28 -3 34 -62 13 -115 46 -158 121
-158 55 0 159 51 265 130 166 124 609 589 860 903 29 37 55 67 57 67 2 0 -28
-62 -66 -137z m2061 -197 l55 -52 -39 -49 c-22 -28 -46 -62 -54 -77 l-14 -28
-98 73 c-54 39 -121 88 -149 107 -50 33 -53 37 -53 80 0 25 -3 55 -6 66 -5 21
1 20 149 -23 149 -43 156 -46 209 -97z m-1132 -61 c239 -319 500 -611 639
-715 l66 -49 -3 -178 c-3 -200 -29 -782 -40 -886 l-7 -67 -50 36 c-144 103
-308 132 -462 80 -52 -18 -157 -91 -186 -131 l-19 -25 -66 61 c-187 171 -367
246 -520 216 l-43 -9 4 344 c3 305 6 352 25 428 30 123 60 343 77 563 18 237
35 376 46 383 5 3 9 -8 9 -25 0 -16 9 -101 20 -188 72 -559 162 -946 256
-1094 31 -50 80 -81 114 -74 36 9 84 59 119 125 l31 58 63 -20 c86 -28 188
-29 224 -2 49 36 65 68 70 136 13 157 -58 370 -248 750 -75 151 -166 318 -228
418 -27 45 -5 17 109 -135z m2670 131 c0 -2 -53 -31 -117 -64 -65 -33 -132
-68 -150 -78 -34 -20 -39 -19 -45 11 -2 16 14 25 112 61 63 22 131 48 150 57
37 16 50 20 50 13z m-396 -162 c15 -39 4 -50 -116 -114 -156 -84 -501 -290
-608 -364 -45 -31 -85 -55 -87 -52 -10 10 18 301 30 312 6 7 46 19 87 28 100
23 341 93 525 154 83 28 153 51 156 51 4 1 10 -6 13 -15z m619 -37 c-4 -7 -55
-75 -113 -152 -58 -77 -152 -207 -210 -288 -118 -166 -114 -165 -122 -22 l-3
61 155 139 c85 77 186 170 225 207 72 69 82 77 68 55z m-1511 -378 l-5 -182
-77 -74 c-82 -77 -104 -113 -98 -158 4 -38 57 -65 125 -65 46 0 53 -3 53 -20
0 -12 -47 -73 -108 -143 -130 -147 -272 -318 -407 -489 -55 -69 -101 -125
-103 -123 -2 2 1 79 7 171 6 93 13 294 17 447 l7 277 24 0 c38 0 81 27 99 63
11 20 19 66 22 124 l5 92 46 6 c222 29 290 89 231 205 l-20 39 63 4 c34 2 76
4 93 5 l31 2 -5 -181z m63 -1177 c-22 -170 -58 -397 -101 -627 -20 -104 -40
-220 -47 -258 -6 -37 -14 -66 -17 -65 -4 2 -45 50 -90 108 -46 58 -121 148
-167 201 -45 53 -83 100 -83 104 0 6 313 477 456 686 l59 86 3 -54 c2 -30 -4
-112 -13 -181z m-1735 -314 c41 -11 110 -34 154 -51 73 -28 79 -30 91 -14 18
24 88 21 155 -6 83 -34 175 -101 271 -197 96 -95 229 -263 229 -288 -1 -43
-58 -693 -61 -697 -2 -2 -54 60 -114 137 -144 185 -338 410 -446 518 -153 153
-254 219 -336 220 -48 0 -158 -22 -222 -45 -25 -8 -48 -12 -51 -8 -4 5 -13 61
-19 126 l-12 118 46 87 c58 108 64 114 117 122 56 8 106 3 198 -22z m-430
-355 c0 -16 3 -51 6 -78 l6 -51 -50 -27 c-55 -30 -70 -53 -49 -74 11 -11 25
-12 66 -5 28 5 51 7 51 3 0 -3 16 -98 35 -211 32 -180 77 -480 121 -795 18
-134 37 -693 27 -827 l-8 -107 -93 124 c-125 166 -256 317 -390 450 l-111 110
-16 128 c-20 166 -48 312 -91 471 l-35 128 50 72 c110 155 369 546 416 628 28
48 53 87 58 88 4 0 7 -12 7 -27z"/>
</g>
</svg>
