<?xml version="1.0" standalone="no"?>
<!DOCTYPE svg PUBLIC "-//W3C//DTD SVG 20010904//EN"
 "http://www.w3.org/TR/2001/REC-SVG-20010904/DTD/svg10.dtd">
<svg version="1.0" xmlns="http://www.w3.org/2000/svg"
 width="1272.000000pt" height="1280.000000pt" viewBox="0 0 1272.000000 1280.000000"
 preserveAspectRatio="xMidYMid meet">
<metadata>
Created by potrace 1.15, written by Peter Selinger 2001-2017
</metadata>
<g transform="translate(0.000000,1280.000000) scale(0.100000,-0.100000)"
fill="#000000" stroke="none">
<path d="M10242 12775 c-83 -29 -173 -72 -251 -122 -29 -19 -54 -33 -56 -31
-1 2 -8 14 -14 26 -18 33 -81 102 -95 102 -6 0 -65 -54 -132 -121 l-121 -121
-48 57 c-54 63 -89 85 -135 85 -25 0 -38 -10 -78 -61 -63 -81 -151 -226 -218
-360 -31 -60 -57 -109 -59 -109 -3 0 -14 19 -26 43 -26 52 -55 84 -93 104 -36
19 -41 14 -94 -95 -64 -134 -56 -247 28 -394 38 -66 52 -107 38 -107 -4 0 -27
8 -50 18 -42 18 -105 34 -181 46 -48 8 -55 -8 -38 -88 29 -141 113 -289 219
-390 65 -61 124 -93 207 -111 46 -10 51 -14 59 -47 19 -78 -18 -149 -77 -149
-66 0 -73 7 -132 120 -66 127 -134 212 -238 298 -41 34 -77 62 -80 62 -2 0
-21 -25 -41 -56 l-37 -56 -72 74 c-40 40 -103 95 -141 122 l-70 50 -33 -39
c-37 -43 -63 -117 -63 -178 0 -33 -3 -38 -17 -32 -21 8 -165 49 -206 59 -23 6
-29 3 -38 -21 -22 -58 12 -247 62 -345 11 -21 18 -38 17 -38 -2 0 -39 11 -83
25 -54 16 -83 21 -90 14 -5 -5 -10 -47 -9 -92 1 -133 52 -257 150 -366 l49
-54 -143 7 c-139 7 -144 7 -149 -13 -5 -19 -14 -16 -132 43 -486 244 -964 393
-1400 436 -134 13 -415 13 -539 -1 -316 -34 -626 -135 -916 -297 -148 -83
-212 -140 -259 -230 -62 -118 -81 -205 -82 -372 0 -80 2 -160 5 -178 l5 -34
-70 -23 c-95 -31 -142 -52 -193 -86 -24 -16 -47 -29 -52 -29 -16 0 -98 -163
-132 -263 l-33 -99 -57 -29 c-154 -78 -302 -281 -400 -549 -35 -95 -35 -95
-27 -205 9 -123 45 -261 87 -339 32 -59 120 -157 166 -186 29 -17 34 -27 40
-74 11 -96 55 -242 90 -302 122 -209 357 -284 621 -200 152 48 311 167 350
261 19 44 19 118 1 153 -30 57 -123 123 -206 147 -28 8 -23 2 31 -38 21 -14
46 -46 58 -70 92 -191 -141 -437 -413 -437 -168 0 -311 93 -388 252 -43 87
-91 241 -77 246 5 2 24 -1 42 -8 17 -6 73 -14 123 -17 284 -18 556 158 589
380 11 73 -26 175 -88 243 -53 58 -141 108 -217 123 -37 7 -40 9 -15 10 49 3
130 35 177 71 38 29 47 44 63 97 23 82 16 154 -23 236 -71 149 -202 240 -369
255 l-73 7 35 100 c39 115 64 144 180 202 122 62 215 88 215 60 0 -19 66 -152
102 -205 86 -127 190 -223 340 -313 l81 -49 114 0 c236 0 405 67 508 200 17
22 36 29 125 44 58 10 119 24 136 31 30 12 31 12 71 -40 22 -28 64 -67 93 -86
l52 -33 -69 -13 c-88 -16 -143 -32 -143 -42 0 -4 27 -48 59 -98 72 -108 154
-186 221 -210 l49 -17 -36 -30 c-35 -29 -63 -79 -63 -114 0 -21 54 -43 170
-68 78 -17 333 -23 400 -10 l35 7 -36 -20 c-33 -18 -37 -25 -37 -58 0 -54 21
-87 69 -111 36 -18 40 -22 23 -28 -59 -21 -85 -36 -144 -80 -94 -71 -101 -73
-231 -67 -237 12 -436 -60 -602 -216 -147 -139 -217 -292 -217 -476 0 -130 37
-250 106 -342 28 -37 29 -43 10 -43 -7 0 -50 -18 -95 -41 -145 -72 -261 -208
-318 -371 -35 -97 -43 -262 -19 -358 26 -106 82 -206 158 -281 l66 -67 -37
-36 c-28 -27 -45 -36 -71 -36 -68 -1 -176 -30 -260 -71 -157 -78 -287 -240
-336 -419 -28 -102 -24 -254 9 -355 15 -44 33 -89 41 -100 23 -30 19 -43 -16
-61 -105 -53 -209 -169 -251 -281 -17 -47 -22 -80 -22 -168 0 -122 17 -181 74
-276 17 -27 31 -51 31 -53 0 -2 -23 -7 -52 -10 -66 -9 -183 -54 -247 -96 -69
-43 -163 -147 -194 -212 l-25 -53 -134 -1 c-160 -1 -233 -17 -368 -81 -163
-78 -294 -230 -329 -383 -24 -102 -7 -240 40 -332 17 -33 18 -42 7 -49 -21
-14 -24 -11 -37 34 -48 159 -185 303 -351 366 -57 22 -81 25 -190 25 -110 0
-133 -3 -192 -26 -104 -39 -174 -86 -252 -170 -115 -121 -174 -259 -182 -428
l-4 -85 -52 3 c-81 5 -248 -24 -335 -58 -225 -86 -379 -249 -391 -412 -4 -54
-7 -60 -36 -75 -52 -27 -143 -101 -192 -157 l-47 -53 -61 21 c-51 17 -86 20
-216 20 -142 0 -162 -2 -235 -27 -215 -72 -381 -236 -430 -422 -42 -162 11
-333 141 -454 55 -52 158 -113 227 -135 13 -4 17 -17 17 -63 1 -198 114 -410
266 -499 179 -105 380 -109 574 -12 47 24 87 44 90 46 3 1 20 -29 38 -68 124
-267 463 -355 787 -206 69 32 72 32 110 18 27 -10 77 -15 150 -15 94 0 122 4
190 27 44 15 101 41 128 57 26 16 51 29 55 29 4 0 20 -30 37 -67 53 -118 155
-209 285 -254 94 -32 265 -32 373 -1 77 22 197 77 250 114 l28 20 33 -26 c104
-79 256 -126 406 -126 278 0 537 155 653 391 l32 67 67 -34 c38 -19 96 -41
130 -49 78 -18 280 -19 363 -1 59 12 60 12 96 -15 175 -136 459 -166 730 -78
142 46 289 128 391 218 l46 41 74 -35 c102 -48 177 -65 288 -65 112 0 179 16
276 65 l72 37 68 -22 c47 -15 104 -24 179 -27 177 -8 286 27 439 141 83 62
102 82 149 157 63 99 80 166 81 316 1 73 1 133 2 133 0 0 24 -12 54 -26 127
-61 317 -82 445 -49 122 32 268 121 336 204 l24 30 75 -21 c104 -28 276 -28
383 1 136 36 266 117 353 221 69 83 140 269 144 376 0 5 32 20 70 33 235 75
411 306 427 561 6 97 -12 202 -51 298 l-24 60 47 18 c118 44 268 175 319 277
19 37 34 51 80 74 88 44 210 169 259 268 22 44 42 90 45 101 5 21 7 21 74 8
104 -20 312 -17 415 5 314 70 551 264 629 516 37 119 29 274 -19 388 l-17 39
87 86 c96 97 153 188 196 317 23 70 27 96 27 210 1 109 -3 142 -23 205 -86
276 -299 476 -598 562 -68 20 -101 23 -248 22 -124 0 -185 -4 -225 -16 -51
-15 -55 -14 -61 1 -37 96 -63 148 -94 195 l-37 57 -1 112 c0 67 9 181 23 282
19 135 24 214 24 383 l0 212 58 0 c221 0 368 123 432 361 l18 65 135 27 c75
14 138 28 140 30 2 3 -18 62 -44 132 -45 120 -49 126 -73 122 -14 -2 -115 -19
-225 -37 -110 -18 -213 -38 -230 -45 -46 -20 -548 -116 -655 -126 -176 -16
-179 -15 -267 43 -113 76 -264 231 -352 362 -142 214 -225 403 -400 916 -61
179 -129 370 -151 425 -23 55 -44 107 -47 115 -16 39 24 -19 121 -177 135
-222 179 -286 228 -334 65 -63 80 -56 113 54 15 50 29 93 31 95 1 2 17 -4 34
-13 56 -29 122 -45 238 -56 80 -9 116 -9 124 -1 7 7 4 28 -11 73 -11 34 -19
64 -17 66 2 2 16 -1 32 -8 51 -19 162 -13 259 16 50 14 94 30 99 35 5 5 -21
60 -58 127 -36 65 -66 121 -66 125 0 3 22 8 49 12 27 3 75 20 108 36 63 32
183 133 183 155 0 12 -28 23 -200 72 l-64 19 38 23 c42 26 76 74 76 107 0 17
-13 26 -62 44 -124 45 -122 40 -31 61 98 21 222 77 324 146 84 57 107 80 93
93 -5 4 -61 16 -124 25 -161 23 -158 21 -111 55 111 81 177 184 205 322 21
101 21 154 0 162 -9 3 -49 6 -91 6 -68 0 -74 2 -68 18 37 85 47 130 42 197 -6
76 -26 146 -42 152 -6 2 -43 -24 -82 -57 -40 -33 -73 -60 -75 -60 -2 0 -3 39
-3 88 0 80 -3 93 -37 165 -20 42 -43 77 -51 77 -7 0 -29 -12 -48 -26 -19 -14
-72 -48 -118 -76 l-85 -50 -17 24 c-10 12 -24 35 -30 51 -15 36 -41 35 -120
-5 -77 -40 -174 -134 -212 -206 l-28 -52 20 -55 c39 -105 25 -148 -61 -185
l-52 -22 -33 36 c-58 63 -46 133 46 276 46 71 47 62 -14 106 -33 24 -3 37 105
44 129 9 187 37 333 161 101 86 107 93 92 109 -21 23 -99 57 -164 71 -28 6
-51 14 -51 19 0 23 112 126 190 176 49 30 87 61 84 67 -2 7 -48 26 -102 42
-83 26 -112 30 -204 29 -60 0 -108 3 -108 6 0 14 57 91 123 165 54 62 65 80
56 91 -17 20 -148 17 -234 -6 -38 -10 -71 -17 -73 -15 -1 1 4 31 13 66 37 161
40 380 5 386 -8 2 -48 -9 -88 -22z m-4297 -1975 c627 -43 1279 -306 2063 -832
89 -60 162 -113 162 -117 0 -17 -71 -62 -105 -68 -58 -9 -87 5 -157 80 -77 82
-86 83 -126 6 -21 -38 -23 -54 -19 -122 5 -70 3 -78 -11 -72 -138 57 -249 79
-522 105 -224 22 -261 29 -311 63 -70 47 -57 149 41 320 57 99 57 117 6 141
-43 20 -58 20 -123 -3 -29 -10 -53 -15 -53 -11 0 3 16 53 35 110 48 144 47
157 -16 124 -18 -9 -78 -19 -145 -24 -123 -11 -173 -26 -217 -68 -49 -46 -72
-103 -103 -250 -5 -23 -7 -22 -53 21 -30 28 -65 50 -91 57 -71 19 -78 14 -109
-78 -33 -95 -38 -102 -47 -76 -44 128 -139 255 -220 294 -62 30 -131 24 -180
-16 -36 -29 -97 -119 -109 -163 -6 -18 1 -14 31 19 73 81 150 98 244 54 92
-42 177 -151 208 -266 l10 -38 -253 0 -253 0 -36 48 c-73 95 -166 147 -284
158 -57 5 -81 3 -119 -11 -67 -26 -145 -102 -177 -175 -29 -65 -29 -65 -131
-75 -58 -6 -218 -30 -261 -40 -19 -4 -22 1 -27 53 -15 142 30 344 100 450 43
64 102 105 278 191 283 139 511 194 910 219 11 1 88 -3 170 -8z m-662 -704
c31 -15 77 -46 103 -70 l47 -42 -223 -12 c-123 -7 -225 -10 -227 -8 -8 8 26
61 59 92 50 48 107 75 149 70 19 -2 61 -16 92 -30z m253 -293 c25 -87 16 -206
-22 -280 l-30 -58 -65 3 c-135 6 -267 68 -357 166 -47 51 -88 132 -94 181 l-3
30 120 5 c66 4 191 7 277 8 l157 2 17 -57z m489 20 c-7 -41 -47 -125 -77 -163
-18 -22 -27 -25 -92 -25 l-71 0 3 -48 c4 -46 3 -48 -31 -62 -32 -13 -177 -56
-177 -52 0 1 7 27 15 57 18 69 19 197 1 273 l-13 57 224 0 225 0 -7 -37z
m-1161 -38 c10 -86 42 -159 97 -220 86 -93 205 -145 375 -160 l78 -8 -25 -19
c-77 -63 -236 -116 -374 -125 -85 -5 -93 -3 -142 23 -123 67 -221 170 -288
304 -35 70 -82 206 -74 215 8 7 239 40 315 43 31 2 31 1 38 -53z m4774 -127
c23 -64 75 -239 117 -390 42 -150 90 -318 106 -372 16 -55 27 -101 25 -103 -2
-2 -44 33 -92 79 -49 46 -143 133 -209 192 -66 60 -126 115 -134 121 -11 11
-5 22 32 68 65 80 75 116 80 302 4 133 19 236 32 223 2 -2 21 -55 43 -120z
m-3526 30 l38 -81 -67 7 c-37 4 -69 8 -70 10 -2 2 8 27 22 57 14 30 25 62 25
72 0 34 16 15 52 -65z m-1942 -469 c115 -53 165 -134 165 -268 0 -80 -1 -84
-30 -108 -48 -39 -85 -55 -130 -55 -120 -2 -218 155 -232 370 l-6 95 89 -5
c67 -3 102 -10 144 -29z m-320 -77 c0 -117 43 -239 112 -317 37 -43 122 -94
158 -96 14 -1 -9 -5 -51 -10 -246 -26 -391 -194 -406 -471 -3 -54 -9 -98 -13
-98 -15 0 -100 135 -125 198 -35 86 -67 226 -67 292 -1 77 25 169 78 278 35
73 61 109 117 167 65 65 151 123 185 125 8 0 12 -20 12 -68z m5964 -622 c236
-206 261 -231 292 -290 18 -36 46 -88 63 -116 l29 -50 -261 87 c-144 48 -315
101 -381 118 -114 29 -121 33 -175 84 -31 30 -76 66 -100 81 l-44 28 22 21
c30 30 74 26 203 -17 109 -37 133 -42 142 -28 5 8 -34 149 -57 205 -8 19 -29
46 -47 58 l-31 24 27 22 c23 18 31 20 44 10 8 -7 131 -113 274 -237z m-5559
71 c50 -23 106 -78 136 -136 22 -41 22 -48 11 -92 -42 -160 -154 -280 -309
-332 -109 -36 -253 -22 -334 32 -32 21 -33 24 -30 86 5 127 56 245 145 339
113 119 257 158 381 103z m5647 -592 c157 -63 457 -205 493 -234 19 -15 15
-16 -65 -11 -47 3 -164 8 -261 12 l-177 6 -12 42 c-20 68 -69 155 -112 202
-22 24 -36 44 -30 44 6 0 79 -27 164 -61z m530 -394 l-84 -34 -46 29 -47 29
85 4 c197 7 186 11 92 -28z m1242 -13 c-31 -41 -113 -65 -191 -57 -58 6 -83
18 -69 32 7 7 270 61 275 56 3 -2 -4 -16 -15 -31z m-879 -94 c58 -29 105 -55
105 -59 0 -14 -282 -239 -300 -239 -4 0 -13 19 -20 43 -18 60 -56 134 -101
194 l-39 52 67 20 c116 34 137 39 160 40 13 1 70 -23 128 -51z m362 -199 c12
-24 27 -73 33 -109 10 -66 14 -330 5 -330 -3 0 -26 15 -52 34 -98 69 -194 103
-328 115 l-71 6 186 167 c102 92 189 166 195 164 5 -1 20 -22 32 -47z"/>
</g>
</svg>
