<?xml version="1.0" standalone="no"?>
<!DOCTYPE svg PUBLIC "-//W3C//DTD SVG 20010904//EN"
 "http://www.w3.org/TR/2001/REC-SVG-20010904/DTD/svg10.dtd">
<svg version="1.0" xmlns="http://www.w3.org/2000/svg"
 width="1280.000000pt" height="1127.000000pt" viewBox="0 0 1280.000000 1127.000000"
 preserveAspectRatio="xMidYMid meet">
<metadata>
Created by potrace 1.15, written by Peter Selinger 2001-2017
</metadata>
<g transform="translate(0.000000,1127.000000) scale(0.100000,-0.100000)"
fill="#000000" stroke="none">
<path d="M2650 11239 c-193 -158 -311 -283 -416 -440 -129 -193 -191 -368
-181 -515 l5 -82 -60 -58 -60 -59 5 45 c3 25 11 106 18 180 22 255 -5 820 -41
820 -22 0 -148 -292 -195 -454 -14 -50 -28 -92 -30 -95 -3 -2 -5 13 -6 35 0
62 -24 193 -37 206 -23 23 -184 -347 -246 -565 -57 -196 -71 -298 -71 -507 0
-212 9 -269 62 -376 29 -61 88 -120 128 -130 19 -5 24 -11 19 -23 -4 -9 -35
-88 -69 -177 -34 -88 -81 -192 -105 -232 -23 -40 -55 -109 -71 -154 -22 -64
-29 -76 -33 -57 -3 13 -17 76 -31 139 -70 314 -271 869 -358 985 -15 20 -16
19 -26 -7 -6 -15 -18 -96 -27 -180 -23 -209 -15 -543 15 -713 58 -316 186
-555 331 -615 16 -7 30 -16 30 -20 0 -4 -24 -104 -54 -221 -29 -118 -57 -234
-62 -259 l-9 -45 -28 78 c-97 272 -304 641 -469 837 -63 74 -172 170 -193 170
-8 0 -7 -35 2 -125 31 -308 94 -589 180 -810 107 -275 273 -491 416 -543 l47
-17 0 -213 0 -214 -35 -94 c-19 -52 -40 -127 -47 -168 l-11 -74 -83 149 c-183
328 -509 778 -541 746 -12 -12 15 -242 47 -399 35 -174 99 -374 164 -512 124
-265 308 -458 448 -468 l35 -3 7 -180 c3 -99 13 -227 20 -285 7 -58 13 -106
12 -107 -1 -1 -40 39 -86 90 -167 184 -397 377 -653 548 -189 127 -307 187
-307 158 0 -22 131 -283 192 -384 223 -365 496 -612 729 -661 52 -11 80 -12
115 -4 26 6 50 7 54 3 4 -4 17 -51 29 -103 35 -147 114 -398 181 -580 34 -91
64 -172 67 -181 2 -9 -51 38 -119 105 -204 201 -463 408 -735 587 -158 103
-312 184 -325 171 -12 -12 33 -117 126 -297 209 -404 458 -707 723 -881 182
-120 361 -162 465 -108 21 11 29 11 34 2 16 -25 151 -353 148 -357 -2 -2 -12
3 -21 11 -33 28 -157 95 -263 143 -206 92 -560 197 -805 239 -98 17 -195 21
-195 8 0 -14 229 -237 305 -298 149 -118 368 -248 493 -292 25 -9 37 -24 66
-87 56 -120 177 -330 261 -449 104 -149 184 -243 307 -362 167 -161 330 -258
485 -290 116 -24 190 -8 258 57 l31 29 178 -179 179 -179 -116 57 c-242 120
-615 223 -1022 281 -171 25 -478 39 -489 22 -3 -5 27 -39 66 -74 275 -243 589
-433 871 -527 124 -41 125 -45 22 -56 -189 -20 -527 -93 -553 -119 -17 -17 8
-31 201 -115 525 -228 1054 -272 1370 -114 105 52 197 149 197 208 0 8 2 15 4
15 2 0 32 -19 67 -43 35 -23 90 -54 121 -67 32 -14 58 -28 58 -31 0 -4 -17 -9
-39 -13 -64 -10 -218 -65 -352 -126 -314 -143 -806 -465 -1017 -666 l-77 -73
125 -1 c133 0 330 19 456 46 42 8 78 14 80 12 2 -2 -22 -23 -52 -47 -73 -57
-174 -151 -174 -162 0 -12 215 -11 325 1 399 46 707 148 961 318 208 140 346
335 331 470 -2 23 -3 42 -1 42 2 0 52 -21 111 -46 97 -41 331 -179 333 -196 0
-3 -19 -9 -42 -13 -141 -23 -434 -147 -673 -285 -292 -167 -747 -498 -786
-572 l-11 -21 153 6 c453 19 842 130 1133 324 214 142 336 307 336 452 l0 58
178 -34 c472 -90 848 -206 1135 -350 l89 -44 -39 -28 c-46 -34 -103 -97 -103
-115 0 -11 70 -66 84 -66 2 0 31 26 63 58 78 76 104 90 141 71 15 -8 53 -40
85 -71 32 -32 61 -58 63 -58 14 0 84 55 84 66 0 18 -57 81 -103 115 l-39 28
89 44 c287 144 663 260 1136 350 l177 34 0 -58 c0 -231 305 -498 740 -647 220
-76 457 -117 729 -129 153 -6 153 -6 142 14 -40 75 -488 402 -786 573 -238
137 -532 262 -672 285 -24 4 -43 10 -43 13 2 17 236 155 333 196 59 25 109 46
111 46 2 0 1 -19 -1 -42 -15 -135 123 -330 331 -470 254 -170 562 -272 961
-318 110 -12 325 -13 325 -1 0 11 -101 105 -174 162 -30 24 -54 45 -52 47 2 2
38 -4 80 -12 126 -27 323 -46 456 -46 l125 1 -76 72 c-211 202 -705 525 -1018
667 -134 61 -288 116 -352 126 -22 4 -39 9 -39 13 0 3 26 17 58 31 31 13 86
44 121 67 35 24 65 43 67 43 2 0 4 -7 4 -15 0 -59 92 -156 197 -208 324 -162
861 -112 1411 132 161 71 177 81 160 97 -26 26 -367 100 -553 119 -103 11
-102 15 22 56 282 94 596 284 871 527 39 35 69 69 66 74 -11 17 -318 3 -489
-22 -407 -58 -780 -161 -1022 -281 l-116 -57 179 179 178 179 31 -29 c68 -65
142 -81 258 -57 263 54 576 321 830 708 85 129 173 286 224 395 28 61 40 76
65 85 125 44 344 174 493 293 76 60 305 284 305 297 0 26 -230 -7 -468 -67
-316 -81 -691 -233 -795 -323 -9 -8 -19 -13 -21 -11 -3 4 132 332 148 357 5 9
13 9 34 -2 104 -54 283 -12 465 108 262 172 514 477 718 871 93 179 143 295
132 306 -14 14 -167 -66 -323 -169 -279 -182 -535 -387 -738 -588 -68 -67
-122 -115 -119 -105 3 9 33 90 66 181 67 179 145 429 181 580 13 52 26 99 30
103 4 4 28 3 54 -3 35 -8 63 -7 115 4 234 49 511 301 731 666 64 106 190 358
190 379 0 29 -118 -31 -307 -158 -256 -171 -502 -377 -659 -553 -43 -48 -79
-86 -80 -85 0 1 5 49 12 107 7 58 17 186 20 285 l7 180 35 3 c100 7 232 114
337 272 138 207 238 483 295 813 25 147 36 297 23 297 -16 0 -108 -103 -189
-211 -106 -140 -254 -369 -348 -538 l-83 -149 -11 74 c-7 41 -28 116 -47 168
l-35 94 0 214 0 213 48 17 c142 52 308 268 415 543 86 221 149 502 180 810 9
90 10 125 2 125 -21 0 -129 -95 -188 -165 -173 -206 -374 -562 -474 -843 l-28
-77 -9 45 c-5 25 -33 141 -62 259 -30 117 -54 217 -54 221 0 4 18 15 40 25
116 52 234 245 291 475 40 160 51 256 56 476 6 221 -13 487 -39 553 -9 26 -10
26 -25 6 -8 -11 -35 -62 -59 -113 -116 -243 -241 -609 -299 -875 -14 -61 -28
-123 -31 -136 -4 -19 -11 -8 -33 57 -16 44 -49 116 -74 159 -25 43 -72 148
-105 233 -33 85 -62 162 -66 171 -5 12 0 18 19 23 66 17 137 118 173 248 27
99 24 416 -6 563 -45 224 -112 423 -218 644 -49 102 -67 132 -76 123 -13 -13
-37 -144 -37 -206 -1 -22 -3 -37 -6 -35 -2 3 -16 45 -30 95 -47 162 -173 454
-195 454 -36 0 -63 -563 -41 -820 7 -74 15 -155 18 -180 l5 -45 -60 59 -60 58
5 82 c14 223 -139 518 -407 786 -83 84 -211 190 -228 190 -38 0 99 -396 234
-679 41 -85 74 -155 74 -157 0 -1 -24 11 -54 27 -118 64 -461 199 -506 199
-34 0 101 -193 306 -435 209 -247 428 -460 612 -593 92 -66 232 -142 262 -142
13 0 29 -26 58 -92 46 -105 122 -294 122 -304 0 -4 -34 26 -75 65 -172 163
-458 341 -712 444 -75 31 -77 26 -27 -69 129 -243 416 -630 643 -867 64 -67
105 -114 91 -106 -127 80 -326 167 -510 222 -122 37 -274 71 -291 65 -29 -10
233 -304 441 -497 160 -148 341 -294 465 -376 106 -70 266 -152 313 -161 21
-4 37 -15 43 -28 12 -28 38 -196 30 -196 -3 0 -19 19 -36 41 -79 107 -285 240
-502 323 -147 57 -456 124 -524 114 -22 -3 -18 -9 51 -82 128 -135 406 -362
562 -461 46 -29 48 -32 48 -76 0 -132 101 -516 196 -747 64 -155 145 -303 215
-392 23 -30 28 -47 31 -108 1 -40 1 -72 -2 -72 -3 0 -24 37 -48 83 -47 90
-136 218 -226 327 -113 136 -415 408 -424 382 -9 -28 100 -368 182 -566 147
-353 301 -625 435 -768 51 -55 58 -68 54 -93 -20 -121 -49 -260 -78 -375 -45
-176 -93 -323 -94 -288 -1 15 -13 84 -27 155 -58 290 -205 646 -378 918 -38
59 -39 59 -49 35 -15 -35 -14 -553 2 -720 40 -444 102 -742 197 -948 l34 -74
-26 -61 c-35 -84 -44 -91 -44 -33 0 139 -67 446 -145 659 -47 131 -146 357
-182 415 l-21 34 -12 -36 c-40 -121 -65 -796 -41 -1089 22 -256 58 -447 111
-587 l31 -79 -29 -58 c-17 -32 -47 -88 -68 -124 l-39 -67 -1 157 c-1 214 -38
417 -116 646 -66 196 -194 469 -208 444 -28 -51 -50 -337 -50 -650 0 -381 31
-656 96 -840 14 -41 27 -81 30 -89 2 -9 -28 -53 -71 -103 -41 -49 -75 -84 -75
-79 0 4 7 55 16 113 19 127 14 475 -10 609 -33 186 -58 291 -103 433 -23 75
-26 80 -40 62 -49 -68 -150 -545 -188 -885 -19 -173 -19 -479 0 -585 l14 -80
-66 -65 c-36 -36 -62 -56 -58 -45 49 138 70 509 41 745 -22 177 -58 353 -107
525 -48 166 -53 176 -67 148 -40 -75 -138 -492 -177 -753 -60 -405 -68 -742
-21 -943 l14 -59 -45 -31 c-50 -36 -234 -140 -238 -135 -2 2 14 55 35 118 75
224 101 410 100 720 0 260 -29 565 -54 557 -20 -7 -94 -159 -166 -339 -188
-472 -300 -921 -304 -1210 l-1 -128 -50 -21 c-47 -21 -321 -119 -331 -119 -2
0 22 39 55 88 172 256 306 625 370 1022 27 168 45 349 36 358 -11 12 -133
-124 -241 -268 -113 -151 -195 -271 -296 -435 -37 -60 -68 -107 -68 -105 0 3
5 32 10 65 35 210 53 621 28 613 -24 -7 -146 -182 -254 -361 -118 -197 -284
-518 -359 -697 -93 -221 -171 -490 -187 -645 -3 -28 -7 -30 -68 -42 -443 -86
-776 -189 -1078 -333 l-132 -63 -137 65 c-296 141 -688 262 -1061 328 -41 8
-75 18 -77 24 -1 6 -12 67 -24 136 -54 309 -251 770 -527 1230 -106 176 -228
351 -251 358 -27 8 -9 -397 27 -613 5 -33 10 -62 10 -65 0 -2 -31 45 -68 105
-101 164 -183 284 -296 435 -109 146 -230 280 -242 267 -15 -14 36 -387 77
-567 71 -310 192 -607 330 -812 33 -49 57 -88 55 -88 -10 0 -285 99 -335 120
l-53 23 6 51 c20 169 -59 578 -182 952 -97 291 -256 661 -288 671 -11 4 -22
-63 -45 -252 -6 -49 -10 -189 -10 -310 0 -305 27 -493 101 -715 21 -63 37
-116 35 -118 -4 -5 -188 99 -238 135 l-45 31 14 59 c60 257 32 710 -76 1246
-41 202 -100 415 -125 450 -12 18 -16 11 -43 -79 -97 -320 -131 -517 -139
-803 -6 -206 5 -345 37 -474 10 -39 17 -73 16 -74 -1 -1 -30 26 -64 60 l-61
62 14 80 c19 107 19 412 0 585 -38 340 -139 817 -188 885 -14 18 -17 13 -40
-62 -83 -260 -116 -456 -124 -718 -5 -184 0 -276 23 -410 l7 -39 -63 74 c-35
41 -70 82 -77 91 -12 15 -10 28 16 104 69 195 101 462 101 845 0 317 -22 609
-51 660 -10 18 -120 -205 -178 -362 -105 -282 -162 -593 -147 -803 l6 -90 -41
70 c-23 39 -54 96 -71 128 l-29 58 29 77 c94 244 128 557 119 1076 -6 322 -22
524 -47 602 l-12 36 -21 -34 c-36 -58 -135 -284 -182 -415 -78 -213 -145 -520
-145 -659 0 -58 -9 -51 -44 34 l-26 62 24 48 c132 260 218 794 220 1367 1 264
-5 352 -24 340 -14 -9 -132 -210 -185 -316 -60 -119 -124 -277 -168 -414 -34
-106 -86 -338 -88 -393 -2 -70 -123 371 -158 577 l-20 115 60 63 c173 186 380
588 538 1047 46 132 84 272 79 288 -9 26 -311 -246 -424 -382 -90 -109 -179
-237 -226 -327 -24 -46 -45 -83 -48 -83 -3 0 -4 33 -2 72 3 66 7 78 41 123
109 148 184 303 268 550 70 208 132 474 134 574 l0 46 112 77 c168 115 318
239 452 372 137 136 137 136 -10 116 -245 -33 -547 -139 -714 -252 -83 -56
-175 -136 -206 -177 -16 -22 -33 -41 -36 -41 -8 0 18 168 30 196 6 13 22 24
43 28 47 9 207 91 313 161 122 81 302 227 468 380 207 191 467 483 438 493
-17 6 -169 -28 -291 -65 -184 -55 -378 -140 -510 -222 -14 -8 22 34 80 94 119
124 224 249 345 410 154 207 325 476 340 537 l7 27 -63 -25 c-267 -108 -553
-288 -731 -461 -32 -30 -58 -53 -58 -50 0 11 70 186 115 290 32 73 52 107 64
107 24 0 133 54 203 101 228 153 532 451 789 774 120 150 213 295 190 295 -44
0 -354 -120 -486 -189 -38 -20 -73 -37 -76 -39 -4 -2 13 36 38 83 115 222 234
534 277 728 8 33 -8 35 -44 6z m-911 -1334 l32 -44 -20 -38 c-30 -60 -51 -142
-51 -202 -1 -40 -8 -69 -26 -101 -13 -25 -22 -36 -19 -25 14 54 36 233 42 338
3 64 7 117 8 117 1 0 16 -20 34 -45z m9386 -288 c9 -59 18 -115 21 -125 3 -9
-6 3 -20 28 -18 33 -25 60 -26 101 0 60 -21 142 -51 202 l-20 38 33 46 33 45
7 -113 c4 -63 14 -162 23 -222z m-9745 -1270 c0 -2 -11 -14 -25 -27 -19 -18
-25 -20 -25 -8 0 8 10 20 23 26 26 13 27 13 27 9z m10090 -34 c0 -18 -3 -17
-31 13 l-24 26 28 -13 c15 -7 27 -18 27 -26z m-10067 -986 c-66 -68 -153 -167
-193 -220 -40 -54 -75 -95 -78 -93 -2 3 -1 66 3 140 7 134 7 134 33 144 15 5
61 22 102 36 41 15 111 46 155 70 44 24 84 44 89 45 5 0 -45 -54 -111 -122z
m9982 72 c50 -26 119 -56 155 -69 133 -45 117 -23 125 -176 4 -75 5 -137 3
-140 -3 -2 -38 40 -79 93 -41 54 -128 154 -194 222 -66 68 -115 122 -110 120
6 -2 51 -25 100 -50z m-9976 -568 c-6 -18 -13 -30 -15 -28 -2 2 1 18 7 36 6
18 13 30 15 28 2 -2 -1 -18 -7 -36z m9995 -11 c5 -17 4 -20 -2 -10 -5 8 -13
26 -16 40 -5 17 -4 20 2 10 5 -8 13 -26 16 -40z m-10044 -114 c-51 -129 -178
-366 -197 -366 -2 0 4 15 15 33 68 109 175 325 197 395 4 13 9 21 11 19 3 -2
-9 -39 -26 -81z m10122 -69 c26 -59 66 -140 89 -180 52 -90 56 -98 30 -67 -29
35 -124 220 -160 313 -30 74 -42 119 -18 67 6 -14 32 -73 59 -133z m-9698
-3314 c44 -91 113 -209 188 -322 60 -89 65 -100 36 -77 -127 103 -299 234
-385 293 l-103 71 48 7 c58 8 135 40 158 66 9 10 20 19 23 19 4 0 19 -26 35
-57z m9290 38 c23 -26 100 -58 158 -66 l48 -7 -103 -71 c-86 -59 -259 -190
-385 -292 -26 -22 -16 -1 55 107 49 74 113 183 143 241 30 59 58 107 61 107 3
0 14 -9 23 -19z m-7951 -1609 c23 -16 88 -54 143 -85 56 -31 112 -65 125 -76
l24 -20 -55 14 c-80 21 -260 45 -338 45 l-66 0 46 46 c25 25 52 58 58 75 7 16
14 29 17 29 2 0 23 -13 46 -28z m6617 -1 c6 -17 33 -50 58 -75 l46 -46 -66 0
c-78 0 -258 -24 -338 -45 l-55 -14 24 20 c14 11 72 47 130 79 58 33 122 70
141 84 45 32 45 32 60 -3z m-5546 -580 c-2 -2 -44 -15 -93 -27 -49 -13 -122
-36 -162 -53 -41 -16 -75 -28 -76 -27 -2 1 6 26 17 54 11 29 20 76 20 106 l0
53 149 -51 c82 -28 148 -53 145 -55z m4729 -65 c10 -22 16 -40 15 -41 -2 -2
-37 10 -78 26 -41 16 -111 39 -155 50 -44 12 -87 23 -95 26 -8 3 53 28 135 57
l150 51 6 -65 c3 -36 13 -83 22 -104z"/>
</g>
</svg>
