<?xml version="1.0" standalone="no"?>
<!DOCTYPE svg PUBLIC "-//W3C//DTD SVG 20010904//EN"
 "http://www.w3.org/TR/2001/REC-SVG-20010904/DTD/svg10.dtd">
<svg version="1.0" xmlns="http://www.w3.org/2000/svg"
 width="640.000000pt" height="1280.000000pt" viewBox="0 0 640.000000 1280.000000"
 preserveAspectRatio="xMidYMid meet">
<metadata>
Created by potrace 1.15, written by Peter Selinger 2001-2017
</metadata>
<g transform="translate(0.000000,1280.000000) scale(0.100000,-0.100000)"
fill="#000000" stroke="none">
<path d="M4921 12538 c-34 -106 -167 -510 -296 -898 -304 -920 -602 -1824
-985 -2990 -127 -388 -285 -867 -350 -1065 -65 -198 -160 -486 -210 -640 -90
-277 -115 -348 -104 -294 4 19 -36 129 -145 402 -83 207 -151 383 -151 392 0
8 62 140 139 293 l138 277 -65 363 c-37 199 -69 362 -72 362 -4 0 -11 -159
-17 -352 l-10 -353 -88 -218 c-48 -120 -89 -216 -90 -215 -2 2 -64 156 -139
343 -75 187 -136 332 -136 323 0 -9 32 -131 71 -270 129 -459 310 -1103 315
-1121 4 -12 -24 2 -83 43 -48 34 -154 106 -235 161 -80 54 -149 102 -152 107
-3 5 -43 127 -89 270 -81 252 -106 317 -95 242 3 -19 19 -174 34 -344 l29
-310 64 -45 c35 -25 188 -136 340 -246 l276 -201 27 -94 c14 -52 27 -109 27
-125 1 -17 -32 -131 -73 -253 l-74 -222 384 0 c375 0 385 -1 379 -19 -3 -11
-28 -101 -55 -202 -27 -100 -51 -183 -53 -185 -3 -3 -179 -53 -597 -168 l-115
-32 -52 -84 c-72 -116 -75 -121 -58 -76 11 29 12 37 2 33 -7 -2 -123 -28 -257
-56 -135 -29 -252 -55 -260 -59 -8 -4 93 -9 226 -12 l241 -5 -204 -340 c-217
-363 -236 -395 -229 -395 3 0 89 111 192 248 103 136 256 337 340 448 l153
200 95 22 c52 12 99 22 104 22 5 0 1 -55 -10 -123 -10 -67 -17 -130 -16 -140
2 -11 36 40 86 126 45 79 88 151 95 161 15 21 217 69 217 52 -1 -22 -169 -620
-169 -603 -1 9 -4 17 -7 17 -3 0 -53 -26 -112 -58 -59 -33 -154 -83 -210 -113
l-104 -54 -54 -109 c-31 -59 -53 -111 -49 -114 3 -3 56 44 118 105 l112 111
133 37 c74 20 135 35 137 33 2 -3 -117 -445 -160 -595 -11 -37 -27 -64 -56
-90 -22 -20 -45 -38 -52 -39 -7 -2 -174 -75 -372 -164 -198 -89 -371 -166
-384 -171 -13 -5 -21 -12 -18 -15 4 -4 491 120 555 141 6 2 12 3 12 1 0 -2
-121 -119 -269 -260 l-268 -256 -210 -327 c-234 -366 -226 -353 -219 -353 3 0
133 152 289 338 157 185 301 352 320 370 l35 34 6 -29 c3 -15 8 -133 12 -260
4 -128 10 -233 13 -233 4 0 32 146 61 325 l54 326 201 178 c110 98 201 177
203 176 2 -1 -78 -299 -177 -661 -221 -811 -280 -1029 -432 -1594 -152 -563
-278 -1025 -286 -1048 -4 -12 -3 -14 5 -7 10 10 66 140 592 1375 128 300 245
574 260 610 15 36 132 310 260 610 128 300 323 759 435 1020 112 261 234 549
273 640 38 91 232 546 431 1012 198 467 361 850 361 853 0 3 -196 5 -435 5
-357 0 -435 2 -435 13 0 8 9 58 21 113 11 54 67 331 124 614 251 1245 307
1516 316 1525 9 9 351 116 356 111 1 -1 11 -94 23 -206 11 -113 22 -209 24
-215 6 -17 14 31 41 245 15 113 30 208 33 211 4 4 64 23 134 44 l126 38 77
215 c41 118 74 219 73 224 -2 4 -46 -69 -98 -163 -55 -99 -103 -175 -115 -180
-28 -11 -345 -83 -349 -78 -2 2 7 132 19 289 13 157 21 287 19 289 -5 5 -3 10
-102 -319 l-89 -294 -69 -18 c-38 -9 -70 -16 -71 -14 -2 1 80 416 183 922 171
847 240 1194 493 2449 50 248 93 456 96 463 2 6 1 12 -3 12 -4 0 -36 -87 -71
-192z"/>
<path d="M4833 11327 l-132 -132 -21 -113 c-12 -63 -20 -118 -18 -123 2 -5 72
104 156 243 84 138 151 252 149 254 -2 2 -62 -56 -134 -129z"/>
<path d="M4021 11214 c0 -6 -14 -108 -31 -225 -16 -118 -30 -224 -30 -237 0
-14 44 -75 122 -169 l122 -146 13 49 c7 27 13 56 13 64 0 8 -40 64 -89 125
l-89 109 -7 166 c-5 140 -20 300 -24 264z"/>
<path d="M3646 9829 c-3 -8 -53 -152 -111 -321 l-106 -307 80 -234 c44 -129
83 -246 87 -260 3 -15 9 -27 13 -27 3 0 17 29 29 64 l23 64 -56 217 -56 216
41 227 c23 125 48 258 56 296 8 38 12 71 9 74 -2 3 -7 -1 -9 -9z"/>
<path d="M3350 9668 c5 -18 25 -105 46 -192 l37 -160 33 65 c18 35 33 70 34
78 0 16 -140 241 -151 241 -4 0 -4 -15 1 -32z"/>
<path d="M4627 7972 c-57 -301 -121 -627 -123 -630 -2 -3 -206 -82 -211 -82
-2 0 -2 3 -1 8 4 17 -15 424 -22 454 -6 30 -8 27 -19 -37 -7 -38 -27 -153 -45
-255 -18 -102 -32 -186 -31 -188 2 -2 24 2 49 9 97 24 50 0 -137 -70 -107 -40
-199 -76 -206 -81 -13 -8 -30 -74 -31 -121 l0 -27 103 38 c56 20 219 78 363
129 143 51 266 96 272 100 13 8 22 100 52 531 11 157 22 304 25 328 2 23 1 42
-3 42 -4 0 -20 -66 -35 -148z"/>
<path d="M3826 4541 l-47 -79 161 -322 161 -322 -40 -117 c-35 -103 -189 -579
-254 -783 -14 -43 -22 -78 -18 -78 3 0 48 76 99 168 51 92 144 259 206 371 64
114 112 210 110 220 -3 9 42 -76 100 -189 58 -113 105 -211 105 -218 1 -7
-109 -219 -244 -472 -135 -252 -245 -464 -245 -471 0 -14 269 359 426 592 136
202 187 293 186 328 -1 34 -79 218 -250 591 -125 274 -399 850 -407 858 -1 2
-24 -33 -49 -77z"/>
<path d="M4075 4233 c3 -10 23 -44 43 -75 29 -45 43 -58 62 -58 14 0 69 -5
122 -10 l98 -9 117 -75 c65 -41 119 -73 122 -71 2 3 -36 74 -85 160 l-88 155
-199 0 c-186 0 -199 -1 -192 -17z"/>
</g>
</svg>
