<?xml version="1.0" standalone="no"?>
<!DOCTYPE svg PUBLIC "-//W3C//DTD SVG 20010904//EN"
 "http://www.w3.org/TR/2001/REC-SVG-20010904/DTD/svg10.dtd">
<svg version="1.0" xmlns="http://www.w3.org/2000/svg"
 width="1280.000000pt" height="1280.000000pt" viewBox="0 0 1280.000000 1280.000000"
 preserveAspectRatio="xMidYMid meet">
<metadata>
Created by potrace 1.15, written by Peter Selinger 2001-2017
</metadata>
<g transform="translate(0.000000,1280.000000) scale(0.100000,-0.100000)"
fill="#000000" stroke="none">
<path d="M9553 9750 c-38 -17 -68 -19 -285 -19 -515 -2 -569 -4 -613 -27 -22
-12 -72 -37 -112 -57 -39 -20 -74 -41 -78 -47 -4 -6 -27 -21 -53 -34 -26 -13
-57 -38 -70 -55 -12 -17 -29 -31 -36 -31 -7 0 -47 -35 -88 -79 -59 -60 -79
-90 -93 -132 -9 -30 -28 -76 -41 -103 -13 -28 -24 -55 -24 -62 0 -13 -67 -144
-81 -158 -5 -6 -9 -17 -9 -25 0 -8 -6 -22 -14 -30 -22 -25 -84 -193 -101 -271
-4 -19 -16 -45 -26 -58 -20 -26 -69 -169 -69 -202 0 -11 -9 -33 -21 -49 -11
-15 -24 -52 -28 -82 -4 -30 -10 -60 -15 -67 -15 -25 -49 -11 -106 46 -67 67
-92 110 -99 172 -5 37 -11 48 -36 60 -16 8 -41 23 -55 33 -14 10 -43 17 -69
17 -41 0 -49 4 -81 41 -25 29 -47 43 -78 50 -29 6 -53 20 -70 40 -21 26 -104
74 -122 72 -3 -1 -21 -4 -42 -8 -34 -7 -39 -4 -96 53 -72 72 -89 82 -139 82
-26 1 -51 10 -78 30 -22 16 -50 36 -61 45 -12 9 -46 20 -75 25 -30 4 -85 25
-123 45 -63 34 -73 36 -122 30 -48 -6 -56 -4 -93 23 -36 26 -49 30 -143 34
-61 3 -119 12 -142 22 -21 9 -59 16 -85 16 -26 0 -73 7 -106 15 -44 12 -66 13
-88 5 -17 -5 -78 -10 -136 -10 -72 0 -111 -4 -119 -12 -7 -7 -51 -16 -100 -19
-75 -5 -158 -22 -337 -70 -41 -11 -90 -34 -230 -108 -60 -32 -105 -67 -178
-139 -53 -53 -97 -100 -97 -105 0 -5 -16 -32 -35 -61 -21 -31 -37 -71 -41 -97
-5 -39 -3 -49 20 -77 24 -27 27 -39 24 -88 l-3 -57 -77 -30 c-63 -25 -78 -35
-78 -51 1 -42 60 -81 106 -70 20 5 33 -1 62 -29 42 -39 87 -64 182 -97 64 -21
71 -22 195 -10 243 22 347 15 444 -32 51 -24 72 -38 177 -115 40 -29 109 -68
155 -88 46 -19 120 -53 164 -74 44 -22 98 -44 120 -50 61 -16 128 -92 155
-176 7 -22 30 -60 52 -84 21 -24 41 -56 45 -70 7 -28 30 -64 80 -125 18 -22
33 -44 33 -49 0 -6 21 -33 48 -62 26 -28 59 -65 74 -81 15 -16 36 -38 48 -49
45 -43 59 -62 80 -108 11 -27 20 -61 18 -75 -3 -27 -3 -27 -74 -24 -40 2 -81
-1 -92 -7 -12 -6 -56 -14 -99 -17 -43 -4 -87 -12 -98 -17 -11 -6 -61 -12 -110
-13 -54 -2 -108 -9 -135 -19 -25 -9 -60 -20 -78 -25 -18 -4 -38 -12 -45 -18
-7 -5 -50 -17 -97 -26 -47 -9 -89 -21 -94 -26 -6 -6 -22 -10 -36 -10 -14 0
-64 -11 -111 -24 -79 -21 -144 -54 -279 -139 -30 -19 -71 -43 -90 -52 -19 -10
-49 -28 -66 -41 -30 -22 -36 -23 -95 -13 -35 6 -84 16 -109 24 -25 7 -69 16
-99 20 -30 3 -72 15 -94 27 -28 14 -73 23 -144 29 -57 4 -108 11 -114 15 -6 3
-41 10 -78 15 -125 16 -216 35 -248 52 -18 9 -41 17 -51 17 -11 0 -30 8 -43
18 -21 18 -22 21 -10 81 22 111 25 229 7 288 -9 29 -24 78 -33 109 -12 41 -23
58 -41 65 -51 20 -77 10 -171 -61 -51 -38 -101 -70 -111 -70 -22 0 -97 95
-135 170 -14 29 -46 83 -71 121 -42 65 -65 97 -182 243 -87 109 -304 278 -434
339 -66 30 -189 63 -210 54 -12 -4 -18 -27 -23 -85 -6 -69 -3 -94 20 -183 31
-122 101 -264 194 -397 36 -52 73 -105 82 -118 9 -14 47 -55 84 -92 116 -116
107 -138 -29 -73 -47 22 -98 43 -113 47 -15 4 -50 17 -78 29 -27 12 -99 43
-160 69 -204 89 -270 118 -312 137 -24 10 -48 19 -55 19 -7 0 -69 20 -138 44
-69 25 -170 60 -225 80 -55 19 -177 51 -271 70 -160 34 -182 36 -355 36 -201
0 -329 -16 -377 -46 -92 -57 -142 -97 -142 -112 1 -16 20 -33 129 -110 25 -18
65 -49 89 -70 24 -20 89 -62 146 -92 56 -30 125 -70 154 -88 28 -19 71 -36 94
-40 27 -3 72 -24 127 -60 150 -97 205 -128 256 -147 28 -10 68 -26 91 -36 22
-11 44 -19 48 -19 5 0 61 -25 125 -56 64 -31 137 -59 164 -63 26 -5 55 -15 65
-25 10 -9 23 -16 29 -16 5 0 36 -11 69 -24 32 -13 80 -27 107 -30 26 -4 73
-19 105 -33 31 -14 91 -32 132 -39 41 -8 95 -18 120 -24 25 -5 135 -9 245 -10
159 0 204 -4 219 -15 24 -18 25 -17 -54 -54 -53 -24 -85 -31 -165 -37 -64 -4
-115 -2 -141 5 -29 8 -62 8 -110 2 -78 -11 -93 -25 -120 -106 -20 -63 -95
-245 -142 -348 -38 -83 -84 -133 -130 -142 -42 -9 -130 -55 -174 -92 -22 -18
-45 -33 -52 -33 -7 0 -23 -11 -36 -25 -23 -24 -127 -100 -195 -140 -233 -141
-415 -326 -624 -634 -48 -70 -142 -253 -161 -313 -6 -21 -27 -56 -46 -79 -37
-45 -40 -55 -23 -93 10 -21 8 -29 -9 -51 -17 -21 -19 -31 -11 -47 16 -29 31
-31 124 -18 76 11 88 10 104 -4 10 -9 31 -16 47 -16 31 0 108 31 118 48 3 6
21 13 39 17 81 16 233 73 352 130 224 109 330 154 366 155 16 0 111 59 117 72
2 4 20 17 40 29 20 13 53 35 72 49 32 25 69 46 238 138 34 18 67 42 73 53 5
11 34 36 62 55 29 19 88 64 132 99 135 110 151 117 300 142 57 10 200 86 325
172 69 48 157 104 195 126 137 76 175 108 221 191 19 33 34 71 34 83 0 24 55
53 122 64 39 6 52 12 139 64 60 36 104 41 149 18 33 -17 33 -12 -13 -115 -22
-49 -28 -159 -12 -240 11 -60 62 -140 141 -220 l64 -65 10 -79 c11 -88 26
-112 72 -118 37 -6 85 10 187 62 43 22 83 40 88 40 6 0 30 9 54 19 24 11 76
26 114 35 178 38 290 67 299 76 5 5 26 10 46 10 19 0 45 7 57 15 24 17 80 29
498 111 44 9 90 22 102 30 12 8 30 14 40 14 10 0 43 9 73 21 30 11 73 25 95
29 22 5 60 18 85 29 33 14 69 20 135 21 165 3 204 -2 264 -31 22 -10 49 -19
59 -19 26 0 52 -31 52 -63 0 -32 25 -47 79 -47 48 0 58 -13 36 -46 -9 -13 -17
-41 -19 -61 -2 -30 -12 -45 -49 -78 -39 -34 -47 -47 -47 -77 0 -21 -9 -46 -21
-62 -14 -18 -20 -38 -18 -64 1 -20 -2 -46 -9 -58 -6 -11 -13 -69 -16 -129 -4
-60 -11 -114 -18 -122 -7 -9 -14 -73 -18 -166 -5 -111 -11 -162 -24 -190 -14
-31 -16 -58 -12 -138 3 -54 7 -103 10 -107 2 -4 7 -73 10 -152 8 -199 14 -239
40 -264 24 -23 48 -96 66 -196 6 -36 22 -87 35 -113 14 -27 25 -57 25 -67 0
-11 5 -22 10 -25 6 -3 10 -21 10 -40 0 -19 5 -37 10 -40 6 -3 10 -18 10 -33 0
-15 14 -48 30 -74 27 -43 43 -60 130 -139 39 -35 47 -72 26 -115 -22 -48 -20
-87 7 -121 52 -63 78 -122 82 -186 16 -221 34 -332 63 -381 10 -17 26 -52 36
-79 10 -26 26 -52 37 -57 10 -6 26 -25 35 -43 21 -41 64 -87 81 -87 7 0 18
-10 24 -22 20 -40 142 -140 214 -175 l70 -33 135 3 c77 2 144 8 157 15 18 10
22 24 27 79 7 83 45 203 85 273 5 8 14 38 20 65 7 28 21 59 31 70 28 30 50
100 50 157 0 49 2 53 63 112 60 60 165 189 294 362 35 46 67 84 72 84 5 0 13
9 16 21 12 37 98 157 121 168 12 5 25 22 28 37 4 15 16 39 27 52 12 16 19 40
19 67 0 24 7 56 15 71 8 16 15 42 15 58 0 15 14 57 30 92 19 39 35 93 41 141
22 163 29 221 37 303 5 47 15 100 22 118 12 33 11 67 -8 182 -6 36 -14 48 -42
67 -92 58 -107 72 -112 98 -10 48 9 149 37 209 27 58 28 62 9 169 -3 20 -10
40 -15 43 -5 3 -9 24 -9 47 -1 51 -36 123 -74 151 -22 17 -42 21 -99 21 -50 0
-80 5 -97 16 -14 9 -34 21 -45 27 -18 10 -17 12 20 27 22 10 59 26 82 36 83
37 106 30 244 -77 68 -53 149 -114 179 -136 30 -21 92 -67 137 -101 228 -174
275 -207 357 -257 115 -68 472 -243 550 -270 110 -37 86 10 -34 70 -36 17 -76
38 -90 46 -14 8 -41 22 -60 29 -19 8 -55 25 -80 38 -25 13 -103 54 -175 92
-71 37 -141 78 -155 90 -14 13 -51 39 -82 59 -31 20 -63 44 -70 55 -7 10 -27
27 -44 37 -18 11 -74 55 -125 99 -52 44 -136 113 -186 154 -51 40 -93 78 -93
82 0 24 247 1 280 -26 8 -7 33 -18 55 -25 22 -7 74 -25 115 -40 41 -15 100
-35 130 -45 30 -9 69 -23 85 -30 17 -8 59 -23 95 -33 110 -34 472 -209 530
-256 8 -7 36 -22 61 -34 25 -11 65 -42 89 -69 23 -26 61 -57 83 -68 30 -14 55
-39 87 -86 25 -36 71 -99 102 -140 31 -41 61 -86 67 -100 5 -15 39 -71 74
-126 64 -98 71 -111 68 -145 -2 -28 -71 -23 -131 8 -55 29 -89 64 -109 113
-15 34 -31 38 -92 19 -66 -19 -75 -37 -61 -119 26 -152 152 -289 265 -289 70
0 100 17 160 90 36 44 82 86 120 110 34 22 85 56 114 77 77 56 152 178 177
288 8 33 24 94 36 135 72 250 77 326 23 383 -17 17 -43 64 -58 102 -15 39 -40
96 -56 129 -16 32 -29 71 -29 87 0 16 -7 48 -16 71 -21 53 -113 178 -158 212
-18 13 -77 75 -131 136 -55 61 -109 113 -122 116 -13 4 -29 14 -36 23 -22 30
-259 201 -278 201 -22 0 -45 11 -144 68 -27 16 -65 34 -83 40 -18 6 -47 22
-65 34 -39 28 -118 58 -172 67 -44 7 -105 39 -105 56 0 21 75 82 109 89 40 7
85 41 159 121 31 33 95 99 142 146 81 81 89 86 154 103 38 9 97 20 131 23 56
5 64 3 90 -21 31 -29 70 -33 101 -11 21 14 62 56 224 229 119 126 178 179 235
211 28 16 77 47 110 70 86 59 197 123 295 171 132 64 331 150 375 163 51 15
168 33 220 35 39 1 40 0 70 -60 39 -80 47 -88 95 -104 39 -13 41 -12 71 16 51
49 77 104 83 177 6 67 -8 120 -38 139 -6 4 -46 8 -89 8 -75 0 -78 1 -89 28
-11 25 -71 94 -143 165 -16 17 -49 39 -73 49 -24 11 -45 25 -48 32 -9 23 -99
75 -157 90 -31 8 -69 24 -85 36 -30 22 -121 39 -213 40 -32 0 -65 10 -110 33
-36 19 -95 40 -132 47 -37 8 -74 21 -81 29 -57 64 -77 81 -94 81 -11 0 -34 12
-51 26 -37 31 -144 84 -169 84 -10 0 -27 7 -38 15 -12 9 -43 14 -87 15 -47 0
-78 6 -98 17 -25 15 -33 16 -66 3 -21 -7 -51 -15 -67 -17 -33 -3 -53 -17 -61
-42 -12 -38 -121 -57 -155 -26 -17 15 -108 38 -145 37 -72 -3 -133 -17 -157
-38 -31 -25 -152 -42 -210 -29 -18 4 -68 9 -110 12 -72 4 -82 2 -139 -27 -34
-17 -87 -47 -118 -67 -31 -20 -81 -49 -111 -65 -39 -20 -79 -55 -135 -118 -79
-90 -114 -113 -101 -67 4 12 11 43 16 70 5 26 14 56 20 67 5 10 10 28 10 39 0
11 10 36 22 57 17 29 19 40 10 55 -7 10 -12 31 -12 46 0 40 39 145 65 173 36
40 42 59 49 165 4 55 11 116 17 136 5 21 11 126 12 235 3 219 8 237 62 259 83
35 130 105 170 254 36 133 45 198 45 314 0 159 -19 182 -117 137z m-5192
-3566 c8 -7 28 -15 46 -18 17 -4 37 -14 44 -23 33 -39 -97 -89 -166 -64 -45
16 -73 14 -109 -8 -17 -10 -76 -33 -131 -50 -55 -17 -127 -40 -160 -51 -33
-11 -76 -20 -96 -20 -31 0 -40 6 -64 40 -15 22 -36 42 -46 45 -24 8 -24 28 -1
76 21 47 42 55 172 64 52 4 133 11 180 15 123 11 314 7 331 -6z m3651 -975
c18 -10 177 -132 263 -203 74 -60 -22 -30 -120 38 -33 23 -89 59 -125 80 -69
41 -110 74 -110 88 0 12 68 10 92 -3z"/>
</g>
</svg>
