<?xml version="1.0" standalone="no"?>
<!DOCTYPE svg PUBLIC "-//W3C//DTD SVG 20010904//EN"
 "http://www.w3.org/TR/2001/REC-SVG-20010904/DTD/svg10.dtd">
<svg version="1.0" xmlns="http://www.w3.org/2000/svg"
 width="950.000000pt" height="1280.000000pt" viewBox="0 0 950.000000 1280.000000"
 preserveAspectRatio="xMidYMid meet">
<metadata>
Created by potrace 1.15, written by Peter Selinger 2001-2017
</metadata>
<g transform="translate(0.000000,1280.000000) scale(0.100000,-0.100000)"
fill="#000000" stroke="none">
<path d="M5442 12774 c-28 -14 -65 -41 -81 -60 l-30 -34 -112 0 -112 0 -38 34
c-83 76 -204 73 -283 -6 -39 -39 -40 -39 -150 -49 -100 -10 -112 -9 -121 6
-23 40 -49 66 -76 80 -137 71 -336 5 -356 -118 -5 -33 -6 -34 -82 -46 -42 -7
-133 -24 -203 -38 l-127 -25 -52 26 c-41 20 -68 26 -120 26 -112 0 -189 -38
-238 -117 l-29 -45 -188 -63 c-104 -34 -245 -83 -312 -109 l-124 -48 -48 21
c-63 27 -168 28 -225 2 -74 -33 -144 -130 -145 -201 0 -9 -48 -40 -114 -75
l-113 -61 -39 18 c-49 22 -166 24 -225 3 -89 -32 -135 -107 -125 -203 l7 -57
-53 -35 c-28 -19 -96 -68 -150 -108 l-99 -74 -117 -1 c-97 -2 -125 -6 -164
-24 -66 -30 -143 -105 -175 -172 -25 -50 -28 -66 -28 -161 0 -89 4 -111 23
-147 12 -23 22 -46 22 -52 0 -5 -33 -64 -74 -130 -83 -135 -218 -371 -320
-561 l-68 -125 -43 -2 c-24 -1 -63 -10 -87 -21 -96 -42 -152 -117 -167 -224
-11 -82 1 -143 36 -180 l26 -27 -55 -128 c-30 -70 -63 -159 -73 -197 -17 -62
-17 -77 -6 -160 7 -50 17 -134 21 -186 10 -114 21 -154 66 -241 154 -295 592
-554 1258 -745 519 -148 1166 -255 1872 -309 110 -8 203 -15 207 -15 12 0 -67
-144 -120 -218 -179 -251 -425 -402 -774 -477 -101 -21 -124 -44 -124 -124 1
-41 8 -71 26 -107 116 -224 123 -234 195 -284 71 -49 82 -48 175 14 l84 56 21
-28 c141 -179 218 -262 294 -320 109 -82 267 -160 436 -213 l133 -43 5 -40 c3
-23 8 -93 11 -156 15 -294 105 -953 190 -1400 115 -604 97 -1013 -66 -1481
l-30 -85 -72 -15 -72 -14 -6 -43 c-5 -42 -5 -42 62 -98 l67 -56 -15 -36 c-30
-71 -62 -261 -79 -457 -6 -71 -8 -77 -17 -50 -13 40 -11 39 -44 22 -74 -39
-97 -96 -91 -225 6 -105 34 -194 84 -259 23 -30 24 -37 14 -68 l-12 -35 -46
38 c-68 56 -136 100 -190 124 -49 22 -142 49 -142 42 0 -10 65 -133 98 -184
19 -30 79 -119 133 -196 55 -78 99 -144 99 -147 0 -3 -16 1 -35 9 -31 13 -35
12 -35 0 0 -33 44 -128 105 -231 36 -59 64 -109 62 -111 -2 -2 -97 24 -197 55
-14 5 -50 20 -80 35 l-55 27 45 -40 45 -40 -135 67 c-74 38 -169 79 -210 92
-79 26 -181 33 -200 14 -9 -9 37 -68 172 -224 157 -182 189 -215 228 -230 25
-10 68 -28 95 -40 47 -22 49 -23 25 -30 -21 -7 -18 -8 17 -9 23 -1 66 -12 95
-25 48 -21 56 -29 81 -83 71 -150 200 -221 414 -226 l98 -2 0 143 c0 78 0 142
0 142 0 -3 560 -70 581 -70 40 0 44 -13 44 -152 0 -60 3 -108 7 -108 3 0 32
25 64 55 l58 55 118 0 c65 0 129 3 141 7 23 5 24 9 17 59 l-6 54 104 0 c115 0
292 15 347 30 22 6 36 6 40 -1 5 -7 91 -5 266 5 229 13 269 18 344 42 122 38
215 88 280 150 l57 54 144 0 144 0 17 125 c10 68 41 213 69 322 98 381 135
550 123 562 -10 11 -134 -23 -202 -54 -65 -31 -146 -84 -163 -109 -7 -9 -10 6
-30 158 l-12 90 39 30 c66 52 106 99 132 155 47 102 13 207 -104 323 l-64 63
-70 5 -71 5 -33 80 c-18 44 -50 113 -71 154 l-38 73 18 70 c10 38 16 70 14 72
-2 2 -41 29 -87 60 -60 42 -83 65 -87 84 -9 43 -38 145 -89 307 -26 83 -91
317 -143 520 l-96 370 -5 155 c-2 85 4 310 13 500 11 212 18 517 19 792 l1
448 52 -7 c40 -4 70 0 125 18 66 21 80 31 146 98 65 65 212 269 212 292 0 5
11 11 25 15 21 5 32 -2 70 -44 55 -61 115 -92 178 -92 49 0 115 21 159 52 14
10 39 18 56 18 34 0 94 40 170 114 64 61 92 111 92 165 0 92 -46 148 -209 255
-220 145 -382 289 -514 458 -180 231 -264 418 -194 432 12 3 101 12 197 21
993 93 1799 295 2275 569 359 207 555 443 617 746 27 127 20 214 -25 346 -19
55 -40 110 -46 123 -11 19 -10 26 4 41 9 10 19 36 22 57 4 32 0 45 -22 71 -16
19 -40 34 -61 38 -34 6 -38 12 -114 164 -77 154 -79 158 -60 175 30 27 70 115
70 154 0 102 -114 210 -263 251 l-61 17 -97 174 c-82 148 -97 181 -98 221 -1
85 -54 170 -122 198 -20 8 -47 42 -86 104 -32 50 -72 112 -90 137 -33 46 -33
46 -13 64 24 22 27 83 6 124 -43 83 -191 156 -245 122 -10 -7 -39 12 -105 71
-50 44 -124 106 -163 136 -48 37 -73 63 -73 77 0 79 -66 167 -157 211 -49 22
-66 25 -146 23 l-92 -2 -180 89 c-99 50 -200 102 -225 116 -25 14 -63 31 -85
37 -22 6 -120 37 -217 69 l-177 57 -1 49 c0 53 -22 96 -66 129 -38 28 -141 50
-215 45 -66 -5 -164 -41 -201 -75 -15 -14 -26 -14 -75 -4 -32 6 -98 18 -148
26 -63 10 -93 20 -100 32 -5 9 -28 37 -50 61 -75 84 -168 104 -263 56z m248
-12224 c0 -5 -21 -9 -47 -8 l-48 1 45 7 c25 4 46 8 48 8 1 1 2 -2 2 -8z m404
-122 c18 -86 23 -119 16 -112 -15 16 -59 122 -53 128 14 13 33 5 37 -16z
m-508 -113 c-12 -50 -21 -57 -30 -21 -3 13 -9 31 -12 39 -3 10 1 17 13 20 39
10 40 9 29 -38z"/>
</g>
</svg>
