<?xml version="1.0" standalone="no"?>
<!DOCTYPE svg PUBLIC "-//W3C//DTD SVG 20010904//EN"
 "http://www.w3.org/TR/2001/REC-SVG-20010904/DTD/svg10.dtd">
<svg version="1.0" xmlns="http://www.w3.org/2000/svg"
 width="1280.000000pt" height="812.000000pt" viewBox="0 0 1280.000000 812.000000"
 preserveAspectRatio="xMidYMid meet">
<metadata>
Created by potrace 1.15, written by Peter Selinger 2001-2017
</metadata>
<g transform="translate(0.000000,812.000000) scale(0.100000,-0.100000)"
fill="#000000" stroke="none">
<path d="M10643 8100 c-30 -13 -61 -43 -110 -105 -37 -48 -67 -92 -65 -98 2
-6 43 -83 92 -172 49 -88 92 -168 96 -178 5 -15 -3 -17 -78 -17 -86 0 -184
-18 -391 -71 -339 -87 -500 -171 -827 -434 -178 -143 -230 -200 -353 -385 -77
-117 -118 -193 -154 -290 -38 -98 -67 -237 -65 -308 7 -238 156 -462 308 -462
22 0 46 6 53 13 10 10 11 7 7 -13 -33 -138 -44 -381 -27 -545 39 -355 150
-763 323 -1184 72 -174 214 -344 378 -453 47 -31 198 -113 336 -182 329 -164
362 -189 622 -467 42 -46 64 -63 70 -55 5 6 27 45 48 86 54 104 101 147 215
194 433 179 836 465 1029 730 67 92 87 138 163 371 205 627 280 1249 187 1555
l-19 61 26 -17 c26 -16 27 -16 55 17 100 119 171 244 209 369 33 104 33 273 1
376 -117 377 -533 711 -1147 921 -204 69 -511 137 -717 158 -38 4 -68 8 -68
10 0 3 29 116 65 252 35 136 63 248 62 248 -82 53 -194 95 -251 95 -17 0 -50
-9 -73 -20z"/>
<path d="M1865 7892 c-38 -18 -71 -52 -152 -158 l-32 -41 90 -163 c49 -90 89
-166 89 -169 0 -3 -37 -7 -83 -8 -94 -2 -379 -64 -547 -120 -248 -82 -454
-210 -759 -473 -175 -150 -385 -489 -432 -697 -11 -48 -24 -102 -30 -119 -5
-17 -9 -44 -9 -60 0 -62 39 -215 71 -279 74 -149 214 -240 288 -188 24 16 24
16 17 -8 -33 -120 -46 -394 -26 -574 35 -312 133 -676 290 -1080 137 -352 278
-488 740 -713 320 -157 384 -202 566 -404 63 -71 119 -128 123 -128 5 0 28 37
51 81 72 139 77 143 336 258 422 186 822 502 968 763 61 110 189 519 246 784
94 448 114 852 50 1056 -19 62 -17 68 11 42 17 -15 20 -14 46 16 102 120 187
271 219 390 28 104 24 263 -9 370 -147 471 -793 881 -1627 1034 -74 13 -170
27 -212 31 -48 5 -78 12 -78 19 0 6 27 110 59 231 34 128 55 225 50 231 -5 6
-44 27 -88 48 -99 46 -169 55 -226 28z"/>
<path d="M6280 5429 c-14 -5 -36 -20 -49 -32 -22 -21 -120 -139 -134 -163 -4
-7 38 -93 93 -193 55 -100 100 -184 100 -186 0 -3 -38 -5 -85 -5 -117 0 -430
-69 -618 -136 -208 -75 -438 -224 -720 -467 -162 -139 -370 -480 -418 -683
-12 -49 -25 -103 -30 -120 -32 -108 36 -342 127 -444 57 -63 119 -100 169
-100 23 0 46 5 53 12 20 20 21 5 5 -57 -24 -97 -29 -414 -8 -571 42 -320 133
-648 287 -1041 72 -185 131 -279 247 -393 114 -114 202 -170 471 -302 338
-166 413 -220 607 -441 111 -125 96 -126 165 6 50 96 96 137 202 179 219 88
515 256 693 394 174 135 325 297 397 427 42 76 154 412 206 621 97 384 148
819 121 1036 -11 86 -31 183 -48 226 -5 15 -3 15 21 -1 31 -21 19 -30 114 95
193 255 229 538 101 793 -238 472 -981 861 -1816 952 -35 4 -63 11 -63 17 0 5
27 112 60 238 33 126 60 236 60 245 0 10 -29 30 -84 56 -90 44 -179 58 -226
38z"/>
</g>
</svg>
