<?xml version="1.0" standalone="no"?>
<!DOCTYPE svg PUBLIC "-//W3C//DTD SVG 20010904//EN"
 "http://www.w3.org/TR/2001/REC-SVG-20010904/DTD/svg10.dtd">
<svg version="1.0" xmlns="http://www.w3.org/2000/svg"
 width="775.000000pt" height="1280.000000pt" viewBox="0 0 775.000000 1280.000000"
 preserveAspectRatio="xMidYMid meet">
<metadata>
Created by potrace 1.15, written by Peter Selinger 2001-2017
</metadata>
<g transform="translate(0.000000,1280.000000) scale(0.100000,-0.100000)"
fill="#000000" stroke="none">
<path d="M2965 12355 c-82 -36 -156 -65 -162 -65 -18 0 -53 -75 -63 -134 -12
-75 3 -132 82 -301 67 -143 70 -153 73 -235 2 -55 12 -117 30 -175 24 -81 26
-100 20 -186 -7 -103 0 -153 41 -298 28 -96 32 -213 10 -266 -8 -19 -28 -41
-46 -50 -76 -39 -247 -250 -320 -395 -28 -56 -117 -194 -180 -280 -26 -36 -61
-92 -78 -125 -40 -80 -117 -296 -132 -370 -7 -33 -29 -94 -50 -135 -93 -185
-157 -467 -220 -976 -61 -482 -57 -454 -141 -934 -70 -394 -90 -487 -154 -695
-53 -172 -91 -317 -128 -490 -35 -162 -105 -365 -188 -543 -41 -88 -143 -276
-352 -647 -168 -299 -214 -391 -275 -555 -107 -290 -117 -373 -116 -960 l1
-425 41 -165 c23 -91 48 -197 56 -236 19 -96 179 -506 286 -734 121 -258 251
-437 569 -783 193 -209 323 -326 471 -422 155 -102 223 -137 342 -174 157 -50
210 -60 359 -71 234 -17 384 2 540 69 l86 37 34 -23 c71 -50 197 -116 274
-145 130 -48 211 -60 332 -48 96 10 294 47 456 85 67 16 69 15 142 -10 176
-60 343 -59 575 6 132 36 170 52 279 114 211 119 389 255 521 396 223 237 385
488 593 914 167 340 306 780 352 1108 48 347 49 382 15 877 -12 171 -65 458
-115 624 -117 386 -308 791 -499 1055 -45 64 -120 170 -166 236 -46 66 -126
170 -179 230 -109 125 -429 472 -456 495 -29 24 -121 172 -151 242 -14 35 -40
107 -56 161 -31 105 -93 269 -153 407 -95 217 -111 287 -165 720 -43 345 -65
480 -111 680 -59 261 -176 634 -266 850 -22 53 -57 147 -77 210 -41 125 -116
282 -179 375 -85 126 -238 297 -337 379 -185 153 -267 195 -392 203 -87 6 -89
7 -105 37 -9 17 -38 64 -65 104 -39 58 -52 86 -58 133 -5 33 -15 81 -23 107
-9 26 -21 85 -27 132 -6 47 -20 132 -30 190 -10 58 -24 171 -30 250 l-12 145
32 124 c37 144 37 209 1 284 -34 70 -83 114 -142 126 -28 6 -53 11 -57 11 -4
-1 -74 -30 -157 -65z"/>
</g>
</svg>
