<?xml version="1.0" standalone="no"?>
<!DOCTYPE svg PUBLIC "-//W3C//DTD SVG 20010904//EN"
 "http://www.w3.org/TR/2001/REC-SVG-20010904/DTD/svg10.dtd">
<svg version="1.0" xmlns="http://www.w3.org/2000/svg"
 width="1280.000000pt" height="1016.000000pt" viewBox="0 0 1280.000000 1016.000000"
 preserveAspectRatio="xMidYMid meet">
<metadata>
Created by potrace 1.15, written by Peter Selinger 2001-2017
</metadata>
<g transform="translate(0.000000,1016.000000) scale(0.100000,-0.100000)"
fill="#000000" stroke="none">
<path d="M6465 10039 c-82 -22 -165 -139 -165 -231 0 -37 -4 -48 -19 -53 -33
-10 -118 -101 -148 -156 -26 -50 -28 -62 -28 -169 l1 -115 61 -160 61 -160
-62 -6 c-185 -17 -345 -109 -541 -309 -117 -120 -220 -200 -330 -256 -87 -45
-135 -63 -385 -150 -264 -91 -382 -158 -523 -298 -73 -74 -126 -146 -187 -258
l-39 -72 -100 3 c-117 3 -183 -14 -224 -57 l-25 -27 8 -145 c10 -160 -2 -428
-25 -575 -8 -49 -17 -112 -21 -140 -16 -126 -108 -400 -181 -542 -90 -175
-251 -391 -387 -520 -86 -82 -132 -114 -194 -132 -78 -22 -165 22 -235 121
-108 151 -179 330 -321 808 -228 768 -425 1239 -639 1535 -148 204 -321 337
-497 381 -50 13 -93 15 -185 11 -130 -6 -126 -5 -385 -96 -425 -150 -558 -205
-619 -257 -109 -91 -70 -230 84 -304 22 -10 89 -41 149 -69 134 -63 210 -117
301 -212 224 -236 354 -584 416 -1114 6 -55 15 -350 19 -655 6 -411 12 -584
24 -665 8 -60 18 -131 21 -157 8 -74 53 -279 91 -419 127 -467 343 -888 615
-1204 232 -269 484 -449 736 -525 l73 -22 21 -71 c66 -224 220 -450 479 -706
206 -203 385 -347 672 -542 169 -114 178 -122 189 -162 6 -23 9 -62 6 -87 -5
-44 -22 -66 -73 -96 -28 -16 -23 -80 12 -144 89 -163 442 -369 831 -484 477
-142 1084 -216 1768 -216 812 0 1540 110 2016 305 351 143 608 350 609 488 0
26 -9 38 -71 90 -27 24 -33 77 -15 140 15 51 20 56 98 109 440 292 869 692
1077 1002 71 105 155 275 177 359 l18 67 66 0 c87 0 139 26 254 129 147 131
252 174 426 173 52 0 144 -7 204 -16 128 -19 245 -21 280 -5 26 12 52 63 60
119 10 63 15 81 39 134 14 29 47 78 76 109 70 78 102 130 111 179 14 73 -22
127 -110 168 -27 13 -52 30 -55 39 -29 92 -20 306 20 455 27 103 91 270 146
377 31 63 223 404 358 639 139 241 248 483 308 685 85 286 96 679 27 1012 -39
193 -127 403 -229 549 -27 38 -151 170 -275 294 -261 258 -276 280 -272 393 2
37 -3 85 -9 107 -35 118 -172 185 -303 149 -44 -12 -118 -77 -135 -117 l-12
-27 -227 -1 c-243 0 -352 -13 -547 -60 -456 -112 -872 -419 -1074 -795 -45
-84 -87 -194 -97 -258 -5 -34 -9 -39 -20 -30 -41 34 -139 304 -160 439 -15 95
-98 126 -275 100 -36 -5 -73 -12 -81 -15 -10 -4 -20 7 -34 37 -33 74 -129 213
-199 287 -142 150 -269 219 -632 342 -307 104 -377 145 -578 339 -254 245
-386 324 -571 338 l-82 7 54 135 c65 165 77 218 72 329 -5 125 -52 211 -153
281 -39 27 -43 33 -48 83 -10 98 -71 183 -151 210 -46 16 -135 18 -181 6z
m4815 -2489 c306 -81 611 -331 755 -620 229 -458 115 -1014 -353 -1730 -164
-250 -223 -366 -297 -578 -96 -278 -165 -644 -165 -878 0 -88 -2 -95 -17 -88
-37 16 -189 16 -254 0 -68 -17 -242 -96 -272 -124 -18 -16 -20 -15 -36 5 -13
16 -20 48 -24 120 -12 189 -84 488 -198 828 -120 356 -174 464 -347 700 -161
220 -202 320 -202 492 0 137 37 221 117 262 13 6 77 11 158 11 180 0 214 18
234 125 12 66 -2 129 -63 282 -79 198 -98 276 -97 392 0 108 22 207 70 321 33
76 120 215 169 267 94 99 230 180 357 212 44 11 89 22 100 25 11 3 79 3 150 2
95 -3 153 -10 215 -26z m-4476 -1515 c33 -8 89 -28 124 -45 34 -16 65 -30 68
-30 2 0 44 -29 93 -65 323 -237 544 -664 618 -1195 25 -184 23 -529 -5 -710
-33 -208 -49 -272 -111 -450 -107 -309 -295 -576 -516 -732 -324 -230 -665
-227 -980 10 -308 231 -523 658 -595 1182 -33 235 -22 678 20 840 4 19 21 85
36 145 15 61 30 115 35 120 4 6 10 27 14 48 4 20 11 40 16 43 5 3 9 13 9 23 0
30 142 301 205 391 177 253 410 408 670 444 52 7 235 -4 299 -19z"/>
</g>
</svg>
