<?xml version="1.0" standalone="no"?>
<!DOCTYPE svg PUBLIC "-//W3C//DTD SVG 20010904//EN"
 "http://www.w3.org/TR/2001/REC-SVG-20010904/DTD/svg10.dtd">
<svg version="1.0" xmlns="http://www.w3.org/2000/svg"
 width="1280.000000pt" height="1088.000000pt" viewBox="0 0 1280.000000 1088.000000"
 preserveAspectRatio="xMidYMid meet">
<metadata>
Created by potrace 1.15, written by Peter Selinger 2001-2017
</metadata>
<g transform="translate(0.000000,1088.000000) scale(0.100000,-0.100000)"
fill="#000000" stroke="none">
<path d="M3329 9917 c-90 -105 -200 -233 -245 -282 -87 -98 -101 -119 -148
-237 l-31 -76 -97 121 c-171 215 -173 217 -434 339 l-229 108 -255 18 c-140
11 -256 18 -257 18 -1 -1 -20 -110 -43 -243 l-40 -241 40 -248 c28 -165 48
-260 62 -288 24 -48 99 -161 175 -263 29 -40 53 -77 53 -83 0 -5 -19 -10 -42
-10 -82 -1 -193 -27 -263 -63 -64 -32 -495 -230 -573 -264 l-34 -14 24 -29
c12 -15 72 -85 133 -155 122 -141 124 -142 452 -323 100 -56 199 -105 220
-111 65 -17 261 -40 417 -47 81 -4 142 -10 135 -14 -8 -4 -54 -17 -104 -29
-179 -43 -238 -62 -328 -105 -76 -36 -105 -57 -166 -119 -41 -42 -73 -78 -70
-80 2 -3 73 -39 157 -82 85 -42 169 -90 187 -106 40 -36 66 -47 258 -109 172
-56 191 -58 372 -35 276 34 440 65 582 110 l143 46 -7 57 c-10 76 -10 460 0
495 4 15 11 27 15 26 4 0 34 -34 67 -75 79 -98 220 -234 331 -317 90 -68 287
-175 363 -198 22 -7 41 -15 41 -18 0 -3 -21 -17 -47 -31 -104 -54 -259 -167
-350 -254 -184 -176 -311 -369 -383 -586 -30 -89 -48 -116 -133 -196 -79 -75
-149 -125 -242 -171 -67 -34 -212 -86 -225 -81 -5 2 17 46 50 98 33 52 59 100
60 107 1 31 -200 224 -298 287 -50 32 -154 54 -294 60 l-118 6 6 -32 c11 -60
47 -121 113 -191 36 -39 62 -68 56 -66 -5 3 -59 29 -119 59 l-108 54 -137 8
c-129 7 -141 6 -226 -18 -49 -15 -93 -29 -97 -33 -11 -10 179 -292 220 -328
20 -17 35 -33 32 -36 -3 -2 -44 -21 -92 -42 -82 -35 -91 -42 -166 -129 -70
-81 -83 -103 -115 -191 -20 -55 -38 -105 -39 -112 -2 -6 42 -34 98 -61 93 -46
109 -50 223 -63 l122 -13 94 31 94 31 -5 -56 c-4 -39 2 -110 20 -222 15 -90
28 -166 30 -167 2 -2 41 15 87 37 69 33 101 58 182 138 104 102 128 139 172
265 15 42 29 77 30 77 2 0 3 -48 2 -107 0 -89 3 -116 21 -153 37 -79 32 -80
124 11 114 114 166 192 183 277 24 117 38 259 31 315 l-7 53 -100 24 c-93 21
-135 40 -91 40 38 0 197 52 280 90 46 22 112 60 148 85 36 25 66 45 67 45 2 0
1 -57 -1 -127 -8 -280 69 -542 220 -745 l50 -68 -46 -136 c-146 -428 -317
-658 -580 -779 -64 -30 -85 -35 -148 -35 -40 1 -129 -6 -198 -14 -170 -21
-189 -20 -294 15 -262 87 -463 292 -552 564 -26 80 -31 53 -8 -45 22 -94 93
-233 166 -323 117 -145 296 -262 468 -305 l75 -18 27 -56 c15 -30 64 -145 108
-254 102 -249 91 -228 160 -309 33 -37 57 -71 55 -75 -3 -4 -26 -11 -52 -15
-87 -13 -313 -73 -343 -92 -16 -10 -101 -74 -189 -143 l-159 -125 -117 -197
c-65 -108 -118 -199 -119 -201 0 -3 78 -62 174 -133 l175 -127 217 -69 c133
-41 234 -68 260 -68 24 1 115 11 203 24 88 13 161 23 162 22 1 -1 -14 -46 -32
-101 -33 -95 -35 -107 -35 -240 -1 -77 -5 -225 -9 -330 -5 -104 -7 -192 -5
-194 6 -7 335 79 368 96 57 29 401 265 439 302 46 43 143 187 227 337 58 102
61 106 55 64 -4 -25 -18 -87 -31 -138 -15 -58 -26 -137 -30 -210 -6 -114 -5
-119 26 -204 17 -49 34 -88 36 -88 2 0 55 38 118 85 63 47 139 97 168 112 34
16 95 67 172 142 136 132 150 157 232 399 44 127 51 142 69 137 11 -2 59 -10
107 -17 83 -11 92 -10 164 12 50 16 80 21 88 14 60 -45 162 -106 214 -128 87
-37 232 -74 316 -82 66 -6 81 -3 197 35 l126 42 73 -54 c211 -159 424 -213
607 -154 43 14 98 29 123 33 25 3 67 17 94 31 l48 24 52 -20 c79 -32 161 -44
256 -37 94 8 254 38 317 60 38 13 45 12 119 -14 115 -40 261 -64 348 -57 39 4
123 20 186 37 63 17 125 33 137 36 13 4 39 3 58 0 29 -6 35 -11 35 -33 0 -14
21 -88 46 -165 34 -102 58 -154 86 -191 21 -29 62 -98 91 -154 29 -57 55 -103
58 -103 3 0 26 18 51 40 76 66 134 200 174 395 l18 90 7 -60 c4 -33 12 -113
19 -178 17 -169 30 -210 117 -359 140 -243 144 -249 275 -357 l121 -101 79
182 c43 101 97 221 118 268 31 68 41 102 46 168 4 45 9 82 12 82 3 0 55 -33
116 -74 156 -104 174 -111 381 -138 l180 -24 189 43 c105 24 191 45 193 46 1
2 -9 86 -24 187 l-26 185 -88 176 c-96 193 -101 198 -266 322 -45 34 -82 64
-82 67 -1 3 34 21 77 40 54 24 96 52 142 95 36 34 130 120 210 190 80 71 146
132 148 135 5 11 -249 162 -297 177 -25 8 -130 31 -232 53 -168 35 -192 38
-257 30 -76 -10 -289 -55 -329 -71 -76 -29 -38 4 83 72 39 22 105 68 147 104
60 51 82 78 111 136 20 40 35 74 32 76 -2 2 -57 13 -122 24 -66 10 -145 28
-177 39 -31 11 -78 20 -103 20 l-46 0 6 33 c4 17 9 149 12 292 6 238 1 362
-22 553 l-7 52 40 0 c51 0 189 35 276 71 205 83 408 255 539 456 22 35 42 63
43 63 1 0 22 -30 45 -68 24 -37 77 -100 119 -141 l76 -74 -45 7 c-25 3 -59 9
-75 12 -29 5 -32 2 -62 -58 -50 -100 -93 -246 -87 -298 4 -36 60 -232 71 -249
4 -6 56 31 75 53 10 12 34 53 53 91 20 39 34 59 31 45 -2 -14 -7 -59 -11 -100
-6 -69 -4 -83 30 -179 26 -75 50 -121 82 -163 25 -32 49 -58 52 -58 13 1 162
232 168 260 3 17 8 30 11 30 4 0 31 -24 62 -54 46 -45 69 -58 145 -84 82 -27
98 -30 176 -25 l87 6 6 36 c11 68 6 143 -16 227 -18 69 -31 96 -70 144 -26 32
-48 61 -48 64 0 2 15 8 33 11 17 4 85 39 150 78 l118 70 -47 48 c-36 37 -73
59 -153 95 -102 44 -108 46 -206 46 -78 0 -95 2 -75 10 92 38 149 71 169 98
12 18 21 33 19 34 -15 13 -184 77 -228 86 -50 11 -66 9 -163 -14 -59 -14 -130
-36 -158 -47 l-50 -22 7 -66 6 -66 -19 25 c-75 95 -127 225 -144 362 -6 51
-15 96 -18 101 -4 4 1 46 12 95 25 119 27 370 3 502 -21 117 -82 303 -131 401
-40 79 -128 219 -178 282 l-30 39 49 -7 c355 -49 688 -227 921 -494 235 -269
352 -565 373 -946 l8 -150 -3 170 c-7 288 -77 531 -222 765 -24 39 -26 46 -9
25 42 -50 133 -235 170 -346 55 -165 67 -237 74 -444 6 -162 8 -177 12 -105
49 743 -464 1421 -1194 1579 -53 12 -130 24 -170 28 l-73 6 -69 65 c-226 213
-468 361 -758 461 l-133 46 63 75 c76 89 139 197 174 296 31 89 40 99 41 48 1
-21 4 -108 8 -192 l6 -154 90 -29 c92 -30 291 -64 438 -75 77 -6 89 -4 192 31
64 22 137 56 175 80 36 24 95 58 133 76 37 18 67 36 67 40 0 3 -24 28 -52 56
-62 58 -160 102 -288 129 -100 21 -88 27 69 38 166 10 208 24 388 127 157 89
165 95 243 186 45 52 83 100 86 107 3 8 -10 19 -34 29 -21 9 -124 54 -228 100
-139 62 -205 86 -248 91 -33 4 -61 8 -63 10 -2 2 30 53 71 114 42 62 78 122
81 134 3 13 16 91 28 173 l23 150 -36 160 c-27 120 -40 160 -50 158 -8 -1 -80
-9 -160 -19 l-145 -17 -150 -74 c-158 -77 -157 -76 -267 -215 l-61 -78 -41 80
c-31 59 -79 122 -190 247 -82 92 -151 168 -154 168 -7 0 -120 -175 -138 -215
-9 -19 -34 -114 -56 -210 -38 -168 -39 -178 -29 -255 6 -44 22 -125 35 -180
14 -55 23 -101 21 -103 -2 -2 -28 38 -59 90 -74 125 -135 192 -207 229 -43 21
-61 26 -63 17 -3 -7 -12 -55 -21 -107 -9 -52 -22 -109 -30 -127 -7 -18 -17
-87 -21 -152 -6 -100 -4 -128 11 -173 30 -91 148 -340 194 -409 73 -109 54
-103 196 -54 69 24 125 40 125 35 0 -17 -88 -127 -141 -176 -72 -68 -132 -108
-233 -156 -96 -46 -84 -45 -271 -35 -128 7 -294 -1 -420 -21 l-39 -6 51 65
c289 362 350 858 157 1277 -97 210 -286 420 -482 536 -48 28 -53 35 -72 97
-88 288 -321 543 -607 662 -150 64 -236 80 -413 80 -171 0 -257 -16 -407 -74
-150 -57 -331 -191 -424 -313 -18 -23 -2 -10 35 30 138 149 321 259 512 309
132 35 320 43 452 20 369 -64 688 -336 807 -687 22 -63 22 -70 7 -64 -65 28
-224 78 -289 91 -107 22 -315 21 -418 -1 -383 -81 -645 -370 -645 -709 0 -167
57 -303 175 -421 216 -216 547 -246 840 -77 82 48 232 200 284 289 91 154 141
341 141 528 l0 106 58 -44 c127 -98 249 -252 316 -400 69 -151 98 -286 97
-457 -1 -292 -100 -537 -304 -747 -106 -109 -186 -163 -397 -265 -265 -129
-413 -233 -617 -431 -118 -115 -122 -118 -129 -92 -13 54 31 333 78 483 l31
102 148 95 c81 52 155 95 164 95 10 0 32 15 50 33 37 37 53 97 58 209 2 56 -1
70 -19 90 -12 12 -34 47 -48 75 -32 65 -49 76 -153 102 -77 20 -113 20 -113 0
0 -5 -18 -9 -40 -9 -25 0 -46 -7 -57 -18 -10 -10 -85 -59 -168 -108 -254 -151
-289 -202 -435 -619 -10 -27 -23 -107 -29 -177 -6 -69 -15 -138 -21 -152 l-9
-26 -85 55 c-372 243 -863 409 -1313 444 -80 6 -112 13 -156 35 -149 76 -247
238 -247 410 0 122 39 224 118 309 121 129 227 164 567 187 191 13 303 37 398
87 174 92 270 274 239 454 -24 142 -110 257 -237 320 -67 33 -74 34 -185 34
-119 -1 -171 -14 -225 -60 -14 -12 -9 -11 15 3 181 103 429 45 540 -128 108
-169 86 -376 -57 -511 -100 -95 -202 -125 -463 -139 -322 -18 -431 -40 -538
-109 -101 -65 -192 -177 -229 -284 -26 -74 -25 -280 1 -355 21 -61 105 -192
142 -221 13 -10 24 -22 24 -25 0 -3 -21 -6 -46 -6 -69 0 -245 -27 -363 -56
-84 -21 -118 -25 -170 -19 -281 28 -570 171 -805 397 l-91 87 155 -40 c132
-34 199 -53 302 -85 13 -4 39 27 108 131 93 140 223 404 305 620 l38 100 -2
150 c-2 172 -13 267 -36 313 -9 17 -30 101 -46 184 -17 84 -32 163 -35 176 -4
22 -6 21 -92 -22 -68 -34 -102 -59 -147 -108 -69 -74 -143 -173 -156 -207 -11
-27 -118 -211 -123 -211 -2 0 10 53 26 118 35 144 64 302 73 402 6 69 2 95
-50 320 -32 135 -65 270 -75 300 -10 32 -62 124 -127 222 l-109 168 -165 -193z
m4496 -827 c104 -27 174 -53 258 -97 l67 -35 2 -52 c8 -233 -42 -426 -152
-593 -102 -155 -238 -262 -405 -319 -69 -24 -96 -28 -195 -28 -100 0 -125 4
-193 27 -101 35 -168 79 -239 155 -148 161 -178 380 -78 585 96 196 289 332
538 377 81 15 308 4 397 -20z m1410 -2184 c200 -42 413 -121 560 -208 90 -53
217 -140 211 -145 -2 -2 -40 -13 -85 -23 -162 -39 -335 -117 -492 -221 -114
-77 -313 -268 -394 -378 l-58 -79 -50 30 c-177 104 -413 146 -675 118 -81 -9
-96 -8 -119 7 -15 10 -82 26 -162 38 -119 18 -143 19 -191 8 -30 -7 -74 -13
-97 -13 -23 0 -54 -5 -69 -10 -22 -9 -43 -6 -102 12 l-74 23 -34 68 -35 68 50
62 c60 76 225 236 308 300 206 158 500 292 748 341 154 31 202 35 420 31 189
-3 237 -7 340 -29z m-3960 -76 c305 -34 592 -122 883 -270 143 -72 372 -215
372 -231 0 -14 -103 -115 -235 -231 -96 -85 -112 -95 -133 -87 -13 5 -117 9
-232 9 l-208 0 -124 -50 -124 -49 -53 16 c-51 15 -63 14 -245 -12 -105 -15
-215 -35 -244 -45 l-53 -17 -52 28 c-146 79 -369 81 -542 5 -234 -104 -406
-307 -562 -666 -11 -24 -13 -22 -47 51 -65 139 -81 215 -81 379 1 165 17 246
84 400 150 348 499 623 924 730 186 46 465 63 672 40z m4891 -412 c211 -218
334 -442 391 -708 26 -126 24 -365 -5 -482 -78 -318 -249 -541 -507 -664 -91
-43 -232 -84 -291 -84 -30 0 -32 2 -39 47 -10 67 -100 379 -137 476 -114 299
-271 552 -446 719 l-80 77 56 82 c188 275 491 484 825 569 161 42 161 42 233
-32z m-5503 -663 c25 -11 22 -16 -36 -56 -149 -104 -290 -250 -392 -404 -67
-102 -99 -166 -145 -290 -21 -54 -42 -101 -47 -102 -30 -10 -243 164 -243 199
0 34 107 242 172 333 118 165 273 281 430 321 54 14 226 13 261 -1z m-900
-984 c35 -27 98 -68 141 -92 55 -29 76 -46 72 -56 -16 -40 -16 -155 -2 -243 9
-52 16 -148 16 -212 l0 -117 -27 9 c-16 4 -51 11 -80 14 -41 5 -181 41 -327
83 -17 6 -18 0 -14 -98 4 -97 7 -111 49 -204 25 -55 80 -150 122 -211 42 -62
77 -115 77 -118 0 -3 -42 29 -92 72 -237 198 -306 238 -486 281 -78 19 -142
37 -142 40 0 4 29 22 63 41 82 46 240 203 306 305 79 120 147 267 235 508 10
26 20 47 22 47 2 0 33 -22 67 -49z m-1943 -346 c0 -5 -5 -3 -10 5 -5 8 -10 20
-10 25 0 6 5 3 10 -5 5 -8 10 -19 10 -25z m97 -175 c112 -163 284 -285 485
-344 46 -14 73 -25 62 -25 -30 -1 -164 44 -227 75 -168 86 -305 223 -391 391
-37 74 -32 80 7 8 18 -33 46 -80 64 -105z"/>
<path d="M6239 9453 c-13 -16 -12 -17 4 -4 9 7 17 15 17 17 0 8 -8 3 -21 -13z"/>
<path d="M5469 8903 l-24 -28 28 24 c25 23 32 31 24 31 -2 0 -14 -12 -28 -27z"/>
<path d="M11782 4850 c0 -19 2 -27 5 -17 2 9 2 25 0 35 -3 9 -5 1 -5 -18z"/>
<path d="M1761 4614 c0 -11 3 -14 6 -6 3 7 2 16 -1 19 -3 4 -6 -2 -5 -13z"/>
</g>
</svg>
