<?xml version="1.0" standalone="no"?>
<!DOCTYPE svg PUBLIC "-//W3C//DTD SVG 20010904//EN"
 "http://www.w3.org/TR/2001/REC-SVG-20010904/DTD/svg10.dtd">
<svg version="1.0" xmlns="http://www.w3.org/2000/svg"
 width="814.000000pt" height="1280.000000pt" viewBox="0 0 814.000000 1280.000000"
 preserveAspectRatio="xMidYMid meet">
<metadata>
Created by potrace 1.15, written by Peter Selinger 2001-2017
</metadata>
<g transform="translate(0.000000,1280.000000) scale(0.100000,-0.100000)"
fill="#000000" stroke="none">
<path d="M4596 12793 c-17 -2 -68 -14 -115 -25 -47 -11 -97 -20 -111 -20 -14
0 -19 -2 -12 -5 7 -3 -14 -18 -48 -34 -186 -88 -343 -245 -440 -442 -74 -149
-101 -266 -108 -457 l-5 -155 -23 83 c-29 106 -118 287 -184 374 -64 84 -191
203 -263 246 -252 151 -558 184 -819 89 -37 -13 -65 -19 -62 -13 3 6 0 4 -8
-4 -7 -8 -46 -37 -87 -65 -174 -118 -357 -371 -414 -575 -19 -67 -37 -194 -37
-260 0 -105 39 -281 91 -410 150 -375 450 -757 969 -1234 144 -133 498 -446
615 -545 22 -18 35 -32 30 -30 -6 2 -103 61 -215 130 -502 309 -901 528 -1185
649 -170 73 -418 154 -570 187 -116 24 -151 27 -320 27 -168 1 -200 -2 -280
-23 -185 -48 -325 -131 -461 -273 -183 -191 -270 -378 -281 -603 -18 -389 224
-758 597 -909 140 -57 353 -92 493 -82 l72 6 -65 -19 c-256 -73 -444 -189
-580 -357 -230 -283 -282 -676 -131 -989 74 -155 192 -279 365 -386 182 -112
344 -155 551 -145 144 6 230 25 376 81 449 173 891 561 1677 1473 73 84 132
151 132 149 0 -3 -66 -112 -146 -243 -543 -885 -780 -1410 -839 -1860 -64
-489 98 -852 489 -1094 104 -65 186 -91 306 -97 386 -21 789 309 967 792 28
77 32 84 28 45 -8 -62 -92 -943 -165 -1720 l-60 -645 -121 -580 c-67 -319
-174 -832 -239 -1140 l-118 -560 -175 -557 c-95 -307 -172 -558 -169 -558 3 0
247 228 401 375 31 31 35 41 56 166 13 74 67 386 120 694 53 308 141 821 196
1140 55 319 120 699 145 845 25 146 63 366 84 490 22 124 75 434 119 690 l79
465 6 395 c4 217 7 466 9 552 1 87 4 158 7 158 3 0 18 -25 34 -55 47 -91 143
-215 241 -311 375 -370 901 -453 1192 -189 35 31 92 95 127 142 214 286 264
598 150 950 -52 163 -183 397 -327 588 -242 319 -656 725 -1292 1264 -52 44
-58 47 225 -126 436 -267 708 -419 975 -545 393 -187 664 -270 966 -298 369
-35 691 93 903 359 192 241 257 463 211 724 -54 307 -245 559 -530 697 -159
78 -360 118 -540 107 -68 -4 -80 -3 -50 4 334 77 600 278 735 554 76 155 94
239 94 425 -1 139 -3 164 -27 243 -29 94 -72 186 -119 255 -114 166 -374 338
-593 393 -69 17 -119 22 -215 22 -189 0 -340 -39 -545 -138 -416 -204 -836
-586 -1528 -1393 -86 -101 -157 -181 -157 -178 0 2 40 69 88 148 566 920 779
1366 884 1851 29 136 33 463 5 569 -48 190 -129 332 -266 469 -128 127 -273
214 -431 259 -75 21 -269 35 -334 23z m13 -6516 c0 -10 -3 -15 -9 -12 -5 3 -9
25 -9 48 1 40 2 40 9 12 4 -16 8 -38 9 -48z"/>
<path d="M4285 12735 c-5 -2 -36 -9 -68 -15 -32 -7 -57 -14 -54 -16 2 -2 44 5
93 15 49 10 78 19 64 19 -14 0 -29 -1 -35 -3z"/>
<path d="M4118 12693 c6 -2 18 -2 25 0 6 3 1 5 -13 5 -14 0 -19 -2 -12 -5z"/>
<path d="M4045 12675 c-39 -17 -21 -18 25 0 19 7 28 14 20 14 -8 0 -28 -6 -45
-14z"/>
<path d="M2675 12564 c-27 -9 -30 -12 -10 -8 17 4 53 10 80 14 48 7 49 8 10 8
-22 0 -58 -6 -80 -14z"/>
<path d="M2893 12573 c9 -2 23 -2 30 0 6 3 -1 5 -18 5 -16 0 -22 -2 -12 -5z"/>
<path d="M2534 12511 c-43 -21 -88 -46 -99 -56 -11 -9 5 -3 36 14 31 17 81 42
110 55 30 14 49 25 43 25 -5 1 -46 -17 -90 -38z"/>
<path d="M1068 10383 c7 -3 16 -2 19 1 4 3 -2 6 -13 5 -11 0 -14 -3 -6 -6z"/>
</g>
</svg>
