<?xml version="1.0" standalone="no"?>
<!DOCTYPE svg PUBLIC "-//W3C//DTD SVG 20010904//EN"
 "http://www.w3.org/TR/2001/REC-SVG-20010904/DTD/svg10.dtd">
<svg version="1.0" xmlns="http://www.w3.org/2000/svg"
 width="1212.000000pt" height="1280.000000pt" viewBox="0 0 1212.000000 1280.000000"
 preserveAspectRatio="xMidYMid meet">
<metadata>
Created by potrace 1.15, written by Peter Selinger 2001-2017
</metadata>
<g transform="translate(0.000000,1280.000000) scale(0.100000,-0.100000)"
fill="#000000" stroke="none">
<path d="M5491 12786 c-29 -35 12 -153 96 -274 55 -79 93 -147 93 -167 0 -3
-6 -5 -13 -5 -31 0 -68 -56 -79 -121 -17 -97 -14 -338 6 -449 42 -235 157
-479 316 -669 l53 -64 -55 6 c-31 4 -93 20 -139 36 -46 17 -129 44 -185 60
-55 17 -113 40 -128 52 -15 12 -55 65 -90 118 -34 53 -80 112 -102 130 -21 18
-97 61 -169 96 -71 34 -142 76 -158 92 -31 33 -89 164 -112 252 -9 37 -15 104
-15 177 0 66 -5 136 -10 156 -11 36 -54 98 -70 98 -13 0 -60 -115 -82 -202
-39 -154 -13 -369 67 -567 29 -71 139 -291 209 -418 25 -45 42 -85 37 -88 -5
-3 -57 -10 -116 -17 -80 -9 -183 -9 -413 -1 -419 15 -526 5 -678 -68 -62 -29
-95 -53 -137 -99 l-57 -61 -62 21 c-35 12 -99 24 -142 27 -95 7 -106 -2 -106
-86 0 -31 -4 -61 -8 -67 -4 -5 -38 -16 -76 -23 -39 -7 -117 -34 -180 -63 -61
-27 -139 -61 -173 -74 -59 -22 -64 -23 -105 -8 -24 9 -77 17 -118 18 -141 2
-216 -43 -446 -265 -94 -92 -186 -171 -220 -191 -86 -50 -86 -86 1 -128 73
-35 68 -64 -33 -192 -69 -86 -152 -161 -357 -323 -199 -157 -276 -226 -348
-310 -61 -70 -88 -87 -202 -121 -27 -8 -30 -14 -30 -49 0 -35 5 -43 45 -73 25
-19 52 -45 60 -58 14 -22 9 -28 -166 -206 -99 -101 -206 -217 -237 -259 -165
-220 -239 -445 -221 -679 l7 -89 -60 -58 c-59 -56 -103 -116 -103 -139 0 -6
21 -14 46 -17 25 -2 50 -9 55 -14 6 -6 4 -34 -6 -74 -29 -123 -47 -289 -70
-639 -8 -121 -29 -274 -51 -369 -13 -58 -30 -93 -80 -167 -41 -62 -66 -111
-73 -145 -17 -76 -13 -201 9 -329 27 -158 26 -188 -11 -259 -42 -80 -35 -101
32 -101 66 0 81 -17 105 -121 16 -70 19 -121 18 -299 0 -184 -4 -240 -27 -385
-66 -411 -70 -447 -71 -627 l-1 -176 -67 -30 c-87 -39 -100 -63 -67 -124 29
-52 59 -59 129 -29 56 24 85 26 97 9 4 -7 8 -188 9 -403 0 -370 1 -394 22
-470 12 -44 36 -102 52 -129 34 -54 34 -57 -12 -159 -38 -86 -34 -117 17 -117
27 0 46 10 85 45 59 52 77 56 86 18 12 -57 38 -129 72 -202 71 -156 106 -303
88 -374 -3 -14 -31 -58 -62 -99 -31 -40 -67 -95 -80 -123 l-24 -50 21 -17 c36
-30 93 -23 174 22 40 22 76 40 81 40 5 0 15 -23 22 -52 6 -28 37 -96 68 -150
51 -90 62 -101 108 -125 84 -42 165 -106 271 -212 l100 -101 -32 -26 c-37 -29
-58 -86 -42 -115 13 -25 92 -64 157 -78 29 -6 93 -11 142 -11 l89 0 58 -51
c108 -94 240 -158 397 -190 63 -13 93 -24 100 -36 22 -41 109 -121 167 -156
96 -56 155 -70 274 -63 55 3 105 6 110 6 6 1 50 -12 98 -30 323 -115 737 -117
1125 -6 194 56 336 119 479 212 82 53 83 53 89 29 14 -55 65 -37 88 31 17 52
42 84 63 84 21 0 16 -14 -17 -45 -29 -28 -40 -65 -20 -65 19 0 366 89 448 115
118 37 202 78 278 136 66 50 70 51 119 45 28 -3 75 -2 105 3 117 19 171 49
436 234 89 62 86 62 122 -8 30 -59 53 -77 99 -73 l38 3 6 55 c7 70 20 93 71
130 38 28 47 30 128 30 162 0 319 60 461 175 62 52 130 124 160 173 11 17 23
22 56 22 30 0 64 12 120 41 46 24 92 41 116 42 37 2 40 0 71 -58 33 -60 62
-85 103 -85 25 0 30 6 58 75 12 28 37 75 57 106 30 47 42 58 74 63 95 18 195
82 356 228 82 75 87 82 108 151 38 124 104 223 216 319 32 28 144 107 248 176
104 69 220 151 256 183 84 72 162 174 198 260 22 53 39 76 87 116 152 126 267
272 488 615 237 369 337 493 517 638 l43 36 8 174 c4 96 8 176 8 178 3 9 34
-2 65 -23 42 -29 72 -32 96 -10 15 13 16 23 7 63 -6 26 -11 146 -11 267 0 217
0 224 44 475 44 247 45 261 44 455 0 165 -4 212 -20 270 l-19 70 23 69 c69
205 68 469 -3 606 -24 47 -84 109 -125 130 -36 18 -36 19 -49 111 -17 122 -50
253 -105 424 -25 76 -44 140 -43 141 1 1 35 -9 75 -22 104 -35 226 -40 467
-19 352 31 441 16 680 -114 188 -102 225 -113 370 -114 136 -1 214 16 265 60
l32 26 -124 125 c-197 199 -384 369 -497 453 -184 137 -390 229 -586 263 -98
17 -310 22 -319 7 -4 -5 6 -18 21 -30 l28 -20 -41 11 c-38 9 -42 13 -48 49 -3
21 -3 63 0 92 6 53 6 54 -32 84 -22 16 -85 60 -142 96 -56 37 -105 75 -108 84
-45 139 -163 271 -309 345 -99 50 -211 91 -225 83 -5 -3 -7 -12 -3 -20 3 -8 2
-15 -2 -15 -15 0 -125 53 -125 60 0 15 64 31 200 50 210 31 242 49 465 274
248 249 282 265 554 267 93 0 157 6 201 17 l65 17 3 40 c4 67 -29 111 -142
187 -221 150 -396 216 -636 239 -86 8 -133 7 -260 -8 -123 -14 -230 -18 -525
-18 -433 1 -606 10 -598 31 3 8 10 14 17 14 6 0 23 39 38 88 58 187 171 336
473 625 111 105 228 222 261 259 49 56 68 70 109 82 33 10 73 35 118 73 133
112 177 137 344 193 266 89 340 131 393 222 16 29 30 58 30 64 0 28 -101 45
-142 23 -11 -6 -21 -9 -23 -7 -2 2 -22 71 -45 153 l-41 149 41 34 c22 19 50
52 61 74 l20 40 -33 -7 c-147 -32 -352 -107 -513 -187 -238 -119 -422 -243
-810 -543 -99 -77 -225 -173 -280 -214 -55 -41 -127 -106 -160 -145 -169 -196
-283 -300 -392 -355 -52 -26 -53 -26 -53 2 0 12 -11 76 -25 142 -29 144 -77
249 -134 294 -49 39 -88 55 -94 38 -7 -18 -62 49 -104 128 -66 123 -414 450
-471 443 -22 -2 -28 -10 -35 -43 -10 -48 5 -116 36 -159 12 -17 47 -61 79 -98
71 -84 86 -112 94 -180 8 -72 -13 -155 -79 -313 -72 -170 -88 -229 -96 -344
-5 -75 -9 -96 -21 -96 -21 0 -115 138 -274 401 -186 307 -251 399 -376 529
-325 338 -673 630 -1071 897 -136 91 -147 101 -154 135 -3 20 -13 53 -21 73
-21 53 -86 79 -113 46z m5502 -4567 c22 -6 37 -12 35 -14 -2 -2 -26 2 -53 10
-28 7 -43 14 -35 14 8 1 32 -4 53 -10z"/>
</g>
</svg>
