<?xml version="1.0" standalone="no"?>
<!DOCTYPE svg PUBLIC "-//W3C//DTD SVG 20010904//EN"
 "http://www.w3.org/TR/2001/REC-SVG-20010904/DTD/svg10.dtd">
<svg version="1.0" xmlns="http://www.w3.org/2000/svg"
 width="782.000000pt" height="1280.000000pt" viewBox="0 0 782.000000 1280.000000"
 preserveAspectRatio="xMidYMid meet">
<metadata>
Created by potrace 1.15, written by Peter Selinger 2001-2017
</metadata>
<g transform="translate(0.000000,1280.000000) scale(0.100000,-0.100000)"
fill="#000000" stroke="none">
<path d="M4257 12715 c-29 -57 -50 -83 -87 -109 -51 -37 -90 -97 -90 -139 0
-16 -7 -26 -19 -30 -12 -3 -24 -19 -30 -38 -8 -30 -9 -31 -10 -8 -1 14 -13 48
-27 77 -23 47 -25 56 -15 102 11 53 39 115 73 163 11 16 18 30 15 33 -3 3 -31
-38 -62 -90 -52 -87 -59 -104 -66 -174 -4 -42 -8 -79 -9 -82 0 -5 -31 31 -56
67 -8 12 -29 72 -45 135 -25 99 -28 105 -23 53 3 -33 12 -92 20 -132 8 -40 12
-84 8 -100 -7 -25 -8 -24 -22 22 -14 51 -28 75 -43 75 -9 0 -36 -88 -41 -135
-3 -25 -7 -20 -30 42 -16 39 -28 90 -29 114 0 24 -7 67 -14 94 l-12 50 0 -90
c1 -59 -5 -113 -18 -157 -17 -62 -35 -89 -35 -53 0 20 -31 95 -39 95 -3 0 -24
-55 -45 -121 l-39 -121 -30 78 c-16 44 -31 95 -33 114 -9 71 -27 151 -36 156
-8 5 -4 -68 8 -140 2 -16 -1 -34 -6 -41 -6 -7 -13 -36 -17 -64 -3 -28 -8 -51
-10 -51 -3 0 -13 10 -23 23 -18 21 -19 21 -37 4 -11 -11 -20 -38 -23 -75 l-5
-57 -26 50 c-24 47 -25 55 -17 145 5 52 7 111 6 130 -3 33 -4 32 -16 -20 -8
-30 -16 -80 -19 -111 -4 -41 -9 -56 -20 -55 -23 2 -52 -43 -62 -94 -4 -25 -10
-38 -13 -30 -3 8 -18 51 -34 94 l-27 79 -12 -41 c-7 -23 -18 -72 -25 -109 -6
-37 -15 -81 -19 -98 l-7 -30 -28 55 -28 54 -19 -22 c-10 -13 -23 -48 -30 -78
-16 -72 -30 -51 -36 55 -8 152 -49 254 -135 337 l-50 49 55 -81 c63 -94 93
-168 107 -262 10 -70 6 -91 -8 -51 -8 21 -11 18 -30 -34 -12 -32 -22 -60 -22
-63 0 -3 -7 -31 -16 -62 l-17 -56 -28 56 c-16 31 -33 59 -38 62 -9 6 -40 -109
-42 -151 0 -10 -7 7 -15 37 -21 80 -48 129 -99 185 l-46 50 41 -63 c23 -35 52
-87 65 -115 36 -78 60 -257 35 -257 -5 0 -27 37 -49 83 -38 78 -129 212 -139
203 -2 -3 19 -43 47 -90 76 -129 101 -183 95 -201 -6 -13 -15 -8 -51 27 l-45
43 17 -34 c9 -19 27 -43 39 -55 17 -16 25 -42 35 -111 18 -134 67 -322 101
-392 36 -72 101 -135 178 -170 40 -19 52 -30 52 -47 0 -26 35 -138 56 -178 13
-26 13 -27 -15 -30 l-29 -3 56 -98 c31 -54 78 -126 105 -161 26 -36 47 -67 47
-70 0 -3 -11 -1 -25 4 -23 9 -25 7 -25 -17 0 -35 58 -88 121 -110 42 -15 58
-28 95 -79 56 -80 146 -161 261 -236 81 -54 92 -65 98 -97 10 -54 41 -119 76
-159 41 -46 68 -107 80 -180 24 -148 101 -1072 124 -1492 25 -484 25 -433 1
-417 -28 18 -104 113 -168 209 -28 43 -53 77 -54 75 -1 -1 6 -40 17 -87 10
-47 19 -122 19 -168 0 -79 -2 -85 -29 -113 -47 -47 -107 -35 -209 42 l-53 41
24 -39 c29 -46 57 -123 57 -157 0 -32 -35 -74 -78 -92 -53 -22 -268 -80 -402
-108 -63 -13 -104 -25 -92 -25 84 -3 213 -63 298 -137 75 -65 169 -128 241
-161 110 -51 238 -14 409 117 l79 61 3 -43 c1 -24 11 -164 22 -313 27 -368 37
-538 55 -895 8 -168 17 -363 21 -434 l6 -129 -128 7 c-209 12 -366 49 -412 99
-31 33 -49 83 -57 159 -7 73 -49 157 -107 213 -30 30 -30 30 -24 5 4 -14 10
-58 13 -97 9 -116 -22 -161 -126 -185 -71 -16 -95 -3 -129 70 -24 51 -27 66
-23 147 7 186 7 192 -14 221 -11 15 -35 38 -53 52 l-32 25 6 -70 c5 -48 1 -95
-10 -153 -30 -144 -58 -179 -144 -180 -29 0 -66 7 -82 15 -60 31 -178 232
-187 318 -2 23 2 73 10 110 13 58 13 78 2 132 -11 50 -58 165 -68 165 -1 0 -2
-51 -2 -113 0 -113 0 -114 -42 -198 -55 -109 -94 -156 -138 -165 -71 -13 -156
64 -201 182 -17 46 -17 48 9 158 15 61 34 154 42 206 26 168 18 179 -44 59
-30 -60 -41 -92 -41 -126 0 -56 -26 -101 -82 -143 -64 -46 -126 -36 -181 30
-54 63 -63 183 -22 276 28 64 32 119 11 169 -16 37 -32 48 -21 15 11 -35 -31
-104 -103 -167 -151 -132 -187 -149 -224 -103 -22 27 -24 90 -4 128 8 15 37
49 66 77 54 53 80 114 80 184 l-1 36 -14 -26 c-30 -55 -107 -66 -315 -44 -85
9 -214 23 -286 30 -155 16 -161 19 -302 148 -85 79 -192 147 -229 147 -23 0
-13 -13 80 -96 173 -154 231 -240 302 -449 31 -88 39 -129 43 -206 10 -210
-40 -268 -253 -295 -48 -6 -55 -9 -35 -15 14 -4 53 -7 87 -8 57 -1 72 4 165
52 146 76 211 101 242 93 28 -7 56 -51 56 -89 0 -98 -304 -284 -471 -288 -28
0 -31 -2 -14 -9 48 -21 185 -10 348 26 89 20 203 38 253 41 l91 6 39 -36 c36
-33 39 -39 38 -89 0 -53 -49 -217 -85 -288 -49 -97 -133 -159 -219 -161 l-45
-1 35 -15 c19 -9 58 -16 86 -16 49 -1 55 1 111 53 68 63 184 132 281 167 85
32 158 27 240 -14 76 -37 94 -71 94 -167 0 -78 -13 -135 -42 -176 -24 -34
-120 -208 -131 -236 -13 -36 -4 -29 24 19 36 61 112 128 201 177 43 23 103 65
134 91 72 62 115 76 177 59 111 -31 164 -94 201 -239 19 -76 16 -110 -25 -244
-32 -107 -53 -142 -138 -237 -31 -33 -54 -63 -52 -65 10 -10 125 47 156 77 18
18 56 76 84 130 87 170 211 277 340 294 102 14 154 -31 208 -182 54 -149 39
-285 -55 -483 -24 -51 -44 -96 -44 -99 0 -19 198 279 231 348 22 47 46 96 52
109 26 53 151 121 223 121 58 0 89 -65 138 -285 39 -175 49 -318 31 -465 -19
-160 -18 -176 5 -125 37 81 70 264 70 390 0 133 13 175 64 206 34 21 76 25 93
8 6 -6 55 -15 109 -19 55 -5 100 -9 102 -10 1 0 2 -92 2 -203 l0 -204 -81 24
c-45 12 -103 23 -131 23 -40 0 -53 5 -72 25 -27 29 -46 93 -47 162 -1 77 -16
11 -24 -105 -9 -147 4 -213 84 -427 39 -104 74 -207 77 -227 12 -70 -44 -116
-168 -139 -54 -10 -81 -9 -164 5 -158 27 -277 95 -367 211 -23 30 -43 52 -45
50 -25 -24 225 -487 358 -663 83 -110 197 -206 319 -267 43 -22 62 -25 158
-25 l110 0 6 -452 c4 -248 5 -453 3 -455 -2 -2 -49 19 -105 48 -119 59 -209
139 -243 215 -20 45 -20 59 -14 209 5 143 4 168 -14 235 -21 75 -67 180 -80
180 -3 0 -7 -24 -9 -53 -3 -89 -22 -165 -55 -220 -26 -44 -39 -55 -81 -70 -57
-20 -155 -18 -200 4 -59 29 -70 58 -70 187 l0 117 55 115 c46 98 54 123 54
170 -1 32 -8 70 -19 90 -17 34 -75 107 -75 95 0 -3 -7 -41 -16 -83 -29 -146
-153 -362 -223 -392 -52 -21 -144 -9 -193 26 -84 60 -150 256 -152 454 l-1
115 59 112 59 111 -1 119 c0 75 -6 135 -15 163 -11 33 -15 38 -16 21 -4 -97
-74 -266 -147 -356 -59 -72 -183 -171 -233 -186 -105 -31 -194 48 -235 208
-33 127 -19 199 61 319 90 134 241 454 214 454 -5 0 -47 -37 -93 -83 -70 -68
-89 -94 -113 -152 -37 -91 -56 -111 -140 -151 -119 -58 -191 -41 -250 60 -70
120 -40 293 75 426 28 32 57 74 65 94 15 36 19 132 6 176 -6 22 -8 20 -13 -18
-10 -73 -45 -105 -191 -177 -131 -64 -263 -115 -299 -115 -25 0 -64 43 -71 79
-16 79 48 166 159 217 39 18 87 49 107 69 35 36 124 202 114 212 -3 2 -10 -5
-16 -16 -18 -32 -68 -53 -127 -52 -82 1 -234 56 -596 219 -84 38 -171 75 -193
82 -94 30 -149 94 -281 329 -65 115 -167 230 -222 249 -18 6 -32 8 -32 5 0 -3
22 -41 50 -83 70 -109 195 -358 218 -432 30 -97 45 -263 40 -458 -4 -164 -6
-181 -36 -271 -43 -128 -96 -210 -151 -232 -53 -21 -182 -22 -287 -2 -43 8
-79 13 -82 11 -7 -8 84 -55 137 -70 68 -20 101 -20 193 0 137 29 243 44 319
44 66 0 78 -3 97 -23 28 -30 44 -83 36 -119 -8 -39 -95 -113 -162 -138 -166
-63 -383 -97 -517 -80 -44 5 -91 12 -105 15 -14 3 4 -9 40 -26 106 -51 232
-77 449 -94 317 -25 421 -47 480 -103 72 -68 74 -149 9 -257 -58 -95 -178
-254 -223 -293 -54 -47 -166 -108 -215 -116 -32 -6 -128 10 -175 29 -39 16 61
-58 110 -81 72 -34 112 -31 206 16 109 55 345 110 472 110 130 0 297 -92 348
-191 26 -52 24 -121 -6 -217 -31 -97 -74 -157 -174 -241 -75 -62 -261 -252
-261 -266 0 -4 20 12 44 35 106 101 194 141 411 185 43 9 122 35 174 56 130
54 165 58 234 26 74 -34 141 -97 174 -166 27 -53 28 -63 28 -201 0 -171 -5
-189 -83 -299 -31 -44 -72 -105 -91 -136 -37 -64 -121 -131 -264 -213 l-87
-50 42 -6 c55 -8 137 7 207 40 41 19 85 55 171 142 123 124 207 182 333 227
187 68 373 25 419 -96 37 -102 49 -298 23 -407 -32 -136 -144 -310 -309 -479
-39 -40 -67 -73 -64 -73 10 0 255 187 355 272 46 38 110 101 144 141 99 117
142 142 287 167 118 21 192 -7 212 -78 20 -72 8 -375 -21 -567 -25 -159 -71
-306 -156 -493 -35 -78 -63 -148 -61 -154 7 -20 79 80 164 228 81 142 95 176
148 355 31 102 58 146 111 176 50 28 135 32 156 7 26 -31 84 -61 203 -104
l119 -44 -7 -230 c-4 -127 -10 -240 -13 -251 -3 -12 28 12 73 57 98 95 186
157 236 164 l38 7 0 78 0 78 32 3 c45 4 46 25 3 86 l-35 52 0 150 0 151 41
-23 c22 -12 69 -46 103 -74 69 -57 105 -79 114 -69 13 12 1 112 -23 205 -37
140 -84 229 -170 319 l-72 76 -7 480 c-3 264 -9 516 -13 560 l-6 80 27 -24
c37 -35 52 -89 38 -143 -7 -28 -8 -57 -2 -83 5 -22 10 -65 10 -96 0 -94 74
-213 160 -259 22 -12 22 -11 16 16 -33 131 -30 237 8 314 13 25 46 77 73 116
61 86 167 273 193 342 28 74 35 174 17 250 l-15 64 23 -6 c13 -3 69 -11 125
-17 178 -19 297 3 530 101 120 51 293 110 395 136 93 23 94 24 40 43 -27 10
-171 77 -318 150 -147 72 -281 134 -297 138 -56 11 -30 19 100 31 116 10 143
17 248 57 177 70 314 146 442 246 155 122 348 213 550 259 103 23 102 26 -7
27 -156 2 -225 21 -377 105 -104 58 -150 77 -238 99 -155 39 -258 81 -258 106
0 23 61 42 355 110 217 50 312 77 420 120 220 87 690 320 710 352 2 4 -21 3
-53 -2 -31 -5 -138 -10 -237 -10 -210 -1 -207 -2 -382 102 -117 68 -163 103
-163 121 0 19 90 33 401 65 80 8 179 24 220 34 131 34 361 144 504 242 73 50
153 125 143 134 -3 3 -38 -2 -79 -10 -200 -42 -466 -57 -556 -30 -54 16 -219
100 -229 116 -18 30 73 80 268 148 153 52 207 81 262 138 48 50 316 396 311
401 -1 2 -29 -11 -62 -27 -33 -17 -90 -39 -126 -48 -63 -17 -69 -17 -141 1
-74 19 -109 18 -213 -3 -73 -14 -77 -3 -37 119 84 256 89 282 88 450 0 85 -6
189 -12 230 -28 174 -31 257 -17 447 8 104 15 195 15 203 0 8 -18 -38 -40
-102 -46 -137 -122 -302 -187 -407 -63 -100 -226 -304 -332 -414 -183 -190
-304 -265 -443 -275 -77 -5 -78 -4 -106 26 -34 36 -51 96 -53 179 l-1 58 -13
-50 c-7 -27 -13 -84 -14 -125 -1 -64 4 -87 35 -160 l35 -85 -6 -116 c-6 -100
-4 -124 14 -186 28 -94 27 -124 -5 -154 -24 -22 -33 -24 -127 -24 -152 1 -440
56 -557 106 -52 22 -104 72 -122 118 -6 14 -13 53 -17 86 l-7 60 -18 -74 c-39
-154 -14 -245 153 -546 114 -205 121 -220 121 -245 0 -25 -6 -25 -90 0 -99 30
-312 60 -421 60 -92 0 -98 1 -124 28 -37 36 -63 100 -78 190 l-13 75 -19 -64
c-13 -41 -20 -93 -20 -146 0 -76 2 -84 32 -125 72 -97 81 -119 92 -218 5 -52
23 -150 40 -218 57 -234 52 -292 -35 -372 -148 -137 -382 -135 -541 5 -42 35
-43 38 -43 97 l0 61 51 -7 c28 -4 86 -18 128 -32 122 -41 142 -44 148 -28 20
53 -171 311 -283 381 -48 31 -54 52 -54 202 0 184 -46 969 -71 1234 -11 109
-11 119 6 137 32 35 83 62 112 58 35 -4 62 -58 123 -241 23 -70 44 -127 46
-127 3 0 14 21 26 48 32 71 30 186 -5 273 -15 36 -27 68 -27 72 0 3 26 24 58
45 98 67 157 127 182 184 46 107 58 117 228 179 57 20 122 50 145 66 53 36
152 128 178 164 19 28 18 27 -68 -16 -114 -57 -195 -85 -250 -85 -97 0 -107
36 -31 117 69 72 113 97 231 127 54 14 113 36 130 47 42 29 113 97 139 132
l20 27 -74 -37 c-46 -23 -88 -37 -113 -37 -36 -1 -40 2 -43 25 -8 72 231 230
418 275 l75 18 -44 8 c-47 8 -91 32 -91 49 0 19 227 108 335 131 11 3 -27 3
-85 0 -90 -4 -107 -2 -119 12 -13 15 -7 24 50 79 80 78 190 223 231 304 35 72
47 164 28 233 l-12 45 -38 -77 c-97 -198 -195 -291 -410 -387 -41 -19 -121
-58 -178 -87 -57 -30 -111 -54 -121 -54 -46 0 -76 97 -65 205 l6 60 -61 -121
c-68 -137 -135 -220 -206 -253 -53 -25 -107 -27 -129 -6 -17 17 -35 75 -37
115 -1 18 -3 15 -10 -14 -18 -76 -72 -168 -137 -233 -48 -48 -87 -75 -165
-113 -55 -27 -103 -48 -105 -45 -10 10 193 320 290 441 54 69 58 72 140 99
108 35 226 95 308 155 56 41 73 48 128 54 67 6 94 16 130 49 29 27 28 45 -3
49 -23 3 -18 9 49 61 100 78 222 200 205 205 -40 11 -40 12 -5 55 19 23 50 69
68 102 34 60 34 60 88 66 106 12 203 80 276 195 49 77 164 300 164 319 0 8 17
25 38 39 40 25 81 66 66 66 -5 0 -26 -11 -46 -25 -45 -30 -48 -31 -48 -4 0 13
40 60 113 131 78 77 101 105 77 92 -19 -11 -79 -63 -132 -116 -54 -54 -100
-98 -103 -98 -13 0 8 67 42 140 29 60 53 92 122 159 l86 83 -60 -40 c-71 -47
-83 -59 -127 -133 l-34 -56 4 91 3 91 -50 -52 -51 -52 -1 112 c-1 62 -1 115 0
120 2 12 -17 8 -22 -5 -2 -7 -8 -10 -12 -6 -9 9 48 121 88 174 32 41 109 112
154 141 13 9 21 18 19 20 -10 10 -124 -68 -164 -111 -44 -48 -86 -125 -122
-224 -13 -34 -27 -65 -31 -68 -5 -3 -9 20 -9 50 0 30 -5 67 -11 83 l-10 28
-37 -43 c-41 -47 -55 -53 -47 -19 8 32 21 247 15 247 -6 -1 -30 -32 -77 -104
l-33 -48 0 57 c0 61 -12 95 -35 95 -11 0 -12 6 -5 24 12 31 23 208 12 181 -5
-11 -20 -71 -33 -133 -21 -98 -28 -116 -56 -144 l-33 -32 7 67 c6 73 -5 90
-47 67 -20 -11 -21 -9 -19 52 2 54 19 122 55 212 5 14 4 17 -6 11 -7 -4 -31
-47 -53 -94 -22 -47 -53 -101 -69 -120 -16 -18 -34 -44 -40 -57 -21 -46 -28
-23 -28 97 0 136 -4 140 -57 70 l-33 -43 -2 79 c-2 107 -1 110 32 181 16 34
25 62 21 62 -11 0 -67 -117 -76 -157 -3 -17 -13 -38 -22 -45 -9 -7 -28 -29
-43 -50 l-27 -36 5 78 c3 47 0 80 -6 84 -9 6 -53 -38 -79 -80 -11 -17 -12 -17
-12 9 -1 16 7 41 18 55 22 33 93 194 87 200 -3 2 -17 -20 -32 -50 -40 -78 -82
-139 -123 -175 l-36 -31 -5 26 c-4 15 0 43 8 62 17 40 12 88 -19 195 -27 91
-37 93 -14 4 11 -42 15 -86 12 -127 -4 -52 -9 -66 -31 -83 -15 -11 -35 -37
-46 -57 l-19 -37 -1 33 c0 18 -6 35 -12 37 -9 4 -13 27 -13 69 0 58 -3 68 -33
103 -42 49 -57 83 -75 168 -12 54 -16 62 -16 34 -2 -68 21 -154 55 -209 29
-47 34 -64 34 -115 0 -58 -1 -61 -40 -88 -22 -16 -44 -27 -49 -25 -5 2 -35 52
-65 112 -34 67 -56 100 -56 85 0 -13 16 -49 35 -79 39 -60 49 -130 19 -130 -8
0 -41 -26 -72 -57 -95 -97 -193 -294 -227 -458 -24 -114 -23 -299 2 -390 20
-70 20 -70 -1 -115 -26 -58 -26 -57 -36 -40 -7 11 -12 11 -23 2 -25 -21 -68
-131 -74 -188 -6 -52 -7 -54 -24 -38 -18 16 -20 15 -34 -19 -28 -68 -38 -171
-24 -265 14 -103 14 -101 0 -220 -18 -142 3 -275 64 -411 l26 -58 -35 -64
c-44 -80 -92 -225 -102 -304 -7 -60 -75 -216 -80 -185 -6 33 -44 454 -53 595
-6 83 -16 222 -23 310 -7 88 -12 327 -12 530 -1 304 3 391 17 490 l18 120 44
42 c87 84 121 176 130 353 3 70 13 133 30 190 18 60 25 103 23 145 -3 59 -3
60 -31 57 -25 -3 -27 -1 -18 17 23 42 0 280 -23 243 -14 -23 -24 -11 -31 38
-6 46 -3 57 44 152 58 120 76 183 93 328 10 95 9 117 -11 237 -32 196 -65 286
-125 342 l-25 24 19 37 c11 21 39 55 63 76 40 36 67 75 49 73 -4 0 -43 -41
-87 -89 -44 -49 -83 -89 -87 -90 -3 0 -20 19 -38 43 -24 33 -30 48 -25 72 10
54 44 110 82 135 28 19 46 45 75 109 49 106 45 125 -5 26z m202 -8458 c99
-152 111 -210 54 -277 -29 -35 -55 -38 -100 -10 l-33 20 0 172 c0 95 -3 184
-6 198 -10 37 4 20 85 -103z"/>
<path d="M4647 1673 c3 -54 1 -129 -5 -168 -6 -38 -9 -71 -7 -74 10 -10 36 75
38 124 1 29 5 51 10 48 4 -2 7 -11 7 -18 0 -8 9 -19 21 -25 23 -13 69 1 90 26
10 12 6 12 -28 0 -73 -26 -93 11 -47 90 31 52 25 57 -15 12 -32 -35 -32 -35
-46 45 -12 74 -24 36 -18 -60z"/>
<path d="M4857 1733 c-4 -3 -7 -36 -7 -73 0 -109 42 -126 112 -46 20 23 27 26
28 14 0 -16 53 -68 70 -68 4 0 -7 15 -26 34 -24 24 -34 44 -35 67 -1 19 -4 45
-9 59 -8 28 -12 22 -30 -48 -12 -49 -41 -82 -69 -82 -32 0 -37 50 -14 133 4
17 -7 23 -20 10z"/>
<path d="M4767 1492 c-10 -10 -17 -28 -17 -40 0 -24 36 -53 56 -45 8 3 14 -1
14 -10 0 -23 -18 -31 -36 -16 -17 14 -29 6 -21 -16 9 -21 50 -19 70 3 24 27
22 97 -3 122 -25 25 -42 25 -63 2z m48 -37 c0 -11 -8 -21 -17 -23 -14 -3 -18
3 -18 23 0 20 4 26 18 23 9 -2 17 -12 17 -23z"/>
<path d="M4880 1490 c-8 -16 -8 -20 4 -20 8 0 18 5 21 10 3 6 10 10 16 10 14
0 11 -38 -3 -44 -9 -3 -8 -8 5 -16 20 -13 23 -50 4 -50 -7 0 -18 5 -25 12 -9
9 -15 9 -23 1 -8 -8 -4 -16 15 -28 24 -16 28 -16 51 -1 25 16 35 59 16 70 -4
3 -6 17 -3 32 8 44 -57 64 -78 24z"/>
</g>
</svg>
