<?xml version="1.0" standalone="no"?>
<!DOCTYPE svg PUBLIC "-//W3C//DTD SVG 20010904//EN"
 "http://www.w3.org/TR/2001/REC-SVG-20010904/DTD/svg10.dtd">
<svg version="1.0" xmlns="http://www.w3.org/2000/svg"
 width="1144.000000pt" height="1280.000000pt" viewBox="0 0 1144.000000 1280.000000"
 preserveAspectRatio="xMidYMid meet">
<metadata>
Created by potrace 1.15, written by Peter Selinger 2001-2017
</metadata>
<g transform="translate(0.000000,1280.000000) scale(0.100000,-0.100000)"
fill="#000000" stroke="none">
<path d="M5030 12754 c-1283 -43 -2632 -244 -4090 -610 -263 -65 -726 -189
-830 -221 -17 -5 -51 -101 -37 -106 5 -1 4 -78 -2 -187 -41 -687 -34 -1457 20
-2115 61 -758 181 -1497 360 -2210 48 -194 141 -534 159 -585 5 -14 23 -72 40
-130 46 -153 154 -475 212 -630 136 -364 324 -804 341 -793 6 4 7 1 2 -7 -9
-14 44 -132 57 -124 4 3 5 -1 2 -9 -6 -18 194 -419 346 -692 235 -422 544
-904 820 -1280 717 -975 1628 -1874 2645 -2611 209 -151 554 -384 592 -400 62
-27 113 -5 321 135 187 127 467 327 592 424 560 435 888 725 1345 1188 687
697 1224 1388 1714 2208 1050 1753 1629 3743 1741 5980 28 554 -2 1896 -42
1937 -7 6 -619 159 -893 222 -1076 251 -2173 441 -3004 522 -56 6 -145 14
-198 19 -564 55 -894 71 -1533 75 -316 2 -622 2 -680 0z m-2139 -10231 c13
-16 12 -17 -3 -4 -17 13 -22 21 -14 21 2 0 10 -8 17 -17z m120 -140 c13 -16
12 -17 -3 -4 -17 13 -22 21 -14 21 2 0 10 -8 17 -17z m70 -80 c13 -16 12 -17
-3 -4 -17 13 -22 21 -14 21 2 0 10 -8 17 -17z m79 -88 c13 -14 21 -25 18 -25
-2 0 -15 11 -28 25 -13 14 -21 25 -18 25 2 0 15 -11 28 -25z m116 -127 l29
-33 -32 29 c-31 28 -38 36 -30 36 2 0 16 -15 33 -32z m164 -173 c35 -36 62
-65 59 -65 -2 0 -34 29 -69 65 -35 36 -62 65 -59 65 2 0 34 -29 69 -65z m330
-330 c35 -36 62 -65 59 -65 -2 0 -34 29 -69 65 -35 36 -62 65 -59 65 2 0 34
-29 69 -65z m170 -160 c19 -19 32 -35 29 -35 -3 0 -20 16 -39 35 -19 19 -32
35 -29 35 3 0 20 -16 39 -35z m130 -120 c13 -14 21 -25 18 -25 -2 0 -15 11
-28 25 -13 14 -21 25 -18 25 2 0 15 -11 28 -25z m181 -162 c13 -16 12 -17 -3
-4 -10 7 -18 15 -18 17 0 8 8 3 21 -13z m140 -120 c13 -16 12 -17 -3 -4 -10 7
-18 15 -18 17 0 8 8 3 21 -13z"/>
</g>
</svg>
